G04 EAGLE Gerber RS-274X export*
G75*
%MOMM*%
%FSLAX34Y34*%
%LPD*%
%IN*%
%IPPOS*%
%AMOC8*
5,1,8,0,0,1.08239X$1,22.5*%
G01*
G04 Define Apertures*
%ADD10C,0.254000*%
D10*
X-368300Y12700D02*
X-368252Y11593D01*
X-368107Y10495D01*
X-367867Y9413D01*
X-367534Y8356D01*
X-367110Y7333D01*
X-366599Y6350D01*
X-366003Y5416D01*
X-365329Y4537D01*
X-364580Y3720D01*
X-363763Y2971D01*
X-362884Y2297D01*
X-361950Y1701D01*
X-360967Y1190D01*
X-359944Y766D01*
X-358887Y433D01*
X-357805Y193D01*
X-356707Y48D01*
X-355600Y0D01*
X279400Y0D01*
X280507Y48D01*
X281605Y193D01*
X282687Y433D01*
X283744Y766D01*
X284767Y1190D01*
X285750Y1701D01*
X286684Y2297D01*
X287563Y2971D01*
X288380Y3720D01*
X289129Y4537D01*
X289803Y5416D01*
X290399Y6350D01*
X290910Y7333D01*
X291334Y8356D01*
X291667Y9413D01*
X291907Y10495D01*
X292052Y11593D01*
X292100Y12700D01*
X292100Y1041400D01*
X292052Y1042507D01*
X291907Y1043605D01*
X291667Y1044687D01*
X291334Y1045744D01*
X290910Y1046767D01*
X290399Y1047750D01*
X289803Y1048684D01*
X289129Y1049563D01*
X288380Y1050380D01*
X287563Y1051129D01*
X286684Y1051803D01*
X285750Y1052399D01*
X284767Y1052910D01*
X283744Y1053334D01*
X282687Y1053667D01*
X281605Y1053907D01*
X280507Y1054052D01*
X279400Y1054100D01*
X-355600Y1054100D01*
X-356707Y1054052D01*
X-357805Y1053907D01*
X-358887Y1053667D01*
X-359944Y1053334D01*
X-360967Y1052910D01*
X-361950Y1052399D01*
X-362884Y1051803D01*
X-363763Y1051129D01*
X-364580Y1050380D01*
X-365329Y1049563D01*
X-366003Y1048684D01*
X-366599Y1047750D01*
X-367110Y1046767D01*
X-367534Y1045744D01*
X-367867Y1044687D01*
X-368107Y1043605D01*
X-368252Y1042507D01*
X-368300Y1041400D01*
X-368300Y12700D01*
M02*
