M48
;GenerationSoftware,Autodesk,EAGLE,9.7.0*%
;CreationDate,2024-09-25T22:43:25Z*%
FMAT,2
ICI,OFF
METRIC,TZ,000.000
T7C0.350
T6C0.813
T5C1.000
T4C1.016
T3C1.300
T2C2.286
T1C3.200
%
G90
M71
T1
X-31750Y3810
X27940Y3810
X-31750Y101600
X27940Y101600
T2
X18649Y67465
X18649Y80673
T3
X-8937Y99572
X26289Y11938
X26289Y16938
X-3937Y99572
T4
X24130Y42545
X10160Y62230
X24130Y40005
X24130Y37465
X24130Y34925
X24257Y30480
X24257Y27940
X24257Y25400
X24257Y22860
X-10160Y36830
X-12700Y36830
X-10160Y11430
X-12700Y11430
X-10160Y6350
X-12700Y6350
X7620Y39370
X-7620Y39370
X-7620Y41910
X-7620Y44450
X-7620Y46990
X-7620Y49530
X-7620Y52070
X-7620Y54610
X-7620Y57150
X-7620Y59690
X-7620Y62230
X7620Y62230
X7620Y59690
X7620Y57150
X7620Y54610
X7620Y52070
X7620Y49530
X7620Y46990
X7620Y44450
X7620Y41910
X7620Y3810
X7620Y6350
X7620Y8890
X7620Y11430
X7620Y13970
X7620Y16510
X7620Y19050
X7620Y21590
X7620Y24130
X7620Y26670
X7620Y29210
X7620Y31750
X7620Y34290
X7620Y36830
X-7620Y3810
X-7620Y6350
X-7620Y8890
X-7620Y11430
X-7620Y13970
X-7620Y16510
X-7620Y19050
X-7620Y21590
X-7620Y24130
X-7620Y26670
X-7620Y29210
X-7620Y31750
X-7620Y34290
X-7620Y36830
X26142Y71529
X26142Y76609
X11664Y71529
X10160Y54610
X11664Y76609
X26142Y74069
X-10160Y13970
X-12700Y13970
X-10160Y16510
X-12700Y16510
X-10160Y19050
X-12700Y19050
X-10160Y21590
X-12700Y21590
X-10160Y24130
X-12700Y24130
X-10160Y26670
X10160Y6350
X10160Y8890
X10160Y11430
X10160Y13970
X10160Y16510
X10160Y19050
X10160Y21590
X10160Y24130
X10160Y26670
X10160Y29210
X10160Y31750
X10160Y34290
X10160Y36830
X12700Y36830
X12700Y34290
X12700Y31750
X12700Y29210
X12700Y26670
X12700Y24130
X12700Y21590
X12700Y19050
X12700Y16510
X12700Y13970
X12700Y11430
X12700Y8890
X12700Y6350
X-33020Y46990
X-33020Y49530
X-33020Y52070
X-33020Y54610
X-33020Y24130
X-33020Y26670
X-33020Y29210
X-33020Y31750
X-12700Y34290
X-10240Y8890
X-12780Y8890
X-15320Y8890
X-17860Y8890
X-20400Y8890
X-12700Y62230
X-10160Y62230
X-12700Y59690
X-10160Y59690
X-12700Y57150
X-10160Y57150
X-12700Y54610
X-10160Y54610
X-12700Y52070
X-10160Y52070
X-12700Y49530
X-10160Y49530
X-12700Y46990
X-10160Y46990
X-12700Y44450
X-10160Y44450
X-12700Y41910
X-10160Y41910
X-12700Y39370
X-10160Y39370
X12700Y41910
X10160Y41910
X12700Y44450
X10160Y44450
X12700Y46990
X10160Y46990
X12700Y49530
X10160Y49530
X12700Y52070
X10160Y52070
X12700Y54610
X-12700Y26670
X12700Y57150
X10160Y57150
X12700Y59690
X10160Y59690
X12700Y62230
X-10160Y29210
X-20320Y3810
X-17780Y3810
X-15240Y3810
X-12700Y3810
X-10160Y3810
X-12700Y29210
X-10160Y31750
X18981Y62582
X18981Y60042
X18981Y57502
X18981Y54962
X18981Y52422
X18981Y49882
X18981Y47342
X18981Y44802
X10160Y39319
X12700Y39319
X15240Y39319
X17780Y39319
X20320Y39319
X10160Y3861
X12700Y3861
X15240Y3861
X17780Y3861
X20320Y3861
X-12700Y31750
X-10160Y34290
T5
X-21590Y41910
X-19050Y41910
X-29210Y41910
X-29210Y44450
X-29210Y46990
X-29210Y52070
X-29210Y54610
X-29210Y57150
X-29210Y59690
X-16510Y41910
X-16510Y44450
X-16510Y46990
X-16510Y49530
X-16510Y52070
X-16510Y54610
X-16510Y57150
X-16510Y59690
X-21671Y19080
X-19131Y19080
X-29291Y19080
X-29291Y21620
X-29291Y24160
X-29291Y26700
X-29291Y29240
X-29291Y31780
X-29291Y34320
X-29291Y36860
X-16591Y19080
X-16591Y21620
X-16591Y24160
X-16591Y26700
X-16591Y29240
X-16591Y31780
X-16591Y34320
X-16591Y36860
X-29210Y49530
T6
X-20320Y24130
X-25400Y46990
X-20320Y46990
X26713Y86995
X26713Y92075
X-25400Y24130
T7
X-24130Y90170
X-21590Y72390
X17780Y77470
X10160Y68580
X-1270Y16510
X1270Y22860
X-2540Y55880
X-33020Y40640
X-29210Y10160
X-24130Y19050
X14986Y21463
X15494Y17780
X16690Y54713
X16462Y52070
X15748Y59055
X17787Y48361
X17596Y10344
X21509Y30561
X15494Y22860
X-30480Y85090
X15494Y20320
X6096Y70485
X3810Y63500
X-7960Y74930
X-3550Y45587
X-7761Y77951
X1075Y44450
X4265Y33020
X-4572Y49022
X-8001Y83185
X3810Y38100
X3429Y35306
X-3402Y37692
X2540Y58420
X2540Y44450
X-960Y64788
X17780Y13970
X15240Y16510
X17780Y41910
X19791Y46072
X-3810Y77470
X2032Y79248
X1857Y57150
X16364Y61002
X14299Y67639
X17780Y6350
X4953Y75438
X3048Y75311
X1016Y75311
X-9017Y73914
X-11176Y73914
X-12954Y74041
X-13081Y78994
X-10922Y79502
X-8890Y78613
X-8890Y84074
X-10922Y84074
X-12954Y84074
X-2540Y83820
X10160Y82550
X27940Y95250
X13970Y99060
X21590Y92710
X-25400Y101600
X24130Y101600
X-2540Y91440
X29314Y93980
X6350Y90297
X24130Y80010
X3335Y49530
X0Y40640
X25400Y62230
X-3810Y40640
X-24130Y3810
X-33020Y66040
X-17780Y30480
X-2540Y67310
X3810Y86360
X-12700Y64770
X-21590Y64770
X-1270Y5080
X24130Y2540
X21590Y8890
X-2540Y34290
X-2540Y27940
X-2540Y73660
M30