G04 EAGLE Gerber RS-274X export*
G75*
%MOMM*%
%FSLAX34Y34*%
%LPD*%
%INTop Copper*%
%IPPOS*%
%AMOC8*
5,1,8,0,0,1.08239X$1,22.5*%
G01*
G04 Define Apertures*
%ADD10R,1.100000X1.000000*%
%ADD11R,0.700000X0.900000*%
%ADD12C,1.879600*%
%ADD13R,0.600000X0.700000*%
%ADD14R,1.108000X1.108000*%
%ADD15C,1.108000*%
%ADD16R,0.800100X0.457200*%
%ADD17R,0.600000X1.700000*%
%ADD18R,1.000000X2.800000*%
%ADD19R,0.740000X0.925000*%
%ADD20R,0.700000X0.600000*%
%ADD21C,0.304800*%
%ADD22C,0.756400*%
%ADD23C,0.203200*%
%ADD24C,0.200000*%
G36*
X110149Y-194985D02*
X110000Y-195000D01*
X-110000Y-195000D01*
X-110149Y-194985D01*
X-115597Y-193902D01*
X-115872Y-193788D01*
X-120491Y-190701D01*
X-120701Y-190491D01*
X-123788Y-185872D01*
X-123902Y-185597D01*
X-124985Y-180149D01*
X-125000Y-180000D01*
X-125000Y-91027D01*
X-124953Y-90764D01*
X-124794Y-90505D01*
X-124546Y-90330D01*
X-124250Y-90265D01*
X-123952Y-90321D01*
X-123699Y-90488D01*
X-111671Y-102516D01*
X-93902Y-102516D01*
X-93616Y-102572D01*
X-93363Y-102739D01*
X-83562Y-112540D01*
X-82407Y-112540D01*
X-82121Y-112596D01*
X-81869Y-112763D01*
X-79326Y-115306D01*
X-74930Y-115306D01*
X-74647Y-115023D01*
X-74427Y-114870D01*
X-74132Y-114800D01*
X-73833Y-114851D01*
X-73578Y-115014D01*
X-73406Y-115264D01*
X-73346Y-115561D01*
X-73346Y-125681D01*
X-56852Y-142175D01*
X-56699Y-142395D01*
X-56629Y-142690D01*
X-56680Y-142989D01*
X-56843Y-143244D01*
X-57093Y-143416D01*
X-57391Y-143476D01*
X-60005Y-143476D01*
X-60835Y-144306D01*
X-61066Y-144464D01*
X-61362Y-144529D01*
X-61660Y-144473D01*
X-61913Y-144306D01*
X-62743Y-143476D01*
X-70005Y-143476D01*
X-70898Y-144369D01*
X-70898Y-145214D01*
X-70949Y-145489D01*
X-71113Y-145744D01*
X-71363Y-145916D01*
X-71660Y-145976D01*
X-89545Y-145976D01*
X-108822Y-165253D01*
X-109064Y-165416D01*
X-109361Y-165476D01*
X-114131Y-165476D01*
X-115024Y-166369D01*
X-115024Y-173631D01*
X-114194Y-174461D01*
X-114036Y-174692D01*
X-113971Y-174988D01*
X-114027Y-175286D01*
X-114194Y-175539D01*
X-115024Y-176369D01*
X-115024Y-183631D01*
X-114131Y-184524D01*
X-109103Y-184524D01*
X-108817Y-184580D01*
X-108564Y-184747D01*
X-100625Y-192687D01*
X-57215Y-192687D01*
X-57152Y-192674D01*
X28832Y-192674D01*
X35360Y-186145D01*
X35602Y-185982D01*
X35899Y-185922D01*
X40273Y-185922D01*
X44287Y-184259D01*
X47359Y-181187D01*
X49022Y-177173D01*
X49022Y-172827D01*
X47359Y-168813D01*
X44287Y-165741D01*
X40273Y-164078D01*
X35927Y-164078D01*
X31913Y-165741D01*
X31701Y-165953D01*
X31470Y-166111D01*
X31174Y-166177D01*
X30876Y-166121D01*
X30623Y-165953D01*
X21497Y-156828D01*
X21334Y-156586D01*
X21274Y-156289D01*
X21274Y-153442D01*
X21325Y-153167D01*
X21489Y-152912D01*
X21739Y-152740D01*
X22036Y-152680D01*
X22381Y-152680D01*
X23274Y-151787D01*
X23274Y-133525D01*
X23149Y-133400D01*
X22991Y-133170D01*
X22926Y-132873D01*
X22982Y-132575D01*
X23149Y-132322D01*
X29325Y-126147D01*
X29566Y-125984D01*
X29863Y-125924D01*
X47580Y-125924D01*
X47866Y-125980D01*
X48118Y-126147D01*
X53699Y-131728D01*
X66806Y-131728D01*
X67069Y-131775D01*
X67327Y-131934D01*
X67503Y-132182D01*
X67568Y-132478D01*
X67512Y-132776D01*
X67345Y-133029D01*
X60465Y-139909D01*
X60223Y-140072D01*
X59926Y-140132D01*
X49036Y-140132D01*
X48761Y-140081D01*
X48506Y-139917D01*
X48334Y-139667D01*
X48274Y-139370D01*
X48274Y-133525D01*
X47381Y-132632D01*
X40119Y-132632D01*
X39226Y-133525D01*
X39226Y-151787D01*
X40119Y-152680D01*
X47381Y-152680D01*
X48274Y-151787D01*
X48274Y-145942D01*
X48325Y-145667D01*
X48489Y-145412D01*
X48739Y-145240D01*
X49036Y-145180D01*
X55195Y-145180D01*
X55481Y-145236D01*
X55734Y-145403D01*
X79135Y-168805D01*
X79296Y-169041D01*
X79358Y-169337D01*
X79300Y-169635D01*
X77978Y-172827D01*
X77978Y-177173D01*
X79641Y-181187D01*
X82713Y-184259D01*
X86727Y-185922D01*
X91073Y-185922D01*
X95087Y-184259D01*
X98159Y-181187D01*
X99822Y-177173D01*
X99822Y-172827D01*
X98159Y-168813D01*
X95087Y-165741D01*
X91073Y-164078D01*
X86727Y-164078D01*
X83535Y-165400D01*
X83256Y-165458D01*
X82957Y-165403D01*
X82705Y-165235D01*
X63030Y-145560D01*
X62872Y-145330D01*
X62807Y-145034D01*
X62862Y-144736D01*
X63030Y-144483D01*
X87704Y-119808D01*
X87918Y-119658D01*
X88213Y-119586D01*
X88512Y-119634D01*
X88769Y-119796D01*
X88942Y-120044D01*
X89005Y-120341D01*
X88947Y-120639D01*
X88500Y-121718D01*
X88500Y-128282D01*
X91012Y-134347D01*
X95654Y-138988D01*
X101718Y-141500D01*
X108282Y-141500D01*
X114347Y-138988D01*
X118988Y-134347D01*
X121500Y-128282D01*
X121500Y-121718D01*
X118988Y-115654D01*
X114347Y-111012D01*
X108282Y-108500D01*
X101718Y-108500D01*
X100639Y-108947D01*
X100383Y-109004D01*
X100084Y-108958D01*
X99826Y-108799D01*
X99650Y-108551D01*
X99585Y-108255D01*
X99641Y-107957D01*
X99808Y-107704D01*
X108592Y-98920D01*
X108592Y-24848D01*
X86868Y-3124D01*
X60450Y-3124D01*
X60169Y-3071D01*
X59915Y-2905D01*
X59746Y-2654D01*
X59329Y-1647D01*
X57341Y341D01*
X54745Y1416D01*
X51935Y1416D01*
X49339Y341D01*
X49227Y229D01*
X49007Y76D01*
X48712Y6D01*
X48413Y57D01*
X48158Y220D01*
X47986Y470D01*
X47926Y768D01*
X47926Y5736D01*
X47973Y6000D01*
X48132Y6258D01*
X48380Y6433D01*
X48676Y6498D01*
X48974Y6443D01*
X49227Y6275D01*
X49339Y6163D01*
X51935Y5088D01*
X54745Y5088D01*
X57341Y6163D01*
X59329Y8151D01*
X60404Y10747D01*
X60404Y13557D01*
X59329Y16153D01*
X57341Y18141D01*
X54745Y19216D01*
X51935Y19216D01*
X49339Y18141D01*
X49227Y18029D01*
X49007Y17876D01*
X48712Y17806D01*
X48413Y17857D01*
X48158Y18020D01*
X47986Y18270D01*
X47926Y18568D01*
X47926Y23536D01*
X47973Y23800D01*
X48132Y24058D01*
X48380Y24233D01*
X48676Y24298D01*
X48974Y24243D01*
X49227Y24075D01*
X49339Y23963D01*
X51935Y22888D01*
X54745Y22888D01*
X57341Y23963D01*
X59329Y25951D01*
X59529Y26434D01*
X59685Y26672D01*
X59935Y26844D01*
X60233Y26904D01*
X64184Y26904D01*
X64459Y26853D01*
X64714Y26689D01*
X64886Y26439D01*
X64927Y26233D01*
X65839Y25322D01*
X73101Y25322D01*
X73931Y26152D01*
X74162Y26310D01*
X74458Y26375D01*
X74756Y26319D01*
X75009Y26152D01*
X75276Y25885D01*
X75434Y25654D01*
X75499Y25358D01*
X75443Y25060D01*
X75276Y24807D01*
X74922Y24453D01*
X74922Y14191D01*
X75035Y14078D01*
X75193Y13847D01*
X75258Y13551D01*
X75202Y13253D01*
X75035Y13000D01*
X74946Y12911D01*
X74946Y2649D01*
X75839Y1756D01*
X84101Y1756D01*
X84994Y2649D01*
X84994Y12911D01*
X84881Y13024D01*
X84723Y13255D01*
X84658Y13551D01*
X84714Y13849D01*
X84881Y14102D01*
X84970Y14191D01*
X84970Y24453D01*
X84140Y25283D01*
X83982Y25514D01*
X83917Y25810D01*
X83973Y26108D01*
X83994Y26140D01*
X83994Y34477D01*
X83101Y35370D01*
X80625Y35370D01*
X80339Y35426D01*
X80086Y35593D01*
X75027Y40652D01*
X74864Y40894D01*
X74804Y41191D01*
X74804Y75874D01*
X43630Y107048D01*
X-42263Y107048D01*
X-65230Y84081D01*
X-65230Y49155D01*
X-65277Y48892D01*
X-65436Y48634D01*
X-65684Y48458D01*
X-65980Y48393D01*
X-66278Y48449D01*
X-66531Y48616D01*
X-66999Y49084D01*
X-79261Y49084D01*
X-80154Y48191D01*
X-80154Y36929D01*
X-79261Y36036D01*
X-78940Y36036D01*
X-78665Y35985D01*
X-78410Y35821D01*
X-78238Y35571D01*
X-78178Y35274D01*
X-78178Y32836D01*
X-78229Y32561D01*
X-78393Y32306D01*
X-78643Y32134D01*
X-78940Y32074D01*
X-79261Y32074D01*
X-80154Y31181D01*
X-80154Y20919D01*
X-79474Y20239D01*
X-79316Y20008D01*
X-79251Y19712D01*
X-79307Y19414D01*
X-79474Y19161D01*
X-80154Y18481D01*
X-80154Y8219D01*
X-80109Y8174D01*
X-79951Y7943D01*
X-79886Y7647D01*
X-79942Y7349D01*
X-80109Y7096D01*
X-80154Y7051D01*
X-80154Y1522D01*
X-80210Y1236D01*
X-80377Y983D01*
X-81829Y-469D01*
X-82049Y-622D01*
X-82344Y-691D01*
X-82643Y-641D01*
X-82898Y-477D01*
X-83070Y-227D01*
X-83130Y70D01*
X-83130Y1158D01*
X-93130Y1158D01*
X-93130Y-2422D01*
X-93181Y-2697D01*
X-93345Y-2952D01*
X-93595Y-3124D01*
X-93892Y-3184D01*
X-100155Y-3184D01*
X-108878Y-11907D01*
X-108878Y-19037D01*
X-108925Y-19300D01*
X-109084Y-19558D01*
X-109332Y-19733D01*
X-109628Y-19798D01*
X-109926Y-19743D01*
X-110179Y-19575D01*
X-110540Y-19214D01*
X-110703Y-18973D01*
X-110763Y-18676D01*
X-110763Y-8330D01*
X-110707Y-8044D01*
X-110540Y-7791D01*
X-103630Y-881D01*
X-103630Y60632D01*
X-103574Y60918D01*
X-103407Y61171D01*
X-47511Y117067D01*
X-47269Y117230D01*
X-46972Y117290D01*
X44488Y117290D01*
X44774Y117234D01*
X45026Y117067D01*
X102902Y59192D01*
X103060Y58961D01*
X103125Y58665D01*
X103069Y58367D01*
X102902Y58114D01*
X100343Y55555D01*
X98680Y51541D01*
X98680Y47195D01*
X100343Y43181D01*
X103415Y40109D01*
X107429Y38446D01*
X111775Y38446D01*
X115789Y40109D01*
X118861Y43181D01*
X120524Y47195D01*
X120524Y51541D01*
X118861Y55555D01*
X115789Y58627D01*
X111775Y60290D01*
X109303Y60290D01*
X109017Y60346D01*
X108764Y60513D01*
X106727Y62550D01*
X106577Y62764D01*
X106505Y63058D01*
X106553Y63358D01*
X106715Y63614D01*
X106963Y63788D01*
X107260Y63851D01*
X107285Y63846D01*
X111775Y63846D01*
X115789Y65509D01*
X118861Y68581D01*
X120524Y72595D01*
X120524Y76941D01*
X118861Y80955D01*
X115789Y84027D01*
X111775Y85690D01*
X107429Y85690D01*
X104253Y84374D01*
X103974Y84316D01*
X103675Y84372D01*
X103423Y84539D01*
X78265Y109697D01*
X78103Y109938D01*
X78042Y110235D01*
X78042Y110553D01*
X52226Y136370D01*
X-59881Y136370D01*
X-116928Y79323D01*
X-116928Y13639D01*
X-116984Y13353D01*
X-117151Y13100D01*
X-123699Y6552D01*
X-123919Y6399D01*
X-124214Y6329D01*
X-124513Y6380D01*
X-124768Y6544D01*
X-124940Y6794D01*
X-125000Y7091D01*
X-125000Y130000D01*
X-124985Y130149D01*
X-123902Y135597D01*
X-123788Y135872D01*
X-120701Y140491D01*
X-120491Y140701D01*
X-115872Y143788D01*
X-115597Y143902D01*
X-110149Y144985D01*
X-110000Y145000D01*
X110000Y145000D01*
X110149Y144985D01*
X115597Y143902D01*
X115872Y143788D01*
X120491Y140701D01*
X120701Y140491D01*
X123788Y135872D01*
X123902Y135597D01*
X124985Y130149D01*
X125000Y130000D01*
X125000Y-180000D01*
X124985Y-180149D01*
X123902Y-185597D01*
X123788Y-185872D01*
X120701Y-190491D01*
X120491Y-190701D01*
X115872Y-193788D01*
X115597Y-193902D01*
X110149Y-194985D01*
G37*
%LPC*%
G36*
X101718Y108500D02*
X108282Y108500D01*
X114347Y111012D01*
X118988Y115654D01*
X121500Y121718D01*
X121500Y128282D01*
X118988Y134347D01*
X114347Y138988D01*
X108282Y141500D01*
X101718Y141500D01*
X95654Y138988D01*
X91012Y134347D01*
X88500Y128282D01*
X88500Y121718D01*
X91012Y115654D01*
X95654Y111012D01*
X101718Y108500D01*
G37*
G36*
X-108282Y108500D02*
X-101718Y108500D01*
X-95654Y111012D01*
X-91012Y115654D01*
X-88500Y121718D01*
X-88500Y128282D01*
X-91012Y134347D01*
X-95654Y138988D01*
X-101718Y141500D01*
X-108282Y141500D01*
X-114347Y138988D01*
X-118988Y134347D01*
X-121500Y128282D01*
X-121500Y121718D01*
X-118988Y115654D01*
X-114347Y111012D01*
X-108282Y108500D01*
G37*
G36*
X-89368Y43322D02*
X-83130Y43322D01*
X-83130Y48181D01*
X-84009Y49060D01*
X-89368Y49060D01*
X-89368Y43322D01*
G37*
G36*
X-97130Y43322D02*
X-90892Y43322D01*
X-90892Y49060D01*
X-96251Y49060D01*
X-97130Y48181D01*
X-97130Y43322D01*
G37*
G36*
X-96251Y36060D02*
X-90892Y36060D01*
X-90892Y41798D01*
X-97130Y41798D01*
X-97130Y36939D01*
X-96251Y36060D01*
G37*
G36*
X-89368Y36060D02*
X-84009Y36060D01*
X-83130Y36939D01*
X-83130Y41798D01*
X-89368Y41798D01*
X-89368Y36060D01*
G37*
G36*
X-87368Y26812D02*
X-83130Y26812D01*
X-83130Y31171D01*
X-84009Y32050D01*
X-87368Y32050D01*
X-87368Y26812D01*
G37*
G36*
X-93130Y26812D02*
X-88892Y26812D01*
X-88892Y32050D01*
X-92251Y32050D01*
X-93130Y31171D01*
X-93130Y26812D01*
G37*
G36*
X87946Y20084D02*
X92184Y20084D01*
X92184Y25322D01*
X88825Y25322D01*
X87946Y24443D01*
X87946Y20084D01*
G37*
G36*
X93708Y20084D02*
X97946Y20084D01*
X97946Y24443D01*
X97067Y25322D01*
X93708Y25322D01*
X93708Y20084D01*
G37*
G36*
X-93130Y14112D02*
X-83130Y14112D01*
X-83130Y18471D01*
X-83820Y19161D01*
X-83978Y19392D01*
X-84043Y19688D01*
X-83987Y19986D01*
X-83820Y20239D01*
X-83130Y20929D01*
X-83130Y25288D01*
X-93130Y25288D01*
X-93130Y20929D01*
X-92440Y20239D01*
X-92282Y20008D01*
X-92217Y19712D01*
X-92273Y19414D01*
X-92440Y19161D01*
X-93130Y18471D01*
X-93130Y14112D01*
G37*
G36*
X87970Y8542D02*
X97970Y8542D01*
X97970Y12901D01*
X97847Y13024D01*
X97689Y13255D01*
X97624Y13551D01*
X97680Y13849D01*
X97847Y14102D01*
X97946Y14201D01*
X97946Y18560D01*
X87946Y18560D01*
X87946Y14201D01*
X88069Y14078D01*
X88227Y13847D01*
X88292Y13551D01*
X88236Y13253D01*
X88069Y13000D01*
X87970Y12901D01*
X87970Y8542D01*
G37*
G36*
X-93130Y2682D02*
X-83130Y2682D01*
X-83130Y7041D01*
X-83185Y7096D01*
X-83343Y7327D01*
X-83408Y7623D01*
X-83352Y7921D01*
X-83185Y8174D01*
X-83130Y8229D01*
X-83130Y12588D01*
X-93130Y12588D01*
X-93130Y8229D01*
X-93075Y8174D01*
X-92917Y7943D01*
X-92852Y7647D01*
X-92908Y7349D01*
X-93075Y7096D01*
X-93130Y7041D01*
X-93130Y2682D01*
G37*
G36*
X93732Y1780D02*
X97091Y1780D01*
X97970Y2659D01*
X97970Y7018D01*
X93732Y7018D01*
X93732Y1780D01*
G37*
G36*
X88849Y1780D02*
X92208Y1780D01*
X92208Y7018D01*
X87970Y7018D01*
X87970Y2659D01*
X88849Y1780D01*
G37*
G36*
X-108282Y-141500D02*
X-101718Y-141500D01*
X-95654Y-138988D01*
X-91012Y-134347D01*
X-88500Y-128282D01*
X-88500Y-121718D01*
X-91012Y-115654D01*
X-95654Y-111012D01*
X-101718Y-108500D01*
X-108282Y-108500D01*
X-114347Y-111012D01*
X-118988Y-115654D01*
X-121500Y-121718D01*
X-121500Y-128282D01*
X-118988Y-134347D01*
X-114347Y-138988D01*
X-108282Y-141500D01*
G37*
G36*
X32012Y-141894D02*
X35750Y-141894D01*
X35750Y-133535D01*
X34871Y-132656D01*
X32012Y-132656D01*
X32012Y-141894D01*
G37*
G36*
X26750Y-141894D02*
X30488Y-141894D01*
X30488Y-132656D01*
X27629Y-132656D01*
X26750Y-133535D01*
X26750Y-141894D01*
G37*
G36*
X32012Y-152656D02*
X34871Y-152656D01*
X35750Y-151777D01*
X35750Y-143418D01*
X32012Y-143418D01*
X32012Y-152656D01*
G37*
G36*
X27629Y-152656D02*
X30488Y-152656D01*
X30488Y-143418D01*
X26750Y-143418D01*
X26750Y-151777D01*
X27629Y-152656D01*
G37*
G36*
X52602Y-174238D02*
X62738Y-174238D01*
X62738Y-164102D01*
X61332Y-164102D01*
X57327Y-165761D01*
X54261Y-168827D01*
X52602Y-172832D01*
X52602Y-174238D01*
G37*
G36*
X64262Y-174238D02*
X74398Y-174238D01*
X74398Y-172832D01*
X72739Y-168827D01*
X69673Y-165761D01*
X65668Y-164102D01*
X64262Y-164102D01*
X64262Y-174238D01*
G37*
G36*
X64262Y-185898D02*
X65668Y-185898D01*
X69673Y-184239D01*
X72739Y-181173D01*
X74398Y-177168D01*
X74398Y-175762D01*
X64262Y-175762D01*
X64262Y-185898D01*
G37*
G36*
X61332Y-185898D02*
X62738Y-185898D01*
X62738Y-175762D01*
X52602Y-175762D01*
X52602Y-177168D01*
X54261Y-181173D01*
X57327Y-184239D01*
X61332Y-185898D01*
G37*
%LPD*%
G36*
X-118209Y-20774D02*
X-118504Y-20844D01*
X-118803Y-20793D01*
X-119058Y-20630D01*
X-119230Y-20380D01*
X-119290Y-20082D01*
X-119290Y3461D01*
X-119234Y3747D01*
X-119067Y4000D01*
X-111848Y11219D01*
X-111848Y76903D01*
X-111792Y77189D01*
X-111625Y77442D01*
X-58000Y131067D01*
X-57759Y131230D01*
X-57461Y131290D01*
X49806Y131290D01*
X50092Y131234D01*
X50345Y131067D01*
X72739Y108672D01*
X72902Y108431D01*
X72962Y108134D01*
X72962Y107816D01*
X99831Y80947D01*
X99991Y80711D01*
X100054Y80415D01*
X99996Y80117D01*
X98680Y76941D01*
X98680Y72486D01*
X98684Y72469D01*
X98638Y72169D01*
X98479Y71911D01*
X98231Y71735D01*
X97935Y71670D01*
X97637Y71726D01*
X97384Y71893D01*
X46907Y122370D01*
X-49392Y122370D01*
X-51103Y120659D01*
X-108710Y63052D01*
X-108710Y1539D01*
X-108766Y1253D01*
X-108933Y1000D01*
X-115843Y-5910D01*
X-115843Y-18160D01*
X-115899Y-18445D01*
X-116066Y-18698D01*
X-117989Y-20621D01*
X-118209Y-20774D01*
G37*
G36*
X64481Y33060D02*
X64184Y33000D01*
X60233Y33000D01*
X59952Y33053D01*
X59698Y33219D01*
X59529Y33470D01*
X59329Y33953D01*
X57341Y35941D01*
X54745Y37016D01*
X51935Y37016D01*
X49339Y35941D01*
X49227Y35829D01*
X49007Y35676D01*
X48712Y35606D01*
X48413Y35657D01*
X48158Y35820D01*
X47986Y36070D01*
X47926Y36368D01*
X47926Y41336D01*
X47973Y41600D01*
X48132Y41858D01*
X48380Y42033D01*
X48676Y42098D01*
X48974Y42043D01*
X49227Y41875D01*
X49339Y41763D01*
X51935Y40688D01*
X54745Y40688D01*
X57341Y41763D01*
X59329Y43751D01*
X60404Y46347D01*
X60404Y49157D01*
X59329Y51753D01*
X57341Y53741D01*
X54745Y54816D01*
X51935Y54816D01*
X49339Y53741D01*
X49227Y53629D01*
X49007Y53476D01*
X48712Y53406D01*
X48413Y53457D01*
X48158Y53620D01*
X47986Y53870D01*
X47926Y54168D01*
X47926Y82203D01*
X45225Y86881D01*
X40547Y89582D01*
X-40801Y89582D01*
X-45479Y86881D01*
X-48180Y82203D01*
X-48180Y64468D01*
X-48231Y64193D01*
X-48395Y63938D01*
X-48645Y63766D01*
X-48942Y63706D01*
X-58372Y63706D01*
X-58647Y63757D01*
X-58902Y63921D01*
X-59074Y64171D01*
X-59134Y64468D01*
X-59134Y81240D01*
X-59078Y81526D01*
X-58911Y81779D01*
X-39961Y100729D01*
X-39719Y100892D01*
X-39422Y100952D01*
X40789Y100952D01*
X41075Y100896D01*
X41328Y100729D01*
X68485Y73572D01*
X68648Y73330D01*
X68708Y73033D01*
X68708Y38350D01*
X70387Y36671D01*
X70540Y36451D01*
X70610Y36156D01*
X70559Y35857D01*
X70396Y35602D01*
X70146Y35430D01*
X69849Y35370D01*
X65839Y35370D01*
X64946Y34477D01*
X64946Y33762D01*
X64895Y33487D01*
X64731Y33232D01*
X64481Y33060D01*
G37*
G36*
X-59776Y-10672D02*
X-60074Y-10732D01*
X-69344Y-10732D01*
X-69619Y-10681D01*
X-69874Y-10517D01*
X-70046Y-10267D01*
X-70106Y-9970D01*
X-70106Y-8649D01*
X-70999Y-7756D01*
X-78656Y-7756D01*
X-78919Y-7709D01*
X-79177Y-7550D01*
X-79353Y-7302D01*
X-79418Y-7006D01*
X-79362Y-6708D01*
X-79195Y-6455D01*
X-77067Y-4327D01*
X-76825Y-4164D01*
X-76528Y-4104D01*
X-70999Y-4104D01*
X-70106Y-3211D01*
X-70106Y7051D01*
X-70151Y7096D01*
X-70309Y7327D01*
X-70374Y7623D01*
X-70318Y7921D01*
X-70151Y8174D01*
X-70106Y8219D01*
X-70106Y9540D01*
X-70055Y9815D01*
X-69891Y10070D01*
X-69641Y10242D01*
X-69344Y10302D01*
X-65280Y10302D01*
X-64994Y10246D01*
X-64741Y10079D01*
X-60623Y5961D01*
X-60463Y5725D01*
X-60400Y5428D01*
X-60458Y5130D01*
X-60658Y4647D01*
X-60658Y1837D01*
X-59583Y-759D01*
X-57595Y-2747D01*
X-54999Y-3822D01*
X-52189Y-3822D01*
X-49593Y-2747D01*
X-49481Y-2635D01*
X-49261Y-2482D01*
X-48966Y-2412D01*
X-48667Y-2463D01*
X-48412Y-2626D01*
X-48240Y-2876D01*
X-48180Y-3174D01*
X-48180Y-8142D01*
X-48227Y-8406D01*
X-48386Y-8664D01*
X-48634Y-8839D01*
X-48930Y-8904D01*
X-49228Y-8849D01*
X-49481Y-8681D01*
X-49593Y-8569D01*
X-52189Y-7494D01*
X-54999Y-7494D01*
X-57595Y-8569D01*
X-59535Y-10509D01*
X-59776Y-10672D01*
G37*
G36*
X95338Y-104969D02*
X95043Y-105039D01*
X94744Y-104988D01*
X94489Y-104825D01*
X94317Y-104574D01*
X94257Y-104277D01*
X94257Y-30687D01*
X85223Y-21653D01*
X81307Y-21653D01*
X81033Y-21602D01*
X80777Y-21439D01*
X80606Y-21188D01*
X80545Y-20891D01*
X80545Y-20046D01*
X79653Y-19153D01*
X72390Y-19153D01*
X71560Y-19983D01*
X71330Y-20141D01*
X71033Y-20206D01*
X70735Y-20151D01*
X70483Y-19983D01*
X69653Y-19153D01*
X62390Y-19153D01*
X61497Y-20046D01*
X61497Y-20852D01*
X61452Y-21109D01*
X61295Y-21368D01*
X61049Y-21546D01*
X60754Y-21613D01*
X60455Y-21560D01*
X60201Y-21395D01*
X60031Y-21143D01*
X59329Y-19447D01*
X57341Y-17459D01*
X54745Y-16384D01*
X51935Y-16384D01*
X49339Y-17459D01*
X49227Y-17571D01*
X49007Y-17724D01*
X48712Y-17794D01*
X48413Y-17743D01*
X48158Y-17580D01*
X47986Y-17330D01*
X47926Y-17032D01*
X47926Y-12064D01*
X47973Y-11800D01*
X48132Y-11542D01*
X48380Y-11367D01*
X48676Y-11302D01*
X48974Y-11357D01*
X49227Y-11525D01*
X49339Y-11637D01*
X51935Y-12712D01*
X54745Y-12712D01*
X57341Y-11637D01*
X59329Y-9649D01*
X59746Y-8642D01*
X59902Y-8404D01*
X60152Y-8232D01*
X60450Y-8172D01*
X84462Y-8172D01*
X84748Y-8228D01*
X85001Y-8395D01*
X103321Y-26715D01*
X103484Y-26957D01*
X103544Y-27254D01*
X103544Y-96514D01*
X103488Y-96800D01*
X103321Y-97053D01*
X95558Y-104816D01*
X95338Y-104969D01*
G37*
G36*
X-93584Y-30223D02*
X-93880Y-30288D01*
X-94178Y-30233D01*
X-94431Y-30065D01*
X-95802Y-28694D01*
X-100198Y-28694D01*
X-101382Y-29878D01*
X-101602Y-30031D01*
X-101897Y-30101D01*
X-102196Y-30050D01*
X-102451Y-29887D01*
X-102623Y-29637D01*
X-102683Y-29340D01*
X-102683Y-20605D01*
X-102722Y-20548D01*
X-102782Y-20251D01*
X-102782Y-14748D01*
X-102726Y-14462D01*
X-102559Y-14209D01*
X-97853Y-9503D01*
X-97612Y-9340D01*
X-97314Y-9280D01*
X-93892Y-9280D01*
X-93617Y-9331D01*
X-93362Y-9495D01*
X-93190Y-9745D01*
X-93130Y-10042D01*
X-93130Y-13018D01*
X-83130Y-13018D01*
X-83130Y-10042D01*
X-83079Y-9767D01*
X-82915Y-9512D01*
X-82665Y-9340D01*
X-82368Y-9280D01*
X-82019Y-9280D01*
X-81455Y-8715D01*
X-81235Y-8562D01*
X-80940Y-8493D01*
X-80641Y-8543D01*
X-80386Y-8707D01*
X-80214Y-8957D01*
X-80154Y-9254D01*
X-80154Y-18911D01*
X-80109Y-18956D01*
X-79951Y-19187D01*
X-79886Y-19483D01*
X-79942Y-19781D01*
X-80109Y-20034D01*
X-80154Y-20079D01*
X-80154Y-26270D01*
X-80210Y-26556D01*
X-80377Y-26809D01*
X-81829Y-28261D01*
X-82049Y-28414D01*
X-82344Y-28483D01*
X-82643Y-28433D01*
X-82898Y-28269D01*
X-83070Y-28019D01*
X-83130Y-27722D01*
X-83130Y-25972D01*
X-93130Y-25972D01*
X-93130Y-29527D01*
X-93177Y-29790D01*
X-93336Y-30048D01*
X-93584Y-30223D01*
G37*
%LPC*%
G36*
X-93130Y-24448D02*
X-83130Y-24448D01*
X-83130Y-20089D01*
X-83185Y-20034D01*
X-83343Y-19803D01*
X-83408Y-19507D01*
X-83352Y-19209D01*
X-83185Y-18956D01*
X-83130Y-18901D01*
X-83130Y-14542D01*
X-93130Y-14542D01*
X-93130Y-18901D01*
X-93075Y-18956D01*
X-92917Y-19187D01*
X-92852Y-19483D01*
X-92908Y-19781D01*
X-93075Y-20034D01*
X-93130Y-20089D01*
X-93130Y-24448D01*
G37*
%LPD*%
G36*
X-61123Y-34428D02*
X-61420Y-34488D01*
X-69000Y-34488D01*
X-69275Y-34437D01*
X-69530Y-34273D01*
X-69702Y-34023D01*
X-69762Y-33726D01*
X-69762Y-32897D01*
X-70673Y-31986D01*
X-70831Y-31755D01*
X-70896Y-31459D01*
X-70840Y-31161D01*
X-70673Y-30908D01*
X-70106Y-30341D01*
X-70106Y-20079D01*
X-70151Y-20034D01*
X-70309Y-19803D01*
X-70374Y-19507D01*
X-70318Y-19209D01*
X-70151Y-18956D01*
X-70106Y-18911D01*
X-70106Y-17590D01*
X-70055Y-17315D01*
X-69891Y-17060D01*
X-69641Y-16888D01*
X-69344Y-16828D01*
X-60809Y-16828D01*
X-60529Y-16881D01*
X-60274Y-17047D01*
X-60105Y-17298D01*
X-59583Y-18559D01*
X-57595Y-20547D01*
X-54999Y-21622D01*
X-52189Y-21622D01*
X-49593Y-20547D01*
X-49481Y-20435D01*
X-49261Y-20282D01*
X-48966Y-20212D01*
X-48667Y-20263D01*
X-48412Y-20426D01*
X-48240Y-20676D01*
X-48180Y-20974D01*
X-48180Y-25942D01*
X-48227Y-26206D01*
X-48386Y-26464D01*
X-48634Y-26639D01*
X-48930Y-26704D01*
X-49228Y-26649D01*
X-49481Y-26481D01*
X-49593Y-26369D01*
X-52189Y-25294D01*
X-54999Y-25294D01*
X-57595Y-26369D01*
X-59583Y-28357D01*
X-60658Y-30953D01*
X-60658Y-33726D01*
X-60709Y-34001D01*
X-60873Y-34256D01*
X-61123Y-34428D01*
G37*
G36*
X-81467Y-106762D02*
X-81763Y-106827D01*
X-82061Y-106772D01*
X-82314Y-106604D01*
X-89771Y-99147D01*
X-91482Y-97436D01*
X-109251Y-97436D01*
X-109537Y-97380D01*
X-109790Y-97213D01*
X-119067Y-87936D01*
X-119230Y-87695D01*
X-119290Y-87397D01*
X-119290Y-27311D01*
X-119243Y-27048D01*
X-119084Y-26790D01*
X-118836Y-26615D01*
X-118540Y-26550D01*
X-118242Y-26605D01*
X-117989Y-26773D01*
X-115759Y-29003D01*
X-111100Y-29003D01*
X-110837Y-29050D01*
X-110579Y-29209D01*
X-110403Y-29457D01*
X-110338Y-29753D01*
X-110394Y-30051D01*
X-110561Y-30304D01*
X-113792Y-33534D01*
X-113792Y-52157D01*
X-103967Y-61982D01*
X-103804Y-62223D01*
X-103744Y-62521D01*
X-103744Y-64774D01*
X-103795Y-65048D01*
X-103958Y-65304D01*
X-104208Y-65475D01*
X-104506Y-65536D01*
X-105327Y-65536D01*
X-106220Y-66428D01*
X-106220Y-72263D01*
X-105327Y-73156D01*
X-97403Y-73156D01*
X-97117Y-73211D01*
X-96864Y-73379D01*
X-93385Y-76857D01*
X-93222Y-77099D01*
X-93162Y-77396D01*
X-93162Y-78032D01*
X-93213Y-78307D01*
X-93377Y-78562D01*
X-93627Y-78734D01*
X-93924Y-78794D01*
X-94245Y-78794D01*
X-95138Y-79687D01*
X-95138Y-89949D01*
X-94245Y-90842D01*
X-85983Y-90842D01*
X-85090Y-89949D01*
X-85090Y-79687D01*
X-85983Y-78794D01*
X-86304Y-78794D01*
X-86579Y-78743D01*
X-86834Y-78579D01*
X-87006Y-78329D01*
X-87066Y-78032D01*
X-87066Y-74555D01*
X-94948Y-66674D01*
X-94994Y-66605D01*
X-96064Y-65536D01*
X-96886Y-65536D01*
X-97160Y-65484D01*
X-97416Y-65321D01*
X-97587Y-65071D01*
X-97648Y-64774D01*
X-97648Y-59680D01*
X-101871Y-55456D01*
X-102024Y-55237D01*
X-102094Y-54942D01*
X-102043Y-54643D01*
X-101880Y-54387D01*
X-101630Y-54216D01*
X-101332Y-54156D01*
X-96064Y-54156D01*
X-95171Y-53263D01*
X-95171Y-47428D01*
X-96064Y-46536D01*
X-105327Y-46536D01*
X-106395Y-47603D01*
X-106615Y-47756D01*
X-106910Y-47826D01*
X-107209Y-47775D01*
X-107464Y-47612D01*
X-107636Y-47362D01*
X-107696Y-47065D01*
X-107696Y-36375D01*
X-107640Y-36089D01*
X-107473Y-35836D01*
X-104607Y-32970D01*
X-104387Y-32817D01*
X-104092Y-32748D01*
X-103793Y-32798D01*
X-103538Y-32962D01*
X-103366Y-33212D01*
X-103306Y-33509D01*
X-103306Y-36198D01*
X-100198Y-39306D01*
X-98602Y-39306D01*
X-98316Y-39362D01*
X-98063Y-39529D01*
X-93529Y-44063D01*
X-93366Y-44305D01*
X-93306Y-44602D01*
X-93306Y-48198D01*
X-90198Y-51306D01*
X-86856Y-51306D01*
X-86593Y-51353D01*
X-86335Y-51512D01*
X-86159Y-51760D01*
X-86094Y-52056D01*
X-86150Y-52354D01*
X-86317Y-52607D01*
X-86868Y-53157D01*
X-86868Y-67113D01*
X-81587Y-72394D01*
X-80879Y-72394D01*
X-80593Y-72449D01*
X-80340Y-72617D01*
X-79801Y-73156D01*
X-75986Y-73156D01*
X-75700Y-73211D01*
X-75447Y-73379D01*
X-74541Y-74284D01*
X-74378Y-74526D01*
X-74318Y-74823D01*
X-74318Y-78132D01*
X-74369Y-78407D01*
X-74533Y-78662D01*
X-74783Y-78834D01*
X-75080Y-78894D01*
X-75401Y-78894D01*
X-76294Y-79787D01*
X-76294Y-90049D01*
X-75401Y-90942D01*
X-74108Y-90942D01*
X-73833Y-90993D01*
X-73578Y-91157D01*
X-73406Y-91407D01*
X-73346Y-91704D01*
X-73346Y-104439D01*
X-73393Y-104702D01*
X-73552Y-104960D01*
X-73800Y-105135D01*
X-74096Y-105200D01*
X-74394Y-105145D01*
X-74647Y-104977D01*
X-74930Y-104694D01*
X-79326Y-104694D01*
X-81236Y-106604D01*
X-81467Y-106762D01*
G37*
%LPC*%
G36*
X-102352Y-84056D02*
X-98114Y-84056D01*
X-98114Y-79697D01*
X-98993Y-78818D01*
X-102352Y-78818D01*
X-102352Y-84056D01*
G37*
G36*
X-108114Y-84056D02*
X-103876Y-84056D01*
X-103876Y-78818D01*
X-107235Y-78818D01*
X-108114Y-79697D01*
X-108114Y-84056D01*
G37*
G36*
X-102352Y-90818D02*
X-98993Y-90818D01*
X-98114Y-89939D01*
X-98114Y-85580D01*
X-102352Y-85580D01*
X-102352Y-90818D01*
G37*
G36*
X-107235Y-90818D02*
X-103876Y-90818D01*
X-103876Y-85580D01*
X-108114Y-85580D01*
X-108114Y-89939D01*
X-107235Y-90818D01*
G37*
%LPD*%
G36*
X83202Y-112121D02*
X82907Y-112191D01*
X82608Y-112140D01*
X82353Y-111977D01*
X82181Y-111727D01*
X82121Y-111429D01*
X82121Y-95043D01*
X81868Y-94790D01*
X81705Y-94548D01*
X81645Y-94251D01*
X81645Y-66450D01*
X62673Y-47478D01*
X62510Y-47237D01*
X62450Y-46939D01*
X62450Y-46789D01*
X60152Y-44491D01*
X59992Y-44255D01*
X59929Y-43958D01*
X59987Y-43660D01*
X60404Y-42653D01*
X60404Y-39843D01*
X59329Y-37247D01*
X57341Y-35259D01*
X54745Y-34184D01*
X51935Y-34184D01*
X49339Y-35259D01*
X49227Y-35371D01*
X49007Y-35524D01*
X48712Y-35594D01*
X48413Y-35543D01*
X48158Y-35380D01*
X47986Y-35130D01*
X47926Y-34832D01*
X47926Y-29864D01*
X47973Y-29600D01*
X48132Y-29342D01*
X48380Y-29167D01*
X48676Y-29102D01*
X48974Y-29157D01*
X49227Y-29325D01*
X49339Y-29437D01*
X51935Y-30512D01*
X54745Y-30512D01*
X57341Y-29437D01*
X59329Y-27449D01*
X59444Y-27172D01*
X59600Y-26933D01*
X59850Y-26762D01*
X60148Y-26701D01*
X60735Y-26701D01*
X61010Y-26752D01*
X61265Y-26916D01*
X61437Y-27166D01*
X61497Y-27463D01*
X61497Y-28308D01*
X62390Y-29201D01*
X69653Y-29201D01*
X70483Y-28371D01*
X70713Y-28213D01*
X71009Y-28148D01*
X71307Y-28204D01*
X71560Y-28371D01*
X72420Y-29231D01*
X72534Y-29252D01*
X72789Y-29416D01*
X72961Y-29666D01*
X73021Y-29963D01*
X73021Y-40256D01*
X73243Y-40478D01*
X73401Y-40709D01*
X73466Y-41005D01*
X73411Y-41303D01*
X73243Y-41556D01*
X73045Y-41754D01*
X73045Y-46238D01*
X83445Y-46238D01*
X83445Y-41754D01*
X83247Y-41556D01*
X83089Y-41325D01*
X83024Y-41029D01*
X83080Y-40731D01*
X83247Y-40478D01*
X83469Y-40256D01*
X83469Y-29744D01*
X82577Y-28851D01*
X81307Y-28851D01*
X81033Y-28800D01*
X80777Y-28636D01*
X80606Y-28386D01*
X80545Y-28089D01*
X80545Y-27463D01*
X80597Y-27189D01*
X80760Y-26933D01*
X81010Y-26762D01*
X81307Y-26701D01*
X82816Y-26701D01*
X83102Y-26757D01*
X83355Y-26924D01*
X88986Y-32555D01*
X89148Y-32797D01*
X89209Y-33094D01*
X89209Y-105865D01*
X89153Y-106151D01*
X88986Y-106404D01*
X83422Y-111968D01*
X83202Y-112121D01*
G37*
%LPC*%
G36*
X73924Y-53125D02*
X77483Y-53125D01*
X77483Y-47762D01*
X73045Y-47762D01*
X73045Y-52246D01*
X73924Y-53125D01*
G37*
G36*
X79007Y-53125D02*
X82567Y-53125D01*
X83445Y-52246D01*
X83445Y-47762D01*
X79007Y-47762D01*
X79007Y-53125D01*
G37*
%LPD*%
G36*
X-38145Y-151509D02*
X-38440Y-151579D01*
X-38739Y-151528D01*
X-38994Y-151364D01*
X-39166Y-151114D01*
X-39226Y-150817D01*
X-39226Y-133525D01*
X-40119Y-132632D01*
X-47381Y-132632D01*
X-48274Y-133525D01*
X-48274Y-138846D01*
X-48325Y-139121D01*
X-48489Y-139376D01*
X-48739Y-139548D01*
X-49036Y-139608D01*
X-50482Y-139608D01*
X-50768Y-139552D01*
X-51021Y-139385D01*
X-67027Y-123379D01*
X-67190Y-123138D01*
X-67250Y-122840D01*
X-67250Y-91369D01*
X-67194Y-91083D01*
X-67027Y-90830D01*
X-66246Y-90049D01*
X-66246Y-79787D01*
X-67139Y-78894D01*
X-67460Y-78894D01*
X-67735Y-78843D01*
X-67990Y-78679D01*
X-68162Y-78429D01*
X-68222Y-78132D01*
X-68222Y-71982D01*
X-69422Y-70783D01*
X-69585Y-70541D01*
X-69645Y-70244D01*
X-69645Y-66428D01*
X-70538Y-65536D01*
X-79508Y-65536D01*
X-79794Y-65480D01*
X-80047Y-65312D01*
X-80427Y-64932D01*
X-80580Y-64713D01*
X-80650Y-64418D01*
X-80599Y-64119D01*
X-80436Y-63863D01*
X-80186Y-63692D01*
X-79888Y-63632D01*
X-75932Y-63632D01*
X-75932Y-56060D01*
X-79309Y-56060D01*
X-79573Y-56013D01*
X-79831Y-55853D01*
X-80006Y-55606D01*
X-80071Y-55310D01*
X-80016Y-55012D01*
X-79848Y-54759D01*
X-79468Y-54379D01*
X-79227Y-54216D01*
X-78929Y-54156D01*
X-70538Y-54156D01*
X-69645Y-53263D01*
X-69645Y-47428D01*
X-70538Y-46536D01*
X-71360Y-46536D01*
X-71634Y-46484D01*
X-71890Y-46321D01*
X-72061Y-46071D01*
X-72122Y-45774D01*
X-72122Y-45692D01*
X-74461Y-43353D01*
X-74614Y-43133D01*
X-74684Y-42838D01*
X-74633Y-42539D01*
X-74470Y-42284D01*
X-74220Y-42112D01*
X-73922Y-42052D01*
X-70655Y-42052D01*
X-69762Y-41159D01*
X-69762Y-40330D01*
X-69711Y-40055D01*
X-69547Y-39800D01*
X-69297Y-39628D01*
X-69000Y-39568D01*
X-64092Y-39568D01*
X-63806Y-39624D01*
X-63553Y-39791D01*
X-58924Y-44420D01*
X-58766Y-44651D01*
X-58701Y-44947D01*
X-58756Y-45245D01*
X-58924Y-45498D01*
X-59583Y-46157D01*
X-60658Y-48753D01*
X-60658Y-51563D01*
X-59583Y-54159D01*
X-57595Y-56147D01*
X-54999Y-57222D01*
X-52189Y-57222D01*
X-49593Y-56147D01*
X-49481Y-56035D01*
X-49261Y-55882D01*
X-48966Y-55812D01*
X-48667Y-55863D01*
X-48412Y-56026D01*
X-48240Y-56276D01*
X-48180Y-56574D01*
X-48180Y-61576D01*
X-48227Y-61840D01*
X-48386Y-62098D01*
X-48634Y-62273D01*
X-48930Y-62338D01*
X-49228Y-62283D01*
X-49481Y-62115D01*
X-49606Y-61990D01*
X-52194Y-60918D01*
X-52832Y-60918D01*
X-52832Y-74998D01*
X-52194Y-74998D01*
X-49606Y-73926D01*
X-49481Y-73801D01*
X-49261Y-73648D01*
X-48966Y-73578D01*
X-48667Y-73629D01*
X-48412Y-73792D01*
X-48240Y-74042D01*
X-48180Y-74340D01*
X-48180Y-85759D01*
X-45479Y-90437D01*
X-40801Y-93138D01*
X40547Y-93138D01*
X42664Y-91916D01*
X43009Y-91815D01*
X43308Y-91861D01*
X43566Y-92020D01*
X43742Y-92267D01*
X43807Y-92564D01*
X43751Y-92862D01*
X43584Y-93114D01*
X32461Y-104237D01*
X32220Y-104400D01*
X31923Y-104460D01*
X-39627Y-104460D01*
X-42265Y-107098D01*
X-42507Y-107261D01*
X-42804Y-107321D01*
X-46665Y-107321D01*
X-46951Y-107266D01*
X-47203Y-107098D01*
X-49746Y-104555D01*
X-54142Y-104555D01*
X-57250Y-107664D01*
X-57250Y-112059D01*
X-54142Y-115167D01*
X-49746Y-115167D01*
X-47203Y-112625D01*
X-46962Y-112462D01*
X-46665Y-112401D01*
X-40384Y-112401D01*
X-37746Y-109763D01*
X-37505Y-109600D01*
X-37207Y-109540D01*
X-24949Y-109540D01*
X-24686Y-109587D01*
X-24428Y-109746D01*
X-24252Y-109994D01*
X-24187Y-110290D01*
X-24243Y-110588D01*
X-24410Y-110841D01*
X-33774Y-120205D01*
X-33774Y-131870D01*
X-33825Y-132145D01*
X-33989Y-132400D01*
X-34239Y-132572D01*
X-34536Y-132632D01*
X-34881Y-132632D01*
X-35774Y-133525D01*
X-35774Y-148889D01*
X-35830Y-149175D01*
X-35997Y-149428D01*
X-37925Y-151356D01*
X-38145Y-151509D01*
G37*
%LPC*%
G36*
X-74408Y-59084D02*
X-69669Y-59084D01*
X-69669Y-56938D01*
X-70548Y-56060D01*
X-74408Y-56060D01*
X-74408Y-59084D01*
G37*
G36*
X-74408Y-63632D02*
X-70548Y-63632D01*
X-69669Y-62753D01*
X-69669Y-60608D01*
X-74408Y-60608D01*
X-74408Y-63632D01*
G37*
G36*
X-60634Y-67196D02*
X-54356Y-67196D01*
X-54356Y-60918D01*
X-54994Y-60918D01*
X-57582Y-61990D01*
X-59562Y-63970D01*
X-60634Y-66558D01*
X-60634Y-67196D01*
G37*
G36*
X-54994Y-74998D02*
X-54356Y-74998D01*
X-54356Y-68720D01*
X-60634Y-68720D01*
X-60634Y-69358D01*
X-59562Y-71946D01*
X-57582Y-73926D01*
X-54994Y-74998D01*
G37*
G36*
X-57508Y-84156D02*
X-53270Y-84156D01*
X-53270Y-79797D01*
X-54149Y-78918D01*
X-57508Y-78918D01*
X-57508Y-84156D01*
G37*
G36*
X-63270Y-84156D02*
X-59032Y-84156D01*
X-59032Y-78918D01*
X-62391Y-78918D01*
X-63270Y-79797D01*
X-63270Y-84156D01*
G37*
G36*
X-57508Y-90918D02*
X-54149Y-90918D01*
X-53270Y-90039D01*
X-53270Y-85680D01*
X-57508Y-85680D01*
X-57508Y-90918D01*
G37*
G36*
X-62391Y-90918D02*
X-59032Y-90918D01*
X-59032Y-85680D01*
X-63270Y-85680D01*
X-63270Y-90039D01*
X-62391Y-90918D01*
G37*
%LPD*%
G36*
X-59825Y-187626D02*
X-59887Y-187639D01*
X-98218Y-187639D01*
X-98504Y-187583D01*
X-98757Y-187415D01*
X-104753Y-181420D01*
X-104916Y-181178D01*
X-104976Y-180881D01*
X-104976Y-176369D01*
X-105806Y-175539D01*
X-105964Y-175308D01*
X-106029Y-175012D01*
X-105973Y-174714D01*
X-105806Y-174461D01*
X-104976Y-173631D01*
X-104976Y-168861D01*
X-104920Y-168575D01*
X-104753Y-168322D01*
X-87678Y-151247D01*
X-87436Y-151084D01*
X-87139Y-151024D01*
X-71660Y-151024D01*
X-71385Y-151075D01*
X-71130Y-151239D01*
X-70958Y-151489D01*
X-70898Y-151786D01*
X-70898Y-152631D01*
X-70830Y-152699D01*
X-70677Y-152919D01*
X-70607Y-153214D01*
X-70658Y-153513D01*
X-70822Y-153768D01*
X-71072Y-153940D01*
X-71369Y-154000D01*
X-72211Y-154000D01*
X-83229Y-165018D01*
X-83465Y-165179D01*
X-83761Y-165241D01*
X-84059Y-165183D01*
X-86727Y-164078D01*
X-91073Y-164078D01*
X-95087Y-165741D01*
X-98159Y-168813D01*
X-99822Y-172827D01*
X-99822Y-177173D01*
X-98159Y-181187D01*
X-95087Y-184259D01*
X-91073Y-185922D01*
X-86727Y-185922D01*
X-82713Y-184259D01*
X-79641Y-181187D01*
X-77978Y-177173D01*
X-77978Y-172827D01*
X-79083Y-170159D01*
X-79141Y-169880D01*
X-79086Y-169581D01*
X-78918Y-169329D01*
X-69909Y-160319D01*
X-69667Y-160156D01*
X-69370Y-160096D01*
X-61849Y-160096D01*
X-55500Y-153747D01*
X-55259Y-153584D01*
X-54961Y-153524D01*
X-52743Y-153524D01*
X-51850Y-152631D01*
X-51850Y-148602D01*
X-51794Y-148316D01*
X-51627Y-148063D01*
X-49575Y-146011D01*
X-49355Y-145858D01*
X-49060Y-145789D01*
X-48761Y-145839D01*
X-48506Y-146003D01*
X-48334Y-146253D01*
X-48274Y-146550D01*
X-48274Y-151787D01*
X-47381Y-152680D01*
X-41089Y-152680D01*
X-40826Y-152727D01*
X-40568Y-152886D01*
X-40392Y-153134D01*
X-40327Y-153430D01*
X-40383Y-153728D01*
X-40550Y-153981D01*
X-47434Y-160865D01*
X-47676Y-161028D01*
X-47973Y-161088D01*
X-53157Y-161088D01*
X-57305Y-165235D01*
X-57541Y-165396D01*
X-57837Y-165458D01*
X-58135Y-165400D01*
X-61327Y-164078D01*
X-65673Y-164078D01*
X-69687Y-165741D01*
X-72759Y-168813D01*
X-74422Y-172827D01*
X-74422Y-177173D01*
X-72759Y-181187D01*
X-69687Y-184259D01*
X-65673Y-185922D01*
X-61327Y-185922D01*
X-57313Y-184259D01*
X-54241Y-181187D01*
X-52578Y-177173D01*
X-52578Y-172827D01*
X-53900Y-169635D01*
X-53958Y-169356D01*
X-53903Y-169057D01*
X-53735Y-168805D01*
X-51290Y-166359D01*
X-51048Y-166196D01*
X-50751Y-166136D01*
X-46488Y-166136D01*
X-46224Y-166183D01*
X-45966Y-166342D01*
X-45791Y-166590D01*
X-45726Y-166886D01*
X-45781Y-167184D01*
X-45949Y-167437D01*
X-47339Y-168827D01*
X-48998Y-172832D01*
X-48998Y-174238D01*
X-38862Y-174238D01*
X-38862Y-164102D01*
X-40268Y-164102D01*
X-42302Y-164945D01*
X-42557Y-165002D01*
X-42857Y-164956D01*
X-43115Y-164796D01*
X-43290Y-164549D01*
X-43355Y-164253D01*
X-43300Y-163955D01*
X-43132Y-163702D01*
X-32334Y-152903D01*
X-32092Y-152740D01*
X-31795Y-152680D01*
X-27619Y-152680D01*
X-26726Y-151787D01*
X-26726Y-133525D01*
X-27619Y-132632D01*
X-27964Y-132632D01*
X-28239Y-132581D01*
X-28494Y-132417D01*
X-28666Y-132167D01*
X-28726Y-131870D01*
X-28726Y-122611D01*
X-28670Y-122325D01*
X-28503Y-122072D01*
X-20288Y-113857D01*
X-20046Y-113694D01*
X-19749Y-113634D01*
X36174Y-113634D01*
X63928Y-85880D01*
X63928Y-66799D01*
X59938Y-62808D01*
X59777Y-62572D01*
X59714Y-62276D01*
X59772Y-61978D01*
X60404Y-60453D01*
X60404Y-57643D01*
X59329Y-55047D01*
X57341Y-53059D01*
X54745Y-51984D01*
X51935Y-51984D01*
X49339Y-53059D01*
X49227Y-53171D01*
X49007Y-53324D01*
X48712Y-53394D01*
X48413Y-53343D01*
X48158Y-53180D01*
X47986Y-52930D01*
X47926Y-52632D01*
X47926Y-47664D01*
X47973Y-47400D01*
X48132Y-47142D01*
X48380Y-46967D01*
X48676Y-46902D01*
X48974Y-46957D01*
X49227Y-47125D01*
X49339Y-47237D01*
X51935Y-48312D01*
X54745Y-48312D01*
X55752Y-47895D01*
X56032Y-47837D01*
X56330Y-47893D01*
X56583Y-48060D01*
X57179Y-48656D01*
X57342Y-48898D01*
X57402Y-49195D01*
X57402Y-49346D01*
X76374Y-68317D01*
X76536Y-68559D01*
X76597Y-68856D01*
X76597Y-96658D01*
X76850Y-96910D01*
X77012Y-97152D01*
X77073Y-97449D01*
X77073Y-113018D01*
X77017Y-113304D01*
X76850Y-113557D01*
X67473Y-122933D01*
X67232Y-123096D01*
X66934Y-123156D01*
X57566Y-123156D01*
X57280Y-123100D01*
X57027Y-122933D01*
X51446Y-117352D01*
X5252Y-117352D01*
X-8774Y-131378D01*
X-8774Y-131870D01*
X-8825Y-132145D01*
X-8989Y-132400D01*
X-9239Y-132572D01*
X-9536Y-132632D01*
X-9881Y-132632D01*
X-10774Y-133525D01*
X-10774Y-151787D01*
X-9881Y-152680D01*
X-9536Y-152680D01*
X-9261Y-152731D01*
X-9006Y-152895D01*
X-8834Y-153145D01*
X-8774Y-153442D01*
X-8774Y-163664D01*
X-8823Y-163933D01*
X-8984Y-164190D01*
X-9233Y-164363D01*
X-9530Y-164426D01*
X-9828Y-164368D01*
X-10527Y-164078D01*
X-14873Y-164078D01*
X-18887Y-165741D01*
X-21959Y-168813D01*
X-23622Y-172827D01*
X-23622Y-177173D01*
X-21959Y-181187D01*
X-18887Y-184259D01*
X-14873Y-185922D01*
X-10527Y-185922D01*
X-6513Y-184259D01*
X-3441Y-181187D01*
X-1778Y-177173D01*
X-1778Y-172827D01*
X-3441Y-168813D01*
X-3503Y-168751D01*
X-3666Y-168510D01*
X-3726Y-168212D01*
X-3726Y-153442D01*
X-3675Y-153167D01*
X-3511Y-152912D01*
X-3261Y-152740D01*
X-2964Y-152680D01*
X-2619Y-152680D01*
X-1726Y-151787D01*
X-1726Y-133525D01*
X-2215Y-133035D01*
X-2373Y-132805D01*
X-2438Y-132509D01*
X-2383Y-132211D01*
X-2215Y-131958D01*
X7119Y-122623D01*
X7361Y-122460D01*
X7658Y-122400D01*
X24093Y-122400D01*
X24357Y-122447D01*
X24615Y-122606D01*
X24790Y-122854D01*
X24855Y-123150D01*
X24800Y-123448D01*
X24632Y-123701D01*
X17476Y-130857D01*
X17476Y-131870D01*
X17425Y-132145D01*
X17261Y-132400D01*
X17011Y-132572D01*
X16714Y-132632D01*
X15119Y-132632D01*
X14226Y-133525D01*
X14226Y-151787D01*
X15119Y-152680D01*
X15464Y-152680D01*
X15739Y-152731D01*
X15994Y-152895D01*
X16166Y-153145D01*
X16226Y-153442D01*
X16226Y-158695D01*
X27749Y-170219D01*
X27910Y-170455D01*
X27973Y-170752D01*
X27915Y-171049D01*
X27178Y-172827D01*
X27178Y-177173D01*
X28841Y-181187D01*
X30472Y-182818D01*
X30630Y-183048D01*
X30695Y-183344D01*
X30639Y-183642D01*
X30472Y-183895D01*
X26964Y-187403D01*
X26722Y-187566D01*
X26425Y-187626D01*
X-59825Y-187626D01*
G37*
%LPC*%
G36*
X-17988Y-141894D02*
X-14250Y-141894D01*
X-14250Y-133535D01*
X-15129Y-132656D01*
X-17988Y-132656D01*
X-17988Y-141894D01*
G37*
G36*
X1750Y-141894D02*
X5488Y-141894D01*
X5488Y-132656D01*
X2629Y-132656D01*
X1750Y-133535D01*
X1750Y-141894D01*
G37*
G36*
X-23250Y-141894D02*
X-19512Y-141894D01*
X-19512Y-132656D01*
X-22371Y-132656D01*
X-23250Y-133535D01*
X-23250Y-141894D01*
G37*
G36*
X7012Y-141894D02*
X10750Y-141894D01*
X10750Y-133535D01*
X9871Y-132656D01*
X7012Y-132656D01*
X7012Y-141894D01*
G37*
G36*
X-22371Y-152656D02*
X-19512Y-152656D01*
X-19512Y-143418D01*
X-23250Y-143418D01*
X-23250Y-151777D01*
X-22371Y-152656D01*
G37*
G36*
X-17988Y-152656D02*
X-15129Y-152656D01*
X-14250Y-151777D01*
X-14250Y-143418D01*
X-17988Y-143418D01*
X-17988Y-152656D01*
G37*
G36*
X2629Y-152656D02*
X5488Y-152656D01*
X5488Y-143418D01*
X1750Y-143418D01*
X1750Y-151777D01*
X2629Y-152656D01*
G37*
G36*
X7012Y-152656D02*
X9871Y-152656D01*
X10750Y-151777D01*
X10750Y-143418D01*
X7012Y-143418D01*
X7012Y-152656D01*
G37*
G36*
X1802Y-174238D02*
X11938Y-174238D01*
X11938Y-164102D01*
X10532Y-164102D01*
X6527Y-165761D01*
X3461Y-168827D01*
X1802Y-172832D01*
X1802Y-174238D01*
G37*
G36*
X-37338Y-174238D02*
X-27202Y-174238D01*
X-27202Y-172832D01*
X-28861Y-168827D01*
X-31927Y-165761D01*
X-35932Y-164102D01*
X-37338Y-164102D01*
X-37338Y-174238D01*
G37*
G36*
X13462Y-174238D02*
X23598Y-174238D01*
X23598Y-172832D01*
X21939Y-168827D01*
X18873Y-165761D01*
X14868Y-164102D01*
X13462Y-164102D01*
X13462Y-174238D01*
G37*
G36*
X13462Y-185898D02*
X14868Y-185898D01*
X18873Y-184239D01*
X21939Y-181173D01*
X23598Y-177168D01*
X23598Y-175762D01*
X13462Y-175762D01*
X13462Y-185898D01*
G37*
G36*
X10532Y-185898D02*
X11938Y-185898D01*
X11938Y-175762D01*
X1802Y-175762D01*
X1802Y-177168D01*
X3461Y-181173D01*
X6527Y-184239D01*
X10532Y-185898D01*
G37*
G36*
X-37338Y-185898D02*
X-35932Y-185898D01*
X-31927Y-184239D01*
X-28861Y-181173D01*
X-27202Y-177168D01*
X-27202Y-175762D01*
X-37338Y-175762D01*
X-37338Y-185898D01*
G37*
G36*
X-40268Y-185898D02*
X-38862Y-185898D01*
X-38862Y-175762D01*
X-48998Y-175762D01*
X-48998Y-177168D01*
X-47339Y-181173D01*
X-44273Y-184239D01*
X-40268Y-185898D01*
G37*
%LPD*%
D10*
X-73130Y42560D03*
X-90130Y42560D03*
D11*
X-75130Y26050D03*
X-88130Y26050D03*
X-75130Y-25210D03*
X-88130Y-25210D03*
X-75130Y-13780D03*
X-88130Y-13780D03*
X-71270Y-84918D03*
X-58270Y-84918D03*
X-90114Y-84818D03*
X-103114Y-84818D03*
X-75130Y1920D03*
X-88130Y1920D03*
X-75130Y13350D03*
X-88130Y13350D03*
D12*
X-88900Y-175000D03*
X-63500Y-175000D03*
X-38100Y-175000D03*
X-12700Y-175000D03*
X12700Y-175000D03*
X38100Y-175000D03*
X63500Y-175000D03*
X88900Y-175000D03*
D13*
X-84286Y-37028D03*
X-74286Y-37028D03*
D14*
X-53594Y56642D03*
D15*
X-53594Y38842D03*
X-53594Y21042D03*
X-53594Y3242D03*
X-53594Y-14558D03*
X-53594Y-32358D03*
X-53594Y-50158D03*
X-53594Y-67958D03*
X53340Y47752D03*
X53340Y29952D03*
X53340Y12152D03*
X53340Y-5648D03*
X53340Y-23448D03*
X53340Y-41248D03*
X53340Y-59048D03*
X53340Y-76848D03*
D16*
X-75170Y-69346D03*
X-75170Y-59846D03*
X-75170Y-50346D03*
X-100696Y-50346D03*
X-100696Y-69346D03*
D13*
X69470Y30346D03*
X79470Y30346D03*
X-66374Y-148500D03*
X-56374Y-148500D03*
D11*
X79970Y7780D03*
X92970Y7780D03*
X79946Y19322D03*
X92946Y19322D03*
D13*
X66021Y-24177D03*
X76021Y-24177D03*
D17*
X6250Y-142656D03*
X18750Y-142656D03*
X31250Y-142656D03*
X43750Y-142656D03*
X-6250Y-142656D03*
X-18750Y-142656D03*
X-31250Y-142656D03*
X-43750Y-142656D03*
D18*
X62250Y-109156D03*
X-62250Y-109156D03*
D12*
X109602Y74768D03*
X109602Y49368D03*
D19*
X78245Y-35000D03*
X78245Y-47000D03*
D20*
X-110000Y-180000D03*
X-110000Y-170000D03*
D21*
X-62250Y-88898D02*
X-58270Y-84918D01*
X-62250Y-88898D02*
X-62250Y-109156D01*
D22*
X-61287Y-24713D03*
X62000Y139000D03*
X83000Y-153932D03*
X57640Y61640D03*
X83282Y-58000D03*
X-79128Y-130236D03*
X-25000Y141218D03*
X-18000Y-127000D03*
X12000Y-128000D03*
X57000Y-136000D03*
X31000Y-158000D03*
X56000Y-158000D03*
X7000Y-159000D03*
X-22000Y-159000D03*
X-120000Y-109000D03*
X-121218Y-141000D03*
X-108822Y-191184D03*
X-76200Y-183095D03*
X52000Y-191218D03*
X76000Y-191000D03*
X113000Y-186000D03*
X116000Y-166000D03*
X91000Y-144000D03*
X99000Y-38000D03*
X121218Y-110000D03*
X121218Y-69000D03*
X121000Y-48000D03*
X119000Y-6000D03*
X109000Y27000D03*
X83000Y59000D03*
X-60000Y95000D03*
X-83170Y75340D03*
X-78000Y61000D03*
X-117000Y107000D03*
X-83000Y137000D03*
X-63000Y141218D03*
X45000Y141218D03*
X99000Y104000D03*
X-99000Y-19000D03*
X-98000Y20000D03*
X-98000Y32000D03*
X-95000Y56000D03*
X-93000Y-61000D03*
X-63000Y-59000D03*
X-115000Y-59000D03*
X-63000Y-5000D03*
X-98340Y7000D03*
X-121218Y53000D03*
X-121218Y20000D03*
X-113000Y3000D03*
X99000Y-3000D03*
X88000Y39000D03*
X-53170Y73340D03*
X51708Y85000D03*
X59513Y96513D03*
X68672Y106672D03*
X-118159Y84159D03*
X38000Y126660D03*
X-22000Y126660D03*
X-37000Y126660D03*
X-88414Y89414D03*
X25000Y110830D03*
X-3000Y110830D03*
X-30000Y110830D03*
X75098Y80928D03*
X2000Y93364D03*
X30000Y94000D03*
X15000Y95000D03*
X-50000Y-97000D03*
X-51000Y-119000D03*
X64186Y10974D03*
X61994Y-33006D03*
X79797Y-12203D03*
X-66000Y-43858D03*
X-103000Y-42000D03*
X84718Y-131451D03*
X-38958Y-118042D03*
X-112218Y-80718D03*
X-87193Y-95658D03*
X62640Y39640D03*
X60797Y-14203D03*
X28000Y-97000D03*
X-24000Y-98000D03*
X-106203Y74797D03*
X118797Y92797D03*
X-83203Y-76203D03*
X-119203Y-181203D03*
X120797Y62797D03*
X99762Y-92000D03*
X99762Y-70000D03*
X64186Y-61479D03*
X73291Y-108529D03*
X51087Y-104087D03*
X-25404Y-183844D03*
X-312Y-183407D03*
X37696Y-129706D03*
X85427Y-93000D03*
X72815Y-92000D03*
X-51404Y-183844D03*
X24800Y-183844D03*
X41587Y-113570D03*
X-91378Y-160296D03*
X-112203Y-153203D03*
X-51000Y-157306D03*
X94672Y80672D03*
X51000Y-113570D03*
X-55000Y-128000D03*
D21*
X-75130Y26050D02*
X-75130Y40560D01*
X-73130Y42560D01*
X-75130Y26050D02*
X-70122Y21042D01*
X-53594Y21042D01*
X-90114Y-75818D02*
X-90114Y-84818D01*
X-90114Y-75818D02*
X-96587Y-69346D01*
X-100696Y-69346D01*
X-75130Y1920D02*
X-75130Y13350D01*
X-63702Y13350D01*
X-53594Y3242D01*
X-100696Y-60943D02*
X-100696Y-69346D01*
X-83282Y-6232D02*
X-75130Y1920D01*
X-83282Y-6232D02*
X-98893Y-6232D01*
D22*
X-62045Y31955D03*
D21*
X-62045Y35148D02*
X-62182Y35285D01*
X-62045Y35148D02*
X-62045Y31955D01*
X-62182Y82818D02*
X-41000Y104000D01*
X-62182Y82818D02*
X-62182Y35285D01*
X-110744Y-50894D02*
X-100696Y-60943D01*
X-110744Y-50894D02*
X-110744Y-34797D01*
X-105731Y-29784D01*
X79470Y30346D02*
X79470Y31899D01*
X71756Y39613D01*
X71756Y74611D01*
X-105731Y-21928D02*
X-105731Y-29784D01*
X-105731Y-21928D02*
X-105830Y-21829D01*
X-105830Y-13170D01*
X-98893Y-6232D01*
X42367Y104000D02*
X71756Y74611D01*
X42367Y104000D02*
X-41000Y104000D01*
X79470Y22855D02*
X79946Y19322D01*
X79470Y22855D02*
X79470Y30346D01*
X79946Y19322D02*
X79970Y19298D01*
X79970Y7780D01*
X-75170Y-50346D02*
X-79746Y-50346D01*
X-83820Y-54420D01*
X-83820Y-65850D01*
X-80325Y-69346D01*
X-75170Y-69346D01*
X-53594Y-14558D02*
X-54372Y-13780D01*
X-75130Y-13780D01*
X-75130Y-25210D01*
X-75130Y-25872D01*
X-84286Y-35028D01*
X-84286Y-37028D01*
X-80334Y-40980D01*
X-80334Y-41791D01*
X-75170Y-46955D02*
X-75170Y-50346D01*
X-75170Y-46955D02*
X-80334Y-41791D01*
X-75170Y-69346D02*
X-71270Y-73245D01*
X-71270Y-84918D01*
X-70298Y-124419D02*
X-52061Y-142656D01*
X-43750Y-142656D01*
X-70298Y-85890D02*
X-71270Y-84918D01*
X-70948Y-157048D02*
X-88900Y-175000D01*
X-56374Y-148500D02*
X-50530Y-142656D01*
X-43750Y-142656D01*
X-70298Y-124419D02*
X-70298Y-85890D01*
X-56374Y-148500D02*
X-58326Y-150452D01*
X-58326Y-152263D01*
X-63112Y-157048D01*
X-70948Y-157048D01*
D23*
X-74286Y-37028D02*
X-62724Y-37028D01*
X-53594Y-46158D02*
X-53594Y-50158D01*
X-53594Y-46158D02*
X-62724Y-37028D01*
D22*
X-113561Y-23697D03*
D23*
X-113303Y-23439D01*
X-113303Y-6962D01*
X-106170Y171D01*
X-106170Y62000D01*
X-48340Y119830D02*
X45855Y119830D01*
X-48340Y119830D02*
X-106170Y62000D01*
X109602Y56083D02*
X109602Y49368D01*
X109602Y56083D02*
X45855Y119830D01*
D22*
X-88000Y-46000D03*
D23*
X-98000Y-36000D01*
X-98000Y-34000D01*
D22*
X-98000Y-34000D03*
D24*
X36100Y-175000D02*
X38100Y-175000D01*
X36100Y-175000D02*
X18750Y-157650D01*
X18750Y-142656D01*
X20000Y-141406D01*
X76021Y-24177D02*
X84177Y-24177D01*
X76021Y-24177D02*
X76021Y-32776D01*
X78245Y-35000D01*
X-58526Y-190163D02*
X-99579Y-190163D01*
X-58526Y-190163D02*
X-58514Y-190150D01*
X91733Y-31733D02*
X84177Y-24177D01*
X20000Y-131902D02*
X20000Y-141406D01*
X69755Y-129204D02*
X91733Y-107227D01*
X91733Y-31733D01*
X27786Y-190150D02*
X-58514Y-190150D01*
X38100Y-179836D02*
X38100Y-175000D01*
X38100Y-179836D02*
X27786Y-190150D01*
X20000Y-131902D02*
X28502Y-123400D01*
X-99579Y-190163D02*
X-109742Y-180000D01*
X-110000Y-180000D01*
X54745Y-129204D02*
X69755Y-129204D01*
X48941Y-123400D02*
X28502Y-123400D01*
X48941Y-123400D02*
X54745Y-129204D01*
X-6250Y-168550D02*
X-12700Y-175000D01*
X-6250Y-168550D02*
X-6250Y-142656D01*
X-6250Y-132423D01*
X59926Y-47834D02*
X53340Y-41248D01*
X59926Y-47834D02*
X59926Y-48301D01*
X79121Y-95612D02*
X79597Y-96088D01*
X79121Y-67495D02*
X59926Y-48301D01*
X79121Y-67495D02*
X79121Y-95612D01*
X79597Y-96088D02*
X79597Y-114379D01*
X68296Y-125680D01*
X6297Y-119876D02*
X-6250Y-132423D01*
X56205Y-125680D02*
X68296Y-125680D01*
X50400Y-119876D02*
X6297Y-119876D01*
X50400Y-119876D02*
X56205Y-125680D01*
X53340Y-59780D02*
X53340Y-59048D01*
X-31250Y-121250D02*
X-31250Y-142656D01*
X-31250Y-148250D01*
X-31250Y-121250D02*
X-21110Y-111110D01*
X53340Y-59780D02*
X61404Y-67844D01*
X35129Y-111110D02*
X-21110Y-111110D01*
X61404Y-84835D02*
X61404Y-67844D01*
X61404Y-84835D02*
X35129Y-111110D01*
X-52112Y-163612D02*
X-63500Y-175000D01*
X-52112Y-163612D02*
X-46612Y-163612D01*
X-31250Y-148250D01*
D22*
X-51944Y-109861D03*
D23*
X-114388Y12271D02*
X-114388Y78271D01*
X75502Y108868D02*
X109602Y74768D01*
X75502Y108868D02*
X75502Y109501D01*
X51174Y133830D01*
X-58829Y133830D01*
X-114388Y78271D01*
X53340Y-76848D02*
X53340Y-86950D01*
X33290Y-107000D01*
X-114388Y12271D02*
X-121830Y4829D01*
X-38575Y-107000D02*
X33290Y-107000D01*
X-38575Y-107000D02*
X-41436Y-109861D01*
X-82510Y-110000D02*
X-92534Y-99976D01*
D22*
X-77128Y-110000D03*
D23*
X-82510Y-110000D01*
X-121830Y-88765D02*
X-121830Y4829D01*
X-121830Y-88765D02*
X-110619Y-99976D01*
X-92534Y-99976D01*
X-51944Y-109861D02*
X-41436Y-109861D01*
D24*
X56556Y-142656D02*
X88900Y-175000D01*
X56556Y-142656D02*
X43750Y-142656D01*
X106068Y-25893D02*
X85823Y-5648D01*
X53340Y-5648D01*
X56556Y-142656D02*
X61287Y-142656D01*
X106068Y-97875D01*
X106068Y-25893D01*
D21*
X69076Y29952D02*
X69470Y30346D01*
X69076Y29952D02*
X53340Y29952D01*
D24*
X54069Y-24177D02*
X66021Y-24177D01*
X54069Y-24177D02*
X53340Y-23448D01*
X-88500Y-148500D02*
X-110000Y-170000D01*
X-88500Y-148500D02*
X-66374Y-148500D01*
M02*
