G04 EAGLE Gerber RS-274X export*
G75*
%MOMM*%
%FSLAX34Y34*%
%LPD*%
%INBottom Copper*%
%IPPOS*%
%AMOC8*
5,1,8,0,0,1.08239X$1,22.5*%
G01*
G04 Define Apertures*
%ADD10C,1.879600*%
%ADD11R,1.108000X1.108000*%
%ADD12C,1.108000*%
%ADD13C,0.756400*%
%ADD14C,0.304800*%
%ADD15C,0.203200*%
G36*
X110149Y-194985D02*
X110000Y-195000D01*
X-110000Y-195000D01*
X-110149Y-194985D01*
X-115597Y-193902D01*
X-115872Y-193788D01*
X-120491Y-190701D01*
X-120701Y-190491D01*
X-123788Y-185872D01*
X-123902Y-185597D01*
X-124985Y-180149D01*
X-125000Y-180000D01*
X-125000Y130000D01*
X-124985Y130149D01*
X-123902Y135597D01*
X-123788Y135872D01*
X-120701Y140491D01*
X-120491Y140701D01*
X-115872Y143788D01*
X-115597Y143902D01*
X-110149Y144985D01*
X-110000Y145000D01*
X110000Y145000D01*
X110149Y144985D01*
X115597Y143902D01*
X115872Y143788D01*
X120491Y140701D01*
X120701Y140491D01*
X123788Y135872D01*
X123902Y135597D01*
X124985Y130149D01*
X125000Y130000D01*
X125000Y-180000D01*
X124985Y-180149D01*
X123902Y-185597D01*
X123788Y-185872D01*
X120701Y-190491D01*
X120491Y-190701D01*
X115872Y-193788D01*
X115597Y-193902D01*
X110149Y-194985D01*
G37*
%LPC*%
G36*
X101718Y108500D02*
X108282Y108500D01*
X114347Y111012D01*
X118988Y115654D01*
X121500Y121718D01*
X121500Y128282D01*
X118988Y134347D01*
X114347Y138988D01*
X108282Y141500D01*
X101718Y141500D01*
X95654Y138988D01*
X91012Y134347D01*
X88500Y128282D01*
X88500Y121718D01*
X91012Y115654D01*
X95654Y111012D01*
X101718Y108500D01*
G37*
G36*
X-108282Y108500D02*
X-101718Y108500D01*
X-95654Y111012D01*
X-91012Y115654D01*
X-88500Y121718D01*
X-88500Y128282D01*
X-91012Y134347D01*
X-95654Y138988D01*
X-101718Y141500D01*
X-108282Y141500D01*
X-114347Y138988D01*
X-118988Y134347D01*
X-121500Y128282D01*
X-121500Y121718D01*
X-118988Y115654D01*
X-114347Y111012D01*
X-108282Y108500D01*
G37*
G36*
X-40801Y-93138D02*
X40547Y-93138D01*
X45225Y-90437D01*
X47926Y-85759D01*
X47926Y-83264D01*
X47973Y-83000D01*
X48132Y-82742D01*
X48380Y-82567D01*
X48676Y-82502D01*
X48974Y-82557D01*
X49227Y-82725D01*
X49339Y-82837D01*
X51935Y-83912D01*
X54745Y-83912D01*
X57341Y-82837D01*
X59329Y-80849D01*
X60404Y-78253D01*
X60404Y-75443D01*
X59329Y-72847D01*
X57341Y-70859D01*
X54745Y-69784D01*
X51935Y-69784D01*
X49339Y-70859D01*
X49227Y-70971D01*
X49007Y-71124D01*
X48712Y-71194D01*
X48413Y-71143D01*
X48158Y-70980D01*
X47986Y-70730D01*
X47926Y-70432D01*
X47926Y-65464D01*
X47973Y-65200D01*
X48132Y-64942D01*
X48380Y-64767D01*
X48676Y-64702D01*
X48974Y-64757D01*
X49227Y-64925D01*
X49339Y-65037D01*
X51935Y-66112D01*
X54745Y-66112D01*
X57341Y-65037D01*
X59329Y-63049D01*
X60404Y-60453D01*
X60404Y-57643D01*
X59329Y-55047D01*
X57341Y-53059D01*
X54745Y-51984D01*
X51935Y-51984D01*
X49339Y-53059D01*
X49227Y-53171D01*
X49007Y-53324D01*
X48712Y-53394D01*
X48413Y-53343D01*
X48158Y-53180D01*
X47986Y-52930D01*
X47926Y-52632D01*
X47926Y-47664D01*
X47973Y-47400D01*
X48132Y-47142D01*
X48380Y-46967D01*
X48676Y-46902D01*
X48974Y-46957D01*
X49227Y-47125D01*
X49339Y-47237D01*
X51935Y-48312D01*
X54745Y-48312D01*
X57341Y-47237D01*
X59329Y-45249D01*
X60404Y-42653D01*
X60404Y-39843D01*
X59329Y-37247D01*
X57341Y-35259D01*
X54745Y-34184D01*
X51935Y-34184D01*
X49339Y-35259D01*
X49227Y-35371D01*
X49007Y-35524D01*
X48712Y-35594D01*
X48413Y-35543D01*
X48158Y-35380D01*
X47986Y-35130D01*
X47926Y-34832D01*
X47926Y-29864D01*
X47973Y-29600D01*
X48132Y-29342D01*
X48380Y-29167D01*
X48676Y-29102D01*
X48974Y-29157D01*
X49227Y-29325D01*
X49339Y-29437D01*
X51935Y-30512D01*
X54745Y-30512D01*
X57341Y-29437D01*
X59329Y-27449D01*
X60404Y-24853D01*
X60404Y-22043D01*
X59329Y-19447D01*
X57341Y-17459D01*
X54745Y-16384D01*
X51935Y-16384D01*
X49339Y-17459D01*
X49227Y-17571D01*
X49007Y-17724D01*
X48712Y-17794D01*
X48413Y-17743D01*
X48158Y-17580D01*
X47986Y-17330D01*
X47926Y-17032D01*
X47926Y-12064D01*
X47973Y-11800D01*
X48132Y-11542D01*
X48380Y-11367D01*
X48676Y-11302D01*
X48974Y-11357D01*
X49227Y-11525D01*
X49339Y-11637D01*
X51935Y-12712D01*
X54745Y-12712D01*
X57341Y-11637D01*
X59329Y-9649D01*
X60404Y-7053D01*
X60404Y-4243D01*
X59329Y-1647D01*
X57341Y341D01*
X54745Y1416D01*
X51935Y1416D01*
X49339Y341D01*
X49227Y229D01*
X49007Y76D01*
X48712Y6D01*
X48413Y57D01*
X48158Y220D01*
X47986Y470D01*
X47926Y768D01*
X47926Y5736D01*
X47973Y6000D01*
X48132Y6258D01*
X48380Y6433D01*
X48676Y6498D01*
X48974Y6443D01*
X49227Y6275D01*
X49339Y6163D01*
X51935Y5088D01*
X54745Y5088D01*
X57341Y6163D01*
X59329Y8151D01*
X60404Y10747D01*
X60404Y13557D01*
X59329Y16153D01*
X57341Y18141D01*
X54745Y19216D01*
X51935Y19216D01*
X49339Y18141D01*
X49227Y18029D01*
X49007Y17876D01*
X48712Y17806D01*
X48413Y17857D01*
X48158Y18020D01*
X47986Y18270D01*
X47926Y18568D01*
X47926Y23536D01*
X47973Y23800D01*
X48132Y24058D01*
X48380Y24233D01*
X48676Y24298D01*
X48974Y24243D01*
X49227Y24075D01*
X49339Y23963D01*
X51935Y22888D01*
X54745Y22888D01*
X57341Y23963D01*
X59329Y25951D01*
X60404Y28547D01*
X60404Y31357D01*
X59329Y33953D01*
X57341Y35941D01*
X54745Y37016D01*
X51935Y37016D01*
X49339Y35941D01*
X49227Y35829D01*
X49007Y35676D01*
X48712Y35606D01*
X48413Y35657D01*
X48158Y35820D01*
X47986Y36070D01*
X47926Y36368D01*
X47926Y41336D01*
X47973Y41600D01*
X48132Y41858D01*
X48380Y42033D01*
X48676Y42098D01*
X48974Y42043D01*
X49227Y41875D01*
X49339Y41763D01*
X51935Y40688D01*
X54745Y40688D01*
X57341Y41763D01*
X59329Y43751D01*
X60404Y46347D01*
X60404Y49157D01*
X59329Y51753D01*
X57341Y53741D01*
X54745Y54816D01*
X51935Y54816D01*
X49339Y53741D01*
X49227Y53629D01*
X49007Y53476D01*
X48712Y53406D01*
X48413Y53457D01*
X48158Y53620D01*
X47986Y53870D01*
X47926Y54168D01*
X47926Y82203D01*
X45225Y86881D01*
X40547Y89582D01*
X-40801Y89582D01*
X-45479Y86881D01*
X-48180Y82203D01*
X-48180Y64468D01*
X-48231Y64193D01*
X-48395Y63938D01*
X-48645Y63766D01*
X-48942Y63706D01*
X-59765Y63706D01*
X-60658Y62813D01*
X-60658Y50471D01*
X-59765Y49578D01*
X-48942Y49578D01*
X-48667Y49527D01*
X-48412Y49363D01*
X-48240Y49113D01*
X-48180Y48816D01*
X-48180Y45258D01*
X-48227Y44994D01*
X-48386Y44736D01*
X-48634Y44561D01*
X-48930Y44496D01*
X-49228Y44551D01*
X-49481Y44719D01*
X-49593Y44831D01*
X-52189Y45906D01*
X-54999Y45906D01*
X-57595Y44831D01*
X-59583Y42843D01*
X-60658Y40247D01*
X-60658Y38023D01*
X-60709Y37748D01*
X-60873Y37493D01*
X-61123Y37321D01*
X-61420Y37261D01*
X-64243Y37261D01*
X-67351Y34153D01*
X-67351Y29757D01*
X-65453Y27859D01*
X-65290Y27617D01*
X-65230Y27320D01*
X-65230Y10567D01*
X-60623Y5961D01*
X-60463Y5725D01*
X-60400Y5428D01*
X-60458Y5130D01*
X-60658Y4647D01*
X-60658Y1837D01*
X-59583Y-759D01*
X-57595Y-2747D01*
X-54999Y-3822D01*
X-52189Y-3822D01*
X-49593Y-2747D01*
X-49481Y-2635D01*
X-49261Y-2482D01*
X-48966Y-2412D01*
X-48667Y-2463D01*
X-48412Y-2626D01*
X-48240Y-2876D01*
X-48180Y-3174D01*
X-48180Y-8142D01*
X-48227Y-8406D01*
X-48386Y-8664D01*
X-48634Y-8839D01*
X-48930Y-8904D01*
X-49228Y-8849D01*
X-49481Y-8681D01*
X-49593Y-8569D01*
X-52189Y-7494D01*
X-54999Y-7494D01*
X-57595Y-8569D01*
X-59583Y-10557D01*
X-60658Y-13153D01*
X-60658Y-15963D01*
X-59583Y-18559D01*
X-57595Y-20547D01*
X-54999Y-21622D01*
X-52189Y-21622D01*
X-49593Y-20547D01*
X-49481Y-20435D01*
X-49261Y-20282D01*
X-48966Y-20212D01*
X-48667Y-20263D01*
X-48412Y-20426D01*
X-48240Y-20676D01*
X-48180Y-20974D01*
X-48180Y-25942D01*
X-48227Y-26206D01*
X-48386Y-26464D01*
X-48634Y-26639D01*
X-48930Y-26704D01*
X-49228Y-26649D01*
X-49481Y-26481D01*
X-49593Y-26369D01*
X-52189Y-25294D01*
X-54999Y-25294D01*
X-57595Y-26369D01*
X-59583Y-28357D01*
X-60658Y-30953D01*
X-60658Y-33763D01*
X-59583Y-36359D01*
X-57595Y-38347D01*
X-54999Y-39422D01*
X-52189Y-39422D01*
X-49593Y-38347D01*
X-49481Y-38235D01*
X-49261Y-38082D01*
X-48966Y-38012D01*
X-48667Y-38063D01*
X-48412Y-38226D01*
X-48240Y-38476D01*
X-48180Y-38774D01*
X-48180Y-43742D01*
X-48227Y-44006D01*
X-48386Y-44264D01*
X-48634Y-44439D01*
X-48930Y-44504D01*
X-49228Y-44449D01*
X-49481Y-44281D01*
X-49593Y-44169D01*
X-52189Y-43094D01*
X-54999Y-43094D01*
X-57595Y-44169D01*
X-59583Y-46157D01*
X-59993Y-47148D01*
X-60150Y-47386D01*
X-60400Y-47558D01*
X-60697Y-47618D01*
X-63693Y-47618D01*
X-64000Y-47925D01*
X-64241Y-48088D01*
X-64539Y-48148D01*
X-81932Y-48148D01*
X-82207Y-48097D01*
X-82462Y-47933D01*
X-82634Y-47683D01*
X-82694Y-47386D01*
X-82694Y-43802D01*
X-85802Y-40694D01*
X-90198Y-40694D01*
X-93306Y-43802D01*
X-93306Y-48198D01*
X-90198Y-51306D01*
X-86602Y-51306D01*
X-86316Y-51362D01*
X-86063Y-51529D01*
X-84364Y-53228D01*
X-62119Y-53228D01*
X-61812Y-52921D01*
X-61570Y-52758D01*
X-61273Y-52698D01*
X-60697Y-52698D01*
X-60417Y-52751D01*
X-60163Y-52917D01*
X-59993Y-53168D01*
X-59583Y-54159D01*
X-57595Y-56147D01*
X-54999Y-57222D01*
X-52189Y-57222D01*
X-49593Y-56147D01*
X-49481Y-56035D01*
X-49261Y-55882D01*
X-48966Y-55812D01*
X-48667Y-55863D01*
X-48412Y-56026D01*
X-48240Y-56276D01*
X-48180Y-56574D01*
X-48180Y-61576D01*
X-48227Y-61840D01*
X-48386Y-62098D01*
X-48634Y-62273D01*
X-48930Y-62338D01*
X-49228Y-62283D01*
X-49481Y-62115D01*
X-49606Y-61990D01*
X-52194Y-60918D01*
X-52832Y-60918D01*
X-52832Y-74998D01*
X-52194Y-74998D01*
X-49606Y-73926D01*
X-49481Y-73801D01*
X-49261Y-73648D01*
X-48966Y-73578D01*
X-48667Y-73629D01*
X-48412Y-73792D01*
X-48240Y-74042D01*
X-48180Y-74340D01*
X-48180Y-85759D01*
X-45479Y-90437D01*
X-40801Y-93138D01*
G37*
G36*
X107429Y63846D02*
X111775Y63846D01*
X115789Y65509D01*
X118861Y68581D01*
X120524Y72595D01*
X120524Y76941D01*
X118861Y80955D01*
X115789Y84027D01*
X111775Y85690D01*
X107429Y85690D01*
X103415Y84027D01*
X100343Y80955D01*
X98680Y76941D01*
X98680Y72595D01*
X100343Y68581D01*
X103415Y65509D01*
X107429Y63846D01*
G37*
G36*
X107429Y38446D02*
X111775Y38446D01*
X115789Y40109D01*
X118861Y43181D01*
X120524Y47195D01*
X120524Y51541D01*
X118861Y55555D01*
X115789Y58627D01*
X111775Y60290D01*
X107429Y60290D01*
X103415Y58627D01*
X100343Y55555D01*
X98680Y51541D01*
X98680Y47195D01*
X100343Y43181D01*
X103415Y40109D01*
X107429Y38446D01*
G37*
G36*
X-100198Y-39306D02*
X-95802Y-39306D01*
X-92694Y-36198D01*
X-92694Y-31802D01*
X-95802Y-28694D01*
X-99398Y-28694D01*
X-99684Y-28638D01*
X-99937Y-28471D01*
X-107251Y-21157D01*
X-108282Y-21157D01*
X-108568Y-21101D01*
X-108820Y-20934D01*
X-111363Y-18391D01*
X-115759Y-18391D01*
X-118867Y-21499D01*
X-118867Y-25895D01*
X-115759Y-29003D01*
X-111363Y-29003D01*
X-109515Y-27155D01*
X-109285Y-26997D01*
X-108988Y-26932D01*
X-108690Y-26987D01*
X-108437Y-27155D01*
X-103529Y-32063D01*
X-103366Y-32305D01*
X-103306Y-32602D01*
X-103306Y-36198D01*
X-100198Y-39306D01*
G37*
G36*
X-60634Y-67196D02*
X-54356Y-67196D01*
X-54356Y-60918D01*
X-54994Y-60918D01*
X-57582Y-61990D01*
X-59562Y-63970D01*
X-60634Y-66558D01*
X-60634Y-67196D01*
G37*
G36*
X-54994Y-74998D02*
X-54356Y-74998D01*
X-54356Y-68720D01*
X-60634Y-68720D01*
X-60634Y-69358D01*
X-59562Y-71946D01*
X-57582Y-73926D01*
X-54994Y-74998D01*
G37*
G36*
X-79326Y-115306D02*
X-74930Y-115306D01*
X-72387Y-112763D01*
X-72146Y-112600D01*
X-71849Y-112540D01*
X-57085Y-112540D01*
X-56799Y-112596D01*
X-56546Y-112763D01*
X-54142Y-115167D01*
X-49746Y-115167D01*
X-46638Y-112059D01*
X-46638Y-107664D01*
X-49746Y-104555D01*
X-54142Y-104555D01*
X-56823Y-107237D01*
X-57065Y-107400D01*
X-57362Y-107460D01*
X-71849Y-107460D01*
X-72135Y-107404D01*
X-72387Y-107237D01*
X-74930Y-104694D01*
X-79326Y-104694D01*
X-82434Y-107802D01*
X-82434Y-112198D01*
X-79326Y-115306D01*
G37*
G36*
X101718Y-141500D02*
X108282Y-141500D01*
X114347Y-138988D01*
X118988Y-134347D01*
X121500Y-128282D01*
X121500Y-121718D01*
X118988Y-115654D01*
X114347Y-111012D01*
X108282Y-108500D01*
X101718Y-108500D01*
X95654Y-111012D01*
X91012Y-115654D01*
X88500Y-121718D01*
X88500Y-128282D01*
X91012Y-134347D01*
X95654Y-138988D01*
X101718Y-141500D01*
G37*
G36*
X-108282Y-141500D02*
X-101718Y-141500D01*
X-95654Y-138988D01*
X-91012Y-134347D01*
X-88500Y-128282D01*
X-88500Y-121718D01*
X-91012Y-115654D01*
X-95654Y-111012D01*
X-101718Y-108500D01*
X-108282Y-108500D01*
X-114347Y-111012D01*
X-118988Y-115654D01*
X-121500Y-121718D01*
X-121500Y-128282D01*
X-118988Y-134347D01*
X-114347Y-138988D01*
X-108282Y-141500D01*
G37*
G36*
X86727Y-185922D02*
X91073Y-185922D01*
X95087Y-184259D01*
X98159Y-181187D01*
X99822Y-177173D01*
X99822Y-172827D01*
X98159Y-168813D01*
X95087Y-165741D01*
X91073Y-164078D01*
X86727Y-164078D01*
X82713Y-165741D01*
X79641Y-168813D01*
X77978Y-172827D01*
X77978Y-177173D01*
X79641Y-181187D01*
X82713Y-184259D01*
X86727Y-185922D01*
G37*
G36*
X35927Y-185922D02*
X40273Y-185922D01*
X44287Y-184259D01*
X47359Y-181187D01*
X49022Y-177173D01*
X49022Y-172827D01*
X47359Y-168813D01*
X44287Y-165741D01*
X40273Y-164078D01*
X35927Y-164078D01*
X31913Y-165741D01*
X28841Y-168813D01*
X27178Y-172827D01*
X27178Y-177173D01*
X28841Y-181187D01*
X31913Y-184259D01*
X35927Y-185922D01*
G37*
G36*
X-14873Y-185922D02*
X-10527Y-185922D01*
X-6513Y-184259D01*
X-3441Y-181187D01*
X-1778Y-177173D01*
X-1778Y-172827D01*
X-3441Y-168813D01*
X-6513Y-165741D01*
X-10527Y-164078D01*
X-14873Y-164078D01*
X-18887Y-165741D01*
X-21959Y-168813D01*
X-23622Y-172827D01*
X-23622Y-177173D01*
X-21959Y-181187D01*
X-18887Y-184259D01*
X-14873Y-185922D01*
G37*
G36*
X-65673Y-185922D02*
X-61327Y-185922D01*
X-57313Y-184259D01*
X-54241Y-181187D01*
X-52578Y-177173D01*
X-52578Y-172827D01*
X-54241Y-168813D01*
X-57313Y-165741D01*
X-61327Y-164078D01*
X-65673Y-164078D01*
X-69687Y-165741D01*
X-72759Y-168813D01*
X-74422Y-172827D01*
X-74422Y-177173D01*
X-72759Y-181187D01*
X-69687Y-184259D01*
X-65673Y-185922D01*
G37*
G36*
X-91073Y-185922D02*
X-86727Y-185922D01*
X-82713Y-184259D01*
X-79641Y-181187D01*
X-77978Y-177173D01*
X-77978Y-172827D01*
X-79641Y-168813D01*
X-82713Y-165741D01*
X-86727Y-164078D01*
X-91073Y-164078D01*
X-95087Y-165741D01*
X-98159Y-168813D01*
X-99822Y-172827D01*
X-99822Y-177173D01*
X-98159Y-181187D01*
X-95087Y-184259D01*
X-91073Y-185922D01*
G37*
G36*
X52602Y-174238D02*
X62738Y-174238D01*
X62738Y-164102D01*
X61332Y-164102D01*
X57327Y-165761D01*
X54261Y-168827D01*
X52602Y-172832D01*
X52602Y-174238D01*
G37*
G36*
X1802Y-174238D02*
X11938Y-174238D01*
X11938Y-164102D01*
X10532Y-164102D01*
X6527Y-165761D01*
X3461Y-168827D01*
X1802Y-172832D01*
X1802Y-174238D01*
G37*
G36*
X-48998Y-174238D02*
X-38862Y-174238D01*
X-38862Y-164102D01*
X-40268Y-164102D01*
X-44273Y-165761D01*
X-47339Y-168827D01*
X-48998Y-172832D01*
X-48998Y-174238D01*
G37*
G36*
X-37338Y-174238D02*
X-27202Y-174238D01*
X-27202Y-172832D01*
X-28861Y-168827D01*
X-31927Y-165761D01*
X-35932Y-164102D01*
X-37338Y-164102D01*
X-37338Y-174238D01*
G37*
G36*
X13462Y-174238D02*
X23598Y-174238D01*
X23598Y-172832D01*
X21939Y-168827D01*
X18873Y-165761D01*
X14868Y-164102D01*
X13462Y-164102D01*
X13462Y-174238D01*
G37*
G36*
X64262Y-174238D02*
X74398Y-174238D01*
X74398Y-172832D01*
X72739Y-168827D01*
X69673Y-165761D01*
X65668Y-164102D01*
X64262Y-164102D01*
X64262Y-174238D01*
G37*
G36*
X64262Y-185898D02*
X65668Y-185898D01*
X69673Y-184239D01*
X72739Y-181173D01*
X74398Y-177168D01*
X74398Y-175762D01*
X64262Y-175762D01*
X64262Y-185898D01*
G37*
G36*
X61332Y-185898D02*
X62738Y-185898D01*
X62738Y-175762D01*
X52602Y-175762D01*
X52602Y-177168D01*
X54261Y-181173D01*
X57327Y-184239D01*
X61332Y-185898D01*
G37*
G36*
X13462Y-185898D02*
X14868Y-185898D01*
X18873Y-184239D01*
X21939Y-181173D01*
X23598Y-177168D01*
X23598Y-175762D01*
X13462Y-175762D01*
X13462Y-185898D01*
G37*
G36*
X10532Y-185898D02*
X11938Y-185898D01*
X11938Y-175762D01*
X1802Y-175762D01*
X1802Y-177168D01*
X3461Y-181173D01*
X6527Y-184239D01*
X10532Y-185898D01*
G37*
G36*
X-37338Y-185898D02*
X-35932Y-185898D01*
X-31927Y-184239D01*
X-28861Y-181173D01*
X-27202Y-177168D01*
X-27202Y-175762D01*
X-37338Y-175762D01*
X-37338Y-185898D01*
G37*
G36*
X-40268Y-185898D02*
X-38862Y-185898D01*
X-38862Y-175762D01*
X-48998Y-175762D01*
X-48998Y-177168D01*
X-47339Y-181173D01*
X-44273Y-184239D01*
X-40268Y-185898D01*
G37*
%LPD*%
D10*
X-88900Y-175000D03*
X-63500Y-175000D03*
X-38100Y-175000D03*
X-12700Y-175000D03*
X12700Y-175000D03*
X38100Y-175000D03*
X63500Y-175000D03*
X88900Y-175000D03*
D11*
X-53594Y56642D03*
D12*
X-53594Y38842D03*
X-53594Y21042D03*
X-53594Y3242D03*
X-53594Y-14558D03*
X-53594Y-32358D03*
X-53594Y-50158D03*
X-53594Y-67958D03*
X53340Y47752D03*
X53340Y29952D03*
X53340Y12152D03*
X53340Y-5648D03*
X53340Y-23448D03*
X53340Y-41248D03*
X53340Y-59048D03*
X53340Y-76848D03*
D10*
X109602Y74768D03*
X109602Y49368D03*
D13*
X-61287Y-24713D03*
X62000Y139000D03*
X83000Y-153932D03*
X57640Y61640D03*
X83282Y-58000D03*
X-79128Y-130236D03*
X-25000Y141218D03*
X-18000Y-127000D03*
X12000Y-128000D03*
X57000Y-136000D03*
X31000Y-158000D03*
X56000Y-158000D03*
X7000Y-159000D03*
X-22000Y-159000D03*
X-120000Y-109000D03*
X-121218Y-141000D03*
X-108822Y-191184D03*
X-76200Y-183095D03*
X52000Y-191218D03*
X76000Y-191000D03*
X113000Y-186000D03*
X116000Y-166000D03*
X91000Y-144000D03*
X99000Y-38000D03*
X121218Y-110000D03*
X121218Y-69000D03*
X121000Y-48000D03*
X119000Y-6000D03*
X109000Y27000D03*
X83000Y59000D03*
X-60000Y95000D03*
X-83170Y75340D03*
X-78000Y61000D03*
X-117000Y107000D03*
X-83000Y137000D03*
X-63000Y141218D03*
X45000Y141218D03*
X99000Y104000D03*
X-99000Y-19000D03*
X-98000Y20000D03*
X-98000Y32000D03*
X-95000Y56000D03*
X-93000Y-61000D03*
X-63000Y-59000D03*
X-115000Y-59000D03*
X-63000Y-5000D03*
X-98340Y7000D03*
X-121218Y53000D03*
X-121218Y20000D03*
X-113000Y3000D03*
X99000Y-3000D03*
X88000Y39000D03*
X-53170Y73340D03*
X51708Y85000D03*
X59513Y96513D03*
X68672Y106672D03*
X-118159Y84159D03*
X38000Y126660D03*
X-22000Y126660D03*
X-37000Y126660D03*
X-88414Y89414D03*
X25000Y110830D03*
X-3000Y110830D03*
X-30000Y110830D03*
X75098Y80928D03*
X2000Y93364D03*
X30000Y94000D03*
X15000Y95000D03*
X-50000Y-97000D03*
X-51000Y-119000D03*
X64186Y10974D03*
X61994Y-33006D03*
X79797Y-12203D03*
X-66000Y-43858D03*
X-103000Y-42000D03*
X84718Y-131451D03*
X-38958Y-118042D03*
X-112218Y-80718D03*
X-87193Y-95658D03*
X62640Y39640D03*
X60797Y-14203D03*
X28000Y-97000D03*
X-24000Y-98000D03*
X-106203Y74797D03*
X118797Y92797D03*
X-83203Y-76203D03*
X-119203Y-181203D03*
X120797Y62797D03*
X99762Y-92000D03*
X99762Y-70000D03*
X64186Y-61479D03*
X73291Y-108529D03*
X51087Y-104087D03*
X-25404Y-183844D03*
X-312Y-183407D03*
X37696Y-129706D03*
X85427Y-93000D03*
X72815Y-92000D03*
X-51404Y-183844D03*
X24800Y-183844D03*
X41587Y-113570D03*
X-91378Y-160296D03*
X-112203Y-153203D03*
X-51000Y-157306D03*
X94672Y80672D03*
X51000Y-113570D03*
X-55000Y-128000D03*
D14*
X-53594Y3242D02*
X-62182Y11830D01*
D13*
X-62045Y31955D03*
D14*
X-62182Y31818D02*
X-62182Y11830D01*
X-62182Y31818D02*
X-62045Y31955D01*
D13*
X-113561Y-23697D03*
X-88000Y-46000D03*
X-98000Y-34000D03*
D15*
X-108303Y-23697D01*
X-113561Y-23697D01*
X-83312Y-50688D02*
X-63171Y-50688D01*
X-83312Y-50688D02*
X-88000Y-46000D01*
X-62641Y-50158D02*
X-53594Y-50158D01*
X-62641Y-50158D02*
X-63171Y-50688D01*
D13*
X-51944Y-109861D03*
D14*
X-52452Y-109861D02*
X-52590Y-110000D01*
D13*
X-77128Y-110000D03*
D15*
X-52590Y-110000D01*
D14*
X-52452Y-109861D02*
X-51944Y-109861D01*
M02*
