G04 EAGLE Gerber RS-274X export*
G75*
%MOMM*%
%FSLAX34Y34*%
%LPD*%
%INSolderpaste Top*%
%IPPOS*%
%AMOC8*
5,1,8,0,0,1.08239X$1,22.5*%
G01*
G04 Define Apertures*
%ADD10R,1.100000X1.000000*%
%ADD11R,0.700000X0.900000*%
%ADD12R,0.600000X0.700000*%
%ADD13R,0.800100X0.457200*%
%ADD14R,0.600000X1.700000*%
%ADD15R,1.000000X2.800000*%
%ADD16R,0.700000X0.600000*%
D10*
X-73130Y42560D03*
X-90130Y42560D03*
D11*
X-75130Y26050D03*
X-88130Y26050D03*
X-75130Y-25210D03*
X-88130Y-25210D03*
X-75130Y-13780D03*
X-88130Y-13780D03*
X-71270Y-84918D03*
X-58270Y-84918D03*
X-90114Y-84818D03*
X-103114Y-84818D03*
X-75130Y1920D03*
X-88130Y1920D03*
X-75130Y13350D03*
X-88130Y13350D03*
D12*
X-84286Y-37028D03*
X-74286Y-37028D03*
D13*
X-75170Y-69346D03*
X-75170Y-59846D03*
X-75170Y-50346D03*
X-100696Y-50346D03*
X-100696Y-69346D03*
D12*
X69470Y30346D03*
X79470Y30346D03*
X-66374Y-148500D03*
X-56374Y-148500D03*
D11*
X79970Y7780D03*
X92970Y7780D03*
X79946Y19322D03*
X92946Y19322D03*
D12*
X66021Y-24177D03*
X76021Y-24177D03*
D14*
X6250Y-142656D03*
X18750Y-142656D03*
X31250Y-142656D03*
X43750Y-142656D03*
X-6250Y-142656D03*
X-18750Y-142656D03*
X-31250Y-142656D03*
X-43750Y-142656D03*
D15*
X62250Y-109156D03*
X-62250Y-109156D03*
D16*
X-110000Y-180000D03*
X-110000Y-170000D03*
M02*
