0
SECTION
2
HEADER
9
$INSUNITS
70
4
9
$ACADVER
1
AC1014
9
$HANDSEED
5
FFFF
0
ENDSEC
0
SECTION
2
TABLES
0
TABLE
2
VPORT
5
8
100
AcDbSymbolTable
0
ENDTAB
0
TABLE
2
LTYPE
5
5
100
AcDbSymbolTable
0
LTYPE
5
14
100
AcDbSymbolTableRecord
100
AcDbLinetypeTableRecord
2
BYBLOCK
70
0
0
LTYPE
5
15
100
AcDbSymbolTableRecord
100
AcDbLinetypeTableRecord
2
BYLAYER
70
0
0
ENDTAB
0
TABLE
2
LAYER
5
2
100
AcDbSymbolTable
70
2
0
LAYER
5
50
100
AcDbSymbolTableRecord
100
AcDbLayerTableRecord
2
0
70
0
6
CONTINUOUS
0
ENDTAB
0
TABLE
2
STYLE
5
3
100
AcDbSymbolTable
70
1
0
STYLE
5
11
100
AcDbSymbolTableRecord
100
AcDbTextStyleTableRecord
2
STANDARD
70
0
0
ENDTAB
0
TABLE
2
VIEW
5
6
100
AcDbSymbolTable
70
0
0
ENDTAB
0
TABLE
2
UCS
5
7
100
AcDbSymbolTable
70
0
0
ENDTAB
0
TABLE
2
APPID
5
9
100
AcDbSymbolTable
70
2
0
APPID
5
12
100
AcDbSymbolTableRecord
100
AcDbRegAppTableRecord
2
ACAD
70
0
0
ENDTAB
0
TABLE
2
DIMSTYLE
5
A
100
AcDbSymbolTable
70
1
0
ENDTAB
0
TABLE
2
BLOCK_RECORD
5
1
100
AcDbSymbolTable
70
1
0
BLOCK_RECORD
5
1F
100
AcDbSymbolTableRecord
100
AcDbBlockTableRecord
2
*MODEL_SPACE
0
BLOCK_RECORD
5
1B
100
AcDbSymbolTableRecord
100
AcDbBlockTableRecord
2
*PAPER_SPACE
0
ENDTAB
0
ENDSEC
0
SECTION
2
BLOCKS
0
BLOCK
5
20
100
AcDbEntity
100
AcDbBlockBegin
2
*MODEL_SPACE
0
ENDBLK
5
21
100
AcDbEntity
100
AcDbBlockEnd
0
BLOCK
5
1C
100
AcDbEntity
100
AcDbBlockBegin
2
*PAPER_SPACE
0
ENDBLK
5
1D
100
AcDbEntity
100
AcDbBlockEnd
0
ENDSEC
0
SECTION
2
ENTITIES
0
CIRCLE
5
100
100
AcDbEntity
8
0
100
AcDbCircle
10
-150.99999999999997
20
-3.8599999999999963
30
0
40
1.5200000000000002
210
0
220
-0
230
1
0
CIRCLE
5
101
100
AcDbEntity
8
0
100
AcDbCircle
10
-150.99999999999997
20
77.519999999999982
30
0
40
1.5200000000000002
210
0
220
-0
230
1
0
CIRCLE
5
102
100
AcDbEntity
8
0
100
AcDbCircle
10
-150.99999999999997
20
3.8599999999999972
30
0
40
1.5200000000000002
210
0
220
-0
230
1
0
CIRCLE
5
103
100
AcDbEntity
8
0
100
AcDbCircle
10
-150.99999999999997
20
-77.519999999999982
30
0
40
1.5200000000000002
210
0
220
-0
230
1
0
LWPOLYLINE
5
104
100
AcDbEntity
8
0
100
AcDbPolyline
90
8
70
1
43
0.0
10
-128.01999999999998
20
-2.5305413629195721
10
-128.02000000000001
20
-77.879999999999981
42
-0.41421356237309509
10
-129.02000000000001
20
-78.879999999999981
10
-147.49999999999997
20
-78.879999999999981
42
-0.41421356237309509
10
-148.49999999999997
20
-77.879999999999981
10
-148.49999999999997
20
-2.5305413629195783
42
-0.41421356237309648
10
-147.49999999999997
20
-1.5305413629195732
10
-129.01999999999998
20
-1.5305413629195757
42
-0.41421356237309509
0
LWPOLYLINE
5
105
100
AcDbEntity
8
0
100
AcDbPolyline
90
8
70
1
43
0.0
10
-128.01999999999998
20
77.879999999999981
10
-128.02000000000001
20
2.5305413629195694
42
-0.41421356237309492
10
-129.02000000000001
20
1.5305413629195699
10
-147.49999999999997
20
1.5305413629195801
42
-0.41421356237309509
10
-148.49999999999997
20
2.5305413629195765
10
-148.49999999999997
20
77.879999999999981
42
-0.41421356237309509
10
-147.49999999999997
20
78.879999999999981
10
-129.01999999999998
20
78.879999999999981
42
-0.41421356237309509
0
LWPOLYLINE
5
106
100
AcDbEntity
8
0
100
AcDbPolyline
90
23
70
1
43
0.0
10
-175.47999999999999
20
79.879999999999981
42
0.41421356237307422
10
-174.47999999999996
20
78.879999999999967
10
-154.49999999999997
20
78.879999999999981
42
-0.41421356237309509
10
-153.49999999999997
20
77.879999999999981
10
-153.5
20
2.5305413629195783
42
-0.41421356237309492
10
-154.5
20
1.5305413629195792
10
-174.47999999999996
20
1.5305413629195732
42
0.41421356237307416
10
-175.47999999999999
20
0.53054136291957299
10
-175.47999999999999
20
-0.53054136291957166
42
0.41421356237307416
10
-174.47999999999996
20
-1.5305413629195859
10
-154.49999999999997
20
-1.5305413629195757
42
-0.41421356237309509
10
-153.49999999999997
20
-2.5305413629195721
10
-153.5
20
-77.879999999999981
42
-0.41421356237309509
10
-154.5
20
-78.879999999999981
10
-175.47999999999999
20
-78.879999999999981
10
-175.47999999999999
20
-81.379999999999981
42
0.4142135623730977
10
-173.47999999999999
20
-83.379999999999995
10
-127.51999999999998
20
-83.379999999999967
42
0.41421356237309509
10
-125.52
20
-81.379999999999981
10
-125.52
20
81.379999999999981
42
0.41421356237309509
10
-127.51999999999998
20
83.379999999999967
10
-173.47999999999999
20
83.379999999999967
42
0.4142135623730977
10
-175.47999999999996
20
81.379999999999981
0
ENDSEC
0
SECTION
2
OBJECTS
0
DICTIONARY
5
C
100
AcDbDictionary
3
ACAD_GROUP
350
D
3
ACAD_MLINESTYLE
350
17
0
DICTIONARY
5
D
100
AcDbDictionary
0
DICTIONARY
5
1A
330
C
100
AcDbDictionary
0
DICTIONARY
5
17
100
AcDbDictionary
0
ENDSEC
0
EOF
