0
SECTION
2
HEADER
9
$INSUNITS
70
4
9
$ACADVER
1
AC1014
9
$HANDSEED
5
FFFF
0
ENDSEC
0
SECTION
2
TABLES
0
TABLE
2
VPORT
5
8
100
AcDbSymbolTable
0
ENDTAB
0
TABLE
2
LTYPE
5
5
100
AcDbSymbolTable
0
LTYPE
5
14
100
AcDbSymbolTableRecord
100
AcDbLinetypeTableRecord
2
BYBLOCK
70
0
0
LTYPE
5
15
100
AcDbSymbolTableRecord
100
AcDbLinetypeTableRecord
2
BYLAYER
70
0
0
ENDTAB
0
TABLE
2
LAYER
5
2
100
AcDbSymbolTable
70
2
0
LAYER
5
50
100
AcDbSymbolTableRecord
100
AcDbLayerTableRecord
2
0
70
0
6
CONTINUOUS
0
ENDTAB
0
TABLE
2
STYLE
5
3
100
AcDbSymbolTable
70
1
0
STYLE
5
11
100
AcDbSymbolTableRecord
100
AcDbTextStyleTableRecord
2
STANDARD
70
0
0
ENDTAB
0
TABLE
2
VIEW
5
6
100
AcDbSymbolTable
70
0
0
ENDTAB
0
TABLE
2
UCS
5
7
100
AcDbSymbolTable
70
0
0
ENDTAB
0
TABLE
2
APPID
5
9
100
AcDbSymbolTable
70
2
0
APPID
5
12
100
AcDbSymbolTableRecord
100
AcDbRegAppTableRecord
2
ACAD
70
0
0
ENDTAB
0
TABLE
2
DIMSTYLE
5
A
100
AcDbSymbolTable
70
1
0
ENDTAB
0
TABLE
2
BLOCK_RECORD
5
1
100
AcDbSymbolTable
70
1
0
BLOCK_RECORD
5
1F
100
AcDbSymbolTableRecord
100
AcDbBlockTableRecord
2
*MODEL_SPACE
0
BLOCK_RECORD
5
1B
100
AcDbSymbolTableRecord
100
AcDbBlockTableRecord
2
*PAPER_SPACE
0
ENDTAB
0
ENDSEC
0
SECTION
2
BLOCKS
0
BLOCK
5
20
100
AcDbEntity
100
AcDbBlockBegin
2
*MODEL_SPACE
0
ENDBLK
5
21
100
AcDbEntity
100
AcDbBlockEnd
0
BLOCK
5
1C
100
AcDbEntity
100
AcDbBlockBegin
2
*PAPER_SPACE
0
ENDBLK
5
1D
100
AcDbEntity
100
AcDbBlockEnd
0
ENDSEC
0
SECTION
2
ENTITIES
0
CIRCLE
5
100
100
AcDbEntity
8
0
100
AcDbCircle
10
-37.249999999999929
20
-43.750000000000085
30
0
40
1.1000000000000001
210
0
220
-0
230
1
0
CIRCLE
5
101
100
AcDbEntity
8
0
100
AcDbCircle
10
-101.74999999999996
20
-76.249999999999844
30
0
40
1.1000000000000001
210
0
220
-0
230
1
0
CIRCLE
5
102
100
AcDbEntity
8
0
100
AcDbCircle
10
-101.75000000000003
20
76.249999999999915
30
0
40
1.1000000000000001
210
0
220
-0
230
1
0
CIRCLE
5
103
100
AcDbEntity
8
0
100
AcDbCircle
10
-37.249999999999858
20
43.750000000000142
30
0
40
1.1000000000000001
210
0
220
-0
230
1
0
CIRCLE
5
104
100
AcDbEntity
8
0
100
AcDbCircle
10
38.250000000000036
20
-76.249999999999886
30
0
40
1.1000000000000001
210
0
220
-0
230
1
0
CIRCLE
5
105
100
AcDbEntity
8
0
100
AcDbCircle
10
102.75000000000006
20
-43.750000000000128
30
0
40
1.1000000000000001
210
0
220
-0
230
1
0
CIRCLE
5
106
100
AcDbEntity
8
0
100
AcDbCircle
10
38.249999999999993
20
76.249999999999886
30
0
40
1.1000000000000001
210
0
220
-0
230
1
0
CIRCLE
5
107
100
AcDbEntity
8
0
100
AcDbCircle
10
102.75000000000006
20
76.249999999999872
30
0
40
1.1000000000000001
210
0
220
-0
230
1
0
CIRCLE
5
108
100
AcDbEntity
8
0
100
AcDbCircle
10
102.75000000000017
20
43.750000000000107
30
0
40
1.1000000000000001
210
0
220
-0
230
1
0
CIRCLE
5
109
100
AcDbEntity
8
0
100
AcDbCircle
10
38.250000000000036
20
43.750000000000114
30
0
40
1.1000000000000001
210
0
220
-0
230
1
0
CIRCLE
5
110
100
AcDbEntity
8
0
100
AcDbCircle
10
102.75000000000017
20
-76.249999999999886
30
0
40
1.1000000000000001
210
0
220
-0
230
1
0
CIRCLE
5
111
100
AcDbEntity
8
0
100
AcDbCircle
10
38.249999999999993
20
-43.750000000000114
30
0
40
1.1000000000000001
210
0
220
-0
230
1
0
CIRCLE
5
112
100
AcDbEntity
8
0
100
AcDbCircle
10
-37.249999999999957
20
76.249999999999915
30
0
40
1.1000000000000001
210
0
220
-0
230
1
0
CIRCLE
5
113
100
AcDbEntity
8
0
100
AcDbCircle
10
-101.74999999999999
20
43.750000000000149
30
0
40
1.1000000000000001
210
0
220
-0
230
1
0
CIRCLE
5
114
100
AcDbEntity
8
0
100
AcDbCircle
10
-101.74999999999999
20
-43.750000000000078
30
0
40
1.1000000000000001
210
0
220
-0
230
1
0
CIRCLE
5
115
100
AcDbEntity
8
0
100
AcDbCircle
10
-37.249999999999815
20
-76.249999999999858
30
0
40
1.1000000000000001
210
0
220
-0
230
1
0
CIRCLE
5
116
100
AcDbEntity
8
0
100
AcDbCircle
10
-48.849999999999994
20
-105.99999999999994
30
0
40
3.3500000000000001
210
0
220
-0
230
1
0
CIRCLE
5
117
100
AcDbEntity
8
0
100
AcDbCircle
10
-150.84999999999997
20
-117.0000000000001
30
0
40
3.3500000000000001
210
0
220
-0
230
1
0
CIRCLE
5
118
100
AcDbEntity
8
0
100
AcDbCircle
10
-225.99999999999997
20
-111.5
30
0
40
3.3500000000000001
210
0
220
-0
230
1
0
CIRCLE
5
119
100
AcDbEntity
8
0
100
AcDbCircle
10
-225.99999999999997
20
111.5
30
0
40
3.3500000000000001
210
0
220
-0
230
1
0
CIRCLE
5
120
100
AcDbEntity
8
0
100
AcDbCircle
10
-120.84999999999999
20
106.00000000000001
30
0
40
3.3500000000000001
210
0
220
-0
230
1
0
CIRCLE
5
121
100
AcDbEntity
8
0
100
AcDbCircle
10
-18.849999999999998
20
116.99999999999996
30
0
40
3.3500000000000001
210
0
220
-0
230
1
0
CIRCLE
5
122
100
AcDbEntity
8
0
100
AcDbCircle
10
-48.849999999999994
20
105.99999999999994
30
0
40
3.3500000000000001
210
0
220
-0
230
1
0
CIRCLE
5
123
100
AcDbEntity
8
0
100
AcDbCircle
10
-150.84999999999997
20
117.0000000000001
30
0
40
3.3500000000000001
210
0
220
-0
230
1
0
CIRCLE
5
124
100
AcDbEntity
8
0
100
AcDbCircle
10
-178.84999999999994
20
111.5
30
0
40
3.3500000000000001
210
0
220
-0
230
1
0
CIRCLE
5
125
100
AcDbEntity
8
0
100
AcDbCircle
10
-178.84999999999994
20
-111.5
30
0
40
3.3500000000000001
210
0
220
-0
230
1
0
CIRCLE
5
126
100
AcDbEntity
8
0
100
AcDbCircle
10
-120.84999999999999
20
-106.00000000000001
30
0
40
3.3500000000000001
210
0
220
-0
230
1
0
CIRCLE
5
127
100
AcDbEntity
8
0
100
AcDbCircle
10
-18.849999999999998
20
-116.99999999999996
30
0
40
3.3500000000000001
210
0
220
-0
230
1
0
LWPOLYLINE
5
128
100
AcDbEntity
8
0
100
AcDbPolyline
90
8
70
1
43
0.0
10
87
20
-80.5
10
52.999999999999986
20
-80.500000000000028
42
-0.4142135623730947
10
44.499999999999986
20
-72.000000000000014
10
44.5
20
-48.000000000000007
42
-0.41421356237309415
10
53
20
-39.500000000000021
10
87
20
-39.5
42
-0.4142135623730947
10
95.5
20
-48.000000000000007
10
95.5
20
-72
42
-0.41421356237309381
0
LWPOLYLINE
5
129
100
AcDbEntity
8
0
100
AcDbPolyline
90
8
70
1
43
0.0
10
-95.5
20
-71.999999999999972
10
-95.5
20
-47.999999999999972
42
-0.41421356237309381
10
-87
20
-39.499999999999957
10
-52.999999999999986
20
-39.499999999999972
42
-0.41421356237309592
10
-44.499999999999986
20
-47.999999999999972
10
-44.499999999999993
20
-71.999999999999957
42
-0.41421356237309537
10
-52.999999999999979
20
-80.499999999999943
10
-87
20
-80.499999999999972
42
-0.4142135623730947
0
LWPOLYLINE
5
130
100
AcDbEntity
8
0
100
AcDbPolyline
90
8
70
1
43
0.0
10
87
20
39.5
10
52.999999999999986
20
39.499999999999986
42
-0.4142135623730947
10
44.499999999999993
20
47.999999999999986
10
44.500000000000014
20
72
42
-0.41421356237309537
10
53
20
80.499999999999972
10
87
20
80.5
42
-0.4142135623730947
10
95.5
20
72
10
95.5
20
48.000000000000007
42
-0.41421356237309381
0
LWPOLYLINE
5
131
100
AcDbEntity
8
0
100
AcDbPolyline
90
8
70
1
43
0.0
10
-87.000000000000028
20
80.500000000000043
10
-53.000000000000028
20
80.500000000000043
42
-0.41421356237309415
10
-44.5
20
72.000000000000028
10
-44.500000000000021
20
48.000000000000043
42
-0.41421356237309415
10
-53.000000000000014
20
39.500000000000057
10
-87.000000000000028
20
39.500000000000021
42
-0.4142135623730947
10
-95.500000000000043
20
48.000000000000028
10
-95.500000000000043
20
72.000000000000028
42
-0.41421356237309381
0
LWPOLYLINE
5
132
100
AcDbEntity
8
0
100
AcDbPolyline
90
8
70
1
43
0.0
10
120
20
117
42
0.4142135623730937
10
112
20
125
10
-232.00000000000006
20
125
42
0.41421356237309109
10
-240.00000000000003
20
117
10
-240
20
-117
42
0.41421356237309243
10
-232.00000000000003
20
-125
10
111.99999999999996
20
-125
42
0.4142135623730937
10
119.99999999999997
20
-117
0
LWPOLYLINE
5
133
100
AcDbEntity
8
0
100
AcDbPolyline
90
4
70
1
43
0.0
10
10
20
60
10
10
20
-60
42
-0.99999999999999989
10
-10
20
-60
10
-10
20
60
42
-0.99999999999999989
0
ENDSEC
0
SECTION
2
OBJECTS
0
DICTIONARY
5
C
100
AcDbDictionary
3
ACAD_GROUP
350
D
3
ACAD_MLINESTYLE
350
17
0
DICTIONARY
5
D
100
AcDbDictionary
0
DICTIONARY
5
1A
330
C
100
AcDbDictionary
0
DICTIONARY
5
17
100
AcDbDictionary
0
ENDSEC
0
EOF
