<?xml version="1.0" encoding="UTF-8" standalone="no"?>
<!DOCTYPE svg PUBLIC "-//W3C//DTD SVG 1.1//EN"
 "http://www.w3.org/Graphics/SVG/1.1/DTD/svg11.dtd">
<!-- Generated by graphviz version 12.1.0 (20240811.2233)
 -->
<!-- Pages: 1 -->
<svg width="850pt" height="389pt"
 viewBox="0.00 0.00 849.50 389.25" xmlns="http://www.w3.org/2000/svg" xmlns:xlink="http://www.w3.org/1999/xlink">
<g id="graph0" class="graph" transform="scale(1 1) rotate(0) translate(4 385.25)">
<polygon fill="#ffffff" stroke="none" points="-4,4 -4,-385.25 845.5,-385.25 845.5,4 -4,4"/>
<!-- X1 -->
<g id="node1" class="node">
<title>X1</title>
<polygon fill="#ffffff" stroke="black" points="143.5,-325.38 0,-325.38 0,-93.88 143.5,-93.88 143.5,-325.38"/>
<polygon fill="none" stroke="black" points="0,-301.62 0,-325.38 143.5,-325.38 143.5,-301.62 0,-301.62"/>
<text text-anchor="start" x="63.5" y="-308.07" font-family="arial" font-size="14.00">X1</text>
<polygon fill="none" stroke="black" points="0,-277.88 0,-301.62 105.5,-301.62 105.5,-277.88 0,-277.88"/>
<text text-anchor="start" x="4" y="-284.32" font-family="arial" font-size="14.00">JST SHR&#45;08V&#45;S</text>
<polygon fill="none" stroke="black" points="105.5,-277.88 105.5,-301.62 143.5,-301.62 143.5,-277.88 105.5,-277.88"/>
<text text-anchor="start" x="109.5" y="-284.32" font-family="arial" font-size="14.00">8&#45;pin</text>
<polygon fill="none" stroke="black" points="0,-254.88 0,-277.88 86.25,-277.88 86.25,-254.88 0,-254.88"/>
<text text-anchor="start" x="28.88" y="-260.57" font-family="arial" font-size="14.00">VCC</text>
<polygon fill="none" stroke="black" points="86.25,-254.88 86.25,-277.88 143.5,-277.88 143.5,-254.88 86.25,-254.88"/>
<text text-anchor="start" x="111.12" y="-260.57" font-family="arial" font-size="14.00">1</text>
<polygon fill="none" stroke="black" points="0,-231.88 0,-254.88 86.25,-254.88 86.25,-231.88 0,-231.88"/>
<text text-anchor="start" x="29.25" y="-237.57" font-family="arial" font-size="14.00">SCK</text>
<polygon fill="none" stroke="black" points="86.25,-231.88 86.25,-254.88 143.5,-254.88 143.5,-231.88 86.25,-231.88"/>
<text text-anchor="start" x="111.12" y="-237.57" font-family="arial" font-size="14.00">2</text>
<polygon fill="none" stroke="black" points="0,-208.88 0,-231.88 86.25,-231.88 86.25,-208.88 0,-208.88"/>
<text text-anchor="start" x="27.75" y="-214.57" font-family="arial" font-size="14.00">GND</text>
<polygon fill="none" stroke="black" points="86.25,-208.88 86.25,-231.88 143.5,-231.88 143.5,-208.88 86.25,-208.88"/>
<text text-anchor="start" x="111.12" y="-214.57" font-family="arial" font-size="14.00">3</text>
<polygon fill="none" stroke="black" points="0,-185.88 0,-208.88 86.25,-208.88 86.25,-185.88 0,-185.88"/>
<text text-anchor="start" x="25.12" y="-191.57" font-family="arial" font-size="14.00">MOSI</text>
<polygon fill="none" stroke="black" points="86.25,-185.88 86.25,-208.88 143.5,-208.88 143.5,-185.88 86.25,-185.88"/>
<text text-anchor="start" x="111.12" y="-191.57" font-family="arial" font-size="14.00">4</text>
<polygon fill="none" stroke="black" points="0,-162.88 0,-185.88 86.25,-185.88 86.25,-162.88 0,-162.88"/>
<text text-anchor="start" x="27.75" y="-168.57" font-family="arial" font-size="14.00">GND</text>
<polygon fill="none" stroke="black" points="86.25,-162.88 86.25,-185.88 143.5,-185.88 143.5,-162.88 86.25,-162.88"/>
<text text-anchor="start" x="111.12" y="-168.57" font-family="arial" font-size="14.00">5</text>
<polygon fill="none" stroke="black" points="0,-139.88 0,-162.88 86.25,-162.88 86.25,-139.88 0,-139.88"/>
<text text-anchor="start" x="25.12" y="-145.57" font-family="arial" font-size="14.00">MISO</text>
<polygon fill="none" stroke="black" points="86.25,-139.88 86.25,-162.88 143.5,-162.88 143.5,-139.88 86.25,-139.88"/>
<text text-anchor="start" x="111.12" y="-145.57" font-family="arial" font-size="14.00">6</text>
<polygon fill="none" stroke="black" points="0,-116.88 0,-139.88 86.25,-139.88 86.25,-116.88 0,-116.88"/>
<text text-anchor="start" x="27.75" y="-122.58" font-family="arial" font-size="14.00">GND</text>
<polygon fill="none" stroke="black" points="86.25,-116.88 86.25,-139.88 143.5,-139.88 143.5,-116.88 86.25,-116.88"/>
<text text-anchor="start" x="111.12" y="-122.58" font-family="arial" font-size="14.00">7</text>
<polygon fill="none" stroke="black" points="0,-93.88 0,-116.88 86.25,-116.88 86.25,-93.88 0,-93.88"/>
<text text-anchor="start" x="33.75" y="-99.58" font-family="arial" font-size="14.00">CS</text>
<polygon fill="none" stroke="black" points="86.25,-93.88 86.25,-116.88 143.5,-116.88 143.5,-93.88 86.25,-93.88"/>
<text text-anchor="start" x="111.12" y="-99.58" font-family="arial" font-size="14.00">8</text>
</g>
<!-- W1 -->
<g id="node3" class="node">
<title>W1</title>
<polygon fill="#ffffff" stroke="black" points="554,-381.25 287.5,-381.25 287.5,0 554,0 554,-381.25"/>
<polygon fill="none" stroke="black" points="287.5,-357.5 287.5,-381.25 554,-381.25 554,-357.5 287.5,-357.5"/>
<text text-anchor="start" x="410.25" y="-363.95" font-family="arial" font-size="14.00">W1</text>
<polygon fill="none" stroke="black" points="287.5,-333.75 287.5,-357.5 329.25,-357.5 329.25,-333.75 287.5,-333.75"/>
<text text-anchor="start" x="291.5" y="-340.2" font-family="arial" font-size="14.00">CAT8</text>
<polygon fill="none" stroke="black" points="329.25,-333.75 329.25,-357.5 351.5,-357.5 351.5,-333.75 329.25,-333.75"/>
<text text-anchor="start" x="333.25" y="-340.2" font-family="arial" font-size="14.00">8x</text>
<polygon fill="none" stroke="black" points="351.5,-333.75 351.5,-357.5 482.5,-357.5 482.5,-333.75 351.5,-333.75"/>
<text text-anchor="start" x="355.5" y="-340.2" font-family="arial" font-size="14.00">28 AWG (0.09 mm²)</text>
<polygon fill="none" stroke="black" points="482.5,-333.75 482.5,-357.5 511.5,-357.5 511.5,-333.75 482.5,-333.75"/>
<text text-anchor="start" x="486.5" y="-340.2" font-family="arial" font-size="14.00">+ S</text>
<polygon fill="none" stroke="black" points="511.5,-333.75 511.5,-357.5 554,-357.5 554,-333.75 511.5,-333.75"/>
<text text-anchor="start" x="515.5" y="-340.2" font-family="arial" font-size="14.00">0.4 m</text>
<text text-anchor="start" x="326.21" y="-318.45" font-family="arial" font-size="14.00"> </text>
<text text-anchor="start" x="298.08" y="-299.45" font-family="arial" font-size="14.00">X1:1:VCC</text>
<text text-anchor="start" x="375.38" y="-299.45" font-family="arial" font-size="14.00"> &#160;&#160;&#160;&#160;1:WHOG &#160;&#160;&#160;</text>
<text text-anchor="start" x="483.42" y="-299.45" font-family="arial" font-size="14.00">X2:1:VCC</text>
<polygon fill="#000000" stroke="none" points="287.5,-293.75 287.5,-295.75 554,-295.75 554,-293.75 287.5,-293.75"/>
<polygon fill="#ffffff" stroke="none" points="287.5,-291.75 287.5,-293.75 554,-293.75 554,-291.75 287.5,-291.75"/>
<polygon fill="#ff8000" stroke="none" points="287.5,-289.75 287.5,-291.75 554,-291.75 554,-289.75 287.5,-289.75"/>
<polygon fill="#ffffff" stroke="none" points="287.5,-287.75 287.5,-289.75 554,-289.75 554,-287.75 287.5,-287.75"/>
<polygon fill="#000000" stroke="none" points="287.5,-285.75 287.5,-287.75 554,-287.75 554,-285.75 287.5,-285.75"/>
<text text-anchor="start" x="298.46" y="-270.45" font-family="arial" font-size="14.00">X1:2:SCK</text>
<text text-anchor="start" x="387" y="-270.45" font-family="arial" font-size="14.00"> &#160;&#160;&#160;&#160;2:OG &#160;&#160;&#160;</text>
<text text-anchor="start" x="483.79" y="-270.45" font-family="arial" font-size="14.00">X2:2:SCK</text>
<polygon fill="#000000" stroke="none" points="287.5,-264.75 287.5,-266.75 554,-266.75 554,-264.75 287.5,-264.75"/>
<polygon fill="#ff8000" stroke="none" points="287.5,-262.75 287.5,-264.75 554,-264.75 554,-262.75 287.5,-262.75"/>
<polygon fill="#ff8000" stroke="none" points="287.5,-260.75 287.5,-262.75 554,-262.75 554,-260.75 287.5,-260.75"/>
<polygon fill="#ff8000" stroke="none" points="287.5,-258.75 287.5,-260.75 554,-260.75 554,-258.75 287.5,-258.75"/>
<polygon fill="#000000" stroke="none" points="287.5,-256.75 287.5,-258.75 554,-258.75 554,-256.75 287.5,-256.75"/>
<text text-anchor="start" x="296.96" y="-241.45" font-family="arial" font-size="14.00">X1:3:GND</text>
<text text-anchor="start" x="376.12" y="-241.45" font-family="arial" font-size="14.00"> &#160;&#160;&#160;&#160;3:WHGN &#160;&#160;&#160;</text>
<text text-anchor="start" x="482.29" y="-241.45" font-family="arial" font-size="14.00">X2:3:GND</text>
<polygon fill="#000000" stroke="none" points="287.5,-235.75 287.5,-237.75 554,-237.75 554,-235.75 287.5,-235.75"/>
<polygon fill="#ffffff" stroke="none" points="287.5,-233.75 287.5,-235.75 554,-235.75 554,-233.75 287.5,-233.75"/>
<polygon fill="#00ff00" stroke="none" points="287.5,-231.75 287.5,-233.75 554,-233.75 554,-231.75 287.5,-231.75"/>
<polygon fill="#ffffff" stroke="none" points="287.5,-229.75 287.5,-231.75 554,-231.75 554,-229.75 287.5,-229.75"/>
<polygon fill="#000000" stroke="none" points="287.5,-227.75 287.5,-229.75 554,-229.75 554,-227.75 287.5,-227.75"/>
<text text-anchor="start" x="294.33" y="-212.45" font-family="arial" font-size="14.00">X1:4:MOSI</text>
<text text-anchor="start" x="388.88" y="-212.45" font-family="arial" font-size="14.00"> &#160;&#160;&#160;&#160;4:BU &#160;&#160;&#160;</text>
<text text-anchor="start" x="479.67" y="-212.45" font-family="arial" font-size="14.00">X2:4:MOSI</text>
<polygon fill="#000000" stroke="none" points="287.5,-206.75 287.5,-208.75 554,-208.75 554,-206.75 287.5,-206.75"/>
<polygon fill="#0066ff" stroke="none" points="287.5,-204.75 287.5,-206.75 554,-206.75 554,-204.75 287.5,-204.75"/>
<polygon fill="#0066ff" stroke="none" points="287.5,-202.75 287.5,-204.75 554,-204.75 554,-202.75 287.5,-202.75"/>
<polygon fill="#0066ff" stroke="none" points="287.5,-200.75 287.5,-202.75 554,-202.75 554,-200.75 287.5,-200.75"/>
<polygon fill="#000000" stroke="none" points="287.5,-198.75 287.5,-200.75 554,-200.75 554,-198.75 287.5,-198.75"/>
<text text-anchor="start" x="296.96" y="-183.45" font-family="arial" font-size="14.00">X1:5:GND</text>
<text text-anchor="start" x="377.25" y="-183.45" font-family="arial" font-size="14.00"> &#160;&#160;&#160;&#160;5:WHBU &#160;&#160;&#160;</text>
<text text-anchor="start" x="482.29" y="-183.45" font-family="arial" font-size="14.00">X2:5:GND</text>
<polygon fill="#000000" stroke="none" points="287.5,-177.75 287.5,-179.75 554,-179.75 554,-177.75 287.5,-177.75"/>
<polygon fill="#ffffff" stroke="none" points="287.5,-175.75 287.5,-177.75 554,-177.75 554,-175.75 287.5,-175.75"/>
<polygon fill="#0066ff" stroke="none" points="287.5,-173.75 287.5,-175.75 554,-175.75 554,-173.75 287.5,-173.75"/>
<polygon fill="#ffffff" stroke="none" points="287.5,-171.75 287.5,-173.75 554,-173.75 554,-171.75 287.5,-171.75"/>
<polygon fill="#000000" stroke="none" points="287.5,-169.75 287.5,-171.75 554,-171.75 554,-169.75 287.5,-169.75"/>
<text text-anchor="start" x="294.33" y="-154.45" font-family="arial" font-size="14.00">X1:6:MISO</text>
<text text-anchor="start" x="387.75" y="-154.45" font-family="arial" font-size="14.00"> &#160;&#160;&#160;&#160;6:GN &#160;&#160;&#160;</text>
<text text-anchor="start" x="479.67" y="-154.45" font-family="arial" font-size="14.00">X2:6:MISO</text>
<polygon fill="#000000" stroke="none" points="287.5,-148.75 287.5,-150.75 554,-150.75 554,-148.75 287.5,-148.75"/>
<polygon fill="#00ff00" stroke="none" points="287.5,-146.75 287.5,-148.75 554,-148.75 554,-146.75 287.5,-146.75"/>
<polygon fill="#00ff00" stroke="none" points="287.5,-144.75 287.5,-146.75 554,-146.75 554,-144.75 287.5,-144.75"/>
<polygon fill="#00ff00" stroke="none" points="287.5,-142.75 287.5,-144.75 554,-144.75 554,-142.75 287.5,-142.75"/>
<polygon fill="#000000" stroke="none" points="287.5,-140.75 287.5,-142.75 554,-142.75 554,-140.75 287.5,-140.75"/>
<text text-anchor="start" x="296.96" y="-125.45" font-family="arial" font-size="14.00">X1:7:GND</text>
<text text-anchor="start" x="377.25" y="-125.45" font-family="arial" font-size="14.00"> &#160;&#160;&#160;&#160;7:WHBN &#160;&#160;&#160;</text>
<text text-anchor="start" x="482.29" y="-125.45" font-family="arial" font-size="14.00">X2:7:GND</text>
<polygon fill="#000000" stroke="none" points="287.5,-119.75 287.5,-121.75 554,-121.75 554,-119.75 287.5,-119.75"/>
<polygon fill="#ffffff" stroke="none" points="287.5,-117.75 287.5,-119.75 554,-119.75 554,-117.75 287.5,-117.75"/>
<polygon fill="#895956" stroke="none" points="287.5,-115.75 287.5,-117.75 554,-117.75 554,-115.75 287.5,-115.75"/>
<polygon fill="#ffffff" stroke="none" points="287.5,-113.75 287.5,-115.75 554,-115.75 554,-113.75 287.5,-113.75"/>
<polygon fill="#000000" stroke="none" points="287.5,-111.75 287.5,-113.75 554,-113.75 554,-111.75 287.5,-111.75"/>
<text text-anchor="start" x="302.96" y="-96.45" font-family="arial" font-size="14.00">X1:8:CS</text>
<text text-anchor="start" x="388.88" y="-96.45" font-family="arial" font-size="14.00"> &#160;&#160;&#160;&#160;8:BN &#160;&#160;&#160;</text>
<text text-anchor="start" x="488.29" y="-96.45" font-family="arial" font-size="14.00">X2:8:CS</text>
<polygon fill="#000000" stroke="none" points="287.5,-90.75 287.5,-92.75 554,-92.75 554,-90.75 287.5,-90.75"/>
<polygon fill="#895956" stroke="none" points="287.5,-88.75 287.5,-90.75 554,-90.75 554,-88.75 287.5,-88.75"/>
<polygon fill="#895956" stroke="none" points="287.5,-86.75 287.5,-88.75 554,-88.75 554,-86.75 287.5,-86.75"/>
<polygon fill="#895956" stroke="none" points="287.5,-84.75 287.5,-86.75 554,-86.75 554,-84.75 287.5,-84.75"/>
<polygon fill="#000000" stroke="none" points="287.5,-82.75 287.5,-84.75 554,-84.75 554,-82.75 287.5,-82.75"/>
<text text-anchor="start" x="326.21" y="-67.45" font-family="arial" font-size="14.00"> </text>
<text text-anchor="start" x="296.96" y="-48.45" font-family="arial" font-size="14.00">X1:7:GND</text>
<text text-anchor="start" x="402" y="-48.45" font-family="arial" font-size="14.00">Shield</text>
<polygon fill="#000000" stroke="none" points="287.5,-42.75 287.5,-44.75 554,-44.75 554,-42.75 287.5,-42.75"/>
<text text-anchor="start" x="326.21" y="-27.45" font-family="arial" font-size="14.00"> </text>
<polygon fill="none" stroke="black" points="287.5,0 287.5,-23.75 554,-23.75 554,0 287.5,0"/>
<text text-anchor="start" x="318" y="-6.45" font-family="arial" font-size="14.00">Similar colors are in a twisted pair.</text>
</g>
<!-- X1&#45;&#45;W1 -->
<g id="edge1" class="edge">
<title>X1:e&#45;&#45;W1:w</title>
<path fill="none" stroke="#000000" stroke-width="2" d="M143.5,-262.38C211.87,-264.36 226.05,-288.74 287.5,-286.75"/>
<path fill="none" stroke="#ffffff" stroke-width="2" d="M143.5,-264.38C210.14,-265.37 224.32,-289.74 287.5,-288.75"/>
<path fill="none" stroke="#ff8000" stroke-width="2" d="M143.5,-266.38C208.41,-266.37 222.59,-290.75 287.5,-290.75"/>
<path fill="none" stroke="#ffffff" stroke-width="2" d="M143.5,-268.37C206.68,-267.38 220.86,-291.76 287.5,-292.75"/>
<path fill="none" stroke="#000000" stroke-width="2" d="M143.5,-270.37C204.95,-268.39 219.13,-292.76 287.5,-294.75"/>
</g>
<!-- X1&#45;&#45;W1 -->
<g id="edge3" class="edge">
<title>X1:e&#45;&#45;W1:w</title>
<path fill="none" stroke="#000000" stroke-width="2" d="M143.5,-239.38C211.12,-240.85 226.08,-259.22 287.5,-257.75"/>
<path fill="none" stroke="#ff8000" stroke-width="2" d="M143.5,-241.38C209.57,-242.11 224.53,-260.49 287.5,-259.75"/>
<path fill="none" stroke="#ff8000" stroke-width="2" d="M143.5,-243.37C208.02,-243.38 222.98,-261.75 287.5,-261.75"/>
<path fill="none" stroke="#ff8000" stroke-width="2" d="M143.5,-245.37C206.47,-244.64 221.43,-263.01 287.5,-263.75"/>
<path fill="none" stroke="#000000" stroke-width="2" d="M143.5,-247.37C204.92,-245.9 219.88,-264.28 287.5,-265.75"/>
</g>
<!-- X1&#45;&#45;W1 -->
<g id="edge5" class="edge">
<title>X1:e&#45;&#45;W1:w</title>
<path fill="none" stroke="#000000" stroke-width="2" d="M143.5,-216.38C210.23,-217.25 225.76,-229.62 287.5,-228.75"/>
<path fill="none" stroke="#ffffff" stroke-width="2" d="M143.5,-218.38C208.98,-218.81 224.51,-231.19 287.5,-230.75"/>
<path fill="none" stroke="#00ff00" stroke-width="2" d="M143.5,-220.38C207.74,-220.37 223.26,-232.75 287.5,-232.75"/>
<path fill="none" stroke="#ffffff" stroke-width="2" d="M143.5,-222.37C206.49,-221.94 222.02,-234.31 287.5,-234.75"/>
<path fill="none" stroke="#000000" stroke-width="2" d="M143.5,-224.37C205.24,-223.5 220.77,-235.88 287.5,-236.75"/>
</g>
<!-- X1&#45;&#45;W1 -->
<g id="edge7" class="edge">
<title>X1:e&#45;&#45;W1:w</title>
<path fill="none" stroke="#000000" stroke-width="2" d="M143.5,-193.38C209.05,-193.66 224.93,-200.04 287.5,-199.75"/>
<path fill="none" stroke="#0066ff" stroke-width="2" d="M143.5,-195.38C208.31,-195.52 224.18,-201.89 287.5,-201.75"/>
<path fill="none" stroke="#0066ff" stroke-width="2" d="M143.5,-197.38C207.56,-197.37 223.44,-203.75 287.5,-203.75"/>
<path fill="none" stroke="#0066ff" stroke-width="2" d="M143.5,-199.37C206.82,-199.23 222.69,-205.61 287.5,-205.75"/>
<path fill="none" stroke="#000000" stroke-width="2" d="M143.5,-201.37C206.07,-201.09 221.95,-207.46 287.5,-207.75"/>
</g>
<!-- X1&#45;&#45;W1 -->
<g id="edge9" class="edge">
<title>X1:e&#45;&#45;W1:w</title>
<path fill="none" stroke="#000000" stroke-width="2" d="M143.5,-170.38C207.59,-170.38 223.59,-170.75 287.5,-170.75"/>
<path fill="none" stroke="#ffffff" stroke-width="2" d="M143.5,-172.38C207.55,-172.38 223.55,-172.75 287.5,-172.75"/>
<path fill="none" stroke="#0066ff" stroke-width="2" d="M143.5,-174.37C207.5,-174.37 223.5,-174.75 287.5,-174.75"/>
<path fill="none" stroke="#ffffff" stroke-width="2" d="M143.5,-176.37C207.45,-176.37 223.45,-176.75 287.5,-176.75"/>
<path fill="none" stroke="#000000" stroke-width="2" d="M143.5,-178.37C207.41,-178.37 223.41,-178.75 287.5,-178.75"/>
</g>
<!-- X1&#45;&#45;W1 -->
<g id="edge11" class="edge">
<title>X1:e&#45;&#45;W1:w</title>
<path fill="none" stroke="#000000" stroke-width="2" d="M143.5,-147.38C206.21,-147.6 222.12,-141.98 287.5,-141.75"/>
<path fill="none" stroke="#00ff00" stroke-width="2" d="M143.5,-149.38C206.88,-149.49 222.78,-143.86 287.5,-143.75"/>
<path fill="none" stroke="#00ff00" stroke-width="2" d="M143.5,-151.37C207.55,-151.38 223.45,-145.75 287.5,-145.75"/>
<path fill="none" stroke="#00ff00" stroke-width="2" d="M143.5,-153.37C208.22,-153.26 224.12,-147.64 287.5,-147.75"/>
<path fill="none" stroke="#000000" stroke-width="2" d="M143.5,-155.37C208.88,-155.15 224.79,-149.52 287.5,-149.75"/>
</g>
<!-- X1&#45;&#45;W1 -->
<g id="edge13" class="edge">
<title>X1:e&#45;&#45;W1:w</title>
<path fill="none" stroke="#000000" stroke-width="2" d="M143.5,-124.38C205.32,-125.17 220.9,-113.54 287.5,-112.75"/>
<path fill="none" stroke="#ffffff" stroke-width="2" d="M143.5,-126.38C206.51,-126.77 222.1,-115.15 287.5,-114.75"/>
<path fill="none" stroke="#895956" stroke-width="2" d="M143.5,-128.38C207.71,-128.38 223.29,-116.75 287.5,-116.75"/>
<path fill="none" stroke="#ffffff" stroke-width="2" d="M143.5,-130.37C208.9,-129.98 224.49,-118.35 287.5,-118.75"/>
<path fill="none" stroke="#000000" stroke-width="2" d="M143.5,-132.37C210.1,-131.58 225.68,-119.96 287.5,-120.75"/>
</g>
<!-- X1&#45;&#45;W1 -->
<g id="edge15" class="edge">
<title>X1:e&#45;&#45;W1:w</title>
<path fill="none" stroke="#000000" stroke-width="2" d="M143.5,-101.38C204.94,-102.78 219.98,-85.15 287.5,-83.75"/>
<path fill="none" stroke="#895956" stroke-width="2" d="M143.5,-103.38C206.46,-104.08 221.5,-86.45 287.5,-85.75"/>
<path fill="none" stroke="#895956" stroke-width="2" d="M143.5,-105.38C207.98,-105.38 223.02,-87.75 287.5,-87.75"/>
<path fill="none" stroke="#895956" stroke-width="2" d="M143.5,-107.37C209.5,-106.67 224.54,-89.05 287.5,-89.75"/>
<path fill="none" stroke="#000000" stroke-width="2" d="M143.5,-109.37C211.02,-107.97 226.06,-90.35 287.5,-91.75"/>
</g>
<!-- X1&#45;&#45;W1 -->
<g id="edge17" class="edge">
<title>X1:e&#45;&#45;W1:w</title>
<path fill="none" stroke="#000000" stroke-width="2" d="M143.5,-128.38C217.73,-128.38 213.27,-43.75 287.5,-43.75"/>
</g>
<!-- X2 -->
<g id="node2" class="node">
<title>X2</title>
<polygon fill="#ffffff" stroke="black" points="841.5,-328.38 698,-328.38 698,-96.88 841.5,-96.88 841.5,-328.38"/>
<polygon fill="none" stroke="black" points="698,-304.62 698,-328.38 841.5,-328.38 841.5,-304.62 698,-304.62"/>
<text text-anchor="start" x="761.5" y="-311.07" font-family="arial" font-size="14.00">X2</text>
<polygon fill="none" stroke="black" points="698,-280.88 698,-304.62 803.5,-304.62 803.5,-280.88 698,-280.88"/>
<text text-anchor="start" x="702" y="-287.32" font-family="arial" font-size="14.00">JST SHR&#45;08V&#45;S</text>
<polygon fill="none" stroke="black" points="803.5,-280.88 803.5,-304.62 841.5,-304.62 841.5,-280.88 803.5,-280.88"/>
<text text-anchor="start" x="807.5" y="-287.32" font-family="arial" font-size="14.00">8&#45;pin</text>
<polygon fill="none" stroke="black" points="698,-257.88 698,-280.88 755.25,-280.88 755.25,-257.88 698,-257.88"/>
<text text-anchor="start" x="722.88" y="-263.57" font-family="arial" font-size="14.00">1</text>
<polygon fill="none" stroke="black" points="755.25,-257.88 755.25,-280.88 841.5,-280.88 841.5,-257.88 755.25,-257.88"/>
<text text-anchor="start" x="784.12" y="-263.57" font-family="arial" font-size="14.00">VCC</text>
<polygon fill="none" stroke="black" points="698,-234.88 698,-257.88 755.25,-257.88 755.25,-234.88 698,-234.88"/>
<text text-anchor="start" x="722.88" y="-240.57" font-family="arial" font-size="14.00">2</text>
<polygon fill="none" stroke="black" points="755.25,-234.88 755.25,-257.88 841.5,-257.88 841.5,-234.88 755.25,-234.88"/>
<text text-anchor="start" x="784.5" y="-240.57" font-family="arial" font-size="14.00">SCK</text>
<polygon fill="none" stroke="black" points="698,-211.88 698,-234.88 755.25,-234.88 755.25,-211.88 698,-211.88"/>
<text text-anchor="start" x="722.88" y="-217.57" font-family="arial" font-size="14.00">3</text>
<polygon fill="none" stroke="black" points="755.25,-211.88 755.25,-234.88 841.5,-234.88 841.5,-211.88 755.25,-211.88"/>
<text text-anchor="start" x="783" y="-217.57" font-family="arial" font-size="14.00">GND</text>
<polygon fill="none" stroke="black" points="698,-188.88 698,-211.88 755.25,-211.88 755.25,-188.88 698,-188.88"/>
<text text-anchor="start" x="722.88" y="-194.57" font-family="arial" font-size="14.00">4</text>
<polygon fill="none" stroke="black" points="755.25,-188.88 755.25,-211.88 841.5,-211.88 841.5,-188.88 755.25,-188.88"/>
<text text-anchor="start" x="780.38" y="-194.57" font-family="arial" font-size="14.00">MOSI</text>
<polygon fill="none" stroke="black" points="698,-165.88 698,-188.88 755.25,-188.88 755.25,-165.88 698,-165.88"/>
<text text-anchor="start" x="722.88" y="-171.57" font-family="arial" font-size="14.00">5</text>
<polygon fill="none" stroke="black" points="755.25,-165.88 755.25,-188.88 841.5,-188.88 841.5,-165.88 755.25,-165.88"/>
<text text-anchor="start" x="783" y="-171.57" font-family="arial" font-size="14.00">GND</text>
<polygon fill="none" stroke="black" points="698,-142.88 698,-165.88 755.25,-165.88 755.25,-142.88 698,-142.88"/>
<text text-anchor="start" x="722.88" y="-148.57" font-family="arial" font-size="14.00">6</text>
<polygon fill="none" stroke="black" points="755.25,-142.88 755.25,-165.88 841.5,-165.88 841.5,-142.88 755.25,-142.88"/>
<text text-anchor="start" x="780.38" y="-148.57" font-family="arial" font-size="14.00">MISO</text>
<polygon fill="none" stroke="black" points="698,-119.88 698,-142.88 755.25,-142.88 755.25,-119.88 698,-119.88"/>
<text text-anchor="start" x="722.88" y="-125.58" font-family="arial" font-size="14.00">7</text>
<polygon fill="none" stroke="black" points="755.25,-119.88 755.25,-142.88 841.5,-142.88 841.5,-119.88 755.25,-119.88"/>
<text text-anchor="start" x="783" y="-125.58" font-family="arial" font-size="14.00">GND</text>
<polygon fill="none" stroke="black" points="698,-96.88 698,-119.88 755.25,-119.88 755.25,-96.88 698,-96.88"/>
<text text-anchor="start" x="722.88" y="-102.58" font-family="arial" font-size="14.00">8</text>
<polygon fill="none" stroke="black" points="755.25,-96.88 755.25,-119.88 841.5,-119.88 841.5,-96.88 755.25,-96.88"/>
<text text-anchor="start" x="789" y="-102.58" font-family="arial" font-size="14.00">CS</text>
</g>
<!-- W1&#45;&#45;X2 -->
<g id="edge2" class="edge">
<title>W1:e&#45;&#45;X2:w</title>
<path fill="none" stroke="#000000" stroke-width="2" d="M554,-286.75C615.4,-288.49 630,-267.12 698,-265.38"/>
<path fill="none" stroke="#ffffff" stroke-width="2" d="M554,-288.75C617.05,-289.62 631.65,-268.25 698,-267.38"/>
<path fill="none" stroke="#ff8000" stroke-width="2" d="M554,-290.75C618.7,-290.75 633.3,-269.37 698,-269.38"/>
<path fill="none" stroke="#ffffff" stroke-width="2" d="M554,-292.75C620.35,-291.88 634.95,-270.5 698,-271.37"/>
<path fill="none" stroke="#000000" stroke-width="2" d="M554,-294.75C622,-293.01 636.6,-271.63 698,-273.37"/>
</g>
<!-- W1&#45;&#45;X2 -->
<g id="edge4" class="edge">
<title>W1:e&#45;&#45;X2:w</title>
<path fill="none" stroke="#000000" stroke-width="2" d="M554,-257.75C615.53,-258.93 630.8,-243.56 698,-242.38"/>
<path fill="none" stroke="#ff8000" stroke-width="2" d="M554,-259.75C616.94,-260.34 632.22,-244.97 698,-244.38"/>
<path fill="none" stroke="#ff8000" stroke-width="2" d="M554,-261.75C618.36,-261.75 633.64,-246.38 698,-246.38"/>
<path fill="none" stroke="#ff8000" stroke-width="2" d="M554,-263.75C619.78,-263.16 635.06,-247.78 698,-248.37"/>
<path fill="none" stroke="#000000" stroke-width="2" d="M554,-265.75C621.2,-264.57 636.47,-249.19 698,-250.37"/>
</g>
<!-- W1&#45;&#45;X2 -->
<g id="edge6" class="edge">
<title>W1:e&#45;&#45;X2:w</title>
<path fill="none" stroke="#000000" stroke-width="2" d="M554,-228.75C616.09,-229.31 631.82,-219.94 698,-219.38"/>
<path fill="none" stroke="#ffffff" stroke-width="2" d="M554,-230.75C617.11,-231.03 632.84,-221.66 698,-221.38"/>
<path fill="none" stroke="#00ff00" stroke-width="2" d="M554,-232.75C618.14,-232.75 633.86,-223.38 698,-223.38"/>
<path fill="none" stroke="#ffffff" stroke-width="2" d="M554,-234.75C619.16,-234.47 634.89,-225.09 698,-225.37"/>
<path fill="none" stroke="#000000" stroke-width="2" d="M554,-236.75C620.18,-236.19 635.91,-226.81 698,-227.37"/>
</g>
<!-- W1&#45;&#45;X2 -->
<g id="edge8" class="edge">
<title>W1:e&#45;&#45;X2:w</title>
<path fill="none" stroke="#000000" stroke-width="2" d="M554,-199.75C617.19,-199.84 633.16,-196.46 698,-196.38"/>
<path fill="none" stroke="#0066ff" stroke-width="2" d="M554,-201.75C617.6,-201.79 633.57,-198.42 698,-198.38"/>
<path fill="none" stroke="#0066ff" stroke-width="2" d="M554,-203.75C618.02,-203.75 633.98,-200.37 698,-200.38"/>
<path fill="none" stroke="#0066ff" stroke-width="2" d="M554,-205.75C618.43,-205.71 634.4,-202.33 698,-202.37"/>
<path fill="none" stroke="#000000" stroke-width="2" d="M554,-207.75C618.84,-207.66 634.81,-204.29 698,-204.37"/>
</g>
<!-- W1&#45;&#45;X2 -->
<g id="edge10" class="edge">
<title>W1:e&#45;&#45;X2:w</title>
<path fill="none" stroke="#000000" stroke-width="2" d="M554,-170.75C618.66,-170.8 634.64,-173.43 698,-173.38"/>
<path fill="none" stroke="#ffffff" stroke-width="2" d="M554,-172.75C618.33,-172.78 634.31,-175.4 698,-175.38"/>
<path fill="none" stroke="#0066ff" stroke-width="2" d="M554,-174.75C618.01,-174.75 633.99,-177.37 698,-177.38"/>
<path fill="none" stroke="#ffffff" stroke-width="2" d="M554,-176.75C617.69,-176.72 633.67,-179.35 698,-179.37"/>
<path fill="none" stroke="#000000" stroke-width="2" d="M554,-178.75C617.36,-178.7 633.34,-181.32 698,-181.37"/>
</g>
<!-- W1&#45;&#45;X2 -->
<g id="edge12" class="edge">
<title>W1:e&#45;&#45;X2:w</title>
<path fill="none" stroke="#000000" stroke-width="2" d="M554,-141.75C620.03,-142.24 635.8,-150.87 698,-150.38"/>
<path fill="none" stroke="#00ff00" stroke-width="2" d="M554,-143.75C619.07,-144 634.84,-152.62 698,-152.38"/>
<path fill="none" stroke="#00ff00" stroke-width="2" d="M554,-145.75C618.11,-145.75 633.89,-154.38 698,-154.37"/>
<path fill="none" stroke="#00ff00" stroke-width="2" d="M554,-147.75C617.16,-147.5 632.93,-156.13 698,-156.37"/>
<path fill="none" stroke="#000000" stroke-width="2" d="M554,-149.75C616.2,-149.26 631.97,-157.88 698,-158.37"/>
</g>
<!-- W1&#45;&#45;X2 -->
<g id="edge14" class="edge">
<title>W1:e&#45;&#45;X2:w</title>
<path fill="none" stroke="#000000" stroke-width="2" d="M554,-112.75C621.09,-113.85 636.43,-128.48 698,-127.38"/>
<path fill="none" stroke="#ffffff" stroke-width="2" d="M554,-114.75C619.71,-115.3 635.05,-129.93 698,-129.38"/>
<path fill="none" stroke="#895956" stroke-width="2" d="M554,-116.75C618.33,-116.75 633.67,-131.38 698,-131.38"/>
<path fill="none" stroke="#ffffff" stroke-width="2" d="M554,-118.75C616.95,-118.2 632.29,-132.82 698,-133.37"/>
<path fill="none" stroke="#000000" stroke-width="2" d="M554,-120.75C615.57,-119.65 630.91,-134.27 698,-135.37"/>
</g>
<!-- W1&#45;&#45;X2 -->
<g id="edge16" class="edge">
<title>W1:e&#45;&#45;X2:w</title>
<path fill="none" stroke="#000000" stroke-width="2" d="M554,-83.75C621.91,-85.43 636.6,-106.05 698,-104.38"/>
<path fill="none" stroke="#895956" stroke-width="2" d="M554,-85.75C620.28,-86.59 634.98,-107.21 698,-106.38"/>
<path fill="none" stroke="#895956" stroke-width="2" d="M554,-87.75C618.65,-87.75 633.35,-108.38 698,-108.37"/>
<path fill="none" stroke="#895956" stroke-width="2" d="M554,-89.75C617.02,-88.91 631.72,-109.54 698,-110.37"/>
<path fill="none" stroke="#000000" stroke-width="2" d="M554,-91.75C615.4,-90.07 630.09,-110.7 698,-112.37"/>
</g>
</g>
</svg>
