M48
;GenerationSoftware,Autodesk,EAGLE,9.7.0*%
;CreationDate,2024-09-25T22:44:17Z*%
FMAT,2
ICI,OFF
METRIC,TZ,000.000
T4C0.350
T3C0.600
T2C1.016
T1C2.300
%
G90
M71
T1
X-9500Y-13500
X9500Y-13500
X9500Y13500
X-9500Y13500
T2
X11000Y-1294
X11000Y1246
X11000Y3786
X11000Y8866
X11000Y-3834
X11000Y-6374
X11000Y-8914
X11000Y6326
T3
X5334Y-7685
X-5359Y3884
X5334Y-5905
X5334Y-4125
X5334Y-2345
X5334Y-565
X5334Y1215
X5334Y2995
X5334Y4775
X-5359Y-6796
X-5359Y-5016
X-5359Y-3236
X-5359Y-1456
X-5359Y324
X-5359Y2104
X-5359Y5664
T4
X6023Y-9100
X5000Y-10000
X7100Y-5000
X7400Y-7200
X11400Y-11600
X-7000Y-1000
X-300Y-12681
X-10176Y-4141
X8000Y5000
X1500Y-12800
X5200Y-11300
X-4910Y-10010
X7804Y-1296
X8754Y-3547
X500Y-9900
M30