M48
;GenerationSoftware,Autodesk,EAGLE,9.7.0*%
;CreationDate,2024-11-05T20:20:56Z*%
FMAT,2
ICI,OFF
METRIC,TZ,000.000
T7C0.350
T6C0.813
T5C1.000
T4C1.016
T3C1.300
T2C2.286
T1C3.200
%
G90
M71
T1
X-31750Y3810
X27940Y3810
X-31750Y101600
X27940Y101600
T2
X18649Y67465
X18649Y80673
T3
X-8937Y99572
X26289Y11938
X26289Y16938
X-3937Y99572
T4
X-1778Y71310
X20320Y39319
X-4318Y71310
X-6858Y71310
X-9398Y71310
X-11938Y71310
X-14478Y71310
X-17018Y71310
X-19558Y71310
X-1778Y78152
X-4318Y78152
X-6858Y78152
X-9398Y78152
X-11938Y78152
X-14478Y78152
X-17018Y78152
X-19558Y78152
X-1778Y85044
X-4318Y85044
X-6858Y85044
X-9398Y85044
X-11938Y85044
X-14478Y85044
X-17018Y85044
X-19558Y85044
X-1575Y92011
X-4115Y92011
X-6655Y92011
X-9195Y92011
X-11735Y92011
X-14275Y92011
X-16815Y92011
X-19355Y92011
X24130Y42545
X24130Y40005
X24130Y37465
X24130Y34925
X24257Y30480
X24257Y27940
X24257Y25400
X24257Y22860
X7620Y31750
X7620Y34290
X-10160Y11430
X-12700Y11430
X-10160Y6350
X-12700Y6350
X7620Y39370
X-7620Y39370
X-7620Y41910
X-7620Y44450
X-7620Y46990
X-7620Y49530
X-7620Y52070
X-7620Y54610
X-7620Y57150
X-7620Y59690
X-7620Y62230
X7620Y62230
X7620Y59690
X7620Y57150
X7620Y54610
X7620Y52070
X7620Y49530
X7620Y46990
X7620Y44450
X7620Y41910
X7620Y3810
X7620Y6350
X7620Y8890
X7620Y11430
X7620Y36830
X-7620Y3810
X-7620Y6350
X-7620Y8890
X-7620Y11430
X-7620Y13970
X-7620Y16510
X-7620Y19050
X-7620Y21590
X-7620Y24130
X-7620Y26670
X-7620Y29210
X-7620Y31750
X-7620Y34290
X-7620Y36830
X26142Y71529
X26142Y76609
X11664Y71529
X18981Y44802
X7620Y29210
X11664Y76609
X26142Y74069
X-10160Y13970
X-12700Y13970
X-10160Y16510
X-12700Y16510
X-10160Y19050
X-12700Y19050
X-10160Y21590
X-12700Y21590
X-10160Y24130
X-12700Y24130
X-10160Y26670
X-12700Y26670
X-10160Y29210
X-12700Y29210
X-10160Y31750
X-12700Y31750
X-10160Y34290
X-12700Y34290
X-12700Y62230
X-10160Y62230
X-12700Y59690
X-10160Y59690
X-12700Y57150
X-10160Y57150
X-12700Y54610
X-10160Y54610
X-12700Y52070
X-10160Y52070
X-12700Y49530
X-10160Y49530
X-12700Y46990
X-10160Y46990
X-12700Y44450
X-10160Y44450
X-12700Y41910
X-10160Y41910
X-12700Y39370
X-10160Y39370
X12700Y41910
X10160Y41910
X12700Y44450
X10160Y44450
X12700Y46990
X10160Y46990
X12700Y49530
X10160Y49530
X12700Y52070
X10160Y52070
X12700Y54610
X10160Y54610
X12700Y57150
X10160Y57150
X12700Y59690
X10160Y59690
X12700Y62230
X10160Y62230
X-20320Y3810
X-17780Y3810
X-15240Y3810
X-12700Y3810
X-10160Y3810
X7620Y13970
X7620Y16510
X18981Y62582
X18981Y60042
X18981Y57502
X18981Y54962
X18981Y52422
X18981Y49882
X18981Y47342
X7620Y19050
X10160Y39319
X12700Y39319
X15240Y39319
X17780Y39319
X7620Y21590
X10160Y3861
X12700Y3861
X15240Y3861
X17780Y3861
X20320Y3861
X7620Y24130
X7620Y26670
X-20400Y8890
X-17860Y8890
X-15320Y8890
X-12780Y8890
X-10240Y8890
X-33020Y31750
X-33020Y29210
X-33020Y26670
X-33020Y24130
X-33020Y54610
X-33020Y52070
X-33020Y49530
X-33020Y46990
X12700Y6350
X12700Y8890
X12700Y11430
X12700Y13970
X12700Y16510
X12700Y19050
X12700Y21590
X12700Y24130
X12700Y26670
X12700Y29210
X12700Y31750
X12700Y34290
X12700Y36830
X10160Y36830
X10160Y34290
X10160Y31750
X10160Y29210
X10160Y26670
X10160Y24130
X10160Y21590
X10160Y19050
X10160Y16510
X10160Y13970
X10160Y11430
X10160Y8890
X10160Y6350
X-12700Y36830
X-10160Y36830
T5
X-21590Y41910
X-19050Y41910
X-29210Y41910
X-29210Y44450
X-29210Y46990
X-29210Y49530
X-29210Y52070
X-29210Y54610
X-29210Y57150
X-29210Y59690
X-16510Y41910
X-16510Y44450
X-16510Y46990
X-16510Y49530
X-16510Y52070
X-16510Y54610
X-16510Y57150
X-16510Y59690
X-21671Y19080
X-19131Y19080
X-29291Y19080
X-29291Y21620
X-29291Y24160
X-29291Y26700
X-29291Y29240
X-29291Y31780
X-29291Y34320
X-29291Y36860
X-16591Y19080
X-16591Y21620
X-16591Y24160
X-16591Y26700
X-16591Y29240
X-16591Y31780
X-16591Y34320
X-16591Y36860
T6
X-25400Y24130
X-20320Y24130
X-25400Y46990
X-20320Y46990
X26713Y86995
X26713Y92075
T7
X-24130Y90170
X-21590Y72390
X17780Y77470
X-2540Y27940
X-1270Y16510
X10160Y68580
X-1778Y56515
X-33020Y40640
X-29210Y10160
X-24130Y19050
X1270Y22860
X16690Y54713
X16510Y52070
X17787Y48361
X17596Y10344
X21509Y30561
X15494Y22860
X17145Y20081
X3810Y63500
X-3550Y45587
X1075Y44450
X4265Y33020
X-4293Y65405
X-4572Y49022
X-9930Y67310
X3810Y38100
X3429Y35306
X-3402Y37692
X2540Y58420
X2540Y44450
X-960Y64788
X-12464Y67292
X6477Y76962
X2794Y66548
X-1016Y67818
X-4445Y67945
X-2540Y74930
X127Y74930
X1651Y79629
X-2540Y81280
X-2540Y88900
X-10922Y73279
X-10795Y80518
X-10922Y87376
X-12700Y87630
X-12700Y80010
X-12700Y73660
X17780Y13970
X15240Y16510
X17780Y41910
X19791Y46072
X1857Y57150
X14299Y67639
X17780Y6350
X10160Y82550
X27940Y95250
X13970Y99060
X21590Y92710
X-25400Y101600
X24130Y101600
X29314Y93980
X6350Y90297
X24130Y80010
X3335Y49530
X0Y40640
X25400Y62230
X-3810Y40640
X-24130Y3810
X-33020Y66040
X-17780Y30480
X3810Y86360
X-21590Y64770
X-1270Y5080
X24130Y2540
X21590Y8890
X-2540Y34290
X-30480Y85090
M30