G04 EAGLE Gerber RS-274X export*
G75*
%MOMM*%
%FSLAX34Y34*%
%LPD*%
%INSoldermask Top*%
%IPPOS*%
%AMOC8*
5,1,8,0,0,1.08239X$1,22.5*%
G01*
G04 Define Apertures*
%ADD10C,3.403600*%
%ADD11C,2.108200*%
%ADD12P,2.28189X8X202.5*%
%ADD13R,1.303200X1.203200*%
%ADD14C,1.711200*%
%ADD15R,1.711200X1.711200*%
%ADD16C,2.082800*%
%ADD17R,2.235200X2.235200*%
%ADD18C,2.235200*%
%ADD19R,1.001900X1.177100*%
%ADD20R,1.177100X1.001900*%
%ADD21C,1.727200*%
%ADD22C,3.505200*%
%ADD23R,0.803200X1.753200*%
%ADD24R,1.403200X2.003200*%
%ADD25R,0.736600X1.663700*%
%ADD26R,3.303200X2.603200*%
%ADD27R,1.203200X1.303200*%
%ADD28R,0.847200X0.738300*%
%ADD29R,3.332400X2.002600*%
%ADD30R,0.903200X1.103200*%
%ADD31R,1.103200X0.903200*%
%ADD32R,0.738300X0.847200*%
%ADD33R,2.702559X2.103119*%
%ADD34P,2.28189X8X112.5*%
%ADD35R,1.473200X0.863600*%
%ADD36C,0.959600*%
G36*
X277495Y815340D02*
X281305Y815340D01*
X281305Y810260D01*
X277495Y810260D01*
X277495Y815340D01*
G37*
D10*
X-317500Y38100D03*
X279400Y38100D03*
X-317500Y1016000D03*
X279400Y1016000D03*
D11*
X-203200Y469900D03*
D12*
X-254000Y469900D03*
D11*
X-203200Y241300D03*
D12*
X-254000Y241300D03*
D13*
X161410Y190500D03*
X178410Y190500D03*
D14*
X-165909Y368604D03*
X-165909Y343204D03*
X-165909Y317804D03*
X-165909Y292404D03*
X-165909Y267004D03*
X-165909Y241604D03*
X-165909Y216204D03*
X-165909Y190804D03*
D15*
X-292909Y368604D03*
D14*
X-292909Y343204D03*
X-292909Y317804D03*
X-292909Y292404D03*
X-292909Y267004D03*
X-292909Y241604D03*
X-292909Y216204D03*
X-292909Y190804D03*
X-191309Y190804D03*
X-216709Y190804D03*
X-165100Y596900D03*
X-165100Y571500D03*
X-165100Y546100D03*
X-165100Y520700D03*
X-165100Y495300D03*
X-165100Y469900D03*
X-165100Y444500D03*
X-165100Y419100D03*
D15*
X-292100Y596900D03*
D14*
X-292100Y571500D03*
X-292100Y546100D03*
X-292100Y520700D03*
X-292100Y495300D03*
X-292100Y469900D03*
X-292100Y444500D03*
X-292100Y419100D03*
X-190500Y419100D03*
X-215900Y419100D03*
D16*
X-127000Y622300D03*
X-101600Y622300D03*
X-127000Y596900D03*
X-101600Y596900D03*
X-127000Y571500D03*
X-101600Y571500D03*
X-127000Y546100D03*
X-101600Y546100D03*
X-127000Y520700D03*
X-101600Y520700D03*
X-127000Y495300D03*
X-101600Y495300D03*
X-127000Y469900D03*
X-101600Y469900D03*
X-127000Y444500D03*
X-101600Y444500D03*
X-127000Y419100D03*
X-101600Y419100D03*
X-127000Y393700D03*
X-101600Y393700D03*
X127000Y419100D03*
X101600Y419100D03*
X127000Y444500D03*
X101600Y444500D03*
X127000Y469900D03*
X101600Y469900D03*
X127000Y495300D03*
X101600Y495300D03*
X127000Y520700D03*
X101600Y520700D03*
X127000Y546100D03*
X101600Y546100D03*
X127000Y571500D03*
X101600Y571500D03*
X127000Y596900D03*
X101600Y596900D03*
X127000Y622300D03*
X101600Y622300D03*
X-203200Y38100D03*
X-177800Y38100D03*
X-152400Y38100D03*
X-127000Y38100D03*
X-101600Y38100D03*
D17*
X-39370Y995720D03*
D18*
X-89370Y995720D03*
D16*
X189811Y625818D03*
X189811Y600418D03*
X189811Y575018D03*
X189811Y549618D03*
X189811Y524218D03*
X189811Y498818D03*
X189811Y473418D03*
X189811Y448018D03*
X101600Y393192D03*
X127000Y393192D03*
X152400Y393192D03*
X177800Y393192D03*
X203200Y393192D03*
X101600Y38608D03*
X127000Y38608D03*
X152400Y38608D03*
X177800Y38608D03*
X203200Y38608D03*
D17*
X262890Y119380D03*
D18*
X262890Y169380D03*
D16*
X-203997Y88900D03*
X-178597Y88900D03*
X-153197Y88900D03*
X-127797Y88900D03*
X-102397Y88900D03*
X-330200Y317500D03*
X-330200Y292100D03*
X-330200Y266700D03*
X-330200Y241300D03*
X-330200Y546100D03*
X-330200Y520700D03*
X-330200Y495300D03*
X-330200Y469900D03*
X127000Y63500D03*
X127000Y88900D03*
X127000Y114300D03*
X127000Y139700D03*
X127000Y165100D03*
X127000Y190500D03*
X127000Y215900D03*
X127000Y241300D03*
X127000Y266700D03*
X127000Y292100D03*
X127000Y317500D03*
X127000Y342900D03*
X127000Y368300D03*
X101600Y368300D03*
X101600Y342900D03*
X101600Y317500D03*
X101600Y292100D03*
X101600Y266700D03*
X101600Y241300D03*
X101600Y215900D03*
X101600Y190500D03*
X101600Y165100D03*
X101600Y139700D03*
X101600Y114300D03*
X101600Y88900D03*
X101600Y63500D03*
X-127000Y368300D03*
X-101600Y368300D03*
X-127000Y342900D03*
X-101600Y342900D03*
X-127000Y317500D03*
X-101600Y317500D03*
X-127000Y292100D03*
X-101600Y292100D03*
X-127000Y266700D03*
X-101600Y266700D03*
X-127000Y241300D03*
X-101600Y241300D03*
X-127000Y215900D03*
X-101600Y215900D03*
X-127000Y190500D03*
X-101600Y190500D03*
X-127000Y165100D03*
X-101600Y165100D03*
X-127000Y139700D03*
X-101600Y139700D03*
D19*
X58952Y215900D03*
X42648Y215900D03*
X58952Y190500D03*
X42648Y190500D03*
X58952Y139700D03*
X42648Y139700D03*
D20*
X-57150Y269978D03*
X-57150Y286282D03*
X-56432Y592352D03*
X-56432Y576048D03*
D21*
X261420Y740692D03*
X116640Y766092D03*
D22*
X186490Y806732D03*
X186490Y674652D03*
D21*
X116640Y715292D03*
X261420Y766092D03*
X261420Y715292D03*
D16*
X-76200Y368300D03*
X-76200Y342900D03*
X-76200Y317500D03*
X-76200Y292100D03*
X-76200Y266700D03*
X-76200Y241300D03*
X-76200Y215900D03*
X-76200Y190500D03*
X-76200Y165100D03*
X-76200Y139700D03*
X-76200Y114300D03*
X-76200Y88900D03*
X-76200Y63500D03*
X-76200Y38100D03*
X76200Y368300D03*
X76200Y342900D03*
X76200Y317500D03*
X76200Y292100D03*
X76200Y266700D03*
X76200Y241300D03*
X76200Y215900D03*
X76200Y190500D03*
X76200Y165100D03*
X76200Y139700D03*
X76200Y114300D03*
X76200Y88900D03*
X76200Y63500D03*
X76200Y38100D03*
X76200Y419100D03*
X76200Y444500D03*
X76200Y469900D03*
X76200Y495300D03*
X76200Y520700D03*
X76200Y546100D03*
X76200Y571500D03*
X76200Y596900D03*
X76200Y622300D03*
X-76200Y622300D03*
X-76200Y596900D03*
X-76200Y571500D03*
X-76200Y546100D03*
X-76200Y520700D03*
X-76200Y495300D03*
X-76200Y469900D03*
X-76200Y444500D03*
X-76200Y419100D03*
X-76200Y393700D03*
X76200Y393700D03*
D23*
X-79300Y898900D03*
X-89300Y898900D03*
X-99300Y898900D03*
X-109300Y898900D03*
X-119300Y898900D03*
X-129300Y898900D03*
X-139300Y898900D03*
X-149300Y898900D03*
D24*
X-162300Y873650D03*
X-66300Y873650D03*
D23*
X-79300Y829230D03*
X-89300Y829230D03*
X-99300Y829230D03*
X-109300Y829230D03*
X-119300Y829230D03*
X-129300Y829230D03*
X-139300Y829230D03*
X-149300Y829230D03*
D24*
X-162300Y803980D03*
X-66300Y803980D03*
D23*
X-79300Y760470D03*
X-89300Y760470D03*
X-99300Y760470D03*
X-109300Y760470D03*
X-119300Y760470D03*
X-129300Y760470D03*
X-139300Y760470D03*
X-149300Y760470D03*
D24*
X-162300Y735220D03*
X-66300Y735220D03*
D23*
X-79300Y691890D03*
X-89300Y691890D03*
X-99300Y691890D03*
X-109300Y691890D03*
X-119300Y691890D03*
X-129300Y691890D03*
X-139300Y691890D03*
X-149300Y691890D03*
D24*
X-162300Y666640D03*
X-66300Y666640D03*
D13*
X161410Y215900D03*
X178410Y215900D03*
D19*
X42648Y368300D03*
X58952Y368300D03*
X42648Y342900D03*
X58952Y342900D03*
X-42648Y368300D03*
X-58952Y368300D03*
X-42648Y469900D03*
X-58952Y469900D03*
X42648Y317500D03*
X58952Y317500D03*
X-42648Y444500D03*
X-58952Y444500D03*
X42648Y622300D03*
X58952Y622300D03*
X58952Y165100D03*
X42648Y165100D03*
D16*
X-127000Y63500D03*
X-101600Y63500D03*
X-127000Y114300D03*
X-101600Y114300D03*
D19*
X148058Y88900D03*
X164362Y88900D03*
X164362Y469900D03*
X148058Y469900D03*
X164362Y495300D03*
X148058Y495300D03*
X166902Y576580D03*
X150598Y576580D03*
X-15978Y469900D03*
X-32282Y469900D03*
X-16833Y444500D03*
X-33137Y444500D03*
X15978Y317500D03*
X32282Y317500D03*
X40387Y584479D03*
X56691Y584479D03*
X15978Y622300D03*
X32282Y622300D03*
D25*
X120650Y977864D03*
X107950Y977864D03*
X95250Y977864D03*
X82550Y977864D03*
X82550Y923382D03*
X95250Y923382D03*
X107950Y923382D03*
X120650Y923382D03*
D26*
X101600Y950623D03*
D27*
X91745Y996070D03*
X91745Y1013070D03*
X112175Y995890D03*
X112175Y1012890D03*
D28*
X71120Y988055D03*
X71120Y977905D03*
D29*
X175558Y946755D03*
X175558Y1011585D03*
D30*
X77320Y895021D03*
X90320Y895021D03*
D31*
X105410Y905660D03*
X105410Y892660D03*
D32*
X84321Y907525D03*
X94471Y907525D03*
D28*
X67310Y914405D03*
X67310Y924555D03*
D32*
X59685Y925625D03*
X49535Y925625D03*
D33*
X154843Y908842D03*
X154843Y867846D03*
D31*
X135890Y955780D03*
X135890Y942780D03*
D13*
X262500Y821690D03*
X245500Y821690D03*
X262500Y847090D03*
X245500Y847090D03*
D11*
X267135Y869950D03*
D34*
X267135Y920750D03*
D35*
X279400Y807593D03*
X279400Y818007D03*
D19*
X58952Y114300D03*
X42648Y114300D03*
D16*
X242570Y228600D03*
X242570Y254000D03*
X242570Y279400D03*
X242570Y304800D03*
X241300Y349250D03*
X241300Y374650D03*
X241300Y400050D03*
X241300Y425450D03*
X-193548Y920112D03*
X-168148Y920112D03*
X-142748Y920112D03*
X-117348Y920112D03*
X-91948Y920112D03*
X-66548Y920112D03*
X-41148Y920112D03*
X-15748Y920112D03*
X-195580Y850442D03*
X-170180Y850442D03*
X-144780Y850442D03*
X-119380Y850442D03*
X-93980Y850442D03*
X-68580Y850442D03*
X-43180Y850442D03*
X-17780Y850442D03*
X-195580Y781518D03*
X-170180Y781518D03*
X-144780Y781518D03*
X-119380Y781518D03*
X-93980Y781518D03*
X-68580Y781518D03*
X-43180Y781518D03*
X-17780Y781518D03*
X-195580Y713102D03*
X-170180Y713102D03*
X-144780Y713102D03*
X-119380Y713102D03*
X-93980Y713102D03*
X-68580Y713102D03*
X-43180Y713102D03*
X-17780Y713102D03*
D36*
X-304800Y850900D03*
X-241300Y901700D03*
X-215900Y723900D03*
X177800Y774700D03*
X101600Y685800D03*
X-17780Y565150D03*
X-330200Y406400D03*
X-292100Y101600D03*
X-241300Y190500D03*
X12700Y228600D03*
X-12700Y165100D03*
X-25400Y279400D03*
X-25400Y342900D03*
X215900Y88900D03*
X241300Y25400D03*
X-12700Y50800D03*
X-215900Y647700D03*
X38100Y863600D03*
X-177800Y304800D03*
X-330200Y660400D03*
X-241300Y38100D03*
X-38100Y406400D03*
X254000Y622300D03*
X0Y406400D03*
X33349Y495300D03*
X241300Y800100D03*
X63500Y902970D03*
X293142Y939800D03*
X241300Y1016000D03*
X-254000Y1016000D03*
X215900Y927100D03*
X139700Y990600D03*
X279400Y952500D03*
X101600Y825500D03*
X177800Y63500D03*
X142989Y676389D03*
X18570Y571500D03*
X197906Y460718D03*
X177800Y419100D03*
X152400Y165100D03*
X177800Y139700D03*
X-127000Y736600D03*
X-127000Y800100D03*
X-127000Y876300D03*
X-109220Y873760D03*
X-107950Y805180D03*
X-109220Y732790D03*
X-25400Y889000D03*
X-25400Y812800D03*
X16510Y796290D03*
X1270Y749300D03*
X-25400Y749300D03*
X-44450Y679450D03*
X-10160Y678180D03*
X27940Y665480D03*
X64770Y769620D03*
X-124638Y672922D03*
X-9600Y647878D03*
X25400Y444500D03*
X25400Y584200D03*
X-34024Y376924D03*
X34290Y353060D03*
X38100Y381000D03*
X-99300Y673100D03*
X-45720Y490220D03*
X-42926Y654050D03*
X42648Y330200D03*
X10755Y444500D03*
X-35497Y455867D03*
X38100Y635000D03*
X171450Y200806D03*
X154940Y228600D03*
X215085Y305615D03*
X175959Y103442D03*
X177871Y483614D03*
X165100Y520700D03*
X166902Y547127D03*
M02*
