G04 EAGLE Gerber RS-274X export*
G75*
%MOMM*%
%FSLAX34Y34*%
%LPD*%
%INSolderpaste Top*%
%IPPOS*%
%AMOC8*
5,1,8,0,0,1.08239X$1,22.5*%
G01*
G04 Define Apertures*
%ADD10R,1.100000X1.000000*%
%ADD11R,0.798700X0.973900*%
%ADD12R,0.973900X0.798700*%
%ADD13R,0.600000X1.550000*%
%ADD14R,1.200000X1.800000*%
%ADD15R,0.533400X1.460500*%
%ADD16R,1.000000X1.100000*%
%ADD17R,0.644000X0.535100*%
%ADD18R,3.129200X1.799400*%
%ADD19R,0.700000X0.900000*%
%ADD20R,0.900000X0.700000*%
%ADD21R,0.535100X0.644000*%
%ADD22R,2.499359X1.899919*%
G36*
X100727Y939496D02*
X86973Y939496D01*
X86973Y961750D01*
X100727Y961750D01*
X100727Y939496D01*
G37*
G36*
X116227Y939496D02*
X102473Y939496D01*
X102473Y961750D01*
X116227Y961750D01*
X116227Y939496D01*
G37*
D10*
X161410Y190500D03*
X178410Y190500D03*
D11*
X58952Y215900D03*
X42648Y215900D03*
X58952Y190500D03*
X42648Y190500D03*
X58952Y139700D03*
X42648Y139700D03*
D12*
X-57150Y269978D03*
X-57150Y286282D03*
X-56432Y592352D03*
X-56432Y576048D03*
D13*
X-79300Y898900D03*
X-89300Y898900D03*
X-99300Y898900D03*
X-109300Y898900D03*
X-119300Y898900D03*
X-129300Y898900D03*
X-139300Y898900D03*
X-149300Y898900D03*
D14*
X-162300Y873650D03*
X-66300Y873650D03*
D13*
X-79300Y829230D03*
X-89300Y829230D03*
X-99300Y829230D03*
X-109300Y829230D03*
X-119300Y829230D03*
X-129300Y829230D03*
X-139300Y829230D03*
X-149300Y829230D03*
D14*
X-162300Y803980D03*
X-66300Y803980D03*
D13*
X-79300Y760470D03*
X-89300Y760470D03*
X-99300Y760470D03*
X-109300Y760470D03*
X-119300Y760470D03*
X-129300Y760470D03*
X-139300Y760470D03*
X-149300Y760470D03*
D14*
X-162300Y735220D03*
X-66300Y735220D03*
D13*
X-79300Y691890D03*
X-89300Y691890D03*
X-99300Y691890D03*
X-109300Y691890D03*
X-119300Y691890D03*
X-129300Y691890D03*
X-139300Y691890D03*
X-149300Y691890D03*
D14*
X-162300Y666640D03*
X-66300Y666640D03*
D10*
X161410Y215900D03*
X178410Y215900D03*
D11*
X42648Y368300D03*
X58952Y368300D03*
X42648Y342900D03*
X58952Y342900D03*
X-42648Y368300D03*
X-58952Y368300D03*
X-42648Y469900D03*
X-58952Y469900D03*
X42648Y317500D03*
X58952Y317500D03*
X-42648Y444500D03*
X-58952Y444500D03*
X42648Y622300D03*
X58952Y622300D03*
X58952Y165100D03*
X42648Y165100D03*
X148058Y88900D03*
X164362Y88900D03*
X164362Y469900D03*
X148058Y469900D03*
X164362Y495300D03*
X148058Y495300D03*
X166902Y576580D03*
X150598Y576580D03*
X-15978Y469900D03*
X-32282Y469900D03*
X-16833Y444500D03*
X-33137Y444500D03*
X15978Y317500D03*
X32282Y317500D03*
X40387Y584479D03*
X56691Y584479D03*
X15978Y622300D03*
X32282Y622300D03*
D15*
X120650Y977864D03*
X107950Y977864D03*
X95250Y977864D03*
X82550Y977864D03*
X82550Y923382D03*
X95250Y923382D03*
X107950Y923382D03*
X120650Y923382D03*
D16*
X91745Y996070D03*
X91745Y1013070D03*
X112175Y995890D03*
X112175Y1012890D03*
D17*
X71120Y988055D03*
X71120Y977905D03*
D18*
X175558Y946755D03*
X175558Y1011585D03*
D19*
X77320Y895021D03*
X90320Y895021D03*
D20*
X105410Y905660D03*
X105410Y892660D03*
D21*
X84321Y907525D03*
X94471Y907525D03*
D17*
X67310Y914405D03*
X67310Y924555D03*
D21*
X59685Y925625D03*
X49535Y925625D03*
D22*
X154843Y908842D03*
X154843Y867846D03*
D20*
X135890Y955780D03*
X135890Y942780D03*
D10*
X262500Y821690D03*
X245500Y821690D03*
X262500Y847090D03*
X245500Y847090D03*
D11*
X58952Y114300D03*
X42648Y114300D03*
M02*
