0
SECTION
2
HEADER
9
$INSUNITS
70
4
9
$ACADVER
1
AC1014
9
$HANDSEED
5
FFFF
0
ENDSEC
0
SECTION
2
TABLES
0
TABLE
2
VPORT
5
8
100
AcDbSymbolTable
0
ENDTAB
0
TABLE
2
LTYPE
5
5
100
AcDbSymbolTable
0
LTYPE
5
14
100
AcDbSymbolTableRecord
100
AcDbLinetypeTableRecord
2
BYBLOCK
70
0
0
LTYPE
5
15
100
AcDbSymbolTableRecord
100
AcDbLinetypeTableRecord
2
BYLAYER
70
0
0
ENDTAB
0
TABLE
2
LAYER
5
2
100
AcDbSymbolTable
70
2
0
LAYER
5
50
100
AcDbSymbolTableRecord
100
AcDbLayerTableRecord
2
0
70
0
6
CONTINUOUS
0
ENDTAB
0
TABLE
2
STYLE
5
3
100
AcDbSymbolTable
70
1
0
STYLE
5
11
100
AcDbSymbolTableRecord
100
AcDbTextStyleTableRecord
2
STANDARD
70
0
0
ENDTAB
0
TABLE
2
VIEW
5
6
100
AcDbSymbolTable
70
0
0
ENDTAB
0
TABLE
2
UCS
5
7
100
AcDbSymbolTable
70
0
0
ENDTAB
0
TABLE
2
APPID
5
9
100
AcDbSymbolTable
70
2
0
APPID
5
12
100
AcDbSymbolTableRecord
100
AcDbRegAppTableRecord
2
ACAD
70
0
0
ENDTAB
0
TABLE
2
DIMSTYLE
5
A
100
AcDbSymbolTable
70
1
0
ENDTAB
0
TABLE
2
BLOCK_RECORD
5
1
100
AcDbSymbolTable
70
1
0
BLOCK_RECORD
5
1F
100
AcDbSymbolTableRecord
100
AcDbBlockTableRecord
2
*MODEL_SPACE
0
BLOCK_RECORD
5
1B
100
AcDbSymbolTableRecord
100
AcDbBlockTableRecord
2
*PAPER_SPACE
0
ENDTAB
0
ENDSEC
0
SECTION
2
BLOCKS
0
BLOCK
5
20
100
AcDbEntity
100
AcDbBlockBegin
2
*MODEL_SPACE
0
ENDBLK
5
21
100
AcDbEntity
100
AcDbBlockEnd
0
BLOCK
5
1C
100
AcDbEntity
100
AcDbBlockBegin
2
*PAPER_SPACE
0
ENDBLK
5
1D
100
AcDbEntity
100
AcDbBlockEnd
0
ENDSEC
0
SECTION
2
ENTITIES
0
CIRCLE
5
100
100
AcDbEntity
8
0
100
AcDbCircle
10
13.249999999999995
20
-115.53909255304427
30
-3.5527136788005009e-14
40
1.25
210
2.1121279988447543e-31
220
-2.2204460492503131e-16
230
1
0
CIRCLE
5
101
100
AcDbEntity
8
0
100
AcDbCircle
10
-13.250000000000009
20
-115.5390925530443
30
0
40
1.25
210
2.1121279988447543e-31
220
-2.2204460492503131e-16
230
1
0
LWPOLYLINE
5
102
100
AcDbEntity
8
0
100
AcDbPolyline
90
8
70
1
43
0.0
10
-10.500000000000009
20
-122.78909255304427
10
-10.500000000000004
20
-110.53909255304426
42
-0.41421356237308982
10
-8.5000000000000107
20
-108.5390925530443
10
8.5000000000000391
20
-108.5390925530443
42
-0.41421356237309276
10
10.500000000000041
20
-110.53909255304427
10
10.500000000000034
20
-122.78909255304427
42
-0.41421356237309509
10
8.5000000000000409
20
-124.78909255304427
10
-8.5000000000000107
20
-124.78909255304428
42
-0.41421356237309775
0
CIRCLE
5
103
100
AcDbEntity
8
0
100
AcDbCircle
10
13.249999999999996
20
-134.03909255304424
30
-3.5527136788005009e-14
40
1.25
210
-2.2635848348030442e-31
220
-2.2204460492503131e-16
230
1
0
CIRCLE
5
104
100
AcDbEntity
8
0
100
AcDbCircle
10
-13.250000000000009
20
-134.03909255304427
30
-3.5527136788005009e-14
40
1.25
210
-2.2635848348030442e-31
220
-2.2204460492503131e-16
230
1
0
CIRCLE
5
105
100
AcDbEntity
8
0
100
AcDbCircle
10
70
20
-118.7890925530443
30
0
40
1.2000000000000013
210
2.9168395206495197e-31
220
-1.6653345369377348e-16
230
1
0
CIRCLE
5
106
100
AcDbEntity
8
0
100
AcDbCircle
10
93.000000000001194
20
-155.97285873711709
30
0
40
2.2499999999999969
210
-1.9721522630525365e-31
220
-1.1102230246251565e-16
230
1
0
CIRCLE
5
107
100
AcDbEntity
8
0
100
AcDbCircle
10
93.000000000000966
20
-89.605326368970111
30
0
40
2.2499999999999969
210
-9.8607613152626476e-32
220
-1.1102230246251565e-16
230
1
0
CIRCLE
5
108
100
AcDbEntity
8
0
100
AcDbCircle
10
-92.99999999999882
20
-155.97285873711769
30
-3.5527136788005009e-14
40
2.2499999999999969
210
-9.8607613152626476e-32
220
-1.1102230246251565e-16
230
1
0
CIRCLE
5
109
100
AcDbEntity
8
0
100
AcDbCircle
10
-70
20
-124.7890925530443
30
0
40
7.9999999999999982
210
-3.4512664603419131e-31
220
-1.1102230246251565e-16
230
1
0
CIRCLE
5
110
100
AcDbEntity
8
0
100
AcDbCircle
10
-92.999999999999048
20
-89.605326368970779
30
0
40
2.2499999999999969
210
-1.9721522630525365e-31
220
-1.1102230246251565e-16
230
1
0
CIRCLE
5
111
100
AcDbEntity
8
0
100
AcDbCircle
10
70
20
-124.7890925530443
30
-3.5527136788005009e-14
40
3.3999999999999986
210
-9.8607613152626421e-32
220
-2.7755575615628914e-16
230
1
0
LWPOLYLINE
5
112
100
AcDbEntity
8
0
100
AcDbPolyline
90
20
70
1
43
0.0
10
-71.66025403784343
20
-84.605326368970637
10
-95.878679656439431
20
-84.605326368970708
42
0.31783724519577872
10
-98.707106781185615
20
-86.605326368970751
10
-124.82842712474499
20
-160.48757736287925
42
0.085164233174750983
10
-124.99999999999879
20
-161.48757736287919
10
-124.99999999999879
20
-161.9728587371178
42
0.41421356237308465
10
-121.99999999999881
20
-164.97285873711786
10
121.99999999999933
20
-164.97285873711732
42
0.41421356237307944
10
124.99999999999932
20
-161.97285873711738
10
124.99999999999935
20
-161.48757736287902
42
0.085164233174747805
10
124.82842712474557
20
-160.48757736287905
10
98.707106781187491
20
-86.605326368970182
42
0.31783724519578849
10
95.878679656441278
20
-84.605326368970083
10
71.660254037845434
20
-84.605326368970196
42
-0.26794919243111831
10
69.062177826492146
20
-83.105326368970239
10
63.866025403785329
20
-74.105326368970438
42
0.26794919243111809
10
61.267949192432056
20
-72.605326368970466
10
-61.267949192430244
20
-72.605326368970807
42
0.26794919243112159
10
-63.866025403783539
20
-74.105326368970793
10
-69.062177826490156
20
-83.105326368970708
42
-0.26794919243111498
0
ENDSEC
0
SECTION
2
OBJECTS
0
DICTIONARY
5
C
100
AcDbDictionary
3
ACAD_GROUP
350
D
3
ACAD_MLINESTYLE
350
17
0
DICTIONARY
5
D
100
AcDbDictionary
0
DICTIONARY
5
1A
330
C
100
AcDbDictionary
0
DICTIONARY
5
17
100
AcDbDictionary
0
ENDSEC
0
EOF
