0
SECTION
2
HEADER
9
$INSUNITS
70
4
9
$ACADVER
1
AC1014
9
$HANDSEED
5
FFFF
0
ENDSEC
0
SECTION
2
TABLES
0
TABLE
2
VPORT
5
8
100
AcDbSymbolTable
0
ENDTAB
0
TABLE
2
LTYPE
5
5
100
AcDbSymbolTable
0
LTYPE
5
14
100
AcDbSymbolTableRecord
100
AcDbLinetypeTableRecord
2
BYBLOCK
70
0
0
LTYPE
5
15
100
AcDbSymbolTableRecord
100
AcDbLinetypeTableRecord
2
BYLAYER
70
0
0
ENDTAB
0
TABLE
2
LAYER
5
2
100
AcDbSymbolTable
70
2
0
LAYER
5
50
100
AcDbSymbolTableRecord
100
AcDbLayerTableRecord
2
0
70
0
6
CONTINUOUS
0
ENDTAB
0
TABLE
2
STYLE
5
3
100
AcDbSymbolTable
70
1
0
STYLE
5
11
100
AcDbSymbolTableRecord
100
AcDbTextStyleTableRecord
2
STANDARD
70
0
0
ENDTAB
0
TABLE
2
VIEW
5
6
100
AcDbSymbolTable
70
0
0
ENDTAB
0
TABLE
2
UCS
5
7
100
AcDbSymbolTable
70
0
0
ENDTAB
0
TABLE
2
APPID
5
9
100
AcDbSymbolTable
70
2
0
APPID
5
12
100
AcDbSymbolTableRecord
100
AcDbRegAppTableRecord
2
ACAD
70
0
0
ENDTAB
0
TABLE
2
DIMSTYLE
5
A
100
AcDbSymbolTable
70
1
0
ENDTAB
0
TABLE
2
BLOCK_RECORD
5
1
100
AcDbSymbolTable
70
1
0
BLOCK_RECORD
5
1F
100
AcDbSymbolTableRecord
100
AcDbBlockTableRecord
2
*MODEL_SPACE
0
BLOCK_RECORD
5
1B
100
AcDbSymbolTableRecord
100
AcDbBlockTableRecord
2
*PAPER_SPACE
0
ENDTAB
0
ENDSEC
0
SECTION
2
BLOCKS
0
BLOCK
5
20
100
AcDbEntity
100
AcDbBlockBegin
2
*MODEL_SPACE
0
ENDBLK
5
21
100
AcDbEntity
100
AcDbBlockEnd
0
BLOCK
5
1C
100
AcDbEntity
100
AcDbBlockBegin
2
*PAPER_SPACE
0
ENDBLK
5
1D
100
AcDbEntity
100
AcDbBlockEnd
0
ENDSEC
0
SECTION
2
ENTITIES
0
CIRCLE
5
100
100
AcDbEntity
8
0
100
AcDbCircle
10
70
20
-116.7890925530443
30
-3.5527136788005009e-14
40
1.25
210
-1.4766240425285856e-31
220
-2.2204460492503131e-16
230
1
0
CIRCLE
5
101
100
AcDbEntity
8
0
100
AcDbCircle
10
34
20
-144.78909255304427
30
0
40
7.9999999999999982
210
4.6244107519450557e-31
220
-1.1102230246251565e-16
230
1
0
CIRCLE
5
102
100
AcDbEntity
8
0
100
AcDbCircle
10
-34
20
-104.7890925530443
30
0
40
7.9999999999999982
210
-6.3568476652459225e-32
220
-1.1102230246251565e-16
230
1
0
CIRCLE
5
103
100
AcDbEntity
8
0
100
AcDbCircle
10
70
20
-124.78909255304424
30
-3.5527136788005009e-14
40
3.3999999999999986
210
2.4404672306890153e-31
220
-2.7755575615628914e-16
230
1
0
CIRCLE
5
104
100
AcDbEntity
8
0
100
AcDbCircle
10
-70
20
-124.78909255304421
30
0
40
7.9999999999999982
210
-6.3568476652459225e-32
220
-1.1102230246251565e-16
230
1
0
CIRCLE
5
105
100
AcDbEntity
8
0
100
AcDbCircle
10
-34
20
-144.78909255304424
30
-3.5527136788005009e-14
40
7.9999999999999982
210
-6.3568476652459225e-32
220
-1.1102230246251565e-16
230
1
0
CIRCLE
5
106
100
AcDbEntity
8
0
100
AcDbCircle
10
34
20
-104.78909255304424
30
-3.5527136788005009e-14
40
7.9999999999999982
210
4.6244107519450557e-31
220
-1.1102230246251565e-16
230
1
0
CIRCLE
5
107
100
AcDbEntity
8
0
100
AcDbCircle
10
1.1624218609629745e-12
20
-158.78909255304373
30
-3.5527136788005009e-14
40
1.25
210
-1.9721522630525002e-31
220
-2.2204460492503131e-16
230
1
0
CIRCLE
5
108
100
AcDbEntity
8
0
100
AcDbCircle
10
-57.999999999999091
20
-79.605326368970736
30
0
40
1.25
210
-1.9721522630525002e-31
220
-2.2204460492503131e-16
230
1
0
CIRCLE
5
109
100
AcDbEntity
8
0
100
AcDbCircle
10
57.999999999999091
20
-79.605326368970722
30
-3.5527136788005009e-14
40
1.25
210
-1.9721522630525002e-31
220
-2.2204460492503131e-16
230
1
0
CIRCLE
5
110
100
AcDbEntity
8
0
100
AcDbCircle
10
5.0487097934144756e-28
20
-90.789092553043886
30
-3.5527136788005009e-14
40
1.25
210
-1.9721522630525002e-31
220
-2.2204460492503131e-16
230
1
0
LWPOLYLINE
5
111
100
AcDbEntity
8
0
100
AcDbPolyline
90
20
70
1
43
0.0
10
63.866025403785329
20
-74.105326368970438
42
0.26794919243112542
10
61.267949192432035
20
-72.605326368970495
10
-61.267949192430244
20
-72.605326368970751
42
0.26794919243112014
10
-63.866025403783524
20
-74.105326368970751
10
-69.062177826490114
20
-83.10532636897068
42
-0.26794919243112236
10
-71.66025403784343
20
-84.605326368970694
10
-95.878679656439431
20
-84.605326368970694
42
0.31783724519578321
10
-98.707106781185573
20
-86.605326368970736
10
-124.82842712474499
20
-160.48757736287916
42
0.085164233174768428
10
-124.99999999999879
20
-161.48757736287916
10
-124.99999999999879
20
-161.97285873711778
42
0.41421356237307771
10
-121.99999999999876
20
-164.97285873711769
10
121.99999999999937
20
-164.97285873711729
42
0.41421356237307771
10
124.99999999999935
20
-161.97285873711741
10
124.99999999999935
20
-161.48757736287902
42
0.085164233174764167
10
124.82842712474556
20
-160.48757736287897
10
98.707106781187491
20
-86.60532636897014
42
0.31783724519578693
10
95.878679656441278
20
-84.605326368970069
10
71.660254037845434
20
-84.605326368970196
42
-0.26794919243111853
10
69.062177826492132
20
-83.105326368970225
0
CIRCLE
5
112
100
AcDbEntity
8
0
100
AcDbCircle
10
93.000000000000966
20
-89.605326368970069
30
-7.1054273576010019e-14
40
2.2500000000000004
210
-5.9164567891576078e-31
220
-1.6653345369377348e-16
230
1
0
CIRCLE
5
113
100
AcDbEntity
8
0
100
AcDbCircle
10
-92.999999999999048
20
-89.605326368970765
30
-3.5527136788005009e-14
40
2.2500000000000004
210
-5.9164567891576078e-31
220
-1.6653345369377348e-16
230
1
0
CIRCLE
5
114
100
AcDbEntity
8
0
100
AcDbCircle
10
-92.99999999999882
20
-155.97285873711769
30
0
40
2.2500000000000004
210
-5.9164567891576078e-31
220
-1.6653345369377348e-16
230
1
0
CIRCLE
5
115
100
AcDbEntity
8
0
100
AcDbCircle
10
93.000000000001194
20
-155.97285873711704
30
0
40
2.2500000000000004
210
-5.9164567891576078e-31
220
-1.6653345369377348e-16
230
1
0
LWPOLYLINE
5
116
100
AcDbEntity
8
0
100
AcDbPolyline
90
4
70
1
43
0.0
10
-2.9999999999988103
20
-152.78909255304387
42
0.99999999999999989
10
3.0000000000011653
20
-152.78909255304382
10
3.0000000000009672
20
-96.78909255304383
42
0.99999999999999989
10
-2.9999999999990115
20
-96.78909255304383
0
LWPOLYLINE
5
117
100
AcDbEntity
8
0
100
AcDbPolyline
90
4
70
1
43
0.0
10
-51.999999999999105
20
-76.605326368970708
42
0.99999999999999989
10
-51.999999999999091
20
-82.60532636897068
10
52.000000000000938
20
-82.605326368970339
42
0.99999999999999989
10
52.000000000000917
20
-76.605326368970367
0
CIRCLE
5
118
100
AcDbEntity
8
0
100
AcDbCircle
10
70
20
-124.78909255304424
30
-3.5527136788005009e-14
40
14.000000000000002
210
0
220
0
230
1
0
LINE
5
119
100
AcDbEntity
8
0
100
AcDbLine
10
71.699999999999889
20
-127.73357892591142
30
-3.6396741742109513e-14
11
77.000000000000057
21
-136.91344820602635
31
-3.5527136788005009e-14
0
LINE
5
120
100
AcDbEntity
8
0
100
AcDbLine
10
68.299999999999969
20
-127.73357892591135
30
-3.6223848953658124e-14
11
62.999999999999936
21
-136.91344820602635
31
-3.5527136788005009e-14
0
LINE
5
121
100
AcDbEntity
8
0
100
AcDbLine
10
70
20
-124.78909255304424
30
-3.5527136788005009e-14
11
70
21
-138.78909255304424
31
-3.5527136788005009e-14
0
CIRCLE
5
122
100
AcDbEntity
8
0
100
AcDbCircle
10
70
20
-124.78909255304424
30
-3.5527136788005009e-14
40
11
210
0
220
0
230
1
0
LINE
5
123
100
AcDbEntity
8
0
100
AcDbLine
10
70
20
-121.38909255304425
30
-3.4583451956438551e-14
11
70
21
-113.78909255304424
31
-3.5527136788005009e-14
0
LINE
5
124
100
AcDbEntity
8
0
100
AcDbLine
10
68.299999999999997
20
-121.84460618017715
30
-3.4712474740377376e-14
11
64.500000000000014
21
-115.26281311141543
31
-3.5527136788005009e-14
0
LINE
5
125
100
AcDbEntity
8
0
100
AcDbLine
10
67.05551362713291
20
-123.08909255304427
30
-3.4712474740377376e-14
11
60.473720558371163
21
-119.28909255304427
31
-3.5527136788005009e-14
0
LINE
5
126
100
AcDbEntity
8
0
100
AcDbLine
10
67.055513627132925
20
-126.48909255304424
30
-3.4712474740377376e-14
11
60.473720558371163
21
-130.28909255304421
31
-3.5527136788005009e-14
0
LINE
5
127
100
AcDbEntity
8
0
100
AcDbLine
10
58.999999999999993
20
-124.78909255304423
30
-3.5527136788005009e-14
11
66.599999999999994
21
-124.78909255304424
31
-3.4712474740377376e-14
0
LINE
5
128
100
AcDbEntity
8
0
100
AcDbLine
10
71.700000000000003
20
-121.84460618017717
30
-3.470579436345187e-14
11
75.500000000000028
21
-115.26281311141545
31
-3.5527136788005009e-14
0
LINE
5
129
100
AcDbEntity
8
0
100
AcDbLine
10
72.94448637286709
20
-123.08909255304425
30
-3.4969548650066011e-14
11
79.526279441628844
21
-119.28909255304426
31
-3.5527136788005009e-14
0
LINE
5
130
100
AcDbEntity
8
0
100
AcDbLine
10
73.400000000000006
20
-124.78909255304428
30
-3.5360142888600477e-14
11
81
21
-124.78909255304428
31
-3.5527136788005009e-14
0
LINE
5
131
100
AcDbEntity
8
0
100
AcDbLine
10
72.94448637286709
20
-126.48909255304424
30
-3.5844988720949384e-14
11
79.52627944162883
21
-130.28909255304424
31
-3.5527136788005009e-14
0
LWPOLYLINE
5
132
100
AcDbEntity
8
0
100
AcDbPolyline
90
4
70
1
43
0.0
10
-20.999999999993019
20
-91.789092553033456
10
-47.000000000002338
20
-91.789092553033456
10
-47.000000000002316
20
-157.78909255303347
10
-21.00000000000232
20
-157.78909255303347
0
LINE
5
133
100
AcDbEntity
8
0
100
AcDbLine
10
-20.999999999993019
20
-91.789092553033456
30
0
11
-47.000000000002316
21
-157.78909255303347
31
0
0
LINE
5
134
100
AcDbEntity
8
0
100
AcDbLine
10
-47.000000000002338
20
-91.789092553033456
30
0
11
-21.00000000000232
21
-157.78909255303347
31
0
0
LWPOLYLINE
5
135
100
AcDbEntity
8
0
100
AcDbPolyline
90
4
70
1
43
0.0
10
20.999999999989193
20
-91.789092553033456
10
86.9999999999892
20
-91.789092553033456
10
86.9999999999892
20
-157.78909255303347
10
20.999999999989193
20
-157.78909255303347
0
LINE
5
136
100
AcDbEntity
8
0
100
AcDbLine
10
-34
20
-104.7890925530443
30
0
11
-47.000000000002338
21
-91.789092553033456
31
0
0
LINE
5
137
100
AcDbEntity
8
0
100
AcDbLine
10
20.999999999989193
20
-91.789092553033456
30
0
11
34
21
-104.78909255304424
31
-3.5527136788005009e-14
0
LINE
5
138
100
AcDbEntity
8
0
100
AcDbLine
10
5.4000000000004986
20
-124.78909255304404
30
0
11
9.4000000000004995
21
-124.78909255304403
31
0
0
LINE
5
139
100
AcDbEntity
8
0
100
AcDbLine
10
-5.3999999999993378
20
-124.78909255304409
30
0
11
-9.399999999999336
21
-124.7890925530441
31
0
0
LINE
5
140
100
AcDbEntity
8
0
100
AcDbLine
10
-4.0000000000001608
20
-90.789092553043886
30
-3.5527136788005009e-14
11
-3.9999999999985136
21
-158.78909255304382
31
-4.4408920985006262e-14
0
LINE
5
141
100
AcDbEntity
8
0
100
AcDbLine
10
4.0000000000008384
20
-158.7890925530437
30
0
11
4.0000000000001608
21
-90.789092553043957
31
1.3322676295501878e-14
0
ENDSEC
0
SECTION
2
OBJECTS
0
DICTIONARY
5
C
100
AcDbDictionary
3
ACAD_GROUP
350
D
3
ACAD_MLINESTYLE
350
17
0
DICTIONARY
5
D
100
AcDbDictionary
0
DICTIONARY
5
1A
330
C
100
AcDbDictionary
0
DICTIONARY
5
17
100
AcDbDictionary
0
ENDSEC
0
EOF
