G04 EAGLE Gerber RS-274X export*
G75*
%MOMM*%
%FSLAX34Y34*%
%LPD*%
%INSolderpaste Top*%
%IPPOS*%
%AMOC8*
5,1,8,0,0,1.08239X$1,22.5*%
G01*
G04 Define Apertures*
%ADD10R,1.400000X3.000000*%
%ADD11R,0.920900X0.970200*%
%ADD12R,0.798700X0.973900*%
%ADD13R,0.973900X0.798700*%
%ADD14R,1.460500X0.533400*%
%ADD15R,0.535100X0.644000*%
%ADD16R,1.799400X3.129200*%
%ADD17R,0.970200X0.920900*%
%ADD18R,0.560000X0.629100*%
%ADD19R,0.644000X0.535100*%
%ADD20R,1.899919X2.499359*%
%ADD21R,1.465300X1.164600*%
%ADD22R,3.000000X1.400000*%
%ADD23R,0.600000X1.700000*%
%ADD24R,1.000000X2.800000*%
G36*
X-263371Y837656D02*
X-263371Y823902D01*
X-285625Y823902D01*
X-285625Y837656D01*
X-263371Y837656D01*
G37*
G36*
X-263371Y853156D02*
X-263371Y839402D01*
X-285625Y839402D01*
X-285625Y853156D01*
X-263371Y853156D01*
G37*
D10*
X-177800Y659000D03*
X-177800Y611000D03*
X-177800Y176400D03*
X-177800Y128400D03*
D11*
X187564Y190500D03*
X203056Y190500D03*
D12*
X97052Y215900D03*
X80748Y215900D03*
X97052Y190500D03*
X80748Y190500D03*
X97052Y139700D03*
X80748Y139700D03*
D13*
X-19050Y269978D03*
X-19050Y286282D03*
D11*
X187564Y215900D03*
X203056Y215900D03*
D12*
X80748Y368300D03*
X97052Y368300D03*
X80748Y342900D03*
X97052Y342900D03*
X-4548Y368300D03*
X-20852Y368300D03*
X80541Y571500D03*
X96845Y571500D03*
X202462Y317500D03*
X186158Y317500D03*
X198652Y596900D03*
X182348Y596900D03*
X80748Y627380D03*
X97052Y627380D03*
X97052Y165100D03*
X80748Y165100D03*
X202462Y469900D03*
X186158Y469900D03*
X201192Y495300D03*
X184888Y495300D03*
X199922Y546100D03*
X183618Y546100D03*
X199922Y571500D03*
X183618Y571500D03*
X81053Y595630D03*
X97357Y595630D03*
X199922Y292100D03*
X183618Y292100D03*
X78487Y546379D03*
X94791Y546379D03*
X80748Y610870D03*
X97052Y610870D03*
D14*
X-301739Y857579D03*
X-301739Y844879D03*
X-301739Y832179D03*
X-301739Y819479D03*
X-247257Y819479D03*
X-247257Y832179D03*
X-247257Y844879D03*
X-247257Y857579D03*
D11*
X-320699Y828673D03*
X-336191Y828673D03*
X-320519Y849103D03*
X-336011Y849103D03*
D15*
X-311930Y808049D03*
X-301780Y808049D03*
D16*
X-283330Y912487D03*
X-348160Y912487D03*
D17*
X-216356Y813003D03*
X-216356Y828495D03*
D18*
X-227881Y846149D03*
X-218189Y846149D03*
D13*
X-231400Y818173D03*
X-231400Y834477D03*
D12*
X-236473Y801699D03*
X-252777Y801699D03*
D19*
X-245690Y788994D03*
X-245690Y778844D03*
D20*
X-245417Y891772D03*
X-204422Y891772D03*
D18*
X-276731Y870279D03*
X-267039Y870279D03*
D21*
X-234465Y999955D03*
X-234465Y1017463D03*
X-254785Y999955D03*
X-254785Y1017463D03*
D22*
X-327045Y989965D03*
X-279045Y989965D03*
D12*
X97052Y114300D03*
X80748Y114300D03*
D23*
X178970Y957580D03*
X191470Y957580D03*
X203970Y957580D03*
X216470Y957580D03*
X166470Y957580D03*
X153970Y957580D03*
X141470Y957580D03*
X128970Y957580D03*
D24*
X234970Y991080D03*
X110470Y991080D03*
D23*
X178970Y866140D03*
X191470Y866140D03*
X203970Y866140D03*
X216470Y866140D03*
X166470Y866140D03*
X153970Y866140D03*
X141470Y866140D03*
X128970Y866140D03*
D24*
X234970Y899640D03*
X110470Y899640D03*
D23*
X178970Y774700D03*
X191470Y774700D03*
X203970Y774700D03*
X216470Y774700D03*
X166470Y774700D03*
X153970Y774700D03*
X141470Y774700D03*
X128970Y774700D03*
D24*
X234970Y808200D03*
X110470Y808200D03*
D23*
X178970Y683260D03*
X191470Y683260D03*
X203970Y683260D03*
X216470Y683260D03*
X166470Y683260D03*
X153970Y683260D03*
X141470Y683260D03*
X128970Y683260D03*
D24*
X234970Y716760D03*
X110470Y716760D03*
D10*
X-177800Y405000D03*
X-177800Y357000D03*
D18*
X88666Y963930D03*
X78974Y963930D03*
X89936Y872490D03*
X80244Y872490D03*
X89936Y777240D03*
X80244Y777240D03*
X88666Y689610D03*
X78974Y689610D03*
D12*
X97052Y241300D03*
X80748Y241300D03*
D11*
X187834Y241300D03*
X203326Y241300D03*
M02*
