G04 EAGLE Gerber RS-274X export*
G75*
%MOMM*%
%FSLAX34Y34*%
%LPD*%
%INSoldermask Top*%
%IPPOS*%
%AMOC8*
5,1,8,0,0,1.08239X$1,22.5*%
G01*
G04 Define Apertures*
%ADD10R,1.603200X3.203200*%
%ADD11R,1.124100X1.173400*%
%ADD12R,2.235200X2.235200*%
%ADD13C,2.235200*%
%ADD14C,2.082800*%
%ADD15R,1.001900X1.177100*%
%ADD16R,1.177100X1.001900*%
%ADD17C,1.727200*%
%ADD18C,3.505200*%
%ADD19R,1.663700X0.736600*%
%ADD20R,2.603200X3.303200*%
%ADD21R,0.738300X0.847200*%
%ADD22R,2.002600X3.332400*%
%ADD23R,1.173400X1.124100*%
%ADD24R,0.763200X0.832300*%
%ADD25R,0.847200X0.738300*%
%ADD26R,2.103119X2.702559*%
%ADD27R,1.668500X1.367800*%
%ADD28R,3.203200X1.603200*%
%ADD29R,0.803200X1.903200*%
%ADD30R,1.203200X3.003200*%
%ADD31R,0.832300X0.763200*%
%ADD32R,1.711200X1.711200*%
%ADD33C,1.711200*%
%ADD34C,4.419600*%
%ADD35C,0.959600*%
D10*
X-177800Y659000D03*
X-177800Y611000D03*
X-177800Y176400D03*
X-177800Y128400D03*
D11*
X187564Y190500D03*
X203056Y190500D03*
D12*
X-306070Y563920D03*
D13*
X-306070Y513920D03*
D14*
X243151Y625818D03*
X243151Y600418D03*
X243151Y575018D03*
X243151Y549618D03*
X243151Y524218D03*
X243151Y498818D03*
X243151Y473418D03*
X243151Y448018D03*
D12*
X-306070Y80480D03*
D13*
X-306070Y30480D03*
D15*
X97052Y215900D03*
X80748Y215900D03*
X97052Y190500D03*
X80748Y190500D03*
X97052Y139700D03*
X80748Y139700D03*
D16*
X-19050Y269978D03*
X-19050Y286282D03*
D17*
X-53030Y961390D03*
X-197810Y986790D03*
D18*
X-127960Y1027430D03*
X-127960Y895350D03*
D17*
X-197810Y935990D03*
X-53030Y986790D03*
X-53030Y935990D03*
D11*
X187564Y215900D03*
X203056Y215900D03*
D15*
X80748Y368300D03*
X97052Y368300D03*
X80748Y342900D03*
X97052Y342900D03*
X-4548Y368300D03*
X-20852Y368300D03*
X80541Y571500D03*
X96845Y571500D03*
X202462Y317500D03*
X186158Y317500D03*
X198652Y596900D03*
X182348Y596900D03*
X80748Y627380D03*
X97052Y627380D03*
X97052Y165100D03*
X80748Y165100D03*
X202462Y469900D03*
X186158Y469900D03*
X201192Y495300D03*
X184888Y495300D03*
X199922Y546100D03*
X183618Y546100D03*
X199922Y571500D03*
X183618Y571500D03*
X81053Y595630D03*
X97357Y595630D03*
X199922Y292100D03*
X183618Y292100D03*
X78487Y546379D03*
X94791Y546379D03*
X80748Y610870D03*
X97052Y610870D03*
D19*
X-301739Y857579D03*
X-301739Y844879D03*
X-301739Y832179D03*
X-301739Y819479D03*
X-247257Y819479D03*
X-247257Y832179D03*
X-247257Y844879D03*
X-247257Y857579D03*
D20*
X-274498Y838529D03*
D11*
X-320699Y828673D03*
X-336191Y828673D03*
X-320519Y849103D03*
X-336011Y849103D03*
D21*
X-311930Y808049D03*
X-301780Y808049D03*
D22*
X-283330Y912487D03*
X-348160Y912487D03*
D23*
X-216356Y813003D03*
X-216356Y828495D03*
D24*
X-227881Y846149D03*
X-218189Y846149D03*
D16*
X-231400Y818173D03*
X-231400Y834477D03*
D15*
X-236473Y801699D03*
X-252777Y801699D03*
D25*
X-245690Y788994D03*
X-245690Y778844D03*
D26*
X-245417Y891772D03*
X-204422Y891772D03*
D24*
X-276731Y870279D03*
X-267039Y870279D03*
D27*
X-234465Y999955D03*
X-234465Y1017463D03*
X-254785Y999955D03*
X-254785Y1017463D03*
D28*
X-327045Y989965D03*
X-279045Y989965D03*
D15*
X97052Y114300D03*
X80748Y114300D03*
D14*
X91440Y1022350D03*
X116840Y1022350D03*
X142240Y1022350D03*
X167640Y1022350D03*
X193040Y1022350D03*
X218440Y1022350D03*
X243840Y1022350D03*
X269240Y1022350D03*
X91440Y930910D03*
X116840Y930910D03*
X142240Y930910D03*
X167640Y930910D03*
X193040Y930910D03*
X218440Y930910D03*
X243840Y930910D03*
X269240Y930910D03*
X91440Y839470D03*
X116840Y839470D03*
X142240Y839470D03*
X167640Y839470D03*
X193040Y839470D03*
X218440Y839470D03*
X243840Y839470D03*
X269240Y839470D03*
X90969Y748030D03*
X116369Y748030D03*
X141769Y748030D03*
X167169Y748030D03*
X192569Y748030D03*
X217969Y748030D03*
X243369Y748030D03*
X268769Y748030D03*
D29*
X178970Y957580D03*
X191470Y957580D03*
X203970Y957580D03*
X216470Y957580D03*
X166470Y957580D03*
X153970Y957580D03*
X141470Y957580D03*
X128970Y957580D03*
D30*
X234970Y991080D03*
X110470Y991080D03*
D29*
X178970Y866140D03*
X191470Y866140D03*
X203970Y866140D03*
X216470Y866140D03*
X166470Y866140D03*
X153970Y866140D03*
X141470Y866140D03*
X128970Y866140D03*
D30*
X234970Y899640D03*
X110470Y899640D03*
D29*
X178970Y774700D03*
X191470Y774700D03*
X203970Y774700D03*
X216470Y774700D03*
X166470Y774700D03*
X153970Y774700D03*
X141470Y774700D03*
X128970Y774700D03*
D30*
X234970Y808200D03*
X110470Y808200D03*
D29*
X178970Y683260D03*
X191470Y683260D03*
X203970Y683260D03*
X216470Y683260D03*
X166470Y683260D03*
X153970Y683260D03*
X141470Y683260D03*
X128970Y683260D03*
D30*
X234970Y716760D03*
X110470Y716760D03*
D10*
X-177800Y405000D03*
X-177800Y357000D03*
D24*
X88666Y963930D03*
X78974Y963930D03*
X89936Y872490D03*
X80244Y872490D03*
X89936Y777240D03*
X80244Y777240D03*
X88666Y689610D03*
X78974Y689610D03*
D31*
X67310Y357104D03*
X67310Y366796D03*
D24*
X68814Y326390D03*
X78506Y326390D03*
D31*
X-3208Y343134D03*
X-3208Y352826D03*
X67310Y559768D03*
X67310Y569460D03*
D24*
X190894Y332204D03*
X200586Y332204D03*
X186537Y621030D03*
X196229Y621030D03*
D31*
X68580Y614914D03*
X68580Y624606D03*
D24*
X191470Y482600D03*
X201162Y482600D03*
X189464Y510540D03*
X199156Y510540D03*
X188194Y530860D03*
X197886Y530860D03*
D32*
X-292100Y228600D03*
D33*
X-292100Y203200D03*
X-292100Y177800D03*
X-292100Y152400D03*
D32*
X-292100Y431800D03*
D33*
X-292100Y406400D03*
X-292100Y381000D03*
X-292100Y355600D03*
D32*
X-292100Y711200D03*
D33*
X-292100Y685800D03*
X-292100Y660400D03*
X-292100Y635000D03*
D14*
X236220Y153670D03*
X236220Y179070D03*
X236220Y204470D03*
X236220Y229870D03*
X236220Y255270D03*
X236220Y280670D03*
X236220Y306070D03*
X236220Y331470D03*
X236220Y356870D03*
X236220Y382270D03*
D15*
X97052Y241300D03*
X80748Y241300D03*
D11*
X187834Y241300D03*
X203326Y241300D03*
D14*
X-38100Y596900D03*
X-38100Y571500D03*
X-38100Y546100D03*
X-38100Y520700D03*
X-38100Y495300D03*
X-38100Y469900D03*
X-38100Y444500D03*
X-38100Y419100D03*
X-38100Y393700D03*
X-38100Y368300D03*
X-38100Y342900D03*
X-38100Y317500D03*
X-38100Y292100D03*
X-38100Y266700D03*
X-38100Y241300D03*
X-38100Y215900D03*
X-38100Y190500D03*
X-38100Y165100D03*
X-38100Y139700D03*
X-38100Y114300D03*
X-38100Y88900D03*
X-38100Y63500D03*
X-38100Y38100D03*
X-38100Y622300D03*
X114519Y63754D03*
X114519Y89154D03*
X114519Y114554D03*
X114519Y139954D03*
X114519Y165354D03*
X114519Y190754D03*
X114519Y216154D03*
X114519Y241554D03*
X114519Y266954D03*
X114519Y292354D03*
X114519Y317754D03*
X114519Y343154D03*
X114519Y368554D03*
X114519Y393954D03*
X114519Y419354D03*
X114519Y444754D03*
X114519Y470154D03*
X114519Y495554D03*
X114519Y520954D03*
X114519Y546354D03*
X114519Y571754D03*
X114519Y597154D03*
X114519Y622554D03*
X114519Y38354D03*
X139700Y63500D03*
X139700Y88900D03*
X139700Y114300D03*
X139700Y139700D03*
X139700Y165100D03*
X139700Y190500D03*
X139700Y215900D03*
X139700Y241300D03*
X139700Y266700D03*
X139700Y292100D03*
X139700Y317500D03*
X139700Y342900D03*
X139700Y368300D03*
X139700Y393700D03*
X139700Y419100D03*
X139700Y444500D03*
X139700Y469900D03*
X139700Y495300D03*
X139700Y520700D03*
X139700Y546100D03*
X139700Y571500D03*
X139700Y596900D03*
X139700Y622300D03*
X139700Y38100D03*
X165100Y63500D03*
X165100Y88900D03*
X165100Y114300D03*
X165100Y139700D03*
X165100Y165100D03*
X165100Y190500D03*
X165100Y215900D03*
X165100Y241300D03*
X165100Y266700D03*
X165100Y292100D03*
X165100Y317500D03*
X165100Y342900D03*
X165100Y368300D03*
X165100Y393700D03*
X165100Y419100D03*
X165100Y444500D03*
X165100Y469900D03*
X165100Y495300D03*
X165100Y520700D03*
X165100Y546100D03*
X165100Y571500D03*
X165100Y596900D03*
X165100Y622300D03*
X165100Y38100D03*
X-63500Y596900D03*
X-63500Y571500D03*
X-63500Y546100D03*
X-63500Y520700D03*
X-63500Y495300D03*
X-63500Y469900D03*
X-63500Y444500D03*
X-63500Y419100D03*
X-63500Y393700D03*
X-63500Y368300D03*
X-63500Y342900D03*
X-63500Y317500D03*
X-63500Y292100D03*
X-63500Y266700D03*
X-63500Y241300D03*
X-63500Y215900D03*
X-63500Y190500D03*
X-63500Y165100D03*
X-63500Y139700D03*
X-63500Y114300D03*
X-63500Y88900D03*
X-63500Y63500D03*
X-63500Y38100D03*
X-63500Y622300D03*
X-88900Y596900D03*
X-88900Y571500D03*
X-88900Y546100D03*
X-88900Y520700D03*
X-88900Y495300D03*
X-88900Y469900D03*
X-88900Y444500D03*
X-88900Y419100D03*
X-88900Y393700D03*
X-88900Y368300D03*
X-88900Y342900D03*
X-88900Y317500D03*
X-88900Y292100D03*
X-88900Y266700D03*
X-88900Y241300D03*
X-88900Y215900D03*
X-88900Y190500D03*
X-88900Y165100D03*
X-88900Y139700D03*
X-88900Y114300D03*
X-88900Y88900D03*
X-88900Y63500D03*
X-88900Y38100D03*
X-88900Y622300D03*
X-241300Y266700D03*
X-241300Y241300D03*
X-241300Y215900D03*
X-241300Y190500D03*
X-241300Y165100D03*
X-241300Y139700D03*
X-241300Y114300D03*
X-241300Y88900D03*
X-114300Y88900D03*
X-114300Y114300D03*
X-114300Y139700D03*
X-114300Y165100D03*
X-114300Y190500D03*
X-114300Y215900D03*
X-114300Y241300D03*
X-114300Y266700D03*
X-241300Y495300D03*
X-241300Y469900D03*
X-241300Y444500D03*
X-241300Y419100D03*
X-241300Y393700D03*
X-241300Y368300D03*
X-241300Y342900D03*
X-241300Y317500D03*
X-114300Y317500D03*
X-114300Y342900D03*
X-114300Y368300D03*
X-114300Y393700D03*
X-114300Y419100D03*
X-114300Y444500D03*
X-114300Y469900D03*
X-114300Y495300D03*
X-241300Y749300D03*
X-241300Y723900D03*
X-241300Y698500D03*
X-241300Y673100D03*
X-241300Y647700D03*
X-241300Y622300D03*
X-241300Y596900D03*
X-241300Y571500D03*
X-114300Y571500D03*
X-114300Y596900D03*
X-114300Y622300D03*
X-114300Y647700D03*
X-114300Y673100D03*
X-114300Y698500D03*
X-114300Y723900D03*
X-114300Y749300D03*
X190500Y38100D03*
X215900Y38100D03*
X241300Y38100D03*
X-165100Y38100D03*
X-139700Y38100D03*
X-114300Y38100D03*
D34*
X254000Y88900D03*
D35*
X-139700Y635000D03*
X-152400Y342900D03*
D34*
X0Y1016000D03*
X-317500Y292100D03*
M02*
