G04 EAGLE Gerber RS-274X export*
G75*
%MOMM*%
%FSLAX34Y34*%
%LPD*%
%INSilkscreen Bottom*%
%IPPOS*%
%AMOC8*
5,1,8,0,0,1.08239X$1,22.5*%
G01*
G04 Define Apertures*
%ADD10C,0.203200*%
%ADD11C,0.127000*%
G36*
X-78223Y715321D02*
X-83451Y715328D01*
X-87561Y715347D01*
X-90554Y715380D01*
X-92428Y715426D01*
X-93068Y715461D01*
X-93671Y715512D01*
X-94238Y715579D01*
X-94769Y715663D01*
X-95264Y715763D01*
X-95723Y715880D01*
X-96145Y716013D01*
X-96532Y716163D01*
X-96895Y716388D01*
X-97249Y716643D01*
X-97592Y716927D01*
X-97926Y717242D01*
X-98250Y717585D01*
X-98564Y717958D01*
X-98868Y718361D01*
X-99162Y718794D01*
X-99434Y719236D01*
X-99669Y719668D01*
X-99868Y720091D01*
X-100031Y720503D01*
X-100157Y720906D01*
X-100248Y721299D01*
X-100302Y721682D01*
X-100320Y722056D01*
X-100345Y722158D01*
X-100422Y722254D01*
X-100549Y722345D01*
X-100728Y722430D01*
X-100957Y722510D01*
X-101237Y722583D01*
X-101569Y722651D01*
X-101951Y722713D01*
X-102868Y722820D01*
X-103990Y722904D01*
X-105315Y722965D01*
X-106844Y723003D01*
X-112079Y723062D01*
X-121260Y723134D01*
X-151459Y723318D01*
X-202388Y723318D01*
X-204703Y724791D01*
X-205217Y725064D01*
X-205709Y725357D01*
X-206178Y725669D01*
X-206623Y726001D01*
X-207046Y726353D01*
X-207445Y726725D01*
X-207822Y727116D01*
X-208175Y727527D01*
X-208509Y727955D01*
X-208826Y728395D01*
X-209127Y728849D01*
X-209412Y729316D01*
X-209680Y729796D01*
X-209931Y730289D01*
X-210166Y730796D01*
X-210385Y731315D01*
X-210436Y731508D01*
X-210485Y731771D01*
X-210576Y732506D01*
X-210656Y733520D01*
X-210727Y734814D01*
X-210788Y736387D01*
X-210839Y738240D01*
X-210880Y740373D01*
X-210911Y742785D01*
X-210957Y749381D01*
X-210990Y758963D01*
X-211010Y771531D01*
X-211016Y787084D01*
X-211010Y799659D01*
X-210990Y810655D01*
X-210957Y820072D01*
X-210911Y827911D01*
X-210852Y834133D01*
X-210779Y838697D01*
X-210738Y840358D01*
X-210694Y841604D01*
X-210646Y842436D01*
X-210621Y842696D01*
X-210595Y842853D01*
X-210421Y843380D01*
X-210214Y843906D01*
X-209974Y844432D01*
X-209701Y844958D01*
X-209395Y845484D01*
X-209056Y846010D01*
X-208685Y846536D01*
X-208280Y847062D01*
X-207853Y847569D01*
X-207412Y848036D01*
X-206958Y848463D01*
X-206492Y848851D01*
X-206011Y849200D01*
X-205518Y849509D01*
X-205012Y849778D01*
X-204492Y850009D01*
X-201967Y851482D01*
X-151249Y851482D01*
X-100320Y851692D01*
X-100320Y852955D01*
X-100302Y853377D01*
X-100248Y853803D01*
X-100157Y854232D01*
X-100031Y854665D01*
X-99868Y855101D01*
X-99669Y855540D01*
X-99434Y855982D01*
X-99162Y856427D01*
X-98868Y856860D01*
X-98564Y857263D01*
X-98250Y857636D01*
X-97926Y857979D01*
X-97592Y858293D01*
X-97249Y858578D01*
X-96895Y858833D01*
X-96532Y859058D01*
X-96145Y859209D01*
X-95723Y859347D01*
X-95264Y859472D01*
X-94769Y859584D01*
X-94238Y859683D01*
X-93671Y859768D01*
X-93068Y859841D01*
X-92428Y859900D01*
X-91627Y859949D01*
X-90541Y859992D01*
X-89168Y860028D01*
X-87509Y860058D01*
X-83333Y860097D01*
X-78012Y860110D01*
X-72613Y860097D01*
X-68411Y860058D01*
X-66758Y860028D01*
X-65405Y859992D01*
X-64351Y859949D01*
X-63597Y859900D01*
X-63006Y859837D01*
X-62446Y859755D01*
X-61915Y859653D01*
X-61413Y859531D01*
X-60941Y859390D01*
X-60499Y859229D01*
X-60086Y859048D01*
X-59703Y858848D01*
X-59292Y858624D01*
X-58901Y858374D01*
X-58529Y858098D01*
X-58177Y857795D01*
X-57845Y857466D01*
X-57533Y857111D01*
X-57240Y856730D01*
X-56967Y856322D01*
X-56721Y855901D01*
X-56507Y855480D01*
X-56326Y855059D01*
X-56178Y854639D01*
X-56063Y854218D01*
X-55981Y853797D01*
X-55932Y853376D01*
X-55915Y852955D01*
X-55915Y851692D01*
X-46234Y851482D01*
X-36343Y851482D01*
X-33818Y850009D01*
X-33292Y849575D01*
X-32766Y849114D01*
X-32240Y848628D01*
X-31713Y848115D01*
X-31214Y847588D01*
X-30766Y847062D01*
X-30372Y846536D01*
X-30030Y846010D01*
X-28557Y843485D01*
X-28557Y731105D01*
X-30030Y728790D01*
X-30372Y728264D01*
X-30766Y727738D01*
X-31214Y727212D01*
X-31713Y726685D01*
X-32240Y726172D01*
X-32766Y725686D01*
X-33292Y725225D01*
X-33818Y724791D01*
X-36343Y723318D01*
X-46024Y723318D01*
X-55915Y723108D01*
X-56126Y721424D01*
X-56190Y721008D01*
X-56277Y720602D01*
X-56387Y720206D01*
X-56520Y719820D01*
X-56676Y719443D01*
X-56856Y719076D01*
X-57058Y718720D01*
X-57283Y718373D01*
X-57531Y718039D01*
X-57803Y717722D01*
X-58097Y717421D01*
X-58414Y717136D01*
X-58755Y716868D01*
X-59118Y716617D01*
X-59504Y716382D01*
X-59914Y716163D01*
X-60252Y716013D01*
X-60637Y715880D01*
X-61068Y715763D01*
X-61545Y715663D01*
X-62067Y715579D01*
X-62636Y715512D01*
X-63251Y715461D01*
X-63912Y715426D01*
X-65833Y715380D01*
X-68858Y715347D01*
X-72988Y715328D01*
X-78223Y715321D01*
G37*
%LPC*%
G36*
X-143252Y728159D02*
X-143252Y734262D01*
X-143289Y735579D01*
X-143298Y736794D01*
X-143276Y737907D01*
X-143225Y738918D01*
X-143145Y739827D01*
X-143139Y739867D01*
X-143035Y740634D01*
X-142918Y741222D01*
X-142895Y741340D01*
X-142792Y741707D01*
X-142725Y741943D01*
X-142626Y742215D01*
X-142513Y742481D01*
X-142245Y742989D01*
X-141921Y743467D01*
X-141542Y743916D01*
X-141106Y744335D01*
X-140614Y744725D01*
X-140067Y745085D01*
X-139463Y745415D01*
X-139079Y745567D01*
X-138661Y745705D01*
X-138211Y745830D01*
X-137727Y745942D01*
X-137211Y746040D01*
X-136662Y746126D01*
X-136080Y746198D01*
X-135465Y746257D01*
X-134702Y746307D01*
X-133676Y746349D01*
X-132387Y746385D01*
X-130835Y746415D01*
X-126942Y746454D01*
X-121996Y746468D01*
X-106423Y746468D01*
X-106423Y770038D01*
X-124522Y770248D01*
X-142620Y770248D01*
X-145987Y771932D01*
X-146709Y772308D01*
X-147401Y772701D01*
X-147991Y773066D01*
X-148064Y773111D01*
X-148697Y773537D01*
X-149300Y773979D01*
X-149874Y774438D01*
X-150418Y774913D01*
X-150933Y775404D01*
X-151421Y775919D01*
X-151887Y776463D01*
X-152329Y777037D01*
X-152748Y777640D01*
X-153144Y778273D01*
X-153332Y778606D01*
X-153518Y778936D01*
X-153868Y779628D01*
X-154195Y780350D01*
X-154576Y781258D01*
X-154879Y782086D01*
X-155102Y782836D01*
X-155185Y783181D01*
X-155247Y783507D01*
X-155339Y784217D01*
X-155394Y784934D01*
X-155405Y785085D01*
X-155408Y785155D01*
X-155444Y786111D01*
X-155458Y787295D01*
X-155444Y788571D01*
X-155405Y789662D01*
X-155403Y789697D01*
X-155339Y790570D01*
X-155247Y791293D01*
X-155185Y791619D01*
X-155102Y791964D01*
X-154879Y792714D01*
X-154576Y793542D01*
X-154394Y793976D01*
X-154195Y794450D01*
X-153868Y795124D01*
X-153518Y795779D01*
X-153144Y796413D01*
X-152748Y797028D01*
X-152329Y797623D01*
X-151887Y798199D01*
X-151421Y798754D01*
X-150933Y799290D01*
X-150418Y799807D01*
X-149874Y800303D01*
X-149300Y800780D01*
X-148697Y801237D01*
X-148064Y801674D01*
X-147401Y802092D01*
X-146868Y802399D01*
X-146709Y802490D01*
X-145987Y802868D01*
X-142620Y804341D01*
X-141599Y804353D01*
X-135404Y804425D01*
X-124522Y804552D01*
X-121995Y804581D01*
X-106423Y804762D01*
X-106423Y828332D01*
X-121996Y828332D01*
X-126942Y828346D01*
X-130835Y828385D01*
X-132387Y828415D01*
X-133676Y828451D01*
X-134702Y828494D01*
X-135465Y828543D01*
X-136080Y828602D01*
X-136662Y828674D01*
X-137211Y828760D01*
X-137727Y828859D01*
X-138211Y828970D01*
X-138661Y829095D01*
X-139079Y829233D01*
X-139463Y829385D01*
X-140067Y829715D01*
X-140614Y830075D01*
X-141106Y830465D01*
X-141542Y830884D01*
X-141921Y831333D01*
X-142245Y831811D01*
X-142513Y832319D01*
X-142626Y832585D01*
X-142725Y832857D01*
X-142895Y833460D01*
X-143035Y834166D01*
X-143145Y834973D01*
X-143225Y835882D01*
X-143273Y836832D01*
X-143276Y836893D01*
X-143298Y838006D01*
X-143289Y839221D01*
X-143252Y840538D01*
X-143252Y846641D01*
X-172294Y846641D01*
X-201546Y846431D01*
X-203019Y845379D01*
X-203341Y845142D01*
X-203677Y844853D01*
X-204025Y844511D01*
X-204387Y844116D01*
X-204722Y843708D01*
X-204992Y843327D01*
X-205196Y842972D01*
X-205334Y842643D01*
X-205411Y842455D01*
X-205484Y842209D01*
X-205552Y841903D01*
X-205617Y841538D01*
X-205734Y840631D01*
X-205834Y839486D01*
X-205918Y838105D01*
X-205985Y836487D01*
X-206036Y834633D01*
X-206071Y832541D01*
X-206117Y826399D01*
X-206120Y825310D01*
X-206150Y816810D01*
X-206169Y803776D01*
X-206176Y787295D01*
X-206169Y769617D01*
X-206150Y755938D01*
X-206121Y747544D01*
X-206117Y746257D01*
X-206071Y740575D01*
X-206033Y738829D01*
X-206008Y738197D01*
X-205972Y737274D01*
X-205913Y736319D01*
X-205899Y736079D01*
X-205888Y735909D01*
X-205872Y735735D01*
X-205871Y735717D01*
X-205853Y735523D01*
X-205815Y735103D01*
X-205781Y734735D01*
X-205740Y734423D01*
X-205661Y733823D01*
X-205654Y733772D01*
X-205651Y733752D01*
X-205578Y733332D01*
X-205533Y733121D01*
X-205508Y733002D01*
X-205507Y732997D01*
X-205498Y732959D01*
X-205413Y732635D01*
X-205323Y732358D01*
X-205315Y732340D01*
X-205226Y732128D01*
X-205216Y732110D01*
X-205197Y732077D01*
X-205143Y731982D01*
X-205124Y731947D01*
X-204887Y731526D01*
X-204735Y731305D01*
X-204598Y731105D01*
X-204441Y730913D01*
X-204256Y730684D01*
X-203861Y730263D01*
X-203440Y729868D01*
X-203019Y729526D01*
X-202598Y729237D01*
X-202177Y729000D01*
X-201816Y728851D01*
X-201362Y728718D01*
X-200816Y728601D01*
X-200178Y728501D01*
X-199448Y728417D01*
X-198626Y728349D01*
X-197712Y728298D01*
X-196706Y728264D01*
X-193562Y728218D01*
X-188340Y728185D01*
X-181040Y728165D01*
X-171662Y728159D01*
X-143252Y728159D01*
G37*
%LPD*%
G36*
X-177976Y807077D02*
X-179635Y807085D01*
X-181139Y807110D01*
X-182489Y807151D01*
X-183684Y807209D01*
X-184725Y807283D01*
X-185611Y807373D01*
X-186343Y807480D01*
X-186920Y807603D01*
X-187402Y807753D01*
X-187847Y807939D01*
X-188256Y808160D01*
X-188630Y808419D01*
X-188967Y808713D01*
X-189268Y809043D01*
X-189532Y809410D01*
X-189761Y809813D01*
X-189813Y809944D01*
X-189866Y810129D01*
X-189971Y810655D01*
X-190077Y811391D01*
X-190182Y812338D01*
X-190274Y813417D01*
X-190340Y814548D01*
X-190379Y815732D01*
X-190392Y816968D01*
X-190384Y818180D01*
X-190359Y819290D01*
X-190318Y820297D01*
X-190261Y821203D01*
X-190187Y822007D01*
X-190096Y822709D01*
X-189989Y823310D01*
X-189866Y823808D01*
X-189713Y824240D01*
X-189518Y824643D01*
X-189279Y825016D01*
X-188998Y825360D01*
X-188674Y825674D01*
X-188307Y825958D01*
X-187898Y826213D01*
X-187446Y826438D01*
X-187306Y826489D01*
X-187097Y826537D01*
X-186473Y826622D01*
X-185572Y826695D01*
X-184394Y826754D01*
X-183007Y826800D01*
X-181474Y826833D01*
X-179797Y826853D01*
X-177976Y826859D01*
X-175828Y826840D01*
X-173911Y826780D01*
X-173039Y826736D01*
X-172225Y826682D01*
X-171467Y826618D01*
X-170768Y826544D01*
X-170126Y826460D01*
X-169541Y826366D01*
X-169014Y826262D01*
X-168545Y826149D01*
X-168133Y826026D01*
X-167779Y825892D01*
X-167482Y825749D01*
X-167243Y825597D01*
X-167039Y825415D01*
X-166848Y825186D01*
X-166671Y824908D01*
X-166506Y824584D01*
X-166355Y824211D01*
X-166217Y823791D01*
X-166092Y823324D01*
X-165980Y822808D01*
X-165881Y822245D01*
X-165796Y821634D01*
X-165724Y820976D01*
X-165664Y820270D01*
X-165618Y819516D01*
X-165585Y818714D01*
X-165566Y817865D01*
X-165559Y816968D01*
X-165566Y816096D01*
X-165585Y815270D01*
X-165618Y814488D01*
X-165664Y813752D01*
X-165724Y813061D01*
X-165796Y812416D01*
X-165881Y811815D01*
X-165980Y811260D01*
X-166092Y810750D01*
X-166217Y810285D01*
X-166355Y809865D01*
X-166506Y809491D01*
X-166671Y809161D01*
X-166848Y808877D01*
X-167039Y808639D01*
X-167243Y808445D01*
X-167482Y808279D01*
X-167779Y808124D01*
X-168133Y807980D01*
X-168545Y807846D01*
X-169014Y807724D01*
X-169541Y807611D01*
X-170126Y807510D01*
X-170768Y807419D01*
X-171467Y807339D01*
X-172225Y807269D01*
X-173039Y807211D01*
X-173911Y807163D01*
X-174841Y807125D01*
X-175828Y807098D01*
X-177976Y807077D01*
G37*
%LPC*%
G36*
X-35291Y731947D02*
X-35074Y731966D01*
X-34844Y732026D01*
X-34601Y732124D01*
X-34344Y732262D01*
X-34101Y732427D01*
X-33897Y732604D01*
X-33732Y732795D01*
X-33608Y732999D01*
X-33581Y733141D01*
X-33555Y733410D01*
X-33502Y734327D01*
X-33450Y735751D01*
X-33397Y737681D01*
X-33292Y743061D01*
X-33187Y750466D01*
X-33187Y787400D01*
X-33200Y797232D01*
X-33239Y806630D01*
X-33305Y815594D01*
X-33397Y824123D01*
X-33404Y828073D01*
X-33423Y831502D01*
X-33456Y834412D01*
X-33502Y836803D01*
X-33561Y838674D01*
X-33634Y840025D01*
X-33675Y840506D01*
X-33719Y840857D01*
X-33767Y841079D01*
X-33792Y841140D01*
X-33818Y841170D01*
X-33943Y841275D01*
X-34107Y841380D01*
X-34311Y841485D01*
X-34555Y841591D01*
X-34811Y841683D01*
X-35054Y841749D01*
X-35285Y841788D01*
X-35502Y841801D01*
X-35681Y841777D01*
X-35955Y841704D01*
X-36791Y841413D01*
X-38007Y840928D01*
X-39605Y840249D01*
X-41585Y839376D01*
X-43946Y838309D01*
X-46688Y837048D01*
X-49812Y835593D01*
X-52929Y834125D01*
X-55652Y832824D01*
X-57980Y831691D01*
X-59914Y830726D01*
X-61453Y829929D01*
X-62597Y829299D01*
X-63347Y828837D01*
X-63574Y828669D01*
X-63702Y828543D01*
X-63802Y828408D01*
X-63892Y828214D01*
X-63973Y827961D01*
X-64044Y827648D01*
X-64105Y827277D01*
X-64156Y826846D01*
X-64197Y826356D01*
X-64228Y825807D01*
X-64274Y824492D01*
X-64307Y822861D01*
X-64327Y820914D01*
X-64333Y818652D01*
X-64341Y816797D01*
X-64366Y815127D01*
X-64407Y813640D01*
X-64465Y812338D01*
X-64539Y811220D01*
X-64629Y810286D01*
X-64736Y809537D01*
X-64859Y808971D01*
X-64934Y808734D01*
X-65025Y808498D01*
X-65047Y808453D01*
X-65260Y808024D01*
X-65565Y807551D01*
X-65938Y807077D01*
X-66380Y806604D01*
X-66891Y806130D01*
X-67472Y805656D01*
X-68121Y805183D01*
X-70226Y803710D01*
X-70226Y770880D01*
X-67490Y768354D01*
X-64544Y765829D01*
X-64333Y756569D01*
X-64228Y754050D01*
X-64215Y753788D01*
X-64123Y751966D01*
X-64017Y750315D01*
X-63912Y749098D01*
X-63794Y748197D01*
X-63725Y747821D01*
X-63649Y747494D01*
X-63567Y747216D01*
X-63478Y746987D01*
X-63383Y746808D01*
X-63281Y746678D01*
X-63103Y746524D01*
X-62832Y746325D01*
X-62012Y745790D01*
X-60820Y745075D01*
X-59256Y744179D01*
X-57321Y743102D01*
X-55014Y741844D01*
X-49286Y738786D01*
X-46236Y737183D01*
X-43558Y735794D01*
X-41251Y734618D01*
X-39316Y733657D01*
X-37752Y732908D01*
X-36560Y732374D01*
X-36104Y732187D01*
X-35740Y732054D01*
X-35469Y731973D01*
X-35291Y731947D01*
G37*
%LPD*%
G36*
X-48712Y777565D02*
X-49251Y777582D01*
X-49779Y777627D01*
X-50297Y777700D01*
X-50804Y777802D01*
X-51300Y777931D01*
X-51785Y778088D01*
X-52260Y778273D01*
X-52724Y778486D01*
X-53177Y778726D01*
X-53620Y778995D01*
X-54052Y779292D01*
X-54473Y779617D01*
X-54884Y779969D01*
X-55284Y780350D01*
X-55698Y780784D01*
X-56099Y781244D01*
X-56487Y781731D01*
X-56862Y782244D01*
X-57198Y782744D01*
X-57467Y783191D01*
X-57671Y783586D01*
X-57809Y783928D01*
X-57952Y784462D01*
X-58066Y785013D01*
X-58150Y785580D01*
X-58204Y786164D01*
X-58228Y786764D01*
X-58224Y787380D01*
X-58189Y788013D01*
X-58125Y788663D01*
X-58031Y789306D01*
X-57908Y789919D01*
X-57755Y790502D01*
X-57572Y791057D01*
X-57360Y791581D01*
X-57119Y792076D01*
X-56847Y792541D01*
X-56546Y792977D01*
X-56170Y793485D01*
X-55777Y793957D01*
X-55368Y794393D01*
X-54942Y794792D01*
X-54500Y795155D01*
X-54041Y795483D01*
X-53566Y795774D01*
X-53074Y796028D01*
X-52563Y796250D01*
X-52028Y796443D01*
X-51471Y796606D01*
X-50891Y796739D01*
X-50287Y796842D01*
X-49661Y796916D01*
X-49011Y796961D01*
X-48339Y796975D01*
X-47667Y796959D01*
X-47017Y796910D01*
X-46391Y796827D01*
X-45787Y796712D01*
X-45207Y796564D01*
X-44650Y796384D01*
X-44115Y796170D01*
X-43604Y795923D01*
X-43112Y795644D01*
X-42637Y795331D01*
X-42178Y794986D01*
X-41736Y794608D01*
X-41310Y794197D01*
X-40901Y793753D01*
X-40508Y793276D01*
X-40131Y792766D01*
X-39750Y792148D01*
X-39447Y791556D01*
X-39326Y791270D01*
X-39224Y790991D01*
X-39142Y790718D01*
X-39079Y790452D01*
X-38987Y789860D01*
X-38921Y789136D01*
X-38882Y788281D01*
X-38869Y787295D01*
X-38882Y786315D01*
X-38921Y785480D01*
X-38987Y784789D01*
X-39079Y784243D01*
X-39145Y783998D01*
X-39237Y783737D01*
X-39355Y783459D01*
X-39500Y783165D01*
X-39868Y782527D01*
X-40342Y781823D01*
X-40691Y781363D01*
X-41054Y780929D01*
X-41431Y780521D01*
X-41822Y780140D01*
X-42226Y779784D01*
X-42645Y779456D01*
X-43078Y779153D01*
X-43525Y778877D01*
X-43986Y778627D01*
X-44460Y778403D01*
X-44949Y778206D01*
X-45452Y778035D01*
X-45969Y777890D01*
X-46499Y777772D01*
X-47044Y777680D01*
X-47602Y777614D01*
X-48163Y777575D01*
X-48712Y777565D01*
G37*
%LPC*%
G36*
X-68963Y746468D02*
X-69125Y753033D01*
X-69384Y763514D01*
X-71699Y765619D01*
X-72698Y766644D01*
X-73593Y767618D01*
X-73974Y768058D01*
X-74277Y768433D01*
X-74500Y768742D01*
X-74645Y768986D01*
X-74698Y769157D01*
X-74750Y769459D01*
X-74803Y769893D01*
X-74856Y770459D01*
X-74961Y771985D01*
X-75066Y774036D01*
X-75158Y776575D01*
X-75188Y777935D01*
X-75224Y779561D01*
X-75263Y782994D01*
X-75276Y786874D01*
X-75270Y790223D01*
X-75250Y793220D01*
X-75217Y795866D01*
X-75171Y798159D01*
X-75112Y800101D01*
X-75044Y801588D01*
X-75040Y801691D01*
X-74954Y802929D01*
X-74927Y803210D01*
X-74907Y803416D01*
X-74856Y803815D01*
X-74795Y804166D01*
X-74717Y804511D01*
X-74624Y804847D01*
X-74514Y805176D01*
X-74387Y805498D01*
X-74244Y805813D01*
X-74084Y806120D01*
X-73909Y806419D01*
X-73716Y806712D01*
X-73507Y806996D01*
X-73282Y807274D01*
X-73040Y807544D01*
X-72782Y807807D01*
X-72508Y808062D01*
X-71909Y808550D01*
X-71502Y808774D01*
X-71120Y809024D01*
X-70765Y809300D01*
X-70436Y809602D01*
X-69594Y810444D01*
X-69542Y811286D01*
X-69384Y813390D01*
X-69292Y814811D01*
X-69226Y816337D01*
X-69187Y817968D01*
X-69173Y819704D01*
X-69173Y828332D01*
X-101372Y828332D01*
X-101372Y804762D01*
X-98426Y804762D01*
X-97809Y804751D01*
X-97222Y804716D01*
X-96665Y804658D01*
X-96137Y804578D01*
X-95639Y804474D01*
X-95170Y804348D01*
X-94732Y804198D01*
X-94322Y804025D01*
X-93942Y803833D01*
X-93592Y803624D01*
X-93272Y803399D01*
X-92981Y803157D01*
X-92719Y802899D01*
X-92487Y802625D01*
X-92285Y802334D01*
X-92112Y802026D01*
X-92036Y801796D01*
X-91964Y801474D01*
X-91898Y801059D01*
X-91836Y800553D01*
X-91728Y799264D01*
X-91639Y797607D01*
X-91570Y795581D01*
X-91545Y794389D01*
X-91521Y793187D01*
X-91519Y793034D01*
X-91491Y790425D01*
X-91481Y787295D01*
X-91491Y784164D01*
X-91521Y781402D01*
X-91570Y779008D01*
X-91639Y776983D01*
X-91728Y775325D01*
X-91836Y774036D01*
X-91898Y773530D01*
X-91964Y773116D01*
X-92036Y772794D01*
X-92112Y772563D01*
X-92333Y772258D01*
X-92573Y771971D01*
X-92619Y771924D01*
X-92833Y771705D01*
X-93112Y771458D01*
X-93411Y771232D01*
X-93730Y771024D01*
X-94069Y770837D01*
X-94427Y770669D01*
X-94812Y770521D01*
X-95230Y770393D01*
X-95680Y770285D01*
X-96164Y770196D01*
X-96680Y770127D01*
X-97229Y770077D01*
X-97811Y770048D01*
X-98073Y770044D01*
X-98426Y770038D01*
X-101372Y770038D01*
X-101372Y746468D01*
X-68963Y746468D01*
G37*
%LPD*%
G36*
X-97163Y807077D02*
X-98847Y807077D01*
X-98847Y826859D01*
X-97163Y826859D01*
X-96747Y826848D01*
X-96341Y826813D01*
X-95945Y826756D01*
X-95559Y826675D01*
X-95182Y826572D01*
X-94815Y826445D01*
X-94459Y826295D01*
X-94112Y826123D01*
X-93781Y825930D01*
X-93474Y825721D01*
X-93189Y825496D01*
X-92928Y825255D01*
X-92689Y824996D01*
X-92474Y824722D01*
X-92282Y824431D01*
X-92112Y824123D01*
X-92060Y823994D01*
X-92007Y823814D01*
X-91902Y823308D01*
X-91797Y822604D01*
X-91692Y821703D01*
X-91599Y820658D01*
X-91534Y819520D01*
X-91494Y818290D01*
X-91481Y816968D01*
X-91494Y815738D01*
X-91534Y814574D01*
X-91599Y813476D01*
X-91692Y812443D01*
X-91797Y811529D01*
X-91902Y810786D01*
X-92007Y810214D01*
X-92112Y809813D01*
X-92282Y809505D01*
X-92474Y809214D01*
X-92689Y808940D01*
X-92928Y808682D01*
X-93189Y808440D01*
X-93474Y808215D01*
X-93781Y808006D01*
X-94112Y807814D01*
X-94459Y807641D01*
X-94815Y807491D01*
X-95182Y807365D01*
X-95559Y807261D01*
X-95945Y807181D01*
X-96341Y807123D01*
X-96747Y807089D01*
X-97163Y807077D01*
G37*
%LPC*%
G36*
X-66017Y833383D02*
X-52758Y839486D01*
X-47497Y842012D01*
X-43078Y844116D01*
X-41315Y844958D01*
X-40026Y845589D01*
X-39211Y846010D01*
X-38981Y846142D01*
X-38869Y846221D01*
X-38852Y846246D01*
X-38851Y846259D01*
X-38853Y846265D01*
X-38856Y846272D01*
X-38921Y846319D01*
X-39066Y846364D01*
X-39290Y846405D01*
X-39974Y846477D01*
X-40973Y846536D01*
X-42223Y846582D01*
X-43656Y846615D01*
X-45274Y846635D01*
X-47076Y846641D01*
X-55915Y846641D01*
X-55915Y845379D01*
X-55932Y844958D01*
X-55981Y844537D01*
X-56063Y844116D01*
X-56178Y843695D01*
X-56326Y843274D01*
X-56507Y842853D01*
X-56721Y842432D01*
X-56967Y842012D01*
X-57240Y841604D01*
X-57533Y841222D01*
X-57845Y840867D01*
X-58177Y840538D01*
X-58529Y840236D01*
X-58901Y839960D01*
X-59292Y839710D01*
X-59703Y839486D01*
X-60086Y839286D01*
X-60499Y839105D01*
X-60941Y838944D01*
X-61413Y838802D01*
X-61915Y838681D01*
X-62446Y838579D01*
X-63006Y838496D01*
X-63597Y838434D01*
X-64351Y838385D01*
X-65405Y838342D01*
X-66758Y838306D01*
X-68411Y838276D01*
X-72613Y838237D01*
X-78012Y838223D01*
X-83333Y838237D01*
X-87509Y838276D01*
X-89168Y838306D01*
X-90541Y838342D01*
X-91627Y838385D01*
X-92428Y838434D01*
X-93068Y838493D01*
X-93671Y838565D01*
X-94238Y838651D01*
X-94769Y838750D01*
X-95264Y838861D01*
X-95723Y838986D01*
X-96145Y839124D01*
X-96532Y839276D01*
X-96895Y839501D01*
X-97249Y839756D01*
X-97592Y840040D01*
X-97926Y840354D01*
X-98227Y840674D01*
X-98250Y840698D01*
X-98564Y841071D01*
X-98868Y841474D01*
X-99162Y841906D01*
X-99434Y842352D01*
X-99669Y842794D01*
X-99868Y843233D01*
X-100031Y843669D01*
X-100157Y844101D01*
X-100248Y844530D01*
X-100302Y844956D01*
X-100320Y845379D01*
X-100320Y846641D01*
X-118629Y846641D01*
X-124423Y846635D01*
X-128967Y846615D01*
X-132262Y846582D01*
X-134307Y846536D01*
X-134980Y846502D01*
X-135577Y846451D01*
X-136098Y846383D01*
X-136543Y846299D01*
X-136913Y846199D01*
X-137208Y846082D01*
X-137426Y845949D01*
X-137569Y845800D01*
X-137696Y845653D01*
X-137814Y845477D01*
X-137923Y845272D01*
X-137960Y845186D01*
X-138023Y845037D01*
X-138114Y844772D01*
X-138196Y844478D01*
X-138269Y844154D01*
X-138332Y843800D01*
X-138433Y843005D01*
X-138497Y842091D01*
X-138525Y841058D01*
X-138516Y839907D01*
X-138479Y838759D01*
X-138418Y837737D01*
X-138334Y836839D01*
X-138227Y836066D01*
X-138097Y835419D01*
X-137944Y834896D01*
X-137859Y834681D01*
X-137768Y834498D01*
X-137672Y834346D01*
X-137569Y834225D01*
X-137471Y834148D01*
X-137333Y834075D01*
X-137155Y834007D01*
X-136938Y833942D01*
X-136386Y833825D01*
X-135675Y833725D01*
X-134807Y833641D01*
X-133781Y833574D01*
X-132598Y833523D01*
X-131256Y833488D01*
X-127257Y833442D01*
X-120944Y833409D01*
X-114249Y833394D01*
X-112316Y833390D01*
X-105702Y833386D01*
X-101372Y833383D01*
X-66017Y833383D01*
G37*
G36*
X-100320Y728159D02*
X-100320Y729632D01*
X-100302Y730056D01*
X-100248Y730487D01*
X-100157Y730924D01*
X-100103Y731115D01*
X-100031Y731368D01*
X-99868Y731818D01*
X-99669Y732275D01*
X-99434Y732739D01*
X-99162Y733209D01*
X-98868Y733666D01*
X-98564Y734091D01*
X-98250Y734482D01*
X-97926Y734840D01*
X-97592Y735166D01*
X-97249Y735459D01*
X-96895Y735718D01*
X-96532Y735945D01*
X-96145Y736144D01*
X-95723Y736320D01*
X-95264Y736473D01*
X-94769Y736603D01*
X-94238Y736710D01*
X-93671Y736794D01*
X-93068Y736854D01*
X-92428Y736892D01*
X-90541Y736938D01*
X-87509Y736971D01*
X-83333Y736991D01*
X-78012Y736997D01*
X-73211Y736991D01*
X-69331Y736971D01*
X-66372Y736938D01*
X-64333Y736892D01*
X-63577Y736858D01*
X-62886Y736807D01*
X-62261Y736739D01*
X-61702Y736655D01*
X-61209Y736555D01*
X-60782Y736438D01*
X-60420Y736305D01*
X-60124Y736156D01*
X-59713Y735934D01*
X-59322Y735689D01*
X-58950Y735421D01*
X-58598Y735130D01*
X-58266Y734816D01*
X-57954Y734479D01*
X-57661Y734119D01*
X-57388Y733735D01*
X-57135Y733336D01*
X-56902Y732927D01*
X-56688Y732507D01*
X-56494Y732078D01*
X-56320Y731639D01*
X-56165Y731190D01*
X-56030Y730732D01*
X-55915Y730263D01*
X-55705Y728159D01*
X-42341Y728159D01*
X-41374Y728172D01*
X-40684Y728211D01*
X-40442Y728241D01*
X-40270Y728277D01*
X-40166Y728320D01*
X-40131Y728369D01*
X-43814Y730368D01*
X-47787Y732499D01*
X-52338Y734893D01*
X-64544Y741417D01*
X-100741Y741417D01*
X-112309Y741410D01*
X-121339Y741391D01*
X-127830Y741358D01*
X-131782Y741312D01*
X-133046Y741277D01*
X-134156Y741226D01*
X-135111Y741159D01*
X-135912Y741075D01*
X-136558Y740975D01*
X-137050Y740858D01*
X-137238Y740793D01*
X-137387Y740725D01*
X-137498Y740652D01*
X-137569Y740575D01*
X-137672Y740428D01*
X-137768Y740251D01*
X-137859Y740044D01*
X-137944Y739806D01*
X-138097Y739238D01*
X-138227Y738549D01*
X-138334Y737739D01*
X-138418Y736807D01*
X-138479Y735753D01*
X-138516Y734577D01*
X-138525Y733405D01*
X-138497Y732361D01*
X-138433Y731445D01*
X-138399Y731184D01*
X-138332Y730658D01*
X-138269Y730312D01*
X-138196Y729998D01*
X-138114Y729717D01*
X-138023Y729467D01*
X-137923Y729250D01*
X-137814Y729064D01*
X-137696Y728911D01*
X-137569Y728790D01*
X-137420Y728690D01*
X-137181Y728599D01*
X-136854Y728519D01*
X-136438Y728448D01*
X-135934Y728387D01*
X-135340Y728336D01*
X-134658Y728295D01*
X-133887Y728264D01*
X-131710Y728218D01*
X-128441Y728185D01*
X-124081Y728165D01*
X-118629Y728159D01*
X-100320Y728159D01*
G37*
G36*
X-78012Y720161D02*
X-73415Y720168D01*
X-69726Y720188D01*
X-66944Y720221D01*
X-65070Y720267D01*
X-64394Y720301D01*
X-63787Y720352D01*
X-63250Y720420D01*
X-62781Y720503D01*
X-62382Y720604D01*
X-62051Y720720D01*
X-61790Y720854D01*
X-61597Y721003D01*
X-61495Y721122D01*
X-61400Y721268D01*
X-61311Y721441D01*
X-61229Y721641D01*
X-61084Y722123D01*
X-60966Y722713D01*
X-60874Y723412D01*
X-60808Y724219D01*
X-60769Y725135D01*
X-60755Y726159D01*
X-60769Y727184D01*
X-60808Y728099D01*
X-60874Y728907D01*
X-60966Y729605D01*
X-61084Y730196D01*
X-61229Y730677D01*
X-61311Y730878D01*
X-61400Y731051D01*
X-61495Y731197D01*
X-61597Y731315D01*
X-61790Y731416D01*
X-62051Y731506D01*
X-62382Y731587D01*
X-62781Y731657D01*
X-63250Y731718D01*
X-63787Y731769D01*
X-64394Y731810D01*
X-65070Y731841D01*
X-66944Y731887D01*
X-69726Y731920D01*
X-73415Y731940D01*
X-78012Y731947D01*
X-82958Y731940D01*
X-86851Y731920D01*
X-89692Y731887D01*
X-91481Y731841D01*
X-92083Y731807D01*
X-92625Y731756D01*
X-93109Y731689D01*
X-93533Y731605D01*
X-93898Y731504D01*
X-94204Y731388D01*
X-94450Y731254D01*
X-94638Y731105D01*
X-94740Y730988D01*
X-94835Y730848D01*
X-94924Y730686D01*
X-95006Y730500D01*
X-95151Y730059D01*
X-95269Y729526D01*
X-95361Y728875D01*
X-95427Y728080D01*
X-95466Y727139D01*
X-95480Y726054D01*
X-95473Y725491D01*
X-95453Y724959D01*
X-95420Y724458D01*
X-95374Y723989D01*
X-95315Y723551D01*
X-95310Y723521D01*
X-95243Y723144D01*
X-95157Y722768D01*
X-95059Y722424D01*
X-94947Y722111D01*
X-94822Y721829D01*
X-94684Y721578D01*
X-94533Y721358D01*
X-94368Y721170D01*
X-94191Y721013D01*
X-94000Y720887D01*
X-93796Y720793D01*
X-93537Y720716D01*
X-93181Y720645D01*
X-92728Y720578D01*
X-92178Y720517D01*
X-90787Y720408D01*
X-89008Y720319D01*
X-86841Y720250D01*
X-84286Y720201D01*
X-81343Y720171D01*
X-78012Y720161D01*
G37*
%LPD*%
G36*
X-89587Y722056D02*
X-89909Y722075D01*
X-90245Y722134D01*
X-90593Y722233D01*
X-90955Y722371D01*
X-91317Y722549D01*
X-91665Y722766D01*
X-92001Y723022D01*
X-92323Y723318D01*
X-92744Y723976D01*
X-93165Y724686D01*
X-93349Y725048D01*
X-93480Y725396D01*
X-93559Y725732D01*
X-93579Y725895D01*
X-93586Y726054D01*
X-93566Y726419D01*
X-93507Y726777D01*
X-93408Y727129D01*
X-93270Y727475D01*
X-93092Y727813D01*
X-92875Y728145D01*
X-92619Y728471D01*
X-92323Y728790D01*
X-92004Y729086D01*
X-91678Y729342D01*
X-91346Y729559D01*
X-91008Y729737D01*
X-90662Y729875D01*
X-90310Y729974D01*
X-89952Y730033D01*
X-89587Y730053D01*
X-89252Y730043D01*
X-88931Y730015D01*
X-88624Y729968D01*
X-88331Y729901D01*
X-88052Y729816D01*
X-87787Y729712D01*
X-87536Y729589D01*
X-87298Y729448D01*
X-87075Y729287D01*
X-86866Y729107D01*
X-86671Y728909D01*
X-86489Y728691D01*
X-86322Y728455D01*
X-86169Y728200D01*
X-86030Y727925D01*
X-85904Y727632D01*
X-85797Y727332D01*
X-85712Y727036D01*
X-85649Y726743D01*
X-85608Y726455D01*
X-85590Y726171D01*
X-85593Y725891D01*
X-85619Y725615D01*
X-85667Y725344D01*
X-85738Y725076D01*
X-85830Y724813D01*
X-85945Y724553D01*
X-86082Y724298D01*
X-86241Y724047D01*
X-86422Y723800D01*
X-86626Y723557D01*
X-86851Y723318D01*
X-87081Y723022D01*
X-87351Y722766D01*
X-87660Y722549D01*
X-88009Y722371D01*
X-88384Y722233D01*
X-88772Y722134D01*
X-89173Y722075D01*
X-89587Y722056D01*
G37*
%LPC*%
G36*
X-78012Y843274D02*
X-73415Y843281D01*
X-69726Y843301D01*
X-66944Y843333D01*
X-65070Y843380D01*
X-64394Y843414D01*
X-63787Y843465D01*
X-63250Y843532D01*
X-62781Y843616D01*
X-62382Y843717D01*
X-62051Y843833D01*
X-61790Y843966D01*
X-61597Y844116D01*
X-61495Y844234D01*
X-61400Y844379D01*
X-61311Y844550D01*
X-61229Y844747D01*
X-61084Y845221D01*
X-60966Y845800D01*
X-60874Y846484D01*
X-60808Y847273D01*
X-60769Y848167D01*
X-60755Y849167D01*
X-60772Y850166D01*
X-60821Y851061D01*
X-60903Y851850D01*
X-61019Y852534D01*
X-61088Y852837D01*
X-61167Y853113D01*
X-61253Y853363D01*
X-61347Y853586D01*
X-61450Y853784D01*
X-61561Y853955D01*
X-61680Y854099D01*
X-61808Y854218D01*
X-61998Y854367D01*
X-62255Y854500D01*
X-62577Y854617D01*
X-62965Y854717D01*
X-63419Y854801D01*
X-63939Y854869D01*
X-64524Y854920D01*
X-65175Y854954D01*
X-67016Y855000D01*
X-69805Y855033D01*
X-73540Y855053D01*
X-78223Y855059D01*
X-83162Y855053D01*
X-87035Y855033D01*
X-89843Y855000D01*
X-91586Y854954D01*
X-92163Y854920D01*
X-92685Y854869D01*
X-93150Y854801D01*
X-93559Y854717D01*
X-93913Y854617D01*
X-94210Y854500D01*
X-94452Y854367D01*
X-94638Y854218D01*
X-94740Y854101D01*
X-94835Y853961D01*
X-94924Y853798D01*
X-95006Y853613D01*
X-95151Y853172D01*
X-95269Y852639D01*
X-95361Y851988D01*
X-95427Y851192D01*
X-95466Y850252D01*
X-95480Y849167D01*
X-95473Y848579D01*
X-95453Y848024D01*
X-95420Y847503D01*
X-95374Y847016D01*
X-95315Y846563D01*
X-95243Y846143D01*
X-95157Y845757D01*
X-95059Y845405D01*
X-94947Y845087D01*
X-94822Y844802D01*
X-94684Y844551D01*
X-94533Y844333D01*
X-94505Y844303D01*
X-94368Y844149D01*
X-94191Y843999D01*
X-94000Y843883D01*
X-93796Y843800D01*
X-93537Y843737D01*
X-93181Y843677D01*
X-92728Y843622D01*
X-92178Y843570D01*
X-90787Y843480D01*
X-89008Y843406D01*
X-86841Y843348D01*
X-84286Y843307D01*
X-81343Y843282D01*
X-78012Y843274D01*
G37*
%LPD*%
G36*
X-89750Y845214D02*
X-90026Y845232D01*
X-90297Y845274D01*
X-90565Y845338D01*
X-90828Y845425D01*
X-91088Y845535D01*
X-91343Y845668D01*
X-91594Y845824D01*
X-91841Y846004D01*
X-92084Y846206D01*
X-92323Y846431D01*
X-92744Y847089D01*
X-93165Y847799D01*
X-93349Y848161D01*
X-93480Y848509D01*
X-93559Y848845D01*
X-93579Y849007D01*
X-93586Y849167D01*
X-93566Y849532D01*
X-93507Y849890D01*
X-93408Y850242D01*
X-93270Y850587D01*
X-93092Y850926D01*
X-92875Y851258D01*
X-92619Y851584D01*
X-92323Y851903D01*
X-92004Y852199D01*
X-91678Y852455D01*
X-91346Y852672D01*
X-91008Y852850D01*
X-90662Y852988D01*
X-90310Y853086D01*
X-89952Y853146D01*
X-89587Y853165D01*
X-89222Y853146D01*
X-88864Y853086D01*
X-88512Y852988D01*
X-88166Y852850D01*
X-87828Y852672D01*
X-87496Y852455D01*
X-87170Y852199D01*
X-86851Y851903D01*
X-86555Y851584D01*
X-86299Y851258D01*
X-86082Y850926D01*
X-85904Y850587D01*
X-85766Y850242D01*
X-85667Y849890D01*
X-85608Y849532D01*
X-85588Y849167D01*
X-85598Y848857D01*
X-85626Y848559D01*
X-85674Y848272D01*
X-85740Y847996D01*
X-85825Y847732D01*
X-85929Y847480D01*
X-86052Y847239D01*
X-86194Y847010D01*
X-86354Y846792D01*
X-86534Y846586D01*
X-86732Y846391D01*
X-86950Y846207D01*
X-87186Y846036D01*
X-87441Y845875D01*
X-87716Y845727D01*
X-88009Y845589D01*
X-88309Y845469D01*
X-88605Y845372D01*
X-88898Y845298D01*
X-89186Y845247D01*
X-89470Y845219D01*
X-89750Y845214D01*
G37*
%LPC*%
G36*
X-140371Y777996D02*
X-140009Y778006D01*
X-139652Y778033D01*
X-139300Y778074D01*
X-138954Y778130D01*
X-138613Y778202D01*
X-138277Y778289D01*
X-137947Y778391D01*
X-137622Y778509D01*
X-137302Y778641D01*
X-136988Y778789D01*
X-136376Y779130D01*
X-135785Y779532D01*
X-135215Y779995D01*
X-134667Y780518D01*
X-134140Y781103D01*
X-133634Y781748D01*
X-133150Y782454D01*
X-132709Y783189D01*
X-132629Y783345D01*
X-132335Y783918D01*
X-132025Y784642D01*
X-131896Y785002D01*
X-131782Y785361D01*
X-131685Y785719D01*
X-131605Y786076D01*
X-131540Y786431D01*
X-131493Y786785D01*
X-131461Y787138D01*
X-131447Y787490D01*
X-131448Y787840D01*
X-131466Y788189D01*
X-131501Y788537D01*
X-131552Y788884D01*
X-131619Y789229D01*
X-131703Y789574D01*
X-131803Y789917D01*
X-131920Y790258D01*
X-132053Y790599D01*
X-132203Y790938D01*
X-132552Y791613D01*
X-132966Y792283D01*
X-133446Y792948D01*
X-133992Y793608D01*
X-134444Y794064D01*
X-134558Y794167D01*
X-134906Y794483D01*
X-135378Y794866D01*
X-135860Y795213D01*
X-136351Y795524D01*
X-136853Y795798D01*
X-137364Y796037D01*
X-137885Y796239D01*
X-138416Y796405D01*
X-138957Y796535D01*
X-139508Y796629D01*
X-140069Y796686D01*
X-140639Y796707D01*
X-141219Y796693D01*
X-141810Y796642D01*
X-142410Y796555D01*
X-143004Y796435D01*
X-143577Y796285D01*
X-143840Y796200D01*
X-144129Y796106D01*
X-144659Y795897D01*
X-145168Y795658D01*
X-145655Y795391D01*
X-146121Y795093D01*
X-146566Y794766D01*
X-146990Y794409D01*
X-147391Y794023D01*
X-147772Y793607D01*
X-148131Y793161D01*
X-148469Y792686D01*
X-148786Y792181D01*
X-149081Y791647D01*
X-149355Y791083D01*
X-149538Y790643D01*
X-149552Y790611D01*
X-149723Y790142D01*
X-149868Y789677D01*
X-149986Y789215D01*
X-150078Y788756D01*
X-150144Y788301D01*
X-150183Y787849D01*
X-150196Y787400D01*
X-150183Y786951D01*
X-150144Y786499D01*
X-150078Y786044D01*
X-149986Y785585D01*
X-149868Y785123D01*
X-149723Y784658D01*
X-149552Y784189D01*
X-149355Y783717D01*
X-149134Y783204D01*
X-148894Y782718D01*
X-148728Y782422D01*
X-148634Y782257D01*
X-148355Y781823D01*
X-148056Y781415D01*
X-147737Y781034D01*
X-147398Y780679D01*
X-147040Y780350D01*
X-146661Y780044D01*
X-146264Y779758D01*
X-145846Y779492D01*
X-145409Y779245D01*
X-144952Y779018D01*
X-144475Y778811D01*
X-143978Y778624D01*
X-143462Y778456D01*
X-142657Y778250D01*
X-142263Y778169D01*
X-141874Y778104D01*
X-141490Y778054D01*
X-141112Y778019D01*
X-140739Y778000D01*
X-140619Y777998D01*
X-140371Y777996D01*
G37*
%LPD*%
G36*
X-177976Y747941D02*
X-178362Y747942D01*
X-179052Y747945D01*
X-179635Y747947D01*
X-181139Y747967D01*
X-182489Y748000D01*
X-183684Y748046D01*
X-184725Y748105D01*
X-185231Y748147D01*
X-185611Y748178D01*
X-186343Y748263D01*
X-186920Y748362D01*
X-187402Y748487D01*
X-187847Y748651D01*
X-188256Y748855D01*
X-188630Y749098D01*
X-188779Y749224D01*
X-188967Y749381D01*
X-189268Y749703D01*
X-189532Y750065D01*
X-189761Y750466D01*
X-189813Y750598D01*
X-189866Y750782D01*
X-189956Y751234D01*
X-189971Y751307D01*
X-189971Y751308D01*
X-190077Y752045D01*
X-190159Y752791D01*
X-190182Y752992D01*
X-190254Y753844D01*
X-190274Y754070D01*
X-190340Y755201D01*
X-190379Y756385D01*
X-190392Y757621D01*
X-190384Y758833D01*
X-190359Y759943D01*
X-190318Y760951D01*
X-190261Y761857D01*
X-190187Y762661D01*
X-190120Y763176D01*
X-190096Y763363D01*
X-189989Y763963D01*
X-189866Y764461D01*
X-189713Y764893D01*
X-189518Y765296D01*
X-189279Y765669D01*
X-188998Y766013D01*
X-188674Y766327D01*
X-188307Y766612D01*
X-187898Y766866D01*
X-187715Y766957D01*
X-187446Y767092D01*
X-187306Y767144D01*
X-187097Y767197D01*
X-186473Y767302D01*
X-185572Y767407D01*
X-184394Y767513D01*
X-183007Y767605D01*
X-181474Y767670D01*
X-179797Y767710D01*
X-177976Y767723D01*
X-177854Y767722D01*
X-176114Y767704D01*
X-175828Y767702D01*
X-174841Y767675D01*
X-173911Y767638D01*
X-173328Y767605D01*
X-173175Y767597D01*
X-173039Y767589D01*
X-172225Y767531D01*
X-171467Y767461D01*
X-170768Y767381D01*
X-170126Y767290D01*
X-169541Y767189D01*
X-169014Y767076D01*
X-168545Y766954D01*
X-168133Y766820D01*
X-167779Y766676D01*
X-167746Y766658D01*
X-167482Y766521D01*
X-167243Y766355D01*
X-167039Y766161D01*
X-166848Y765923D01*
X-166671Y765639D01*
X-166506Y765309D01*
X-166355Y764935D01*
X-166217Y764515D01*
X-166092Y764050D01*
X-165980Y763540D01*
X-165881Y762985D01*
X-165796Y762385D01*
X-165724Y761739D01*
X-165680Y761229D01*
X-165664Y761048D01*
X-165618Y760312D01*
X-165585Y759530D01*
X-165566Y758704D01*
X-165559Y757832D01*
X-165566Y756935D01*
X-165585Y756086D01*
X-165618Y755284D01*
X-165632Y755068D01*
X-165664Y754536D01*
X-165664Y754530D01*
X-165724Y753824D01*
X-165796Y753166D01*
X-165881Y752555D01*
X-165980Y751992D01*
X-166092Y751476D01*
X-166217Y751009D01*
X-166355Y750589D01*
X-166506Y750216D01*
X-166671Y749892D01*
X-166848Y749615D01*
X-167039Y749385D01*
X-167243Y749203D01*
X-167482Y749051D01*
X-167779Y748908D01*
X-168133Y748774D01*
X-168545Y748651D01*
X-169014Y748538D01*
X-169541Y748434D01*
X-170126Y748340D01*
X-170768Y748256D01*
X-171467Y748182D01*
X-172225Y748118D01*
X-173039Y748064D01*
X-173911Y748020D01*
X-175828Y747961D01*
X-177976Y747941D01*
G37*
G36*
X-145777Y805814D02*
X-145777Y811917D01*
X-145770Y813667D01*
X-145751Y815127D01*
X-145718Y816297D01*
X-145672Y817179D01*
X-145637Y817537D01*
X-145586Y817876D01*
X-145519Y818195D01*
X-145435Y818494D01*
X-145335Y818773D01*
X-145218Y819033D01*
X-145085Y819273D01*
X-144935Y819494D01*
X-144710Y819944D01*
X-144455Y820348D01*
X-144171Y820707D01*
X-143857Y821019D01*
X-143513Y821286D01*
X-143140Y821506D01*
X-142737Y821680D01*
X-142305Y821808D01*
X-141852Y821894D01*
X-141390Y821940D01*
X-140919Y821947D01*
X-140437Y821914D01*
X-139945Y821841D01*
X-139444Y821730D01*
X-138932Y821578D01*
X-138411Y821388D01*
X-138059Y821164D01*
X-137740Y820914D01*
X-137454Y820638D01*
X-137201Y820335D01*
X-136981Y820006D01*
X-136793Y819651D01*
X-136639Y819270D01*
X-136517Y818862D01*
X-136419Y818395D01*
X-136333Y817836D01*
X-136261Y817185D01*
X-136202Y816442D01*
X-136155Y815607D01*
X-136123Y814679D01*
X-136103Y813660D01*
X-136096Y812549D01*
X-136096Y807077D01*
X-138411Y807077D01*
X-139050Y807060D01*
X-139411Y807051D01*
X-140726Y806972D01*
X-141436Y806899D01*
X-142094Y806788D01*
X-142699Y806636D01*
X-143252Y806446D01*
X-145777Y805814D01*
G37*
G36*
X-140937Y752781D02*
X-141206Y752794D01*
X-141489Y752834D01*
X-141785Y752899D01*
X-142094Y752992D01*
X-142416Y753110D01*
X-142752Y753255D01*
X-143100Y753426D01*
X-143462Y753623D01*
X-143814Y753837D01*
X-144133Y754057D01*
X-144224Y754129D01*
X-144284Y754177D01*
X-144419Y754284D01*
X-144672Y754517D01*
X-144892Y754757D01*
X-145080Y755004D01*
X-145234Y755257D01*
X-145356Y755517D01*
X-145407Y755648D01*
X-145455Y755833D01*
X-145540Y756359D01*
X-145613Y757095D01*
X-145672Y758042D01*
X-145718Y759121D01*
X-145751Y760252D01*
X-145770Y761436D01*
X-145777Y762672D01*
X-145777Y768986D01*
X-143462Y768354D01*
X-143242Y768254D01*
X-143002Y768164D01*
X-142742Y768083D01*
X-142462Y768012D01*
X-141844Y767901D01*
X-141517Y767867D01*
X-141147Y767828D01*
X-140172Y767772D01*
X-139779Y767749D01*
X-138622Y767723D01*
X-136096Y767723D01*
X-136096Y762251D01*
X-136103Y761120D01*
X-136123Y760042D01*
X-136155Y759016D01*
X-136202Y758042D01*
X-136261Y757174D01*
X-136284Y756944D01*
X-136292Y756864D01*
X-136333Y756464D01*
X-136419Y755912D01*
X-136517Y755517D01*
X-136685Y755257D01*
X-136872Y755004D01*
X-137079Y754757D01*
X-137306Y754517D01*
X-137553Y754284D01*
X-137819Y754057D01*
X-138105Y753837D01*
X-138411Y753623D01*
X-138727Y753426D01*
X-139043Y753255D01*
X-139358Y753110D01*
X-139674Y752992D01*
X-139990Y752899D01*
X-140305Y752834D01*
X-140621Y752794D01*
X-140937Y752781D01*
G37*
G36*
X-108738Y747941D02*
X-110632Y747941D01*
X-111000Y747952D01*
X-111369Y747987D01*
X-111737Y748044D01*
X-112105Y748125D01*
X-112473Y748229D01*
X-112842Y748355D01*
X-113210Y748505D01*
X-113578Y748677D01*
X-113933Y748866D01*
X-114262Y749065D01*
X-114565Y749274D01*
X-114841Y749493D01*
X-115091Y749721D01*
X-115314Y749960D01*
X-115512Y750208D01*
X-115683Y750466D01*
X-115781Y750856D01*
X-115867Y751393D01*
X-115939Y752079D01*
X-115998Y752913D01*
X-116044Y753894D01*
X-116077Y755024D01*
X-116097Y756301D01*
X-116104Y757727D01*
X-116097Y759152D01*
X-116077Y760430D01*
X-116044Y761559D01*
X-115998Y762541D01*
X-115939Y763374D01*
X-115884Y763902D01*
X-115873Y764004D01*
X-115867Y764060D01*
X-115781Y764598D01*
X-115683Y764987D01*
X-115513Y765247D01*
X-115321Y765500D01*
X-115106Y765747D01*
X-114867Y765987D01*
X-114606Y766220D01*
X-114321Y766447D01*
X-114014Y766667D01*
X-113683Y766881D01*
X-113337Y767079D01*
X-112980Y767249D01*
X-112613Y767394D01*
X-112237Y767513D01*
X-111850Y767605D01*
X-111454Y767670D01*
X-111048Y767710D01*
X-110632Y767723D01*
X-108738Y767723D01*
X-108738Y747941D01*
G37*
G36*
X-108738Y807077D02*
X-110632Y807077D01*
X-111000Y807090D01*
X-111369Y807130D01*
X-111737Y807195D01*
X-112105Y807287D01*
X-112473Y807406D01*
X-112842Y807551D01*
X-113210Y807722D01*
X-113578Y807919D01*
X-113933Y808133D01*
X-114262Y808353D01*
X-114565Y808580D01*
X-114841Y808813D01*
X-115091Y809053D01*
X-115314Y809300D01*
X-115512Y809553D01*
X-115683Y809813D01*
X-115781Y810155D01*
X-115867Y810655D01*
X-115939Y811312D01*
X-115998Y812128D01*
X-116044Y813101D01*
X-116077Y814232D01*
X-116097Y815521D01*
X-116104Y816968D01*
X-116097Y818415D01*
X-116077Y819704D01*
X-116044Y820835D01*
X-115998Y821808D01*
X-115939Y822624D01*
X-115867Y823282D01*
X-115827Y823513D01*
X-115781Y823781D01*
X-115683Y824123D01*
X-115513Y824431D01*
X-115321Y824722D01*
X-115106Y824996D01*
X-114867Y825255D01*
X-114606Y825496D01*
X-114321Y825721D01*
X-114014Y825930D01*
X-113683Y826123D01*
X-113337Y826295D01*
X-112980Y826445D01*
X-112733Y826530D01*
X-112613Y826572D01*
X-112237Y826675D01*
X-111850Y826756D01*
X-111454Y826813D01*
X-111048Y826848D01*
X-110632Y826859D01*
X-108738Y826859D01*
X-108738Y807077D01*
G37*
G36*
X-97163Y747941D02*
X-98847Y747941D01*
X-98847Y767723D01*
X-97163Y767723D01*
X-96747Y767710D01*
X-96341Y767670D01*
X-95945Y767605D01*
X-95559Y767513D01*
X-95182Y767394D01*
X-94815Y767249D01*
X-94459Y767079D01*
X-94112Y766881D01*
X-93781Y766667D01*
X-93474Y766447D01*
X-93189Y766220D01*
X-92928Y765987D01*
X-92689Y765747D01*
X-92474Y765500D01*
X-92282Y765247D01*
X-92112Y764987D01*
X-92007Y764586D01*
X-91902Y764014D01*
X-91797Y763271D01*
X-91692Y762357D01*
X-91599Y761324D01*
X-91534Y760226D01*
X-91494Y759062D01*
X-91481Y757832D01*
X-91494Y756510D01*
X-91534Y755280D01*
X-91599Y754142D01*
X-91692Y753097D01*
X-91797Y752183D01*
X-91902Y751439D01*
X-92007Y750867D01*
X-92112Y750466D01*
X-92282Y750208D01*
X-92474Y749960D01*
X-92689Y749721D01*
X-92928Y749493D01*
X-93103Y749347D01*
X-93189Y749274D01*
X-93474Y749065D01*
X-93781Y748866D01*
X-94112Y748677D01*
X-94459Y748505D01*
X-94815Y748355D01*
X-95182Y748229D01*
X-95559Y748125D01*
X-95945Y748044D01*
X-96341Y747987D01*
X-96747Y747952D01*
X-97163Y747941D01*
G37*
G36*
X-48549Y752781D02*
X-48817Y752794D01*
X-49095Y752834D01*
X-49383Y752899D01*
X-49681Y752992D01*
X-49988Y753110D01*
X-50305Y753255D01*
X-50633Y753426D01*
X-50970Y753623D01*
X-51300Y753837D01*
X-51608Y754057D01*
X-51892Y754284D01*
X-52153Y754517D01*
X-52392Y754757D01*
X-52607Y755004D01*
X-52800Y755257D01*
X-52969Y755517D01*
X-53091Y755807D01*
X-53192Y756097D01*
X-53275Y756389D01*
X-53337Y756681D01*
X-53380Y756974D01*
X-53403Y757268D01*
X-53406Y757563D01*
X-53390Y757858D01*
X-53354Y758155D01*
X-53298Y758452D01*
X-53222Y758750D01*
X-53127Y759049D01*
X-53012Y759348D01*
X-52877Y759649D01*
X-52722Y759950D01*
X-52548Y760252D01*
X-52360Y760545D01*
X-52163Y760819D01*
X-51959Y761075D01*
X-51746Y761311D01*
X-51524Y761528D01*
X-51295Y761727D01*
X-51058Y761906D01*
X-50812Y762067D01*
X-50558Y762209D01*
X-50295Y762332D01*
X-50025Y762436D01*
X-49746Y762521D01*
X-49459Y762587D01*
X-49164Y762634D01*
X-48861Y762663D01*
X-48549Y762672D01*
X-48081Y762649D01*
X-47622Y762580D01*
X-47173Y762465D01*
X-46734Y762304D01*
X-46305Y762097D01*
X-45886Y761844D01*
X-45477Y761544D01*
X-45077Y761199D01*
X-44707Y760824D01*
X-44386Y760436D01*
X-44115Y760035D01*
X-43893Y759621D01*
X-43721Y759193D01*
X-43597Y758753D01*
X-43523Y758299D01*
X-43505Y758067D01*
X-43499Y757832D01*
X-43505Y757596D01*
X-43523Y757363D01*
X-43597Y756905D01*
X-43721Y756456D01*
X-43893Y756017D01*
X-44115Y755588D01*
X-44386Y755168D01*
X-44707Y754759D01*
X-45077Y754359D01*
X-45477Y753990D01*
X-45886Y753669D01*
X-46305Y753398D01*
X-46734Y753176D01*
X-47173Y753003D01*
X-47622Y752880D01*
X-48081Y752806D01*
X-48314Y752787D01*
X-48549Y752781D01*
G37*
G36*
X-48549Y812128D02*
X-48817Y812141D01*
X-49095Y812180D01*
X-49383Y812246D01*
X-49681Y812338D01*
X-49988Y812457D01*
X-50305Y812601D01*
X-50633Y812772D01*
X-50970Y812970D01*
X-51300Y813183D01*
X-51608Y813404D01*
X-51892Y813631D01*
X-52153Y813864D01*
X-52392Y814104D01*
X-52607Y814351D01*
X-52800Y814604D01*
X-52969Y814864D01*
X-53091Y815153D01*
X-53192Y815444D01*
X-53275Y815735D01*
X-53337Y816028D01*
X-53380Y816321D01*
X-53403Y816615D01*
X-53406Y816909D01*
X-53390Y817205D01*
X-53354Y817501D01*
X-53298Y817798D01*
X-53222Y818096D01*
X-53127Y818395D01*
X-53012Y818695D01*
X-52877Y818995D01*
X-52722Y819297D01*
X-52548Y819599D01*
X-52360Y819892D01*
X-52163Y820166D01*
X-51959Y820421D01*
X-51746Y820658D01*
X-51524Y820875D01*
X-51295Y821074D01*
X-51058Y821253D01*
X-50812Y821414D01*
X-50558Y821556D01*
X-50295Y821679D01*
X-50025Y821783D01*
X-49746Y821868D01*
X-49459Y821934D01*
X-49164Y821981D01*
X-48861Y822009D01*
X-48549Y822019D01*
X-48314Y822013D01*
X-48081Y821994D01*
X-47622Y821920D01*
X-47173Y821797D01*
X-46734Y821624D01*
X-46305Y821402D01*
X-45886Y821131D01*
X-45477Y820810D01*
X-45077Y820441D01*
X-44707Y820041D01*
X-44386Y819632D01*
X-44115Y819212D01*
X-43893Y818783D01*
X-43721Y818344D01*
X-43597Y817895D01*
X-43523Y817437D01*
X-43505Y817204D01*
X-43499Y816968D01*
X-43505Y816733D01*
X-43523Y816501D01*
X-43597Y816047D01*
X-43721Y815607D01*
X-43893Y815179D01*
X-44115Y814765D01*
X-44386Y814364D01*
X-44707Y813976D01*
X-45077Y813601D01*
X-45477Y813256D01*
X-45886Y812956D01*
X-46305Y812703D01*
X-46734Y812496D01*
X-47173Y812335D01*
X-47622Y812220D01*
X-48081Y812151D01*
X-48549Y812128D01*
G37*
D10*
X-105410Y628650D02*
X-105410Y615950D01*
X180340Y425450D02*
X180340Y412750D01*
X181610Y514350D02*
X181610Y527050D01*
X-105410Y374650D02*
X-105410Y361950D01*
D11*
X-50800Y635000D02*
X-50800Y25400D01*
X127000Y25400D02*
X127000Y635000D01*
X-50800Y635000D01*
X-50800Y25400D02*
X127000Y25400D01*
X-17907Y30030D02*
X-24765Y32316D01*
X-17907Y34602D01*
X-17907Y38169D02*
X-24765Y38169D01*
X-24765Y37407D02*
X-24765Y38931D01*
X-17907Y38931D02*
X-17907Y37407D01*
X-17907Y42360D02*
X-24765Y42360D01*
X-24765Y46170D02*
X-17907Y42360D01*
X-17907Y46170D02*
X-24765Y46170D01*
X-17907Y187033D02*
X-17909Y187115D01*
X-17915Y187196D01*
X-17924Y187277D01*
X-17938Y187358D01*
X-17955Y187437D01*
X-17976Y187516D01*
X-18001Y187594D01*
X-18030Y187670D01*
X-18062Y187745D01*
X-18098Y187819D01*
X-18137Y187891D01*
X-18179Y187960D01*
X-18225Y188028D01*
X-18274Y188093D01*
X-18326Y188156D01*
X-18381Y188216D01*
X-18439Y188274D01*
X-18499Y188329D01*
X-18562Y188381D01*
X-18627Y188430D01*
X-18695Y188476D01*
X-18765Y188518D01*
X-18836Y188557D01*
X-18910Y188593D01*
X-18985Y188625D01*
X-19061Y188654D01*
X-19139Y188679D01*
X-19218Y188700D01*
X-19297Y188717D01*
X-19378Y188731D01*
X-19459Y188740D01*
X-19540Y188746D01*
X-19622Y188748D01*
X-17907Y187033D02*
X-17909Y186941D01*
X-17915Y186849D01*
X-17924Y186757D01*
X-17938Y186665D01*
X-17955Y186575D01*
X-17976Y186485D01*
X-18001Y186396D01*
X-18030Y186308D01*
X-18062Y186221D01*
X-18098Y186136D01*
X-18137Y186053D01*
X-18180Y185971D01*
X-18226Y185891D01*
X-18276Y185813D01*
X-18328Y185737D01*
X-18384Y185664D01*
X-18443Y185593D01*
X-18505Y185524D01*
X-18570Y185458D01*
X-18637Y185395D01*
X-18707Y185335D01*
X-18779Y185277D01*
X-18854Y185223D01*
X-18931Y185172D01*
X-19010Y185124D01*
X-19091Y185080D01*
X-19174Y185039D01*
X-19258Y185001D01*
X-19344Y184967D01*
X-19431Y184937D01*
X-20956Y188176D02*
X-20897Y188235D01*
X-20836Y188291D01*
X-20773Y188344D01*
X-20707Y188395D01*
X-20639Y188442D01*
X-20569Y188486D01*
X-20497Y188527D01*
X-20423Y188565D01*
X-20348Y188599D01*
X-20271Y188630D01*
X-20193Y188657D01*
X-20113Y188681D01*
X-20033Y188702D01*
X-19952Y188718D01*
X-19870Y188731D01*
X-19788Y188741D01*
X-19705Y188746D01*
X-19622Y188748D01*
X-20955Y188176D02*
X-24765Y184937D01*
X-24765Y188747D01*
X-21336Y192252D02*
X-21194Y192254D01*
X-21051Y192259D01*
X-20909Y192268D01*
X-20767Y192281D01*
X-20626Y192297D01*
X-20485Y192316D01*
X-20344Y192340D01*
X-20204Y192366D01*
X-20065Y192397D01*
X-19927Y192431D01*
X-19789Y192468D01*
X-19653Y192508D01*
X-19517Y192553D01*
X-19383Y192600D01*
X-19250Y192651D01*
X-19118Y192705D01*
X-18988Y192763D01*
X-18859Y192824D01*
X-18860Y192824D02*
X-18791Y192850D01*
X-18725Y192879D01*
X-18659Y192911D01*
X-18596Y192946D01*
X-18534Y192985D01*
X-18474Y193027D01*
X-18417Y193072D01*
X-18362Y193120D01*
X-18310Y193171D01*
X-18260Y193224D01*
X-18214Y193280D01*
X-18170Y193338D01*
X-18129Y193399D01*
X-18091Y193461D01*
X-18057Y193525D01*
X-18026Y193591D01*
X-17998Y193659D01*
X-17974Y193728D01*
X-17954Y193798D01*
X-17937Y193869D01*
X-17924Y193940D01*
X-17915Y194012D01*
X-17909Y194085D01*
X-17907Y194158D01*
X-17909Y194231D01*
X-17915Y194304D01*
X-17924Y194376D01*
X-17937Y194447D01*
X-17954Y194518D01*
X-17974Y194588D01*
X-17998Y194657D01*
X-18026Y194725D01*
X-18057Y194791D01*
X-18091Y194855D01*
X-18129Y194917D01*
X-18170Y194978D01*
X-18214Y195036D01*
X-18260Y195092D01*
X-18310Y195145D01*
X-18362Y195196D01*
X-18417Y195244D01*
X-18474Y195289D01*
X-18534Y195331D01*
X-18596Y195370D01*
X-18659Y195405D01*
X-18725Y195437D01*
X-18791Y195466D01*
X-18860Y195492D01*
X-18859Y195491D02*
X-18988Y195552D01*
X-19118Y195610D01*
X-19250Y195664D01*
X-19383Y195715D01*
X-19517Y195762D01*
X-19653Y195807D01*
X-19789Y195847D01*
X-19927Y195884D01*
X-20065Y195918D01*
X-20204Y195949D01*
X-20344Y195975D01*
X-20485Y195999D01*
X-20626Y196018D01*
X-20767Y196034D01*
X-20909Y196047D01*
X-21051Y196056D01*
X-21194Y196061D01*
X-21336Y196063D01*
X-21336Y192252D02*
X-21478Y192254D01*
X-21621Y192259D01*
X-21763Y192268D01*
X-21905Y192281D01*
X-22046Y192297D01*
X-22187Y192316D01*
X-22328Y192340D01*
X-22468Y192366D01*
X-22607Y192397D01*
X-22745Y192431D01*
X-22883Y192468D01*
X-23019Y192508D01*
X-23155Y192553D01*
X-23289Y192600D01*
X-23422Y192651D01*
X-23554Y192705D01*
X-23684Y192763D01*
X-23813Y192824D01*
X-23812Y192824D02*
X-23881Y192850D01*
X-23947Y192879D01*
X-24013Y192911D01*
X-24076Y192946D01*
X-24138Y192985D01*
X-24198Y193027D01*
X-24255Y193072D01*
X-24310Y193120D01*
X-24362Y193171D01*
X-24412Y193224D01*
X-24458Y193280D01*
X-24502Y193338D01*
X-24543Y193399D01*
X-24581Y193461D01*
X-24615Y193525D01*
X-24646Y193591D01*
X-24674Y193659D01*
X-24698Y193728D01*
X-24718Y193798D01*
X-24735Y193869D01*
X-24748Y193940D01*
X-24757Y194012D01*
X-24763Y194085D01*
X-24765Y194158D01*
X-23813Y195491D02*
X-23684Y195552D01*
X-23554Y195610D01*
X-23422Y195664D01*
X-23289Y195715D01*
X-23155Y195762D01*
X-23019Y195807D01*
X-22883Y195847D01*
X-22745Y195884D01*
X-22607Y195918D01*
X-22468Y195949D01*
X-22328Y195975D01*
X-22187Y195999D01*
X-22046Y196018D01*
X-21905Y196034D01*
X-21763Y196047D01*
X-21621Y196056D01*
X-21478Y196061D01*
X-21336Y196063D01*
X-23812Y195492D02*
X-23881Y195466D01*
X-23947Y195437D01*
X-24013Y195405D01*
X-24076Y195370D01*
X-24138Y195331D01*
X-24198Y195289D01*
X-24255Y195244D01*
X-24310Y195196D01*
X-24362Y195145D01*
X-24412Y195092D01*
X-24458Y195036D01*
X-24502Y194978D01*
X-24543Y194917D01*
X-24581Y194855D01*
X-24615Y194791D01*
X-24646Y194725D01*
X-24674Y194657D01*
X-24698Y194588D01*
X-24718Y194518D01*
X-24735Y194447D01*
X-24748Y194376D01*
X-24757Y194304D01*
X-24763Y194231D01*
X-24765Y194158D01*
X-23241Y192634D02*
X-19431Y195682D01*
X-19431Y210337D02*
X-17907Y212242D01*
X-24765Y212242D01*
X-24765Y210337D02*
X-24765Y214147D01*
X-21717Y219177D02*
X-21717Y221463D01*
X-21717Y219177D02*
X-21715Y219100D01*
X-21709Y219023D01*
X-21699Y218946D01*
X-21686Y218870D01*
X-21668Y218795D01*
X-21647Y218721D01*
X-21622Y218648D01*
X-21593Y218576D01*
X-21561Y218506D01*
X-21526Y218437D01*
X-21486Y218371D01*
X-21444Y218306D01*
X-21398Y218244D01*
X-21349Y218184D01*
X-21298Y218127D01*
X-21243Y218072D01*
X-21186Y218021D01*
X-21126Y217972D01*
X-21064Y217926D01*
X-20999Y217884D01*
X-20933Y217844D01*
X-20864Y217809D01*
X-20794Y217777D01*
X-20722Y217748D01*
X-20649Y217723D01*
X-20575Y217702D01*
X-20500Y217684D01*
X-20424Y217671D01*
X-20347Y217661D01*
X-20270Y217655D01*
X-20193Y217653D01*
X-19812Y217653D01*
X-19727Y217655D01*
X-19641Y217661D01*
X-19556Y217670D01*
X-19472Y217684D01*
X-19388Y217701D01*
X-19305Y217722D01*
X-19223Y217746D01*
X-19143Y217774D01*
X-19063Y217806D01*
X-18985Y217842D01*
X-18909Y217880D01*
X-18835Y217923D01*
X-18763Y217968D01*
X-18692Y218017D01*
X-18624Y218069D01*
X-18559Y218123D01*
X-18496Y218181D01*
X-18435Y218242D01*
X-18377Y218305D01*
X-18323Y218370D01*
X-18271Y218438D01*
X-18222Y218509D01*
X-18177Y218581D01*
X-18134Y218655D01*
X-18096Y218731D01*
X-18060Y218809D01*
X-18028Y218889D01*
X-18000Y218969D01*
X-17976Y219051D01*
X-17955Y219134D01*
X-17938Y219218D01*
X-17924Y219302D01*
X-17915Y219387D01*
X-17909Y219473D01*
X-17907Y219558D01*
X-17909Y219643D01*
X-17915Y219729D01*
X-17924Y219814D01*
X-17938Y219898D01*
X-17955Y219982D01*
X-17976Y220065D01*
X-18000Y220147D01*
X-18028Y220227D01*
X-18060Y220307D01*
X-18096Y220385D01*
X-18134Y220461D01*
X-18177Y220535D01*
X-18222Y220607D01*
X-18271Y220678D01*
X-18323Y220746D01*
X-18377Y220811D01*
X-18435Y220874D01*
X-18496Y220935D01*
X-18559Y220993D01*
X-18624Y221047D01*
X-18692Y221099D01*
X-18763Y221148D01*
X-18835Y221193D01*
X-18909Y221236D01*
X-18985Y221274D01*
X-19063Y221310D01*
X-19143Y221342D01*
X-19223Y221370D01*
X-19305Y221394D01*
X-19388Y221415D01*
X-19472Y221432D01*
X-19556Y221446D01*
X-19641Y221455D01*
X-19727Y221461D01*
X-19812Y221463D01*
X-21717Y221463D01*
X-21826Y221461D01*
X-21934Y221455D01*
X-22043Y221446D01*
X-22151Y221432D01*
X-22258Y221415D01*
X-22365Y221393D01*
X-22471Y221368D01*
X-22576Y221340D01*
X-22680Y221307D01*
X-22782Y221271D01*
X-22883Y221231D01*
X-22983Y221188D01*
X-23081Y221141D01*
X-23178Y221090D01*
X-23272Y221036D01*
X-23365Y220979D01*
X-23455Y220919D01*
X-23544Y220855D01*
X-23630Y220788D01*
X-23713Y220719D01*
X-23794Y220646D01*
X-23872Y220570D01*
X-23948Y220492D01*
X-24021Y220411D01*
X-24090Y220328D01*
X-24157Y220242D01*
X-24221Y220153D01*
X-24281Y220063D01*
X-24338Y219970D01*
X-24392Y219876D01*
X-24443Y219779D01*
X-24490Y219681D01*
X-24533Y219581D01*
X-24573Y219480D01*
X-24609Y219378D01*
X-24642Y219274D01*
X-24670Y219169D01*
X-24695Y219063D01*
X-24717Y218956D01*
X-24734Y218849D01*
X-24748Y218741D01*
X-24757Y218632D01*
X-24763Y218524D01*
X-24765Y218415D01*
X-19431Y235737D02*
X-17907Y237642D01*
X-24765Y237642D01*
X-24765Y235737D02*
X-24765Y239547D01*
X-22860Y243053D02*
X-22775Y243055D01*
X-22689Y243061D01*
X-22604Y243070D01*
X-22520Y243084D01*
X-22436Y243101D01*
X-22353Y243122D01*
X-22271Y243146D01*
X-22191Y243174D01*
X-22111Y243206D01*
X-22033Y243242D01*
X-21957Y243280D01*
X-21883Y243323D01*
X-21811Y243368D01*
X-21740Y243417D01*
X-21672Y243469D01*
X-21607Y243523D01*
X-21544Y243581D01*
X-21483Y243642D01*
X-21425Y243705D01*
X-21371Y243770D01*
X-21319Y243838D01*
X-21270Y243909D01*
X-21225Y243981D01*
X-21182Y244055D01*
X-21144Y244131D01*
X-21108Y244209D01*
X-21076Y244289D01*
X-21048Y244369D01*
X-21024Y244451D01*
X-21003Y244534D01*
X-20986Y244618D01*
X-20972Y244702D01*
X-20963Y244787D01*
X-20957Y244873D01*
X-20955Y244958D01*
X-20957Y245043D01*
X-20963Y245129D01*
X-20972Y245214D01*
X-20986Y245298D01*
X-21003Y245382D01*
X-21024Y245465D01*
X-21048Y245547D01*
X-21076Y245627D01*
X-21108Y245707D01*
X-21144Y245785D01*
X-21182Y245861D01*
X-21225Y245935D01*
X-21270Y246007D01*
X-21319Y246078D01*
X-21371Y246146D01*
X-21425Y246211D01*
X-21483Y246274D01*
X-21544Y246335D01*
X-21607Y246393D01*
X-21672Y246447D01*
X-21740Y246499D01*
X-21811Y246548D01*
X-21883Y246593D01*
X-21957Y246636D01*
X-22033Y246674D01*
X-22111Y246710D01*
X-22191Y246742D01*
X-22271Y246770D01*
X-22353Y246794D01*
X-22436Y246815D01*
X-22520Y246832D01*
X-22604Y246846D01*
X-22689Y246855D01*
X-22775Y246861D01*
X-22860Y246863D01*
X-22945Y246861D01*
X-23031Y246855D01*
X-23116Y246846D01*
X-23200Y246832D01*
X-23284Y246815D01*
X-23367Y246794D01*
X-23449Y246770D01*
X-23529Y246742D01*
X-23609Y246710D01*
X-23687Y246674D01*
X-23763Y246636D01*
X-23837Y246593D01*
X-23909Y246548D01*
X-23980Y246499D01*
X-24048Y246447D01*
X-24113Y246393D01*
X-24176Y246335D01*
X-24237Y246274D01*
X-24295Y246211D01*
X-24349Y246146D01*
X-24401Y246078D01*
X-24450Y246007D01*
X-24495Y245935D01*
X-24538Y245861D01*
X-24576Y245785D01*
X-24612Y245707D01*
X-24644Y245627D01*
X-24672Y245547D01*
X-24696Y245465D01*
X-24717Y245382D01*
X-24734Y245298D01*
X-24748Y245214D01*
X-24757Y245129D01*
X-24763Y245043D01*
X-24765Y244958D01*
X-24763Y244873D01*
X-24757Y244787D01*
X-24748Y244702D01*
X-24734Y244618D01*
X-24717Y244534D01*
X-24696Y244451D01*
X-24672Y244369D01*
X-24644Y244289D01*
X-24612Y244209D01*
X-24576Y244131D01*
X-24538Y244055D01*
X-24495Y243981D01*
X-24450Y243909D01*
X-24401Y243838D01*
X-24349Y243770D01*
X-24295Y243705D01*
X-24237Y243642D01*
X-24176Y243581D01*
X-24113Y243523D01*
X-24048Y243469D01*
X-23980Y243417D01*
X-23909Y243368D01*
X-23837Y243323D01*
X-23763Y243280D01*
X-23687Y243242D01*
X-23609Y243206D01*
X-23529Y243174D01*
X-23449Y243146D01*
X-23367Y243122D01*
X-23284Y243101D01*
X-23200Y243084D01*
X-23116Y243070D01*
X-23031Y243061D01*
X-22945Y243055D01*
X-22860Y243053D01*
X-19431Y243434D02*
X-19354Y243436D01*
X-19277Y243442D01*
X-19200Y243452D01*
X-19124Y243465D01*
X-19049Y243483D01*
X-18975Y243504D01*
X-18902Y243529D01*
X-18830Y243558D01*
X-18760Y243590D01*
X-18691Y243625D01*
X-18625Y243665D01*
X-18560Y243707D01*
X-18498Y243753D01*
X-18438Y243802D01*
X-18381Y243853D01*
X-18326Y243908D01*
X-18275Y243965D01*
X-18226Y244025D01*
X-18180Y244087D01*
X-18138Y244152D01*
X-18098Y244218D01*
X-18063Y244287D01*
X-18031Y244357D01*
X-18002Y244429D01*
X-17977Y244502D01*
X-17956Y244576D01*
X-17938Y244651D01*
X-17925Y244727D01*
X-17915Y244804D01*
X-17909Y244881D01*
X-17907Y244958D01*
X-17909Y245035D01*
X-17915Y245112D01*
X-17925Y245189D01*
X-17938Y245265D01*
X-17956Y245340D01*
X-17977Y245414D01*
X-18002Y245487D01*
X-18031Y245559D01*
X-18063Y245629D01*
X-18098Y245698D01*
X-18138Y245764D01*
X-18180Y245829D01*
X-18226Y245891D01*
X-18275Y245951D01*
X-18326Y246008D01*
X-18381Y246063D01*
X-18438Y246114D01*
X-18498Y246163D01*
X-18560Y246209D01*
X-18625Y246251D01*
X-18691Y246291D01*
X-18760Y246326D01*
X-18830Y246358D01*
X-18902Y246387D01*
X-18975Y246412D01*
X-19049Y246433D01*
X-19124Y246451D01*
X-19200Y246464D01*
X-19277Y246474D01*
X-19354Y246480D01*
X-19431Y246482D01*
X-19508Y246480D01*
X-19585Y246474D01*
X-19662Y246464D01*
X-19738Y246451D01*
X-19813Y246433D01*
X-19887Y246412D01*
X-19960Y246387D01*
X-20032Y246358D01*
X-20102Y246326D01*
X-20171Y246291D01*
X-20237Y246251D01*
X-20302Y246209D01*
X-20364Y246163D01*
X-20424Y246114D01*
X-20481Y246063D01*
X-20536Y246008D01*
X-20587Y245951D01*
X-20636Y245891D01*
X-20682Y245829D01*
X-20724Y245764D01*
X-20764Y245698D01*
X-20799Y245629D01*
X-20831Y245559D01*
X-20860Y245487D01*
X-20885Y245414D01*
X-20906Y245340D01*
X-20924Y245265D01*
X-20937Y245189D01*
X-20947Y245112D01*
X-20953Y245035D01*
X-20955Y244958D01*
X-20953Y244881D01*
X-20947Y244804D01*
X-20937Y244727D01*
X-20924Y244651D01*
X-20906Y244576D01*
X-20885Y244502D01*
X-20860Y244429D01*
X-20831Y244357D01*
X-20799Y244287D01*
X-20764Y244218D01*
X-20724Y244152D01*
X-20682Y244087D01*
X-20636Y244025D01*
X-20587Y243965D01*
X-20536Y243908D01*
X-20481Y243853D01*
X-20424Y243802D01*
X-20364Y243753D01*
X-20302Y243707D01*
X-20237Y243665D01*
X-20171Y243625D01*
X-20102Y243590D01*
X-20032Y243558D01*
X-19960Y243529D01*
X-19887Y243504D01*
X-19813Y243483D01*
X-19738Y243465D01*
X-19662Y243452D01*
X-19585Y243442D01*
X-19508Y243436D01*
X-19431Y243434D01*
X-19431Y261137D02*
X-17907Y263042D01*
X-24765Y263042D01*
X-24765Y261137D02*
X-24765Y264947D01*
X-18669Y268453D02*
X-17907Y268453D01*
X-17907Y272263D01*
X-24765Y270358D01*
X-19431Y286537D02*
X-17907Y288442D01*
X-24765Y288442D01*
X-24765Y286537D02*
X-24765Y290347D01*
X-20955Y293853D02*
X-20955Y296139D01*
X-20957Y296216D01*
X-20963Y296293D01*
X-20973Y296370D01*
X-20986Y296446D01*
X-21004Y296521D01*
X-21025Y296595D01*
X-21050Y296668D01*
X-21079Y296740D01*
X-21111Y296810D01*
X-21146Y296879D01*
X-21186Y296945D01*
X-21228Y297010D01*
X-21274Y297072D01*
X-21323Y297132D01*
X-21374Y297189D01*
X-21429Y297244D01*
X-21486Y297295D01*
X-21546Y297344D01*
X-21608Y297390D01*
X-21673Y297432D01*
X-21739Y297472D01*
X-21808Y297507D01*
X-21878Y297539D01*
X-21950Y297568D01*
X-22023Y297593D01*
X-22097Y297614D01*
X-22172Y297632D01*
X-22248Y297645D01*
X-22325Y297655D01*
X-22402Y297661D01*
X-22479Y297663D01*
X-22860Y297663D01*
X-22945Y297661D01*
X-23031Y297655D01*
X-23116Y297646D01*
X-23200Y297632D01*
X-23284Y297615D01*
X-23367Y297594D01*
X-23449Y297570D01*
X-23529Y297542D01*
X-23609Y297510D01*
X-23687Y297474D01*
X-23763Y297436D01*
X-23837Y297393D01*
X-23909Y297348D01*
X-23980Y297299D01*
X-24048Y297247D01*
X-24113Y297193D01*
X-24176Y297135D01*
X-24237Y297074D01*
X-24295Y297011D01*
X-24349Y296946D01*
X-24401Y296878D01*
X-24450Y296807D01*
X-24495Y296735D01*
X-24538Y296661D01*
X-24576Y296585D01*
X-24612Y296507D01*
X-24644Y296427D01*
X-24672Y296347D01*
X-24696Y296265D01*
X-24717Y296182D01*
X-24734Y296098D01*
X-24748Y296014D01*
X-24757Y295929D01*
X-24763Y295843D01*
X-24765Y295758D01*
X-24763Y295673D01*
X-24757Y295587D01*
X-24748Y295502D01*
X-24734Y295418D01*
X-24717Y295334D01*
X-24696Y295251D01*
X-24672Y295169D01*
X-24644Y295089D01*
X-24612Y295009D01*
X-24576Y294931D01*
X-24538Y294855D01*
X-24495Y294781D01*
X-24450Y294709D01*
X-24401Y294638D01*
X-24349Y294570D01*
X-24295Y294505D01*
X-24237Y294442D01*
X-24176Y294381D01*
X-24113Y294323D01*
X-24048Y294269D01*
X-23980Y294217D01*
X-23909Y294168D01*
X-23837Y294123D01*
X-23763Y294080D01*
X-23687Y294042D01*
X-23609Y294006D01*
X-23529Y293974D01*
X-23449Y293946D01*
X-23367Y293922D01*
X-23284Y293901D01*
X-23200Y293884D01*
X-23116Y293870D01*
X-23031Y293861D01*
X-22945Y293855D01*
X-22860Y293853D01*
X-20955Y293853D01*
X-20846Y293855D01*
X-20738Y293861D01*
X-20629Y293870D01*
X-20521Y293884D01*
X-20414Y293901D01*
X-20307Y293923D01*
X-20201Y293948D01*
X-20096Y293976D01*
X-19992Y294009D01*
X-19890Y294045D01*
X-19789Y294085D01*
X-19689Y294128D01*
X-19591Y294175D01*
X-19494Y294226D01*
X-19400Y294280D01*
X-19307Y294337D01*
X-19217Y294397D01*
X-19128Y294461D01*
X-19042Y294528D01*
X-18959Y294597D01*
X-18878Y294670D01*
X-18800Y294746D01*
X-18724Y294824D01*
X-18651Y294905D01*
X-18582Y294988D01*
X-18515Y295074D01*
X-18451Y295163D01*
X-18391Y295253D01*
X-18334Y295346D01*
X-18280Y295440D01*
X-18229Y295537D01*
X-18182Y295635D01*
X-18139Y295735D01*
X-18099Y295836D01*
X-18063Y295938D01*
X-18030Y296042D01*
X-18002Y296147D01*
X-17977Y296253D01*
X-17955Y296360D01*
X-17938Y296467D01*
X-17924Y296575D01*
X-17915Y296684D01*
X-17909Y296792D01*
X-17907Y296901D01*
X-19431Y311937D02*
X-17907Y313842D01*
X-24765Y313842D01*
X-24765Y311937D02*
X-24765Y315747D01*
X-24765Y319253D02*
X-24765Y321539D01*
X-24763Y321616D01*
X-24757Y321693D01*
X-24747Y321770D01*
X-24734Y321846D01*
X-24716Y321921D01*
X-24695Y321995D01*
X-24670Y322068D01*
X-24641Y322140D01*
X-24609Y322210D01*
X-24574Y322279D01*
X-24534Y322345D01*
X-24492Y322410D01*
X-24446Y322472D01*
X-24397Y322532D01*
X-24346Y322589D01*
X-24291Y322644D01*
X-24234Y322695D01*
X-24174Y322744D01*
X-24112Y322790D01*
X-24047Y322832D01*
X-23981Y322872D01*
X-23912Y322907D01*
X-23842Y322939D01*
X-23770Y322968D01*
X-23697Y322993D01*
X-23623Y323014D01*
X-23548Y323032D01*
X-23472Y323045D01*
X-23395Y323055D01*
X-23318Y323061D01*
X-23241Y323063D01*
X-22479Y323063D01*
X-22402Y323061D01*
X-22325Y323055D01*
X-22248Y323045D01*
X-22172Y323032D01*
X-22097Y323014D01*
X-22023Y322993D01*
X-21950Y322968D01*
X-21878Y322939D01*
X-21808Y322907D01*
X-21739Y322872D01*
X-21673Y322832D01*
X-21608Y322790D01*
X-21546Y322744D01*
X-21486Y322695D01*
X-21429Y322644D01*
X-21374Y322589D01*
X-21323Y322532D01*
X-21274Y322472D01*
X-21228Y322410D01*
X-21186Y322345D01*
X-21146Y322279D01*
X-21111Y322210D01*
X-21079Y322140D01*
X-21050Y322068D01*
X-21025Y321995D01*
X-21004Y321921D01*
X-20986Y321846D01*
X-20973Y321770D01*
X-20963Y321693D01*
X-20957Y321616D01*
X-20955Y321539D01*
X-20955Y319253D01*
X-17907Y319253D01*
X-17907Y323063D01*
X-19431Y337337D02*
X-17907Y339242D01*
X-24765Y339242D01*
X-24765Y337337D02*
X-24765Y341147D01*
X-23241Y344653D02*
X-17907Y346177D01*
X-23241Y344653D02*
X-23241Y348463D01*
X-21717Y347320D02*
X-24765Y347320D01*
X99441Y337337D02*
X100965Y339242D01*
X94107Y339242D01*
X94107Y337337D02*
X94107Y341147D01*
X99441Y344653D02*
X100965Y346558D01*
X94107Y346558D01*
X94107Y344653D02*
X94107Y348463D01*
X100965Y313842D02*
X99441Y311937D01*
X100965Y313842D02*
X94107Y313842D01*
X94107Y311937D02*
X94107Y315747D01*
X97536Y319252D02*
X97678Y319254D01*
X97821Y319259D01*
X97963Y319268D01*
X98105Y319281D01*
X98246Y319297D01*
X98387Y319316D01*
X98528Y319340D01*
X98668Y319366D01*
X98807Y319397D01*
X98945Y319431D01*
X99083Y319468D01*
X99219Y319508D01*
X99355Y319553D01*
X99489Y319600D01*
X99622Y319651D01*
X99754Y319705D01*
X99884Y319763D01*
X100013Y319824D01*
X100012Y319824D02*
X100081Y319850D01*
X100147Y319879D01*
X100213Y319911D01*
X100276Y319946D01*
X100338Y319985D01*
X100398Y320027D01*
X100455Y320072D01*
X100510Y320120D01*
X100562Y320171D01*
X100612Y320224D01*
X100658Y320280D01*
X100702Y320338D01*
X100743Y320399D01*
X100781Y320461D01*
X100815Y320525D01*
X100846Y320591D01*
X100874Y320659D01*
X100898Y320728D01*
X100918Y320798D01*
X100935Y320869D01*
X100948Y320940D01*
X100957Y321012D01*
X100963Y321085D01*
X100965Y321158D01*
X100963Y321231D01*
X100957Y321304D01*
X100948Y321376D01*
X100935Y321447D01*
X100918Y321518D01*
X100898Y321588D01*
X100874Y321657D01*
X100846Y321725D01*
X100815Y321791D01*
X100781Y321855D01*
X100743Y321917D01*
X100702Y321978D01*
X100658Y322036D01*
X100612Y322092D01*
X100562Y322145D01*
X100510Y322196D01*
X100455Y322244D01*
X100398Y322289D01*
X100338Y322331D01*
X100276Y322370D01*
X100213Y322405D01*
X100147Y322437D01*
X100081Y322466D01*
X100012Y322492D01*
X100013Y322491D02*
X99884Y322552D01*
X99754Y322610D01*
X99622Y322664D01*
X99489Y322715D01*
X99355Y322762D01*
X99219Y322807D01*
X99083Y322847D01*
X98945Y322884D01*
X98807Y322918D01*
X98668Y322949D01*
X98528Y322975D01*
X98387Y322999D01*
X98246Y323018D01*
X98105Y323034D01*
X97963Y323047D01*
X97821Y323056D01*
X97678Y323061D01*
X97536Y323063D01*
X97536Y319252D02*
X97394Y319254D01*
X97251Y319259D01*
X97109Y319268D01*
X96967Y319281D01*
X96826Y319297D01*
X96685Y319316D01*
X96544Y319340D01*
X96404Y319366D01*
X96265Y319397D01*
X96127Y319431D01*
X95989Y319468D01*
X95853Y319508D01*
X95717Y319553D01*
X95583Y319600D01*
X95450Y319651D01*
X95318Y319705D01*
X95188Y319763D01*
X95059Y319824D01*
X95060Y319824D02*
X94991Y319850D01*
X94925Y319879D01*
X94859Y319911D01*
X94796Y319946D01*
X94734Y319985D01*
X94674Y320027D01*
X94617Y320072D01*
X94562Y320120D01*
X94510Y320171D01*
X94460Y320224D01*
X94414Y320280D01*
X94370Y320338D01*
X94329Y320399D01*
X94291Y320461D01*
X94257Y320525D01*
X94226Y320591D01*
X94198Y320659D01*
X94174Y320728D01*
X94154Y320798D01*
X94137Y320869D01*
X94124Y320940D01*
X94115Y321012D01*
X94109Y321085D01*
X94107Y321158D01*
X95059Y322491D02*
X95188Y322552D01*
X95318Y322610D01*
X95450Y322664D01*
X95583Y322715D01*
X95717Y322762D01*
X95853Y322807D01*
X95989Y322847D01*
X96127Y322884D01*
X96265Y322918D01*
X96404Y322949D01*
X96544Y322975D01*
X96685Y322999D01*
X96826Y323018D01*
X96967Y323034D01*
X97109Y323047D01*
X97251Y323056D01*
X97394Y323061D01*
X97536Y323063D01*
X95060Y322492D02*
X94991Y322466D01*
X94925Y322437D01*
X94859Y322405D01*
X94796Y322370D01*
X94734Y322331D01*
X94674Y322289D01*
X94617Y322244D01*
X94562Y322196D01*
X94510Y322145D01*
X94460Y322092D01*
X94414Y322036D01*
X94370Y321978D01*
X94329Y321917D01*
X94291Y321855D01*
X94257Y321791D01*
X94226Y321725D01*
X94198Y321657D01*
X94174Y321588D01*
X94154Y321518D01*
X94137Y321447D01*
X94124Y321376D01*
X94115Y321304D01*
X94109Y321231D01*
X94107Y321158D01*
X95631Y319634D02*
X99441Y322682D01*
X97155Y294005D02*
X97155Y291719D01*
X97157Y291642D01*
X97163Y291565D01*
X97173Y291488D01*
X97186Y291412D01*
X97204Y291337D01*
X97225Y291263D01*
X97250Y291190D01*
X97279Y291118D01*
X97311Y291048D01*
X97346Y290979D01*
X97386Y290913D01*
X97428Y290848D01*
X97474Y290786D01*
X97523Y290726D01*
X97574Y290669D01*
X97629Y290614D01*
X97686Y290563D01*
X97746Y290514D01*
X97808Y290468D01*
X97873Y290426D01*
X97939Y290386D01*
X98008Y290351D01*
X98078Y290319D01*
X98150Y290290D01*
X98223Y290265D01*
X98297Y290244D01*
X98372Y290226D01*
X98448Y290213D01*
X98525Y290203D01*
X98602Y290197D01*
X98679Y290195D01*
X99060Y290195D01*
X99145Y290197D01*
X99231Y290203D01*
X99316Y290212D01*
X99400Y290226D01*
X99484Y290243D01*
X99567Y290264D01*
X99649Y290288D01*
X99729Y290316D01*
X99809Y290348D01*
X99887Y290384D01*
X99963Y290422D01*
X100037Y290465D01*
X100109Y290510D01*
X100180Y290559D01*
X100248Y290611D01*
X100313Y290665D01*
X100376Y290723D01*
X100437Y290784D01*
X100495Y290847D01*
X100549Y290912D01*
X100601Y290980D01*
X100650Y291051D01*
X100695Y291123D01*
X100738Y291197D01*
X100776Y291273D01*
X100812Y291351D01*
X100844Y291431D01*
X100872Y291511D01*
X100896Y291593D01*
X100917Y291676D01*
X100934Y291760D01*
X100948Y291844D01*
X100957Y291929D01*
X100963Y292015D01*
X100965Y292100D01*
X100963Y292185D01*
X100957Y292271D01*
X100948Y292356D01*
X100934Y292440D01*
X100917Y292524D01*
X100896Y292607D01*
X100872Y292689D01*
X100844Y292769D01*
X100812Y292849D01*
X100776Y292927D01*
X100738Y293003D01*
X100695Y293077D01*
X100650Y293149D01*
X100601Y293220D01*
X100549Y293288D01*
X100495Y293353D01*
X100437Y293416D01*
X100376Y293477D01*
X100313Y293535D01*
X100248Y293589D01*
X100180Y293641D01*
X100109Y293690D01*
X100037Y293735D01*
X99963Y293778D01*
X99887Y293816D01*
X99809Y293852D01*
X99729Y293884D01*
X99649Y293912D01*
X99567Y293936D01*
X99484Y293957D01*
X99400Y293974D01*
X99316Y293988D01*
X99231Y293997D01*
X99145Y294003D01*
X99060Y294005D01*
X97155Y294005D01*
X97046Y294003D01*
X96938Y293997D01*
X96829Y293988D01*
X96721Y293974D01*
X96614Y293957D01*
X96507Y293935D01*
X96401Y293910D01*
X96296Y293882D01*
X96192Y293849D01*
X96090Y293813D01*
X95989Y293773D01*
X95889Y293730D01*
X95791Y293683D01*
X95694Y293632D01*
X95600Y293578D01*
X95507Y293521D01*
X95417Y293461D01*
X95328Y293397D01*
X95242Y293330D01*
X95159Y293261D01*
X95078Y293188D01*
X95000Y293112D01*
X94924Y293034D01*
X94851Y292953D01*
X94782Y292870D01*
X94715Y292784D01*
X94651Y292695D01*
X94591Y292605D01*
X94534Y292512D01*
X94480Y292418D01*
X94429Y292321D01*
X94382Y292223D01*
X94339Y292123D01*
X94299Y292022D01*
X94263Y291920D01*
X94230Y291816D01*
X94202Y291711D01*
X94177Y291605D01*
X94155Y291498D01*
X94138Y291391D01*
X94124Y291283D01*
X94115Y291174D01*
X94109Y291066D01*
X94107Y290957D01*
X96012Y268605D02*
X96097Y268603D01*
X96183Y268597D01*
X96268Y268588D01*
X96352Y268574D01*
X96436Y268557D01*
X96519Y268536D01*
X96601Y268512D01*
X96681Y268484D01*
X96761Y268452D01*
X96839Y268416D01*
X96915Y268378D01*
X96989Y268335D01*
X97061Y268290D01*
X97132Y268241D01*
X97200Y268189D01*
X97265Y268135D01*
X97328Y268077D01*
X97389Y268016D01*
X97447Y267953D01*
X97501Y267888D01*
X97553Y267820D01*
X97602Y267749D01*
X97647Y267677D01*
X97690Y267603D01*
X97728Y267527D01*
X97764Y267449D01*
X97796Y267369D01*
X97824Y267289D01*
X97848Y267207D01*
X97869Y267124D01*
X97886Y267040D01*
X97900Y266956D01*
X97909Y266871D01*
X97915Y266785D01*
X97917Y266700D01*
X97915Y266615D01*
X97909Y266529D01*
X97900Y266444D01*
X97886Y266360D01*
X97869Y266276D01*
X97848Y266193D01*
X97824Y266111D01*
X97796Y266031D01*
X97764Y265951D01*
X97728Y265873D01*
X97690Y265797D01*
X97647Y265723D01*
X97602Y265651D01*
X97553Y265580D01*
X97501Y265512D01*
X97447Y265447D01*
X97389Y265384D01*
X97328Y265323D01*
X97265Y265265D01*
X97200Y265211D01*
X97132Y265159D01*
X97061Y265110D01*
X96989Y265065D01*
X96915Y265022D01*
X96839Y264984D01*
X96761Y264948D01*
X96681Y264916D01*
X96601Y264888D01*
X96519Y264864D01*
X96436Y264843D01*
X96352Y264826D01*
X96268Y264812D01*
X96183Y264803D01*
X96097Y264797D01*
X96012Y264795D01*
X95927Y264797D01*
X95841Y264803D01*
X95756Y264812D01*
X95672Y264826D01*
X95588Y264843D01*
X95505Y264864D01*
X95423Y264888D01*
X95343Y264916D01*
X95263Y264948D01*
X95185Y264984D01*
X95109Y265022D01*
X95035Y265065D01*
X94963Y265110D01*
X94892Y265159D01*
X94824Y265211D01*
X94759Y265265D01*
X94696Y265323D01*
X94635Y265384D01*
X94577Y265447D01*
X94523Y265512D01*
X94471Y265580D01*
X94422Y265651D01*
X94377Y265723D01*
X94334Y265797D01*
X94296Y265873D01*
X94260Y265951D01*
X94228Y266031D01*
X94200Y266111D01*
X94176Y266193D01*
X94155Y266276D01*
X94138Y266360D01*
X94124Y266444D01*
X94115Y266529D01*
X94109Y266615D01*
X94107Y266700D01*
X94109Y266785D01*
X94115Y266871D01*
X94124Y266956D01*
X94138Y267040D01*
X94155Y267124D01*
X94176Y267207D01*
X94200Y267289D01*
X94228Y267369D01*
X94260Y267449D01*
X94296Y267527D01*
X94334Y267603D01*
X94377Y267677D01*
X94422Y267749D01*
X94471Y267820D01*
X94523Y267888D01*
X94577Y267953D01*
X94635Y268016D01*
X94696Y268077D01*
X94759Y268135D01*
X94824Y268189D01*
X94892Y268241D01*
X94963Y268290D01*
X95035Y268335D01*
X95109Y268378D01*
X95185Y268416D01*
X95263Y268452D01*
X95343Y268484D01*
X95423Y268512D01*
X95505Y268536D01*
X95588Y268557D01*
X95672Y268574D01*
X95756Y268588D01*
X95841Y268597D01*
X95927Y268603D01*
X96012Y268605D01*
X99441Y268224D02*
X99518Y268222D01*
X99595Y268216D01*
X99672Y268206D01*
X99748Y268193D01*
X99823Y268175D01*
X99897Y268154D01*
X99970Y268129D01*
X100042Y268100D01*
X100112Y268068D01*
X100181Y268033D01*
X100247Y267993D01*
X100312Y267951D01*
X100374Y267905D01*
X100434Y267856D01*
X100491Y267805D01*
X100546Y267750D01*
X100597Y267693D01*
X100646Y267633D01*
X100692Y267571D01*
X100734Y267506D01*
X100774Y267440D01*
X100809Y267371D01*
X100841Y267301D01*
X100870Y267229D01*
X100895Y267156D01*
X100916Y267082D01*
X100934Y267007D01*
X100947Y266931D01*
X100957Y266854D01*
X100963Y266777D01*
X100965Y266700D01*
X100963Y266623D01*
X100957Y266546D01*
X100947Y266469D01*
X100934Y266393D01*
X100916Y266318D01*
X100895Y266244D01*
X100870Y266171D01*
X100841Y266099D01*
X100809Y266029D01*
X100774Y265960D01*
X100734Y265894D01*
X100692Y265829D01*
X100646Y265767D01*
X100597Y265707D01*
X100546Y265650D01*
X100491Y265595D01*
X100434Y265544D01*
X100374Y265495D01*
X100312Y265449D01*
X100247Y265407D01*
X100181Y265367D01*
X100112Y265332D01*
X100042Y265300D01*
X99970Y265271D01*
X99897Y265246D01*
X99823Y265225D01*
X99748Y265207D01*
X99672Y265194D01*
X99595Y265184D01*
X99518Y265178D01*
X99441Y265176D01*
X99364Y265178D01*
X99287Y265184D01*
X99210Y265194D01*
X99134Y265207D01*
X99059Y265225D01*
X98985Y265246D01*
X98912Y265271D01*
X98840Y265300D01*
X98770Y265332D01*
X98701Y265367D01*
X98635Y265407D01*
X98570Y265449D01*
X98508Y265495D01*
X98448Y265544D01*
X98391Y265595D01*
X98336Y265650D01*
X98285Y265707D01*
X98236Y265767D01*
X98190Y265829D01*
X98148Y265894D01*
X98108Y265960D01*
X98073Y266029D01*
X98041Y266099D01*
X98012Y266171D01*
X97987Y266244D01*
X97966Y266318D01*
X97948Y266393D01*
X97935Y266469D01*
X97925Y266546D01*
X97919Y266623D01*
X97917Y266700D01*
X97919Y266777D01*
X97925Y266854D01*
X97935Y266931D01*
X97948Y267007D01*
X97966Y267082D01*
X97987Y267156D01*
X98012Y267229D01*
X98041Y267301D01*
X98073Y267371D01*
X98108Y267440D01*
X98148Y267506D01*
X98190Y267571D01*
X98236Y267633D01*
X98285Y267693D01*
X98336Y267750D01*
X98391Y267805D01*
X98448Y267856D01*
X98508Y267905D01*
X98570Y267951D01*
X98635Y267993D01*
X98701Y268033D01*
X98770Y268068D01*
X98840Y268100D01*
X98912Y268129D01*
X98985Y268154D01*
X99059Y268175D01*
X99134Y268193D01*
X99210Y268206D01*
X99287Y268216D01*
X99364Y268222D01*
X99441Y268224D01*
X100203Y239395D02*
X100965Y239395D01*
X100965Y243205D01*
X94107Y241300D01*
X97917Y216281D02*
X97917Y213995D01*
X97917Y216281D02*
X97915Y216358D01*
X97909Y216435D01*
X97899Y216512D01*
X97886Y216588D01*
X97868Y216663D01*
X97847Y216737D01*
X97822Y216810D01*
X97793Y216882D01*
X97761Y216952D01*
X97726Y217021D01*
X97686Y217087D01*
X97644Y217152D01*
X97598Y217214D01*
X97549Y217274D01*
X97498Y217331D01*
X97443Y217386D01*
X97386Y217437D01*
X97326Y217486D01*
X97264Y217532D01*
X97199Y217574D01*
X97133Y217614D01*
X97064Y217649D01*
X96994Y217681D01*
X96922Y217710D01*
X96849Y217735D01*
X96775Y217756D01*
X96700Y217774D01*
X96624Y217787D01*
X96547Y217797D01*
X96470Y217803D01*
X96393Y217805D01*
X96012Y217805D01*
X95927Y217803D01*
X95841Y217797D01*
X95756Y217788D01*
X95672Y217774D01*
X95588Y217757D01*
X95505Y217736D01*
X95423Y217712D01*
X95343Y217684D01*
X95263Y217652D01*
X95185Y217616D01*
X95109Y217578D01*
X95035Y217535D01*
X94963Y217490D01*
X94892Y217441D01*
X94824Y217389D01*
X94759Y217335D01*
X94696Y217277D01*
X94635Y217216D01*
X94577Y217153D01*
X94523Y217088D01*
X94471Y217020D01*
X94422Y216949D01*
X94377Y216877D01*
X94334Y216803D01*
X94296Y216727D01*
X94260Y216649D01*
X94228Y216569D01*
X94200Y216489D01*
X94176Y216407D01*
X94155Y216324D01*
X94138Y216240D01*
X94124Y216156D01*
X94115Y216071D01*
X94109Y215985D01*
X94107Y215900D01*
X94109Y215815D01*
X94115Y215729D01*
X94124Y215644D01*
X94138Y215560D01*
X94155Y215476D01*
X94176Y215393D01*
X94200Y215311D01*
X94228Y215231D01*
X94260Y215151D01*
X94296Y215073D01*
X94334Y214997D01*
X94377Y214923D01*
X94422Y214851D01*
X94471Y214780D01*
X94523Y214712D01*
X94577Y214647D01*
X94635Y214584D01*
X94696Y214523D01*
X94759Y214465D01*
X94824Y214411D01*
X94892Y214359D01*
X94963Y214310D01*
X95035Y214265D01*
X95109Y214222D01*
X95185Y214184D01*
X95263Y214148D01*
X95343Y214116D01*
X95423Y214088D01*
X95505Y214064D01*
X95588Y214043D01*
X95672Y214026D01*
X95756Y214012D01*
X95841Y214003D01*
X95927Y213997D01*
X96012Y213995D01*
X97917Y213995D01*
X98026Y213997D01*
X98134Y214003D01*
X98243Y214012D01*
X98351Y214026D01*
X98458Y214043D01*
X98565Y214065D01*
X98671Y214090D01*
X98776Y214118D01*
X98880Y214151D01*
X98982Y214187D01*
X99083Y214227D01*
X99183Y214270D01*
X99281Y214317D01*
X99378Y214368D01*
X99472Y214422D01*
X99565Y214479D01*
X99655Y214539D01*
X99744Y214603D01*
X99830Y214670D01*
X99913Y214739D01*
X99994Y214812D01*
X100072Y214888D01*
X100148Y214966D01*
X100221Y215047D01*
X100290Y215130D01*
X100357Y215216D01*
X100421Y215305D01*
X100481Y215395D01*
X100538Y215488D01*
X100592Y215582D01*
X100643Y215679D01*
X100690Y215777D01*
X100733Y215877D01*
X100773Y215978D01*
X100809Y216080D01*
X100842Y216184D01*
X100870Y216289D01*
X100895Y216395D01*
X100917Y216502D01*
X100934Y216609D01*
X100948Y216717D01*
X100957Y216826D01*
X100963Y216934D01*
X100965Y217043D01*
X94107Y190881D02*
X94107Y188595D01*
X94107Y190881D02*
X94109Y190958D01*
X94115Y191035D01*
X94125Y191112D01*
X94138Y191188D01*
X94156Y191263D01*
X94177Y191337D01*
X94202Y191410D01*
X94231Y191482D01*
X94263Y191552D01*
X94298Y191621D01*
X94338Y191687D01*
X94380Y191752D01*
X94426Y191814D01*
X94475Y191874D01*
X94526Y191931D01*
X94581Y191986D01*
X94638Y192037D01*
X94698Y192086D01*
X94760Y192132D01*
X94825Y192174D01*
X94891Y192214D01*
X94960Y192249D01*
X95030Y192281D01*
X95102Y192310D01*
X95175Y192335D01*
X95249Y192356D01*
X95324Y192374D01*
X95400Y192387D01*
X95477Y192397D01*
X95554Y192403D01*
X95631Y192405D01*
X96393Y192405D01*
X96470Y192403D01*
X96547Y192397D01*
X96624Y192387D01*
X96700Y192374D01*
X96775Y192356D01*
X96849Y192335D01*
X96922Y192310D01*
X96994Y192281D01*
X97064Y192249D01*
X97133Y192214D01*
X97199Y192174D01*
X97264Y192132D01*
X97326Y192086D01*
X97386Y192037D01*
X97443Y191986D01*
X97498Y191931D01*
X97549Y191874D01*
X97598Y191814D01*
X97644Y191752D01*
X97686Y191687D01*
X97726Y191621D01*
X97761Y191552D01*
X97793Y191482D01*
X97822Y191410D01*
X97847Y191337D01*
X97868Y191263D01*
X97886Y191188D01*
X97899Y191112D01*
X97909Y191035D01*
X97915Y190958D01*
X97917Y190881D01*
X97917Y188595D01*
X100965Y188595D01*
X100965Y192405D01*
X100965Y164719D02*
X95631Y163195D01*
X95631Y167005D01*
X97155Y165862D02*
X94107Y165862D01*
X94107Y139700D02*
X94107Y137795D01*
X94107Y139700D02*
X94109Y139785D01*
X94115Y139871D01*
X94124Y139956D01*
X94138Y140040D01*
X94155Y140124D01*
X94176Y140207D01*
X94200Y140289D01*
X94228Y140369D01*
X94260Y140449D01*
X94296Y140527D01*
X94334Y140603D01*
X94377Y140677D01*
X94422Y140749D01*
X94471Y140820D01*
X94523Y140888D01*
X94577Y140953D01*
X94635Y141016D01*
X94696Y141077D01*
X94759Y141135D01*
X94824Y141189D01*
X94892Y141241D01*
X94963Y141290D01*
X95035Y141335D01*
X95109Y141378D01*
X95185Y141416D01*
X95263Y141452D01*
X95343Y141484D01*
X95423Y141512D01*
X95505Y141536D01*
X95588Y141557D01*
X95672Y141574D01*
X95756Y141588D01*
X95841Y141597D01*
X95927Y141603D01*
X96012Y141605D01*
X96097Y141603D01*
X96183Y141597D01*
X96268Y141588D01*
X96352Y141574D01*
X96436Y141557D01*
X96519Y141536D01*
X96601Y141512D01*
X96681Y141484D01*
X96761Y141452D01*
X96839Y141416D01*
X96915Y141378D01*
X96989Y141335D01*
X97061Y141290D01*
X97132Y141241D01*
X97200Y141189D01*
X97265Y141135D01*
X97328Y141077D01*
X97389Y141016D01*
X97447Y140953D01*
X97501Y140888D01*
X97553Y140820D01*
X97602Y140749D01*
X97647Y140677D01*
X97690Y140603D01*
X97728Y140527D01*
X97764Y140449D01*
X97796Y140369D01*
X97824Y140289D01*
X97848Y140207D01*
X97869Y140124D01*
X97886Y140040D01*
X97900Y139956D01*
X97909Y139871D01*
X97915Y139785D01*
X97917Y139700D01*
X100965Y140081D02*
X100965Y137795D01*
X100965Y140081D02*
X100963Y140158D01*
X100957Y140235D01*
X100947Y140312D01*
X100934Y140388D01*
X100916Y140463D01*
X100895Y140537D01*
X100870Y140610D01*
X100841Y140682D01*
X100809Y140752D01*
X100774Y140821D01*
X100734Y140887D01*
X100692Y140952D01*
X100646Y141014D01*
X100597Y141074D01*
X100546Y141131D01*
X100491Y141186D01*
X100434Y141237D01*
X100374Y141286D01*
X100312Y141332D01*
X100247Y141374D01*
X100181Y141414D01*
X100112Y141449D01*
X100042Y141481D01*
X99970Y141510D01*
X99897Y141535D01*
X99823Y141556D01*
X99748Y141574D01*
X99672Y141587D01*
X99595Y141597D01*
X99518Y141603D01*
X99441Y141605D01*
X99364Y141603D01*
X99287Y141597D01*
X99210Y141587D01*
X99134Y141574D01*
X99059Y141556D01*
X98985Y141535D01*
X98912Y141510D01*
X98840Y141481D01*
X98770Y141449D01*
X98701Y141414D01*
X98635Y141374D01*
X98570Y141332D01*
X98508Y141286D01*
X98448Y141237D01*
X98391Y141186D01*
X98336Y141131D01*
X98285Y141074D01*
X98236Y141014D01*
X98190Y140952D01*
X98148Y140887D01*
X98108Y140821D01*
X98073Y140752D01*
X98041Y140682D01*
X98012Y140610D01*
X97987Y140537D01*
X97966Y140463D01*
X97948Y140388D01*
X97935Y140312D01*
X97925Y140235D01*
X97919Y140158D01*
X97917Y140081D01*
X97917Y138557D01*
X99251Y116206D02*
X99333Y116204D01*
X99414Y116198D01*
X99495Y116189D01*
X99576Y116175D01*
X99655Y116158D01*
X99734Y116137D01*
X99812Y116112D01*
X99888Y116083D01*
X99963Y116051D01*
X100037Y116015D01*
X100109Y115976D01*
X100178Y115934D01*
X100246Y115888D01*
X100311Y115839D01*
X100374Y115787D01*
X100434Y115732D01*
X100492Y115674D01*
X100547Y115614D01*
X100599Y115551D01*
X100648Y115486D01*
X100694Y115418D01*
X100736Y115349D01*
X100775Y115277D01*
X100811Y115203D01*
X100843Y115128D01*
X100872Y115052D01*
X100897Y114974D01*
X100918Y114895D01*
X100935Y114816D01*
X100949Y114735D01*
X100958Y114654D01*
X100964Y114573D01*
X100966Y114491D01*
X100965Y114491D02*
X100963Y114399D01*
X100957Y114307D01*
X100948Y114215D01*
X100934Y114123D01*
X100917Y114033D01*
X100896Y113943D01*
X100871Y113854D01*
X100842Y113766D01*
X100810Y113679D01*
X100774Y113594D01*
X100735Y113511D01*
X100692Y113429D01*
X100646Y113349D01*
X100596Y113271D01*
X100544Y113195D01*
X100488Y113122D01*
X100429Y113051D01*
X100367Y112982D01*
X100302Y112916D01*
X100235Y112853D01*
X100165Y112793D01*
X100093Y112735D01*
X100018Y112681D01*
X99941Y112630D01*
X99862Y112582D01*
X99781Y112538D01*
X99698Y112497D01*
X99614Y112459D01*
X99528Y112425D01*
X99441Y112395D01*
X97917Y115634D02*
X97976Y115693D01*
X98037Y115749D01*
X98100Y115802D01*
X98166Y115853D01*
X98234Y115900D01*
X98304Y115944D01*
X98376Y115985D01*
X98450Y116023D01*
X98525Y116057D01*
X98602Y116088D01*
X98680Y116115D01*
X98760Y116139D01*
X98840Y116160D01*
X98921Y116176D01*
X99003Y116189D01*
X99085Y116199D01*
X99168Y116204D01*
X99251Y116206D01*
X97917Y115634D02*
X94107Y112395D01*
X94107Y116205D01*
X100965Y88900D02*
X99441Y86995D01*
X100965Y88900D02*
X94107Y88900D01*
X94107Y86995D02*
X94107Y90805D01*
X100013Y62167D02*
X99884Y62106D01*
X99754Y62048D01*
X99622Y61994D01*
X99489Y61943D01*
X99355Y61896D01*
X99219Y61851D01*
X99083Y61811D01*
X98945Y61774D01*
X98807Y61740D01*
X98668Y61709D01*
X98528Y61683D01*
X98387Y61659D01*
X98246Y61640D01*
X98105Y61624D01*
X97963Y61611D01*
X97821Y61602D01*
X97678Y61597D01*
X97536Y61595D01*
X100012Y62166D02*
X100081Y62192D01*
X100147Y62221D01*
X100213Y62253D01*
X100276Y62288D01*
X100338Y62327D01*
X100398Y62369D01*
X100455Y62414D01*
X100510Y62462D01*
X100562Y62513D01*
X100612Y62566D01*
X100658Y62622D01*
X100702Y62680D01*
X100743Y62741D01*
X100781Y62803D01*
X100815Y62867D01*
X100846Y62933D01*
X100874Y63001D01*
X100898Y63070D01*
X100918Y63140D01*
X100935Y63211D01*
X100948Y63282D01*
X100957Y63354D01*
X100963Y63427D01*
X100965Y63500D01*
X100963Y63573D01*
X100957Y63646D01*
X100948Y63718D01*
X100935Y63789D01*
X100918Y63860D01*
X100898Y63930D01*
X100874Y63999D01*
X100846Y64067D01*
X100815Y64133D01*
X100781Y64197D01*
X100743Y64259D01*
X100702Y64320D01*
X100658Y64378D01*
X100612Y64434D01*
X100562Y64487D01*
X100510Y64538D01*
X100455Y64586D01*
X100398Y64631D01*
X100338Y64673D01*
X100276Y64712D01*
X100213Y64747D01*
X100147Y64779D01*
X100081Y64808D01*
X100012Y64834D01*
X100013Y64834D02*
X99884Y64895D01*
X99754Y64953D01*
X99622Y65007D01*
X99489Y65058D01*
X99355Y65105D01*
X99219Y65150D01*
X99083Y65190D01*
X98945Y65227D01*
X98807Y65261D01*
X98668Y65292D01*
X98528Y65318D01*
X98387Y65342D01*
X98246Y65361D01*
X98105Y65377D01*
X97963Y65390D01*
X97821Y65399D01*
X97678Y65404D01*
X97536Y65406D01*
X97536Y61595D02*
X97394Y61597D01*
X97251Y61602D01*
X97109Y61611D01*
X96967Y61624D01*
X96826Y61640D01*
X96685Y61659D01*
X96544Y61683D01*
X96404Y61709D01*
X96265Y61740D01*
X96127Y61774D01*
X95989Y61811D01*
X95853Y61851D01*
X95717Y61896D01*
X95583Y61943D01*
X95450Y61994D01*
X95318Y62048D01*
X95188Y62106D01*
X95059Y62167D01*
X95060Y62166D02*
X94991Y62192D01*
X94925Y62221D01*
X94859Y62253D01*
X94796Y62288D01*
X94734Y62327D01*
X94674Y62369D01*
X94617Y62414D01*
X94562Y62462D01*
X94510Y62513D01*
X94460Y62566D01*
X94414Y62622D01*
X94370Y62680D01*
X94329Y62741D01*
X94291Y62803D01*
X94257Y62867D01*
X94226Y62933D01*
X94198Y63001D01*
X94174Y63070D01*
X94154Y63140D01*
X94137Y63211D01*
X94124Y63282D01*
X94115Y63354D01*
X94109Y63427D01*
X94107Y63500D01*
X95059Y64834D02*
X95188Y64895D01*
X95318Y64953D01*
X95450Y65007D01*
X95583Y65058D01*
X95717Y65105D01*
X95853Y65150D01*
X95989Y65190D01*
X96127Y65227D01*
X96265Y65261D01*
X96404Y65292D01*
X96544Y65318D01*
X96685Y65342D01*
X96826Y65361D01*
X96967Y65377D01*
X97109Y65390D01*
X97251Y65399D01*
X97394Y65404D01*
X97536Y65406D01*
X95060Y64834D02*
X94991Y64808D01*
X94925Y64779D01*
X94859Y64747D01*
X94796Y64712D01*
X94734Y64673D01*
X94674Y64631D01*
X94617Y64586D01*
X94562Y64538D01*
X94510Y64487D01*
X94460Y64434D01*
X94414Y64378D01*
X94370Y64320D01*
X94329Y64259D01*
X94291Y64197D01*
X94257Y64133D01*
X94226Y64067D01*
X94198Y63999D01*
X94174Y63930D01*
X94154Y63860D01*
X94137Y63789D01*
X94124Y63718D01*
X94115Y63646D01*
X94109Y63573D01*
X94107Y63500D01*
X95631Y61976D02*
X99441Y65024D01*
X97917Y32202D02*
X97917Y31059D01*
X97917Y32202D02*
X94107Y32202D01*
X94107Y29916D01*
X94109Y29839D01*
X94115Y29762D01*
X94125Y29685D01*
X94138Y29609D01*
X94156Y29534D01*
X94177Y29460D01*
X94202Y29387D01*
X94231Y29315D01*
X94263Y29245D01*
X94298Y29176D01*
X94338Y29110D01*
X94380Y29045D01*
X94426Y28983D01*
X94475Y28923D01*
X94526Y28866D01*
X94581Y28811D01*
X94638Y28760D01*
X94698Y28711D01*
X94760Y28665D01*
X94825Y28623D01*
X94891Y28583D01*
X94960Y28548D01*
X95030Y28516D01*
X95102Y28487D01*
X95175Y28462D01*
X95249Y28441D01*
X95324Y28423D01*
X95400Y28410D01*
X95477Y28400D01*
X95554Y28394D01*
X95631Y28392D01*
X99441Y28392D01*
X99518Y28394D01*
X99595Y28400D01*
X99672Y28410D01*
X99748Y28423D01*
X99823Y28441D01*
X99897Y28462D01*
X99970Y28487D01*
X100042Y28516D01*
X100112Y28548D01*
X100181Y28583D01*
X100247Y28623D01*
X100312Y28665D01*
X100374Y28711D01*
X100434Y28760D01*
X100491Y28811D01*
X100546Y28866D01*
X100597Y28923D01*
X100646Y28983D01*
X100692Y29045D01*
X100734Y29110D01*
X100774Y29176D01*
X100809Y29245D01*
X100841Y29315D01*
X100870Y29387D01*
X100895Y29460D01*
X100916Y29534D01*
X100934Y29609D01*
X100947Y29685D01*
X100957Y29762D01*
X100963Y29839D01*
X100965Y29916D01*
X100965Y32202D01*
X100965Y36195D02*
X94107Y36195D01*
X94107Y40005D02*
X100965Y36195D01*
X100965Y40005D02*
X94107Y40005D01*
X94107Y43998D02*
X100965Y43998D01*
X100965Y45903D01*
X100963Y45988D01*
X100957Y46074D01*
X100948Y46159D01*
X100934Y46243D01*
X100917Y46327D01*
X100896Y46410D01*
X100872Y46492D01*
X100844Y46572D01*
X100812Y46652D01*
X100776Y46730D01*
X100738Y46806D01*
X100695Y46880D01*
X100650Y46952D01*
X100601Y47023D01*
X100549Y47091D01*
X100495Y47156D01*
X100437Y47219D01*
X100376Y47280D01*
X100313Y47338D01*
X100248Y47392D01*
X100180Y47444D01*
X100109Y47493D01*
X100037Y47538D01*
X99963Y47581D01*
X99887Y47619D01*
X99809Y47655D01*
X99729Y47687D01*
X99649Y47715D01*
X99567Y47739D01*
X99484Y47760D01*
X99400Y47777D01*
X99316Y47791D01*
X99231Y47800D01*
X99145Y47806D01*
X99060Y47808D01*
X96012Y47808D01*
X95927Y47806D01*
X95841Y47800D01*
X95756Y47791D01*
X95672Y47777D01*
X95588Y47760D01*
X95505Y47739D01*
X95423Y47715D01*
X95343Y47687D01*
X95263Y47655D01*
X95185Y47619D01*
X95109Y47581D01*
X95035Y47538D01*
X94963Y47493D01*
X94892Y47444D01*
X94824Y47392D01*
X94759Y47338D01*
X94696Y47280D01*
X94635Y47219D01*
X94577Y47156D01*
X94523Y47091D01*
X94471Y47023D01*
X94422Y46952D01*
X94377Y46880D01*
X94334Y46806D01*
X94296Y46730D01*
X94260Y46652D01*
X94228Y46572D01*
X94200Y46492D01*
X94176Y46410D01*
X94155Y46327D01*
X94138Y46243D01*
X94124Y46159D01*
X94115Y46074D01*
X94109Y45988D01*
X94107Y45903D01*
X94107Y43998D01*
X-17907Y136233D02*
X-17909Y136315D01*
X-17915Y136396D01*
X-17924Y136477D01*
X-17938Y136558D01*
X-17955Y136637D01*
X-17976Y136716D01*
X-18001Y136794D01*
X-18030Y136870D01*
X-18062Y136945D01*
X-18098Y137019D01*
X-18137Y137091D01*
X-18179Y137160D01*
X-18225Y137228D01*
X-18274Y137293D01*
X-18326Y137356D01*
X-18381Y137416D01*
X-18439Y137474D01*
X-18499Y137529D01*
X-18562Y137581D01*
X-18627Y137630D01*
X-18695Y137676D01*
X-18765Y137718D01*
X-18836Y137757D01*
X-18910Y137793D01*
X-18985Y137825D01*
X-19061Y137854D01*
X-19139Y137879D01*
X-19218Y137900D01*
X-19297Y137917D01*
X-19378Y137931D01*
X-19459Y137940D01*
X-19540Y137946D01*
X-19622Y137948D01*
X-17907Y136233D02*
X-17909Y136141D01*
X-17915Y136049D01*
X-17924Y135957D01*
X-17938Y135865D01*
X-17955Y135775D01*
X-17976Y135685D01*
X-18001Y135596D01*
X-18030Y135508D01*
X-18062Y135421D01*
X-18098Y135336D01*
X-18137Y135253D01*
X-18180Y135171D01*
X-18226Y135091D01*
X-18276Y135013D01*
X-18328Y134937D01*
X-18384Y134864D01*
X-18443Y134793D01*
X-18505Y134724D01*
X-18570Y134658D01*
X-18637Y134595D01*
X-18707Y134535D01*
X-18779Y134477D01*
X-18854Y134423D01*
X-18931Y134372D01*
X-19010Y134324D01*
X-19091Y134280D01*
X-19174Y134239D01*
X-19258Y134201D01*
X-19344Y134167D01*
X-19431Y134137D01*
X-20956Y137376D02*
X-20897Y137435D01*
X-20836Y137491D01*
X-20773Y137544D01*
X-20707Y137595D01*
X-20639Y137642D01*
X-20569Y137686D01*
X-20497Y137727D01*
X-20423Y137765D01*
X-20348Y137799D01*
X-20271Y137830D01*
X-20193Y137857D01*
X-20113Y137881D01*
X-20033Y137902D01*
X-19952Y137918D01*
X-19870Y137931D01*
X-19788Y137941D01*
X-19705Y137946D01*
X-19622Y137948D01*
X-20955Y137376D02*
X-24765Y134137D01*
X-24765Y137947D01*
X-17907Y143548D02*
X-17909Y143630D01*
X-17915Y143711D01*
X-17924Y143792D01*
X-17938Y143873D01*
X-17955Y143952D01*
X-17976Y144031D01*
X-18001Y144109D01*
X-18030Y144185D01*
X-18062Y144260D01*
X-18098Y144334D01*
X-18137Y144406D01*
X-18179Y144475D01*
X-18225Y144543D01*
X-18274Y144608D01*
X-18326Y144671D01*
X-18381Y144731D01*
X-18439Y144789D01*
X-18499Y144844D01*
X-18562Y144896D01*
X-18627Y144945D01*
X-18695Y144991D01*
X-18765Y145033D01*
X-18836Y145072D01*
X-18910Y145108D01*
X-18985Y145140D01*
X-19061Y145169D01*
X-19139Y145194D01*
X-19218Y145215D01*
X-19297Y145232D01*
X-19378Y145246D01*
X-19459Y145255D01*
X-19540Y145261D01*
X-19622Y145263D01*
X-17907Y143548D02*
X-17909Y143456D01*
X-17915Y143364D01*
X-17924Y143272D01*
X-17938Y143180D01*
X-17955Y143090D01*
X-17976Y143000D01*
X-18001Y142911D01*
X-18030Y142823D01*
X-18062Y142736D01*
X-18098Y142651D01*
X-18137Y142568D01*
X-18180Y142486D01*
X-18226Y142406D01*
X-18276Y142328D01*
X-18328Y142252D01*
X-18384Y142179D01*
X-18443Y142108D01*
X-18505Y142039D01*
X-18570Y141973D01*
X-18637Y141910D01*
X-18707Y141850D01*
X-18779Y141792D01*
X-18854Y141738D01*
X-18931Y141687D01*
X-19010Y141639D01*
X-19091Y141595D01*
X-19174Y141554D01*
X-19258Y141516D01*
X-19344Y141482D01*
X-19431Y141452D01*
X-20956Y144691D02*
X-20897Y144750D01*
X-20836Y144806D01*
X-20773Y144859D01*
X-20707Y144910D01*
X-20639Y144957D01*
X-20569Y145001D01*
X-20497Y145042D01*
X-20423Y145080D01*
X-20348Y145114D01*
X-20271Y145145D01*
X-20193Y145172D01*
X-20113Y145196D01*
X-20033Y145217D01*
X-19952Y145233D01*
X-19870Y145246D01*
X-19788Y145256D01*
X-19705Y145261D01*
X-19622Y145263D01*
X-20955Y144691D02*
X-24765Y141453D01*
X-24765Y145263D01*
X-19622Y112548D02*
X-19540Y112546D01*
X-19459Y112540D01*
X-19378Y112531D01*
X-19297Y112517D01*
X-19218Y112500D01*
X-19139Y112479D01*
X-19061Y112454D01*
X-18985Y112425D01*
X-18910Y112393D01*
X-18836Y112357D01*
X-18765Y112318D01*
X-18695Y112276D01*
X-18627Y112230D01*
X-18562Y112181D01*
X-18499Y112129D01*
X-18439Y112074D01*
X-18381Y112016D01*
X-18326Y111956D01*
X-18274Y111893D01*
X-18225Y111828D01*
X-18179Y111760D01*
X-18137Y111691D01*
X-18098Y111619D01*
X-18062Y111545D01*
X-18030Y111470D01*
X-18001Y111394D01*
X-17976Y111316D01*
X-17955Y111237D01*
X-17938Y111158D01*
X-17924Y111077D01*
X-17915Y110996D01*
X-17909Y110915D01*
X-17907Y110833D01*
X-17909Y110741D01*
X-17915Y110649D01*
X-17924Y110557D01*
X-17938Y110465D01*
X-17955Y110375D01*
X-17976Y110285D01*
X-18001Y110196D01*
X-18030Y110108D01*
X-18062Y110021D01*
X-18098Y109936D01*
X-18137Y109853D01*
X-18180Y109771D01*
X-18226Y109691D01*
X-18276Y109613D01*
X-18328Y109537D01*
X-18384Y109464D01*
X-18443Y109393D01*
X-18505Y109324D01*
X-18570Y109258D01*
X-18637Y109195D01*
X-18707Y109135D01*
X-18779Y109077D01*
X-18854Y109023D01*
X-18931Y108972D01*
X-19010Y108924D01*
X-19091Y108880D01*
X-19174Y108839D01*
X-19258Y108801D01*
X-19344Y108767D01*
X-19431Y108737D01*
X-20956Y111976D02*
X-20897Y112035D01*
X-20836Y112091D01*
X-20773Y112144D01*
X-20707Y112195D01*
X-20639Y112242D01*
X-20569Y112286D01*
X-20497Y112327D01*
X-20423Y112365D01*
X-20348Y112399D01*
X-20271Y112430D01*
X-20193Y112457D01*
X-20113Y112481D01*
X-20033Y112502D01*
X-19952Y112518D01*
X-19870Y112531D01*
X-19788Y112541D01*
X-19705Y112546D01*
X-19622Y112548D01*
X-20955Y111976D02*
X-24765Y108737D01*
X-24765Y112547D01*
X-24765Y116053D02*
X-24765Y117958D01*
X-24763Y118043D01*
X-24757Y118129D01*
X-24748Y118214D01*
X-24734Y118298D01*
X-24717Y118382D01*
X-24696Y118465D01*
X-24672Y118547D01*
X-24644Y118627D01*
X-24612Y118707D01*
X-24576Y118785D01*
X-24538Y118861D01*
X-24495Y118935D01*
X-24450Y119007D01*
X-24401Y119078D01*
X-24349Y119146D01*
X-24295Y119211D01*
X-24237Y119274D01*
X-24176Y119335D01*
X-24113Y119393D01*
X-24048Y119447D01*
X-23980Y119499D01*
X-23909Y119548D01*
X-23837Y119593D01*
X-23763Y119636D01*
X-23687Y119674D01*
X-23609Y119710D01*
X-23529Y119742D01*
X-23449Y119770D01*
X-23367Y119794D01*
X-23284Y119815D01*
X-23200Y119832D01*
X-23116Y119846D01*
X-23031Y119855D01*
X-22945Y119861D01*
X-22860Y119863D01*
X-22775Y119861D01*
X-22689Y119855D01*
X-22604Y119846D01*
X-22520Y119832D01*
X-22436Y119815D01*
X-22353Y119794D01*
X-22271Y119770D01*
X-22191Y119742D01*
X-22111Y119710D01*
X-22033Y119674D01*
X-21957Y119636D01*
X-21883Y119593D01*
X-21811Y119548D01*
X-21740Y119499D01*
X-21672Y119447D01*
X-21607Y119393D01*
X-21544Y119335D01*
X-21483Y119274D01*
X-21425Y119211D01*
X-21371Y119146D01*
X-21319Y119078D01*
X-21270Y119007D01*
X-21225Y118935D01*
X-21182Y118861D01*
X-21144Y118785D01*
X-21108Y118707D01*
X-21076Y118627D01*
X-21048Y118547D01*
X-21024Y118465D01*
X-21003Y118382D01*
X-20986Y118298D01*
X-20972Y118214D01*
X-20963Y118129D01*
X-20957Y118043D01*
X-20955Y117958D01*
X-17907Y118339D02*
X-17907Y116053D01*
X-17907Y118339D02*
X-17909Y118416D01*
X-17915Y118493D01*
X-17925Y118570D01*
X-17938Y118646D01*
X-17956Y118721D01*
X-17977Y118795D01*
X-18002Y118868D01*
X-18031Y118940D01*
X-18063Y119010D01*
X-18098Y119079D01*
X-18138Y119145D01*
X-18180Y119210D01*
X-18226Y119272D01*
X-18275Y119332D01*
X-18326Y119389D01*
X-18381Y119444D01*
X-18438Y119495D01*
X-18498Y119544D01*
X-18560Y119590D01*
X-18625Y119632D01*
X-18691Y119672D01*
X-18760Y119707D01*
X-18830Y119739D01*
X-18902Y119768D01*
X-18975Y119793D01*
X-19049Y119814D01*
X-19124Y119832D01*
X-19200Y119845D01*
X-19277Y119855D01*
X-19354Y119861D01*
X-19431Y119863D01*
X-19508Y119861D01*
X-19585Y119855D01*
X-19662Y119845D01*
X-19738Y119832D01*
X-19813Y119814D01*
X-19887Y119793D01*
X-19960Y119768D01*
X-20032Y119739D01*
X-20102Y119707D01*
X-20171Y119672D01*
X-20237Y119632D01*
X-20302Y119590D01*
X-20364Y119544D01*
X-20424Y119495D01*
X-20481Y119444D01*
X-20536Y119389D01*
X-20587Y119332D01*
X-20636Y119272D01*
X-20682Y119210D01*
X-20724Y119145D01*
X-20764Y119079D01*
X-20799Y119010D01*
X-20831Y118940D01*
X-20860Y118868D01*
X-20885Y118795D01*
X-20906Y118721D01*
X-20924Y118646D01*
X-20937Y118570D01*
X-20947Y118493D01*
X-20953Y118416D01*
X-20955Y118339D01*
X-20955Y116815D01*
X-8966Y63500D02*
X-15824Y61214D01*
X-15824Y65786D02*
X-8966Y63500D01*
X-14110Y65215D02*
X-14110Y61786D01*
X-20955Y57602D02*
X-20955Y56459D01*
X-20955Y57602D02*
X-24765Y57602D01*
X-24765Y55316D01*
X-24763Y55239D01*
X-24757Y55162D01*
X-24747Y55085D01*
X-24734Y55009D01*
X-24716Y54934D01*
X-24695Y54860D01*
X-24670Y54787D01*
X-24641Y54715D01*
X-24609Y54645D01*
X-24574Y54576D01*
X-24534Y54510D01*
X-24492Y54445D01*
X-24446Y54383D01*
X-24397Y54323D01*
X-24346Y54266D01*
X-24291Y54211D01*
X-24234Y54160D01*
X-24174Y54111D01*
X-24112Y54065D01*
X-24047Y54023D01*
X-23981Y53983D01*
X-23912Y53948D01*
X-23842Y53916D01*
X-23770Y53887D01*
X-23697Y53862D01*
X-23623Y53841D01*
X-23548Y53823D01*
X-23472Y53810D01*
X-23395Y53800D01*
X-23318Y53794D01*
X-23241Y53792D01*
X-19431Y53792D01*
X-19354Y53794D01*
X-19277Y53800D01*
X-19200Y53810D01*
X-19124Y53823D01*
X-19049Y53841D01*
X-18975Y53862D01*
X-18902Y53887D01*
X-18830Y53916D01*
X-18760Y53948D01*
X-18691Y53983D01*
X-18625Y54023D01*
X-18560Y54065D01*
X-18498Y54111D01*
X-18438Y54160D01*
X-18381Y54211D01*
X-18326Y54266D01*
X-18275Y54323D01*
X-18226Y54383D01*
X-18180Y54445D01*
X-18138Y54510D01*
X-18098Y54576D01*
X-18063Y54645D01*
X-18031Y54715D01*
X-18002Y54787D01*
X-17977Y54860D01*
X-17956Y54934D01*
X-17938Y55009D01*
X-17925Y55085D01*
X-17915Y55162D01*
X-17909Y55239D01*
X-17907Y55316D01*
X-17907Y57602D01*
X-17907Y61595D02*
X-24765Y61595D01*
X-24765Y65405D02*
X-17907Y61595D01*
X-17907Y65405D02*
X-24765Y65405D01*
X-24765Y69398D02*
X-17907Y69398D01*
X-17907Y71303D01*
X-17909Y71388D01*
X-17915Y71474D01*
X-17924Y71559D01*
X-17938Y71643D01*
X-17955Y71727D01*
X-17976Y71810D01*
X-18000Y71892D01*
X-18028Y71972D01*
X-18060Y72052D01*
X-18096Y72130D01*
X-18134Y72206D01*
X-18177Y72280D01*
X-18222Y72352D01*
X-18271Y72423D01*
X-18323Y72491D01*
X-18377Y72556D01*
X-18435Y72619D01*
X-18496Y72680D01*
X-18559Y72738D01*
X-18624Y72792D01*
X-18692Y72844D01*
X-18763Y72893D01*
X-18835Y72938D01*
X-18909Y72981D01*
X-18985Y73019D01*
X-19063Y73055D01*
X-19143Y73087D01*
X-19223Y73115D01*
X-19305Y73139D01*
X-19388Y73160D01*
X-19472Y73177D01*
X-19556Y73191D01*
X-19641Y73200D01*
X-19727Y73206D01*
X-19812Y73208D01*
X-22860Y73208D01*
X-22945Y73206D01*
X-23031Y73200D01*
X-23116Y73191D01*
X-23200Y73177D01*
X-23284Y73160D01*
X-23367Y73139D01*
X-23449Y73115D01*
X-23529Y73087D01*
X-23609Y73055D01*
X-23687Y73019D01*
X-23763Y72981D01*
X-23837Y72938D01*
X-23909Y72893D01*
X-23980Y72844D01*
X-24048Y72792D01*
X-24113Y72738D01*
X-24176Y72680D01*
X-24237Y72619D01*
X-24295Y72556D01*
X-24349Y72491D01*
X-24401Y72423D01*
X-24450Y72352D01*
X-24495Y72280D01*
X-24538Y72206D01*
X-24576Y72130D01*
X-24612Y72052D01*
X-24644Y71972D01*
X-24672Y71892D01*
X-24696Y71810D01*
X-24717Y71727D01*
X-24734Y71643D01*
X-24748Y71559D01*
X-24757Y71474D01*
X-24763Y71388D01*
X-24765Y71303D01*
X-24765Y69398D01*
X-17907Y161633D02*
X-17909Y161715D01*
X-17915Y161796D01*
X-17924Y161877D01*
X-17938Y161958D01*
X-17955Y162037D01*
X-17976Y162116D01*
X-18001Y162194D01*
X-18030Y162270D01*
X-18062Y162345D01*
X-18098Y162419D01*
X-18137Y162491D01*
X-18179Y162560D01*
X-18225Y162628D01*
X-18274Y162693D01*
X-18326Y162756D01*
X-18381Y162816D01*
X-18439Y162874D01*
X-18499Y162929D01*
X-18562Y162981D01*
X-18627Y163030D01*
X-18695Y163076D01*
X-18765Y163118D01*
X-18836Y163157D01*
X-18910Y163193D01*
X-18985Y163225D01*
X-19061Y163254D01*
X-19139Y163279D01*
X-19218Y163300D01*
X-19297Y163317D01*
X-19378Y163331D01*
X-19459Y163340D01*
X-19540Y163346D01*
X-19622Y163348D01*
X-17907Y161633D02*
X-17909Y161541D01*
X-17915Y161449D01*
X-17924Y161357D01*
X-17938Y161265D01*
X-17955Y161175D01*
X-17976Y161085D01*
X-18001Y160996D01*
X-18030Y160908D01*
X-18062Y160821D01*
X-18098Y160736D01*
X-18137Y160653D01*
X-18180Y160571D01*
X-18226Y160491D01*
X-18276Y160413D01*
X-18328Y160337D01*
X-18384Y160264D01*
X-18443Y160193D01*
X-18505Y160124D01*
X-18570Y160058D01*
X-18637Y159995D01*
X-18707Y159935D01*
X-18779Y159877D01*
X-18854Y159823D01*
X-18931Y159772D01*
X-19010Y159724D01*
X-19091Y159680D01*
X-19174Y159639D01*
X-19258Y159601D01*
X-19344Y159567D01*
X-19431Y159537D01*
X-20956Y162776D02*
X-20897Y162835D01*
X-20836Y162891D01*
X-20773Y162944D01*
X-20707Y162995D01*
X-20639Y163042D01*
X-20569Y163086D01*
X-20497Y163127D01*
X-20423Y163165D01*
X-20348Y163199D01*
X-20271Y163230D01*
X-20193Y163257D01*
X-20113Y163281D01*
X-20033Y163302D01*
X-19952Y163318D01*
X-19870Y163331D01*
X-19788Y163341D01*
X-19705Y163346D01*
X-19622Y163348D01*
X-20955Y162776D02*
X-24765Y159537D01*
X-24765Y163347D01*
X-19431Y166853D02*
X-17907Y168758D01*
X-24765Y168758D01*
X-24765Y166853D02*
X-24765Y170663D01*
X-19431Y362737D02*
X-17907Y364642D01*
X-24765Y364642D01*
X-24765Y362737D02*
X-24765Y366547D01*
X-24765Y370053D02*
X-24765Y371958D01*
X-24763Y372043D01*
X-24757Y372129D01*
X-24748Y372214D01*
X-24734Y372298D01*
X-24717Y372382D01*
X-24696Y372465D01*
X-24672Y372547D01*
X-24644Y372627D01*
X-24612Y372707D01*
X-24576Y372785D01*
X-24538Y372861D01*
X-24495Y372935D01*
X-24450Y373007D01*
X-24401Y373078D01*
X-24349Y373146D01*
X-24295Y373211D01*
X-24237Y373274D01*
X-24176Y373335D01*
X-24113Y373393D01*
X-24048Y373447D01*
X-23980Y373499D01*
X-23909Y373548D01*
X-23837Y373593D01*
X-23763Y373636D01*
X-23687Y373674D01*
X-23609Y373710D01*
X-23529Y373742D01*
X-23449Y373770D01*
X-23367Y373794D01*
X-23284Y373815D01*
X-23200Y373832D01*
X-23116Y373846D01*
X-23031Y373855D01*
X-22945Y373861D01*
X-22860Y373863D01*
X-22775Y373861D01*
X-22689Y373855D01*
X-22604Y373846D01*
X-22520Y373832D01*
X-22436Y373815D01*
X-22353Y373794D01*
X-22271Y373770D01*
X-22191Y373742D01*
X-22111Y373710D01*
X-22033Y373674D01*
X-21957Y373636D01*
X-21883Y373593D01*
X-21811Y373548D01*
X-21740Y373499D01*
X-21672Y373447D01*
X-21607Y373393D01*
X-21544Y373335D01*
X-21483Y373274D01*
X-21425Y373211D01*
X-21371Y373146D01*
X-21319Y373078D01*
X-21270Y373007D01*
X-21225Y372935D01*
X-21182Y372861D01*
X-21144Y372785D01*
X-21108Y372707D01*
X-21076Y372627D01*
X-21048Y372547D01*
X-21024Y372465D01*
X-21003Y372382D01*
X-20986Y372298D01*
X-20972Y372214D01*
X-20963Y372129D01*
X-20957Y372043D01*
X-20955Y371958D01*
X-17907Y372339D02*
X-17907Y370053D01*
X-17907Y372339D02*
X-17909Y372416D01*
X-17915Y372493D01*
X-17925Y372570D01*
X-17938Y372646D01*
X-17956Y372721D01*
X-17977Y372795D01*
X-18002Y372868D01*
X-18031Y372940D01*
X-18063Y373010D01*
X-18098Y373079D01*
X-18138Y373145D01*
X-18180Y373210D01*
X-18226Y373272D01*
X-18275Y373332D01*
X-18326Y373389D01*
X-18381Y373444D01*
X-18438Y373495D01*
X-18498Y373544D01*
X-18560Y373590D01*
X-18625Y373632D01*
X-18691Y373672D01*
X-18760Y373707D01*
X-18830Y373739D01*
X-18902Y373768D01*
X-18975Y373793D01*
X-19049Y373814D01*
X-19124Y373832D01*
X-19200Y373845D01*
X-19277Y373855D01*
X-19354Y373861D01*
X-19431Y373863D01*
X-19508Y373861D01*
X-19585Y373855D01*
X-19662Y373845D01*
X-19738Y373832D01*
X-19813Y373814D01*
X-19887Y373793D01*
X-19960Y373768D01*
X-20032Y373739D01*
X-20102Y373707D01*
X-20171Y373672D01*
X-20237Y373632D01*
X-20302Y373590D01*
X-20364Y373544D01*
X-20424Y373495D01*
X-20481Y373444D01*
X-20536Y373389D01*
X-20587Y373332D01*
X-20636Y373272D01*
X-20682Y373210D01*
X-20724Y373145D01*
X-20764Y373079D01*
X-20799Y373010D01*
X-20831Y372940D01*
X-20860Y372868D01*
X-20885Y372795D01*
X-20906Y372721D01*
X-20924Y372646D01*
X-20937Y372570D01*
X-20947Y372493D01*
X-20953Y372416D01*
X-20955Y372339D01*
X-20955Y370815D01*
X99441Y362737D02*
X100965Y364642D01*
X94107Y364642D01*
X94107Y362737D02*
X94107Y366547D01*
X100966Y372148D02*
X100964Y372230D01*
X100958Y372311D01*
X100949Y372392D01*
X100935Y372473D01*
X100918Y372552D01*
X100897Y372631D01*
X100872Y372709D01*
X100843Y372785D01*
X100811Y372860D01*
X100775Y372934D01*
X100736Y373006D01*
X100694Y373075D01*
X100648Y373143D01*
X100599Y373208D01*
X100547Y373271D01*
X100492Y373331D01*
X100434Y373389D01*
X100374Y373444D01*
X100311Y373496D01*
X100246Y373545D01*
X100178Y373591D01*
X100109Y373633D01*
X100037Y373672D01*
X99963Y373708D01*
X99888Y373740D01*
X99812Y373769D01*
X99734Y373794D01*
X99655Y373815D01*
X99576Y373832D01*
X99495Y373846D01*
X99414Y373855D01*
X99333Y373861D01*
X99251Y373863D01*
X100965Y372148D02*
X100963Y372056D01*
X100957Y371964D01*
X100948Y371872D01*
X100934Y371780D01*
X100917Y371690D01*
X100896Y371600D01*
X100871Y371511D01*
X100842Y371423D01*
X100810Y371336D01*
X100774Y371251D01*
X100735Y371168D01*
X100692Y371086D01*
X100646Y371006D01*
X100596Y370928D01*
X100544Y370852D01*
X100488Y370779D01*
X100429Y370708D01*
X100367Y370639D01*
X100302Y370573D01*
X100235Y370510D01*
X100165Y370450D01*
X100093Y370392D01*
X100018Y370338D01*
X99941Y370287D01*
X99862Y370239D01*
X99781Y370195D01*
X99698Y370154D01*
X99614Y370116D01*
X99528Y370082D01*
X99441Y370052D01*
X97917Y373291D02*
X97976Y373350D01*
X98037Y373406D01*
X98100Y373459D01*
X98166Y373510D01*
X98234Y373557D01*
X98304Y373601D01*
X98376Y373642D01*
X98450Y373680D01*
X98525Y373714D01*
X98602Y373745D01*
X98680Y373772D01*
X98760Y373796D01*
X98840Y373817D01*
X98921Y373833D01*
X99003Y373846D01*
X99085Y373856D01*
X99168Y373861D01*
X99251Y373863D01*
X97917Y373291D02*
X94107Y370053D01*
X94107Y373863D01*
X-24765Y85052D02*
X-24765Y83147D01*
X-24765Y85052D02*
X-24763Y85137D01*
X-24757Y85223D01*
X-24748Y85308D01*
X-24734Y85392D01*
X-24717Y85476D01*
X-24696Y85559D01*
X-24672Y85641D01*
X-24644Y85721D01*
X-24612Y85801D01*
X-24576Y85879D01*
X-24538Y85955D01*
X-24495Y86029D01*
X-24450Y86101D01*
X-24401Y86172D01*
X-24349Y86240D01*
X-24295Y86305D01*
X-24237Y86368D01*
X-24176Y86429D01*
X-24113Y86487D01*
X-24048Y86541D01*
X-23980Y86593D01*
X-23909Y86642D01*
X-23837Y86687D01*
X-23763Y86730D01*
X-23687Y86768D01*
X-23609Y86804D01*
X-23529Y86836D01*
X-23449Y86864D01*
X-23367Y86888D01*
X-23284Y86909D01*
X-23200Y86926D01*
X-23116Y86940D01*
X-23031Y86949D01*
X-22945Y86955D01*
X-22860Y86957D01*
X-22775Y86955D01*
X-22689Y86949D01*
X-22604Y86940D01*
X-22520Y86926D01*
X-22436Y86909D01*
X-22353Y86888D01*
X-22271Y86864D01*
X-22191Y86836D01*
X-22111Y86804D01*
X-22033Y86768D01*
X-21957Y86730D01*
X-21883Y86687D01*
X-21811Y86642D01*
X-21740Y86593D01*
X-21672Y86541D01*
X-21607Y86487D01*
X-21544Y86429D01*
X-21483Y86368D01*
X-21425Y86305D01*
X-21371Y86240D01*
X-21319Y86172D01*
X-21270Y86101D01*
X-21225Y86029D01*
X-21182Y85955D01*
X-21144Y85879D01*
X-21108Y85801D01*
X-21076Y85721D01*
X-21048Y85641D01*
X-21024Y85559D01*
X-21003Y85476D01*
X-20986Y85392D01*
X-20972Y85308D01*
X-20963Y85223D01*
X-20957Y85137D01*
X-20955Y85052D01*
X-17907Y85433D02*
X-17907Y83147D01*
X-17907Y85433D02*
X-17909Y85510D01*
X-17915Y85587D01*
X-17925Y85664D01*
X-17938Y85740D01*
X-17956Y85815D01*
X-17977Y85889D01*
X-18002Y85962D01*
X-18031Y86034D01*
X-18063Y86104D01*
X-18098Y86173D01*
X-18138Y86239D01*
X-18180Y86304D01*
X-18226Y86366D01*
X-18275Y86426D01*
X-18326Y86483D01*
X-18381Y86538D01*
X-18438Y86589D01*
X-18498Y86638D01*
X-18560Y86684D01*
X-18625Y86726D01*
X-18691Y86766D01*
X-18760Y86801D01*
X-18830Y86833D01*
X-18902Y86862D01*
X-18975Y86887D01*
X-19049Y86908D01*
X-19124Y86926D01*
X-19200Y86939D01*
X-19277Y86949D01*
X-19354Y86955D01*
X-19431Y86957D01*
X-19508Y86955D01*
X-19585Y86949D01*
X-19662Y86939D01*
X-19738Y86926D01*
X-19813Y86908D01*
X-19887Y86887D01*
X-19960Y86862D01*
X-20032Y86833D01*
X-20102Y86801D01*
X-20171Y86766D01*
X-20237Y86726D01*
X-20302Y86684D01*
X-20364Y86638D01*
X-20424Y86589D01*
X-20481Y86538D01*
X-20536Y86483D01*
X-20587Y86426D01*
X-20636Y86366D01*
X-20682Y86304D01*
X-20724Y86239D01*
X-20764Y86173D01*
X-20799Y86104D01*
X-20831Y86034D01*
X-20860Y85962D01*
X-20885Y85889D01*
X-20906Y85815D01*
X-20924Y85740D01*
X-20937Y85664D01*
X-20947Y85587D01*
X-20953Y85510D01*
X-20955Y85433D01*
X-20955Y83909D01*
X-17907Y90081D02*
X-24765Y92367D01*
X-17907Y94653D01*
X94107Y384480D02*
X94107Y386385D01*
X94109Y386470D01*
X94115Y386556D01*
X94124Y386641D01*
X94138Y386725D01*
X94155Y386809D01*
X94176Y386892D01*
X94200Y386974D01*
X94228Y387054D01*
X94260Y387134D01*
X94296Y387212D01*
X94334Y387288D01*
X94377Y387362D01*
X94422Y387434D01*
X94471Y387505D01*
X94523Y387573D01*
X94577Y387638D01*
X94635Y387701D01*
X94696Y387762D01*
X94759Y387820D01*
X94824Y387874D01*
X94892Y387926D01*
X94963Y387975D01*
X95035Y388020D01*
X95109Y388063D01*
X95185Y388101D01*
X95263Y388137D01*
X95343Y388169D01*
X95423Y388197D01*
X95505Y388221D01*
X95588Y388242D01*
X95672Y388259D01*
X95756Y388273D01*
X95841Y388282D01*
X95927Y388288D01*
X96012Y388290D01*
X96097Y388288D01*
X96183Y388282D01*
X96268Y388273D01*
X96352Y388259D01*
X96436Y388242D01*
X96519Y388221D01*
X96601Y388197D01*
X96681Y388169D01*
X96761Y388137D01*
X96839Y388101D01*
X96915Y388063D01*
X96989Y388020D01*
X97061Y387975D01*
X97132Y387926D01*
X97200Y387874D01*
X97265Y387820D01*
X97328Y387762D01*
X97389Y387701D01*
X97447Y387638D01*
X97501Y387573D01*
X97553Y387505D01*
X97602Y387434D01*
X97647Y387362D01*
X97690Y387288D01*
X97728Y387212D01*
X97764Y387134D01*
X97796Y387054D01*
X97824Y386974D01*
X97848Y386892D01*
X97869Y386809D01*
X97886Y386725D01*
X97900Y386641D01*
X97909Y386556D01*
X97915Y386470D01*
X97917Y386385D01*
X100965Y386766D02*
X100965Y384480D01*
X100965Y386766D02*
X100963Y386843D01*
X100957Y386920D01*
X100947Y386997D01*
X100934Y387073D01*
X100916Y387148D01*
X100895Y387222D01*
X100870Y387295D01*
X100841Y387367D01*
X100809Y387437D01*
X100774Y387506D01*
X100734Y387572D01*
X100692Y387637D01*
X100646Y387699D01*
X100597Y387759D01*
X100546Y387816D01*
X100491Y387871D01*
X100434Y387922D01*
X100374Y387971D01*
X100312Y388017D01*
X100247Y388059D01*
X100181Y388099D01*
X100112Y388134D01*
X100042Y388166D01*
X99970Y388195D01*
X99897Y388220D01*
X99823Y388241D01*
X99748Y388259D01*
X99672Y388272D01*
X99595Y388282D01*
X99518Y388288D01*
X99441Y388290D01*
X99364Y388288D01*
X99287Y388282D01*
X99210Y388272D01*
X99134Y388259D01*
X99059Y388241D01*
X98985Y388220D01*
X98912Y388195D01*
X98840Y388166D01*
X98770Y388134D01*
X98701Y388099D01*
X98635Y388059D01*
X98570Y388017D01*
X98508Y387971D01*
X98448Y387922D01*
X98391Y387871D01*
X98336Y387816D01*
X98285Y387759D01*
X98236Y387699D01*
X98190Y387637D01*
X98148Y387572D01*
X98108Y387506D01*
X98073Y387437D01*
X98041Y387367D01*
X98012Y387295D01*
X97987Y387222D01*
X97966Y387148D01*
X97948Y387073D01*
X97935Y386997D01*
X97925Y386920D01*
X97919Y386843D01*
X97917Y386766D01*
X97917Y385242D01*
X100965Y391414D02*
X94107Y393700D01*
X100965Y395986D01*
X94107Y399110D02*
X94107Y401015D01*
X94109Y401100D01*
X94115Y401186D01*
X94124Y401271D01*
X94138Y401355D01*
X94155Y401439D01*
X94176Y401522D01*
X94200Y401604D01*
X94228Y401684D01*
X94260Y401764D01*
X94296Y401842D01*
X94334Y401918D01*
X94377Y401992D01*
X94422Y402064D01*
X94471Y402135D01*
X94523Y402203D01*
X94577Y402268D01*
X94635Y402331D01*
X94696Y402392D01*
X94759Y402450D01*
X94824Y402504D01*
X94892Y402556D01*
X94963Y402605D01*
X95035Y402650D01*
X95109Y402693D01*
X95185Y402731D01*
X95263Y402767D01*
X95343Y402799D01*
X95423Y402827D01*
X95505Y402851D01*
X95588Y402872D01*
X95672Y402889D01*
X95756Y402903D01*
X95841Y402912D01*
X95927Y402918D01*
X96012Y402920D01*
X96097Y402918D01*
X96183Y402912D01*
X96268Y402903D01*
X96352Y402889D01*
X96436Y402872D01*
X96519Y402851D01*
X96601Y402827D01*
X96681Y402799D01*
X96761Y402767D01*
X96839Y402731D01*
X96915Y402693D01*
X96989Y402650D01*
X97061Y402605D01*
X97132Y402556D01*
X97200Y402504D01*
X97265Y402450D01*
X97328Y402392D01*
X97389Y402331D01*
X97447Y402268D01*
X97501Y402203D01*
X97553Y402135D01*
X97602Y402064D01*
X97647Y401992D01*
X97690Y401918D01*
X97728Y401842D01*
X97764Y401764D01*
X97796Y401684D01*
X97824Y401604D01*
X97848Y401522D01*
X97869Y401439D01*
X97886Y401355D01*
X97900Y401271D01*
X97909Y401186D01*
X97915Y401100D01*
X97917Y401015D01*
X100965Y401396D02*
X100965Y399110D01*
X100965Y401396D02*
X100963Y401473D01*
X100957Y401550D01*
X100947Y401627D01*
X100934Y401703D01*
X100916Y401778D01*
X100895Y401852D01*
X100870Y401925D01*
X100841Y401997D01*
X100809Y402067D01*
X100774Y402136D01*
X100734Y402202D01*
X100692Y402267D01*
X100646Y402329D01*
X100597Y402389D01*
X100546Y402446D01*
X100491Y402501D01*
X100434Y402552D01*
X100374Y402601D01*
X100312Y402647D01*
X100247Y402689D01*
X100181Y402729D01*
X100112Y402764D01*
X100042Y402796D01*
X99970Y402825D01*
X99897Y402850D01*
X99823Y402871D01*
X99748Y402889D01*
X99672Y402902D01*
X99595Y402912D01*
X99518Y402918D01*
X99441Y402920D01*
X99364Y402918D01*
X99287Y402912D01*
X99210Y402902D01*
X99134Y402889D01*
X99059Y402871D01*
X98985Y402850D01*
X98912Y402825D01*
X98840Y402796D01*
X98770Y402764D01*
X98701Y402729D01*
X98635Y402689D01*
X98570Y402647D01*
X98508Y402601D01*
X98448Y402552D01*
X98391Y402501D01*
X98336Y402446D01*
X98285Y402389D01*
X98236Y402329D01*
X98190Y402267D01*
X98148Y402202D01*
X98108Y402136D01*
X98073Y402067D01*
X98041Y401997D01*
X98012Y401925D01*
X97987Y401852D01*
X97966Y401778D01*
X97948Y401703D01*
X97935Y401627D01*
X97925Y401550D01*
X97919Y401473D01*
X97917Y401396D01*
X97917Y399872D01*
X100966Y415633D02*
X100964Y415715D01*
X100958Y415796D01*
X100949Y415877D01*
X100935Y415958D01*
X100918Y416037D01*
X100897Y416116D01*
X100872Y416194D01*
X100843Y416270D01*
X100811Y416345D01*
X100775Y416419D01*
X100736Y416491D01*
X100694Y416560D01*
X100648Y416628D01*
X100599Y416693D01*
X100547Y416756D01*
X100492Y416816D01*
X100434Y416874D01*
X100374Y416929D01*
X100311Y416981D01*
X100246Y417030D01*
X100178Y417076D01*
X100109Y417118D01*
X100037Y417157D01*
X99963Y417193D01*
X99888Y417225D01*
X99812Y417254D01*
X99734Y417279D01*
X99655Y417300D01*
X99576Y417317D01*
X99495Y417331D01*
X99414Y417340D01*
X99333Y417346D01*
X99251Y417348D01*
X100965Y415633D02*
X100963Y415541D01*
X100957Y415449D01*
X100948Y415357D01*
X100934Y415265D01*
X100917Y415175D01*
X100896Y415085D01*
X100871Y414996D01*
X100842Y414908D01*
X100810Y414821D01*
X100774Y414736D01*
X100735Y414653D01*
X100692Y414571D01*
X100646Y414491D01*
X100596Y414413D01*
X100544Y414337D01*
X100488Y414264D01*
X100429Y414193D01*
X100367Y414124D01*
X100302Y414058D01*
X100235Y413995D01*
X100165Y413935D01*
X100093Y413877D01*
X100018Y413823D01*
X99941Y413772D01*
X99862Y413724D01*
X99781Y413680D01*
X99698Y413639D01*
X99614Y413601D01*
X99528Y413567D01*
X99441Y413537D01*
X97917Y416776D02*
X97976Y416835D01*
X98037Y416891D01*
X98100Y416944D01*
X98166Y416995D01*
X98234Y417042D01*
X98304Y417086D01*
X98376Y417127D01*
X98450Y417165D01*
X98525Y417199D01*
X98602Y417230D01*
X98680Y417257D01*
X98760Y417281D01*
X98840Y417302D01*
X98921Y417318D01*
X99003Y417331D01*
X99085Y417341D01*
X99168Y417346D01*
X99251Y417348D01*
X97917Y416776D02*
X94107Y413537D01*
X94107Y417347D01*
X95631Y420853D02*
X100965Y422377D01*
X95631Y420853D02*
X95631Y424663D01*
X97155Y423520D02*
X94107Y423520D01*
X100966Y441033D02*
X100964Y441115D01*
X100958Y441196D01*
X100949Y441277D01*
X100935Y441358D01*
X100918Y441437D01*
X100897Y441516D01*
X100872Y441594D01*
X100843Y441670D01*
X100811Y441745D01*
X100775Y441819D01*
X100736Y441891D01*
X100694Y441960D01*
X100648Y442028D01*
X100599Y442093D01*
X100547Y442156D01*
X100492Y442216D01*
X100434Y442274D01*
X100374Y442329D01*
X100311Y442381D01*
X100246Y442430D01*
X100178Y442476D01*
X100109Y442518D01*
X100037Y442557D01*
X99963Y442593D01*
X99888Y442625D01*
X99812Y442654D01*
X99734Y442679D01*
X99655Y442700D01*
X99576Y442717D01*
X99495Y442731D01*
X99414Y442740D01*
X99333Y442746D01*
X99251Y442748D01*
X100965Y441033D02*
X100963Y440941D01*
X100957Y440849D01*
X100948Y440757D01*
X100934Y440665D01*
X100917Y440575D01*
X100896Y440485D01*
X100871Y440396D01*
X100842Y440308D01*
X100810Y440221D01*
X100774Y440136D01*
X100735Y440053D01*
X100692Y439971D01*
X100646Y439891D01*
X100596Y439813D01*
X100544Y439737D01*
X100488Y439664D01*
X100429Y439593D01*
X100367Y439524D01*
X100302Y439458D01*
X100235Y439395D01*
X100165Y439335D01*
X100093Y439277D01*
X100018Y439223D01*
X99941Y439172D01*
X99862Y439124D01*
X99781Y439080D01*
X99698Y439039D01*
X99614Y439001D01*
X99528Y438967D01*
X99441Y438937D01*
X97917Y442176D02*
X97976Y442235D01*
X98037Y442291D01*
X98100Y442344D01*
X98166Y442395D01*
X98234Y442442D01*
X98304Y442486D01*
X98376Y442527D01*
X98450Y442565D01*
X98525Y442599D01*
X98602Y442630D01*
X98680Y442657D01*
X98760Y442681D01*
X98840Y442702D01*
X98921Y442718D01*
X99003Y442731D01*
X99085Y442741D01*
X99168Y442746D01*
X99251Y442748D01*
X97917Y442176D02*
X94107Y438937D01*
X94107Y442747D01*
X94107Y446253D02*
X94107Y448539D01*
X94109Y448616D01*
X94115Y448693D01*
X94125Y448770D01*
X94138Y448846D01*
X94156Y448921D01*
X94177Y448995D01*
X94202Y449068D01*
X94231Y449140D01*
X94263Y449210D01*
X94298Y449279D01*
X94338Y449345D01*
X94380Y449410D01*
X94426Y449472D01*
X94475Y449532D01*
X94526Y449589D01*
X94581Y449644D01*
X94638Y449695D01*
X94698Y449744D01*
X94760Y449790D01*
X94825Y449832D01*
X94891Y449872D01*
X94960Y449907D01*
X95030Y449939D01*
X95102Y449968D01*
X95175Y449993D01*
X95249Y450014D01*
X95324Y450032D01*
X95400Y450045D01*
X95477Y450055D01*
X95554Y450061D01*
X95631Y450063D01*
X96393Y450063D01*
X96470Y450061D01*
X96547Y450055D01*
X96624Y450045D01*
X96700Y450032D01*
X96775Y450014D01*
X96849Y449993D01*
X96922Y449968D01*
X96994Y449939D01*
X97064Y449907D01*
X97133Y449872D01*
X97199Y449832D01*
X97264Y449790D01*
X97326Y449744D01*
X97386Y449695D01*
X97443Y449644D01*
X97498Y449589D01*
X97549Y449532D01*
X97598Y449472D01*
X97644Y449410D01*
X97686Y449345D01*
X97726Y449279D01*
X97761Y449210D01*
X97793Y449140D01*
X97822Y449068D01*
X97847Y448995D01*
X97868Y448921D01*
X97886Y448846D01*
X97899Y448770D01*
X97909Y448693D01*
X97915Y448616D01*
X97917Y448539D01*
X97917Y446253D01*
X100965Y446253D01*
X100965Y450063D01*
X102236Y466433D02*
X102234Y466515D01*
X102228Y466596D01*
X102219Y466677D01*
X102205Y466758D01*
X102188Y466837D01*
X102167Y466916D01*
X102142Y466994D01*
X102113Y467070D01*
X102081Y467145D01*
X102045Y467219D01*
X102006Y467291D01*
X101964Y467360D01*
X101918Y467428D01*
X101869Y467493D01*
X101817Y467556D01*
X101762Y467616D01*
X101704Y467674D01*
X101644Y467729D01*
X101581Y467781D01*
X101516Y467830D01*
X101448Y467876D01*
X101379Y467918D01*
X101307Y467957D01*
X101233Y467993D01*
X101158Y468025D01*
X101082Y468054D01*
X101004Y468079D01*
X100925Y468100D01*
X100846Y468117D01*
X100765Y468131D01*
X100684Y468140D01*
X100603Y468146D01*
X100521Y468148D01*
X102235Y466433D02*
X102233Y466341D01*
X102227Y466249D01*
X102218Y466157D01*
X102204Y466065D01*
X102187Y465975D01*
X102166Y465885D01*
X102141Y465796D01*
X102112Y465708D01*
X102080Y465621D01*
X102044Y465536D01*
X102005Y465453D01*
X101962Y465371D01*
X101916Y465291D01*
X101866Y465213D01*
X101814Y465137D01*
X101758Y465064D01*
X101699Y464993D01*
X101637Y464924D01*
X101572Y464858D01*
X101505Y464795D01*
X101435Y464735D01*
X101363Y464677D01*
X101288Y464623D01*
X101211Y464572D01*
X101132Y464524D01*
X101051Y464480D01*
X100968Y464439D01*
X100884Y464401D01*
X100798Y464367D01*
X100711Y464337D01*
X99187Y467576D02*
X99246Y467635D01*
X99307Y467691D01*
X99370Y467744D01*
X99436Y467795D01*
X99504Y467842D01*
X99574Y467886D01*
X99646Y467927D01*
X99720Y467965D01*
X99795Y467999D01*
X99872Y468030D01*
X99950Y468057D01*
X100030Y468081D01*
X100110Y468102D01*
X100191Y468118D01*
X100273Y468131D01*
X100355Y468141D01*
X100438Y468146D01*
X100521Y468148D01*
X99187Y467576D02*
X95377Y464337D01*
X95377Y468147D01*
X99187Y471653D02*
X99187Y473939D01*
X99185Y474016D01*
X99179Y474093D01*
X99169Y474170D01*
X99156Y474246D01*
X99138Y474321D01*
X99117Y474395D01*
X99092Y474468D01*
X99063Y474540D01*
X99031Y474610D01*
X98996Y474679D01*
X98956Y474745D01*
X98914Y474810D01*
X98868Y474872D01*
X98819Y474932D01*
X98768Y474989D01*
X98713Y475044D01*
X98656Y475095D01*
X98596Y475144D01*
X98534Y475190D01*
X98469Y475232D01*
X98403Y475272D01*
X98334Y475307D01*
X98264Y475339D01*
X98192Y475368D01*
X98119Y475393D01*
X98045Y475414D01*
X97970Y475432D01*
X97894Y475445D01*
X97817Y475455D01*
X97740Y475461D01*
X97663Y475463D01*
X97282Y475463D01*
X97197Y475461D01*
X97111Y475455D01*
X97026Y475446D01*
X96942Y475432D01*
X96858Y475415D01*
X96775Y475394D01*
X96693Y475370D01*
X96613Y475342D01*
X96533Y475310D01*
X96455Y475274D01*
X96379Y475236D01*
X96305Y475193D01*
X96233Y475148D01*
X96162Y475099D01*
X96094Y475047D01*
X96029Y474993D01*
X95966Y474935D01*
X95905Y474874D01*
X95847Y474811D01*
X95793Y474746D01*
X95741Y474678D01*
X95692Y474607D01*
X95647Y474535D01*
X95604Y474461D01*
X95566Y474385D01*
X95530Y474307D01*
X95498Y474227D01*
X95470Y474147D01*
X95446Y474065D01*
X95425Y473982D01*
X95408Y473898D01*
X95394Y473814D01*
X95385Y473729D01*
X95379Y473643D01*
X95377Y473558D01*
X95379Y473473D01*
X95385Y473387D01*
X95394Y473302D01*
X95408Y473218D01*
X95425Y473134D01*
X95446Y473051D01*
X95470Y472969D01*
X95498Y472889D01*
X95530Y472809D01*
X95566Y472731D01*
X95604Y472655D01*
X95647Y472581D01*
X95692Y472509D01*
X95741Y472438D01*
X95793Y472370D01*
X95847Y472305D01*
X95905Y472242D01*
X95966Y472181D01*
X96029Y472123D01*
X96094Y472069D01*
X96162Y472017D01*
X96233Y471968D01*
X96305Y471923D01*
X96379Y471880D01*
X96455Y471842D01*
X96533Y471806D01*
X96613Y471774D01*
X96693Y471746D01*
X96775Y471722D01*
X96858Y471701D01*
X96942Y471684D01*
X97026Y471670D01*
X97111Y471661D01*
X97197Y471655D01*
X97282Y471653D01*
X99187Y471653D01*
X99296Y471655D01*
X99404Y471661D01*
X99513Y471670D01*
X99621Y471684D01*
X99728Y471701D01*
X99835Y471723D01*
X99941Y471748D01*
X100046Y471776D01*
X100150Y471809D01*
X100252Y471845D01*
X100353Y471885D01*
X100453Y471928D01*
X100551Y471975D01*
X100648Y472026D01*
X100742Y472080D01*
X100835Y472137D01*
X100925Y472197D01*
X101014Y472261D01*
X101100Y472328D01*
X101183Y472397D01*
X101264Y472470D01*
X101342Y472546D01*
X101418Y472624D01*
X101491Y472705D01*
X101560Y472788D01*
X101627Y472874D01*
X101691Y472963D01*
X101751Y473053D01*
X101808Y473146D01*
X101862Y473240D01*
X101913Y473337D01*
X101960Y473435D01*
X102003Y473535D01*
X102043Y473636D01*
X102079Y473738D01*
X102112Y473842D01*
X102140Y473947D01*
X102165Y474053D01*
X102187Y474160D01*
X102204Y474267D01*
X102218Y474375D01*
X102227Y474484D01*
X102233Y474592D01*
X102235Y474701D01*
X100966Y517233D02*
X100964Y517315D01*
X100958Y517396D01*
X100949Y517477D01*
X100935Y517558D01*
X100918Y517637D01*
X100897Y517716D01*
X100872Y517794D01*
X100843Y517870D01*
X100811Y517945D01*
X100775Y518019D01*
X100736Y518091D01*
X100694Y518160D01*
X100648Y518228D01*
X100599Y518293D01*
X100547Y518356D01*
X100492Y518416D01*
X100434Y518474D01*
X100374Y518529D01*
X100311Y518581D01*
X100246Y518630D01*
X100178Y518676D01*
X100109Y518718D01*
X100037Y518757D01*
X99963Y518793D01*
X99888Y518825D01*
X99812Y518854D01*
X99734Y518879D01*
X99655Y518900D01*
X99576Y518917D01*
X99495Y518931D01*
X99414Y518940D01*
X99333Y518946D01*
X99251Y518948D01*
X100965Y517233D02*
X100963Y517141D01*
X100957Y517049D01*
X100948Y516957D01*
X100934Y516865D01*
X100917Y516775D01*
X100896Y516685D01*
X100871Y516596D01*
X100842Y516508D01*
X100810Y516421D01*
X100774Y516336D01*
X100735Y516253D01*
X100692Y516171D01*
X100646Y516091D01*
X100596Y516013D01*
X100544Y515937D01*
X100488Y515864D01*
X100429Y515793D01*
X100367Y515724D01*
X100302Y515658D01*
X100235Y515595D01*
X100165Y515535D01*
X100093Y515477D01*
X100018Y515423D01*
X99941Y515372D01*
X99862Y515324D01*
X99781Y515280D01*
X99698Y515239D01*
X99614Y515201D01*
X99528Y515167D01*
X99441Y515137D01*
X97917Y518376D02*
X97976Y518435D01*
X98037Y518491D01*
X98100Y518544D01*
X98166Y518595D01*
X98234Y518642D01*
X98304Y518686D01*
X98376Y518727D01*
X98450Y518765D01*
X98525Y518799D01*
X98602Y518830D01*
X98680Y518857D01*
X98760Y518881D01*
X98840Y518902D01*
X98921Y518918D01*
X99003Y518931D01*
X99085Y518941D01*
X99168Y518946D01*
X99251Y518948D01*
X97917Y518376D02*
X94107Y515137D01*
X94107Y518947D01*
X96012Y522453D02*
X96097Y522455D01*
X96183Y522461D01*
X96268Y522470D01*
X96352Y522484D01*
X96436Y522501D01*
X96519Y522522D01*
X96601Y522546D01*
X96681Y522574D01*
X96761Y522606D01*
X96839Y522642D01*
X96915Y522680D01*
X96989Y522723D01*
X97061Y522768D01*
X97132Y522817D01*
X97200Y522869D01*
X97265Y522923D01*
X97328Y522981D01*
X97389Y523042D01*
X97447Y523105D01*
X97501Y523170D01*
X97553Y523238D01*
X97602Y523309D01*
X97647Y523381D01*
X97690Y523455D01*
X97728Y523531D01*
X97764Y523609D01*
X97796Y523689D01*
X97824Y523769D01*
X97848Y523851D01*
X97869Y523934D01*
X97886Y524018D01*
X97900Y524102D01*
X97909Y524187D01*
X97915Y524273D01*
X97917Y524358D01*
X97915Y524443D01*
X97909Y524529D01*
X97900Y524614D01*
X97886Y524698D01*
X97869Y524782D01*
X97848Y524865D01*
X97824Y524947D01*
X97796Y525027D01*
X97764Y525107D01*
X97728Y525185D01*
X97690Y525261D01*
X97647Y525335D01*
X97602Y525407D01*
X97553Y525478D01*
X97501Y525546D01*
X97447Y525611D01*
X97389Y525674D01*
X97328Y525735D01*
X97265Y525793D01*
X97200Y525847D01*
X97132Y525899D01*
X97061Y525948D01*
X96989Y525993D01*
X96915Y526036D01*
X96839Y526074D01*
X96761Y526110D01*
X96681Y526142D01*
X96601Y526170D01*
X96519Y526194D01*
X96436Y526215D01*
X96352Y526232D01*
X96268Y526246D01*
X96183Y526255D01*
X96097Y526261D01*
X96012Y526263D01*
X95927Y526261D01*
X95841Y526255D01*
X95756Y526246D01*
X95672Y526232D01*
X95588Y526215D01*
X95505Y526194D01*
X95423Y526170D01*
X95343Y526142D01*
X95263Y526110D01*
X95185Y526074D01*
X95109Y526036D01*
X95035Y525993D01*
X94963Y525948D01*
X94892Y525899D01*
X94824Y525847D01*
X94759Y525793D01*
X94696Y525735D01*
X94635Y525674D01*
X94577Y525611D01*
X94523Y525546D01*
X94471Y525478D01*
X94422Y525407D01*
X94377Y525335D01*
X94334Y525261D01*
X94296Y525185D01*
X94260Y525107D01*
X94228Y525027D01*
X94200Y524947D01*
X94176Y524865D01*
X94155Y524782D01*
X94138Y524698D01*
X94124Y524614D01*
X94115Y524529D01*
X94109Y524443D01*
X94107Y524358D01*
X94109Y524273D01*
X94115Y524187D01*
X94124Y524102D01*
X94138Y524018D01*
X94155Y523934D01*
X94176Y523851D01*
X94200Y523769D01*
X94228Y523689D01*
X94260Y523609D01*
X94296Y523531D01*
X94334Y523455D01*
X94377Y523381D01*
X94422Y523309D01*
X94471Y523238D01*
X94523Y523170D01*
X94577Y523105D01*
X94635Y523042D01*
X94696Y522981D01*
X94759Y522923D01*
X94824Y522869D01*
X94892Y522817D01*
X94963Y522768D01*
X95035Y522723D01*
X95109Y522680D01*
X95185Y522642D01*
X95263Y522606D01*
X95343Y522574D01*
X95423Y522546D01*
X95505Y522522D01*
X95588Y522501D01*
X95672Y522484D01*
X95756Y522470D01*
X95841Y522461D01*
X95927Y522455D01*
X96012Y522453D01*
X99441Y522834D02*
X99518Y522836D01*
X99595Y522842D01*
X99672Y522852D01*
X99748Y522865D01*
X99823Y522883D01*
X99897Y522904D01*
X99970Y522929D01*
X100042Y522958D01*
X100112Y522990D01*
X100181Y523025D01*
X100247Y523065D01*
X100312Y523107D01*
X100374Y523153D01*
X100434Y523202D01*
X100491Y523253D01*
X100546Y523308D01*
X100597Y523365D01*
X100646Y523425D01*
X100692Y523487D01*
X100734Y523552D01*
X100774Y523618D01*
X100809Y523687D01*
X100841Y523757D01*
X100870Y523829D01*
X100895Y523902D01*
X100916Y523976D01*
X100934Y524051D01*
X100947Y524127D01*
X100957Y524204D01*
X100963Y524281D01*
X100965Y524358D01*
X100963Y524435D01*
X100957Y524512D01*
X100947Y524589D01*
X100934Y524665D01*
X100916Y524740D01*
X100895Y524814D01*
X100870Y524887D01*
X100841Y524959D01*
X100809Y525029D01*
X100774Y525098D01*
X100734Y525164D01*
X100692Y525229D01*
X100646Y525291D01*
X100597Y525351D01*
X100546Y525408D01*
X100491Y525463D01*
X100434Y525514D01*
X100374Y525563D01*
X100312Y525609D01*
X100247Y525651D01*
X100181Y525691D01*
X100112Y525726D01*
X100042Y525758D01*
X99970Y525787D01*
X99897Y525812D01*
X99823Y525833D01*
X99748Y525851D01*
X99672Y525864D01*
X99595Y525874D01*
X99518Y525880D01*
X99441Y525882D01*
X99364Y525880D01*
X99287Y525874D01*
X99210Y525864D01*
X99134Y525851D01*
X99059Y525833D01*
X98985Y525812D01*
X98912Y525787D01*
X98840Y525758D01*
X98770Y525726D01*
X98701Y525691D01*
X98635Y525651D01*
X98570Y525609D01*
X98508Y525563D01*
X98448Y525514D01*
X98391Y525463D01*
X98336Y525408D01*
X98285Y525351D01*
X98236Y525291D01*
X98190Y525229D01*
X98148Y525164D01*
X98108Y525098D01*
X98073Y525029D01*
X98041Y524959D01*
X98012Y524887D01*
X97987Y524814D01*
X97966Y524740D01*
X97948Y524665D01*
X97935Y524589D01*
X97925Y524512D01*
X97919Y524435D01*
X97917Y524358D01*
X97919Y524281D01*
X97925Y524204D01*
X97935Y524127D01*
X97948Y524051D01*
X97966Y523976D01*
X97987Y523902D01*
X98012Y523829D01*
X98041Y523757D01*
X98073Y523687D01*
X98108Y523618D01*
X98148Y523552D01*
X98190Y523487D01*
X98236Y523425D01*
X98285Y523365D01*
X98336Y523308D01*
X98391Y523253D01*
X98448Y523202D01*
X98508Y523153D01*
X98570Y523107D01*
X98635Y523065D01*
X98701Y523025D01*
X98770Y522990D01*
X98840Y522958D01*
X98912Y522929D01*
X98985Y522904D01*
X99059Y522883D01*
X99134Y522865D01*
X99210Y522852D01*
X99287Y522842D01*
X99364Y522836D01*
X99441Y522834D01*
X100966Y542633D02*
X100964Y542715D01*
X100958Y542796D01*
X100949Y542877D01*
X100935Y542958D01*
X100918Y543037D01*
X100897Y543116D01*
X100872Y543194D01*
X100843Y543270D01*
X100811Y543345D01*
X100775Y543419D01*
X100736Y543491D01*
X100694Y543560D01*
X100648Y543628D01*
X100599Y543693D01*
X100547Y543756D01*
X100492Y543816D01*
X100434Y543874D01*
X100374Y543929D01*
X100311Y543981D01*
X100246Y544030D01*
X100178Y544076D01*
X100109Y544118D01*
X100037Y544157D01*
X99963Y544193D01*
X99888Y544225D01*
X99812Y544254D01*
X99734Y544279D01*
X99655Y544300D01*
X99576Y544317D01*
X99495Y544331D01*
X99414Y544340D01*
X99333Y544346D01*
X99251Y544348D01*
X100965Y542633D02*
X100963Y542541D01*
X100957Y542449D01*
X100948Y542357D01*
X100934Y542265D01*
X100917Y542175D01*
X100896Y542085D01*
X100871Y541996D01*
X100842Y541908D01*
X100810Y541821D01*
X100774Y541736D01*
X100735Y541653D01*
X100692Y541571D01*
X100646Y541491D01*
X100596Y541413D01*
X100544Y541337D01*
X100488Y541264D01*
X100429Y541193D01*
X100367Y541124D01*
X100302Y541058D01*
X100235Y540995D01*
X100165Y540935D01*
X100093Y540877D01*
X100018Y540823D01*
X99941Y540772D01*
X99862Y540724D01*
X99781Y540680D01*
X99698Y540639D01*
X99614Y540601D01*
X99528Y540567D01*
X99441Y540537D01*
X97917Y543776D02*
X97976Y543835D01*
X98037Y543891D01*
X98100Y543944D01*
X98166Y543995D01*
X98234Y544042D01*
X98304Y544086D01*
X98376Y544127D01*
X98450Y544165D01*
X98525Y544199D01*
X98602Y544230D01*
X98680Y544257D01*
X98760Y544281D01*
X98840Y544302D01*
X98921Y544318D01*
X99003Y544331D01*
X99085Y544341D01*
X99168Y544346D01*
X99251Y544348D01*
X97917Y543776D02*
X94107Y540537D01*
X94107Y544347D01*
X97155Y549377D02*
X97155Y551663D01*
X97155Y549377D02*
X97157Y549300D01*
X97163Y549223D01*
X97173Y549146D01*
X97186Y549070D01*
X97204Y548995D01*
X97225Y548921D01*
X97250Y548848D01*
X97279Y548776D01*
X97311Y548706D01*
X97346Y548637D01*
X97386Y548571D01*
X97428Y548506D01*
X97474Y548444D01*
X97523Y548384D01*
X97574Y548327D01*
X97629Y548272D01*
X97686Y548221D01*
X97746Y548172D01*
X97808Y548126D01*
X97873Y548084D01*
X97939Y548044D01*
X98008Y548009D01*
X98078Y547977D01*
X98150Y547948D01*
X98223Y547923D01*
X98297Y547902D01*
X98372Y547884D01*
X98448Y547871D01*
X98525Y547861D01*
X98602Y547855D01*
X98679Y547853D01*
X99060Y547853D01*
X99145Y547855D01*
X99231Y547861D01*
X99316Y547870D01*
X99400Y547884D01*
X99484Y547901D01*
X99567Y547922D01*
X99649Y547946D01*
X99729Y547974D01*
X99809Y548006D01*
X99887Y548042D01*
X99963Y548080D01*
X100037Y548123D01*
X100109Y548168D01*
X100180Y548217D01*
X100248Y548269D01*
X100313Y548323D01*
X100376Y548381D01*
X100437Y548442D01*
X100495Y548505D01*
X100549Y548570D01*
X100601Y548638D01*
X100650Y548709D01*
X100695Y548781D01*
X100738Y548855D01*
X100776Y548931D01*
X100812Y549009D01*
X100844Y549089D01*
X100872Y549169D01*
X100896Y549251D01*
X100917Y549334D01*
X100934Y549418D01*
X100948Y549502D01*
X100957Y549587D01*
X100963Y549673D01*
X100965Y549758D01*
X100963Y549843D01*
X100957Y549929D01*
X100948Y550014D01*
X100934Y550098D01*
X100917Y550182D01*
X100896Y550265D01*
X100872Y550347D01*
X100844Y550427D01*
X100812Y550507D01*
X100776Y550585D01*
X100738Y550661D01*
X100695Y550735D01*
X100650Y550807D01*
X100601Y550878D01*
X100549Y550946D01*
X100495Y551011D01*
X100437Y551074D01*
X100376Y551135D01*
X100313Y551193D01*
X100248Y551247D01*
X100180Y551299D01*
X100109Y551348D01*
X100037Y551393D01*
X99963Y551436D01*
X99887Y551474D01*
X99809Y551510D01*
X99729Y551542D01*
X99649Y551570D01*
X99567Y551594D01*
X99484Y551615D01*
X99400Y551632D01*
X99316Y551646D01*
X99231Y551655D01*
X99145Y551661D01*
X99060Y551663D01*
X97155Y551663D01*
X97046Y551661D01*
X96938Y551655D01*
X96829Y551646D01*
X96721Y551632D01*
X96614Y551615D01*
X96507Y551593D01*
X96401Y551568D01*
X96296Y551540D01*
X96192Y551507D01*
X96090Y551471D01*
X95989Y551431D01*
X95889Y551388D01*
X95791Y551341D01*
X95694Y551290D01*
X95600Y551236D01*
X95507Y551179D01*
X95417Y551119D01*
X95328Y551055D01*
X95242Y550988D01*
X95159Y550919D01*
X95078Y550846D01*
X95000Y550770D01*
X94924Y550692D01*
X94851Y550611D01*
X94782Y550528D01*
X94715Y550442D01*
X94651Y550353D01*
X94591Y550263D01*
X94534Y550170D01*
X94480Y550076D01*
X94429Y549979D01*
X94382Y549881D01*
X94339Y549781D01*
X94299Y549680D01*
X94263Y549578D01*
X94230Y549474D01*
X94202Y549369D01*
X94177Y549263D01*
X94155Y549156D01*
X94138Y549049D01*
X94124Y548941D01*
X94115Y548832D01*
X94109Y548724D01*
X94107Y548615D01*
X94107Y565937D02*
X94107Y567842D01*
X94109Y567927D01*
X94115Y568013D01*
X94124Y568098D01*
X94138Y568182D01*
X94155Y568266D01*
X94176Y568349D01*
X94200Y568431D01*
X94228Y568511D01*
X94260Y568591D01*
X94296Y568669D01*
X94334Y568745D01*
X94377Y568819D01*
X94422Y568891D01*
X94471Y568962D01*
X94523Y569030D01*
X94577Y569095D01*
X94635Y569158D01*
X94696Y569219D01*
X94759Y569277D01*
X94824Y569331D01*
X94892Y569383D01*
X94963Y569432D01*
X95035Y569477D01*
X95109Y569520D01*
X95185Y569558D01*
X95263Y569594D01*
X95343Y569626D01*
X95423Y569654D01*
X95505Y569678D01*
X95588Y569699D01*
X95672Y569716D01*
X95756Y569730D01*
X95841Y569739D01*
X95927Y569745D01*
X96012Y569747D01*
X96097Y569745D01*
X96183Y569739D01*
X96268Y569730D01*
X96352Y569716D01*
X96436Y569699D01*
X96519Y569678D01*
X96601Y569654D01*
X96681Y569626D01*
X96761Y569594D01*
X96839Y569558D01*
X96915Y569520D01*
X96989Y569477D01*
X97061Y569432D01*
X97132Y569383D01*
X97200Y569331D01*
X97265Y569277D01*
X97328Y569219D01*
X97389Y569158D01*
X97447Y569095D01*
X97501Y569030D01*
X97553Y568962D01*
X97602Y568891D01*
X97647Y568819D01*
X97690Y568745D01*
X97728Y568669D01*
X97764Y568591D01*
X97796Y568511D01*
X97824Y568431D01*
X97848Y568349D01*
X97869Y568266D01*
X97886Y568182D01*
X97900Y568098D01*
X97909Y568013D01*
X97915Y567927D01*
X97917Y567842D01*
X100965Y568223D02*
X100965Y565937D01*
X100965Y568223D02*
X100963Y568300D01*
X100957Y568377D01*
X100947Y568454D01*
X100934Y568530D01*
X100916Y568605D01*
X100895Y568679D01*
X100870Y568752D01*
X100841Y568824D01*
X100809Y568894D01*
X100774Y568963D01*
X100734Y569029D01*
X100692Y569094D01*
X100646Y569156D01*
X100597Y569216D01*
X100546Y569273D01*
X100491Y569328D01*
X100434Y569379D01*
X100374Y569428D01*
X100312Y569474D01*
X100247Y569516D01*
X100181Y569556D01*
X100112Y569591D01*
X100042Y569623D01*
X99970Y569652D01*
X99897Y569677D01*
X99823Y569698D01*
X99748Y569716D01*
X99672Y569729D01*
X99595Y569739D01*
X99518Y569745D01*
X99441Y569747D01*
X99364Y569745D01*
X99287Y569739D01*
X99210Y569729D01*
X99134Y569716D01*
X99059Y569698D01*
X98985Y569677D01*
X98912Y569652D01*
X98840Y569623D01*
X98770Y569591D01*
X98701Y569556D01*
X98635Y569516D01*
X98570Y569474D01*
X98508Y569428D01*
X98448Y569379D01*
X98391Y569328D01*
X98336Y569273D01*
X98285Y569216D01*
X98236Y569156D01*
X98190Y569094D01*
X98148Y569029D01*
X98108Y568963D01*
X98073Y568894D01*
X98041Y568824D01*
X98012Y568752D01*
X97987Y568679D01*
X97966Y568605D01*
X97948Y568530D01*
X97935Y568454D01*
X97925Y568377D01*
X97919Y568300D01*
X97917Y568223D01*
X97917Y566699D01*
X97536Y573252D02*
X97678Y573254D01*
X97821Y573259D01*
X97963Y573268D01*
X98105Y573281D01*
X98246Y573297D01*
X98387Y573316D01*
X98528Y573340D01*
X98668Y573366D01*
X98807Y573397D01*
X98945Y573431D01*
X99083Y573468D01*
X99219Y573508D01*
X99355Y573553D01*
X99489Y573600D01*
X99622Y573651D01*
X99754Y573705D01*
X99884Y573763D01*
X100013Y573824D01*
X100012Y573824D02*
X100081Y573850D01*
X100147Y573879D01*
X100213Y573911D01*
X100276Y573946D01*
X100338Y573985D01*
X100398Y574027D01*
X100455Y574072D01*
X100510Y574120D01*
X100562Y574171D01*
X100612Y574224D01*
X100658Y574280D01*
X100702Y574338D01*
X100743Y574399D01*
X100781Y574461D01*
X100815Y574525D01*
X100846Y574591D01*
X100874Y574659D01*
X100898Y574728D01*
X100918Y574798D01*
X100935Y574869D01*
X100948Y574940D01*
X100957Y575012D01*
X100963Y575085D01*
X100965Y575158D01*
X100963Y575231D01*
X100957Y575304D01*
X100948Y575376D01*
X100935Y575447D01*
X100918Y575518D01*
X100898Y575588D01*
X100874Y575657D01*
X100846Y575725D01*
X100815Y575791D01*
X100781Y575855D01*
X100743Y575917D01*
X100702Y575978D01*
X100658Y576036D01*
X100612Y576092D01*
X100562Y576145D01*
X100510Y576196D01*
X100455Y576244D01*
X100398Y576289D01*
X100338Y576331D01*
X100276Y576370D01*
X100213Y576405D01*
X100147Y576437D01*
X100081Y576466D01*
X100012Y576492D01*
X100013Y576491D02*
X99884Y576552D01*
X99754Y576610D01*
X99622Y576664D01*
X99489Y576715D01*
X99355Y576762D01*
X99219Y576807D01*
X99083Y576847D01*
X98945Y576884D01*
X98807Y576918D01*
X98668Y576949D01*
X98528Y576975D01*
X98387Y576999D01*
X98246Y577018D01*
X98105Y577034D01*
X97963Y577047D01*
X97821Y577056D01*
X97678Y577061D01*
X97536Y577063D01*
X97536Y573252D02*
X97394Y573254D01*
X97251Y573259D01*
X97109Y573268D01*
X96967Y573281D01*
X96826Y573297D01*
X96685Y573316D01*
X96544Y573340D01*
X96404Y573366D01*
X96265Y573397D01*
X96127Y573431D01*
X95989Y573468D01*
X95853Y573508D01*
X95717Y573553D01*
X95583Y573600D01*
X95450Y573651D01*
X95318Y573705D01*
X95188Y573763D01*
X95059Y573824D01*
X95060Y573824D02*
X94991Y573850D01*
X94925Y573879D01*
X94859Y573911D01*
X94796Y573946D01*
X94734Y573985D01*
X94674Y574027D01*
X94617Y574072D01*
X94562Y574120D01*
X94510Y574171D01*
X94460Y574224D01*
X94414Y574280D01*
X94370Y574338D01*
X94329Y574399D01*
X94291Y574461D01*
X94257Y574525D01*
X94226Y574591D01*
X94198Y574659D01*
X94174Y574728D01*
X94154Y574798D01*
X94137Y574869D01*
X94124Y574940D01*
X94115Y575012D01*
X94109Y575085D01*
X94107Y575158D01*
X95059Y576491D02*
X95188Y576552D01*
X95318Y576610D01*
X95450Y576664D01*
X95583Y576715D01*
X95717Y576762D01*
X95853Y576807D01*
X95989Y576847D01*
X96127Y576884D01*
X96265Y576918D01*
X96404Y576949D01*
X96544Y576975D01*
X96685Y576999D01*
X96826Y577018D01*
X96967Y577034D01*
X97109Y577047D01*
X97251Y577056D01*
X97394Y577061D01*
X97536Y577063D01*
X95060Y576492D02*
X94991Y576466D01*
X94925Y576437D01*
X94859Y576405D01*
X94796Y576370D01*
X94734Y576331D01*
X94674Y576289D01*
X94617Y576244D01*
X94562Y576196D01*
X94510Y576145D01*
X94460Y576092D01*
X94414Y576036D01*
X94370Y575978D01*
X94329Y575917D01*
X94291Y575855D01*
X94257Y575791D01*
X94226Y575725D01*
X94198Y575657D01*
X94174Y575588D01*
X94154Y575518D01*
X94137Y575447D01*
X94124Y575376D01*
X94115Y575304D01*
X94109Y575231D01*
X94107Y575158D01*
X95631Y573634D02*
X99441Y576682D01*
X94107Y591337D02*
X94107Y593242D01*
X94109Y593327D01*
X94115Y593413D01*
X94124Y593498D01*
X94138Y593582D01*
X94155Y593666D01*
X94176Y593749D01*
X94200Y593831D01*
X94228Y593911D01*
X94260Y593991D01*
X94296Y594069D01*
X94334Y594145D01*
X94377Y594219D01*
X94422Y594291D01*
X94471Y594362D01*
X94523Y594430D01*
X94577Y594495D01*
X94635Y594558D01*
X94696Y594619D01*
X94759Y594677D01*
X94824Y594731D01*
X94892Y594783D01*
X94963Y594832D01*
X95035Y594877D01*
X95109Y594920D01*
X95185Y594958D01*
X95263Y594994D01*
X95343Y595026D01*
X95423Y595054D01*
X95505Y595078D01*
X95588Y595099D01*
X95672Y595116D01*
X95756Y595130D01*
X95841Y595139D01*
X95927Y595145D01*
X96012Y595147D01*
X96097Y595145D01*
X96183Y595139D01*
X96268Y595130D01*
X96352Y595116D01*
X96436Y595099D01*
X96519Y595078D01*
X96601Y595054D01*
X96681Y595026D01*
X96761Y594994D01*
X96839Y594958D01*
X96915Y594920D01*
X96989Y594877D01*
X97061Y594832D01*
X97132Y594783D01*
X97200Y594731D01*
X97265Y594677D01*
X97328Y594619D01*
X97389Y594558D01*
X97447Y594495D01*
X97501Y594430D01*
X97553Y594362D01*
X97602Y594291D01*
X97647Y594219D01*
X97690Y594145D01*
X97728Y594069D01*
X97764Y593991D01*
X97796Y593911D01*
X97824Y593831D01*
X97848Y593749D01*
X97869Y593666D01*
X97886Y593582D01*
X97900Y593498D01*
X97909Y593413D01*
X97915Y593327D01*
X97917Y593242D01*
X100965Y593623D02*
X100965Y591337D01*
X100965Y593623D02*
X100963Y593700D01*
X100957Y593777D01*
X100947Y593854D01*
X100934Y593930D01*
X100916Y594005D01*
X100895Y594079D01*
X100870Y594152D01*
X100841Y594224D01*
X100809Y594294D01*
X100774Y594363D01*
X100734Y594429D01*
X100692Y594494D01*
X100646Y594556D01*
X100597Y594616D01*
X100546Y594673D01*
X100491Y594728D01*
X100434Y594779D01*
X100374Y594828D01*
X100312Y594874D01*
X100247Y594916D01*
X100181Y594956D01*
X100112Y594991D01*
X100042Y595023D01*
X99970Y595052D01*
X99897Y595077D01*
X99823Y595098D01*
X99748Y595116D01*
X99672Y595129D01*
X99595Y595139D01*
X99518Y595145D01*
X99441Y595147D01*
X99364Y595145D01*
X99287Y595139D01*
X99210Y595129D01*
X99134Y595116D01*
X99059Y595098D01*
X98985Y595077D01*
X98912Y595052D01*
X98840Y595023D01*
X98770Y594991D01*
X98701Y594956D01*
X98635Y594916D01*
X98570Y594874D01*
X98508Y594828D01*
X98448Y594779D01*
X98391Y594728D01*
X98336Y594673D01*
X98285Y594616D01*
X98236Y594556D01*
X98190Y594494D01*
X98148Y594429D01*
X98108Y594363D01*
X98073Y594294D01*
X98041Y594224D01*
X98012Y594152D01*
X97987Y594079D01*
X97966Y594005D01*
X97948Y593930D01*
X97935Y593854D01*
X97925Y593777D01*
X97919Y593700D01*
X97917Y593623D01*
X97917Y592099D01*
X99441Y598653D02*
X100965Y600558D01*
X94107Y600558D01*
X94107Y598653D02*
X94107Y602463D01*
X94107Y616737D02*
X94107Y618642D01*
X94109Y618727D01*
X94115Y618813D01*
X94124Y618898D01*
X94138Y618982D01*
X94155Y619066D01*
X94176Y619149D01*
X94200Y619231D01*
X94228Y619311D01*
X94260Y619391D01*
X94296Y619469D01*
X94334Y619545D01*
X94377Y619619D01*
X94422Y619691D01*
X94471Y619762D01*
X94523Y619830D01*
X94577Y619895D01*
X94635Y619958D01*
X94696Y620019D01*
X94759Y620077D01*
X94824Y620131D01*
X94892Y620183D01*
X94963Y620232D01*
X95035Y620277D01*
X95109Y620320D01*
X95185Y620358D01*
X95263Y620394D01*
X95343Y620426D01*
X95423Y620454D01*
X95505Y620478D01*
X95588Y620499D01*
X95672Y620516D01*
X95756Y620530D01*
X95841Y620539D01*
X95927Y620545D01*
X96012Y620547D01*
X96097Y620545D01*
X96183Y620539D01*
X96268Y620530D01*
X96352Y620516D01*
X96436Y620499D01*
X96519Y620478D01*
X96601Y620454D01*
X96681Y620426D01*
X96761Y620394D01*
X96839Y620358D01*
X96915Y620320D01*
X96989Y620277D01*
X97061Y620232D01*
X97132Y620183D01*
X97200Y620131D01*
X97265Y620077D01*
X97328Y620019D01*
X97389Y619958D01*
X97447Y619895D01*
X97501Y619830D01*
X97553Y619762D01*
X97602Y619691D01*
X97647Y619619D01*
X97690Y619545D01*
X97728Y619469D01*
X97764Y619391D01*
X97796Y619311D01*
X97824Y619231D01*
X97848Y619149D01*
X97869Y619066D01*
X97886Y618982D01*
X97900Y618898D01*
X97909Y618813D01*
X97915Y618727D01*
X97917Y618642D01*
X100965Y619023D02*
X100965Y616737D01*
X100965Y619023D02*
X100963Y619100D01*
X100957Y619177D01*
X100947Y619254D01*
X100934Y619330D01*
X100916Y619405D01*
X100895Y619479D01*
X100870Y619552D01*
X100841Y619624D01*
X100809Y619694D01*
X100774Y619763D01*
X100734Y619829D01*
X100692Y619894D01*
X100646Y619956D01*
X100597Y620016D01*
X100546Y620073D01*
X100491Y620128D01*
X100434Y620179D01*
X100374Y620228D01*
X100312Y620274D01*
X100247Y620316D01*
X100181Y620356D01*
X100112Y620391D01*
X100042Y620423D01*
X99970Y620452D01*
X99897Y620477D01*
X99823Y620498D01*
X99748Y620516D01*
X99672Y620529D01*
X99595Y620539D01*
X99518Y620545D01*
X99441Y620547D01*
X99364Y620545D01*
X99287Y620539D01*
X99210Y620529D01*
X99134Y620516D01*
X99059Y620498D01*
X98985Y620477D01*
X98912Y620452D01*
X98840Y620423D01*
X98770Y620391D01*
X98701Y620356D01*
X98635Y620316D01*
X98570Y620274D01*
X98508Y620228D01*
X98448Y620179D01*
X98391Y620128D01*
X98336Y620073D01*
X98285Y620016D01*
X98236Y619956D01*
X98190Y619894D01*
X98148Y619829D01*
X98108Y619763D01*
X98073Y619694D01*
X98041Y619624D01*
X98012Y619552D01*
X97987Y619479D01*
X97966Y619405D01*
X97948Y619330D01*
X97935Y619254D01*
X97925Y619177D01*
X97919Y619100D01*
X97917Y619023D01*
X97917Y617499D01*
X100966Y626148D02*
X100964Y626230D01*
X100958Y626311D01*
X100949Y626392D01*
X100935Y626473D01*
X100918Y626552D01*
X100897Y626631D01*
X100872Y626709D01*
X100843Y626785D01*
X100811Y626860D01*
X100775Y626934D01*
X100736Y627006D01*
X100694Y627075D01*
X100648Y627143D01*
X100599Y627208D01*
X100547Y627271D01*
X100492Y627331D01*
X100434Y627389D01*
X100374Y627444D01*
X100311Y627496D01*
X100246Y627545D01*
X100178Y627591D01*
X100109Y627633D01*
X100037Y627672D01*
X99963Y627708D01*
X99888Y627740D01*
X99812Y627769D01*
X99734Y627794D01*
X99655Y627815D01*
X99576Y627832D01*
X99495Y627846D01*
X99414Y627855D01*
X99333Y627861D01*
X99251Y627863D01*
X100965Y626148D02*
X100963Y626056D01*
X100957Y625964D01*
X100948Y625872D01*
X100934Y625780D01*
X100917Y625690D01*
X100896Y625600D01*
X100871Y625511D01*
X100842Y625423D01*
X100810Y625336D01*
X100774Y625251D01*
X100735Y625168D01*
X100692Y625086D01*
X100646Y625006D01*
X100596Y624928D01*
X100544Y624852D01*
X100488Y624779D01*
X100429Y624708D01*
X100367Y624639D01*
X100302Y624573D01*
X100235Y624510D01*
X100165Y624450D01*
X100093Y624392D01*
X100018Y624338D01*
X99941Y624287D01*
X99862Y624239D01*
X99781Y624195D01*
X99698Y624154D01*
X99614Y624116D01*
X99528Y624082D01*
X99441Y624052D01*
X97917Y627291D02*
X97976Y627350D01*
X98037Y627406D01*
X98100Y627459D01*
X98166Y627510D01*
X98234Y627557D01*
X98304Y627601D01*
X98376Y627642D01*
X98450Y627680D01*
X98525Y627714D01*
X98602Y627745D01*
X98680Y627772D01*
X98760Y627796D01*
X98840Y627817D01*
X98921Y627833D01*
X99003Y627846D01*
X99085Y627856D01*
X99168Y627861D01*
X99251Y627863D01*
X97917Y627291D02*
X94107Y624053D01*
X94107Y627863D01*
X-20955Y387802D02*
X-20955Y386659D01*
X-20955Y387802D02*
X-24765Y387802D01*
X-24765Y385516D01*
X-24763Y385439D01*
X-24757Y385362D01*
X-24747Y385285D01*
X-24734Y385209D01*
X-24716Y385134D01*
X-24695Y385060D01*
X-24670Y384987D01*
X-24641Y384915D01*
X-24609Y384845D01*
X-24574Y384776D01*
X-24534Y384710D01*
X-24492Y384645D01*
X-24446Y384583D01*
X-24397Y384523D01*
X-24346Y384466D01*
X-24291Y384411D01*
X-24234Y384360D01*
X-24174Y384311D01*
X-24112Y384265D01*
X-24047Y384223D01*
X-23981Y384183D01*
X-23912Y384148D01*
X-23842Y384116D01*
X-23770Y384087D01*
X-23697Y384062D01*
X-23623Y384041D01*
X-23548Y384023D01*
X-23472Y384010D01*
X-23395Y384000D01*
X-23318Y383994D01*
X-23241Y383992D01*
X-19431Y383992D01*
X-19354Y383994D01*
X-19277Y384000D01*
X-19200Y384010D01*
X-19124Y384023D01*
X-19049Y384041D01*
X-18975Y384062D01*
X-18902Y384087D01*
X-18830Y384116D01*
X-18760Y384148D01*
X-18691Y384183D01*
X-18625Y384223D01*
X-18560Y384265D01*
X-18498Y384311D01*
X-18438Y384360D01*
X-18381Y384411D01*
X-18326Y384466D01*
X-18275Y384523D01*
X-18226Y384583D01*
X-18180Y384645D01*
X-18138Y384710D01*
X-18098Y384776D01*
X-18063Y384845D01*
X-18031Y384915D01*
X-18002Y384987D01*
X-17977Y385060D01*
X-17956Y385134D01*
X-17938Y385209D01*
X-17925Y385285D01*
X-17915Y385362D01*
X-17909Y385439D01*
X-17907Y385516D01*
X-17907Y387802D01*
X-17907Y391795D02*
X-24765Y391795D01*
X-24765Y395605D02*
X-17907Y391795D01*
X-17907Y395605D02*
X-24765Y395605D01*
X-24765Y399598D02*
X-17907Y399598D01*
X-17907Y401503D01*
X-17909Y401588D01*
X-17915Y401674D01*
X-17924Y401759D01*
X-17938Y401843D01*
X-17955Y401927D01*
X-17976Y402010D01*
X-18000Y402092D01*
X-18028Y402172D01*
X-18060Y402252D01*
X-18096Y402330D01*
X-18134Y402406D01*
X-18177Y402480D01*
X-18222Y402552D01*
X-18271Y402623D01*
X-18323Y402691D01*
X-18377Y402756D01*
X-18435Y402819D01*
X-18496Y402880D01*
X-18559Y402938D01*
X-18624Y402992D01*
X-18692Y403044D01*
X-18763Y403093D01*
X-18835Y403138D01*
X-18909Y403181D01*
X-18985Y403219D01*
X-19063Y403255D01*
X-19143Y403287D01*
X-19223Y403315D01*
X-19305Y403339D01*
X-19388Y403360D01*
X-19472Y403377D01*
X-19556Y403391D01*
X-19641Y403400D01*
X-19727Y403406D01*
X-19812Y403408D01*
X-22860Y403408D01*
X-22945Y403406D01*
X-23031Y403400D01*
X-23116Y403391D01*
X-23200Y403377D01*
X-23284Y403360D01*
X-23367Y403339D01*
X-23449Y403315D01*
X-23529Y403287D01*
X-23609Y403255D01*
X-23687Y403219D01*
X-23763Y403181D01*
X-23837Y403138D01*
X-23909Y403093D01*
X-23980Y403044D01*
X-24048Y402992D01*
X-24113Y402938D01*
X-24176Y402880D01*
X-24237Y402819D01*
X-24295Y402756D01*
X-24349Y402691D01*
X-24401Y402623D01*
X-24450Y402552D01*
X-24495Y402480D01*
X-24538Y402406D01*
X-24576Y402330D01*
X-24612Y402252D01*
X-24644Y402172D01*
X-24672Y402092D01*
X-24696Y402010D01*
X-24717Y401927D01*
X-24734Y401843D01*
X-24748Y401759D01*
X-24757Y401674D01*
X-24763Y401588D01*
X-24765Y401503D01*
X-24765Y399598D01*
X-23241Y413537D02*
X-17907Y415061D01*
X-23241Y413537D02*
X-23241Y417347D01*
X-21717Y416204D02*
X-24765Y416204D01*
X-19431Y420853D02*
X-17907Y422758D01*
X-24765Y422758D01*
X-24765Y420853D02*
X-24765Y424663D01*
X-23241Y438937D02*
X-17907Y440461D01*
X-23241Y438937D02*
X-23241Y442747D01*
X-21717Y441604D02*
X-24765Y441604D01*
X-21336Y446252D02*
X-21194Y446254D01*
X-21051Y446259D01*
X-20909Y446268D01*
X-20767Y446281D01*
X-20626Y446297D01*
X-20485Y446316D01*
X-20344Y446340D01*
X-20204Y446366D01*
X-20065Y446397D01*
X-19927Y446431D01*
X-19789Y446468D01*
X-19653Y446508D01*
X-19517Y446553D01*
X-19383Y446600D01*
X-19250Y446651D01*
X-19118Y446705D01*
X-18988Y446763D01*
X-18859Y446824D01*
X-18860Y446824D02*
X-18791Y446850D01*
X-18725Y446879D01*
X-18659Y446911D01*
X-18596Y446946D01*
X-18534Y446985D01*
X-18474Y447027D01*
X-18417Y447072D01*
X-18362Y447120D01*
X-18310Y447171D01*
X-18260Y447224D01*
X-18214Y447280D01*
X-18170Y447338D01*
X-18129Y447399D01*
X-18091Y447461D01*
X-18057Y447525D01*
X-18026Y447591D01*
X-17998Y447659D01*
X-17974Y447728D01*
X-17954Y447798D01*
X-17937Y447869D01*
X-17924Y447940D01*
X-17915Y448012D01*
X-17909Y448085D01*
X-17907Y448158D01*
X-17909Y448231D01*
X-17915Y448304D01*
X-17924Y448376D01*
X-17937Y448447D01*
X-17954Y448518D01*
X-17974Y448588D01*
X-17998Y448657D01*
X-18026Y448725D01*
X-18057Y448791D01*
X-18091Y448855D01*
X-18129Y448917D01*
X-18170Y448978D01*
X-18214Y449036D01*
X-18260Y449092D01*
X-18310Y449145D01*
X-18362Y449196D01*
X-18417Y449244D01*
X-18474Y449289D01*
X-18534Y449331D01*
X-18596Y449370D01*
X-18659Y449405D01*
X-18725Y449437D01*
X-18791Y449466D01*
X-18860Y449492D01*
X-18859Y449491D02*
X-18988Y449552D01*
X-19118Y449610D01*
X-19250Y449664D01*
X-19383Y449715D01*
X-19517Y449762D01*
X-19653Y449807D01*
X-19789Y449847D01*
X-19927Y449884D01*
X-20065Y449918D01*
X-20204Y449949D01*
X-20344Y449975D01*
X-20485Y449999D01*
X-20626Y450018D01*
X-20767Y450034D01*
X-20909Y450047D01*
X-21051Y450056D01*
X-21194Y450061D01*
X-21336Y450063D01*
X-21336Y446252D02*
X-21478Y446254D01*
X-21621Y446259D01*
X-21763Y446268D01*
X-21905Y446281D01*
X-22046Y446297D01*
X-22187Y446316D01*
X-22328Y446340D01*
X-22468Y446366D01*
X-22607Y446397D01*
X-22745Y446431D01*
X-22883Y446468D01*
X-23019Y446508D01*
X-23155Y446553D01*
X-23289Y446600D01*
X-23422Y446651D01*
X-23554Y446705D01*
X-23684Y446763D01*
X-23813Y446824D01*
X-23812Y446824D02*
X-23881Y446850D01*
X-23947Y446879D01*
X-24013Y446911D01*
X-24076Y446946D01*
X-24138Y446985D01*
X-24198Y447027D01*
X-24255Y447072D01*
X-24310Y447120D01*
X-24362Y447171D01*
X-24412Y447224D01*
X-24458Y447280D01*
X-24502Y447338D01*
X-24543Y447399D01*
X-24581Y447461D01*
X-24615Y447525D01*
X-24646Y447591D01*
X-24674Y447659D01*
X-24698Y447728D01*
X-24718Y447798D01*
X-24735Y447869D01*
X-24748Y447940D01*
X-24757Y448012D01*
X-24763Y448085D01*
X-24765Y448158D01*
X-23813Y449491D02*
X-23684Y449552D01*
X-23554Y449610D01*
X-23422Y449664D01*
X-23289Y449715D01*
X-23155Y449762D01*
X-23019Y449807D01*
X-22883Y449847D01*
X-22745Y449884D01*
X-22607Y449918D01*
X-22468Y449949D01*
X-22328Y449975D01*
X-22187Y449999D01*
X-22046Y450018D01*
X-21905Y450034D01*
X-21763Y450047D01*
X-21621Y450056D01*
X-21478Y450061D01*
X-21336Y450063D01*
X-23812Y449492D02*
X-23881Y449466D01*
X-23947Y449437D01*
X-24013Y449405D01*
X-24076Y449370D01*
X-24138Y449331D01*
X-24198Y449289D01*
X-24255Y449244D01*
X-24310Y449196D01*
X-24362Y449145D01*
X-24412Y449092D01*
X-24458Y449036D01*
X-24502Y448978D01*
X-24543Y448917D01*
X-24581Y448855D01*
X-24615Y448791D01*
X-24646Y448725D01*
X-24674Y448657D01*
X-24698Y448588D01*
X-24718Y448518D01*
X-24735Y448447D01*
X-24748Y448376D01*
X-24757Y448304D01*
X-24763Y448231D01*
X-24765Y448158D01*
X-23241Y446634D02*
X-19431Y449682D01*
X-26035Y464337D02*
X-26035Y466242D01*
X-26033Y466327D01*
X-26027Y466413D01*
X-26018Y466498D01*
X-26004Y466582D01*
X-25987Y466666D01*
X-25966Y466749D01*
X-25942Y466831D01*
X-25914Y466911D01*
X-25882Y466991D01*
X-25846Y467069D01*
X-25808Y467145D01*
X-25765Y467219D01*
X-25720Y467291D01*
X-25671Y467362D01*
X-25619Y467430D01*
X-25565Y467495D01*
X-25507Y467558D01*
X-25446Y467619D01*
X-25383Y467677D01*
X-25318Y467731D01*
X-25250Y467783D01*
X-25179Y467832D01*
X-25107Y467877D01*
X-25033Y467920D01*
X-24957Y467958D01*
X-24879Y467994D01*
X-24799Y468026D01*
X-24719Y468054D01*
X-24637Y468078D01*
X-24554Y468099D01*
X-24470Y468116D01*
X-24386Y468130D01*
X-24301Y468139D01*
X-24215Y468145D01*
X-24130Y468147D01*
X-24045Y468145D01*
X-23959Y468139D01*
X-23874Y468130D01*
X-23790Y468116D01*
X-23706Y468099D01*
X-23623Y468078D01*
X-23541Y468054D01*
X-23461Y468026D01*
X-23381Y467994D01*
X-23303Y467958D01*
X-23227Y467920D01*
X-23153Y467877D01*
X-23081Y467832D01*
X-23010Y467783D01*
X-22942Y467731D01*
X-22877Y467677D01*
X-22814Y467619D01*
X-22753Y467558D01*
X-22695Y467495D01*
X-22641Y467430D01*
X-22589Y467362D01*
X-22540Y467291D01*
X-22495Y467219D01*
X-22452Y467145D01*
X-22414Y467069D01*
X-22378Y466991D01*
X-22346Y466911D01*
X-22318Y466831D01*
X-22294Y466749D01*
X-22273Y466666D01*
X-22256Y466582D01*
X-22242Y466498D01*
X-22233Y466413D01*
X-22227Y466327D01*
X-22225Y466242D01*
X-19177Y466623D02*
X-19177Y464337D01*
X-19177Y466623D02*
X-19179Y466700D01*
X-19185Y466777D01*
X-19195Y466854D01*
X-19208Y466930D01*
X-19226Y467005D01*
X-19247Y467079D01*
X-19272Y467152D01*
X-19301Y467224D01*
X-19333Y467294D01*
X-19368Y467363D01*
X-19408Y467429D01*
X-19450Y467494D01*
X-19496Y467556D01*
X-19545Y467616D01*
X-19596Y467673D01*
X-19651Y467728D01*
X-19708Y467779D01*
X-19768Y467828D01*
X-19830Y467874D01*
X-19895Y467916D01*
X-19961Y467956D01*
X-20030Y467991D01*
X-20100Y468023D01*
X-20172Y468052D01*
X-20245Y468077D01*
X-20319Y468098D01*
X-20394Y468116D01*
X-20470Y468129D01*
X-20547Y468139D01*
X-20624Y468145D01*
X-20701Y468147D01*
X-20778Y468145D01*
X-20855Y468139D01*
X-20932Y468129D01*
X-21008Y468116D01*
X-21083Y468098D01*
X-21157Y468077D01*
X-21230Y468052D01*
X-21302Y468023D01*
X-21372Y467991D01*
X-21441Y467956D01*
X-21507Y467916D01*
X-21572Y467874D01*
X-21634Y467828D01*
X-21694Y467779D01*
X-21751Y467728D01*
X-21806Y467673D01*
X-21857Y467616D01*
X-21906Y467556D01*
X-21952Y467494D01*
X-21994Y467429D01*
X-22034Y467363D01*
X-22069Y467294D01*
X-22101Y467224D01*
X-22130Y467152D01*
X-22155Y467079D01*
X-22176Y467005D01*
X-22194Y466930D01*
X-22207Y466854D01*
X-22217Y466777D01*
X-22223Y466700D01*
X-22225Y466623D01*
X-22225Y465099D01*
X-22987Y473177D02*
X-22987Y475463D01*
X-22987Y473177D02*
X-22985Y473100D01*
X-22979Y473023D01*
X-22969Y472946D01*
X-22956Y472870D01*
X-22938Y472795D01*
X-22917Y472721D01*
X-22892Y472648D01*
X-22863Y472576D01*
X-22831Y472506D01*
X-22796Y472437D01*
X-22756Y472371D01*
X-22714Y472306D01*
X-22668Y472244D01*
X-22619Y472184D01*
X-22568Y472127D01*
X-22513Y472072D01*
X-22456Y472021D01*
X-22396Y471972D01*
X-22334Y471926D01*
X-22269Y471884D01*
X-22203Y471844D01*
X-22134Y471809D01*
X-22064Y471777D01*
X-21992Y471748D01*
X-21919Y471723D01*
X-21845Y471702D01*
X-21770Y471684D01*
X-21694Y471671D01*
X-21617Y471661D01*
X-21540Y471655D01*
X-21463Y471653D01*
X-21082Y471653D01*
X-20997Y471655D01*
X-20911Y471661D01*
X-20826Y471670D01*
X-20742Y471684D01*
X-20658Y471701D01*
X-20575Y471722D01*
X-20493Y471746D01*
X-20413Y471774D01*
X-20333Y471806D01*
X-20255Y471842D01*
X-20179Y471880D01*
X-20105Y471923D01*
X-20033Y471968D01*
X-19962Y472017D01*
X-19894Y472069D01*
X-19829Y472123D01*
X-19766Y472181D01*
X-19705Y472242D01*
X-19647Y472305D01*
X-19593Y472370D01*
X-19541Y472438D01*
X-19492Y472509D01*
X-19447Y472581D01*
X-19404Y472655D01*
X-19366Y472731D01*
X-19330Y472809D01*
X-19298Y472889D01*
X-19270Y472969D01*
X-19246Y473051D01*
X-19225Y473134D01*
X-19208Y473218D01*
X-19194Y473302D01*
X-19185Y473387D01*
X-19179Y473473D01*
X-19177Y473558D01*
X-19179Y473643D01*
X-19185Y473729D01*
X-19194Y473814D01*
X-19208Y473898D01*
X-19225Y473982D01*
X-19246Y474065D01*
X-19270Y474147D01*
X-19298Y474227D01*
X-19330Y474307D01*
X-19366Y474385D01*
X-19404Y474461D01*
X-19447Y474535D01*
X-19492Y474607D01*
X-19541Y474678D01*
X-19593Y474746D01*
X-19647Y474811D01*
X-19705Y474874D01*
X-19766Y474935D01*
X-19829Y474993D01*
X-19894Y475047D01*
X-19962Y475099D01*
X-20033Y475148D01*
X-20105Y475193D01*
X-20179Y475236D01*
X-20255Y475274D01*
X-20333Y475310D01*
X-20413Y475342D01*
X-20493Y475370D01*
X-20575Y475394D01*
X-20658Y475415D01*
X-20742Y475432D01*
X-20826Y475446D01*
X-20911Y475455D01*
X-20997Y475461D01*
X-21082Y475463D01*
X-22987Y475463D01*
X-23096Y475461D01*
X-23204Y475455D01*
X-23313Y475446D01*
X-23421Y475432D01*
X-23528Y475415D01*
X-23635Y475393D01*
X-23741Y475368D01*
X-23846Y475340D01*
X-23950Y475307D01*
X-24052Y475271D01*
X-24153Y475231D01*
X-24253Y475188D01*
X-24351Y475141D01*
X-24448Y475090D01*
X-24542Y475036D01*
X-24635Y474979D01*
X-24725Y474919D01*
X-24814Y474855D01*
X-24900Y474788D01*
X-24983Y474719D01*
X-25064Y474646D01*
X-25142Y474570D01*
X-25218Y474492D01*
X-25291Y474411D01*
X-25360Y474328D01*
X-25427Y474242D01*
X-25491Y474153D01*
X-25551Y474063D01*
X-25608Y473970D01*
X-25662Y473876D01*
X-25713Y473779D01*
X-25760Y473681D01*
X-25803Y473581D01*
X-25843Y473480D01*
X-25879Y473378D01*
X-25912Y473274D01*
X-25940Y473169D01*
X-25965Y473063D01*
X-25987Y472956D01*
X-26004Y472849D01*
X-26018Y472741D01*
X-26027Y472632D01*
X-26033Y472524D01*
X-26035Y472415D01*
X-24765Y515137D02*
X-24765Y517042D01*
X-24763Y517127D01*
X-24757Y517213D01*
X-24748Y517298D01*
X-24734Y517382D01*
X-24717Y517466D01*
X-24696Y517549D01*
X-24672Y517631D01*
X-24644Y517711D01*
X-24612Y517791D01*
X-24576Y517869D01*
X-24538Y517945D01*
X-24495Y518019D01*
X-24450Y518091D01*
X-24401Y518162D01*
X-24349Y518230D01*
X-24295Y518295D01*
X-24237Y518358D01*
X-24176Y518419D01*
X-24113Y518477D01*
X-24048Y518531D01*
X-23980Y518583D01*
X-23909Y518632D01*
X-23837Y518677D01*
X-23763Y518720D01*
X-23687Y518758D01*
X-23609Y518794D01*
X-23529Y518826D01*
X-23449Y518854D01*
X-23367Y518878D01*
X-23284Y518899D01*
X-23200Y518916D01*
X-23116Y518930D01*
X-23031Y518939D01*
X-22945Y518945D01*
X-22860Y518947D01*
X-22775Y518945D01*
X-22689Y518939D01*
X-22604Y518930D01*
X-22520Y518916D01*
X-22436Y518899D01*
X-22353Y518878D01*
X-22271Y518854D01*
X-22191Y518826D01*
X-22111Y518794D01*
X-22033Y518758D01*
X-21957Y518720D01*
X-21883Y518677D01*
X-21811Y518632D01*
X-21740Y518583D01*
X-21672Y518531D01*
X-21607Y518477D01*
X-21544Y518419D01*
X-21483Y518358D01*
X-21425Y518295D01*
X-21371Y518230D01*
X-21319Y518162D01*
X-21270Y518091D01*
X-21225Y518019D01*
X-21182Y517945D01*
X-21144Y517869D01*
X-21108Y517791D01*
X-21076Y517711D01*
X-21048Y517631D01*
X-21024Y517549D01*
X-21003Y517466D01*
X-20986Y517382D01*
X-20972Y517298D01*
X-20963Y517213D01*
X-20957Y517127D01*
X-20955Y517042D01*
X-17907Y517423D02*
X-17907Y515137D01*
X-17907Y517423D02*
X-17909Y517500D01*
X-17915Y517577D01*
X-17925Y517654D01*
X-17938Y517730D01*
X-17956Y517805D01*
X-17977Y517879D01*
X-18002Y517952D01*
X-18031Y518024D01*
X-18063Y518094D01*
X-18098Y518163D01*
X-18138Y518229D01*
X-18180Y518294D01*
X-18226Y518356D01*
X-18275Y518416D01*
X-18326Y518473D01*
X-18381Y518528D01*
X-18438Y518579D01*
X-18498Y518628D01*
X-18560Y518674D01*
X-18625Y518716D01*
X-18691Y518756D01*
X-18760Y518791D01*
X-18830Y518823D01*
X-18902Y518852D01*
X-18975Y518877D01*
X-19049Y518898D01*
X-19124Y518916D01*
X-19200Y518929D01*
X-19277Y518939D01*
X-19354Y518945D01*
X-19431Y518947D01*
X-19508Y518945D01*
X-19585Y518939D01*
X-19662Y518929D01*
X-19738Y518916D01*
X-19813Y518898D01*
X-19887Y518877D01*
X-19960Y518852D01*
X-20032Y518823D01*
X-20102Y518791D01*
X-20171Y518756D01*
X-20237Y518716D01*
X-20302Y518674D01*
X-20364Y518628D01*
X-20424Y518579D01*
X-20481Y518528D01*
X-20536Y518473D01*
X-20587Y518416D01*
X-20636Y518356D01*
X-20682Y518294D01*
X-20724Y518229D01*
X-20764Y518163D01*
X-20799Y518094D01*
X-20831Y518024D01*
X-20860Y517952D01*
X-20885Y517879D01*
X-20906Y517805D01*
X-20924Y517730D01*
X-20937Y517654D01*
X-20947Y517577D01*
X-20953Y517500D01*
X-20955Y517423D01*
X-20955Y515899D01*
X-18669Y522453D02*
X-17907Y522453D01*
X-17907Y526263D01*
X-24765Y524358D01*
X-24765Y540537D02*
X-24765Y542442D01*
X-24763Y542527D01*
X-24757Y542613D01*
X-24748Y542698D01*
X-24734Y542782D01*
X-24717Y542866D01*
X-24696Y542949D01*
X-24672Y543031D01*
X-24644Y543111D01*
X-24612Y543191D01*
X-24576Y543269D01*
X-24538Y543345D01*
X-24495Y543419D01*
X-24450Y543491D01*
X-24401Y543562D01*
X-24349Y543630D01*
X-24295Y543695D01*
X-24237Y543758D01*
X-24176Y543819D01*
X-24113Y543877D01*
X-24048Y543931D01*
X-23980Y543983D01*
X-23909Y544032D01*
X-23837Y544077D01*
X-23763Y544120D01*
X-23687Y544158D01*
X-23609Y544194D01*
X-23529Y544226D01*
X-23449Y544254D01*
X-23367Y544278D01*
X-23284Y544299D01*
X-23200Y544316D01*
X-23116Y544330D01*
X-23031Y544339D01*
X-22945Y544345D01*
X-22860Y544347D01*
X-22775Y544345D01*
X-22689Y544339D01*
X-22604Y544330D01*
X-22520Y544316D01*
X-22436Y544299D01*
X-22353Y544278D01*
X-22271Y544254D01*
X-22191Y544226D01*
X-22111Y544194D01*
X-22033Y544158D01*
X-21957Y544120D01*
X-21883Y544077D01*
X-21811Y544032D01*
X-21740Y543983D01*
X-21672Y543931D01*
X-21607Y543877D01*
X-21544Y543819D01*
X-21483Y543758D01*
X-21425Y543695D01*
X-21371Y543630D01*
X-21319Y543562D01*
X-21270Y543491D01*
X-21225Y543419D01*
X-21182Y543345D01*
X-21144Y543269D01*
X-21108Y543191D01*
X-21076Y543111D01*
X-21048Y543031D01*
X-21024Y542949D01*
X-21003Y542866D01*
X-20986Y542782D01*
X-20972Y542698D01*
X-20963Y542613D01*
X-20957Y542527D01*
X-20955Y542442D01*
X-17907Y542823D02*
X-17907Y540537D01*
X-17907Y542823D02*
X-17909Y542900D01*
X-17915Y542977D01*
X-17925Y543054D01*
X-17938Y543130D01*
X-17956Y543205D01*
X-17977Y543279D01*
X-18002Y543352D01*
X-18031Y543424D01*
X-18063Y543494D01*
X-18098Y543563D01*
X-18138Y543629D01*
X-18180Y543694D01*
X-18226Y543756D01*
X-18275Y543816D01*
X-18326Y543873D01*
X-18381Y543928D01*
X-18438Y543979D01*
X-18498Y544028D01*
X-18560Y544074D01*
X-18625Y544116D01*
X-18691Y544156D01*
X-18760Y544191D01*
X-18830Y544223D01*
X-18902Y544252D01*
X-18975Y544277D01*
X-19049Y544298D01*
X-19124Y544316D01*
X-19200Y544329D01*
X-19277Y544339D01*
X-19354Y544345D01*
X-19431Y544347D01*
X-19508Y544345D01*
X-19585Y544339D01*
X-19662Y544329D01*
X-19738Y544316D01*
X-19813Y544298D01*
X-19887Y544277D01*
X-19960Y544252D01*
X-20032Y544223D01*
X-20102Y544191D01*
X-20171Y544156D01*
X-20237Y544116D01*
X-20302Y544074D01*
X-20364Y544028D01*
X-20424Y543979D01*
X-20481Y543928D01*
X-20536Y543873D01*
X-20587Y543816D01*
X-20636Y543756D01*
X-20682Y543694D01*
X-20724Y543629D01*
X-20764Y543563D01*
X-20799Y543494D01*
X-20831Y543424D01*
X-20860Y543352D01*
X-20885Y543279D01*
X-20906Y543205D01*
X-20924Y543130D01*
X-20937Y543054D01*
X-20947Y542977D01*
X-20953Y542900D01*
X-20955Y542823D01*
X-20955Y541299D01*
X-20955Y547853D02*
X-20955Y550139D01*
X-20957Y550216D01*
X-20963Y550293D01*
X-20973Y550370D01*
X-20986Y550446D01*
X-21004Y550521D01*
X-21025Y550595D01*
X-21050Y550668D01*
X-21079Y550740D01*
X-21111Y550810D01*
X-21146Y550879D01*
X-21186Y550945D01*
X-21228Y551010D01*
X-21274Y551072D01*
X-21323Y551132D01*
X-21374Y551189D01*
X-21429Y551244D01*
X-21486Y551295D01*
X-21546Y551344D01*
X-21608Y551390D01*
X-21673Y551432D01*
X-21739Y551472D01*
X-21808Y551507D01*
X-21878Y551539D01*
X-21950Y551568D01*
X-22023Y551593D01*
X-22097Y551614D01*
X-22172Y551632D01*
X-22248Y551645D01*
X-22325Y551655D01*
X-22402Y551661D01*
X-22479Y551663D01*
X-22860Y551663D01*
X-22945Y551661D01*
X-23031Y551655D01*
X-23116Y551646D01*
X-23200Y551632D01*
X-23284Y551615D01*
X-23367Y551594D01*
X-23449Y551570D01*
X-23529Y551542D01*
X-23609Y551510D01*
X-23687Y551474D01*
X-23763Y551436D01*
X-23837Y551393D01*
X-23909Y551348D01*
X-23980Y551299D01*
X-24048Y551247D01*
X-24113Y551193D01*
X-24176Y551135D01*
X-24237Y551074D01*
X-24295Y551011D01*
X-24349Y550946D01*
X-24401Y550878D01*
X-24450Y550807D01*
X-24495Y550735D01*
X-24538Y550661D01*
X-24576Y550585D01*
X-24612Y550507D01*
X-24644Y550427D01*
X-24672Y550347D01*
X-24696Y550265D01*
X-24717Y550182D01*
X-24734Y550098D01*
X-24748Y550014D01*
X-24757Y549929D01*
X-24763Y549843D01*
X-24765Y549758D01*
X-24763Y549673D01*
X-24757Y549587D01*
X-24748Y549502D01*
X-24734Y549418D01*
X-24717Y549334D01*
X-24696Y549251D01*
X-24672Y549169D01*
X-24644Y549089D01*
X-24612Y549009D01*
X-24576Y548931D01*
X-24538Y548855D01*
X-24495Y548781D01*
X-24450Y548709D01*
X-24401Y548638D01*
X-24349Y548570D01*
X-24295Y548505D01*
X-24237Y548442D01*
X-24176Y548381D01*
X-24113Y548323D01*
X-24048Y548269D01*
X-23980Y548217D01*
X-23909Y548168D01*
X-23837Y548123D01*
X-23763Y548080D01*
X-23687Y548042D01*
X-23609Y548006D01*
X-23529Y547974D01*
X-23449Y547946D01*
X-23367Y547922D01*
X-23284Y547901D01*
X-23200Y547884D01*
X-23116Y547870D01*
X-23031Y547861D01*
X-22945Y547855D01*
X-22860Y547853D01*
X-20955Y547853D01*
X-20846Y547855D01*
X-20738Y547861D01*
X-20629Y547870D01*
X-20521Y547884D01*
X-20414Y547901D01*
X-20307Y547923D01*
X-20201Y547948D01*
X-20096Y547976D01*
X-19992Y548009D01*
X-19890Y548045D01*
X-19789Y548085D01*
X-19689Y548128D01*
X-19591Y548175D01*
X-19494Y548226D01*
X-19400Y548280D01*
X-19307Y548337D01*
X-19217Y548397D01*
X-19128Y548461D01*
X-19042Y548528D01*
X-18959Y548597D01*
X-18878Y548670D01*
X-18800Y548746D01*
X-18724Y548824D01*
X-18651Y548905D01*
X-18582Y548988D01*
X-18515Y549074D01*
X-18451Y549163D01*
X-18391Y549253D01*
X-18334Y549346D01*
X-18280Y549440D01*
X-18229Y549537D01*
X-18182Y549635D01*
X-18139Y549735D01*
X-18099Y549836D01*
X-18063Y549938D01*
X-18030Y550042D01*
X-18002Y550147D01*
X-17977Y550253D01*
X-17955Y550360D01*
X-17938Y550467D01*
X-17924Y550575D01*
X-17915Y550684D01*
X-17909Y550792D01*
X-17907Y550901D01*
X-24765Y565937D02*
X-24765Y567842D01*
X-24763Y567927D01*
X-24757Y568013D01*
X-24748Y568098D01*
X-24734Y568182D01*
X-24717Y568266D01*
X-24696Y568349D01*
X-24672Y568431D01*
X-24644Y568511D01*
X-24612Y568591D01*
X-24576Y568669D01*
X-24538Y568745D01*
X-24495Y568819D01*
X-24450Y568891D01*
X-24401Y568962D01*
X-24349Y569030D01*
X-24295Y569095D01*
X-24237Y569158D01*
X-24176Y569219D01*
X-24113Y569277D01*
X-24048Y569331D01*
X-23980Y569383D01*
X-23909Y569432D01*
X-23837Y569477D01*
X-23763Y569520D01*
X-23687Y569558D01*
X-23609Y569594D01*
X-23529Y569626D01*
X-23449Y569654D01*
X-23367Y569678D01*
X-23284Y569699D01*
X-23200Y569716D01*
X-23116Y569730D01*
X-23031Y569739D01*
X-22945Y569745D01*
X-22860Y569747D01*
X-22775Y569745D01*
X-22689Y569739D01*
X-22604Y569730D01*
X-22520Y569716D01*
X-22436Y569699D01*
X-22353Y569678D01*
X-22271Y569654D01*
X-22191Y569626D01*
X-22111Y569594D01*
X-22033Y569558D01*
X-21957Y569520D01*
X-21883Y569477D01*
X-21811Y569432D01*
X-21740Y569383D01*
X-21672Y569331D01*
X-21607Y569277D01*
X-21544Y569219D01*
X-21483Y569158D01*
X-21425Y569095D01*
X-21371Y569030D01*
X-21319Y568962D01*
X-21270Y568891D01*
X-21225Y568819D01*
X-21182Y568745D01*
X-21144Y568669D01*
X-21108Y568591D01*
X-21076Y568511D01*
X-21048Y568431D01*
X-21024Y568349D01*
X-21003Y568266D01*
X-20986Y568182D01*
X-20972Y568098D01*
X-20963Y568013D01*
X-20957Y567927D01*
X-20955Y567842D01*
X-17907Y568223D02*
X-17907Y565937D01*
X-17907Y568223D02*
X-17909Y568300D01*
X-17915Y568377D01*
X-17925Y568454D01*
X-17938Y568530D01*
X-17956Y568605D01*
X-17977Y568679D01*
X-18002Y568752D01*
X-18031Y568824D01*
X-18063Y568894D01*
X-18098Y568963D01*
X-18138Y569029D01*
X-18180Y569094D01*
X-18226Y569156D01*
X-18275Y569216D01*
X-18326Y569273D01*
X-18381Y569328D01*
X-18438Y569379D01*
X-18498Y569428D01*
X-18560Y569474D01*
X-18625Y569516D01*
X-18691Y569556D01*
X-18760Y569591D01*
X-18830Y569623D01*
X-18902Y569652D01*
X-18975Y569677D01*
X-19049Y569698D01*
X-19124Y569716D01*
X-19200Y569729D01*
X-19277Y569739D01*
X-19354Y569745D01*
X-19431Y569747D01*
X-19508Y569745D01*
X-19585Y569739D01*
X-19662Y569729D01*
X-19738Y569716D01*
X-19813Y569698D01*
X-19887Y569677D01*
X-19960Y569652D01*
X-20032Y569623D01*
X-20102Y569591D01*
X-20171Y569556D01*
X-20237Y569516D01*
X-20302Y569474D01*
X-20364Y569428D01*
X-20424Y569379D01*
X-20481Y569328D01*
X-20536Y569273D01*
X-20587Y569216D01*
X-20636Y569156D01*
X-20682Y569094D01*
X-20724Y569029D01*
X-20764Y568963D01*
X-20799Y568894D01*
X-20831Y568824D01*
X-20860Y568752D01*
X-20885Y568679D01*
X-20906Y568605D01*
X-20924Y568530D01*
X-20937Y568454D01*
X-20947Y568377D01*
X-20953Y568300D01*
X-20955Y568223D01*
X-20955Y566699D01*
X-24765Y573253D02*
X-24765Y575539D01*
X-24763Y575616D01*
X-24757Y575693D01*
X-24747Y575770D01*
X-24734Y575846D01*
X-24716Y575921D01*
X-24695Y575995D01*
X-24670Y576068D01*
X-24641Y576140D01*
X-24609Y576210D01*
X-24574Y576279D01*
X-24534Y576345D01*
X-24492Y576410D01*
X-24446Y576472D01*
X-24397Y576532D01*
X-24346Y576589D01*
X-24291Y576644D01*
X-24234Y576695D01*
X-24174Y576744D01*
X-24112Y576790D01*
X-24047Y576832D01*
X-23981Y576872D01*
X-23912Y576907D01*
X-23842Y576939D01*
X-23770Y576968D01*
X-23697Y576993D01*
X-23623Y577014D01*
X-23548Y577032D01*
X-23472Y577045D01*
X-23395Y577055D01*
X-23318Y577061D01*
X-23241Y577063D01*
X-22479Y577063D01*
X-22402Y577061D01*
X-22325Y577055D01*
X-22248Y577045D01*
X-22172Y577032D01*
X-22097Y577014D01*
X-22023Y576993D01*
X-21950Y576968D01*
X-21878Y576939D01*
X-21808Y576907D01*
X-21739Y576872D01*
X-21673Y576832D01*
X-21608Y576790D01*
X-21546Y576744D01*
X-21486Y576695D01*
X-21429Y576644D01*
X-21374Y576589D01*
X-21323Y576532D01*
X-21274Y576472D01*
X-21228Y576410D01*
X-21186Y576345D01*
X-21146Y576279D01*
X-21111Y576210D01*
X-21079Y576140D01*
X-21050Y576068D01*
X-21025Y575995D01*
X-21004Y575921D01*
X-20986Y575846D01*
X-20973Y575770D01*
X-20963Y575693D01*
X-20957Y575616D01*
X-20955Y575539D01*
X-20955Y573253D01*
X-17907Y573253D01*
X-17907Y577063D01*
X-24765Y591337D02*
X-24765Y593242D01*
X-24763Y593327D01*
X-24757Y593413D01*
X-24748Y593498D01*
X-24734Y593582D01*
X-24717Y593666D01*
X-24696Y593749D01*
X-24672Y593831D01*
X-24644Y593911D01*
X-24612Y593991D01*
X-24576Y594069D01*
X-24538Y594145D01*
X-24495Y594219D01*
X-24450Y594291D01*
X-24401Y594362D01*
X-24349Y594430D01*
X-24295Y594495D01*
X-24237Y594558D01*
X-24176Y594619D01*
X-24113Y594677D01*
X-24048Y594731D01*
X-23980Y594783D01*
X-23909Y594832D01*
X-23837Y594877D01*
X-23763Y594920D01*
X-23687Y594958D01*
X-23609Y594994D01*
X-23529Y595026D01*
X-23449Y595054D01*
X-23367Y595078D01*
X-23284Y595099D01*
X-23200Y595116D01*
X-23116Y595130D01*
X-23031Y595139D01*
X-22945Y595145D01*
X-22860Y595147D01*
X-22775Y595145D01*
X-22689Y595139D01*
X-22604Y595130D01*
X-22520Y595116D01*
X-22436Y595099D01*
X-22353Y595078D01*
X-22271Y595054D01*
X-22191Y595026D01*
X-22111Y594994D01*
X-22033Y594958D01*
X-21957Y594920D01*
X-21883Y594877D01*
X-21811Y594832D01*
X-21740Y594783D01*
X-21672Y594731D01*
X-21607Y594677D01*
X-21544Y594619D01*
X-21483Y594558D01*
X-21425Y594495D01*
X-21371Y594430D01*
X-21319Y594362D01*
X-21270Y594291D01*
X-21225Y594219D01*
X-21182Y594145D01*
X-21144Y594069D01*
X-21108Y593991D01*
X-21076Y593911D01*
X-21048Y593831D01*
X-21024Y593749D01*
X-21003Y593666D01*
X-20986Y593582D01*
X-20972Y593498D01*
X-20963Y593413D01*
X-20957Y593327D01*
X-20955Y593242D01*
X-17907Y593623D02*
X-17907Y591337D01*
X-17907Y593623D02*
X-17909Y593700D01*
X-17915Y593777D01*
X-17925Y593854D01*
X-17938Y593930D01*
X-17956Y594005D01*
X-17977Y594079D01*
X-18002Y594152D01*
X-18031Y594224D01*
X-18063Y594294D01*
X-18098Y594363D01*
X-18138Y594429D01*
X-18180Y594494D01*
X-18226Y594556D01*
X-18275Y594616D01*
X-18326Y594673D01*
X-18381Y594728D01*
X-18438Y594779D01*
X-18498Y594828D01*
X-18560Y594874D01*
X-18625Y594916D01*
X-18691Y594956D01*
X-18760Y594991D01*
X-18830Y595023D01*
X-18902Y595052D01*
X-18975Y595077D01*
X-19049Y595098D01*
X-19124Y595116D01*
X-19200Y595129D01*
X-19277Y595139D01*
X-19354Y595145D01*
X-19431Y595147D01*
X-19508Y595145D01*
X-19585Y595139D01*
X-19662Y595129D01*
X-19738Y595116D01*
X-19813Y595098D01*
X-19887Y595077D01*
X-19960Y595052D01*
X-20032Y595023D01*
X-20102Y594991D01*
X-20171Y594956D01*
X-20237Y594916D01*
X-20302Y594874D01*
X-20364Y594828D01*
X-20424Y594779D01*
X-20481Y594728D01*
X-20536Y594673D01*
X-20587Y594616D01*
X-20636Y594556D01*
X-20682Y594494D01*
X-20724Y594429D01*
X-20764Y594363D01*
X-20799Y594294D01*
X-20831Y594224D01*
X-20860Y594152D01*
X-20885Y594079D01*
X-20906Y594005D01*
X-20924Y593930D01*
X-20937Y593854D01*
X-20947Y593777D01*
X-20953Y593700D01*
X-20955Y593623D01*
X-20955Y592099D01*
X-23241Y598653D02*
X-17907Y600177D01*
X-23241Y598653D02*
X-23241Y602463D01*
X-21717Y601320D02*
X-24765Y601320D01*
X-24765Y616737D02*
X-24765Y618642D01*
X-24763Y618727D01*
X-24757Y618813D01*
X-24748Y618898D01*
X-24734Y618982D01*
X-24717Y619066D01*
X-24696Y619149D01*
X-24672Y619231D01*
X-24644Y619311D01*
X-24612Y619391D01*
X-24576Y619469D01*
X-24538Y619545D01*
X-24495Y619619D01*
X-24450Y619691D01*
X-24401Y619762D01*
X-24349Y619830D01*
X-24295Y619895D01*
X-24237Y619958D01*
X-24176Y620019D01*
X-24113Y620077D01*
X-24048Y620131D01*
X-23980Y620183D01*
X-23909Y620232D01*
X-23837Y620277D01*
X-23763Y620320D01*
X-23687Y620358D01*
X-23609Y620394D01*
X-23529Y620426D01*
X-23449Y620454D01*
X-23367Y620478D01*
X-23284Y620499D01*
X-23200Y620516D01*
X-23116Y620530D01*
X-23031Y620539D01*
X-22945Y620545D01*
X-22860Y620547D01*
X-22775Y620545D01*
X-22689Y620539D01*
X-22604Y620530D01*
X-22520Y620516D01*
X-22436Y620499D01*
X-22353Y620478D01*
X-22271Y620454D01*
X-22191Y620426D01*
X-22111Y620394D01*
X-22033Y620358D01*
X-21957Y620320D01*
X-21883Y620277D01*
X-21811Y620232D01*
X-21740Y620183D01*
X-21672Y620131D01*
X-21607Y620077D01*
X-21544Y620019D01*
X-21483Y619958D01*
X-21425Y619895D01*
X-21371Y619830D01*
X-21319Y619762D01*
X-21270Y619691D01*
X-21225Y619619D01*
X-21182Y619545D01*
X-21144Y619469D01*
X-21108Y619391D01*
X-21076Y619311D01*
X-21048Y619231D01*
X-21024Y619149D01*
X-21003Y619066D01*
X-20986Y618982D01*
X-20972Y618898D01*
X-20963Y618813D01*
X-20957Y618727D01*
X-20955Y618642D01*
X-17907Y619023D02*
X-17907Y616737D01*
X-17907Y619023D02*
X-17909Y619100D01*
X-17915Y619177D01*
X-17925Y619254D01*
X-17938Y619330D01*
X-17956Y619405D01*
X-17977Y619479D01*
X-18002Y619552D01*
X-18031Y619624D01*
X-18063Y619694D01*
X-18098Y619763D01*
X-18138Y619829D01*
X-18180Y619894D01*
X-18226Y619956D01*
X-18275Y620016D01*
X-18326Y620073D01*
X-18381Y620128D01*
X-18438Y620179D01*
X-18498Y620228D01*
X-18560Y620274D01*
X-18625Y620316D01*
X-18691Y620356D01*
X-18760Y620391D01*
X-18830Y620423D01*
X-18902Y620452D01*
X-18975Y620477D01*
X-19049Y620498D01*
X-19124Y620516D01*
X-19200Y620529D01*
X-19277Y620539D01*
X-19354Y620545D01*
X-19431Y620547D01*
X-19508Y620545D01*
X-19585Y620539D01*
X-19662Y620529D01*
X-19738Y620516D01*
X-19813Y620498D01*
X-19887Y620477D01*
X-19960Y620452D01*
X-20032Y620423D01*
X-20102Y620391D01*
X-20171Y620356D01*
X-20237Y620316D01*
X-20302Y620274D01*
X-20364Y620228D01*
X-20424Y620179D01*
X-20481Y620128D01*
X-20536Y620073D01*
X-20587Y620016D01*
X-20636Y619956D01*
X-20682Y619894D01*
X-20724Y619829D01*
X-20764Y619763D01*
X-20799Y619694D01*
X-20831Y619624D01*
X-20860Y619552D01*
X-20885Y619479D01*
X-20906Y619405D01*
X-20924Y619330D01*
X-20937Y619254D01*
X-20947Y619177D01*
X-20953Y619100D01*
X-20955Y619023D01*
X-20955Y617499D01*
X-24765Y624053D02*
X-24765Y625958D01*
X-24763Y626043D01*
X-24757Y626129D01*
X-24748Y626214D01*
X-24734Y626298D01*
X-24717Y626382D01*
X-24696Y626465D01*
X-24672Y626547D01*
X-24644Y626627D01*
X-24612Y626707D01*
X-24576Y626785D01*
X-24538Y626861D01*
X-24495Y626935D01*
X-24450Y627007D01*
X-24401Y627078D01*
X-24349Y627146D01*
X-24295Y627211D01*
X-24237Y627274D01*
X-24176Y627335D01*
X-24113Y627393D01*
X-24048Y627447D01*
X-23980Y627499D01*
X-23909Y627548D01*
X-23837Y627593D01*
X-23763Y627636D01*
X-23687Y627674D01*
X-23609Y627710D01*
X-23529Y627742D01*
X-23449Y627770D01*
X-23367Y627794D01*
X-23284Y627815D01*
X-23200Y627832D01*
X-23116Y627846D01*
X-23031Y627855D01*
X-22945Y627861D01*
X-22860Y627863D01*
X-22775Y627861D01*
X-22689Y627855D01*
X-22604Y627846D01*
X-22520Y627832D01*
X-22436Y627815D01*
X-22353Y627794D01*
X-22271Y627770D01*
X-22191Y627742D01*
X-22111Y627710D01*
X-22033Y627674D01*
X-21957Y627636D01*
X-21883Y627593D01*
X-21811Y627548D01*
X-21740Y627499D01*
X-21672Y627447D01*
X-21607Y627393D01*
X-21544Y627335D01*
X-21483Y627274D01*
X-21425Y627211D01*
X-21371Y627146D01*
X-21319Y627078D01*
X-21270Y627007D01*
X-21225Y626935D01*
X-21182Y626861D01*
X-21144Y626785D01*
X-21108Y626707D01*
X-21076Y626627D01*
X-21048Y626547D01*
X-21024Y626465D01*
X-21003Y626382D01*
X-20986Y626298D01*
X-20972Y626214D01*
X-20963Y626129D01*
X-20957Y626043D01*
X-20955Y625958D01*
X-17907Y626339D02*
X-17907Y624053D01*
X-17907Y626339D02*
X-17909Y626416D01*
X-17915Y626493D01*
X-17925Y626570D01*
X-17938Y626646D01*
X-17956Y626721D01*
X-17977Y626795D01*
X-18002Y626868D01*
X-18031Y626940D01*
X-18063Y627010D01*
X-18098Y627079D01*
X-18138Y627145D01*
X-18180Y627210D01*
X-18226Y627272D01*
X-18275Y627332D01*
X-18326Y627389D01*
X-18381Y627444D01*
X-18438Y627495D01*
X-18498Y627544D01*
X-18560Y627590D01*
X-18625Y627632D01*
X-18691Y627672D01*
X-18760Y627707D01*
X-18830Y627739D01*
X-18902Y627768D01*
X-18975Y627793D01*
X-19049Y627814D01*
X-19124Y627832D01*
X-19200Y627845D01*
X-19277Y627855D01*
X-19354Y627861D01*
X-19431Y627863D01*
X-19508Y627861D01*
X-19585Y627855D01*
X-19662Y627845D01*
X-19738Y627832D01*
X-19813Y627814D01*
X-19887Y627793D01*
X-19960Y627768D01*
X-20032Y627739D01*
X-20102Y627707D01*
X-20171Y627672D01*
X-20237Y627632D01*
X-20302Y627590D01*
X-20364Y627544D01*
X-20424Y627495D01*
X-20481Y627444D01*
X-20536Y627389D01*
X-20587Y627332D01*
X-20636Y627272D01*
X-20682Y627210D01*
X-20724Y627145D01*
X-20764Y627079D01*
X-20799Y627010D01*
X-20831Y626940D01*
X-20860Y626868D01*
X-20885Y626795D01*
X-20906Y626721D01*
X-20924Y626646D01*
X-20937Y626570D01*
X-20947Y626493D01*
X-20953Y626416D01*
X-20955Y626339D01*
X-20955Y624815D01*
M02*
