G04 EAGLE Gerber RS-274X export*
G75*
%MOMM*%
%FSLAX34Y34*%
%LPD*%
%INSoldermask Bottom*%
%IPPOS*%
%AMOC8*
5,1,8,0,0,1.08239X$1,22.5*%
G01*
G04 Define Apertures*
%ADD10C,1.711200*%
%ADD11R,1.711200X1.711200*%
%ADD12C,2.082800*%
%ADD13R,2.235200X2.235200*%
%ADD14C,2.235200*%
%ADD15C,1.727200*%
%ADD16C,3.505200*%
%ADD17C,0.959600*%
%ADD18C,4.419600*%
D10*
X-114300Y266700D03*
X-114300Y241300D03*
X-114300Y215900D03*
X-114300Y190500D03*
X-114300Y165100D03*
X-114300Y139700D03*
X-114300Y114300D03*
X-114300Y88900D03*
D11*
X-241300Y266700D03*
D10*
X-241300Y241300D03*
X-241300Y215900D03*
X-241300Y190500D03*
X-241300Y165100D03*
X-241300Y139700D03*
X-241300Y114300D03*
X-241300Y88900D03*
X-139700Y88900D03*
X-165100Y88900D03*
X-114300Y749300D03*
X-114300Y723900D03*
X-114300Y698500D03*
X-114300Y673100D03*
X-114300Y647700D03*
X-114300Y622300D03*
X-114300Y596900D03*
X-114300Y571500D03*
D11*
X-241300Y749300D03*
D10*
X-241300Y723900D03*
X-241300Y698500D03*
X-241300Y673100D03*
X-241300Y647700D03*
X-241300Y622300D03*
X-241300Y596900D03*
X-241300Y571500D03*
X-139700Y571500D03*
X-165100Y571500D03*
D12*
X-88900Y622300D03*
X-63500Y622300D03*
X-88900Y596900D03*
X-63500Y596900D03*
X-88900Y571500D03*
X-63500Y571500D03*
X-88900Y546100D03*
X-63500Y546100D03*
X-88900Y520700D03*
X-63500Y520700D03*
X-88900Y495300D03*
X-63500Y495300D03*
X-88900Y469900D03*
X-63500Y469900D03*
X-88900Y444500D03*
X-63500Y444500D03*
X-88900Y419100D03*
X-63500Y419100D03*
X-88900Y393700D03*
X-63500Y393700D03*
X165100Y419100D03*
X139700Y419100D03*
X165100Y444500D03*
X139700Y444500D03*
X165100Y469900D03*
X139700Y469900D03*
X165100Y495300D03*
X139700Y495300D03*
X165100Y520700D03*
X139700Y520700D03*
X165100Y546100D03*
X139700Y546100D03*
X165100Y571500D03*
X139700Y571500D03*
X165100Y596900D03*
X139700Y596900D03*
X165100Y622300D03*
X139700Y622300D03*
X-165100Y38100D03*
X-139700Y38100D03*
X-114300Y38100D03*
X-88900Y38100D03*
X-63500Y38100D03*
D13*
X-306070Y563920D03*
D14*
X-306070Y513920D03*
D12*
X243151Y625818D03*
X243151Y600418D03*
X243151Y575018D03*
X243151Y549618D03*
X243151Y524218D03*
X243151Y498818D03*
X243151Y473418D03*
X243151Y448018D03*
X139700Y393192D03*
X165100Y393192D03*
X190500Y393192D03*
X215900Y393192D03*
X241300Y393192D03*
X139700Y38608D03*
X165100Y38608D03*
X190500Y38608D03*
X215900Y38608D03*
X241300Y38608D03*
D13*
X-306070Y80480D03*
D14*
X-306070Y30480D03*
D12*
X165100Y63500D03*
X165100Y88900D03*
X165100Y114300D03*
X165100Y139700D03*
X165100Y165100D03*
X165100Y190500D03*
X165100Y215900D03*
X165100Y241300D03*
X165100Y266700D03*
X165100Y292100D03*
X165100Y317500D03*
X165100Y342900D03*
X165100Y368300D03*
X139700Y368300D03*
X139700Y342900D03*
X139700Y317500D03*
X139700Y292100D03*
X139700Y266700D03*
X139700Y241300D03*
X139700Y215900D03*
X139700Y190500D03*
X139700Y165100D03*
X139700Y139700D03*
X139700Y114300D03*
X139700Y88900D03*
X139700Y63500D03*
X-88900Y368300D03*
X-63500Y368300D03*
X-88900Y342900D03*
X-63500Y342900D03*
X-88900Y317500D03*
X-63500Y317500D03*
X-88900Y292100D03*
X-63500Y292100D03*
X-88900Y266700D03*
X-63500Y266700D03*
X-88900Y241300D03*
X-63500Y241300D03*
X-88900Y215900D03*
X-63500Y215900D03*
X-88900Y190500D03*
X-63500Y190500D03*
X-88900Y165100D03*
X-63500Y165100D03*
X-88900Y139700D03*
X-63500Y139700D03*
D15*
X-53030Y961390D03*
X-197810Y986790D03*
D16*
X-127960Y1027430D03*
X-127960Y895350D03*
D15*
X-197810Y935990D03*
X-53030Y986790D03*
X-53030Y935990D03*
D12*
X-38100Y368300D03*
X-38100Y342900D03*
X-38100Y317500D03*
X-38100Y292100D03*
X-38100Y266700D03*
X-38100Y241300D03*
X-38100Y215900D03*
X-38100Y190500D03*
X-38100Y165100D03*
X-38100Y139700D03*
X-38100Y114300D03*
X-38100Y88900D03*
X-38100Y63500D03*
X-38100Y38100D03*
X114300Y368300D03*
X114300Y342900D03*
X114300Y317500D03*
X114300Y292100D03*
X114300Y266700D03*
X114300Y241300D03*
X114300Y215900D03*
X114300Y190500D03*
X114300Y165100D03*
X114300Y139700D03*
X114300Y114300D03*
X114300Y88900D03*
X114300Y63500D03*
X114300Y38100D03*
X114300Y419100D03*
X114300Y444500D03*
X114300Y469900D03*
X114300Y495300D03*
X114300Y520700D03*
X114300Y546100D03*
X114300Y571500D03*
X114300Y596900D03*
X114300Y622300D03*
X-38100Y622300D03*
X-38100Y596900D03*
X-38100Y571500D03*
X-38100Y546100D03*
X-38100Y520700D03*
X-38100Y495300D03*
X-38100Y469900D03*
X-38100Y444500D03*
X-38100Y419100D03*
X-38100Y393700D03*
X114300Y393700D03*
X-88900Y63500D03*
X-63500Y63500D03*
X-88900Y114300D03*
X-63500Y114300D03*
X229870Y152400D03*
X229870Y177800D03*
X229870Y203200D03*
X229870Y228600D03*
X228600Y273050D03*
X228600Y298450D03*
X228600Y323850D03*
X228600Y349250D03*
X91440Y1022350D03*
X116840Y1022350D03*
X142240Y1022350D03*
X167640Y1022350D03*
X193040Y1022350D03*
X218440Y1022350D03*
X243840Y1022350D03*
X269240Y1022350D03*
X91440Y930910D03*
X116840Y930910D03*
X142240Y930910D03*
X167640Y930910D03*
X193040Y930910D03*
X218440Y930910D03*
X243840Y930910D03*
X269240Y930910D03*
X91440Y839470D03*
X116840Y839470D03*
X142240Y839470D03*
X167640Y839470D03*
X193040Y839470D03*
X218440Y839470D03*
X243840Y839470D03*
X269240Y839470D03*
X90969Y748030D03*
X116369Y748030D03*
X141769Y748030D03*
X167169Y748030D03*
X192569Y748030D03*
X217969Y748030D03*
X243369Y748030D03*
X268769Y748030D03*
D10*
X-114300Y495300D03*
X-114300Y469900D03*
X-114300Y444500D03*
X-114300Y419100D03*
X-114300Y393700D03*
X-114300Y368300D03*
X-114300Y342900D03*
X-114300Y317500D03*
D11*
X-241300Y495300D03*
D10*
X-241300Y469900D03*
X-241300Y444500D03*
X-241300Y419100D03*
X-241300Y393700D03*
X-241300Y368300D03*
X-241300Y342900D03*
X-241300Y317500D03*
X-139700Y317500D03*
X-165100Y317500D03*
D12*
X-88900Y88900D03*
X-63500Y88900D03*
D11*
X-292100Y228600D03*
D10*
X-292100Y203200D03*
X-292100Y177800D03*
X-292100Y152400D03*
D11*
X-292100Y431800D03*
D10*
X-292100Y406400D03*
X-292100Y381000D03*
X-292100Y355600D03*
D11*
X-292100Y711200D03*
D10*
X-292100Y685800D03*
X-292100Y660400D03*
X-292100Y635000D03*
D17*
X-279400Y558800D03*
X50800Y228600D03*
X25400Y165100D03*
X25400Y50800D03*
X-226845Y800429D03*
X190500Y158270D03*
X217170Y974090D03*
X179070Y982980D03*
X179070Y891540D03*
X153670Y891540D03*
X219710Y885190D03*
X218440Y792480D03*
X179070Y801370D03*
X154940Y800100D03*
X179070Y711200D03*
X153670Y709930D03*
X233680Y693420D03*
X266700Y965200D03*
X187960Y267970D03*
X-279400Y774700D03*
X-26670Y753110D03*
X-165100Y1028700D03*
X34290Y695960D03*
X-217170Y754380D03*
X278158Y381000D03*
X278158Y127000D03*
X278158Y254000D03*
X-74051Y949452D03*
X-33382Y774700D03*
X-228600Y965200D03*
X-279400Y787400D03*
X-25400Y927100D03*
X-101600Y863600D03*
X50800Y1028700D03*
X-177800Y203200D03*
X-135890Y586740D03*
X-165100Y279400D03*
D18*
X254000Y88900D03*
D17*
X222730Y250190D03*
X258914Y876300D03*
X-321898Y871351D03*
X-23591Y916209D03*
X31270Y858520D03*
X31270Y817880D03*
X47978Y939800D03*
X47978Y825500D03*
X-159230Y101600D03*
X203200Y241300D03*
X190500Y241300D03*
X254000Y215900D03*
X266700Y177800D03*
X254000Y127000D03*
X228600Y88900D03*
X203200Y63500D03*
X203200Y101600D03*
X50800Y127000D03*
X12700Y114300D03*
X25400Y203200D03*
X270Y266700D03*
X-25400Y330200D03*
X-25400Y304800D03*
X50800Y292100D03*
X53340Y326390D03*
X25400Y368300D03*
X38100Y254000D03*
X76200Y266700D03*
X88900Y241300D03*
X99596Y292100D03*
X88900Y76200D03*
X63500Y63500D03*
X38100Y25400D03*
X-12700Y13942D03*
X-139700Y13942D03*
X190500Y13942D03*
X63500Y13942D03*
X278158Y13942D03*
X-215900Y13942D03*
X-292100Y13942D03*
X-342900Y13942D03*
X-330200Y88900D03*
X-330200Y139700D03*
X-330200Y190500D03*
X-330200Y228600D03*
X-354358Y203200D03*
X-354358Y254000D03*
X-354358Y76200D03*
X-354358Y736600D03*
X-354358Y635000D03*
X-354358Y533400D03*
X-354358Y431800D03*
X-354358Y368300D03*
X-354358Y330200D03*
X-354358Y787400D03*
X-354358Y952500D03*
X-342900Y1040158D03*
X-292100Y1040158D03*
X-215900Y1028700D03*
X-190500Y1016000D03*
X-127000Y939800D03*
X-139700Y965200D03*
X-165100Y914400D03*
X-63500Y1028700D03*
X17780Y227330D03*
X91440Y501650D03*
X90170Y435610D03*
X92710Y529590D03*
X76200Y520700D03*
X76200Y457200D03*
X76200Y419100D03*
X12700Y482600D03*
X199390Y666750D03*
X182880Y648970D03*
X232410Y676910D03*
X218440Y628650D03*
X208280Y560070D03*
X174227Y481567D03*
X175260Y508000D03*
X186690Y453390D03*
X186690Y431800D03*
X93980Y412750D03*
X128270Y431800D03*
X251460Y643890D03*
X278158Y316230D03*
X278158Y787400D03*
X278130Y890270D03*
X278158Y1000760D03*
X275590Y1040158D03*
X34290Y1040158D03*
X-21590Y1040158D03*
X110490Y782320D03*
X50800Y788670D03*
X74930Y817880D03*
X62230Y872490D03*
X66040Y906780D03*
X132080Y897890D03*
X208280Y807720D03*
X207010Y904240D03*
X109220Y693420D03*
X203200Y717550D03*
X237490Y772160D03*
X209222Y607060D03*
X-67310Y641350D03*
X-132080Y548640D03*
X-132080Y518160D03*
X-127000Y302260D03*
X-138430Y332740D03*
X-135890Y269240D03*
X-162560Y222250D03*
X-170180Y441960D03*
X-266700Y317500D03*
X-292100Y330200D03*
X-331470Y422910D03*
X-330200Y318770D03*
X-317500Y474980D03*
X-275590Y109220D03*
X-300990Y124460D03*
X-259080Y212090D03*
X-270510Y368300D03*
X-270510Y393700D03*
X-265430Y698500D03*
X-275590Y735330D03*
X-300990Y938530D03*
X-302260Y889000D03*
X-222250Y866140D03*
X-228600Y910590D03*
X-267970Y946150D03*
X-287020Y803910D03*
X-264160Y812800D03*
X-218440Y805180D03*
X-213360Y857250D03*
X-220980Y885190D03*
X-299720Y922020D03*
X-328930Y943610D03*
X-330200Y909320D03*
X-294640Y1027430D03*
X-304800Y990600D03*
X-344170Y1013460D03*
X-247650Y928370D03*
X-161290Y878840D03*
X-186690Y840740D03*
X-109220Y819150D03*
X-127000Y777240D03*
X-157480Y806450D03*
X-163830Y746760D03*
X-36830Y681990D03*
X-100330Y787400D03*
X193040Y342900D03*
X196850Y374650D03*
X179070Y359410D03*
X99060Y1003300D03*
X213360Y996950D03*
X121920Y704850D03*
X121920Y726440D03*
X223520Y727710D03*
X223520Y711200D03*
X247650Y819150D03*
X247650Y798830D03*
X223520Y798830D03*
X223520Y817880D03*
X121920Y817880D03*
X121920Y798830D03*
X121920Y889000D03*
X121920Y905510D03*
X247650Y910590D03*
X247650Y890270D03*
X223520Y908050D03*
X247650Y1002030D03*
X222250Y1002030D03*
X222250Y981710D03*
X123824Y980440D03*
X123269Y1001475D03*
X-344170Y935990D03*
X-354358Y935990D03*
X-354358Y889000D03*
X-330200Y924560D03*
X-283210Y815340D03*
X-279400Y860473D03*
X-236220Y812800D03*
X204470Y881380D03*
X179070Y881380D03*
X153670Y880110D03*
X153670Y974090D03*
X179070Y972820D03*
X204470Y972820D03*
X204470Y789940D03*
X179070Y788670D03*
X153670Y789940D03*
X204470Y697230D03*
X179070Y697230D03*
X153670Y697230D03*
X97799Y727710D03*
X109700Y878840D03*
X98270Y980440D03*
X97799Y706266D03*
X98420Y889000D03*
X98420Y910590D03*
X98420Y797560D03*
X98420Y817880D03*
X62230Y965200D03*
X66040Y1007110D03*
X71120Y767080D03*
X13970Y516890D03*
X13970Y642620D03*
X13970Y770890D03*
X13970Y904240D03*
X310Y402590D03*
X-30005Y508000D03*
X-10891Y954309D03*
X67376Y314960D03*
X56641Y548640D03*
X71754Y597098D03*
X-2380Y327660D03*
X16360Y325120D03*
X19182Y434340D03*
X-960Y554990D03*
X-960Y812800D03*
X173990Y533400D03*
X213032Y491490D03*
X58749Y604586D03*
X64770Y542290D03*
X227073Y476865D03*
X252052Y665480D03*
X213652Y428178D03*
X226670Y441197D03*
X226499Y466425D03*
X256744Y460636D03*
X223520Y582930D03*
X-269862Y671208D03*
X-274281Y638849D03*
X-279254Y426636D03*
X-266700Y151660D03*
X-280515Y161925D03*
X-270637Y185067D03*
X262409Y400531D03*
X-286387Y266063D03*
X-165100Y495300D03*
X-139700Y406400D03*
X12700Y571500D03*
X-59860Y741680D03*
X66040Y689300D03*
X-29608Y609202D03*
X-28973Y583167D03*
X-29210Y431800D03*
X2540Y466090D03*
X-82578Y666750D03*
X-25400Y152400D03*
X-25400Y201930D03*
X-25400Y254000D03*
X-139220Y212090D03*
X270Y215900D03*
X-266700Y242570D03*
X-260350Y459740D03*
X-265430Y527050D03*
X-227330Y698500D03*
X154940Y735330D03*
X179070Y734060D03*
X154940Y825500D03*
X180340Y825500D03*
X154940Y915670D03*
X179070Y916940D03*
X154940Y1008380D03*
X179070Y1005840D03*
X102870Y152400D03*
X102870Y127000D03*
X101600Y177800D03*
X102870Y203200D03*
X95250Y306070D03*
X102870Y355600D03*
X177800Y406400D03*
X214630Y156210D03*
X-105410Y533400D03*
X-102870Y609600D03*
X-132080Y681990D03*
X-101600Y355600D03*
X-101600Y330200D03*
X-101600Y381000D03*
X-101600Y406400D03*
X-119767Y431800D03*
X-101600Y482600D03*
X-101600Y457200D03*
X-101600Y508000D03*
X-204244Y457200D03*
X-227556Y406400D03*
X-227556Y228600D03*
X-229991Y77244D03*
X-188608Y87008D03*
X-165100Y190500D03*
X-165100Y177800D03*
X-165100Y165100D03*
X-190500Y177800D03*
X-190500Y190500D03*
X-165100Y393700D03*
X-165100Y406400D03*
X-165100Y419100D03*
X-190500Y419100D03*
X-190500Y406400D03*
X-177800Y431800D03*
X-165100Y647700D03*
X-165100Y660400D03*
X-165100Y673100D03*
X-190500Y673100D03*
X-190500Y660400D03*
X-190500Y647700D03*
X-177800Y685800D03*
X-187191Y714509D03*
X-174971Y702289D03*
X-221602Y159398D03*
X-190500Y167640D03*
X-190500Y394970D03*
X-314960Y1003300D03*
X-327660Y1003300D03*
X-340360Y1003300D03*
X-340360Y976630D03*
X-327660Y976630D03*
X-314960Y976630D03*
X-349278Y989330D03*
X247470Y983160D03*
X182344Y1027712D03*
X131544Y1027712D03*
X26642Y965200D03*
X146928Y995680D03*
X264677Y814070D03*
X265768Y712470D03*
X265768Y668460D03*
X261196Y587180D03*
X261196Y538480D03*
X261196Y514058D03*
X235056Y511518D03*
X261196Y450943D03*
X262252Y685112D03*
X246126Y709930D03*
X246126Y728980D03*
X216079Y660221D03*
X18928Y405130D03*
X36830Y648562D03*
X106680Y676502D03*
X73660Y675232D03*
X51054Y482600D03*
X217780Y374040D03*
X135636Y717730D03*
X258898Y563145D03*
X258194Y484586D03*
X215436Y534461D03*
X135148Y810260D03*
X190172Y610870D03*
X228447Y525973D03*
X227330Y551180D03*
X188139Y632281D03*
X43004Y635176D03*
X127000Y635424D03*
X78740Y650608D03*
X163501Y656919D03*
X174296Y667714D03*
X147320Y665480D03*
X71120Y637540D03*
X176530Y306070D03*
X205740Y304800D03*
X210820Y345440D03*
X55880Y354330D03*
X48260Y377190D03*
X57150Y393700D03*
X128270Y381000D03*
X-80010Y431800D03*
X-105410Y203200D03*
X-130810Y165100D03*
X-161290Y552450D03*
X-214630Y588010D03*
X-200660Y543560D03*
X-200660Y278130D03*
X3810Y78740D03*
X29210Y933450D03*
X-17780Y899160D03*
X-147320Y848360D03*
X-76200Y50800D03*
X-77470Y76200D03*
X-76200Y101600D03*
X-113030Y76054D03*
X-77470Y152400D03*
X-77470Y228600D03*
X-76200Y254000D03*
X-76200Y279400D03*
X-104140Y306070D03*
X181610Y584200D03*
X127000Y509270D03*
X151130Y457200D03*
X245110Y424180D03*
X152400Y255270D03*
X203200Y176530D03*
X245110Y12700D03*
X123190Y11402D03*
X-62230Y690880D03*
X-17780Y660400D03*
X-332740Y518160D03*
X-339090Y817880D03*
X-336550Y859790D03*
X-301018Y764540D03*
X-306083Y783577D03*
X-335280Y600710D03*
X-335280Y789940D03*
X-335280Y698500D03*
X-335280Y647700D03*
X-334010Y744220D03*
X-309893Y798817D03*
X-134633Y72377D03*
X-307340Y416560D03*
X-306070Y368300D03*
X-307340Y213360D03*
X-307340Y163830D03*
X-307340Y695960D03*
X-306070Y647700D03*
X151130Y74930D03*
X152400Y101600D03*
X180340Y561325D03*
X-38100Y986790D03*
X-214630Y49530D03*
X-127000Y53340D03*
X-293370Y52070D03*
X-104140Y127000D03*
X-144780Y125730D03*
X-152400Y342900D03*
X51561Y402590D03*
X-135752Y644533D03*
X28016Y401876D03*
X-5532Y380734D03*
X19182Y380500D03*
X20320Y584200D03*
X96520Y584200D03*
X81280Y585455D03*
X51561Y585470D03*
X254000Y762000D03*
X258770Y721669D03*
X218287Y513080D03*
X88900Y177800D03*
X69850Y195580D03*
D18*
X0Y1016000D03*
X-317500Y292100D03*
M02*
