G04 EAGLE Gerber RS-274X export*
G75*
%MOMM*%
%FSLAX34Y34*%
%LPD*%
%INTop Copper*%
%IPPOS*%
%AMOC8*
5,1,8,0,0,1.08239X$1,22.5*%
G01*
G04 Define Apertures*
G36*
X1920198Y-390896D02*
X1920000Y-390916D01*
X-520000Y-390916D01*
X-520198Y-390896D01*
X-527110Y-389521D01*
X-527477Y-389370D01*
X-533336Y-385454D01*
X-533617Y-385174D01*
X-537532Y-379314D01*
X-537684Y-378948D01*
X-539058Y-372036D01*
X-539078Y-371838D01*
X-539078Y-366985D01*
X-539063Y-366813D01*
X-538030Y-360792D01*
X-537987Y-360625D01*
X-277565Y375958D01*
X-277565Y375958D01*
X-276774Y378197D01*
X-276685Y378385D01*
X-272869Y384678D01*
X-272587Y384981D01*
X-266578Y389230D01*
X-266199Y389395D01*
X-258994Y390894D01*
X-258787Y390916D01*
X-11215Y390916D01*
X-807Y393704D01*
X8524Y399092D01*
X16143Y406711D01*
X18696Y411133D01*
X69611Y499320D01*
X70798Y501377D01*
X70900Y501522D01*
X74932Y506327D01*
X75202Y506554D01*
X80635Y509690D01*
X80966Y509811D01*
X87144Y510900D01*
X87321Y510916D01*
X1312680Y510916D01*
X1312856Y510900D01*
X1319034Y509811D01*
X1319365Y509690D01*
X1324798Y506554D01*
X1325068Y506327D01*
X1329100Y501522D01*
X1329202Y501377D01*
X1330389Y499320D01*
X1381304Y411133D01*
X1383857Y406711D01*
X1391476Y399092D01*
X1400807Y393704D01*
X1411215Y390916D01*
X1658787Y390916D01*
X1658994Y390894D01*
X1666199Y389395D01*
X1666578Y389230D01*
X1672587Y384981D01*
X1672869Y384678D01*
X1676685Y378385D01*
X1676774Y378197D01*
X1677565Y375958D01*
X1677565Y375958D01*
X1937987Y-360625D01*
X1938030Y-360792D01*
X1939063Y-366813D01*
X1939078Y-366985D01*
X1939078Y-371838D01*
X1939058Y-372036D01*
X1937684Y-378948D01*
X1937532Y-379314D01*
X1933617Y-385174D01*
X1933336Y-385454D01*
X1927477Y-389370D01*
X1927110Y-389521D01*
X1920198Y-390896D01*
G37*
%LPC*%
G36*
X1625498Y323416D02*
X1634502Y323416D01*
X1643064Y326198D01*
X1650348Y331490D01*
X1655640Y338774D01*
X1658422Y347336D01*
X1658422Y356339D01*
X1655640Y364902D01*
X1650348Y372186D01*
X1643064Y377478D01*
X1634502Y380260D01*
X1625498Y380260D01*
X1616936Y377478D01*
X1609652Y372186D01*
X1604360Y364902D01*
X1601578Y356339D01*
X1601578Y347336D01*
X1604360Y338774D01*
X1609652Y331490D01*
X1616936Y326198D01*
X1625498Y323416D01*
G37*
G36*
X-234502Y323416D02*
X-225498Y323416D01*
X-216936Y326198D01*
X-209652Y331490D01*
X-204360Y338774D01*
X-201578Y347336D01*
X-201578Y356339D01*
X-204360Y364902D01*
X-209652Y372186D01*
X-216936Y377478D01*
X-225498Y380260D01*
X-234502Y380260D01*
X-243064Y377478D01*
X-250348Y372186D01*
X-255640Y364902D01*
X-258422Y356339D01*
X-258422Y347336D01*
X-255640Y338774D01*
X-250348Y331490D01*
X-243064Y326198D01*
X-234502Y323416D01*
G37*
G36*
X921802Y271729D02*
X930805Y271729D01*
X939367Y274511D01*
X946651Y279803D01*
X951943Y287087D01*
X954725Y295649D01*
X954725Y304653D01*
X951943Y313215D01*
X946651Y320499D01*
X939367Y325791D01*
X930805Y328573D01*
X921802Y328573D01*
X913239Y325791D01*
X905955Y320499D01*
X900663Y313215D01*
X897881Y304653D01*
X897881Y295649D01*
X900663Y287087D01*
X905955Y279803D01*
X913239Y274511D01*
X921802Y271729D01*
G37*
G36*
X469195Y271729D02*
X478198Y271729D01*
X486761Y274511D01*
X494045Y279803D01*
X499337Y287087D01*
X502119Y295649D01*
X502119Y304653D01*
X499337Y313215D01*
X494045Y320499D01*
X486761Y325791D01*
X478198Y328573D01*
X469195Y328573D01*
X460633Y325791D01*
X453349Y320499D01*
X448057Y313215D01*
X445275Y304653D01*
X445275Y295649D01*
X448057Y287087D01*
X453349Y279803D01*
X460633Y274511D01*
X469195Y271729D01*
G37*
G36*
X609102Y-10922D02*
X790898Y-10922D01*
X800213Y-7895D01*
X808138Y-2138D01*
X813895Y5787D01*
X816922Y15102D01*
X816922Y73766D01*
X817042Y74246D01*
X817300Y74557D01*
X817659Y74743D01*
X818063Y74775D01*
X818446Y74646D01*
X825366Y70651D01*
X833500Y69217D01*
X841634Y70651D01*
X848788Y74781D01*
X854097Y81108D01*
X856922Y88870D01*
X856922Y97130D01*
X854097Y104892D01*
X848788Y111219D01*
X841634Y115349D01*
X833500Y116783D01*
X825366Y115349D01*
X818446Y111354D01*
X817970Y111218D01*
X817572Y111286D01*
X817231Y111504D01*
X817002Y111838D01*
X816922Y112234D01*
X816922Y147898D01*
X813895Y157213D01*
X808138Y165138D01*
X800213Y170895D01*
X790898Y173922D01*
X609102Y173922D01*
X599787Y170895D01*
X591862Y165138D01*
X586105Y157213D01*
X583078Y147898D01*
X583078Y112234D01*
X582958Y111754D01*
X582700Y111443D01*
X582341Y111257D01*
X581937Y111226D01*
X581554Y111354D01*
X574634Y115349D01*
X566500Y116783D01*
X558366Y115349D01*
X551212Y111219D01*
X545903Y104892D01*
X543078Y97130D01*
X543078Y88870D01*
X545903Y81108D01*
X551212Y74781D01*
X558366Y70651D01*
X566500Y69217D01*
X574634Y70651D01*
X581554Y74646D01*
X582030Y74782D01*
X582428Y74714D01*
X582769Y74496D01*
X582998Y74162D01*
X583078Y73766D01*
X583078Y15102D01*
X586105Y5787D01*
X591862Y-2138D01*
X599787Y-7895D01*
X609102Y-10922D01*
G37*
G36*
X-8955Y-90922D02*
X8955Y-90922D01*
X26521Y-87428D01*
X43068Y-80574D01*
X57960Y-70624D01*
X70624Y-57960D01*
X80574Y-43068D01*
X87428Y-26521D01*
X90922Y-8955D01*
X90922Y8955D01*
X87428Y26521D01*
X80574Y43068D01*
X70624Y57960D01*
X57960Y70624D01*
X43068Y80574D01*
X26521Y87428D01*
X8955Y90922D01*
X-8955Y90922D01*
X-26521Y87428D01*
X-43068Y80574D01*
X-57960Y70624D01*
X-70624Y57960D01*
X-80574Y43068D01*
X-87428Y26521D01*
X-90922Y8955D01*
X-90922Y-8955D01*
X-87428Y-26521D01*
X-80574Y-43068D01*
X-70624Y-57960D01*
X-57960Y-70624D01*
X-43068Y-80574D01*
X-26521Y-87428D01*
X-8955Y-90922D01*
G37*
G36*
X1393691Y-47922D02*
X1406309Y-47922D01*
X1418497Y-44656D01*
X1429425Y-38347D01*
X1438347Y-29425D01*
X1444656Y-18497D01*
X1447922Y-6309D01*
X1447922Y6309D01*
X1444656Y18497D01*
X1438347Y29425D01*
X1429425Y38347D01*
X1418569Y44615D01*
X1418188Y45004D01*
X1418067Y45390D01*
X1418106Y45792D01*
X1418299Y46148D01*
X1420157Y48362D01*
X1422922Y55958D01*
X1422922Y64042D01*
X1420157Y71638D01*
X1414961Y77830D01*
X1407961Y81872D01*
X1400000Y83276D01*
X1392039Y81872D01*
X1385039Y77830D01*
X1379843Y71638D01*
X1377078Y64042D01*
X1377078Y55958D01*
X1379843Y48362D01*
X1381701Y46148D01*
X1381927Y45651D01*
X1381908Y45247D01*
X1381734Y44882D01*
X1381431Y44615D01*
X1370575Y38347D01*
X1361653Y29425D01*
X1355344Y18497D01*
X1352078Y6309D01*
X1352078Y-6309D01*
X1355344Y-18497D01*
X1361653Y-29425D01*
X1370575Y-38347D01*
X1381503Y-44656D01*
X1393691Y-47922D01*
G37*
G36*
X558366Y-115349D02*
X566500Y-116783D01*
X574634Y-115349D01*
X581788Y-111219D01*
X587097Y-104892D01*
X589922Y-97130D01*
X589922Y-88870D01*
X587097Y-81108D01*
X581788Y-74781D01*
X574634Y-70651D01*
X566500Y-69217D01*
X558366Y-70651D01*
X551212Y-74781D01*
X545903Y-81108D01*
X543078Y-88870D01*
X543078Y-97130D01*
X545903Y-104892D01*
X551212Y-111219D01*
X558366Y-115349D01*
G37*
G36*
X825366Y-115349D02*
X833500Y-116783D01*
X841634Y-115349D01*
X848788Y-111219D01*
X854097Y-104892D01*
X856922Y-97130D01*
X856922Y-88870D01*
X854097Y-81108D01*
X848788Y-74781D01*
X841634Y-70651D01*
X833500Y-69217D01*
X825366Y-70651D01*
X818212Y-74781D01*
X812903Y-81108D01*
X810078Y-88870D01*
X810078Y-97130D01*
X812903Y-104892D01*
X818212Y-111219D01*
X825366Y-115349D01*
G37*
G36*
X921802Y-233671D02*
X930805Y-233671D01*
X939367Y-230889D01*
X946651Y-225597D01*
X951943Y-218313D01*
X954725Y-209751D01*
X954725Y-200747D01*
X951943Y-192185D01*
X946651Y-184901D01*
X939367Y-179609D01*
X930805Y-176827D01*
X921802Y-176827D01*
X913239Y-179609D01*
X905955Y-184901D01*
X900663Y-192185D01*
X897881Y-200747D01*
X897881Y-209751D01*
X900663Y-218313D01*
X905955Y-225597D01*
X913239Y-230889D01*
X921802Y-233671D01*
G37*
G36*
X469195Y-233671D02*
X478198Y-233671D01*
X486761Y-230889D01*
X494045Y-225597D01*
X499337Y-218313D01*
X502119Y-209751D01*
X502119Y-200747D01*
X499337Y-192185D01*
X494045Y-184901D01*
X486761Y-179609D01*
X478198Y-176827D01*
X469195Y-176827D01*
X460633Y-179609D01*
X453349Y-184901D01*
X448057Y-192185D01*
X445275Y-200747D01*
X445275Y-209751D01*
X448057Y-218313D01*
X453349Y-225597D01*
X460633Y-230889D01*
X469195Y-233671D01*
G37*
G36*
X1625498Y-340260D02*
X1634502Y-340260D01*
X1643064Y-337478D01*
X1650348Y-332186D01*
X1655640Y-324902D01*
X1658422Y-316339D01*
X1658422Y-307336D01*
X1655640Y-298774D01*
X1650348Y-291490D01*
X1643064Y-286198D01*
X1634502Y-283416D01*
X1625498Y-283416D01*
X1616936Y-286198D01*
X1609652Y-291490D01*
X1604360Y-298774D01*
X1601578Y-307336D01*
X1601578Y-316339D01*
X1604360Y-324902D01*
X1609652Y-332186D01*
X1616936Y-337478D01*
X1625498Y-340260D01*
G37*
G36*
X-234502Y-340260D02*
X-225498Y-340260D01*
X-216936Y-337478D01*
X-209652Y-332186D01*
X-204360Y-324902D01*
X-201578Y-316339D01*
X-201578Y-307336D01*
X-204360Y-298774D01*
X-209652Y-291490D01*
X-216936Y-286198D01*
X-225498Y-283416D01*
X-234502Y-283416D01*
X-243064Y-286198D01*
X-250348Y-291490D01*
X-255640Y-298774D01*
X-258422Y-307336D01*
X-258422Y-316339D01*
X-255640Y-324902D01*
X-250348Y-332186D01*
X-243064Y-337478D01*
X-234502Y-340260D01*
G37*
%LPD*%
M02*
