G04 EAGLE Gerber RS-274X export*
G75*
%MOMM*%
%FSLAX34Y34*%
%LPD*%
%IN*%
%IPPOS*%
%AMOC8*
5,1,8,0,0,1.08239X$1,22.5*%
G01*
G04 Define Apertures*
%ADD10C,0.254000*%
D10*
X-550000Y-371838D02*
X-549886Y-374452D01*
X-549544Y-377047D01*
X-548978Y-379602D01*
X-548191Y-382098D01*
X-547189Y-384516D01*
X-545981Y-386838D01*
X-544575Y-389045D01*
X-542981Y-391121D01*
X-541213Y-393051D01*
X-539284Y-394819D01*
X-537207Y-396412D01*
X-535000Y-397818D01*
X-532679Y-399027D01*
X-530261Y-400028D01*
X-527765Y-400815D01*
X-525209Y-401382D01*
X-522615Y-401724D01*
X-520000Y-401838D01*
X1920000Y-401838D01*
X1922615Y-401724D01*
X1925209Y-401382D01*
X1927765Y-400815D01*
X1930261Y-400028D01*
X1932679Y-399027D01*
X1935000Y-397818D01*
X1937207Y-396412D01*
X1939284Y-394819D01*
X1941213Y-393051D01*
X1942981Y-391121D01*
X1944575Y-389045D01*
X1945981Y-386838D01*
X1947189Y-384516D01*
X1948191Y-382098D01*
X1948978Y-379602D01*
X1949544Y-377047D01*
X1949886Y-374452D01*
X1950000Y-371838D01*
X1950000Y-366985D01*
X1949909Y-364646D01*
X1949591Y-362048D01*
X1949048Y-359488D01*
X1948284Y-356985D01*
X1687071Y381838D01*
X1686978Y382098D01*
X1685976Y384516D01*
X1684768Y386838D01*
X1683361Y389045D01*
X1681768Y391121D01*
X1680000Y393051D01*
X1678070Y394819D01*
X1675994Y396412D01*
X1673787Y397818D01*
X1671465Y399027D01*
X1669047Y400028D01*
X1666551Y400815D01*
X1663996Y401382D01*
X1661402Y401724D01*
X1658787Y401838D01*
X1416603Y401838D01*
X1413988Y401952D01*
X1411393Y402293D01*
X1408838Y402860D01*
X1406342Y403647D01*
X1403924Y404648D01*
X1401603Y405857D01*
X1399395Y407263D01*
X1397319Y408856D01*
X1395389Y410625D01*
X1393621Y412554D01*
X1392028Y414630D01*
X1390622Y416838D01*
X1338660Y506838D01*
X1337254Y509045D01*
X1335661Y511121D01*
X1333893Y513051D01*
X1331963Y514819D01*
X1329887Y516412D01*
X1327680Y517818D01*
X1325358Y519027D01*
X1322940Y520028D01*
X1320444Y520815D01*
X1317889Y521382D01*
X1315294Y521724D01*
X1312680Y521838D01*
X87321Y521838D01*
X84706Y521724D01*
X82111Y521382D01*
X79556Y520815D01*
X77060Y520028D01*
X74642Y519027D01*
X72320Y517818D01*
X70113Y516412D01*
X68037Y514819D01*
X66107Y513051D01*
X64339Y511121D01*
X62746Y509045D01*
X61340Y506838D01*
X9378Y416838D01*
X7972Y414630D01*
X6379Y412554D01*
X4611Y410624D01*
X2681Y408856D01*
X605Y407263D01*
X-1603Y405857D01*
X-3924Y404648D01*
X-6342Y403647D01*
X-8838Y402860D01*
X-11393Y402293D01*
X-13988Y401952D01*
X-16603Y401838D01*
X-258787Y401838D01*
X-259064Y401836D01*
X-261677Y401698D01*
X-264269Y401333D01*
X-266818Y400743D01*
X-269307Y399933D01*
X-271716Y398909D01*
X-274026Y397679D01*
X-276220Y396252D01*
X-278282Y394640D01*
X-280195Y392854D01*
X-281945Y390908D01*
X-283519Y388817D01*
X-284905Y386597D01*
X-286092Y384265D01*
X-287071Y381838D01*
X-548284Y-356985D01*
X-548978Y-359220D01*
X-549544Y-361775D01*
X-549886Y-364370D01*
X-550000Y-366985D01*
X-550000Y-371838D01*
X594000Y20000D02*
X594076Y18257D01*
X594304Y16527D01*
X594681Y14824D01*
X595206Y13160D01*
X595874Y11548D01*
X596680Y10000D01*
X597617Y8528D01*
X598679Y7144D01*
X599858Y5858D01*
X601144Y4679D01*
X602528Y3617D01*
X604000Y2680D01*
X605548Y1874D01*
X607160Y1206D01*
X608824Y681D01*
X610527Y304D01*
X612257Y76D01*
X614000Y0D01*
X786000Y0D01*
X787743Y76D01*
X789473Y304D01*
X791176Y681D01*
X792840Y1206D01*
X794452Y1874D01*
X796000Y2680D01*
X797472Y3617D01*
X798856Y4679D01*
X800142Y5858D01*
X801321Y7144D01*
X802383Y8528D01*
X803321Y10000D01*
X804126Y11548D01*
X804794Y13160D01*
X805319Y14824D01*
X805696Y16527D01*
X805924Y18257D01*
X806000Y20000D01*
X806000Y143000D01*
X805924Y144743D01*
X805696Y146473D01*
X805319Y148176D01*
X804794Y149840D01*
X804126Y151452D01*
X803321Y153000D01*
X802383Y154472D01*
X801321Y155856D01*
X800142Y157142D01*
X798856Y158321D01*
X797472Y159383D01*
X796000Y160321D01*
X794452Y161126D01*
X792840Y161794D01*
X791176Y162319D01*
X789473Y162696D01*
X787743Y162924D01*
X786000Y163000D01*
X614000Y163000D01*
X612257Y162924D01*
X610527Y162696D01*
X608824Y162319D01*
X607160Y161794D01*
X605548Y161126D01*
X604000Y160321D01*
X602528Y159383D01*
X601144Y158321D01*
X599858Y157142D01*
X598679Y155856D01*
X597617Y154472D01*
X596680Y153000D01*
X595874Y151452D01*
X595206Y149840D01*
X594681Y148176D01*
X594304Y146473D01*
X594076Y144743D01*
X594000Y143000D01*
X594000Y20000D01*
X-212500Y351265D02*
X-212500Y352411D01*
X-212575Y353554D01*
X-212725Y354690D01*
X-212948Y355814D01*
X-213245Y356920D01*
X-213613Y358005D01*
X-214051Y359064D01*
X-214558Y360092D01*
X-215131Y361084D01*
X-215768Y362037D01*
X-216465Y362946D01*
X-217221Y363807D01*
X-218031Y364617D01*
X-218892Y365373D01*
X-219801Y366070D01*
X-220754Y366707D01*
X-221746Y367280D01*
X-222774Y367786D01*
X-223832Y368225D01*
X-224917Y368593D01*
X-226024Y368890D01*
X-227148Y369113D01*
X-228284Y369263D01*
X-229427Y369338D01*
X-230573Y369338D01*
X-231716Y369263D01*
X-232852Y369113D01*
X-233976Y368890D01*
X-235083Y368593D01*
X-236168Y368225D01*
X-237226Y367786D01*
X-238254Y367280D01*
X-239246Y366707D01*
X-240199Y366070D01*
X-241108Y365373D01*
X-241969Y364617D01*
X-242779Y363807D01*
X-243535Y362946D01*
X-244232Y362037D01*
X-244869Y361084D01*
X-245442Y360092D01*
X-245949Y359064D01*
X-246387Y358005D01*
X-246755Y356920D01*
X-247052Y355814D01*
X-247276Y354690D01*
X-247425Y353554D01*
X-247500Y352411D01*
X-247500Y351265D01*
X-247425Y350121D01*
X-247276Y348986D01*
X-247052Y347862D01*
X-246755Y346755D01*
X-246387Y345670D01*
X-245949Y344611D01*
X-245442Y343584D01*
X-244869Y342592D01*
X-244232Y341639D01*
X-243535Y340730D01*
X-242779Y339868D01*
X-241969Y339058D01*
X-241108Y338303D01*
X-240199Y337605D01*
X-239246Y336969D01*
X-238254Y336396D01*
X-237226Y335889D01*
X-236168Y335451D01*
X-235083Y335082D01*
X-233976Y334786D01*
X-232852Y334562D01*
X-231716Y334413D01*
X-230573Y334338D01*
X-229427Y334338D01*
X-228284Y334413D01*
X-227148Y334562D01*
X-226024Y334786D01*
X-224917Y335082D01*
X-223832Y335451D01*
X-222774Y335889D01*
X-221746Y336396D01*
X-220754Y336969D01*
X-219801Y337605D01*
X-218892Y338303D01*
X-218031Y339058D01*
X-217221Y339868D01*
X-216465Y340730D01*
X-215768Y341639D01*
X-215131Y342592D01*
X-214558Y343584D01*
X-214051Y344611D01*
X-213613Y345670D01*
X-213245Y346755D01*
X-212948Y347862D01*
X-212725Y348986D01*
X-212575Y350121D01*
X-212500Y351265D01*
X1647500Y-312411D02*
X1647500Y-311265D01*
X1647425Y-310121D01*
X1647276Y-308986D01*
X1647052Y-307862D01*
X1646755Y-306755D01*
X1646387Y-305670D01*
X1645949Y-304611D01*
X1645442Y-303584D01*
X1644869Y-302592D01*
X1644232Y-301639D01*
X1643535Y-300730D01*
X1642779Y-299868D01*
X1641969Y-299058D01*
X1641108Y-298303D01*
X1640199Y-297605D01*
X1639246Y-296969D01*
X1638254Y-296396D01*
X1637226Y-295889D01*
X1636168Y-295451D01*
X1635083Y-295082D01*
X1633976Y-294786D01*
X1632852Y-294562D01*
X1631716Y-294413D01*
X1630573Y-294338D01*
X1629427Y-294338D01*
X1628284Y-294413D01*
X1627148Y-294562D01*
X1626024Y-294786D01*
X1624917Y-295082D01*
X1623832Y-295451D01*
X1622774Y-295889D01*
X1621746Y-296396D01*
X1620754Y-296969D01*
X1619801Y-297605D01*
X1618892Y-298303D01*
X1618031Y-299058D01*
X1617221Y-299868D01*
X1616465Y-300730D01*
X1615768Y-301639D01*
X1615131Y-302592D01*
X1614558Y-303584D01*
X1614051Y-304611D01*
X1613613Y-305670D01*
X1613245Y-306755D01*
X1612948Y-307862D01*
X1612725Y-308986D01*
X1612575Y-310121D01*
X1612500Y-311265D01*
X1612500Y-312411D01*
X1612575Y-313554D01*
X1612725Y-314690D01*
X1612948Y-315814D01*
X1613245Y-316920D01*
X1613613Y-318005D01*
X1614051Y-319064D01*
X1614558Y-320092D01*
X1615131Y-321084D01*
X1615768Y-322037D01*
X1616465Y-322946D01*
X1617221Y-323807D01*
X1618031Y-324617D01*
X1618892Y-325373D01*
X1619801Y-326070D01*
X1620754Y-326707D01*
X1621746Y-327280D01*
X1622774Y-327786D01*
X1623832Y-328225D01*
X1624917Y-328593D01*
X1626024Y-328890D01*
X1627148Y-329113D01*
X1628284Y-329263D01*
X1629427Y-329338D01*
X1630573Y-329338D01*
X1631716Y-329263D01*
X1632852Y-329113D01*
X1633976Y-328890D01*
X1635083Y-328593D01*
X1636168Y-328225D01*
X1637226Y-327786D01*
X1638254Y-327280D01*
X1639246Y-326707D01*
X1640199Y-326070D01*
X1641108Y-325373D01*
X1641969Y-324617D01*
X1642779Y-323807D01*
X1643535Y-322946D01*
X1644232Y-322037D01*
X1644869Y-321084D01*
X1645442Y-320092D01*
X1645949Y-319064D01*
X1646387Y-318005D01*
X1646755Y-316920D01*
X1647052Y-315814D01*
X1647276Y-314690D01*
X1647425Y-313554D01*
X1647500Y-312411D01*
X80000Y-1257D02*
X80000Y1257D01*
X79921Y3769D01*
X79763Y6278D01*
X79527Y8780D01*
X79212Y11274D01*
X78818Y13756D01*
X78348Y16225D01*
X77799Y18678D01*
X77174Y21112D01*
X76473Y23526D01*
X75696Y25917D01*
X74845Y28281D01*
X73919Y30618D01*
X72921Y32925D01*
X71851Y35199D01*
X70710Y37439D01*
X69499Y39642D01*
X68220Y41805D01*
X66873Y43927D01*
X65460Y46006D01*
X63983Y48040D01*
X62442Y50026D01*
X60840Y51962D01*
X59178Y53848D01*
X57457Y55680D01*
X55680Y57457D01*
X53848Y59178D01*
X51962Y60840D01*
X50026Y62442D01*
X48040Y63983D01*
X46006Y65460D01*
X43927Y66873D01*
X41805Y68220D01*
X39642Y69499D01*
X37439Y70710D01*
X35199Y71851D01*
X32925Y72921D01*
X30618Y73919D01*
X28281Y74845D01*
X25917Y75696D01*
X23526Y76473D01*
X21112Y77174D01*
X18678Y77799D01*
X16225Y78348D01*
X13756Y78818D01*
X11274Y79212D01*
X8780Y79527D01*
X6278Y79763D01*
X3769Y79921D01*
X1257Y80000D01*
X-1257Y80000D01*
X-3769Y79921D01*
X-6278Y79763D01*
X-8780Y79527D01*
X-11274Y79212D01*
X-13756Y78818D01*
X-16225Y78348D01*
X-18678Y77799D01*
X-21112Y77174D01*
X-23526Y76473D01*
X-25917Y75696D01*
X-28281Y74845D01*
X-30618Y73919D01*
X-32925Y72921D01*
X-35199Y71851D01*
X-37439Y70710D01*
X-39642Y69499D01*
X-41805Y68220D01*
X-43927Y66873D01*
X-46006Y65460D01*
X-48040Y63983D01*
X-50026Y62442D01*
X-51962Y60840D01*
X-53848Y59178D01*
X-55680Y57457D01*
X-57457Y55680D01*
X-59178Y53848D01*
X-60840Y51962D01*
X-62442Y50026D01*
X-63983Y48040D01*
X-65460Y46006D01*
X-66873Y43927D01*
X-68220Y41805D01*
X-69499Y39642D01*
X-70710Y37439D01*
X-71851Y35199D01*
X-72921Y32925D01*
X-73919Y30618D01*
X-74845Y28281D01*
X-75696Y25917D01*
X-76473Y23526D01*
X-77174Y21112D01*
X-77799Y18678D01*
X-78348Y16225D01*
X-78818Y13756D01*
X-79212Y11274D01*
X-79527Y8780D01*
X-79763Y6278D01*
X-79921Y3769D01*
X-80000Y1257D01*
X-80000Y-1257D01*
X-79921Y-3769D01*
X-79763Y-6278D01*
X-79527Y-8780D01*
X-79212Y-11274D01*
X-78818Y-13756D01*
X-78348Y-16225D01*
X-77799Y-18678D01*
X-77174Y-21112D01*
X-76473Y-23526D01*
X-75696Y-25917D01*
X-74845Y-28281D01*
X-73919Y-30618D01*
X-72921Y-32925D01*
X-71851Y-35199D01*
X-70710Y-37439D01*
X-69499Y-39642D01*
X-68220Y-41805D01*
X-66873Y-43927D01*
X-65460Y-46006D01*
X-63983Y-48040D01*
X-62442Y-50026D01*
X-60840Y-51962D01*
X-59178Y-53848D01*
X-57457Y-55680D01*
X-55680Y-57457D01*
X-53848Y-59178D01*
X-51962Y-60840D01*
X-50026Y-62442D01*
X-48040Y-63983D01*
X-46006Y-65460D01*
X-43927Y-66873D01*
X-41805Y-68220D01*
X-39642Y-69499D01*
X-37439Y-70710D01*
X-35199Y-71851D01*
X-32925Y-72921D01*
X-30618Y-73919D01*
X-28281Y-74845D01*
X-25917Y-75696D01*
X-23526Y-76473D01*
X-21112Y-77174D01*
X-18678Y-77799D01*
X-16225Y-78348D01*
X-13756Y-78818D01*
X-11274Y-79212D01*
X-8780Y-79527D01*
X-6278Y-79763D01*
X-3769Y-79921D01*
X-1257Y-80000D01*
X1257Y-80000D01*
X3769Y-79921D01*
X6278Y-79763D01*
X8780Y-79527D01*
X11274Y-79212D01*
X13756Y-78818D01*
X16225Y-78348D01*
X18678Y-77799D01*
X21112Y-77174D01*
X23526Y-76473D01*
X25917Y-75696D01*
X28281Y-74845D01*
X30618Y-73919D01*
X32925Y-72921D01*
X35199Y-71851D01*
X37439Y-70710D01*
X39642Y-69499D01*
X41805Y-68220D01*
X43927Y-66873D01*
X46006Y-65460D01*
X48040Y-63983D01*
X50026Y-62442D01*
X51962Y-60840D01*
X53848Y-59178D01*
X55680Y-57457D01*
X57457Y-55680D01*
X59178Y-53848D01*
X60840Y-51962D01*
X62442Y-50026D01*
X63983Y-48040D01*
X65460Y-46006D01*
X66873Y-43927D01*
X68220Y-41805D01*
X69499Y-39642D01*
X70710Y-37439D01*
X71851Y-35199D01*
X72921Y-32925D01*
X73919Y-30618D01*
X74845Y-28281D01*
X75696Y-25917D01*
X76473Y-23526D01*
X77174Y-21112D01*
X77799Y-18678D01*
X78348Y-16225D01*
X78818Y-13756D01*
X79212Y-11274D01*
X79527Y-8780D01*
X79763Y-6278D01*
X79921Y-3769D01*
X80000Y-1257D01*
X491197Y299578D02*
X491197Y300724D01*
X491122Y301867D01*
X490972Y303003D01*
X490749Y304127D01*
X490452Y305234D01*
X490084Y306319D01*
X489645Y307377D01*
X489139Y308405D01*
X488566Y309397D01*
X487929Y310350D01*
X487232Y311259D01*
X486476Y312120D01*
X485666Y312930D01*
X484805Y313686D01*
X483896Y314383D01*
X482943Y315020D01*
X481951Y315593D01*
X480923Y316100D01*
X479864Y316538D01*
X478779Y316906D01*
X477673Y317203D01*
X476549Y317427D01*
X475413Y317576D01*
X474270Y317651D01*
X473124Y317651D01*
X471980Y317576D01*
X470845Y317427D01*
X469721Y317203D01*
X468614Y316906D01*
X467529Y316538D01*
X466470Y316100D01*
X465443Y315593D01*
X464451Y315020D01*
X463498Y314383D01*
X462589Y313686D01*
X461727Y312930D01*
X460917Y312120D01*
X460162Y311259D01*
X459464Y310350D01*
X458828Y309397D01*
X458255Y308405D01*
X457748Y307377D01*
X457310Y306319D01*
X456941Y305234D01*
X456645Y304127D01*
X456421Y303003D01*
X456272Y301867D01*
X456197Y300724D01*
X456197Y299578D01*
X456272Y298435D01*
X456421Y297299D01*
X456645Y296175D01*
X456941Y295068D01*
X457310Y293983D01*
X457748Y292925D01*
X458255Y291897D01*
X458828Y290905D01*
X459464Y289952D01*
X460162Y289043D01*
X460917Y288182D01*
X461727Y287372D01*
X462589Y286616D01*
X463498Y285919D01*
X464451Y285282D01*
X465443Y284709D01*
X466470Y284202D01*
X467529Y283764D01*
X468614Y283396D01*
X469721Y283099D01*
X470845Y282876D01*
X471980Y282726D01*
X473124Y282651D01*
X474270Y282651D01*
X475413Y282726D01*
X476549Y282876D01*
X477673Y283099D01*
X478779Y283396D01*
X479864Y283764D01*
X480923Y284202D01*
X481951Y284709D01*
X482943Y285282D01*
X483896Y285919D01*
X484805Y286616D01*
X485666Y287372D01*
X486476Y288182D01*
X487232Y289043D01*
X487929Y289952D01*
X488566Y290905D01*
X489139Y291897D01*
X489645Y292925D01*
X490084Y293983D01*
X490452Y295068D01*
X490749Y296175D01*
X490972Y297299D01*
X491122Y298435D01*
X491197Y299578D01*
X579000Y-93491D02*
X579000Y-92509D01*
X578923Y-91530D01*
X578769Y-90560D01*
X578540Y-89604D01*
X578236Y-88670D01*
X577861Y-87763D01*
X577415Y-86888D01*
X576901Y-86050D01*
X576324Y-85255D01*
X575686Y-84508D01*
X574992Y-83814D01*
X574245Y-83176D01*
X573450Y-82599D01*
X572612Y-82085D01*
X571737Y-81639D01*
X570830Y-81264D01*
X569896Y-80960D01*
X568941Y-80731D01*
X567970Y-80577D01*
X566991Y-80500D01*
X566009Y-80500D01*
X565030Y-80577D01*
X564060Y-80731D01*
X563104Y-80960D01*
X562170Y-81264D01*
X561263Y-81639D01*
X560388Y-82085D01*
X559550Y-82599D01*
X558755Y-83176D01*
X558008Y-83814D01*
X557314Y-84508D01*
X556676Y-85255D01*
X556099Y-86050D01*
X555585Y-86888D01*
X555139Y-87763D01*
X554764Y-88670D01*
X554460Y-89604D01*
X554231Y-90560D01*
X554077Y-91530D01*
X554000Y-92509D01*
X554000Y-93491D01*
X554077Y-94470D01*
X554231Y-95441D01*
X554460Y-96396D01*
X554764Y-97330D01*
X555139Y-98237D01*
X555585Y-99112D01*
X556099Y-99950D01*
X556676Y-100745D01*
X557314Y-101492D01*
X558008Y-102186D01*
X558755Y-102824D01*
X559550Y-103401D01*
X560388Y-103915D01*
X561263Y-104361D01*
X562170Y-104736D01*
X563104Y-105040D01*
X564060Y-105269D01*
X565030Y-105423D01*
X566009Y-105500D01*
X566991Y-105500D01*
X567970Y-105423D01*
X568941Y-105269D01*
X569896Y-105040D01*
X570830Y-104736D01*
X571737Y-104361D01*
X572612Y-103915D01*
X573450Y-103401D01*
X574245Y-102824D01*
X574992Y-102186D01*
X575686Y-101492D01*
X576324Y-100745D01*
X576901Y-99950D01*
X577415Y-99112D01*
X577861Y-98237D01*
X578236Y-97330D01*
X578540Y-96396D01*
X578769Y-95441D01*
X578923Y-94470D01*
X579000Y-93491D01*
X1437000Y-855D02*
X1437000Y855D01*
X1436921Y2563D01*
X1436763Y4265D01*
X1436527Y5958D01*
X1436213Y7639D01*
X1435822Y9303D01*
X1435354Y10948D01*
X1434810Y12569D01*
X1434193Y14163D01*
X1433502Y15727D01*
X1432740Y17258D01*
X1431908Y18751D01*
X1431008Y20205D01*
X1430042Y21615D01*
X1429011Y22980D01*
X1427919Y24295D01*
X1426767Y25558D01*
X1425558Y26767D01*
X1424295Y27919D01*
X1422980Y29011D01*
X1421615Y30042D01*
X1420205Y31008D01*
X1418751Y31908D01*
X1417258Y32740D01*
X1415727Y33502D01*
X1414163Y34193D01*
X1412569Y34810D01*
X1410948Y35354D01*
X1409303Y35822D01*
X1407639Y36213D01*
X1405958Y36527D01*
X1404265Y36763D01*
X1402563Y36921D01*
X1400855Y37000D01*
X1399145Y37000D01*
X1397437Y36921D01*
X1395735Y36763D01*
X1394042Y36527D01*
X1392361Y36213D01*
X1390697Y35822D01*
X1389052Y35354D01*
X1387431Y34810D01*
X1385837Y34193D01*
X1384273Y33502D01*
X1382742Y32740D01*
X1381249Y31908D01*
X1379795Y31008D01*
X1378385Y30042D01*
X1377020Y29011D01*
X1375705Y27919D01*
X1374442Y26767D01*
X1373233Y25558D01*
X1372081Y24295D01*
X1370989Y22980D01*
X1369958Y21615D01*
X1368992Y20205D01*
X1368092Y18751D01*
X1367260Y17258D01*
X1366498Y15727D01*
X1365807Y14163D01*
X1365190Y12569D01*
X1364646Y10948D01*
X1364179Y9303D01*
X1363787Y7639D01*
X1363473Y5958D01*
X1363237Y4265D01*
X1363079Y2563D01*
X1363000Y855D01*
X1363000Y-855D01*
X1363079Y-2563D01*
X1363237Y-4265D01*
X1363473Y-5958D01*
X1363787Y-7639D01*
X1364179Y-9303D01*
X1364646Y-10948D01*
X1365190Y-12569D01*
X1365807Y-14163D01*
X1366498Y-15727D01*
X1367260Y-17258D01*
X1368092Y-18751D01*
X1368992Y-20205D01*
X1369958Y-21615D01*
X1370989Y-22980D01*
X1372081Y-24295D01*
X1373233Y-25558D01*
X1374442Y-26767D01*
X1375705Y-27919D01*
X1377020Y-29011D01*
X1378385Y-30042D01*
X1379795Y-31008D01*
X1381249Y-31908D01*
X1382742Y-32740D01*
X1384273Y-33502D01*
X1385837Y-34193D01*
X1387431Y-34810D01*
X1389052Y-35354D01*
X1390697Y-35822D01*
X1392361Y-36213D01*
X1394042Y-36527D01*
X1395735Y-36763D01*
X1397437Y-36921D01*
X1399145Y-37000D01*
X1400855Y-37000D01*
X1402563Y-36921D01*
X1404265Y-36763D01*
X1405958Y-36527D01*
X1407639Y-36213D01*
X1409303Y-35822D01*
X1410948Y-35354D01*
X1412569Y-34810D01*
X1414163Y-34193D01*
X1415727Y-33502D01*
X1417258Y-32740D01*
X1418751Y-31908D01*
X1420205Y-31008D01*
X1421615Y-30042D01*
X1422980Y-29011D01*
X1424295Y-27919D01*
X1425558Y-26767D01*
X1426767Y-25558D01*
X1427919Y-24295D01*
X1429011Y-22980D01*
X1430042Y-21615D01*
X1431008Y-20205D01*
X1431908Y-18751D01*
X1432740Y-17258D01*
X1433502Y-15727D01*
X1434193Y-14163D01*
X1434810Y-12569D01*
X1435354Y-10948D01*
X1435822Y-9303D01*
X1436213Y-7639D01*
X1436527Y-5958D01*
X1436763Y-4265D01*
X1436921Y-2563D01*
X1437000Y-855D01*
X491197Y-205822D02*
X491197Y-204676D01*
X491122Y-203533D01*
X490972Y-202397D01*
X490749Y-201273D01*
X490452Y-200166D01*
X490084Y-199081D01*
X489645Y-198023D01*
X489139Y-196995D01*
X488566Y-196003D01*
X487929Y-195050D01*
X487232Y-194141D01*
X486476Y-193280D01*
X485666Y-192470D01*
X484805Y-191714D01*
X483896Y-191017D01*
X482943Y-190380D01*
X481951Y-189807D01*
X480923Y-189300D01*
X479864Y-188862D01*
X478779Y-188494D01*
X477673Y-188197D01*
X476549Y-187974D01*
X475413Y-187824D01*
X474270Y-187749D01*
X473124Y-187749D01*
X471980Y-187824D01*
X470845Y-187974D01*
X469721Y-188197D01*
X468614Y-188494D01*
X467529Y-188862D01*
X466470Y-189300D01*
X465443Y-189807D01*
X464451Y-190380D01*
X463498Y-191017D01*
X462589Y-191714D01*
X461727Y-192470D01*
X460917Y-193280D01*
X460162Y-194141D01*
X459464Y-195050D01*
X458828Y-196003D01*
X458255Y-196995D01*
X457748Y-198023D01*
X457310Y-199081D01*
X456941Y-200166D01*
X456645Y-201273D01*
X456421Y-202397D01*
X456272Y-203533D01*
X456197Y-204676D01*
X456197Y-205822D01*
X456272Y-206965D01*
X456421Y-208101D01*
X456645Y-209225D01*
X456941Y-210332D01*
X457310Y-211417D01*
X457748Y-212475D01*
X458255Y-213503D01*
X458828Y-214495D01*
X459464Y-215448D01*
X460162Y-216357D01*
X460917Y-217218D01*
X461727Y-218028D01*
X462589Y-218784D01*
X463498Y-219481D01*
X464451Y-220118D01*
X465443Y-220691D01*
X466470Y-221198D01*
X467529Y-221636D01*
X468614Y-222004D01*
X469721Y-222301D01*
X470845Y-222525D01*
X471980Y-222674D01*
X473124Y-222749D01*
X474270Y-222749D01*
X475413Y-222674D01*
X476549Y-222525D01*
X477673Y-222301D01*
X478779Y-222004D01*
X479864Y-221636D01*
X480923Y-221198D01*
X481951Y-220691D01*
X482943Y-220118D01*
X483896Y-219481D01*
X484805Y-218784D01*
X485666Y-218028D01*
X486476Y-217218D01*
X487232Y-216357D01*
X487929Y-215448D01*
X488566Y-214495D01*
X489139Y-213503D01*
X489645Y-212475D01*
X490084Y-211417D01*
X490452Y-210332D01*
X490749Y-209225D01*
X490972Y-208101D01*
X491122Y-206965D01*
X491197Y-205822D01*
X943803Y-205822D02*
X943803Y-204676D01*
X943728Y-203533D01*
X943579Y-202397D01*
X943355Y-201273D01*
X943059Y-200166D01*
X942690Y-199081D01*
X942252Y-198023D01*
X941745Y-196995D01*
X941172Y-196003D01*
X940536Y-195050D01*
X939838Y-194141D01*
X939083Y-193280D01*
X938273Y-192470D01*
X937411Y-191714D01*
X936502Y-191017D01*
X935549Y-190380D01*
X934557Y-189807D01*
X933530Y-189300D01*
X932471Y-188862D01*
X931386Y-188494D01*
X930279Y-188197D01*
X929156Y-187974D01*
X928020Y-187824D01*
X926876Y-187749D01*
X925730Y-187749D01*
X924587Y-187824D01*
X923451Y-187974D01*
X922327Y-188197D01*
X921221Y-188494D01*
X920136Y-188862D01*
X919077Y-189300D01*
X918049Y-189807D01*
X917057Y-190380D01*
X916105Y-191017D01*
X915195Y-191714D01*
X914334Y-192470D01*
X913524Y-193280D01*
X912768Y-194141D01*
X912071Y-195050D01*
X911434Y-196003D01*
X910861Y-196995D01*
X910355Y-198023D01*
X909916Y-199081D01*
X909548Y-200166D01*
X909251Y-201273D01*
X909028Y-202397D01*
X908878Y-203533D01*
X908803Y-204676D01*
X908803Y-205822D01*
X908878Y-206965D01*
X909028Y-208101D01*
X909251Y-209225D01*
X909548Y-210332D01*
X909916Y-211417D01*
X910355Y-212475D01*
X910861Y-213503D01*
X911434Y-214495D01*
X912071Y-215448D01*
X912768Y-216357D01*
X913524Y-217218D01*
X914334Y-218028D01*
X915195Y-218784D01*
X916105Y-219481D01*
X917057Y-220118D01*
X918049Y-220691D01*
X919077Y-221198D01*
X920136Y-221636D01*
X921221Y-222004D01*
X922327Y-222301D01*
X923451Y-222525D01*
X924587Y-222674D01*
X925730Y-222749D01*
X926876Y-222749D01*
X928020Y-222674D01*
X929156Y-222525D01*
X930279Y-222301D01*
X931386Y-222004D01*
X932471Y-221636D01*
X933530Y-221198D01*
X934557Y-220691D01*
X935549Y-220118D01*
X936502Y-219481D01*
X937411Y-218784D01*
X938273Y-218028D01*
X939083Y-217218D01*
X939838Y-216357D01*
X940536Y-215448D01*
X941172Y-214495D01*
X941745Y-213503D01*
X942252Y-212475D01*
X942690Y-211417D01*
X943059Y-210332D01*
X943355Y-209225D01*
X943579Y-208101D01*
X943728Y-206965D01*
X943803Y-205822D01*
X846000Y92509D02*
X846000Y93491D01*
X845923Y94470D01*
X845769Y95441D01*
X845540Y96396D01*
X845236Y97330D01*
X844861Y98237D01*
X844415Y99112D01*
X843901Y99950D01*
X843324Y100745D01*
X842686Y101492D01*
X841992Y102186D01*
X841245Y102824D01*
X840450Y103401D01*
X839612Y103915D01*
X838737Y104361D01*
X837830Y104736D01*
X836896Y105040D01*
X835941Y105269D01*
X834970Y105423D01*
X833991Y105500D01*
X833009Y105500D01*
X832030Y105423D01*
X831060Y105269D01*
X830104Y105040D01*
X829170Y104736D01*
X828263Y104361D01*
X827388Y103915D01*
X826550Y103401D01*
X825755Y102824D01*
X825008Y102186D01*
X824314Y101492D01*
X823676Y100745D01*
X823099Y99950D01*
X822585Y99112D01*
X822139Y98237D01*
X821764Y97330D01*
X821460Y96396D01*
X821231Y95441D01*
X821077Y94470D01*
X821000Y93491D01*
X821000Y92509D01*
X821077Y91530D01*
X821231Y90560D01*
X821460Y89604D01*
X821764Y88670D01*
X822139Y87763D01*
X822585Y86888D01*
X823099Y86050D01*
X823676Y85255D01*
X824314Y84508D01*
X825008Y83814D01*
X825755Y83176D01*
X826550Y82599D01*
X827388Y82085D01*
X828263Y81639D01*
X829170Y81264D01*
X830104Y80960D01*
X831060Y80731D01*
X832030Y80577D01*
X833009Y80500D01*
X833991Y80500D01*
X834970Y80577D01*
X835941Y80731D01*
X836896Y80960D01*
X837830Y81264D01*
X838737Y81639D01*
X839612Y82085D01*
X840450Y82599D01*
X841245Y83176D01*
X841992Y83814D01*
X842686Y84508D01*
X843324Y85255D01*
X843901Y86050D01*
X844415Y86888D01*
X844861Y87763D01*
X845236Y88670D01*
X845540Y89604D01*
X845769Y90560D01*
X845923Y91530D01*
X846000Y92509D01*
X943803Y299578D02*
X943803Y300724D01*
X943728Y301867D01*
X943579Y303003D01*
X943355Y304127D01*
X943059Y305234D01*
X942690Y306319D01*
X942252Y307377D01*
X941745Y308405D01*
X941172Y309397D01*
X940536Y310350D01*
X939838Y311259D01*
X939083Y312120D01*
X938273Y312930D01*
X937411Y313686D01*
X936502Y314383D01*
X935549Y315020D01*
X934557Y315593D01*
X933530Y316100D01*
X932471Y316538D01*
X931386Y316906D01*
X930279Y317203D01*
X929156Y317427D01*
X928020Y317576D01*
X926876Y317651D01*
X925730Y317651D01*
X924587Y317576D01*
X923451Y317427D01*
X922327Y317203D01*
X921221Y316906D01*
X920136Y316538D01*
X919077Y316100D01*
X918049Y315593D01*
X917057Y315020D01*
X916105Y314383D01*
X915195Y313686D01*
X914334Y312930D01*
X913524Y312120D01*
X912768Y311259D01*
X912071Y310350D01*
X911434Y309397D01*
X910861Y308405D01*
X910355Y307377D01*
X909916Y306319D01*
X909548Y305234D01*
X909251Y304127D01*
X909028Y303003D01*
X908878Y301867D01*
X908803Y300724D01*
X908803Y299578D01*
X908878Y298435D01*
X909028Y297299D01*
X909251Y296175D01*
X909548Y295068D01*
X909916Y293983D01*
X910355Y292925D01*
X910861Y291897D01*
X911434Y290905D01*
X912071Y289952D01*
X912768Y289043D01*
X913524Y288182D01*
X914334Y287372D01*
X915195Y286616D01*
X916105Y285919D01*
X917057Y285282D01*
X918049Y284709D01*
X919077Y284202D01*
X920136Y283764D01*
X921221Y283396D01*
X922327Y283099D01*
X923451Y282876D01*
X924587Y282726D01*
X925730Y282651D01*
X926876Y282651D01*
X928020Y282726D01*
X929156Y282876D01*
X930279Y283099D01*
X931386Y283396D01*
X932471Y283764D01*
X933530Y284202D01*
X934557Y284709D01*
X935549Y285282D01*
X936502Y285919D01*
X937411Y286616D01*
X938273Y287372D01*
X939083Y288182D01*
X939838Y289043D01*
X940536Y289952D01*
X941172Y290905D01*
X941745Y291897D01*
X942252Y292925D01*
X942690Y293983D01*
X943059Y295068D01*
X943355Y296175D01*
X943579Y297299D01*
X943728Y298435D01*
X943803Y299578D01*
X-212500Y-312411D02*
X-212500Y-311265D01*
X-212575Y-310121D01*
X-212725Y-308986D01*
X-212948Y-307862D01*
X-213245Y-306755D01*
X-213613Y-305670D01*
X-214051Y-304611D01*
X-214558Y-303584D01*
X-215131Y-302592D01*
X-215768Y-301639D01*
X-216465Y-300730D01*
X-217221Y-299868D01*
X-218031Y-299058D01*
X-218892Y-298303D01*
X-219801Y-297605D01*
X-220754Y-296969D01*
X-221746Y-296396D01*
X-222774Y-295889D01*
X-223832Y-295451D01*
X-224917Y-295082D01*
X-226024Y-294786D01*
X-227148Y-294562D01*
X-228284Y-294413D01*
X-229427Y-294338D01*
X-230573Y-294338D01*
X-231716Y-294413D01*
X-232852Y-294562D01*
X-233976Y-294786D01*
X-235083Y-295082D01*
X-236168Y-295451D01*
X-237226Y-295889D01*
X-238254Y-296396D01*
X-239246Y-296969D01*
X-240199Y-297605D01*
X-241108Y-298303D01*
X-241969Y-299058D01*
X-242779Y-299868D01*
X-243535Y-300730D01*
X-244232Y-301639D01*
X-244869Y-302592D01*
X-245442Y-303584D01*
X-245949Y-304611D01*
X-246387Y-305670D01*
X-246755Y-306755D01*
X-247052Y-307862D01*
X-247276Y-308986D01*
X-247425Y-310121D01*
X-247500Y-311265D01*
X-247500Y-312411D01*
X-247425Y-313554D01*
X-247276Y-314690D01*
X-247052Y-315814D01*
X-246755Y-316920D01*
X-246387Y-318005D01*
X-245949Y-319064D01*
X-245442Y-320092D01*
X-244869Y-321084D01*
X-244232Y-322037D01*
X-243535Y-322946D01*
X-242779Y-323807D01*
X-241969Y-324617D01*
X-241108Y-325373D01*
X-240199Y-326070D01*
X-239246Y-326707D01*
X-238254Y-327280D01*
X-237226Y-327786D01*
X-236168Y-328225D01*
X-235083Y-328593D01*
X-233976Y-328890D01*
X-232852Y-329113D01*
X-231716Y-329263D01*
X-230573Y-329338D01*
X-229427Y-329338D01*
X-228284Y-329263D01*
X-227148Y-329113D01*
X-226024Y-328890D01*
X-224917Y-328593D01*
X-223832Y-328225D01*
X-222774Y-327786D01*
X-221746Y-327280D01*
X-220754Y-326707D01*
X-219801Y-326070D01*
X-218892Y-325373D01*
X-218031Y-324617D01*
X-217221Y-323807D01*
X-216465Y-322946D01*
X-215768Y-322037D01*
X-215131Y-321084D01*
X-214558Y-320092D01*
X-214051Y-319064D01*
X-213613Y-318005D01*
X-213245Y-316920D01*
X-212948Y-315814D01*
X-212725Y-314690D01*
X-212575Y-313554D01*
X-212500Y-312411D01*
X846000Y-93491D02*
X846000Y-92509D01*
X845923Y-91530D01*
X845769Y-90560D01*
X845540Y-89604D01*
X845236Y-88670D01*
X844861Y-87763D01*
X844415Y-86888D01*
X843901Y-86050D01*
X843324Y-85255D01*
X842686Y-84508D01*
X841992Y-83814D01*
X841245Y-83176D01*
X840450Y-82599D01*
X839612Y-82085D01*
X838737Y-81639D01*
X837830Y-81264D01*
X836896Y-80960D01*
X835941Y-80731D01*
X834970Y-80577D01*
X833991Y-80500D01*
X833009Y-80500D01*
X832030Y-80577D01*
X831060Y-80731D01*
X830104Y-80960D01*
X829170Y-81264D01*
X828263Y-81639D01*
X827388Y-82085D01*
X826550Y-82599D01*
X825755Y-83176D01*
X825008Y-83814D01*
X824314Y-84508D01*
X823676Y-85255D01*
X823099Y-86050D01*
X822585Y-86888D01*
X822139Y-87763D01*
X821764Y-88670D01*
X821460Y-89604D01*
X821231Y-90560D01*
X821077Y-91530D01*
X821000Y-92509D01*
X821000Y-93491D01*
X821077Y-94470D01*
X821231Y-95441D01*
X821460Y-96396D01*
X821764Y-97330D01*
X822139Y-98237D01*
X822585Y-99112D01*
X823099Y-99950D01*
X823676Y-100745D01*
X824314Y-101492D01*
X825008Y-102186D01*
X825755Y-102824D01*
X826550Y-103401D01*
X827388Y-103915D01*
X828263Y-104361D01*
X829170Y-104736D01*
X830104Y-105040D01*
X831060Y-105269D01*
X832030Y-105423D01*
X833009Y-105500D01*
X833991Y-105500D01*
X834970Y-105423D01*
X835941Y-105269D01*
X836896Y-105040D01*
X837830Y-104736D01*
X838737Y-104361D01*
X839612Y-103915D01*
X840450Y-103401D01*
X841245Y-102824D01*
X841992Y-102186D01*
X842686Y-101492D01*
X843324Y-100745D01*
X843901Y-99950D01*
X844415Y-99112D01*
X844861Y-98237D01*
X845236Y-97330D01*
X845540Y-96396D01*
X845769Y-95441D01*
X845923Y-94470D01*
X846000Y-93491D01*
X1647500Y351265D02*
X1647500Y352411D01*
X1647425Y353554D01*
X1647276Y354690D01*
X1647052Y355814D01*
X1646755Y356920D01*
X1646387Y358005D01*
X1645949Y359064D01*
X1645442Y360092D01*
X1644869Y361084D01*
X1644232Y362037D01*
X1643535Y362946D01*
X1642779Y363807D01*
X1641969Y364617D01*
X1641108Y365373D01*
X1640199Y366070D01*
X1639246Y366707D01*
X1638254Y367280D01*
X1637226Y367786D01*
X1636168Y368225D01*
X1635083Y368593D01*
X1633976Y368890D01*
X1632852Y369113D01*
X1631716Y369263D01*
X1630573Y369338D01*
X1629427Y369338D01*
X1628284Y369263D01*
X1627148Y369113D01*
X1626024Y368890D01*
X1624917Y368593D01*
X1623832Y368225D01*
X1622774Y367786D01*
X1621746Y367280D01*
X1620754Y366707D01*
X1619801Y366070D01*
X1618892Y365373D01*
X1618031Y364617D01*
X1617221Y363807D01*
X1616465Y362946D01*
X1615768Y362037D01*
X1615131Y361084D01*
X1614558Y360092D01*
X1614051Y359064D01*
X1613613Y358005D01*
X1613245Y356920D01*
X1612948Y355814D01*
X1612725Y354690D01*
X1612575Y353554D01*
X1612500Y352411D01*
X1612500Y351265D01*
X1612575Y350121D01*
X1612725Y348986D01*
X1612948Y347862D01*
X1613245Y346755D01*
X1613613Y345670D01*
X1614051Y344611D01*
X1614558Y343584D01*
X1615131Y342592D01*
X1615768Y341639D01*
X1616465Y340730D01*
X1617221Y339868D01*
X1618031Y339058D01*
X1618892Y338303D01*
X1619801Y337605D01*
X1620754Y336969D01*
X1621746Y336396D01*
X1622774Y335889D01*
X1623832Y335451D01*
X1624917Y335082D01*
X1626024Y334786D01*
X1627148Y334562D01*
X1628284Y334413D01*
X1629427Y334338D01*
X1630573Y334338D01*
X1631716Y334413D01*
X1632852Y334562D01*
X1633976Y334786D01*
X1635083Y335082D01*
X1636168Y335451D01*
X1637226Y335889D01*
X1638254Y336396D01*
X1639246Y336969D01*
X1640199Y337605D01*
X1641108Y338303D01*
X1641969Y339058D01*
X1642779Y339868D01*
X1643535Y340730D01*
X1644232Y341639D01*
X1644869Y342592D01*
X1645442Y343584D01*
X1645949Y344611D01*
X1646387Y345670D01*
X1646755Y346755D01*
X1647052Y347862D01*
X1647276Y348986D01*
X1647425Y350121D01*
X1647500Y351265D01*
X579000Y92509D02*
X579000Y93491D01*
X578923Y94470D01*
X578769Y95441D01*
X578540Y96396D01*
X578236Y97330D01*
X577861Y98237D01*
X577415Y99112D01*
X576901Y99950D01*
X576324Y100745D01*
X575686Y101492D01*
X574992Y102186D01*
X574245Y102824D01*
X573450Y103401D01*
X572612Y103915D01*
X571737Y104361D01*
X570830Y104736D01*
X569896Y105040D01*
X568941Y105269D01*
X567970Y105423D01*
X566991Y105500D01*
X566009Y105500D01*
X565030Y105423D01*
X564060Y105269D01*
X563104Y105040D01*
X562170Y104736D01*
X561263Y104361D01*
X560388Y103915D01*
X559550Y103401D01*
X558755Y102824D01*
X558008Y102186D01*
X557314Y101492D01*
X556676Y100745D01*
X556099Y99950D01*
X555585Y99112D01*
X555139Y98237D01*
X554764Y97330D01*
X554460Y96396D01*
X554231Y95441D01*
X554077Y94470D01*
X554000Y93491D01*
X554000Y92509D01*
X554077Y91530D01*
X554231Y90560D01*
X554460Y89604D01*
X554764Y88670D01*
X555139Y87763D01*
X555585Y86888D01*
X556099Y86050D01*
X556676Y85255D01*
X557314Y84508D01*
X558008Y83814D01*
X558755Y83176D01*
X559550Y82599D01*
X560388Y82085D01*
X561263Y81639D01*
X562170Y81264D01*
X563104Y80960D01*
X564060Y80731D01*
X565030Y80577D01*
X566009Y80500D01*
X566991Y80500D01*
X567970Y80577D01*
X568941Y80731D01*
X569896Y80960D01*
X570830Y81264D01*
X571737Y81639D01*
X572612Y82085D01*
X573450Y82599D01*
X574245Y83176D01*
X574992Y83814D01*
X575686Y84508D01*
X576324Y85255D01*
X576901Y86050D01*
X577415Y86888D01*
X577861Y87763D01*
X578236Y88670D01*
X578540Y89604D01*
X578769Y90560D01*
X578923Y91530D01*
X579000Y92509D01*
X1412000Y59529D02*
X1412000Y60471D01*
X1411926Y61412D01*
X1411779Y62343D01*
X1411558Y63260D01*
X1411267Y64157D01*
X1410906Y65028D01*
X1410478Y65868D01*
X1409985Y66672D01*
X1409431Y67435D01*
X1408819Y68152D01*
X1408152Y68819D01*
X1407435Y69431D01*
X1406672Y69985D01*
X1405868Y70478D01*
X1405028Y70906D01*
X1404157Y71267D01*
X1403260Y71558D01*
X1402343Y71779D01*
X1401412Y71926D01*
X1400471Y72000D01*
X1399529Y72000D01*
X1398588Y71926D01*
X1397657Y71779D01*
X1396740Y71558D01*
X1395843Y71267D01*
X1394972Y70906D01*
X1394132Y70478D01*
X1393328Y69985D01*
X1392565Y69431D01*
X1391848Y68819D01*
X1391181Y68152D01*
X1390569Y67435D01*
X1390015Y66672D01*
X1389522Y65868D01*
X1389094Y65028D01*
X1388733Y64157D01*
X1388442Y63260D01*
X1388222Y62343D01*
X1388074Y61412D01*
X1388000Y60471D01*
X1388000Y59529D01*
X1388074Y58588D01*
X1388222Y57657D01*
X1388442Y56740D01*
X1388733Y55843D01*
X1389094Y54972D01*
X1389522Y54132D01*
X1390015Y53328D01*
X1390569Y52565D01*
X1391181Y51848D01*
X1391848Y51181D01*
X1392565Y50569D01*
X1393328Y50015D01*
X1394132Y49522D01*
X1394972Y49094D01*
X1395843Y48733D01*
X1396740Y48442D01*
X1397657Y48222D01*
X1398588Y48074D01*
X1399529Y48000D01*
X1400471Y48000D01*
X1401412Y48074D01*
X1402343Y48222D01*
X1403260Y48442D01*
X1404157Y48733D01*
X1405028Y49094D01*
X1405868Y49522D01*
X1406672Y50015D01*
X1407435Y50569D01*
X1408152Y51181D01*
X1408819Y51848D01*
X1409431Y52565D01*
X1409985Y53328D01*
X1410478Y54132D01*
X1410906Y54972D01*
X1411267Y55843D01*
X1411558Y56740D01*
X1411779Y57657D01*
X1411926Y58588D01*
X1412000Y59529D01*
M02*
