G04 EAGLE Gerber RS-274X export*
G75*
%MOMM*%
%FSLAX34Y34*%
%LPD*%
%INSilkscreen Bottom*%
%IPPOS*%
%AMOC8*
5,1,8,0,0,1.08239X$1,22.5*%
G01*
G04 Define Apertures*
%ADD10C,0.203200*%
G36*
X773879Y214143D02*
X626397Y214143D01*
X623083Y216076D01*
X622392Y216525D01*
X621702Y217043D01*
X621011Y217630D01*
X620321Y218286D01*
X619648Y218976D01*
X619009Y219666D01*
X618405Y220357D01*
X617835Y221047D01*
X615902Y224362D01*
X615902Y237342D01*
X615626Y250047D01*
X613969Y250047D01*
X613416Y250068D01*
X612864Y250133D01*
X612311Y250241D01*
X611759Y250392D01*
X611207Y250586D01*
X610654Y250823D01*
X610102Y251104D01*
X609550Y251428D01*
X609015Y251786D01*
X608514Y252170D01*
X608048Y252580D01*
X607616Y253016D01*
X607219Y253477D01*
X606857Y253965D01*
X606529Y254479D01*
X606235Y255018D01*
X605972Y255521D01*
X605735Y256062D01*
X605523Y256643D01*
X605338Y257262D01*
X605178Y257920D01*
X605044Y258617D01*
X604937Y259353D01*
X604855Y260127D01*
X604790Y261118D01*
X604734Y262501D01*
X604686Y264277D01*
X604647Y266445D01*
X604617Y269006D01*
X604596Y271960D01*
X604578Y279046D01*
X604596Y286028D01*
X604617Y288956D01*
X604647Y291509D01*
X604686Y293686D01*
X604734Y295488D01*
X604790Y296914D01*
X604855Y297965D01*
X604932Y298804D01*
X605027Y299596D01*
X605139Y300340D01*
X605269Y301037D01*
X605416Y301687D01*
X605579Y302289D01*
X605761Y302843D01*
X605959Y303350D01*
X606255Y303827D01*
X606589Y304291D01*
X606963Y304742D01*
X607375Y305180D01*
X607826Y305605D01*
X608315Y306017D01*
X608844Y306416D01*
X609412Y306803D01*
X609996Y307159D01*
X610577Y307467D01*
X611153Y307728D01*
X611725Y307942D01*
X612292Y308108D01*
X612855Y308227D01*
X613414Y308298D01*
X613969Y308322D01*
X615626Y308322D01*
X615902Y375158D01*
X615902Y441718D01*
X617835Y445033D01*
X618137Y445714D01*
X618491Y446379D01*
X618897Y447026D01*
X619354Y447656D01*
X619863Y448269D01*
X620424Y448865D01*
X621037Y449443D01*
X621702Y450004D01*
X622392Y450535D01*
X623083Y451022D01*
X623773Y451467D01*
X624464Y451868D01*
X625154Y452226D01*
X625845Y452541D01*
X626535Y452813D01*
X627225Y453042D01*
X627431Y453076D01*
X627773Y453109D01*
X628865Y453171D01*
X630501Y453230D01*
X632680Y453284D01*
X635403Y453333D01*
X638670Y453379D01*
X646834Y453456D01*
X657122Y453517D01*
X669482Y453560D01*
X683912Y453586D01*
X700414Y453594D01*
X720826Y453586D01*
X737319Y453560D01*
X749894Y453517D01*
X758551Y453456D01*
X761716Y453415D01*
X764515Y453361D01*
X766947Y453294D01*
X769011Y453215D01*
X770710Y453122D01*
X772041Y453016D01*
X772569Y452958D01*
X773005Y452897D01*
X773350Y452833D01*
X773603Y452766D01*
X774285Y452479D01*
X774949Y452170D01*
X775597Y451840D01*
X776227Y451488D01*
X776840Y451115D01*
X777435Y450720D01*
X778013Y450304D01*
X778574Y449866D01*
X779114Y449402D01*
X779627Y448908D01*
X780115Y448384D01*
X780577Y447829D01*
X781012Y447244D01*
X781422Y446629D01*
X781807Y445984D01*
X782165Y445309D01*
X784098Y442271D01*
X784098Y375434D01*
X784227Y353029D01*
X784340Y335802D01*
X784435Y323753D01*
X784512Y316883D01*
X784562Y314877D01*
X784642Y313137D01*
X784752Y311666D01*
X784818Y311031D01*
X784892Y310462D01*
X784973Y309960D01*
X785062Y309526D01*
X785159Y309158D01*
X785263Y308857D01*
X785375Y308623D01*
X785494Y308455D01*
X785621Y308355D01*
X785687Y308330D01*
X785755Y308322D01*
X786245Y308298D01*
X786748Y308227D01*
X787263Y308108D01*
X787792Y307942D01*
X788334Y307728D01*
X788888Y307467D01*
X789456Y307159D01*
X790036Y306803D01*
X790603Y306416D01*
X791132Y306017D01*
X791622Y305605D01*
X792073Y305180D01*
X792485Y304742D01*
X792858Y304291D01*
X793193Y303827D01*
X793488Y303350D01*
X793685Y302843D01*
X793859Y302289D01*
X794013Y301687D01*
X794144Y301037D01*
X794254Y300340D01*
X794343Y299596D01*
X794410Y298804D01*
X794455Y297965D01*
X794487Y296918D01*
X794515Y295505D01*
X794558Y291578D01*
X794584Y286184D01*
X794593Y279322D01*
X794584Y272452D01*
X794558Y267032D01*
X794515Y263062D01*
X794487Y261621D01*
X794455Y260542D01*
X794410Y259674D01*
X794343Y258867D01*
X794254Y258121D01*
X794144Y257435D01*
X794013Y256809D01*
X793859Y256244D01*
X793685Y255739D01*
X793488Y255294D01*
X793201Y254757D01*
X792893Y254250D01*
X792563Y253773D01*
X792211Y253326D01*
X791838Y252910D01*
X791443Y252524D01*
X791026Y252168D01*
X790588Y251842D01*
X790133Y251546D01*
X789665Y251281D01*
X789184Y251046D01*
X788690Y250841D01*
X788182Y250666D01*
X787662Y250521D01*
X787130Y250407D01*
X786584Y250323D01*
X784374Y250047D01*
X784098Y237066D01*
X784098Y224362D01*
X782165Y221047D01*
X781595Y220357D01*
X780991Y219666D01*
X780352Y218976D01*
X779679Y218286D01*
X778989Y217630D01*
X778298Y217043D01*
X777608Y216525D01*
X776917Y216076D01*
X773879Y214143D01*
G37*
%LPC*%
G36*
X677215Y316331D02*
X677452Y336766D01*
X677657Y354364D01*
X677752Y362495D01*
X677767Y363835D01*
X679700Y368253D01*
X680197Y369201D01*
X680316Y369409D01*
X680719Y370109D01*
X681267Y370979D01*
X681841Y371809D01*
X682441Y372601D01*
X683066Y373354D01*
X683718Y374068D01*
X684396Y374744D01*
X685099Y375385D01*
X685828Y375995D01*
X686583Y376576D01*
X687365Y377126D01*
X688171Y377646D01*
X689004Y378136D01*
X689863Y378595D01*
X690748Y379025D01*
X691371Y379286D01*
X691939Y379525D01*
X692495Y379737D01*
X693026Y379922D01*
X693531Y380082D01*
X694010Y380216D01*
X694463Y380324D01*
X694891Y380406D01*
X695335Y380470D01*
X695840Y380526D01*
X696405Y380574D01*
X696987Y380610D01*
X697031Y380613D01*
X698464Y380665D01*
X700138Y380682D01*
X701692Y380665D01*
X702946Y380616D01*
X703038Y380613D01*
X703236Y380598D01*
X704177Y380526D01*
X704669Y380470D01*
X705109Y380406D01*
X705537Y380324D01*
X705990Y380216D01*
X706469Y380082D01*
X706974Y379922D01*
X707504Y379737D01*
X708061Y379525D01*
X709252Y379025D01*
X710199Y378595D01*
X711108Y378136D01*
X711541Y377892D01*
X711977Y377646D01*
X712808Y377126D01*
X713600Y376576D01*
X714353Y375995D01*
X715067Y375385D01*
X715742Y374744D01*
X716388Y374068D01*
X717011Y373354D01*
X717613Y372601D01*
X718194Y371809D01*
X718752Y370979D01*
X718811Y370883D01*
X719290Y370109D01*
X719805Y369201D01*
X720299Y368253D01*
X722509Y363835D01*
X722509Y340083D01*
X722785Y316331D01*
X753718Y316331D01*
X753718Y336768D01*
X753735Y343259D01*
X753757Y345986D01*
X753787Y348368D01*
X753826Y350405D01*
X753873Y352097D01*
X753929Y353443D01*
X753994Y354444D01*
X754072Y355251D01*
X754167Y356015D01*
X754279Y356736D01*
X754408Y357413D01*
X754555Y358048D01*
X754719Y358639D01*
X754900Y359187D01*
X755099Y359692D01*
X755311Y360097D01*
X755532Y360484D01*
X755764Y360852D01*
X756005Y361202D01*
X756256Y361534D01*
X756516Y361847D01*
X756787Y362142D01*
X757066Y362419D01*
X757356Y362677D01*
X757656Y362918D01*
X757965Y363139D01*
X758283Y363343D01*
X758612Y363528D01*
X758950Y363694D01*
X759298Y363843D01*
X759656Y363973D01*
X759966Y364068D01*
X760035Y364089D01*
X760448Y364195D01*
X760602Y364228D01*
X760894Y364291D01*
X761373Y364378D01*
X761886Y364455D01*
X762381Y364516D01*
X762433Y364523D01*
X763626Y364629D01*
X764953Y364695D01*
X766414Y364724D01*
X768008Y364713D01*
X769736Y364663D01*
X777746Y364663D01*
X777746Y401948D01*
X777737Y414255D01*
X777711Y423836D01*
X777668Y430688D01*
X777640Y433092D01*
X777608Y434814D01*
X777562Y436134D01*
X777495Y437334D01*
X777407Y438413D01*
X777297Y439371D01*
X777165Y440208D01*
X777012Y440924D01*
X776837Y441520D01*
X776742Y441772D01*
X776641Y441995D01*
X776330Y442547D01*
X775951Y443099D01*
X775502Y443652D01*
X774984Y444204D01*
X774432Y444722D01*
X774131Y444966D01*
X773879Y445171D01*
X773616Y445351D01*
X773327Y445550D01*
X772774Y445861D01*
X772728Y445887D01*
X772603Y445958D01*
X772560Y445982D01*
X772536Y445996D01*
X772258Y446113D01*
X772235Y446122D01*
X771871Y446241D01*
X771445Y446353D01*
X771395Y446364D01*
X771389Y446365D01*
X771233Y446398D01*
X770957Y446457D01*
X770405Y446554D01*
X770379Y446558D01*
X770313Y446567D01*
X769791Y446643D01*
X769527Y446675D01*
X769115Y446724D01*
X768635Y446772D01*
X768376Y446798D01*
X768084Y446822D01*
X767828Y446843D01*
X767805Y446845D01*
X767574Y446865D01*
X767351Y446878D01*
X767036Y446898D01*
X765784Y446975D01*
X764572Y447022D01*
X763742Y447054D01*
X761451Y447104D01*
X758378Y447136D01*
X753994Y447164D01*
X752305Y447170D01*
X741289Y447208D01*
X723337Y447233D01*
X700138Y447242D01*
X678509Y447233D01*
X661403Y447208D01*
X650248Y447169D01*
X648820Y447164D01*
X644224Y447136D01*
X640758Y447104D01*
X638014Y447059D01*
X635580Y446992D01*
X633457Y446903D01*
X631644Y446793D01*
X630143Y446662D01*
X629508Y446588D01*
X628952Y446509D01*
X628473Y446424D01*
X628071Y446334D01*
X627748Y446238D01*
X627502Y446137D01*
X627290Y446058D01*
X627070Y445956D01*
X626604Y445689D01*
X626103Y445335D01*
X625568Y444895D01*
X625050Y444420D01*
X624602Y443962D01*
X624222Y443522D01*
X623911Y443099D01*
X622530Y441166D01*
X622254Y402776D01*
X622254Y364663D01*
X630263Y364663D01*
X631992Y364713D01*
X633586Y364724D01*
X635047Y364695D01*
X635128Y364691D01*
X636374Y364629D01*
X637567Y364523D01*
X638114Y364455D01*
X638627Y364378D01*
X639106Y364291D01*
X639552Y364195D01*
X639965Y364089D01*
X640344Y363973D01*
X640702Y363843D01*
X641050Y363694D01*
X641388Y363528D01*
X641716Y363343D01*
X642035Y363139D01*
X642344Y362918D01*
X642644Y362677D01*
X642933Y362419D01*
X643213Y362142D01*
X643484Y361847D01*
X643744Y361534D01*
X643995Y361202D01*
X644236Y360852D01*
X644468Y360484D01*
X644689Y360097D01*
X644901Y359692D01*
X645100Y359187D01*
X645281Y358639D01*
X645445Y358048D01*
X645592Y357413D01*
X645721Y356736D01*
X645833Y356015D01*
X645928Y355251D01*
X646006Y354444D01*
X646071Y353443D01*
X646127Y352097D01*
X646174Y350405D01*
X646213Y348368D01*
X646243Y345986D01*
X646265Y343259D01*
X646282Y336768D01*
X646282Y316331D01*
X677215Y316331D01*
G37*
%LPD*%
G36*
X661196Y393939D02*
X660019Y393947D01*
X658905Y393973D01*
X657853Y394016D01*
X656863Y394077D01*
X655937Y394154D01*
X655073Y394249D01*
X654271Y394362D01*
X653532Y394491D01*
X652856Y394638D01*
X652242Y394802D01*
X651690Y394983D01*
X651202Y395181D01*
X650776Y395397D01*
X650412Y395630D01*
X650111Y395881D01*
X649873Y396148D01*
X649672Y396462D01*
X649484Y396851D01*
X649309Y397316D01*
X649148Y397857D01*
X648999Y398473D01*
X648863Y399165D01*
X648740Y399932D01*
X648630Y400774D01*
X648533Y401692D01*
X648448Y402686D01*
X648377Y403755D01*
X648319Y404900D01*
X648274Y406120D01*
X648241Y407416D01*
X648222Y408787D01*
X648215Y410233D01*
X648224Y412624D01*
X648250Y414825D01*
X648293Y416836D01*
X648354Y418657D01*
X648431Y420202D01*
X648526Y421384D01*
X648580Y421840D01*
X648638Y422204D01*
X648701Y422478D01*
X648768Y422662D01*
X649063Y423255D01*
X649398Y423792D01*
X649771Y424274D01*
X649972Y424493D01*
X650183Y424699D01*
X650404Y424890D01*
X650634Y425068D01*
X650874Y425231D01*
X651124Y425380D01*
X651383Y425516D01*
X651653Y425637D01*
X651931Y425745D01*
X652220Y425838D01*
X652874Y426000D01*
X653661Y426140D01*
X654583Y426259D01*
X655638Y426356D01*
X656827Y426431D01*
X658149Y426485D01*
X659606Y426518D01*
X661196Y426528D01*
X662819Y426511D01*
X664372Y426459D01*
X665857Y426373D01*
X667272Y426252D01*
X668515Y426114D01*
X669482Y425976D01*
X670172Y425838D01*
X670414Y425769D01*
X670586Y425700D01*
X670857Y425556D01*
X671115Y425400D01*
X671361Y425232D01*
X671596Y425052D01*
X671819Y424861D01*
X672030Y424658D01*
X672229Y424442D01*
X672416Y424215D01*
X672591Y423976D01*
X672755Y423725D01*
X672906Y423463D01*
X673046Y423188D01*
X673174Y422902D01*
X673290Y422603D01*
X673394Y422293D01*
X673486Y421971D01*
X673570Y421618D01*
X673648Y421214D01*
X673788Y420254D01*
X673907Y419091D01*
X674004Y417725D01*
X674080Y416156D01*
X674134Y414385D01*
X674166Y412411D01*
X674177Y410233D01*
X674170Y408787D01*
X674149Y407416D01*
X674114Y406120D01*
X674065Y404900D01*
X674001Y403755D01*
X673924Y402686D01*
X673833Y401692D01*
X673728Y400774D01*
X673609Y399932D01*
X673475Y399165D01*
X673328Y398473D01*
X673167Y397857D01*
X672992Y397316D01*
X672802Y396851D01*
X672599Y396462D01*
X672382Y396148D01*
X672127Y395881D01*
X671814Y395630D01*
X671441Y395397D01*
X671009Y395181D01*
X670518Y394983D01*
X669967Y394802D01*
X669357Y394638D01*
X668688Y394491D01*
X667959Y394362D01*
X667171Y394249D01*
X666323Y394154D01*
X665417Y394077D01*
X664450Y394016D01*
X663425Y393973D01*
X662340Y393947D01*
X661196Y393939D01*
G37*
%LPC*%
G36*
X748470Y220219D02*
X758188Y220357D01*
X762051Y220426D01*
X765248Y220495D01*
X767782Y220564D01*
X769650Y220633D01*
X770854Y220702D01*
X771207Y220737D01*
X771394Y220771D01*
X771661Y220935D01*
X771911Y221151D01*
X772144Y221418D01*
X772360Y221738D01*
X772541Y222074D01*
X772671Y222394D01*
X772749Y222696D01*
X772774Y222981D01*
X772739Y223214D01*
X772634Y223570D01*
X772459Y224047D01*
X772213Y224646D01*
X771512Y226211D01*
X770530Y228263D01*
X769268Y230802D01*
X767725Y233830D01*
X765902Y237344D01*
X763798Y241347D01*
X761673Y245349D01*
X759785Y248864D01*
X758135Y251892D01*
X756721Y254431D01*
X755545Y256483D01*
X754607Y258047D01*
X754226Y258647D01*
X753905Y259124D01*
X753644Y259480D01*
X753442Y259713D01*
X753271Y259847D01*
X753036Y259972D01*
X752736Y260089D01*
X752371Y260196D01*
X751942Y260296D01*
X751448Y260386D01*
X750889Y260468D01*
X750265Y260542D01*
X748669Y260680D01*
X746502Y260818D01*
X744111Y260939D01*
X743766Y260956D01*
X740461Y261094D01*
X728309Y261370D01*
X724995Y265237D01*
X721680Y268827D01*
X678596Y268827D01*
X676662Y266065D01*
X676041Y265213D01*
X675420Y264451D01*
X674798Y263780D01*
X674177Y263200D01*
X673866Y262944D01*
X673555Y262710D01*
X673245Y262499D01*
X672934Y262311D01*
X672623Y262145D01*
X672370Y262029D01*
X672312Y262002D01*
X672002Y261882D01*
X671691Y261785D01*
X671350Y261701D01*
X670949Y261623D01*
X670487Y261550D01*
X669965Y261482D01*
X668739Y261364D01*
X667272Y261267D01*
X665563Y261191D01*
X663613Y261137D01*
X661420Y261105D01*
X658987Y261094D01*
X656018Y261085D01*
X653463Y261060D01*
X651322Y261016D01*
X649596Y260956D01*
X648876Y260915D01*
X648233Y260861D01*
X647667Y260794D01*
X647180Y260714D01*
X646770Y260622D01*
X646437Y260516D01*
X646183Y260397D01*
X646006Y260266D01*
X645840Y260097D01*
X645620Y259799D01*
X645344Y259372D01*
X645013Y258816D01*
X644187Y257314D01*
X643141Y255294D01*
X641874Y252757D01*
X640387Y249701D01*
X638681Y246128D01*
X636754Y242037D01*
X634844Y237938D01*
X633189Y234339D01*
X631789Y231240D01*
X630643Y228642D01*
X629752Y226545D01*
X629116Y224948D01*
X628893Y224338D01*
X628734Y223852D01*
X628638Y223492D01*
X628606Y223257D01*
X628624Y222972D01*
X628675Y222670D01*
X628762Y222351D01*
X628883Y222014D01*
X629021Y221695D01*
X629159Y221427D01*
X629297Y221211D01*
X629435Y221047D01*
X629473Y221013D01*
X629555Y220980D01*
X629845Y220918D01*
X630306Y220860D01*
X630937Y220806D01*
X631738Y220756D01*
X632710Y220711D01*
X635166Y220633D01*
X638303Y220573D01*
X642122Y220530D01*
X646623Y220504D01*
X651806Y220495D01*
X663000Y220374D01*
X674764Y220288D01*
X687097Y220236D01*
X700000Y220219D01*
X748470Y220219D01*
G37*
%LPD*%
G36*
X700138Y227676D02*
X698843Y227693D01*
X697721Y227745D01*
X696772Y227831D01*
X696362Y227887D01*
X695995Y227952D01*
X695646Y228034D01*
X695288Y228142D01*
X694921Y228276D01*
X694545Y228435D01*
X694161Y228621D01*
X693769Y228832D01*
X693367Y229070D01*
X692957Y229333D01*
X692288Y229827D01*
X691663Y230343D01*
X691080Y230880D01*
X690541Y231439D01*
X690044Y232019D01*
X689591Y232621D01*
X689181Y233245D01*
X688814Y233890D01*
X688491Y234561D01*
X688210Y235262D01*
X687973Y235994D01*
X687779Y236755D01*
X687628Y237547D01*
X687520Y238369D01*
X687455Y239222D01*
X687434Y240104D01*
X687453Y240987D01*
X687511Y241839D01*
X687608Y242661D01*
X687744Y243453D01*
X687919Y244214D01*
X688133Y244946D01*
X688385Y245647D01*
X688676Y246318D01*
X689011Y246963D01*
X689393Y247587D01*
X689822Y248189D01*
X690299Y248769D01*
X690823Y249328D01*
X691395Y249865D01*
X692014Y250381D01*
X692681Y250875D01*
X693253Y251270D01*
X693863Y251626D01*
X694513Y251943D01*
X695201Y252222D01*
X695928Y252461D01*
X696694Y252662D01*
X697499Y252824D01*
X698343Y252947D01*
X699195Y253031D01*
X700026Y253076D01*
X700835Y253083D01*
X701623Y253050D01*
X702388Y252979D01*
X703133Y252869D01*
X703856Y252720D01*
X704557Y252532D01*
X705006Y252351D01*
X705524Y252084D01*
X706111Y251730D01*
X706766Y251290D01*
X707440Y250798D01*
X708078Y250288D01*
X708682Y249762D01*
X709252Y249218D01*
X709752Y248693D01*
X710214Y248154D01*
X710641Y247601D01*
X711030Y247035D01*
X711383Y246454D01*
X711699Y245859D01*
X711978Y245250D01*
X712221Y244627D01*
X712427Y243990D01*
X712597Y243338D01*
X712729Y242673D01*
X712825Y241994D01*
X712885Y241301D01*
X712907Y240594D01*
X712893Y239873D01*
X712842Y239137D01*
X712756Y238404D01*
X712635Y237690D01*
X712480Y236993D01*
X712290Y236315D01*
X712066Y235655D01*
X711807Y235014D01*
X711513Y234391D01*
X711185Y233786D01*
X710823Y233200D01*
X710426Y232632D01*
X709994Y232082D01*
X709528Y231551D01*
X709028Y231038D01*
X708493Y230543D01*
X707923Y230067D01*
X707319Y229609D01*
X706846Y229281D01*
X706395Y228988D01*
X705966Y228729D01*
X705558Y228504D01*
X705172Y228314D01*
X704807Y228159D01*
X704464Y228038D01*
X704143Y227952D01*
X703808Y227887D01*
X703426Y227831D01*
X702997Y227784D01*
X702520Y227745D01*
X701424Y227693D01*
X700138Y227676D01*
G37*
%LPC*%
G36*
X753718Y267170D02*
X753718Y309702D01*
X722785Y309702D01*
X722785Y305836D01*
X722778Y305372D01*
X722772Y305029D01*
X722733Y304265D01*
X722669Y303544D01*
X722578Y302867D01*
X722461Y302233D01*
X722319Y301641D01*
X722151Y301093D01*
X721957Y300588D01*
X721736Y300118D01*
X721491Y299674D01*
X721219Y299255D01*
X720921Y298862D01*
X720597Y298495D01*
X720310Y298215D01*
X720248Y298155D01*
X719872Y297839D01*
X719471Y297550D01*
X719169Y297450D01*
X718746Y297356D01*
X718202Y297269D01*
X717538Y297188D01*
X716752Y297113D01*
X715846Y297045D01*
X714819Y296984D01*
X713671Y296929D01*
X711013Y296838D01*
X707871Y296774D01*
X704246Y296735D01*
X700138Y296722D01*
X696030Y296735D01*
X692606Y296771D01*
X692405Y296774D01*
X690828Y296806D01*
X689263Y296838D01*
X686605Y296929D01*
X685457Y296984D01*
X684430Y297045D01*
X683524Y297113D01*
X682738Y297188D01*
X682074Y297269D01*
X681530Y297356D01*
X681107Y297450D01*
X680805Y297550D01*
X680402Y297777D01*
X680020Y298042D01*
X679659Y298347D01*
X679321Y298690D01*
X679003Y299072D01*
X678708Y299492D01*
X678434Y299952D01*
X678181Y300450D01*
X677955Y300988D01*
X677758Y301564D01*
X677592Y302179D01*
X677456Y302832D01*
X677351Y303525D01*
X677275Y304256D01*
X677230Y305027D01*
X677215Y305836D01*
X677215Y309702D01*
X646282Y309702D01*
X646282Y267446D01*
X657606Y267446D01*
X659884Y267464D01*
X662025Y267515D01*
X664027Y267602D01*
X665891Y267722D01*
X668653Y267930D01*
X669758Y267999D01*
X670863Y269103D01*
X671260Y269535D01*
X671622Y270001D01*
X671950Y270502D01*
X672243Y271037D01*
X672559Y271440D01*
X672884Y271822D01*
X673219Y272182D01*
X673564Y272521D01*
X673918Y272838D01*
X674282Y273134D01*
X674656Y273408D01*
X675040Y273660D01*
X675433Y273891D01*
X675836Y274101D01*
X676249Y274288D01*
X676671Y274454D01*
X677103Y274599D01*
X677545Y274722D01*
X677996Y274823D01*
X678458Y274903D01*
X678981Y274970D01*
X679252Y274997D01*
X679621Y275033D01*
X681245Y275145D01*
X681380Y275151D01*
X683332Y275240D01*
X685880Y275318D01*
X688890Y275378D01*
X692362Y275421D01*
X696295Y275447D01*
X700690Y275456D01*
X705783Y275438D01*
X710288Y275387D01*
X712422Y275340D01*
X714206Y275300D01*
X715945Y275244D01*
X717538Y275179D01*
X720230Y275041D01*
X722233Y274903D01*
X722975Y274834D01*
X723545Y274765D01*
X723942Y274696D01*
X724166Y274627D01*
X724485Y274437D01*
X724891Y274144D01*
X725383Y273747D01*
X725961Y273246D01*
X727239Y272072D01*
X728585Y270760D01*
X731347Y267722D01*
X745102Y267383D01*
X753718Y267170D01*
G37*
%LPD*%
G36*
X661196Y296722D02*
X659461Y296739D01*
X657847Y296791D01*
X656354Y296877D01*
X654982Y296998D01*
X653800Y297136D01*
X652876Y297274D01*
X652211Y297412D01*
X651976Y297481D01*
X651806Y297550D01*
X651402Y297773D01*
X651020Y298025D01*
X650660Y298308D01*
X650321Y298621D01*
X650004Y298964D01*
X649709Y299337D01*
X649435Y299740D01*
X649182Y300174D01*
X648956Y300629D01*
X648759Y301098D01*
X648593Y301579D01*
X648457Y302073D01*
X648351Y302580D01*
X648276Y303100D01*
X648231Y303633D01*
X648215Y304179D01*
X648215Y306388D01*
X674177Y306388D01*
X674177Y304179D01*
X674162Y303633D01*
X674116Y303100D01*
X674041Y302580D01*
X673935Y302073D01*
X673799Y301579D01*
X673633Y301098D01*
X673437Y300629D01*
X673210Y300174D01*
X672958Y299740D01*
X672684Y299337D01*
X672388Y298964D01*
X672071Y298621D01*
X671732Y298308D01*
X671372Y298025D01*
X670990Y297773D01*
X670586Y297550D01*
X670060Y297412D01*
X669309Y297274D01*
X668334Y297136D01*
X667134Y296998D01*
X665779Y296877D01*
X664338Y296791D01*
X662810Y296739D01*
X661196Y296722D01*
G37*
%LPC*%
G36*
X622772Y227654D02*
X622806Y227676D01*
X622910Y227823D01*
X623083Y228125D01*
X623635Y229195D01*
X624464Y230886D01*
X625568Y233199D01*
X628330Y238999D01*
X631644Y245904D01*
X639654Y263304D01*
X639654Y309702D01*
X639650Y315385D01*
X639645Y324064D01*
X639639Y326601D01*
X639619Y335388D01*
X639576Y343673D01*
X639548Y346677D01*
X639516Y348921D01*
X639470Y350681D01*
X639403Y352235D01*
X639315Y353581D01*
X639205Y354720D01*
X639073Y355653D01*
X638999Y356041D01*
X638920Y356378D01*
X638835Y356662D01*
X638745Y356895D01*
X638650Y357077D01*
X638549Y357206D01*
X638390Y357340D01*
X638191Y357467D01*
X637950Y357586D01*
X637669Y357698D01*
X637346Y357802D01*
X636982Y357899D01*
X636578Y357988D01*
X636132Y358069D01*
X635118Y358209D01*
X633940Y358319D01*
X632598Y358399D01*
X631092Y358449D01*
X629582Y358460D01*
X628885Y358447D01*
X628227Y358423D01*
X627607Y358387D01*
X627027Y358339D01*
X626485Y358279D01*
X625983Y358207D01*
X625519Y358124D01*
X625094Y358028D01*
X624707Y357921D01*
X624360Y357802D01*
X624165Y357719D01*
X624051Y357671D01*
X623782Y357528D01*
X623551Y357373D01*
X623359Y357206D01*
X623258Y357125D01*
X623162Y357018D01*
X623072Y356887D01*
X622988Y356731D01*
X622835Y356345D01*
X622703Y355860D01*
X622593Y355275D01*
X622504Y354591D01*
X622438Y353808D01*
X622392Y352925D01*
X622360Y351788D01*
X622332Y350241D01*
X622289Y345917D01*
X622263Y339953D01*
X622254Y332350D01*
X622254Y308322D01*
X623911Y308322D01*
X624466Y308298D01*
X625025Y308227D01*
X625588Y308108D01*
X626155Y307942D01*
X626727Y307728D01*
X627303Y307467D01*
X627884Y307159D01*
X628468Y306803D01*
X629036Y306416D01*
X629564Y306017D01*
X630054Y305605D01*
X630086Y305575D01*
X630505Y305180D01*
X630917Y304742D01*
X631291Y304291D01*
X631625Y303827D01*
X631921Y303350D01*
X632119Y302843D01*
X632300Y302289D01*
X632464Y301687D01*
X632611Y301037D01*
X632740Y300340D01*
X632853Y299596D01*
X632948Y298804D01*
X633025Y297965D01*
X633090Y296914D01*
X633146Y295488D01*
X633194Y293686D01*
X633232Y291509D01*
X633263Y288956D01*
X633284Y286028D01*
X633301Y279046D01*
X633284Y271960D01*
X633263Y269006D01*
X633232Y266445D01*
X633194Y264277D01*
X633146Y262501D01*
X633090Y261118D01*
X633025Y260127D01*
X632943Y259353D01*
X632835Y258617D01*
X632702Y257920D01*
X632542Y257262D01*
X632356Y256643D01*
X632145Y256062D01*
X631908Y255521D01*
X631644Y255018D01*
X631351Y254479D01*
X631023Y253965D01*
X630660Y253477D01*
X630263Y253016D01*
X629832Y252580D01*
X629366Y252170D01*
X628865Y251786D01*
X628330Y251428D01*
X627778Y251104D01*
X627225Y250823D01*
X626673Y250586D01*
X626121Y250392D01*
X625568Y250241D01*
X625016Y250133D01*
X624464Y250068D01*
X623911Y250047D01*
X622254Y250047D01*
X622254Y238447D01*
X622263Y236082D01*
X622289Y233959D01*
X622332Y232077D01*
X622392Y230438D01*
X622470Y229126D01*
X622515Y228625D01*
X622565Y228228D01*
X622619Y227935D01*
X622677Y227745D01*
X622740Y227659D01*
X622772Y227654D01*
G37*
G36*
X777470Y229333D02*
X777503Y229344D01*
X777534Y229378D01*
X777590Y229514D01*
X777638Y229741D01*
X777677Y230058D01*
X777707Y230466D01*
X777728Y230964D01*
X777746Y232233D01*
X777746Y249771D01*
X774984Y250047D01*
X774369Y250198D01*
X773767Y250375D01*
X773178Y250577D01*
X772602Y250806D01*
X772039Y251061D01*
X771488Y251341D01*
X770951Y251648D01*
X770427Y251980D01*
X769924Y252338D01*
X769452Y252722D01*
X769009Y253132D01*
X768597Y253568D01*
X768215Y254030D01*
X767864Y254517D01*
X767542Y255031D01*
X767251Y255570D01*
X767054Y255959D01*
X766880Y256433D01*
X766726Y256994D01*
X766595Y257642D01*
X766485Y258375D01*
X766396Y259195D01*
X766329Y260102D01*
X766284Y261094D01*
X766224Y263770D01*
X766181Y267653D01*
X766155Y272746D01*
X766146Y279046D01*
X766155Y286028D01*
X766181Y291509D01*
X766224Y295488D01*
X766252Y296914D01*
X766284Y297965D01*
X766334Y298804D01*
X766414Y299596D01*
X766524Y300340D01*
X766664Y301037D01*
X766834Y301687D01*
X767035Y302289D01*
X767266Y302843D01*
X767527Y303350D01*
X767825Y303827D01*
X768166Y304291D01*
X768550Y304742D01*
X768977Y305180D01*
X769447Y305605D01*
X769961Y306017D01*
X770517Y306416D01*
X771117Y306803D01*
X771734Y307159D01*
X772343Y307467D01*
X772943Y307728D01*
X773534Y307942D01*
X773866Y308037D01*
X774117Y308108D01*
X774690Y308227D01*
X775256Y308298D01*
X775812Y308322D01*
X777746Y308322D01*
X777746Y332350D01*
X777737Y339504D01*
X777711Y345227D01*
X777668Y349516D01*
X777608Y352373D01*
X777567Y353385D01*
X777513Y354280D01*
X777446Y355059D01*
X777366Y355722D01*
X777273Y356268D01*
X777167Y356697D01*
X777049Y357010D01*
X776985Y357123D01*
X776917Y357206D01*
X776758Y357373D01*
X776557Y357528D01*
X776314Y357671D01*
X776028Y357802D01*
X775701Y357921D01*
X775331Y358028D01*
X774920Y358124D01*
X774466Y358207D01*
X773970Y358279D01*
X773775Y358301D01*
X773433Y358339D01*
X772853Y358387D01*
X772231Y358423D01*
X771567Y358447D01*
X770861Y358460D01*
X769322Y358449D01*
X767779Y358399D01*
X766396Y358319D01*
X765173Y358209D01*
X764109Y358069D01*
X763637Y357988D01*
X763205Y357899D01*
X762813Y357802D01*
X762461Y357698D01*
X762148Y357586D01*
X761876Y357467D01*
X761643Y357340D01*
X761451Y357206D01*
X761350Y357112D01*
X761255Y356967D01*
X761164Y356771D01*
X761080Y356524D01*
X761000Y356227D01*
X760927Y355879D01*
X760795Y355031D01*
X760685Y353980D01*
X760596Y352727D01*
X760530Y351270D01*
X760484Y349611D01*
X760452Y347434D01*
X760424Y344424D01*
X760381Y335905D01*
X760355Y324055D01*
X760346Y308874D01*
X760346Y261370D01*
X768908Y245352D01*
X772049Y239379D01*
X774846Y234166D01*
X777470Y229333D01*
G37*
G36*
X780369Y256399D02*
X781714Y256416D01*
X782916Y256468D01*
X783975Y256554D01*
X784451Y256610D01*
X784892Y256675D01*
X785297Y256748D01*
X785667Y256830D01*
X786001Y256921D01*
X786299Y257020D01*
X786562Y257128D01*
X786789Y257245D01*
X786980Y257370D01*
X787136Y257504D01*
X787237Y257619D01*
X787332Y257756D01*
X787507Y258099D01*
X787660Y258533D01*
X787792Y259057D01*
X787902Y259672D01*
X787990Y260378D01*
X788057Y261174D01*
X788103Y262061D01*
X788163Y264520D01*
X788206Y268171D01*
X788232Y273013D01*
X788241Y279046D01*
X788228Y283417D01*
X788189Y287280D01*
X788124Y290633D01*
X788034Y293477D01*
X787979Y294708D01*
X787917Y295811D01*
X787849Y296788D01*
X787775Y297637D01*
X787694Y298358D01*
X787606Y298953D01*
X787513Y299420D01*
X787412Y299760D01*
X787288Y300027D01*
X787123Y300278D01*
X786917Y300511D01*
X786670Y300726D01*
X786382Y300925D01*
X786053Y301106D01*
X785683Y301270D01*
X785272Y301417D01*
X784820Y301546D01*
X784327Y301659D01*
X783832Y301746D01*
X783793Y301754D01*
X783218Y301831D01*
X782602Y301892D01*
X781945Y301935D01*
X781247Y301961D01*
X780508Y301969D01*
X779084Y301952D01*
X777849Y301900D01*
X776805Y301814D01*
X776354Y301758D01*
X775951Y301693D01*
X775586Y301620D01*
X775251Y301538D01*
X774947Y301447D01*
X774673Y301348D01*
X774429Y301240D01*
X774216Y301123D01*
X774032Y300998D01*
X773879Y300865D01*
X773683Y300619D01*
X773508Y300295D01*
X773355Y299894D01*
X773223Y299415D01*
X773113Y298858D01*
X773025Y298224D01*
X772958Y297512D01*
X772913Y296722D01*
X772880Y295721D01*
X772852Y294374D01*
X772809Y290646D01*
X772783Y285536D01*
X772774Y279046D01*
X772783Y273013D01*
X772809Y268171D01*
X772852Y264520D01*
X772913Y262061D01*
X772954Y261174D01*
X773007Y260378D01*
X773074Y259672D01*
X773154Y259057D01*
X773247Y258533D01*
X773353Y258099D01*
X773471Y257756D01*
X773603Y257504D01*
X773759Y257370D01*
X773950Y257245D01*
X774177Y257128D01*
X774440Y257020D01*
X774738Y256921D01*
X775072Y256830D01*
X775442Y256748D01*
X775847Y256675D01*
X776288Y256610D01*
X776764Y256554D01*
X777823Y256468D01*
X779025Y256416D01*
X780369Y256399D01*
G37*
%LPD*%
G36*
X780354Y288990D02*
X779981Y289015D01*
X779603Y289068D01*
X779219Y289150D01*
X778831Y289262D01*
X778436Y289403D01*
X778052Y289567D01*
X777692Y289750D01*
X777357Y289952D01*
X777047Y290171D01*
X776761Y290409D01*
X776501Y290665D01*
X776265Y290940D01*
X776054Y291233D01*
X775868Y291544D01*
X775707Y291873D01*
X775570Y292221D01*
X775459Y292588D01*
X775372Y292972D01*
X775310Y293375D01*
X775272Y293797D01*
X775260Y294236D01*
X775267Y294477D01*
X775286Y294715D01*
X775364Y295186D01*
X775493Y295647D01*
X775674Y296100D01*
X775907Y296545D01*
X776192Y296981D01*
X776529Y297408D01*
X776917Y297827D01*
X777336Y298215D01*
X777763Y298552D01*
X778199Y298836D01*
X778643Y299069D01*
X779096Y299251D01*
X779558Y299380D01*
X780029Y299458D01*
X780267Y299477D01*
X780508Y299484D01*
X780717Y299475D01*
X780930Y299449D01*
X781148Y299406D01*
X781371Y299346D01*
X781828Y299173D01*
X782303Y298931D01*
X783235Y298379D01*
X784098Y297827D01*
X784486Y297404D01*
X784823Y296963D01*
X785108Y296506D01*
X785341Y296031D01*
X785522Y295557D01*
X785652Y295099D01*
X785729Y294659D01*
X785749Y294445D01*
X785755Y294236D01*
X785749Y293962D01*
X785729Y293692D01*
X785697Y293427D01*
X785652Y293166D01*
X785522Y292657D01*
X785341Y292165D01*
X785231Y291930D01*
X785108Y291707D01*
X784972Y291498D01*
X784823Y291302D01*
X784661Y291118D01*
X784486Y290948D01*
X784299Y290790D01*
X784098Y290646D01*
X783785Y290350D01*
X783466Y290083D01*
X783142Y289845D01*
X782812Y289636D01*
X782477Y289456D01*
X782137Y289306D01*
X781791Y289184D01*
X781440Y289092D01*
X781083Y289029D01*
X780721Y288995D01*
X780354Y288990D01*
G37*
%LPC*%
G36*
X618940Y256399D02*
X620252Y256416D01*
X621426Y256468D01*
X622461Y256554D01*
X623359Y256675D01*
X623756Y256748D01*
X624118Y256830D01*
X624446Y256921D01*
X624740Y257020D01*
X624999Y257128D01*
X625223Y257245D01*
X625413Y257370D01*
X625568Y257504D01*
X625669Y257619D01*
X625765Y257756D01*
X625939Y258099D01*
X626093Y258533D01*
X626224Y259057D01*
X626334Y259672D01*
X626423Y260378D01*
X626490Y261174D01*
X626535Y262061D01*
X626595Y264520D01*
X626639Y268171D01*
X626664Y273013D01*
X626673Y279046D01*
X626662Y283417D01*
X626630Y287280D01*
X626576Y290633D01*
X626500Y293477D01*
X626403Y295811D01*
X626347Y296788D01*
X626285Y297637D01*
X626217Y298358D01*
X626144Y298953D01*
X626066Y299420D01*
X625983Y299760D01*
X625874Y300027D01*
X625722Y300278D01*
X625525Y300511D01*
X625323Y300691D01*
X625284Y300726D01*
X624998Y300925D01*
X624669Y301106D01*
X624295Y301270D01*
X623877Y301417D01*
X623414Y301546D01*
X622908Y301659D01*
X622357Y301754D01*
X621762Y301831D01*
X621123Y301892D01*
X620439Y301935D01*
X619712Y301961D01*
X618940Y301969D01*
X617516Y301952D01*
X616282Y301900D01*
X615237Y301814D01*
X614786Y301758D01*
X614383Y301693D01*
X614018Y301620D01*
X613684Y301538D01*
X613380Y301447D01*
X613106Y301348D01*
X612862Y301240D01*
X612648Y301123D01*
X612465Y300998D01*
X612311Y300865D01*
X612115Y300621D01*
X611940Y300304D01*
X611787Y299913D01*
X611656Y299449D01*
X611546Y298912D01*
X611457Y298301D01*
X611390Y297617D01*
X611345Y296860D01*
X611312Y295891D01*
X611284Y294573D01*
X611241Y290887D01*
X611215Y285804D01*
X611207Y279322D01*
X611215Y273177D01*
X611241Y268275D01*
X611284Y264615D01*
X611312Y263252D01*
X611345Y262199D01*
X611390Y261344D01*
X611457Y260576D01*
X611546Y259894D01*
X611656Y259299D01*
X611787Y258790D01*
X611940Y258367D01*
X612115Y258030D01*
X612211Y257894D01*
X612311Y257780D01*
X612467Y257613D01*
X612657Y257456D01*
X612881Y257311D01*
X613140Y257176D01*
X613433Y257052D01*
X613761Y256938D01*
X614124Y256836D01*
X614521Y256744D01*
X614952Y256663D01*
X615419Y256593D01*
X615919Y256534D01*
X616454Y256485D01*
X617024Y256447D01*
X617628Y256421D01*
X618940Y256399D01*
G37*
%LPD*%
G36*
X618940Y288989D02*
X618699Y288995D01*
X618461Y289015D01*
X617991Y289092D01*
X617529Y289222D01*
X617076Y289403D01*
X616631Y289636D01*
X616195Y289921D01*
X615768Y290257D01*
X615350Y290646D01*
X614961Y291064D01*
X614625Y291492D01*
X614340Y291927D01*
X614107Y292372D01*
X613925Y292825D01*
X613796Y293287D01*
X613718Y293757D01*
X613699Y293996D01*
X613692Y294236D01*
X613699Y294477D01*
X613718Y294715D01*
X613796Y295186D01*
X613925Y295647D01*
X614107Y296100D01*
X614340Y296545D01*
X614625Y296981D01*
X614961Y297408D01*
X615350Y297827D01*
X615768Y298215D01*
X616195Y298552D01*
X616631Y298836D01*
X617076Y299069D01*
X617529Y299251D01*
X617991Y299380D01*
X618461Y299458D01*
X618699Y299477D01*
X618940Y299484D01*
X619149Y299475D01*
X619363Y299449D01*
X619581Y299406D01*
X619803Y299346D01*
X620260Y299173D01*
X620735Y298931D01*
X621667Y298379D01*
X622530Y297827D01*
X622826Y297513D01*
X623091Y297194D01*
X623326Y296870D01*
X623531Y296541D01*
X623706Y296206D01*
X623851Y295865D01*
X623965Y295519D01*
X624049Y295168D01*
X624103Y294812D01*
X624127Y294450D01*
X624121Y294082D01*
X624084Y293710D01*
X624017Y293332D01*
X623920Y292948D01*
X623793Y292559D01*
X623635Y292165D01*
X623455Y291780D01*
X623260Y291420D01*
X623049Y291085D01*
X622824Y290775D01*
X622583Y290490D01*
X622327Y290229D01*
X622057Y289994D01*
X621771Y289783D01*
X621470Y289597D01*
X621154Y289435D01*
X620822Y289299D01*
X620476Y289187D01*
X620115Y289100D01*
X619738Y289038D01*
X619347Y289001D01*
X618940Y288989D01*
G37*
%LPC*%
G36*
X699882Y349171D02*
X700344Y349190D01*
X700807Y349231D01*
X701272Y349294D01*
X701738Y349378D01*
X702206Y349484D01*
X702675Y349611D01*
X703147Y349760D01*
X703619Y349930D01*
X704094Y350122D01*
X704570Y350336D01*
X705048Y350571D01*
X705316Y350715D01*
X705527Y350828D01*
X706008Y351106D01*
X706490Y351406D01*
X706964Y351720D01*
X707417Y352042D01*
X707850Y352370D01*
X708264Y352705D01*
X708657Y353047D01*
X709031Y353397D01*
X709385Y353753D01*
X709718Y354116D01*
X710032Y354487D01*
X710326Y354864D01*
X710599Y355248D01*
X710853Y355640D01*
X711087Y356038D01*
X711301Y356443D01*
X711495Y356856D01*
X711669Y357275D01*
X711823Y357702D01*
X711957Y358135D01*
X712071Y358575D01*
X712165Y359023D01*
X712239Y359477D01*
X712293Y359939D01*
X712328Y360407D01*
X712342Y360883D01*
X712338Y361209D01*
X712336Y361365D01*
X712311Y361855D01*
X712265Y362351D01*
X712199Y362855D01*
X712114Y363366D01*
X712009Y363883D01*
X711883Y364408D01*
X711738Y364939D01*
X711518Y365617D01*
X711272Y366268D01*
X711000Y366894D01*
X710702Y367494D01*
X710378Y368068D01*
X710029Y368616D01*
X709653Y369138D01*
X709252Y369634D01*
X708821Y370105D01*
X708354Y370549D01*
X707854Y370968D01*
X707319Y371361D01*
X706749Y371727D01*
X706532Y371850D01*
X706145Y372068D01*
X705506Y372383D01*
X704833Y372672D01*
X704214Y372931D01*
X703599Y373156D01*
X702988Y373346D01*
X702382Y373501D01*
X701780Y373622D01*
X701182Y373708D01*
X700589Y373760D01*
X700000Y373777D01*
X699411Y373760D01*
X698818Y373708D01*
X698220Y373622D01*
X697618Y373501D01*
X697012Y373346D01*
X696401Y373156D01*
X695786Y372931D01*
X695744Y372914D01*
X695167Y372672D01*
X694427Y372313D01*
X693725Y371926D01*
X693063Y371511D01*
X692439Y371067D01*
X691855Y370596D01*
X691309Y370096D01*
X690802Y369569D01*
X690333Y369013D01*
X689904Y368429D01*
X689514Y367818D01*
X689162Y367178D01*
X688849Y366510D01*
X688575Y365814D01*
X688452Y365435D01*
X688340Y365090D01*
X688143Y364338D01*
X687986Y363558D01*
X687872Y362771D01*
X687805Y361996D01*
X687785Y361235D01*
X687813Y360486D01*
X687889Y359750D01*
X688012Y359027D01*
X688182Y358317D01*
X688400Y357620D01*
X688666Y356936D01*
X688978Y356265D01*
X689339Y355607D01*
X689747Y354962D01*
X690202Y354330D01*
X690705Y353711D01*
X691119Y353254D01*
X691255Y353104D01*
X691852Y352511D01*
X692285Y352142D01*
X692719Y351795D01*
X693154Y351469D01*
X693592Y351165D01*
X694030Y350882D01*
X694471Y350621D01*
X694913Y350381D01*
X695357Y350163D01*
X695802Y349967D01*
X696249Y349792D01*
X696697Y349639D01*
X697147Y349507D01*
X697599Y349397D01*
X698053Y349309D01*
X698508Y349242D01*
X698964Y349197D01*
X699422Y349173D01*
X699882Y349171D01*
G37*
%LPD*%
G36*
X738804Y393939D02*
X737660Y393947D01*
X736575Y393973D01*
X735549Y394016D01*
X734583Y394077D01*
X734345Y394097D01*
X733677Y394154D01*
X732829Y394249D01*
X732041Y394362D01*
X731312Y394491D01*
X730643Y394638D01*
X730033Y394802D01*
X729482Y394983D01*
X728991Y395181D01*
X728559Y395397D01*
X728186Y395630D01*
X727872Y395881D01*
X727618Y396148D01*
X727401Y396462D01*
X727220Y396808D01*
X727198Y396851D01*
X727008Y397316D01*
X726833Y397857D01*
X726672Y398473D01*
X726524Y399165D01*
X726391Y399932D01*
X726272Y400774D01*
X726167Y401692D01*
X726076Y402686D01*
X725998Y403755D01*
X725989Y403933D01*
X725978Y404134D01*
X725935Y404900D01*
X725886Y406120D01*
X725851Y407416D01*
X725845Y407789D01*
X725830Y408787D01*
X725824Y410072D01*
X725823Y410233D01*
X725840Y412624D01*
X725892Y414825D01*
X725978Y416836D01*
X726099Y418657D01*
X726237Y420202D01*
X726376Y421384D01*
X726445Y421840D01*
X726514Y422204D01*
X726583Y422478D01*
X726652Y422662D01*
X726828Y423015D01*
X726947Y423255D01*
X727282Y423792D01*
X727655Y424274D01*
X727856Y424493D01*
X728067Y424699D01*
X728288Y424890D01*
X728518Y425068D01*
X728758Y425231D01*
X729008Y425380D01*
X729267Y425516D01*
X729537Y425637D01*
X729815Y425745D01*
X730104Y425838D01*
X730758Y426000D01*
X731545Y426140D01*
X731790Y426171D01*
X732467Y426259D01*
X733522Y426356D01*
X734711Y426431D01*
X736033Y426485D01*
X737490Y426518D01*
X739080Y426528D01*
X740703Y426511D01*
X742256Y426459D01*
X743741Y426373D01*
X744038Y426348D01*
X745156Y426252D01*
X745419Y426223D01*
X746399Y426114D01*
X747365Y425976D01*
X747367Y425976D01*
X747463Y425957D01*
X748056Y425838D01*
X748298Y425769D01*
X748470Y425700D01*
X748740Y425556D01*
X748997Y425400D01*
X749241Y425232D01*
X749471Y425052D01*
X749689Y424861D01*
X749894Y424658D01*
X750086Y424442D01*
X750106Y424418D01*
X750265Y424215D01*
X750432Y423976D01*
X750585Y423725D01*
X750725Y423463D01*
X750852Y423188D01*
X750967Y422902D01*
X751068Y422603D01*
X751157Y422293D01*
X751232Y421971D01*
X751362Y421214D01*
X751474Y420254D01*
X751514Y419756D01*
X751569Y419091D01*
X751646Y417725D01*
X751707Y416156D01*
X751750Y414385D01*
X751776Y412411D01*
X751779Y411646D01*
X751782Y410741D01*
X751784Y410233D01*
X751778Y408787D01*
X751759Y407416D01*
X751726Y406120D01*
X751681Y404900D01*
X751623Y403755D01*
X751551Y402686D01*
X751467Y401692D01*
X751370Y400774D01*
X751260Y399932D01*
X751137Y399165D01*
X751001Y398473D01*
X750852Y397857D01*
X750690Y397316D01*
X750516Y396851D01*
X750328Y396462D01*
X750127Y396148D01*
X749889Y395881D01*
X749588Y395630D01*
X749224Y395397D01*
X748798Y395181D01*
X748309Y394983D01*
X747758Y394802D01*
X747144Y394638D01*
X746468Y394491D01*
X745729Y394362D01*
X744927Y394249D01*
X744063Y394154D01*
X743136Y394077D01*
X743130Y394076D01*
X742431Y394034D01*
X742147Y394016D01*
X741095Y393973D01*
X739981Y393947D01*
X738804Y393939D01*
G37*
G36*
X674177Y355273D02*
X666996Y355273D01*
X665537Y355281D01*
X664200Y355307D01*
X662983Y355351D01*
X661887Y355411D01*
X660911Y355489D01*
X660057Y355584D01*
X659323Y355696D01*
X658710Y355825D01*
X658175Y355985D01*
X657675Y356188D01*
X657209Y356434D01*
X656777Y356723D01*
X656380Y357055D01*
X656018Y357431D01*
X655690Y357849D01*
X655396Y358311D01*
X655146Y358995D01*
X654947Y359666D01*
X654801Y360324D01*
X654706Y360969D01*
X654678Y361287D01*
X654663Y361601D01*
X654660Y361913D01*
X654671Y362221D01*
X654695Y362525D01*
X654732Y362827D01*
X654844Y363420D01*
X654920Y363709D01*
X655012Y363988D01*
X655119Y364257D01*
X655241Y364516D01*
X655378Y364766D01*
X655530Y365006D01*
X655697Y365236D01*
X655880Y365457D01*
X656077Y365668D01*
X656289Y365869D01*
X656517Y366061D01*
X656760Y366243D01*
X657018Y366415D01*
X657291Y366577D01*
X657882Y366873D01*
X658171Y367069D01*
X658486Y367244D01*
X658827Y367397D01*
X659194Y367528D01*
X659586Y367639D01*
X660005Y367727D01*
X660450Y367794D01*
X660920Y367839D01*
X662076Y367900D01*
X663613Y367943D01*
X665529Y367969D01*
X667824Y367977D01*
X675834Y367977D01*
X675005Y364663D01*
X674874Y364309D01*
X674755Y363938D01*
X674649Y363550D01*
X674556Y363144D01*
X674477Y362721D01*
X674410Y362281D01*
X674356Y361824D01*
X674315Y361349D01*
X674211Y359623D01*
X674194Y359144D01*
X674185Y358915D01*
X674177Y358311D01*
X674177Y355273D01*
G37*
G36*
X733004Y355273D02*
X725823Y355273D01*
X725823Y358587D01*
X725815Y359312D01*
X725789Y360106D01*
X725762Y360629D01*
X725745Y360969D01*
X725685Y361901D01*
X725644Y362372D01*
X725641Y362399D01*
X725590Y362816D01*
X725523Y363235D01*
X725443Y363627D01*
X725351Y363994D01*
X725245Y364335D01*
X725126Y364650D01*
X724995Y364939D01*
X724166Y367977D01*
X732452Y367977D01*
X734074Y367969D01*
X735628Y367943D01*
X737112Y367900D01*
X738528Y367839D01*
X739770Y367762D01*
X740737Y367667D01*
X741117Y367613D01*
X741428Y367554D01*
X741669Y367492D01*
X741842Y367425D01*
X742183Y367265D01*
X742515Y367062D01*
X742839Y366816D01*
X743154Y366527D01*
X743460Y366195D01*
X743600Y366018D01*
X743663Y365939D01*
X743758Y365820D01*
X744047Y365401D01*
X744327Y364939D01*
X744586Y364465D01*
X744811Y364007D01*
X745001Y363567D01*
X745156Y363144D01*
X745277Y362738D01*
X745363Y362350D01*
X745415Y361979D01*
X745432Y361625D01*
X745415Y361211D01*
X745363Y360797D01*
X745277Y360382D01*
X745156Y359968D01*
X745001Y359554D01*
X744811Y359139D01*
X744586Y358725D01*
X744327Y358311D01*
X744047Y357910D01*
X743758Y357534D01*
X743460Y357185D01*
X743154Y356861D01*
X742839Y356563D01*
X742515Y356291D01*
X742183Y356045D01*
X741842Y355825D01*
X741609Y355758D01*
X741324Y355696D01*
X740599Y355584D01*
X740073Y355530D01*
X739969Y355519D01*
X739667Y355489D01*
X738528Y355411D01*
X737250Y355351D01*
X735904Y355307D01*
X734488Y355281D01*
X733004Y355273D01*
G37*
G36*
X751784Y319369D02*
X725823Y319369D01*
X725823Y321855D01*
X725840Y322400D01*
X725892Y322933D01*
X725978Y323453D01*
X726099Y323960D01*
X726255Y324455D01*
X726445Y324936D01*
X726669Y325404D01*
X726928Y325859D01*
X727208Y326293D01*
X727498Y326696D01*
X727795Y327070D01*
X728102Y327413D01*
X728417Y327726D01*
X728740Y328008D01*
X729073Y328261D01*
X729414Y328483D01*
X729645Y328550D01*
X729925Y328612D01*
X730630Y328725D01*
X730704Y328732D01*
X730838Y328747D01*
X731530Y328820D01*
X732624Y328897D01*
X733912Y328958D01*
X735395Y329001D01*
X737071Y329027D01*
X738942Y329035D01*
X740813Y329027D01*
X742489Y329001D01*
X743971Y328958D01*
X745260Y328897D01*
X746354Y328820D01*
X747253Y328725D01*
X747959Y328612D01*
X748239Y328550D01*
X748470Y328483D01*
X748809Y328259D01*
X749135Y328000D01*
X749448Y327706D01*
X749748Y327378D01*
X750035Y327016D01*
X750309Y326619D01*
X750570Y326187D01*
X750818Y325721D01*
X751044Y325238D01*
X751241Y324754D01*
X751407Y324271D01*
X751543Y323788D01*
X751649Y323305D01*
X751724Y322821D01*
X751769Y322338D01*
X751784Y321855D01*
X751784Y319369D01*
G37*
G36*
X674177Y319369D02*
X648215Y319369D01*
X648215Y321855D01*
X648231Y322400D01*
X648276Y322933D01*
X648351Y323453D01*
X648457Y323960D01*
X648593Y324455D01*
X648647Y324612D01*
X648759Y324936D01*
X648956Y325404D01*
X649182Y325859D01*
X649435Y326293D01*
X649709Y326696D01*
X650004Y327070D01*
X650321Y327413D01*
X650660Y327726D01*
X651020Y328008D01*
X651402Y328261D01*
X651806Y328483D01*
X652004Y328550D01*
X652255Y328612D01*
X652607Y328673D01*
X652911Y328725D01*
X653774Y328820D01*
X654844Y328897D01*
X656121Y328958D01*
X657606Y329001D01*
X659297Y329027D01*
X661196Y329035D01*
X663095Y329027D01*
X664786Y329001D01*
X666271Y328958D01*
X667548Y328897D01*
X668619Y328820D01*
X669482Y328725D01*
X670138Y328612D01*
X670388Y328550D01*
X670586Y328483D01*
X670927Y328259D01*
X671260Y328000D01*
X671583Y327706D01*
X671898Y327378D01*
X672205Y327016D01*
X672502Y326619D01*
X672791Y326187D01*
X673072Y325721D01*
X673331Y325238D01*
X673555Y324754D01*
X673745Y324271D01*
X673901Y323788D01*
X674021Y323305D01*
X674108Y322821D01*
X674159Y322338D01*
X674177Y321855D01*
X674177Y319369D01*
G37*
G36*
X738804Y296722D02*
X737190Y296739D01*
X735662Y296791D01*
X734221Y296877D01*
X732866Y296998D01*
X731666Y297136D01*
X730691Y297274D01*
X729940Y297412D01*
X729414Y297550D01*
X729073Y297773D01*
X728740Y298025D01*
X728417Y298308D01*
X728102Y298621D01*
X727795Y298964D01*
X727498Y299337D01*
X727208Y299740D01*
X726928Y300174D01*
X726669Y300629D01*
X726445Y301098D01*
X726255Y301579D01*
X726099Y302073D01*
X725978Y302580D01*
X725892Y303100D01*
X725840Y303633D01*
X725823Y304179D01*
X725823Y306388D01*
X751784Y306388D01*
X751784Y304179D01*
X751769Y303633D01*
X751724Y303100D01*
X751649Y302580D01*
X751543Y302073D01*
X751407Y301579D01*
X751241Y301098D01*
X751044Y300629D01*
X750818Y300174D01*
X750570Y299740D01*
X750309Y299337D01*
X750035Y298964D01*
X749939Y298850D01*
X749748Y298621D01*
X749448Y298308D01*
X749135Y298025D01*
X748809Y297773D01*
X748470Y297550D01*
X747944Y297412D01*
X747193Y297274D01*
X746218Y297136D01*
X745018Y296998D01*
X743646Y296877D01*
X742153Y296791D01*
X740539Y296739D01*
X738804Y296722D01*
G37*
G36*
X661196Y233752D02*
X660887Y233760D01*
X660581Y233784D01*
X660279Y233825D01*
X659979Y233881D01*
X659683Y233954D01*
X659390Y234043D01*
X659100Y234148D01*
X658814Y234270D01*
X658531Y234407D01*
X658251Y234561D01*
X657701Y234917D01*
X657163Y235338D01*
X656639Y235823D01*
X656154Y236348D01*
X655733Y236885D01*
X655377Y237435D01*
X655223Y237715D01*
X655085Y237998D01*
X654964Y238285D01*
X654859Y238574D01*
X654770Y238867D01*
X654697Y239163D01*
X654640Y239463D01*
X654600Y239765D01*
X654576Y240071D01*
X654568Y240380D01*
X654580Y240789D01*
X654617Y241187D01*
X654679Y241575D01*
X654766Y241951D01*
X654878Y242317D01*
X655014Y242672D01*
X655176Y243016D01*
X655362Y243349D01*
X655573Y243672D01*
X655808Y243984D01*
X656069Y244285D01*
X656354Y244575D01*
X656664Y244854D01*
X656999Y245123D01*
X657359Y245381D01*
X657744Y245628D01*
X658140Y245856D01*
X658536Y246059D01*
X658930Y246236D01*
X659323Y246387D01*
X659715Y246512D01*
X660106Y246612D01*
X660496Y246685D01*
X660885Y246732D01*
X661273Y246754D01*
X661660Y246750D01*
X662046Y246720D01*
X662430Y246663D01*
X662814Y246581D01*
X663196Y246474D01*
X663578Y246340D01*
X663958Y246180D01*
X664299Y245958D01*
X664631Y245705D01*
X664955Y245423D01*
X665270Y245110D01*
X665576Y244767D01*
X665874Y244394D01*
X666163Y243990D01*
X666444Y243556D01*
X666702Y243114D01*
X666927Y242685D01*
X667117Y242268D01*
X667272Y241865D01*
X667393Y241474D01*
X667479Y241097D01*
X667531Y240732D01*
X667548Y240380D01*
X667541Y240071D01*
X667518Y239765D01*
X667480Y239463D01*
X667427Y239163D01*
X667360Y238867D01*
X667276Y238574D01*
X667178Y238285D01*
X667065Y237998D01*
X666793Y237435D01*
X666461Y236885D01*
X666068Y236348D01*
X665615Y235823D01*
X665123Y235338D01*
X664614Y234917D01*
X664087Y234561D01*
X663818Y234407D01*
X663544Y234270D01*
X663265Y234148D01*
X662983Y234043D01*
X662696Y233954D01*
X662404Y233881D01*
X662109Y233825D01*
X661809Y233784D01*
X661505Y233760D01*
X661196Y233752D01*
G37*
G36*
X738804Y233752D02*
X738495Y233760D01*
X738191Y233784D01*
X737891Y233825D01*
X737595Y233881D01*
X737304Y233954D01*
X737017Y234043D01*
X736735Y234148D01*
X736456Y234270D01*
X736182Y234407D01*
X735912Y234561D01*
X735386Y234917D01*
X734877Y235338D01*
X734385Y235823D01*
X733932Y236348D01*
X733539Y236885D01*
X733207Y237435D01*
X732935Y237998D01*
X732822Y238285D01*
X732723Y238574D01*
X732640Y238867D01*
X732572Y239163D01*
X732520Y239463D01*
X732482Y239765D01*
X732459Y240071D01*
X732452Y240380D01*
X732464Y240789D01*
X732501Y241187D01*
X732563Y241575D01*
X732650Y241951D01*
X732762Y242317D01*
X732898Y242672D01*
X733059Y243016D01*
X733246Y243349D01*
X733457Y243672D01*
X733692Y243984D01*
X733953Y244285D01*
X734238Y244575D01*
X734548Y244854D01*
X734883Y245123D01*
X735243Y245381D01*
X735628Y245628D01*
X736024Y245856D01*
X736420Y246059D01*
X736814Y246236D01*
X737207Y246387D01*
X737599Y246512D01*
X737990Y246612D01*
X738380Y246685D01*
X738769Y246732D01*
X739157Y246754D01*
X739544Y246750D01*
X739930Y246720D01*
X740314Y246663D01*
X740698Y246581D01*
X741080Y246474D01*
X741462Y246340D01*
X741842Y246180D01*
X742183Y245958D01*
X742515Y245705D01*
X742839Y245423D01*
X743154Y245110D01*
X743460Y244767D01*
X743758Y244394D01*
X744047Y243990D01*
X744327Y243556D01*
X744586Y243114D01*
X744811Y242685D01*
X745001Y242268D01*
X745156Y241865D01*
X745277Y241474D01*
X745363Y241097D01*
X745415Y240732D01*
X745432Y240380D01*
X745424Y240071D01*
X745400Y239765D01*
X745359Y239463D01*
X745303Y239163D01*
X745230Y238867D01*
X745141Y238574D01*
X745036Y238285D01*
X744914Y237998D01*
X744777Y237715D01*
X744623Y237435D01*
X744267Y236885D01*
X743846Y236348D01*
X743361Y235823D01*
X742837Y235338D01*
X742299Y234917D01*
X741749Y234561D01*
X741469Y234407D01*
X741186Y234270D01*
X740899Y234148D01*
X740610Y234043D01*
X740317Y233954D01*
X740021Y233881D01*
X739721Y233825D01*
X739419Y233784D01*
X739113Y233760D01*
X738804Y233752D01*
G37*
D10*
X837075Y-278316D02*
X837075Y-295193D01*
X837073Y-295352D01*
X837067Y-295511D01*
X837057Y-295671D01*
X837044Y-295829D01*
X837026Y-295988D01*
X837005Y-296145D01*
X836979Y-296303D01*
X836950Y-296459D01*
X836917Y-296615D01*
X836880Y-296770D01*
X836840Y-296924D01*
X836795Y-297077D01*
X836747Y-297229D01*
X836696Y-297380D01*
X836640Y-297529D01*
X836581Y-297677D01*
X836518Y-297823D01*
X836452Y-297968D01*
X836382Y-298111D01*
X836309Y-298253D01*
X836232Y-298392D01*
X836152Y-298530D01*
X836068Y-298666D01*
X835981Y-298799D01*
X835891Y-298931D01*
X835798Y-299060D01*
X835701Y-299186D01*
X835602Y-299311D01*
X835499Y-299433D01*
X835394Y-299552D01*
X835285Y-299669D01*
X835174Y-299783D01*
X835060Y-299894D01*
X834943Y-300003D01*
X834824Y-300108D01*
X834702Y-300211D01*
X834577Y-300310D01*
X834451Y-300407D01*
X834322Y-300500D01*
X834190Y-300590D01*
X834057Y-300677D01*
X833921Y-300761D01*
X833783Y-300841D01*
X833644Y-300918D01*
X833502Y-300991D01*
X833359Y-301061D01*
X833214Y-301127D01*
X833068Y-301190D01*
X832920Y-301249D01*
X832771Y-301305D01*
X832620Y-301356D01*
X832468Y-301404D01*
X832315Y-301449D01*
X832161Y-301489D01*
X832006Y-301526D01*
X831850Y-301559D01*
X831694Y-301588D01*
X831536Y-301614D01*
X831379Y-301635D01*
X831220Y-301653D01*
X831062Y-301666D01*
X830902Y-301676D01*
X830743Y-301682D01*
X830584Y-301684D01*
X830425Y-301682D01*
X830266Y-301676D01*
X830106Y-301666D01*
X829948Y-301653D01*
X829789Y-301635D01*
X829632Y-301614D01*
X829474Y-301588D01*
X829318Y-301559D01*
X829162Y-301526D01*
X829007Y-301489D01*
X828853Y-301449D01*
X828700Y-301404D01*
X828548Y-301356D01*
X828397Y-301305D01*
X828248Y-301249D01*
X828100Y-301190D01*
X827954Y-301127D01*
X827809Y-301061D01*
X827666Y-300991D01*
X827524Y-300918D01*
X827385Y-300841D01*
X827247Y-300761D01*
X827111Y-300677D01*
X826978Y-300590D01*
X826846Y-300500D01*
X826717Y-300407D01*
X826591Y-300310D01*
X826466Y-300211D01*
X826344Y-300108D01*
X826225Y-300003D01*
X826108Y-299894D01*
X825994Y-299783D01*
X825883Y-299669D01*
X825774Y-299552D01*
X825669Y-299433D01*
X825566Y-299311D01*
X825467Y-299186D01*
X825370Y-299060D01*
X825277Y-298931D01*
X825187Y-298799D01*
X825100Y-298666D01*
X825016Y-298530D01*
X824936Y-298392D01*
X824859Y-298253D01*
X824786Y-298111D01*
X824716Y-297968D01*
X824650Y-297823D01*
X824587Y-297677D01*
X824528Y-297529D01*
X824472Y-297380D01*
X824421Y-297229D01*
X824373Y-297077D01*
X824328Y-296924D01*
X824288Y-296770D01*
X824251Y-296615D01*
X824218Y-296459D01*
X824189Y-296303D01*
X824163Y-296145D01*
X824142Y-295988D01*
X824124Y-295829D01*
X824111Y-295671D01*
X824101Y-295511D01*
X824095Y-295352D01*
X824093Y-295193D01*
X824092Y-295193D02*
X824092Y-278316D01*
X813185Y-278316D02*
X813185Y-301684D01*
X815781Y-301684D02*
X810588Y-301684D01*
X810588Y-278316D02*
X815781Y-278316D01*
X802129Y-278316D02*
X802129Y-301684D01*
X802129Y-278316D02*
X795638Y-278316D01*
X795479Y-278318D01*
X795320Y-278324D01*
X795160Y-278334D01*
X795002Y-278347D01*
X794843Y-278365D01*
X794686Y-278386D01*
X794528Y-278412D01*
X794372Y-278441D01*
X794216Y-278474D01*
X794061Y-278511D01*
X793907Y-278551D01*
X793754Y-278596D01*
X793602Y-278644D01*
X793451Y-278695D01*
X793302Y-278751D01*
X793154Y-278810D01*
X793008Y-278873D01*
X792863Y-278939D01*
X792720Y-279009D01*
X792578Y-279082D01*
X792439Y-279159D01*
X792301Y-279239D01*
X792165Y-279323D01*
X792032Y-279410D01*
X791900Y-279500D01*
X791771Y-279593D01*
X791645Y-279690D01*
X791520Y-279789D01*
X791398Y-279892D01*
X791279Y-279997D01*
X791162Y-280106D01*
X791048Y-280217D01*
X790937Y-280331D01*
X790828Y-280448D01*
X790723Y-280567D01*
X790620Y-280689D01*
X790521Y-280814D01*
X790424Y-280940D01*
X790331Y-281069D01*
X790241Y-281201D01*
X790154Y-281334D01*
X790070Y-281470D01*
X789990Y-281608D01*
X789913Y-281747D01*
X789840Y-281889D01*
X789770Y-282032D01*
X789704Y-282177D01*
X789641Y-282323D01*
X789582Y-282471D01*
X789526Y-282620D01*
X789475Y-282771D01*
X789427Y-282923D01*
X789382Y-283076D01*
X789342Y-283230D01*
X789305Y-283385D01*
X789272Y-283541D01*
X789243Y-283697D01*
X789217Y-283855D01*
X789196Y-284012D01*
X789178Y-284171D01*
X789165Y-284329D01*
X789155Y-284489D01*
X789149Y-284648D01*
X789147Y-284807D01*
X789149Y-284966D01*
X789155Y-285125D01*
X789165Y-285285D01*
X789178Y-285443D01*
X789196Y-285602D01*
X789217Y-285759D01*
X789243Y-285917D01*
X789272Y-286073D01*
X789305Y-286229D01*
X789342Y-286384D01*
X789382Y-286538D01*
X789427Y-286691D01*
X789475Y-286843D01*
X789526Y-286994D01*
X789582Y-287143D01*
X789641Y-287291D01*
X789704Y-287437D01*
X789770Y-287582D01*
X789840Y-287725D01*
X789913Y-287867D01*
X789990Y-288006D01*
X790070Y-288144D01*
X790154Y-288280D01*
X790241Y-288413D01*
X790331Y-288545D01*
X790424Y-288674D01*
X790521Y-288800D01*
X790620Y-288925D01*
X790723Y-289047D01*
X790828Y-289166D01*
X790937Y-289283D01*
X791048Y-289397D01*
X791162Y-289508D01*
X791279Y-289617D01*
X791398Y-289722D01*
X791520Y-289825D01*
X791645Y-289924D01*
X791771Y-290021D01*
X791900Y-290114D01*
X792032Y-290204D01*
X792165Y-290291D01*
X792301Y-290375D01*
X792439Y-290455D01*
X792578Y-290532D01*
X792720Y-290605D01*
X792863Y-290675D01*
X793008Y-290741D01*
X793154Y-290804D01*
X793302Y-290863D01*
X793451Y-290919D01*
X793602Y-290970D01*
X793754Y-291018D01*
X793907Y-291063D01*
X794061Y-291103D01*
X794216Y-291140D01*
X794372Y-291173D01*
X794528Y-291202D01*
X794686Y-291228D01*
X794843Y-291249D01*
X795002Y-291267D01*
X795160Y-291280D01*
X795320Y-291290D01*
X795479Y-291296D01*
X795638Y-291298D01*
X802129Y-291298D01*
X777695Y-292596D02*
X771853Y-292596D01*
X777695Y-292596D02*
X777828Y-292598D01*
X777962Y-292604D01*
X778095Y-292614D01*
X778227Y-292627D01*
X778360Y-292645D01*
X778491Y-292666D01*
X778622Y-292692D01*
X778753Y-292721D01*
X778882Y-292754D01*
X779010Y-292790D01*
X779137Y-292831D01*
X779263Y-292875D01*
X779388Y-292923D01*
X779511Y-292975D01*
X779632Y-293030D01*
X779752Y-293088D01*
X779870Y-293150D01*
X779986Y-293216D01*
X780100Y-293285D01*
X780213Y-293357D01*
X780323Y-293433D01*
X780430Y-293511D01*
X780536Y-293593D01*
X780638Y-293678D01*
X780739Y-293766D01*
X780837Y-293857D01*
X780932Y-293951D01*
X781024Y-294047D01*
X781113Y-294146D01*
X781200Y-294248D01*
X781283Y-294352D01*
X781363Y-294458D01*
X781440Y-294567D01*
X781514Y-294678D01*
X781585Y-294791D01*
X781652Y-294907D01*
X781716Y-295024D01*
X781777Y-295143D01*
X781833Y-295263D01*
X781887Y-295386D01*
X781936Y-295510D01*
X781982Y-295635D01*
X782025Y-295761D01*
X782063Y-295889D01*
X782098Y-296018D01*
X782129Y-296147D01*
X782157Y-296278D01*
X782180Y-296409D01*
X782199Y-296541D01*
X782215Y-296674D01*
X782227Y-296807D01*
X782235Y-296940D01*
X782239Y-297073D01*
X782239Y-297207D01*
X782235Y-297340D01*
X782227Y-297473D01*
X782215Y-297606D01*
X782199Y-297739D01*
X782180Y-297871D01*
X782157Y-298002D01*
X782129Y-298133D01*
X782098Y-298262D01*
X782063Y-298391D01*
X782025Y-298519D01*
X781982Y-298645D01*
X781936Y-298770D01*
X781887Y-298894D01*
X781833Y-299017D01*
X781777Y-299137D01*
X781716Y-299256D01*
X781652Y-299373D01*
X781585Y-299489D01*
X781514Y-299602D01*
X781440Y-299713D01*
X781363Y-299822D01*
X781283Y-299928D01*
X781200Y-300032D01*
X781113Y-300134D01*
X781024Y-300233D01*
X780932Y-300329D01*
X780837Y-300423D01*
X780739Y-300514D01*
X780638Y-300602D01*
X780536Y-300687D01*
X780430Y-300769D01*
X780323Y-300847D01*
X780213Y-300923D01*
X780100Y-300995D01*
X779986Y-301064D01*
X779870Y-301130D01*
X779752Y-301192D01*
X779632Y-301250D01*
X779511Y-301305D01*
X779388Y-301357D01*
X779263Y-301405D01*
X779137Y-301449D01*
X779010Y-301490D01*
X778882Y-301526D01*
X778753Y-301559D01*
X778622Y-301588D01*
X778491Y-301614D01*
X778360Y-301635D01*
X778227Y-301653D01*
X778095Y-301666D01*
X777962Y-301676D01*
X777828Y-301682D01*
X777695Y-301684D01*
X771853Y-301684D01*
X771853Y-290000D01*
X771855Y-289878D01*
X771861Y-289755D01*
X771870Y-289633D01*
X771884Y-289512D01*
X771901Y-289391D01*
X771922Y-289270D01*
X771947Y-289150D01*
X771975Y-289031D01*
X772008Y-288913D01*
X772044Y-288796D01*
X772083Y-288681D01*
X772127Y-288566D01*
X772173Y-288453D01*
X772224Y-288342D01*
X772278Y-288232D01*
X772335Y-288124D01*
X772395Y-288017D01*
X772459Y-287913D01*
X772527Y-287811D01*
X772597Y-287711D01*
X772670Y-287613D01*
X772747Y-287517D01*
X772826Y-287424D01*
X772909Y-287334D01*
X772994Y-287246D01*
X773082Y-287161D01*
X773172Y-287078D01*
X773265Y-286999D01*
X773361Y-286922D01*
X773459Y-286849D01*
X773559Y-286779D01*
X773661Y-286711D01*
X773765Y-286647D01*
X773872Y-286587D01*
X773980Y-286530D01*
X774090Y-286476D01*
X774201Y-286425D01*
X774314Y-286379D01*
X774429Y-286335D01*
X774544Y-286296D01*
X774661Y-286260D01*
X774779Y-286227D01*
X774898Y-286199D01*
X775018Y-286174D01*
X775139Y-286153D01*
X775260Y-286136D01*
X775381Y-286122D01*
X775503Y-286113D01*
X775626Y-286107D01*
X775748Y-286105D01*
X780940Y-286105D01*
X762701Y-286105D02*
X762701Y-301684D01*
X762701Y-286105D02*
X756210Y-286105D01*
X756088Y-286107D01*
X755965Y-286113D01*
X755843Y-286122D01*
X755722Y-286136D01*
X755601Y-286153D01*
X755480Y-286174D01*
X755360Y-286199D01*
X755241Y-286227D01*
X755123Y-286260D01*
X755006Y-286296D01*
X754891Y-286335D01*
X754776Y-286379D01*
X754663Y-286425D01*
X754552Y-286476D01*
X754442Y-286530D01*
X754334Y-286587D01*
X754227Y-286647D01*
X754123Y-286711D01*
X754021Y-286779D01*
X753921Y-286849D01*
X753823Y-286922D01*
X753727Y-286999D01*
X753634Y-287078D01*
X753544Y-287161D01*
X753456Y-287246D01*
X753371Y-287334D01*
X753288Y-287424D01*
X753209Y-287517D01*
X753132Y-287613D01*
X753059Y-287711D01*
X752989Y-287811D01*
X752921Y-287913D01*
X752857Y-288017D01*
X752797Y-288124D01*
X752740Y-288232D01*
X752686Y-288342D01*
X752635Y-288453D01*
X752589Y-288566D01*
X752545Y-288681D01*
X752506Y-288796D01*
X752470Y-288913D01*
X752437Y-289031D01*
X752409Y-289150D01*
X752384Y-289270D01*
X752363Y-289391D01*
X752346Y-289512D01*
X752332Y-289633D01*
X752323Y-289755D01*
X752317Y-289878D01*
X752315Y-290000D01*
X752315Y-301684D01*
X740015Y-301684D02*
X733524Y-301684D01*
X740015Y-301684D02*
X740137Y-301682D01*
X740260Y-301676D01*
X740382Y-301667D01*
X740503Y-301653D01*
X740624Y-301636D01*
X740745Y-301615D01*
X740865Y-301590D01*
X740984Y-301562D01*
X741102Y-301529D01*
X741219Y-301493D01*
X741334Y-301454D01*
X741449Y-301410D01*
X741562Y-301364D01*
X741673Y-301313D01*
X741783Y-301259D01*
X741891Y-301202D01*
X741998Y-301142D01*
X742102Y-301078D01*
X742204Y-301010D01*
X742304Y-300940D01*
X742402Y-300867D01*
X742498Y-300790D01*
X742591Y-300711D01*
X742681Y-300628D01*
X742769Y-300543D01*
X742854Y-300455D01*
X742937Y-300365D01*
X743016Y-300272D01*
X743093Y-300176D01*
X743166Y-300078D01*
X743236Y-299978D01*
X743304Y-299876D01*
X743368Y-299772D01*
X743428Y-299665D01*
X743485Y-299557D01*
X743539Y-299447D01*
X743590Y-299336D01*
X743636Y-299223D01*
X743680Y-299108D01*
X743719Y-298993D01*
X743755Y-298876D01*
X743788Y-298758D01*
X743816Y-298639D01*
X743841Y-298519D01*
X743862Y-298398D01*
X743879Y-298277D01*
X743893Y-298156D01*
X743902Y-298034D01*
X743908Y-297911D01*
X743910Y-297789D01*
X743910Y-291298D01*
X743908Y-291155D01*
X743902Y-291012D01*
X743892Y-290869D01*
X743878Y-290727D01*
X743861Y-290585D01*
X743839Y-290443D01*
X743814Y-290302D01*
X743784Y-290162D01*
X743751Y-290023D01*
X743714Y-289885D01*
X743673Y-289748D01*
X743629Y-289612D01*
X743580Y-289477D01*
X743528Y-289344D01*
X743473Y-289212D01*
X743413Y-289082D01*
X743350Y-288953D01*
X743284Y-288826D01*
X743214Y-288702D01*
X743141Y-288579D01*
X743064Y-288458D01*
X742984Y-288339D01*
X742901Y-288223D01*
X742815Y-288108D01*
X742726Y-287997D01*
X742633Y-287887D01*
X742538Y-287781D01*
X742439Y-287677D01*
X742338Y-287576D01*
X742234Y-287477D01*
X742128Y-287382D01*
X742018Y-287289D01*
X741907Y-287200D01*
X741792Y-287114D01*
X741676Y-287031D01*
X741557Y-286951D01*
X741436Y-286874D01*
X741314Y-286801D01*
X741189Y-286731D01*
X741062Y-286665D01*
X740933Y-286602D01*
X740803Y-286542D01*
X740671Y-286487D01*
X740538Y-286435D01*
X740403Y-286386D01*
X740267Y-286342D01*
X740130Y-286301D01*
X739992Y-286264D01*
X739853Y-286231D01*
X739713Y-286201D01*
X739572Y-286176D01*
X739430Y-286154D01*
X739288Y-286137D01*
X739146Y-286123D01*
X739003Y-286113D01*
X738860Y-286107D01*
X738717Y-286105D01*
X738574Y-286107D01*
X738431Y-286113D01*
X738288Y-286123D01*
X738146Y-286137D01*
X738004Y-286154D01*
X737862Y-286176D01*
X737721Y-286201D01*
X737581Y-286231D01*
X737442Y-286264D01*
X737304Y-286301D01*
X737167Y-286342D01*
X737031Y-286386D01*
X736896Y-286435D01*
X736763Y-286487D01*
X736631Y-286542D01*
X736501Y-286602D01*
X736372Y-286665D01*
X736245Y-286731D01*
X736121Y-286801D01*
X735998Y-286874D01*
X735877Y-286951D01*
X735758Y-287031D01*
X735642Y-287114D01*
X735527Y-287200D01*
X735416Y-287289D01*
X735306Y-287382D01*
X735200Y-287477D01*
X735096Y-287576D01*
X734995Y-287677D01*
X734896Y-287781D01*
X734801Y-287887D01*
X734708Y-287997D01*
X734619Y-288108D01*
X734533Y-288223D01*
X734450Y-288339D01*
X734370Y-288458D01*
X734293Y-288579D01*
X734220Y-288702D01*
X734150Y-288826D01*
X734084Y-288953D01*
X734021Y-289082D01*
X733961Y-289212D01*
X733906Y-289344D01*
X733854Y-289477D01*
X733805Y-289612D01*
X733761Y-289748D01*
X733720Y-289885D01*
X733683Y-290023D01*
X733650Y-290162D01*
X733620Y-290302D01*
X733595Y-290443D01*
X733573Y-290585D01*
X733556Y-290727D01*
X733542Y-290869D01*
X733532Y-291012D01*
X733526Y-291155D01*
X733524Y-291298D01*
X733524Y-293895D01*
X743910Y-293895D01*
X725309Y-297789D02*
X725309Y-278316D01*
X725309Y-297789D02*
X725307Y-297911D01*
X725301Y-298034D01*
X725292Y-298156D01*
X725278Y-298277D01*
X725261Y-298398D01*
X725240Y-298519D01*
X725215Y-298639D01*
X725187Y-298758D01*
X725154Y-298876D01*
X725118Y-298993D01*
X725079Y-299108D01*
X725035Y-299223D01*
X724989Y-299336D01*
X724938Y-299447D01*
X724884Y-299557D01*
X724827Y-299665D01*
X724767Y-299772D01*
X724703Y-299876D01*
X724635Y-299978D01*
X724565Y-300078D01*
X724492Y-300176D01*
X724415Y-300272D01*
X724336Y-300365D01*
X724253Y-300455D01*
X724168Y-300543D01*
X724080Y-300628D01*
X723990Y-300711D01*
X723897Y-300790D01*
X723801Y-300867D01*
X723703Y-300940D01*
X723603Y-301010D01*
X723501Y-301078D01*
X723397Y-301142D01*
X723290Y-301202D01*
X723182Y-301259D01*
X723072Y-301313D01*
X722961Y-301364D01*
X722848Y-301410D01*
X722733Y-301454D01*
X722618Y-301493D01*
X722501Y-301529D01*
X722383Y-301562D01*
X722264Y-301590D01*
X722144Y-301615D01*
X722023Y-301636D01*
X721902Y-301653D01*
X721781Y-301667D01*
X721659Y-301676D01*
X721536Y-301682D01*
X721414Y-301684D01*
X715376Y-304280D02*
X704990Y-304280D01*
X696029Y-292596D02*
X689538Y-295193D01*
X696029Y-292596D02*
X696135Y-292552D01*
X696240Y-292503D01*
X696343Y-292451D01*
X696444Y-292396D01*
X696544Y-292337D01*
X696641Y-292275D01*
X696736Y-292210D01*
X696828Y-292141D01*
X696919Y-292069D01*
X697006Y-291995D01*
X697092Y-291917D01*
X697174Y-291836D01*
X697254Y-291753D01*
X697330Y-291667D01*
X697404Y-291578D01*
X697475Y-291487D01*
X697542Y-291393D01*
X697606Y-291297D01*
X697667Y-291199D01*
X697725Y-291100D01*
X697779Y-290998D01*
X697829Y-290894D01*
X697876Y-290789D01*
X697920Y-290682D01*
X697959Y-290573D01*
X697995Y-290464D01*
X698027Y-290353D01*
X698056Y-290241D01*
X698080Y-290129D01*
X698101Y-290015D01*
X698117Y-289901D01*
X698130Y-289786D01*
X698139Y-289671D01*
X698144Y-289556D01*
X698145Y-289441D01*
X698142Y-289326D01*
X698135Y-289210D01*
X698124Y-289096D01*
X698109Y-288981D01*
X698090Y-288868D01*
X698068Y-288754D01*
X698041Y-288642D01*
X698011Y-288531D01*
X697977Y-288421D01*
X697939Y-288312D01*
X697898Y-288204D01*
X697852Y-288098D01*
X697803Y-287994D01*
X697751Y-287891D01*
X697695Y-287790D01*
X697636Y-287691D01*
X697573Y-287594D01*
X697507Y-287500D01*
X697438Y-287407D01*
X697366Y-287317D01*
X697291Y-287230D01*
X697212Y-287145D01*
X697131Y-287063D01*
X697047Y-286984D01*
X696961Y-286908D01*
X696872Y-286835D01*
X696780Y-286765D01*
X696686Y-286698D01*
X696590Y-286634D01*
X696492Y-286574D01*
X696392Y-286517D01*
X696290Y-286463D01*
X696186Y-286413D01*
X696080Y-286367D01*
X695973Y-286324D01*
X695864Y-286285D01*
X695755Y-286250D01*
X695644Y-286218D01*
X695532Y-286190D01*
X695419Y-286166D01*
X695305Y-286146D01*
X695191Y-286130D01*
X695077Y-286118D01*
X694962Y-286110D01*
X694846Y-286106D01*
X694731Y-286105D01*
X694732Y-286106D02*
X694377Y-286115D01*
X694023Y-286133D01*
X693670Y-286159D01*
X693317Y-286194D01*
X692965Y-286237D01*
X692614Y-286289D01*
X692265Y-286349D01*
X691917Y-286418D01*
X691571Y-286495D01*
X691227Y-286580D01*
X690885Y-286673D01*
X690546Y-286775D01*
X690209Y-286885D01*
X689874Y-287002D01*
X689543Y-287128D01*
X689215Y-287262D01*
X688890Y-287404D01*
X689538Y-295193D02*
X689432Y-295237D01*
X689327Y-295286D01*
X689224Y-295338D01*
X689123Y-295393D01*
X689023Y-295452D01*
X688926Y-295514D01*
X688831Y-295579D01*
X688739Y-295648D01*
X688648Y-295720D01*
X688561Y-295794D01*
X688475Y-295872D01*
X688393Y-295953D01*
X688313Y-296036D01*
X688237Y-296122D01*
X688163Y-296211D01*
X688092Y-296302D01*
X688025Y-296396D01*
X687961Y-296492D01*
X687900Y-296590D01*
X687842Y-296689D01*
X687788Y-296791D01*
X687738Y-296895D01*
X687691Y-297000D01*
X687647Y-297107D01*
X687608Y-297216D01*
X687572Y-297325D01*
X687540Y-297436D01*
X687511Y-297548D01*
X687487Y-297660D01*
X687466Y-297774D01*
X687450Y-297888D01*
X687437Y-298003D01*
X687428Y-298118D01*
X687423Y-298233D01*
X687422Y-298348D01*
X687425Y-298463D01*
X687432Y-298579D01*
X687443Y-298693D01*
X687458Y-298808D01*
X687477Y-298921D01*
X687499Y-299035D01*
X687526Y-299147D01*
X687556Y-299258D01*
X687590Y-299368D01*
X687628Y-299477D01*
X687669Y-299585D01*
X687715Y-299691D01*
X687764Y-299795D01*
X687816Y-299898D01*
X687872Y-299999D01*
X687931Y-300098D01*
X687994Y-300195D01*
X688060Y-300289D01*
X688129Y-300382D01*
X688201Y-300472D01*
X688276Y-300559D01*
X688355Y-300644D01*
X688436Y-300726D01*
X688520Y-300805D01*
X688606Y-300881D01*
X688695Y-300954D01*
X688787Y-301024D01*
X688881Y-301091D01*
X688977Y-301155D01*
X689075Y-301215D01*
X689175Y-301272D01*
X689277Y-301326D01*
X689381Y-301376D01*
X689487Y-301422D01*
X689594Y-301465D01*
X689703Y-301504D01*
X689812Y-301539D01*
X689923Y-301571D01*
X690035Y-301599D01*
X690148Y-301623D01*
X690262Y-301643D01*
X690376Y-301659D01*
X690490Y-301671D01*
X690606Y-301679D01*
X690721Y-301683D01*
X690836Y-301684D01*
X690837Y-301684D02*
X691357Y-301670D01*
X691877Y-301644D01*
X692397Y-301606D01*
X692915Y-301556D01*
X693432Y-301493D01*
X693947Y-301418D01*
X694461Y-301331D01*
X694972Y-301232D01*
X695480Y-301120D01*
X695986Y-300997D01*
X696489Y-300862D01*
X696989Y-300715D01*
X697485Y-300556D01*
X697977Y-300386D01*
X675973Y-301684D02*
X670780Y-301684D01*
X675973Y-301684D02*
X676095Y-301682D01*
X676218Y-301676D01*
X676340Y-301667D01*
X676461Y-301653D01*
X676582Y-301636D01*
X676703Y-301615D01*
X676823Y-301590D01*
X676942Y-301562D01*
X677060Y-301529D01*
X677177Y-301493D01*
X677292Y-301454D01*
X677407Y-301410D01*
X677520Y-301364D01*
X677631Y-301313D01*
X677741Y-301259D01*
X677849Y-301202D01*
X677956Y-301142D01*
X678060Y-301078D01*
X678162Y-301010D01*
X678262Y-300940D01*
X678360Y-300867D01*
X678456Y-300790D01*
X678549Y-300711D01*
X678639Y-300628D01*
X678727Y-300543D01*
X678812Y-300455D01*
X678895Y-300365D01*
X678974Y-300272D01*
X679051Y-300176D01*
X679124Y-300078D01*
X679194Y-299978D01*
X679262Y-299876D01*
X679326Y-299772D01*
X679386Y-299665D01*
X679443Y-299557D01*
X679497Y-299447D01*
X679548Y-299336D01*
X679594Y-299223D01*
X679638Y-299108D01*
X679677Y-298993D01*
X679713Y-298876D01*
X679746Y-298758D01*
X679774Y-298639D01*
X679799Y-298519D01*
X679820Y-298398D01*
X679837Y-298277D01*
X679851Y-298156D01*
X679860Y-298034D01*
X679866Y-297911D01*
X679868Y-297789D01*
X679867Y-297789D02*
X679867Y-290000D01*
X679868Y-290000D02*
X679866Y-289878D01*
X679860Y-289755D01*
X679851Y-289633D01*
X679837Y-289512D01*
X679820Y-289391D01*
X679799Y-289270D01*
X679774Y-289150D01*
X679746Y-289031D01*
X679713Y-288913D01*
X679677Y-288796D01*
X679638Y-288681D01*
X679594Y-288566D01*
X679548Y-288453D01*
X679497Y-288342D01*
X679443Y-288232D01*
X679386Y-288124D01*
X679326Y-288017D01*
X679262Y-287913D01*
X679194Y-287811D01*
X679124Y-287711D01*
X679051Y-287613D01*
X678974Y-287517D01*
X678895Y-287424D01*
X678812Y-287334D01*
X678727Y-287246D01*
X678639Y-287161D01*
X678549Y-287078D01*
X678456Y-286999D01*
X678360Y-286922D01*
X678262Y-286849D01*
X678162Y-286779D01*
X678060Y-286711D01*
X677956Y-286647D01*
X677849Y-286587D01*
X677741Y-286530D01*
X677631Y-286476D01*
X677520Y-286425D01*
X677407Y-286379D01*
X677292Y-286335D01*
X677177Y-286296D01*
X677060Y-286260D01*
X676942Y-286227D01*
X676823Y-286199D01*
X676703Y-286174D01*
X676582Y-286153D01*
X676461Y-286136D01*
X676340Y-286122D01*
X676218Y-286113D01*
X676095Y-286107D01*
X675973Y-286105D01*
X670780Y-286105D01*
X663115Y-286105D02*
X663115Y-301684D01*
X663115Y-286105D02*
X655326Y-286105D01*
X655326Y-288702D01*
X645365Y-301684D02*
X638874Y-301684D01*
X645365Y-301684D02*
X645487Y-301682D01*
X645610Y-301676D01*
X645732Y-301667D01*
X645853Y-301653D01*
X645974Y-301636D01*
X646095Y-301615D01*
X646215Y-301590D01*
X646334Y-301562D01*
X646452Y-301529D01*
X646569Y-301493D01*
X646684Y-301454D01*
X646799Y-301410D01*
X646912Y-301364D01*
X647023Y-301313D01*
X647133Y-301259D01*
X647241Y-301202D01*
X647348Y-301142D01*
X647452Y-301078D01*
X647554Y-301010D01*
X647654Y-300940D01*
X647752Y-300867D01*
X647848Y-300790D01*
X647941Y-300711D01*
X648031Y-300628D01*
X648119Y-300543D01*
X648204Y-300455D01*
X648287Y-300365D01*
X648366Y-300272D01*
X648443Y-300176D01*
X648516Y-300078D01*
X648586Y-299978D01*
X648654Y-299876D01*
X648718Y-299772D01*
X648778Y-299665D01*
X648835Y-299557D01*
X648889Y-299447D01*
X648940Y-299336D01*
X648986Y-299223D01*
X649030Y-299108D01*
X649069Y-298993D01*
X649105Y-298876D01*
X649138Y-298758D01*
X649166Y-298639D01*
X649191Y-298519D01*
X649212Y-298398D01*
X649229Y-298277D01*
X649243Y-298156D01*
X649252Y-298034D01*
X649258Y-297911D01*
X649260Y-297789D01*
X649260Y-291298D01*
X649258Y-291155D01*
X649252Y-291012D01*
X649242Y-290869D01*
X649228Y-290727D01*
X649211Y-290585D01*
X649189Y-290443D01*
X649164Y-290302D01*
X649134Y-290162D01*
X649101Y-290023D01*
X649064Y-289885D01*
X649023Y-289748D01*
X648979Y-289612D01*
X648930Y-289477D01*
X648878Y-289344D01*
X648823Y-289212D01*
X648763Y-289082D01*
X648700Y-288953D01*
X648634Y-288826D01*
X648564Y-288702D01*
X648491Y-288579D01*
X648414Y-288458D01*
X648334Y-288339D01*
X648251Y-288223D01*
X648165Y-288108D01*
X648076Y-287997D01*
X647983Y-287887D01*
X647888Y-287781D01*
X647789Y-287677D01*
X647688Y-287576D01*
X647584Y-287477D01*
X647478Y-287382D01*
X647368Y-287289D01*
X647257Y-287200D01*
X647142Y-287114D01*
X647026Y-287031D01*
X646907Y-286951D01*
X646786Y-286874D01*
X646664Y-286801D01*
X646539Y-286731D01*
X646412Y-286665D01*
X646283Y-286602D01*
X646153Y-286542D01*
X646021Y-286487D01*
X645888Y-286435D01*
X645753Y-286386D01*
X645617Y-286342D01*
X645480Y-286301D01*
X645342Y-286264D01*
X645203Y-286231D01*
X645063Y-286201D01*
X644922Y-286176D01*
X644780Y-286154D01*
X644638Y-286137D01*
X644496Y-286123D01*
X644353Y-286113D01*
X644210Y-286107D01*
X644067Y-286105D01*
X643924Y-286107D01*
X643781Y-286113D01*
X643638Y-286123D01*
X643496Y-286137D01*
X643354Y-286154D01*
X643212Y-286176D01*
X643071Y-286201D01*
X642931Y-286231D01*
X642792Y-286264D01*
X642654Y-286301D01*
X642517Y-286342D01*
X642381Y-286386D01*
X642246Y-286435D01*
X642113Y-286487D01*
X641981Y-286542D01*
X641851Y-286602D01*
X641722Y-286665D01*
X641595Y-286731D01*
X641471Y-286801D01*
X641348Y-286874D01*
X641227Y-286951D01*
X641108Y-287031D01*
X640992Y-287114D01*
X640877Y-287200D01*
X640766Y-287289D01*
X640656Y-287382D01*
X640550Y-287477D01*
X640446Y-287576D01*
X640345Y-287677D01*
X640246Y-287781D01*
X640151Y-287887D01*
X640058Y-287997D01*
X639969Y-288108D01*
X639883Y-288223D01*
X639800Y-288339D01*
X639720Y-288458D01*
X639643Y-288579D01*
X639570Y-288702D01*
X639500Y-288826D01*
X639434Y-288953D01*
X639371Y-289082D01*
X639311Y-289212D01*
X639256Y-289344D01*
X639204Y-289477D01*
X639155Y-289612D01*
X639111Y-289748D01*
X639070Y-289885D01*
X639033Y-290023D01*
X639000Y-290162D01*
X638970Y-290302D01*
X638945Y-290443D01*
X638923Y-290585D01*
X638906Y-290727D01*
X638892Y-290869D01*
X638882Y-291012D01*
X638876Y-291155D01*
X638874Y-291298D01*
X638874Y-293895D01*
X649260Y-293895D01*
X627270Y-301684D02*
X620779Y-301684D01*
X627270Y-301684D02*
X627392Y-301682D01*
X627515Y-301676D01*
X627637Y-301667D01*
X627758Y-301653D01*
X627879Y-301636D01*
X628000Y-301615D01*
X628120Y-301590D01*
X628239Y-301562D01*
X628357Y-301529D01*
X628474Y-301493D01*
X628589Y-301454D01*
X628704Y-301410D01*
X628817Y-301364D01*
X628928Y-301313D01*
X629038Y-301259D01*
X629146Y-301202D01*
X629253Y-301142D01*
X629357Y-301078D01*
X629459Y-301010D01*
X629559Y-300940D01*
X629657Y-300867D01*
X629753Y-300790D01*
X629846Y-300711D01*
X629936Y-300628D01*
X630024Y-300543D01*
X630109Y-300455D01*
X630192Y-300365D01*
X630271Y-300272D01*
X630348Y-300176D01*
X630421Y-300078D01*
X630491Y-299978D01*
X630559Y-299876D01*
X630623Y-299772D01*
X630683Y-299665D01*
X630740Y-299557D01*
X630794Y-299447D01*
X630845Y-299336D01*
X630891Y-299223D01*
X630935Y-299108D01*
X630974Y-298993D01*
X631010Y-298876D01*
X631043Y-298758D01*
X631071Y-298639D01*
X631096Y-298519D01*
X631117Y-298398D01*
X631134Y-298277D01*
X631148Y-298156D01*
X631157Y-298034D01*
X631163Y-297911D01*
X631165Y-297789D01*
X631165Y-291298D01*
X631163Y-291155D01*
X631157Y-291012D01*
X631147Y-290869D01*
X631133Y-290727D01*
X631116Y-290585D01*
X631094Y-290443D01*
X631069Y-290302D01*
X631039Y-290162D01*
X631006Y-290023D01*
X630969Y-289885D01*
X630928Y-289748D01*
X630884Y-289612D01*
X630835Y-289477D01*
X630783Y-289344D01*
X630728Y-289212D01*
X630668Y-289082D01*
X630605Y-288953D01*
X630539Y-288826D01*
X630469Y-288702D01*
X630396Y-288579D01*
X630319Y-288458D01*
X630239Y-288339D01*
X630156Y-288223D01*
X630070Y-288108D01*
X629981Y-287997D01*
X629888Y-287887D01*
X629793Y-287781D01*
X629694Y-287677D01*
X629593Y-287576D01*
X629489Y-287477D01*
X629383Y-287382D01*
X629273Y-287289D01*
X629162Y-287200D01*
X629047Y-287114D01*
X628931Y-287031D01*
X628812Y-286951D01*
X628691Y-286874D01*
X628569Y-286801D01*
X628444Y-286731D01*
X628317Y-286665D01*
X628188Y-286602D01*
X628058Y-286542D01*
X627926Y-286487D01*
X627793Y-286435D01*
X627658Y-286386D01*
X627522Y-286342D01*
X627385Y-286301D01*
X627247Y-286264D01*
X627108Y-286231D01*
X626968Y-286201D01*
X626827Y-286176D01*
X626685Y-286154D01*
X626543Y-286137D01*
X626401Y-286123D01*
X626258Y-286113D01*
X626115Y-286107D01*
X625972Y-286105D01*
X625829Y-286107D01*
X625686Y-286113D01*
X625543Y-286123D01*
X625401Y-286137D01*
X625259Y-286154D01*
X625117Y-286176D01*
X624976Y-286201D01*
X624836Y-286231D01*
X624697Y-286264D01*
X624559Y-286301D01*
X624422Y-286342D01*
X624286Y-286386D01*
X624151Y-286435D01*
X624018Y-286487D01*
X623886Y-286542D01*
X623756Y-286602D01*
X623627Y-286665D01*
X623500Y-286731D01*
X623376Y-286801D01*
X623253Y-286874D01*
X623132Y-286951D01*
X623013Y-287031D01*
X622897Y-287114D01*
X622782Y-287200D01*
X622671Y-287289D01*
X622561Y-287382D01*
X622455Y-287477D01*
X622351Y-287576D01*
X622250Y-287677D01*
X622151Y-287781D01*
X622056Y-287887D01*
X621963Y-287997D01*
X621874Y-288108D01*
X621788Y-288223D01*
X621705Y-288339D01*
X621625Y-288458D01*
X621548Y-288579D01*
X621475Y-288702D01*
X621405Y-288826D01*
X621339Y-288953D01*
X621276Y-289082D01*
X621216Y-289212D01*
X621161Y-289344D01*
X621109Y-289477D01*
X621060Y-289612D01*
X621016Y-289748D01*
X620975Y-289885D01*
X620938Y-290023D01*
X620905Y-290162D01*
X620875Y-290302D01*
X620850Y-290443D01*
X620828Y-290585D01*
X620811Y-290727D01*
X620797Y-290869D01*
X620787Y-291012D01*
X620781Y-291155D01*
X620779Y-291298D01*
X620779Y-293895D01*
X631165Y-293895D01*
X612374Y-301684D02*
X612374Y-286105D01*
X605883Y-286105D01*
X605761Y-286107D01*
X605638Y-286113D01*
X605516Y-286122D01*
X605395Y-286136D01*
X605274Y-286153D01*
X605153Y-286174D01*
X605033Y-286199D01*
X604914Y-286227D01*
X604796Y-286260D01*
X604679Y-286296D01*
X604564Y-286335D01*
X604449Y-286379D01*
X604336Y-286425D01*
X604225Y-286476D01*
X604115Y-286530D01*
X604007Y-286587D01*
X603900Y-286647D01*
X603796Y-286711D01*
X603694Y-286779D01*
X603594Y-286849D01*
X603496Y-286922D01*
X603400Y-286999D01*
X603307Y-287078D01*
X603217Y-287161D01*
X603129Y-287246D01*
X603044Y-287334D01*
X602961Y-287424D01*
X602882Y-287517D01*
X602805Y-287613D01*
X602732Y-287711D01*
X602662Y-287811D01*
X602594Y-287913D01*
X602530Y-288017D01*
X602470Y-288124D01*
X602413Y-288232D01*
X602359Y-288342D01*
X602308Y-288453D01*
X602262Y-288566D01*
X602218Y-288681D01*
X602179Y-288796D01*
X602143Y-288913D01*
X602110Y-289031D01*
X602082Y-289150D01*
X602057Y-289270D01*
X602036Y-289391D01*
X602019Y-289512D01*
X602005Y-289633D01*
X601996Y-289755D01*
X601990Y-289878D01*
X601988Y-290000D01*
X601988Y-301684D01*
X594279Y-304280D02*
X583893Y-304280D01*
X576786Y-290000D02*
X576781Y-289540D01*
X576764Y-289081D01*
X576737Y-288622D01*
X576698Y-288164D01*
X576649Y-287707D01*
X576589Y-287251D01*
X576518Y-286797D01*
X576436Y-286344D01*
X576343Y-285894D01*
X576240Y-285446D01*
X576126Y-285001D01*
X576001Y-284558D01*
X575866Y-284119D01*
X575720Y-283683D01*
X575564Y-283251D01*
X575398Y-282822D01*
X575222Y-282397D01*
X575035Y-281977D01*
X574839Y-281562D01*
X574838Y-281561D02*
X574793Y-281434D01*
X574743Y-281308D01*
X574691Y-281183D01*
X574634Y-281060D01*
X574574Y-280938D01*
X574511Y-280819D01*
X574445Y-280701D01*
X574375Y-280585D01*
X574302Y-280471D01*
X574226Y-280359D01*
X574146Y-280249D01*
X574064Y-280142D01*
X573978Y-280037D01*
X573890Y-279934D01*
X573799Y-279834D01*
X573705Y-279736D01*
X573608Y-279642D01*
X573509Y-279550D01*
X573407Y-279460D01*
X573303Y-279374D01*
X573196Y-279291D01*
X573087Y-279211D01*
X572975Y-279134D01*
X572862Y-279060D01*
X572747Y-278989D01*
X572629Y-278921D01*
X572510Y-278857D01*
X572389Y-278796D01*
X572266Y-278739D01*
X572142Y-278685D01*
X572016Y-278635D01*
X571889Y-278588D01*
X571761Y-278545D01*
X571631Y-278506D01*
X571501Y-278470D01*
X571369Y-278438D01*
X571237Y-278409D01*
X571104Y-278385D01*
X570970Y-278364D01*
X570836Y-278347D01*
X570701Y-278333D01*
X570566Y-278324D01*
X570430Y-278318D01*
X570295Y-278316D01*
X570160Y-278318D01*
X570024Y-278324D01*
X569889Y-278333D01*
X569755Y-278347D01*
X569620Y-278364D01*
X569486Y-278385D01*
X569353Y-278409D01*
X569221Y-278438D01*
X569089Y-278470D01*
X568959Y-278506D01*
X568829Y-278545D01*
X568701Y-278588D01*
X568574Y-278635D01*
X568448Y-278685D01*
X568324Y-278739D01*
X568201Y-278796D01*
X568080Y-278857D01*
X567961Y-278921D01*
X567843Y-278989D01*
X567728Y-279060D01*
X567615Y-279133D01*
X567503Y-279211D01*
X567394Y-279291D01*
X567287Y-279374D01*
X567183Y-279460D01*
X567081Y-279550D01*
X566982Y-279642D01*
X566885Y-279736D01*
X566791Y-279834D01*
X566700Y-279934D01*
X566612Y-280037D01*
X566526Y-280142D01*
X566444Y-280249D01*
X566364Y-280359D01*
X566288Y-280471D01*
X566215Y-280585D01*
X566145Y-280701D01*
X566079Y-280819D01*
X566016Y-280938D01*
X565956Y-281060D01*
X565899Y-281183D01*
X565847Y-281308D01*
X565797Y-281434D01*
X565752Y-281561D01*
X565751Y-281561D02*
X565555Y-281977D01*
X565368Y-282397D01*
X565192Y-282822D01*
X565026Y-283250D01*
X564870Y-283683D01*
X564724Y-284119D01*
X564589Y-284558D01*
X564464Y-285001D01*
X564350Y-285446D01*
X564247Y-285894D01*
X564154Y-286344D01*
X564072Y-286797D01*
X564001Y-287251D01*
X563941Y-287707D01*
X563892Y-288164D01*
X563853Y-288622D01*
X563826Y-289081D01*
X563809Y-289540D01*
X563804Y-290000D01*
X576786Y-290000D02*
X576781Y-290460D01*
X576764Y-290919D01*
X576737Y-291378D01*
X576698Y-291836D01*
X576649Y-292293D01*
X576589Y-292749D01*
X576518Y-293203D01*
X576436Y-293656D01*
X576343Y-294106D01*
X576240Y-294554D01*
X576126Y-294999D01*
X576001Y-295442D01*
X575866Y-295881D01*
X575720Y-296317D01*
X575564Y-296749D01*
X575398Y-297178D01*
X575222Y-297603D01*
X575035Y-298023D01*
X574839Y-298438D01*
X574838Y-298439D02*
X574793Y-298566D01*
X574743Y-298692D01*
X574691Y-298817D01*
X574634Y-298940D01*
X574574Y-299062D01*
X574511Y-299181D01*
X574445Y-299299D01*
X574375Y-299415D01*
X574302Y-299529D01*
X574226Y-299641D01*
X574146Y-299751D01*
X574064Y-299858D01*
X573978Y-299963D01*
X573890Y-300066D01*
X573799Y-300166D01*
X573705Y-300264D01*
X573608Y-300358D01*
X573509Y-300450D01*
X573407Y-300540D01*
X573302Y-300626D01*
X573196Y-300709D01*
X573087Y-300789D01*
X572975Y-300867D01*
X572862Y-300940D01*
X572747Y-301011D01*
X572629Y-301079D01*
X572510Y-301143D01*
X572389Y-301204D01*
X572266Y-301261D01*
X572142Y-301315D01*
X572016Y-301365D01*
X571889Y-301412D01*
X571761Y-301455D01*
X571631Y-301494D01*
X571501Y-301530D01*
X571369Y-301562D01*
X571237Y-301591D01*
X571104Y-301615D01*
X570970Y-301636D01*
X570835Y-301653D01*
X570701Y-301667D01*
X570566Y-301676D01*
X570430Y-301682D01*
X570295Y-301684D01*
X565751Y-298439D02*
X565555Y-298023D01*
X565368Y-297603D01*
X565192Y-297178D01*
X565026Y-296750D01*
X564870Y-296317D01*
X564724Y-295881D01*
X564589Y-295442D01*
X564464Y-294999D01*
X564350Y-294554D01*
X564247Y-294106D01*
X564154Y-293656D01*
X564072Y-293203D01*
X564001Y-292749D01*
X563941Y-292293D01*
X563892Y-291836D01*
X563853Y-291378D01*
X563826Y-290919D01*
X563809Y-290460D01*
X563804Y-290000D01*
X565752Y-298439D02*
X565797Y-298566D01*
X565847Y-298692D01*
X565899Y-298817D01*
X565956Y-298940D01*
X566016Y-299062D01*
X566079Y-299181D01*
X566145Y-299299D01*
X566215Y-299415D01*
X566288Y-299529D01*
X566364Y-299641D01*
X566444Y-299751D01*
X566526Y-299858D01*
X566612Y-299963D01*
X566700Y-300066D01*
X566791Y-300166D01*
X566885Y-300264D01*
X566982Y-300358D01*
X567081Y-300450D01*
X567183Y-300540D01*
X567288Y-300626D01*
X567394Y-300709D01*
X567503Y-300789D01*
X567615Y-300867D01*
X567728Y-300940D01*
X567843Y-301011D01*
X567961Y-301079D01*
X568080Y-301143D01*
X568201Y-301204D01*
X568324Y-301261D01*
X568448Y-301315D01*
X568574Y-301365D01*
X568701Y-301412D01*
X568829Y-301455D01*
X568959Y-301494D01*
X569089Y-301530D01*
X569221Y-301562D01*
X569353Y-301591D01*
X569486Y-301615D01*
X569620Y-301636D01*
X569755Y-301653D01*
X569889Y-301667D01*
X570024Y-301676D01*
X570160Y-301682D01*
X570295Y-301684D01*
X575488Y-296491D02*
X565102Y-283509D01*
X555908Y-283509D02*
X549416Y-278316D01*
X549416Y-301684D01*
X542925Y-301684D02*
X555908Y-301684D01*
X876114Y-351684D02*
X881307Y-351684D01*
X881450Y-351682D01*
X881593Y-351676D01*
X881736Y-351666D01*
X881878Y-351652D01*
X882020Y-351635D01*
X882162Y-351613D01*
X882303Y-351588D01*
X882443Y-351558D01*
X882582Y-351525D01*
X882720Y-351488D01*
X882857Y-351447D01*
X882993Y-351403D01*
X883128Y-351354D01*
X883261Y-351302D01*
X883393Y-351247D01*
X883523Y-351187D01*
X883652Y-351124D01*
X883779Y-351058D01*
X883904Y-350988D01*
X884026Y-350915D01*
X884147Y-350838D01*
X884266Y-350758D01*
X884382Y-350675D01*
X884497Y-350589D01*
X884608Y-350500D01*
X884718Y-350407D01*
X884824Y-350312D01*
X884928Y-350213D01*
X885029Y-350112D01*
X885128Y-350008D01*
X885223Y-349902D01*
X885316Y-349792D01*
X885405Y-349681D01*
X885491Y-349566D01*
X885574Y-349450D01*
X885654Y-349331D01*
X885731Y-349210D01*
X885804Y-349088D01*
X885874Y-348963D01*
X885940Y-348836D01*
X886003Y-348707D01*
X886063Y-348577D01*
X886118Y-348445D01*
X886170Y-348312D01*
X886219Y-348177D01*
X886263Y-348041D01*
X886304Y-347904D01*
X886341Y-347766D01*
X886374Y-347627D01*
X886404Y-347487D01*
X886429Y-347346D01*
X886451Y-347204D01*
X886468Y-347062D01*
X886482Y-346920D01*
X886492Y-346777D01*
X886498Y-346634D01*
X886500Y-346491D01*
X886500Y-333509D01*
X886498Y-333366D01*
X886492Y-333223D01*
X886482Y-333080D01*
X886468Y-332938D01*
X886451Y-332796D01*
X886429Y-332654D01*
X886404Y-332513D01*
X886374Y-332373D01*
X886341Y-332234D01*
X886304Y-332096D01*
X886263Y-331959D01*
X886219Y-331823D01*
X886170Y-331688D01*
X886118Y-331555D01*
X886063Y-331423D01*
X886003Y-331293D01*
X885940Y-331164D01*
X885874Y-331037D01*
X885804Y-330913D01*
X885731Y-330790D01*
X885654Y-330669D01*
X885575Y-330550D01*
X885491Y-330434D01*
X885405Y-330319D01*
X885316Y-330208D01*
X885223Y-330099D01*
X885128Y-329992D01*
X885029Y-329888D01*
X884928Y-329787D01*
X884824Y-329688D01*
X884718Y-329593D01*
X884608Y-329500D01*
X884497Y-329411D01*
X884383Y-329325D01*
X884266Y-329242D01*
X884147Y-329162D01*
X884026Y-329085D01*
X883904Y-329012D01*
X883779Y-328942D01*
X883652Y-328876D01*
X883523Y-328813D01*
X883393Y-328753D01*
X883261Y-328698D01*
X883128Y-328646D01*
X882993Y-328597D01*
X882857Y-328553D01*
X882720Y-328512D01*
X882582Y-328475D01*
X882443Y-328442D01*
X882303Y-328412D01*
X882162Y-328387D01*
X882020Y-328365D01*
X881878Y-328348D01*
X881736Y-328334D01*
X881593Y-328324D01*
X881450Y-328318D01*
X881307Y-328316D01*
X876114Y-328316D01*
X864678Y-342596D02*
X858836Y-342596D01*
X864678Y-342596D02*
X864811Y-342598D01*
X864945Y-342604D01*
X865078Y-342614D01*
X865210Y-342627D01*
X865343Y-342645D01*
X865474Y-342666D01*
X865605Y-342692D01*
X865736Y-342721D01*
X865865Y-342754D01*
X865993Y-342790D01*
X866120Y-342831D01*
X866246Y-342875D01*
X866371Y-342923D01*
X866494Y-342975D01*
X866615Y-343030D01*
X866735Y-343088D01*
X866853Y-343150D01*
X866969Y-343216D01*
X867083Y-343285D01*
X867196Y-343357D01*
X867306Y-343433D01*
X867413Y-343511D01*
X867519Y-343593D01*
X867621Y-343678D01*
X867722Y-343766D01*
X867820Y-343857D01*
X867915Y-343951D01*
X868007Y-344047D01*
X868096Y-344146D01*
X868183Y-344248D01*
X868266Y-344352D01*
X868346Y-344458D01*
X868423Y-344567D01*
X868497Y-344678D01*
X868568Y-344791D01*
X868635Y-344907D01*
X868699Y-345024D01*
X868760Y-345143D01*
X868816Y-345263D01*
X868870Y-345386D01*
X868919Y-345510D01*
X868965Y-345635D01*
X869008Y-345761D01*
X869046Y-345889D01*
X869081Y-346018D01*
X869112Y-346147D01*
X869140Y-346278D01*
X869163Y-346409D01*
X869182Y-346541D01*
X869198Y-346674D01*
X869210Y-346807D01*
X869218Y-346940D01*
X869222Y-347073D01*
X869222Y-347207D01*
X869218Y-347340D01*
X869210Y-347473D01*
X869198Y-347606D01*
X869182Y-347739D01*
X869163Y-347871D01*
X869140Y-348002D01*
X869112Y-348133D01*
X869081Y-348262D01*
X869046Y-348391D01*
X869008Y-348519D01*
X868965Y-348645D01*
X868919Y-348770D01*
X868870Y-348894D01*
X868816Y-349017D01*
X868760Y-349137D01*
X868699Y-349256D01*
X868635Y-349373D01*
X868568Y-349489D01*
X868497Y-349602D01*
X868423Y-349713D01*
X868346Y-349822D01*
X868266Y-349928D01*
X868183Y-350032D01*
X868096Y-350134D01*
X868007Y-350233D01*
X867915Y-350329D01*
X867820Y-350423D01*
X867722Y-350514D01*
X867621Y-350602D01*
X867519Y-350687D01*
X867413Y-350769D01*
X867306Y-350847D01*
X867196Y-350923D01*
X867083Y-350995D01*
X866969Y-351064D01*
X866853Y-351130D01*
X866735Y-351192D01*
X866615Y-351250D01*
X866494Y-351305D01*
X866371Y-351357D01*
X866246Y-351405D01*
X866120Y-351449D01*
X865993Y-351490D01*
X865865Y-351526D01*
X865736Y-351559D01*
X865605Y-351588D01*
X865474Y-351614D01*
X865343Y-351635D01*
X865210Y-351653D01*
X865078Y-351666D01*
X864945Y-351676D01*
X864811Y-351682D01*
X864678Y-351684D01*
X858836Y-351684D01*
X858836Y-340000D01*
X858838Y-339878D01*
X858844Y-339755D01*
X858853Y-339633D01*
X858867Y-339512D01*
X858884Y-339391D01*
X858905Y-339270D01*
X858930Y-339150D01*
X858958Y-339031D01*
X858991Y-338913D01*
X859027Y-338796D01*
X859066Y-338681D01*
X859110Y-338566D01*
X859156Y-338453D01*
X859207Y-338342D01*
X859261Y-338232D01*
X859318Y-338124D01*
X859378Y-338017D01*
X859442Y-337913D01*
X859510Y-337811D01*
X859580Y-337711D01*
X859653Y-337613D01*
X859730Y-337517D01*
X859809Y-337424D01*
X859892Y-337334D01*
X859977Y-337246D01*
X860065Y-337161D01*
X860155Y-337078D01*
X860248Y-336999D01*
X860344Y-336922D01*
X860442Y-336849D01*
X860542Y-336779D01*
X860644Y-336711D01*
X860748Y-336647D01*
X860855Y-336587D01*
X860963Y-336530D01*
X861073Y-336476D01*
X861184Y-336425D01*
X861297Y-336379D01*
X861412Y-336335D01*
X861527Y-336296D01*
X861644Y-336260D01*
X861762Y-336227D01*
X861881Y-336199D01*
X862001Y-336174D01*
X862122Y-336153D01*
X862243Y-336136D01*
X862364Y-336122D01*
X862486Y-336113D01*
X862609Y-336107D01*
X862731Y-336105D01*
X867923Y-336105D01*
X849496Y-336105D02*
X849496Y-351684D01*
X849496Y-336105D02*
X837812Y-336105D01*
X837690Y-336107D01*
X837567Y-336113D01*
X837445Y-336122D01*
X837324Y-336136D01*
X837203Y-336153D01*
X837082Y-336174D01*
X836962Y-336199D01*
X836843Y-336227D01*
X836725Y-336260D01*
X836608Y-336296D01*
X836493Y-336335D01*
X836378Y-336379D01*
X836265Y-336425D01*
X836154Y-336476D01*
X836044Y-336530D01*
X835936Y-336587D01*
X835829Y-336647D01*
X835725Y-336711D01*
X835623Y-336779D01*
X835523Y-336849D01*
X835425Y-336922D01*
X835329Y-336999D01*
X835236Y-337078D01*
X835146Y-337161D01*
X835058Y-337246D01*
X834973Y-337334D01*
X834890Y-337424D01*
X834811Y-337517D01*
X834734Y-337613D01*
X834661Y-337711D01*
X834591Y-337811D01*
X834523Y-337913D01*
X834459Y-338017D01*
X834399Y-338124D01*
X834342Y-338232D01*
X834288Y-338342D01*
X834237Y-338453D01*
X834191Y-338566D01*
X834147Y-338681D01*
X834108Y-338796D01*
X834072Y-338913D01*
X834039Y-339031D01*
X834011Y-339150D01*
X833986Y-339270D01*
X833965Y-339391D01*
X833948Y-339512D01*
X833934Y-339633D01*
X833925Y-339755D01*
X833919Y-339878D01*
X833917Y-340000D01*
X833918Y-340000D02*
X833918Y-351684D01*
X841707Y-351684D02*
X841707Y-336105D01*
X821431Y-351684D02*
X814939Y-351684D01*
X821431Y-351684D02*
X821553Y-351682D01*
X821676Y-351676D01*
X821798Y-351667D01*
X821919Y-351653D01*
X822040Y-351636D01*
X822161Y-351615D01*
X822281Y-351590D01*
X822400Y-351562D01*
X822518Y-351529D01*
X822635Y-351493D01*
X822750Y-351454D01*
X822865Y-351410D01*
X822978Y-351364D01*
X823089Y-351313D01*
X823199Y-351259D01*
X823307Y-351202D01*
X823414Y-351142D01*
X823518Y-351078D01*
X823620Y-351010D01*
X823720Y-350940D01*
X823818Y-350867D01*
X823914Y-350790D01*
X824007Y-350711D01*
X824097Y-350628D01*
X824185Y-350543D01*
X824270Y-350455D01*
X824353Y-350365D01*
X824432Y-350272D01*
X824509Y-350176D01*
X824582Y-350078D01*
X824652Y-349978D01*
X824720Y-349876D01*
X824784Y-349772D01*
X824844Y-349665D01*
X824901Y-349557D01*
X824955Y-349447D01*
X825006Y-349336D01*
X825052Y-349223D01*
X825096Y-349108D01*
X825135Y-348993D01*
X825171Y-348876D01*
X825204Y-348758D01*
X825232Y-348639D01*
X825257Y-348519D01*
X825278Y-348398D01*
X825295Y-348277D01*
X825309Y-348156D01*
X825318Y-348034D01*
X825324Y-347911D01*
X825326Y-347789D01*
X825325Y-347789D02*
X825325Y-341298D01*
X825323Y-341155D01*
X825317Y-341012D01*
X825307Y-340869D01*
X825293Y-340727D01*
X825276Y-340585D01*
X825254Y-340443D01*
X825229Y-340302D01*
X825199Y-340162D01*
X825166Y-340023D01*
X825129Y-339885D01*
X825088Y-339748D01*
X825044Y-339612D01*
X824995Y-339477D01*
X824943Y-339344D01*
X824888Y-339212D01*
X824828Y-339082D01*
X824765Y-338953D01*
X824699Y-338826D01*
X824629Y-338702D01*
X824556Y-338579D01*
X824479Y-338458D01*
X824399Y-338339D01*
X824316Y-338223D01*
X824230Y-338108D01*
X824141Y-337997D01*
X824048Y-337887D01*
X823953Y-337781D01*
X823854Y-337677D01*
X823753Y-337576D01*
X823649Y-337477D01*
X823543Y-337382D01*
X823433Y-337289D01*
X823322Y-337200D01*
X823207Y-337114D01*
X823091Y-337031D01*
X822972Y-336951D01*
X822851Y-336874D01*
X822729Y-336801D01*
X822604Y-336731D01*
X822477Y-336665D01*
X822348Y-336602D01*
X822218Y-336542D01*
X822086Y-336487D01*
X821953Y-336435D01*
X821818Y-336386D01*
X821682Y-336342D01*
X821545Y-336301D01*
X821407Y-336264D01*
X821268Y-336231D01*
X821128Y-336201D01*
X820987Y-336176D01*
X820845Y-336154D01*
X820703Y-336137D01*
X820561Y-336123D01*
X820418Y-336113D01*
X820275Y-336107D01*
X820132Y-336105D01*
X819989Y-336107D01*
X819846Y-336113D01*
X819703Y-336123D01*
X819561Y-336137D01*
X819419Y-336154D01*
X819277Y-336176D01*
X819136Y-336201D01*
X818996Y-336231D01*
X818857Y-336264D01*
X818719Y-336301D01*
X818582Y-336342D01*
X818446Y-336386D01*
X818311Y-336435D01*
X818178Y-336487D01*
X818046Y-336542D01*
X817916Y-336602D01*
X817787Y-336665D01*
X817660Y-336731D01*
X817536Y-336801D01*
X817413Y-336874D01*
X817292Y-336951D01*
X817173Y-337031D01*
X817057Y-337114D01*
X816942Y-337200D01*
X816831Y-337289D01*
X816721Y-337382D01*
X816615Y-337477D01*
X816511Y-337576D01*
X816410Y-337677D01*
X816311Y-337781D01*
X816216Y-337887D01*
X816123Y-337997D01*
X816034Y-338108D01*
X815948Y-338223D01*
X815865Y-338339D01*
X815785Y-338458D01*
X815708Y-338579D01*
X815635Y-338702D01*
X815565Y-338826D01*
X815499Y-338953D01*
X815436Y-339082D01*
X815376Y-339212D01*
X815321Y-339344D01*
X815269Y-339477D01*
X815220Y-339612D01*
X815176Y-339748D01*
X815135Y-339885D01*
X815098Y-340023D01*
X815065Y-340162D01*
X815035Y-340302D01*
X815010Y-340443D01*
X814988Y-340585D01*
X814971Y-340727D01*
X814957Y-340869D01*
X814947Y-341012D01*
X814941Y-341155D01*
X814939Y-341298D01*
X814939Y-343895D01*
X825325Y-343895D01*
X806470Y-351684D02*
X806470Y-336105D01*
X798681Y-336105D01*
X798681Y-338702D01*
X792615Y-341298D02*
X792615Y-346491D01*
X792615Y-341298D02*
X792613Y-341155D01*
X792607Y-341012D01*
X792597Y-340869D01*
X792583Y-340727D01*
X792566Y-340585D01*
X792544Y-340443D01*
X792519Y-340302D01*
X792489Y-340162D01*
X792456Y-340023D01*
X792419Y-339885D01*
X792378Y-339748D01*
X792334Y-339612D01*
X792285Y-339477D01*
X792233Y-339344D01*
X792178Y-339212D01*
X792118Y-339082D01*
X792055Y-338953D01*
X791989Y-338826D01*
X791919Y-338702D01*
X791846Y-338579D01*
X791769Y-338458D01*
X791689Y-338339D01*
X791606Y-338223D01*
X791520Y-338108D01*
X791431Y-337997D01*
X791338Y-337887D01*
X791243Y-337781D01*
X791144Y-337677D01*
X791043Y-337576D01*
X790939Y-337477D01*
X790833Y-337382D01*
X790723Y-337289D01*
X790612Y-337200D01*
X790497Y-337114D01*
X790381Y-337031D01*
X790262Y-336951D01*
X790141Y-336874D01*
X790019Y-336801D01*
X789894Y-336731D01*
X789767Y-336665D01*
X789638Y-336602D01*
X789508Y-336542D01*
X789376Y-336487D01*
X789243Y-336435D01*
X789108Y-336386D01*
X788972Y-336342D01*
X788835Y-336301D01*
X788697Y-336264D01*
X788558Y-336231D01*
X788418Y-336201D01*
X788277Y-336176D01*
X788135Y-336154D01*
X787993Y-336137D01*
X787851Y-336123D01*
X787708Y-336113D01*
X787565Y-336107D01*
X787422Y-336105D01*
X787279Y-336107D01*
X787136Y-336113D01*
X786993Y-336123D01*
X786851Y-336137D01*
X786709Y-336154D01*
X786567Y-336176D01*
X786426Y-336201D01*
X786286Y-336231D01*
X786147Y-336264D01*
X786009Y-336301D01*
X785872Y-336342D01*
X785736Y-336386D01*
X785601Y-336435D01*
X785468Y-336487D01*
X785336Y-336542D01*
X785206Y-336602D01*
X785077Y-336665D01*
X784950Y-336731D01*
X784826Y-336801D01*
X784703Y-336874D01*
X784582Y-336951D01*
X784463Y-337031D01*
X784347Y-337114D01*
X784232Y-337200D01*
X784121Y-337289D01*
X784011Y-337382D01*
X783905Y-337477D01*
X783801Y-337576D01*
X783700Y-337677D01*
X783601Y-337781D01*
X783506Y-337887D01*
X783413Y-337997D01*
X783324Y-338108D01*
X783238Y-338223D01*
X783155Y-338339D01*
X783075Y-338458D01*
X782998Y-338579D01*
X782925Y-338702D01*
X782855Y-338826D01*
X782789Y-338953D01*
X782726Y-339082D01*
X782666Y-339212D01*
X782611Y-339344D01*
X782559Y-339477D01*
X782510Y-339612D01*
X782466Y-339748D01*
X782425Y-339885D01*
X782388Y-340023D01*
X782355Y-340162D01*
X782325Y-340302D01*
X782300Y-340443D01*
X782278Y-340585D01*
X782261Y-340727D01*
X782247Y-340869D01*
X782237Y-341012D01*
X782231Y-341155D01*
X782229Y-341298D01*
X782229Y-346491D01*
X782231Y-346634D01*
X782237Y-346777D01*
X782247Y-346920D01*
X782261Y-347062D01*
X782278Y-347204D01*
X782300Y-347346D01*
X782325Y-347487D01*
X782355Y-347627D01*
X782388Y-347766D01*
X782425Y-347904D01*
X782466Y-348041D01*
X782510Y-348177D01*
X782559Y-348312D01*
X782611Y-348445D01*
X782666Y-348577D01*
X782726Y-348707D01*
X782789Y-348836D01*
X782855Y-348963D01*
X782925Y-349088D01*
X782998Y-349210D01*
X783075Y-349331D01*
X783155Y-349450D01*
X783238Y-349566D01*
X783324Y-349681D01*
X783413Y-349792D01*
X783506Y-349902D01*
X783601Y-350008D01*
X783700Y-350112D01*
X783801Y-350213D01*
X783905Y-350312D01*
X784011Y-350407D01*
X784121Y-350500D01*
X784232Y-350589D01*
X784347Y-350675D01*
X784463Y-350758D01*
X784582Y-350838D01*
X784703Y-350915D01*
X784826Y-350988D01*
X784950Y-351058D01*
X785077Y-351124D01*
X785206Y-351187D01*
X785336Y-351247D01*
X785468Y-351302D01*
X785601Y-351354D01*
X785736Y-351403D01*
X785872Y-351447D01*
X786009Y-351488D01*
X786147Y-351525D01*
X786286Y-351558D01*
X786426Y-351588D01*
X786567Y-351613D01*
X786709Y-351635D01*
X786851Y-351652D01*
X786993Y-351666D01*
X787136Y-351676D01*
X787279Y-351682D01*
X787422Y-351684D01*
X787565Y-351682D01*
X787708Y-351676D01*
X787851Y-351666D01*
X787993Y-351652D01*
X788135Y-351635D01*
X788277Y-351613D01*
X788418Y-351588D01*
X788558Y-351558D01*
X788697Y-351525D01*
X788835Y-351488D01*
X788972Y-351447D01*
X789108Y-351403D01*
X789243Y-351354D01*
X789376Y-351302D01*
X789508Y-351247D01*
X789638Y-351187D01*
X789767Y-351124D01*
X789894Y-351058D01*
X790018Y-350988D01*
X790141Y-350915D01*
X790262Y-350838D01*
X790381Y-350758D01*
X790497Y-350675D01*
X790612Y-350589D01*
X790723Y-350500D01*
X790833Y-350407D01*
X790939Y-350312D01*
X791043Y-350213D01*
X791144Y-350112D01*
X791243Y-350008D01*
X791338Y-349902D01*
X791431Y-349792D01*
X791520Y-349681D01*
X791606Y-349566D01*
X791689Y-349450D01*
X791769Y-349331D01*
X791846Y-349210D01*
X791919Y-349088D01*
X791989Y-348963D01*
X792055Y-348836D01*
X792118Y-348707D01*
X792178Y-348577D01*
X792233Y-348445D01*
X792285Y-348312D01*
X792334Y-348177D01*
X792378Y-348041D01*
X792419Y-347904D01*
X792456Y-347766D01*
X792489Y-347627D01*
X792519Y-347487D01*
X792544Y-347346D01*
X792566Y-347204D01*
X792583Y-347062D01*
X792597Y-346920D01*
X792607Y-346777D01*
X792613Y-346634D01*
X792615Y-346491D01*
X773824Y-351684D02*
X773824Y-336105D01*
X767333Y-336105D01*
X767211Y-336107D01*
X767088Y-336113D01*
X766966Y-336122D01*
X766845Y-336136D01*
X766724Y-336153D01*
X766603Y-336174D01*
X766483Y-336199D01*
X766364Y-336227D01*
X766246Y-336260D01*
X766129Y-336296D01*
X766014Y-336335D01*
X765899Y-336379D01*
X765786Y-336425D01*
X765675Y-336476D01*
X765565Y-336530D01*
X765457Y-336587D01*
X765350Y-336647D01*
X765246Y-336711D01*
X765144Y-336779D01*
X765044Y-336849D01*
X764946Y-336922D01*
X764850Y-336999D01*
X764757Y-337078D01*
X764667Y-337161D01*
X764579Y-337246D01*
X764494Y-337334D01*
X764411Y-337424D01*
X764332Y-337517D01*
X764255Y-337613D01*
X764182Y-337711D01*
X764112Y-337811D01*
X764044Y-337913D01*
X763980Y-338017D01*
X763920Y-338124D01*
X763863Y-338232D01*
X763809Y-338342D01*
X763758Y-338453D01*
X763712Y-338566D01*
X763668Y-338681D01*
X763629Y-338796D01*
X763593Y-338913D01*
X763560Y-339031D01*
X763532Y-339150D01*
X763507Y-339270D01*
X763486Y-339391D01*
X763469Y-339512D01*
X763455Y-339633D01*
X763446Y-339755D01*
X763440Y-339878D01*
X763438Y-340000D01*
X763439Y-340000D02*
X763439Y-351684D01*
X738635Y-351684D02*
X733442Y-351684D01*
X738635Y-351684D02*
X738778Y-351682D01*
X738921Y-351676D01*
X739064Y-351666D01*
X739206Y-351652D01*
X739348Y-351635D01*
X739490Y-351613D01*
X739631Y-351588D01*
X739771Y-351558D01*
X739910Y-351525D01*
X740048Y-351488D01*
X740185Y-351447D01*
X740321Y-351403D01*
X740456Y-351354D01*
X740589Y-351302D01*
X740721Y-351247D01*
X740851Y-351187D01*
X740980Y-351124D01*
X741107Y-351058D01*
X741232Y-350988D01*
X741354Y-350915D01*
X741475Y-350838D01*
X741594Y-350758D01*
X741710Y-350675D01*
X741825Y-350589D01*
X741936Y-350500D01*
X742046Y-350407D01*
X742152Y-350312D01*
X742256Y-350213D01*
X742357Y-350112D01*
X742456Y-350008D01*
X742551Y-349902D01*
X742644Y-349792D01*
X742733Y-349681D01*
X742819Y-349566D01*
X742902Y-349450D01*
X742982Y-349331D01*
X743059Y-349210D01*
X743132Y-349088D01*
X743202Y-348963D01*
X743268Y-348836D01*
X743331Y-348707D01*
X743391Y-348577D01*
X743446Y-348445D01*
X743498Y-348312D01*
X743547Y-348177D01*
X743591Y-348041D01*
X743632Y-347904D01*
X743669Y-347766D01*
X743702Y-347627D01*
X743732Y-347487D01*
X743757Y-347346D01*
X743779Y-347204D01*
X743796Y-347062D01*
X743810Y-346920D01*
X743820Y-346777D01*
X743826Y-346634D01*
X743828Y-346491D01*
X743828Y-333509D01*
X743826Y-333366D01*
X743820Y-333223D01*
X743810Y-333080D01*
X743796Y-332938D01*
X743779Y-332796D01*
X743757Y-332654D01*
X743732Y-332513D01*
X743702Y-332373D01*
X743669Y-332234D01*
X743632Y-332096D01*
X743591Y-331959D01*
X743547Y-331823D01*
X743498Y-331688D01*
X743446Y-331555D01*
X743391Y-331423D01*
X743331Y-331293D01*
X743268Y-331164D01*
X743202Y-331037D01*
X743132Y-330913D01*
X743059Y-330790D01*
X742982Y-330669D01*
X742903Y-330550D01*
X742819Y-330434D01*
X742733Y-330319D01*
X742644Y-330208D01*
X742551Y-330099D01*
X742456Y-329992D01*
X742357Y-329888D01*
X742256Y-329787D01*
X742152Y-329688D01*
X742046Y-329593D01*
X741936Y-329500D01*
X741825Y-329411D01*
X741711Y-329325D01*
X741594Y-329242D01*
X741475Y-329162D01*
X741354Y-329085D01*
X741232Y-329012D01*
X741107Y-328942D01*
X740980Y-328876D01*
X740851Y-328813D01*
X740721Y-328753D01*
X740589Y-328698D01*
X740456Y-328646D01*
X740321Y-328597D01*
X740185Y-328553D01*
X740048Y-328512D01*
X739910Y-328475D01*
X739771Y-328442D01*
X739631Y-328412D01*
X739490Y-328387D01*
X739348Y-328365D01*
X739206Y-328348D01*
X739064Y-328334D01*
X738921Y-328324D01*
X738778Y-328318D01*
X738635Y-328316D01*
X733442Y-328316D01*
X725803Y-328316D02*
X725803Y-351684D01*
X725803Y-336105D02*
X719312Y-336105D01*
X719190Y-336107D01*
X719067Y-336113D01*
X718945Y-336122D01*
X718824Y-336136D01*
X718703Y-336153D01*
X718582Y-336174D01*
X718462Y-336199D01*
X718343Y-336227D01*
X718225Y-336260D01*
X718108Y-336296D01*
X717993Y-336335D01*
X717878Y-336379D01*
X717765Y-336425D01*
X717654Y-336476D01*
X717544Y-336530D01*
X717436Y-336587D01*
X717329Y-336647D01*
X717225Y-336711D01*
X717123Y-336779D01*
X717023Y-336849D01*
X716925Y-336922D01*
X716829Y-336999D01*
X716736Y-337078D01*
X716646Y-337161D01*
X716558Y-337246D01*
X716473Y-337334D01*
X716390Y-337424D01*
X716311Y-337517D01*
X716234Y-337613D01*
X716161Y-337711D01*
X716091Y-337811D01*
X716023Y-337913D01*
X715959Y-338017D01*
X715899Y-338124D01*
X715842Y-338232D01*
X715788Y-338342D01*
X715737Y-338453D01*
X715691Y-338566D01*
X715647Y-338681D01*
X715608Y-338796D01*
X715572Y-338913D01*
X715539Y-339031D01*
X715511Y-339150D01*
X715486Y-339270D01*
X715465Y-339391D01*
X715448Y-339512D01*
X715434Y-339633D01*
X715425Y-339755D01*
X715419Y-339878D01*
X715417Y-340000D01*
X715418Y-340000D02*
X715418Y-351684D01*
X702520Y-342596D02*
X696678Y-342596D01*
X702520Y-342596D02*
X702653Y-342598D01*
X702787Y-342604D01*
X702920Y-342614D01*
X703052Y-342627D01*
X703185Y-342645D01*
X703316Y-342666D01*
X703447Y-342692D01*
X703578Y-342721D01*
X703707Y-342754D01*
X703835Y-342790D01*
X703962Y-342831D01*
X704088Y-342875D01*
X704213Y-342923D01*
X704336Y-342975D01*
X704457Y-343030D01*
X704577Y-343088D01*
X704695Y-343150D01*
X704811Y-343216D01*
X704925Y-343285D01*
X705038Y-343357D01*
X705148Y-343433D01*
X705255Y-343511D01*
X705361Y-343593D01*
X705463Y-343678D01*
X705564Y-343766D01*
X705662Y-343857D01*
X705757Y-343951D01*
X705849Y-344047D01*
X705938Y-344146D01*
X706025Y-344248D01*
X706108Y-344352D01*
X706188Y-344458D01*
X706265Y-344567D01*
X706339Y-344678D01*
X706410Y-344791D01*
X706477Y-344907D01*
X706541Y-345024D01*
X706602Y-345143D01*
X706658Y-345263D01*
X706712Y-345386D01*
X706761Y-345510D01*
X706807Y-345635D01*
X706850Y-345761D01*
X706888Y-345889D01*
X706923Y-346018D01*
X706954Y-346147D01*
X706982Y-346278D01*
X707005Y-346409D01*
X707024Y-346541D01*
X707040Y-346674D01*
X707052Y-346807D01*
X707060Y-346940D01*
X707064Y-347073D01*
X707064Y-347207D01*
X707060Y-347340D01*
X707052Y-347473D01*
X707040Y-347606D01*
X707024Y-347739D01*
X707005Y-347871D01*
X706982Y-348002D01*
X706954Y-348133D01*
X706923Y-348262D01*
X706888Y-348391D01*
X706850Y-348519D01*
X706807Y-348645D01*
X706761Y-348770D01*
X706712Y-348894D01*
X706658Y-349017D01*
X706602Y-349137D01*
X706541Y-349256D01*
X706477Y-349373D01*
X706410Y-349489D01*
X706339Y-349602D01*
X706265Y-349713D01*
X706188Y-349822D01*
X706108Y-349928D01*
X706025Y-350032D01*
X705938Y-350134D01*
X705849Y-350233D01*
X705757Y-350329D01*
X705662Y-350423D01*
X705564Y-350514D01*
X705463Y-350602D01*
X705361Y-350687D01*
X705255Y-350769D01*
X705148Y-350847D01*
X705038Y-350923D01*
X704925Y-350995D01*
X704811Y-351064D01*
X704695Y-351130D01*
X704577Y-351192D01*
X704457Y-351250D01*
X704336Y-351305D01*
X704213Y-351357D01*
X704088Y-351405D01*
X703962Y-351449D01*
X703835Y-351490D01*
X703707Y-351526D01*
X703578Y-351559D01*
X703447Y-351588D01*
X703316Y-351614D01*
X703185Y-351635D01*
X703052Y-351653D01*
X702920Y-351666D01*
X702787Y-351676D01*
X702653Y-351682D01*
X702520Y-351684D01*
X696678Y-351684D01*
X696678Y-340000D01*
X696677Y-340000D02*
X696679Y-339878D01*
X696685Y-339755D01*
X696694Y-339633D01*
X696708Y-339512D01*
X696725Y-339391D01*
X696746Y-339270D01*
X696771Y-339150D01*
X696799Y-339031D01*
X696832Y-338913D01*
X696868Y-338796D01*
X696907Y-338681D01*
X696951Y-338566D01*
X696997Y-338453D01*
X697048Y-338342D01*
X697102Y-338232D01*
X697159Y-338124D01*
X697219Y-338017D01*
X697283Y-337913D01*
X697351Y-337811D01*
X697421Y-337711D01*
X697494Y-337613D01*
X697571Y-337517D01*
X697650Y-337424D01*
X697733Y-337334D01*
X697818Y-337246D01*
X697906Y-337161D01*
X697996Y-337078D01*
X698089Y-336999D01*
X698185Y-336922D01*
X698283Y-336849D01*
X698383Y-336779D01*
X698485Y-336711D01*
X698589Y-336647D01*
X698696Y-336587D01*
X698804Y-336530D01*
X698914Y-336476D01*
X699025Y-336425D01*
X699138Y-336379D01*
X699253Y-336335D01*
X699368Y-336296D01*
X699485Y-336260D01*
X699603Y-336227D01*
X699722Y-336199D01*
X699842Y-336174D01*
X699963Y-336153D01*
X700084Y-336136D01*
X700205Y-336122D01*
X700327Y-336113D01*
X700450Y-336107D01*
X700572Y-336105D01*
X705765Y-336105D01*
X687526Y-336105D02*
X687526Y-351684D01*
X687526Y-336105D02*
X681034Y-336105D01*
X680912Y-336107D01*
X680789Y-336113D01*
X680667Y-336122D01*
X680546Y-336136D01*
X680425Y-336153D01*
X680304Y-336174D01*
X680184Y-336199D01*
X680065Y-336227D01*
X679947Y-336260D01*
X679830Y-336296D01*
X679715Y-336335D01*
X679600Y-336379D01*
X679487Y-336425D01*
X679376Y-336476D01*
X679266Y-336530D01*
X679158Y-336587D01*
X679051Y-336647D01*
X678947Y-336711D01*
X678845Y-336779D01*
X678745Y-336849D01*
X678647Y-336922D01*
X678551Y-336999D01*
X678458Y-337078D01*
X678368Y-337161D01*
X678280Y-337246D01*
X678195Y-337334D01*
X678112Y-337424D01*
X678033Y-337517D01*
X677956Y-337613D01*
X677883Y-337711D01*
X677813Y-337811D01*
X677745Y-337913D01*
X677681Y-338017D01*
X677621Y-338124D01*
X677564Y-338232D01*
X677510Y-338342D01*
X677459Y-338453D01*
X677413Y-338566D01*
X677369Y-338681D01*
X677330Y-338796D01*
X677294Y-338913D01*
X677261Y-339031D01*
X677233Y-339150D01*
X677208Y-339270D01*
X677187Y-339391D01*
X677170Y-339512D01*
X677156Y-339633D01*
X677147Y-339755D01*
X677141Y-339878D01*
X677139Y-340000D01*
X677140Y-340000D02*
X677140Y-351684D01*
X664840Y-351684D02*
X658349Y-351684D01*
X664840Y-351684D02*
X664962Y-351682D01*
X665085Y-351676D01*
X665207Y-351667D01*
X665328Y-351653D01*
X665449Y-351636D01*
X665570Y-351615D01*
X665690Y-351590D01*
X665809Y-351562D01*
X665927Y-351529D01*
X666044Y-351493D01*
X666159Y-351454D01*
X666274Y-351410D01*
X666387Y-351364D01*
X666498Y-351313D01*
X666608Y-351259D01*
X666716Y-351202D01*
X666823Y-351142D01*
X666927Y-351078D01*
X667029Y-351010D01*
X667129Y-350940D01*
X667227Y-350867D01*
X667323Y-350790D01*
X667416Y-350711D01*
X667506Y-350628D01*
X667594Y-350543D01*
X667679Y-350455D01*
X667762Y-350365D01*
X667841Y-350272D01*
X667918Y-350176D01*
X667991Y-350078D01*
X668061Y-349978D01*
X668129Y-349876D01*
X668193Y-349772D01*
X668253Y-349665D01*
X668310Y-349557D01*
X668364Y-349447D01*
X668415Y-349336D01*
X668461Y-349223D01*
X668505Y-349108D01*
X668544Y-348993D01*
X668580Y-348876D01*
X668613Y-348758D01*
X668641Y-348639D01*
X668666Y-348519D01*
X668687Y-348398D01*
X668704Y-348277D01*
X668718Y-348156D01*
X668727Y-348034D01*
X668733Y-347911D01*
X668735Y-347789D01*
X668735Y-341298D01*
X668733Y-341155D01*
X668727Y-341012D01*
X668717Y-340869D01*
X668703Y-340727D01*
X668686Y-340585D01*
X668664Y-340443D01*
X668639Y-340302D01*
X668609Y-340162D01*
X668576Y-340023D01*
X668539Y-339885D01*
X668498Y-339748D01*
X668454Y-339612D01*
X668405Y-339477D01*
X668353Y-339344D01*
X668298Y-339212D01*
X668238Y-339082D01*
X668175Y-338953D01*
X668109Y-338826D01*
X668039Y-338702D01*
X667966Y-338579D01*
X667889Y-338458D01*
X667809Y-338339D01*
X667726Y-338223D01*
X667640Y-338108D01*
X667551Y-337997D01*
X667458Y-337887D01*
X667363Y-337781D01*
X667264Y-337677D01*
X667163Y-337576D01*
X667059Y-337477D01*
X666953Y-337382D01*
X666843Y-337289D01*
X666732Y-337200D01*
X666617Y-337114D01*
X666501Y-337031D01*
X666382Y-336951D01*
X666261Y-336874D01*
X666139Y-336801D01*
X666014Y-336731D01*
X665887Y-336665D01*
X665758Y-336602D01*
X665628Y-336542D01*
X665496Y-336487D01*
X665363Y-336435D01*
X665228Y-336386D01*
X665092Y-336342D01*
X664955Y-336301D01*
X664817Y-336264D01*
X664678Y-336231D01*
X664538Y-336201D01*
X664397Y-336176D01*
X664255Y-336154D01*
X664113Y-336137D01*
X663971Y-336123D01*
X663828Y-336113D01*
X663685Y-336107D01*
X663542Y-336105D01*
X663399Y-336107D01*
X663256Y-336113D01*
X663113Y-336123D01*
X662971Y-336137D01*
X662829Y-336154D01*
X662687Y-336176D01*
X662546Y-336201D01*
X662406Y-336231D01*
X662267Y-336264D01*
X662129Y-336301D01*
X661992Y-336342D01*
X661856Y-336386D01*
X661721Y-336435D01*
X661588Y-336487D01*
X661456Y-336542D01*
X661326Y-336602D01*
X661197Y-336665D01*
X661070Y-336731D01*
X660946Y-336801D01*
X660823Y-336874D01*
X660702Y-336951D01*
X660583Y-337031D01*
X660467Y-337114D01*
X660352Y-337200D01*
X660241Y-337289D01*
X660131Y-337382D01*
X660025Y-337477D01*
X659921Y-337576D01*
X659820Y-337677D01*
X659721Y-337781D01*
X659626Y-337887D01*
X659533Y-337997D01*
X659444Y-338108D01*
X659358Y-338223D01*
X659275Y-338339D01*
X659195Y-338458D01*
X659118Y-338579D01*
X659045Y-338702D01*
X658975Y-338826D01*
X658909Y-338953D01*
X658846Y-339082D01*
X658786Y-339212D01*
X658731Y-339344D01*
X658679Y-339477D01*
X658630Y-339612D01*
X658586Y-339748D01*
X658545Y-339885D01*
X658508Y-340023D01*
X658475Y-340162D01*
X658445Y-340302D01*
X658420Y-340443D01*
X658398Y-340585D01*
X658381Y-340727D01*
X658367Y-340869D01*
X658357Y-341012D01*
X658351Y-341155D01*
X658349Y-341298D01*
X658349Y-343895D01*
X668735Y-343895D01*
X651336Y-359473D02*
X648739Y-359473D01*
X640950Y-336105D01*
X651336Y-336105D02*
X646143Y-351684D01*
X622267Y-340000D02*
X622261Y-339465D01*
X622241Y-338931D01*
X622209Y-338397D01*
X622164Y-337864D01*
X622106Y-337333D01*
X622036Y-336803D01*
X621953Y-336274D01*
X621857Y-335748D01*
X621748Y-335225D01*
X621627Y-334704D01*
X621493Y-334186D01*
X621347Y-333672D01*
X621189Y-333161D01*
X621018Y-332654D01*
X620836Y-332152D01*
X620641Y-331654D01*
X620434Y-331160D01*
X620216Y-330672D01*
X619985Y-330190D01*
X619744Y-329713D01*
X619491Y-329242D01*
X619226Y-328777D01*
X618951Y-328319D01*
X618664Y-327867D01*
X618367Y-327423D01*
X618059Y-326985D01*
X617741Y-326556D01*
X617413Y-326134D01*
X617074Y-325720D01*
X622267Y-340000D02*
X622261Y-340535D01*
X622241Y-341069D01*
X622209Y-341603D01*
X622164Y-342136D01*
X622106Y-342667D01*
X622036Y-343197D01*
X621953Y-343726D01*
X621857Y-344252D01*
X621748Y-344775D01*
X621627Y-345296D01*
X621493Y-345814D01*
X621347Y-346328D01*
X621189Y-346839D01*
X621018Y-347346D01*
X620836Y-347848D01*
X620641Y-348346D01*
X620434Y-348840D01*
X620216Y-349328D01*
X619985Y-349810D01*
X619744Y-350287D01*
X619491Y-350758D01*
X619226Y-351223D01*
X618951Y-351681D01*
X618664Y-352133D01*
X618367Y-352577D01*
X618059Y-353015D01*
X617741Y-353444D01*
X617413Y-353866D01*
X617074Y-354280D01*
X605669Y-351684D02*
X600476Y-351684D01*
X605669Y-351684D02*
X605791Y-351682D01*
X605914Y-351676D01*
X606036Y-351667D01*
X606157Y-351653D01*
X606278Y-351636D01*
X606399Y-351615D01*
X606519Y-351590D01*
X606638Y-351562D01*
X606756Y-351529D01*
X606873Y-351493D01*
X606988Y-351454D01*
X607103Y-351410D01*
X607216Y-351364D01*
X607327Y-351313D01*
X607437Y-351259D01*
X607545Y-351202D01*
X607652Y-351142D01*
X607756Y-351078D01*
X607858Y-351010D01*
X607958Y-350940D01*
X608056Y-350867D01*
X608152Y-350790D01*
X608245Y-350711D01*
X608335Y-350628D01*
X608423Y-350543D01*
X608508Y-350455D01*
X608591Y-350365D01*
X608670Y-350272D01*
X608747Y-350176D01*
X608820Y-350078D01*
X608890Y-349978D01*
X608958Y-349876D01*
X609022Y-349772D01*
X609082Y-349665D01*
X609139Y-349557D01*
X609193Y-349447D01*
X609244Y-349336D01*
X609290Y-349223D01*
X609334Y-349108D01*
X609373Y-348993D01*
X609409Y-348876D01*
X609442Y-348758D01*
X609470Y-348639D01*
X609495Y-348519D01*
X609516Y-348398D01*
X609533Y-348277D01*
X609547Y-348156D01*
X609556Y-348034D01*
X609562Y-347911D01*
X609564Y-347789D01*
X609564Y-340000D01*
X609562Y-339878D01*
X609556Y-339755D01*
X609547Y-339633D01*
X609533Y-339512D01*
X609516Y-339391D01*
X609495Y-339270D01*
X609470Y-339150D01*
X609442Y-339031D01*
X609409Y-338913D01*
X609373Y-338796D01*
X609334Y-338681D01*
X609290Y-338566D01*
X609244Y-338453D01*
X609193Y-338342D01*
X609139Y-338232D01*
X609082Y-338124D01*
X609022Y-338017D01*
X608958Y-337913D01*
X608890Y-337811D01*
X608820Y-337711D01*
X608747Y-337613D01*
X608670Y-337517D01*
X608591Y-337424D01*
X608508Y-337334D01*
X608423Y-337246D01*
X608335Y-337161D01*
X608245Y-337078D01*
X608152Y-336999D01*
X608056Y-336922D01*
X607958Y-336849D01*
X607858Y-336779D01*
X607756Y-336711D01*
X607652Y-336647D01*
X607545Y-336587D01*
X607437Y-336530D01*
X607327Y-336476D01*
X607216Y-336425D01*
X607103Y-336379D01*
X606988Y-336335D01*
X606873Y-336296D01*
X606756Y-336260D01*
X606638Y-336227D01*
X606519Y-336199D01*
X606399Y-336174D01*
X606278Y-336153D01*
X606157Y-336136D01*
X606036Y-336122D01*
X605914Y-336113D01*
X605791Y-336107D01*
X605669Y-336105D01*
X600476Y-336105D01*
X588591Y-340000D02*
X588597Y-340535D01*
X588617Y-341069D01*
X588649Y-341603D01*
X588694Y-342136D01*
X588752Y-342667D01*
X588822Y-343197D01*
X588905Y-343726D01*
X589001Y-344252D01*
X589110Y-344775D01*
X589231Y-345296D01*
X589365Y-345814D01*
X589511Y-346328D01*
X589669Y-346839D01*
X589840Y-347346D01*
X590022Y-347848D01*
X590217Y-348346D01*
X590424Y-348840D01*
X590642Y-349328D01*
X590873Y-349810D01*
X591114Y-350287D01*
X591367Y-350758D01*
X591632Y-351223D01*
X591907Y-351681D01*
X592194Y-352133D01*
X592491Y-352577D01*
X592799Y-353015D01*
X593117Y-353444D01*
X593445Y-353866D01*
X593784Y-354280D01*
X588591Y-340000D02*
X588597Y-339465D01*
X588617Y-338931D01*
X588649Y-338397D01*
X588694Y-337864D01*
X588752Y-337333D01*
X588822Y-336803D01*
X588905Y-336274D01*
X589001Y-335748D01*
X589110Y-335225D01*
X589231Y-334704D01*
X589365Y-334186D01*
X589511Y-333672D01*
X589669Y-333161D01*
X589840Y-332654D01*
X590022Y-332152D01*
X590217Y-331654D01*
X590424Y-331160D01*
X590642Y-330672D01*
X590873Y-330190D01*
X591114Y-329713D01*
X591367Y-329242D01*
X591632Y-328777D01*
X591907Y-328319D01*
X592194Y-327867D01*
X592491Y-327423D01*
X592799Y-326985D01*
X593117Y-326556D01*
X593445Y-326134D01*
X593784Y-325720D01*
X561979Y-328316D02*
X561829Y-328318D01*
X561678Y-328324D01*
X561528Y-328333D01*
X561378Y-328347D01*
X561229Y-328364D01*
X561080Y-328386D01*
X560932Y-328411D01*
X560784Y-328440D01*
X560637Y-328472D01*
X560491Y-328509D01*
X560346Y-328549D01*
X560202Y-328593D01*
X560060Y-328640D01*
X559918Y-328692D01*
X559778Y-328746D01*
X559640Y-328805D01*
X559502Y-328867D01*
X559367Y-328932D01*
X559233Y-329001D01*
X559102Y-329074D01*
X558972Y-329150D01*
X558844Y-329229D01*
X558718Y-329311D01*
X558594Y-329397D01*
X558473Y-329485D01*
X558353Y-329577D01*
X558237Y-329672D01*
X558122Y-329770D01*
X558011Y-329871D01*
X557902Y-329974D01*
X557795Y-330081D01*
X557692Y-330190D01*
X557591Y-330301D01*
X557493Y-330416D01*
X557398Y-330532D01*
X557306Y-330652D01*
X557218Y-330773D01*
X557132Y-330897D01*
X557050Y-331023D01*
X556971Y-331151D01*
X556895Y-331281D01*
X556822Y-331412D01*
X556753Y-331546D01*
X556688Y-331681D01*
X556626Y-331819D01*
X556567Y-331957D01*
X556513Y-332097D01*
X556461Y-332239D01*
X556414Y-332381D01*
X556370Y-332525D01*
X556330Y-332670D01*
X556293Y-332816D01*
X556261Y-332963D01*
X556232Y-333111D01*
X556207Y-333259D01*
X556185Y-333408D01*
X556168Y-333557D01*
X556154Y-333707D01*
X556145Y-333857D01*
X556139Y-334008D01*
X556137Y-334158D01*
X561979Y-328316D02*
X562160Y-328318D01*
X562342Y-328325D01*
X562523Y-328336D01*
X562704Y-328351D01*
X562884Y-328371D01*
X563064Y-328395D01*
X563243Y-328423D01*
X563422Y-328456D01*
X563600Y-328493D01*
X563776Y-328534D01*
X563952Y-328580D01*
X564127Y-328630D01*
X564300Y-328684D01*
X564472Y-328742D01*
X564642Y-328804D01*
X564811Y-328871D01*
X564978Y-328941D01*
X565144Y-329016D01*
X565308Y-329094D01*
X565469Y-329177D01*
X565629Y-329263D01*
X565786Y-329353D01*
X565942Y-329447D01*
X566095Y-329545D01*
X566245Y-329646D01*
X566393Y-329751D01*
X566539Y-329860D01*
X566682Y-329972D01*
X566822Y-330087D01*
X566959Y-330206D01*
X567093Y-330328D01*
X567225Y-330454D01*
X567353Y-330582D01*
X567478Y-330713D01*
X567600Y-330848D01*
X567718Y-330985D01*
X567834Y-331125D01*
X567946Y-331268D01*
X568054Y-331414D01*
X568159Y-331562D01*
X568260Y-331713D01*
X568357Y-331866D01*
X568451Y-332021D01*
X568541Y-332179D01*
X568627Y-332339D01*
X568710Y-332501D01*
X568788Y-332664D01*
X568862Y-332830D01*
X568933Y-332997D01*
X568999Y-333166D01*
X569061Y-333337D01*
X569119Y-333509D01*
X558084Y-338702D02*
X557974Y-338594D01*
X557867Y-338484D01*
X557762Y-338371D01*
X557660Y-338256D01*
X557561Y-338138D01*
X557465Y-338018D01*
X557371Y-337895D01*
X557281Y-337771D01*
X557194Y-337644D01*
X557110Y-337515D01*
X557029Y-337383D01*
X556952Y-337250D01*
X556878Y-337116D01*
X556807Y-336979D01*
X556739Y-336840D01*
X556675Y-336700D01*
X556614Y-336559D01*
X556557Y-336416D01*
X556504Y-336272D01*
X556454Y-336126D01*
X556407Y-335979D01*
X556364Y-335831D01*
X556325Y-335682D01*
X556289Y-335533D01*
X556258Y-335382D01*
X556229Y-335231D01*
X556205Y-335079D01*
X556184Y-334926D01*
X556167Y-334773D01*
X556154Y-334620D01*
X556145Y-334466D01*
X556139Y-334312D01*
X556137Y-334158D01*
X558084Y-338702D02*
X569119Y-351684D01*
X556137Y-351684D01*
X548240Y-340000D02*
X548235Y-339540D01*
X548218Y-339081D01*
X548191Y-338622D01*
X548152Y-338164D01*
X548103Y-337707D01*
X548043Y-337251D01*
X547972Y-336797D01*
X547890Y-336344D01*
X547797Y-335894D01*
X547694Y-335446D01*
X547580Y-335001D01*
X547455Y-334558D01*
X547320Y-334119D01*
X547174Y-333683D01*
X547018Y-333251D01*
X546852Y-332822D01*
X546676Y-332397D01*
X546489Y-331977D01*
X546293Y-331562D01*
X546292Y-331561D02*
X546247Y-331434D01*
X546197Y-331308D01*
X546145Y-331183D01*
X546088Y-331060D01*
X546028Y-330938D01*
X545965Y-330819D01*
X545899Y-330701D01*
X545829Y-330585D01*
X545756Y-330471D01*
X545680Y-330359D01*
X545600Y-330249D01*
X545518Y-330142D01*
X545432Y-330037D01*
X545344Y-329934D01*
X545253Y-329834D01*
X545159Y-329736D01*
X545062Y-329642D01*
X544963Y-329550D01*
X544861Y-329460D01*
X544757Y-329374D01*
X544650Y-329291D01*
X544541Y-329211D01*
X544429Y-329134D01*
X544316Y-329060D01*
X544201Y-328989D01*
X544083Y-328921D01*
X543964Y-328857D01*
X543843Y-328796D01*
X543720Y-328739D01*
X543596Y-328685D01*
X543470Y-328635D01*
X543343Y-328588D01*
X543215Y-328545D01*
X543085Y-328506D01*
X542955Y-328470D01*
X542823Y-328438D01*
X542691Y-328409D01*
X542558Y-328385D01*
X542424Y-328364D01*
X542290Y-328347D01*
X542155Y-328333D01*
X542020Y-328324D01*
X541884Y-328318D01*
X541749Y-328316D01*
X541614Y-328318D01*
X541478Y-328324D01*
X541343Y-328333D01*
X541209Y-328347D01*
X541074Y-328364D01*
X540940Y-328385D01*
X540807Y-328409D01*
X540675Y-328438D01*
X540543Y-328470D01*
X540413Y-328506D01*
X540283Y-328545D01*
X540155Y-328588D01*
X540028Y-328635D01*
X539902Y-328685D01*
X539778Y-328739D01*
X539655Y-328796D01*
X539534Y-328857D01*
X539415Y-328921D01*
X539297Y-328989D01*
X539182Y-329060D01*
X539069Y-329133D01*
X538957Y-329211D01*
X538848Y-329291D01*
X538741Y-329374D01*
X538637Y-329460D01*
X538535Y-329550D01*
X538436Y-329642D01*
X538339Y-329736D01*
X538245Y-329834D01*
X538154Y-329934D01*
X538066Y-330037D01*
X537980Y-330142D01*
X537898Y-330249D01*
X537818Y-330359D01*
X537742Y-330471D01*
X537669Y-330585D01*
X537599Y-330701D01*
X537533Y-330819D01*
X537470Y-330938D01*
X537410Y-331060D01*
X537353Y-331183D01*
X537301Y-331308D01*
X537251Y-331434D01*
X537206Y-331561D01*
X537205Y-331561D02*
X537009Y-331977D01*
X536822Y-332397D01*
X536646Y-332822D01*
X536480Y-333250D01*
X536324Y-333683D01*
X536178Y-334119D01*
X536043Y-334558D01*
X535918Y-335001D01*
X535804Y-335446D01*
X535701Y-335894D01*
X535608Y-336344D01*
X535526Y-336797D01*
X535455Y-337251D01*
X535395Y-337707D01*
X535346Y-338164D01*
X535307Y-338622D01*
X535280Y-339081D01*
X535263Y-339540D01*
X535258Y-340000D01*
X548240Y-340000D02*
X548235Y-340460D01*
X548218Y-340919D01*
X548191Y-341378D01*
X548152Y-341836D01*
X548103Y-342293D01*
X548043Y-342749D01*
X547972Y-343203D01*
X547890Y-343656D01*
X547797Y-344106D01*
X547694Y-344554D01*
X547580Y-344999D01*
X547455Y-345442D01*
X547320Y-345881D01*
X547174Y-346317D01*
X547018Y-346749D01*
X546852Y-347178D01*
X546676Y-347603D01*
X546489Y-348023D01*
X546293Y-348438D01*
X546292Y-348439D02*
X546247Y-348566D01*
X546197Y-348692D01*
X546145Y-348817D01*
X546088Y-348940D01*
X546028Y-349062D01*
X545965Y-349181D01*
X545899Y-349299D01*
X545829Y-349415D01*
X545756Y-349529D01*
X545680Y-349641D01*
X545600Y-349751D01*
X545518Y-349858D01*
X545432Y-349963D01*
X545344Y-350066D01*
X545253Y-350166D01*
X545159Y-350264D01*
X545062Y-350358D01*
X544963Y-350450D01*
X544861Y-350540D01*
X544756Y-350626D01*
X544650Y-350709D01*
X544541Y-350789D01*
X544429Y-350867D01*
X544316Y-350940D01*
X544201Y-351011D01*
X544083Y-351079D01*
X543964Y-351143D01*
X543843Y-351204D01*
X543720Y-351261D01*
X543596Y-351315D01*
X543470Y-351365D01*
X543343Y-351412D01*
X543215Y-351455D01*
X543085Y-351494D01*
X542955Y-351530D01*
X542823Y-351562D01*
X542691Y-351591D01*
X542558Y-351615D01*
X542424Y-351636D01*
X542289Y-351653D01*
X542155Y-351667D01*
X542020Y-351676D01*
X541884Y-351682D01*
X541749Y-351684D01*
X537205Y-348439D02*
X537009Y-348023D01*
X536822Y-347603D01*
X536646Y-347178D01*
X536480Y-346750D01*
X536324Y-346317D01*
X536178Y-345881D01*
X536043Y-345442D01*
X535918Y-344999D01*
X535804Y-344554D01*
X535701Y-344106D01*
X535608Y-343656D01*
X535526Y-343203D01*
X535455Y-342749D01*
X535395Y-342293D01*
X535346Y-341836D01*
X535307Y-341378D01*
X535280Y-340919D01*
X535263Y-340460D01*
X535258Y-340000D01*
X537206Y-348439D02*
X537251Y-348566D01*
X537301Y-348692D01*
X537353Y-348817D01*
X537410Y-348940D01*
X537470Y-349062D01*
X537533Y-349181D01*
X537599Y-349299D01*
X537669Y-349415D01*
X537742Y-349529D01*
X537818Y-349641D01*
X537898Y-349751D01*
X537980Y-349858D01*
X538066Y-349963D01*
X538154Y-350066D01*
X538245Y-350166D01*
X538339Y-350264D01*
X538436Y-350358D01*
X538535Y-350450D01*
X538637Y-350540D01*
X538742Y-350626D01*
X538848Y-350709D01*
X538957Y-350789D01*
X539069Y-350867D01*
X539182Y-350940D01*
X539297Y-351011D01*
X539415Y-351079D01*
X539534Y-351143D01*
X539655Y-351204D01*
X539778Y-351261D01*
X539902Y-351315D01*
X540028Y-351365D01*
X540155Y-351412D01*
X540283Y-351455D01*
X540413Y-351494D01*
X540543Y-351530D01*
X540675Y-351562D01*
X540807Y-351591D01*
X540940Y-351615D01*
X541074Y-351636D01*
X541209Y-351653D01*
X541343Y-351667D01*
X541478Y-351676D01*
X541614Y-351682D01*
X541749Y-351684D01*
X546942Y-346491D02*
X536556Y-333509D01*
X520221Y-328316D02*
X520071Y-328318D01*
X519920Y-328324D01*
X519770Y-328333D01*
X519620Y-328347D01*
X519471Y-328364D01*
X519322Y-328386D01*
X519174Y-328411D01*
X519026Y-328440D01*
X518879Y-328472D01*
X518733Y-328509D01*
X518588Y-328549D01*
X518444Y-328593D01*
X518302Y-328640D01*
X518160Y-328692D01*
X518020Y-328746D01*
X517882Y-328805D01*
X517744Y-328867D01*
X517609Y-328932D01*
X517475Y-329001D01*
X517344Y-329074D01*
X517214Y-329150D01*
X517086Y-329229D01*
X516960Y-329311D01*
X516836Y-329397D01*
X516715Y-329485D01*
X516595Y-329577D01*
X516479Y-329672D01*
X516364Y-329770D01*
X516253Y-329871D01*
X516144Y-329974D01*
X516037Y-330081D01*
X515934Y-330190D01*
X515833Y-330301D01*
X515735Y-330416D01*
X515640Y-330532D01*
X515548Y-330652D01*
X515460Y-330773D01*
X515374Y-330897D01*
X515292Y-331023D01*
X515213Y-331151D01*
X515137Y-331281D01*
X515064Y-331412D01*
X514995Y-331546D01*
X514930Y-331681D01*
X514868Y-331819D01*
X514809Y-331957D01*
X514755Y-332097D01*
X514703Y-332239D01*
X514656Y-332381D01*
X514612Y-332525D01*
X514572Y-332670D01*
X514535Y-332816D01*
X514503Y-332963D01*
X514474Y-333111D01*
X514449Y-333259D01*
X514427Y-333408D01*
X514410Y-333557D01*
X514396Y-333707D01*
X514387Y-333857D01*
X514381Y-334008D01*
X514379Y-334158D01*
X520221Y-328316D02*
X520402Y-328318D01*
X520584Y-328325D01*
X520765Y-328336D01*
X520946Y-328351D01*
X521126Y-328371D01*
X521306Y-328395D01*
X521485Y-328423D01*
X521664Y-328456D01*
X521842Y-328493D01*
X522018Y-328534D01*
X522194Y-328580D01*
X522369Y-328630D01*
X522542Y-328684D01*
X522714Y-328742D01*
X522884Y-328804D01*
X523053Y-328871D01*
X523220Y-328941D01*
X523386Y-329016D01*
X523550Y-329094D01*
X523711Y-329177D01*
X523871Y-329263D01*
X524028Y-329353D01*
X524184Y-329447D01*
X524337Y-329545D01*
X524487Y-329646D01*
X524635Y-329751D01*
X524781Y-329860D01*
X524924Y-329972D01*
X525064Y-330087D01*
X525201Y-330206D01*
X525335Y-330328D01*
X525467Y-330454D01*
X525595Y-330582D01*
X525720Y-330713D01*
X525842Y-330848D01*
X525960Y-330985D01*
X526076Y-331125D01*
X526188Y-331268D01*
X526296Y-331414D01*
X526401Y-331562D01*
X526502Y-331713D01*
X526599Y-331866D01*
X526693Y-332021D01*
X526783Y-332179D01*
X526869Y-332339D01*
X526952Y-332501D01*
X527030Y-332664D01*
X527104Y-332830D01*
X527175Y-332997D01*
X527241Y-333166D01*
X527303Y-333337D01*
X527361Y-333509D01*
X516326Y-338702D02*
X516216Y-338594D01*
X516109Y-338484D01*
X516004Y-338371D01*
X515902Y-338256D01*
X515803Y-338138D01*
X515707Y-338018D01*
X515613Y-337895D01*
X515523Y-337771D01*
X515436Y-337644D01*
X515352Y-337515D01*
X515271Y-337383D01*
X515194Y-337250D01*
X515120Y-337116D01*
X515049Y-336979D01*
X514981Y-336840D01*
X514917Y-336700D01*
X514856Y-336559D01*
X514799Y-336416D01*
X514746Y-336272D01*
X514696Y-336126D01*
X514649Y-335979D01*
X514606Y-335831D01*
X514567Y-335682D01*
X514531Y-335533D01*
X514500Y-335382D01*
X514471Y-335231D01*
X514447Y-335079D01*
X514426Y-334926D01*
X514409Y-334773D01*
X514396Y-334620D01*
X514387Y-334466D01*
X514381Y-334312D01*
X514379Y-334158D01*
X516327Y-338702D02*
X527361Y-351684D01*
X514379Y-351684D01*
X506483Y-351684D02*
X498693Y-351684D01*
X498550Y-351682D01*
X498407Y-351676D01*
X498264Y-351666D01*
X498122Y-351652D01*
X497980Y-351635D01*
X497838Y-351613D01*
X497697Y-351588D01*
X497557Y-351558D01*
X497418Y-351525D01*
X497280Y-351488D01*
X497143Y-351447D01*
X497007Y-351403D01*
X496872Y-351354D01*
X496739Y-351302D01*
X496607Y-351247D01*
X496477Y-351187D01*
X496348Y-351124D01*
X496221Y-351058D01*
X496097Y-350988D01*
X495974Y-350915D01*
X495853Y-350838D01*
X495734Y-350759D01*
X495618Y-350675D01*
X495503Y-350589D01*
X495392Y-350500D01*
X495283Y-350407D01*
X495176Y-350312D01*
X495072Y-350213D01*
X494971Y-350112D01*
X494872Y-350008D01*
X494777Y-349902D01*
X494684Y-349792D01*
X494595Y-349681D01*
X494509Y-349567D01*
X494426Y-349450D01*
X494346Y-349331D01*
X494269Y-349210D01*
X494196Y-349088D01*
X494126Y-348963D01*
X494060Y-348836D01*
X493997Y-348707D01*
X493937Y-348577D01*
X493882Y-348445D01*
X493830Y-348312D01*
X493781Y-348177D01*
X493737Y-348041D01*
X493696Y-347904D01*
X493659Y-347766D01*
X493626Y-347627D01*
X493596Y-347487D01*
X493571Y-347346D01*
X493549Y-347204D01*
X493532Y-347062D01*
X493518Y-346920D01*
X493508Y-346777D01*
X493502Y-346634D01*
X493500Y-346491D01*
X493500Y-343895D01*
X493502Y-343752D01*
X493508Y-343609D01*
X493518Y-343466D01*
X493532Y-343324D01*
X493549Y-343182D01*
X493571Y-343040D01*
X493596Y-342899D01*
X493626Y-342759D01*
X493659Y-342620D01*
X493696Y-342482D01*
X493737Y-342345D01*
X493781Y-342209D01*
X493830Y-342074D01*
X493882Y-341941D01*
X493937Y-341809D01*
X493997Y-341679D01*
X494060Y-341550D01*
X494126Y-341423D01*
X494196Y-341299D01*
X494269Y-341176D01*
X494346Y-341055D01*
X494426Y-340936D01*
X494509Y-340820D01*
X494595Y-340705D01*
X494684Y-340594D01*
X494777Y-340484D01*
X494872Y-340378D01*
X494971Y-340274D01*
X495072Y-340173D01*
X495176Y-340074D01*
X495282Y-339979D01*
X495392Y-339886D01*
X495503Y-339797D01*
X495618Y-339711D01*
X495734Y-339628D01*
X495853Y-339548D01*
X495974Y-339471D01*
X496097Y-339398D01*
X496221Y-339328D01*
X496348Y-339262D01*
X496477Y-339199D01*
X496607Y-339139D01*
X496739Y-339084D01*
X496872Y-339032D01*
X497007Y-338983D01*
X497143Y-338939D01*
X497280Y-338898D01*
X497418Y-338861D01*
X497557Y-338828D01*
X497697Y-338798D01*
X497838Y-338773D01*
X497980Y-338751D01*
X498122Y-338734D01*
X498264Y-338720D01*
X498407Y-338710D01*
X498550Y-338704D01*
X498693Y-338702D01*
X506483Y-338702D01*
X506483Y-328316D01*
X493500Y-328316D01*
M02*
