G04 EAGLE Gerber RS-274X export*
G75*
%MOMM*%
%FSLAX34Y34*%
%LPD*%
%INSilkscreen Top*%
%IPPOS*%
%AMOC8*
5,1,8,0,0,1.08239X$1,22.5*%
G01*
G04 Define Apertures*
%ADD10C,0.203200*%
%ADD11C,0.304800*%
G36*
X715218Y404922D02*
X714591Y404931D01*
X713903Y404957D01*
X713154Y405001D01*
X712343Y405062D01*
X711427Y405124D01*
X710362Y405168D01*
X709148Y405194D01*
X707784Y405203D01*
X706562Y405194D01*
X705488Y405168D01*
X704563Y405124D01*
X703787Y405062D01*
X703099Y405001D01*
X702437Y404957D01*
X701802Y404931D01*
X701192Y404922D01*
X700871Y404933D01*
X700574Y404966D01*
X700301Y405021D01*
X700053Y405097D01*
X699828Y405196D01*
X699628Y405317D01*
X699451Y405459D01*
X699299Y405623D01*
X699167Y405801D01*
X699053Y405983D01*
X698957Y406169D01*
X698878Y406360D01*
X698817Y406555D01*
X698773Y406754D01*
X698747Y406958D01*
X698738Y407166D01*
X698745Y407490D01*
X698766Y407793D01*
X698801Y408077D01*
X698850Y408341D01*
X698912Y408585D01*
X698989Y408810D01*
X699080Y409015D01*
X699185Y409200D01*
X699304Y409365D01*
X699436Y409511D01*
X699583Y409637D01*
X699744Y409744D01*
X699918Y409830D01*
X700107Y409897D01*
X700310Y409944D01*
X700526Y409971D01*
X700743Y410009D01*
X700945Y410086D01*
X701134Y410204D01*
X701308Y410362D01*
X701469Y410559D01*
X701616Y410797D01*
X701749Y411074D01*
X701867Y411392D01*
X701972Y411749D01*
X702063Y412147D01*
X702140Y412584D01*
X702203Y413061D01*
X702251Y413579D01*
X702286Y414136D01*
X702307Y414734D01*
X702314Y415371D01*
X702314Y452750D01*
X702306Y453251D01*
X702283Y453717D01*
X702243Y454149D01*
X702187Y454547D01*
X702116Y454912D01*
X702028Y455242D01*
X701925Y455539D01*
X701806Y455801D01*
X701671Y456029D01*
X701520Y456224D01*
X701353Y456384D01*
X701170Y456511D01*
X700972Y456604D01*
X700757Y456662D01*
X700527Y456687D01*
X700281Y456678D01*
X700034Y456663D01*
X699804Y456671D01*
X699589Y456702D01*
X699391Y456756D01*
X699208Y456834D01*
X699041Y456934D01*
X698890Y457057D01*
X698755Y457204D01*
X698636Y457373D01*
X698533Y457565D01*
X698445Y457780D01*
X698374Y458019D01*
X698318Y458280D01*
X698279Y458565D01*
X698255Y458872D01*
X698247Y459202D01*
X698268Y459529D01*
X698332Y459844D01*
X698439Y460147D01*
X698589Y460438D01*
X698781Y460717D01*
X699016Y460984D01*
X699294Y461239D01*
X699614Y461481D01*
X700462Y462027D01*
X701639Y462717D01*
X703145Y463552D01*
X704979Y464532D01*
X709047Y466636D01*
X709621Y466912D01*
X710151Y467109D01*
X710400Y467178D01*
X710638Y467228D01*
X710865Y467257D01*
X711081Y467267D01*
X711463Y467244D01*
X711806Y467175D01*
X712108Y467060D01*
X712369Y466899D01*
X712590Y466692D01*
X712770Y466439D01*
X712910Y466140D01*
X713009Y465794D01*
X713147Y465093D01*
X713246Y464462D01*
X713305Y463901D01*
X713325Y463410D01*
X713325Y460044D01*
X713798Y460867D01*
X714306Y461655D01*
X714850Y462406D01*
X715429Y463121D01*
X716042Y463800D01*
X716691Y464442D01*
X717375Y465049D01*
X718093Y465619D01*
X718467Y465887D01*
X718851Y466137D01*
X719245Y466370D01*
X719649Y466586D01*
X720064Y466784D01*
X720490Y466965D01*
X720926Y467129D01*
X721372Y467276D01*
X721829Y467405D01*
X722296Y467518D01*
X722773Y467612D01*
X723261Y467690D01*
X723759Y467751D01*
X724268Y467794D01*
X724787Y467820D01*
X725317Y467828D01*
X725692Y467822D01*
X726065Y467802D01*
X726435Y467769D01*
X726803Y467723D01*
X727529Y467591D01*
X728245Y467407D01*
X728949Y467171D01*
X729643Y466881D01*
X730326Y466540D01*
X730997Y466145D01*
X731652Y465703D01*
X732284Y465218D01*
X732892Y464690D01*
X733478Y464120D01*
X734041Y463507D01*
X734580Y462851D01*
X735097Y462153D01*
X735591Y461411D01*
X736060Y460628D01*
X736505Y459805D01*
X736924Y458941D01*
X737318Y458036D01*
X737686Y457091D01*
X738030Y456106D01*
X738348Y455079D01*
X738641Y454013D01*
X738921Y452928D01*
X739163Y451812D01*
X739368Y450666D01*
X739536Y449489D01*
X739666Y448282D01*
X739759Y447044D01*
X739815Y445775D01*
X739834Y444475D01*
X739813Y443106D01*
X739750Y441771D01*
X739646Y440468D01*
X739500Y439198D01*
X739313Y437961D01*
X739084Y436756D01*
X738813Y435585D01*
X738501Y434447D01*
X738170Y433345D01*
X737809Y432286D01*
X737416Y431268D01*
X736993Y430291D01*
X736540Y429357D01*
X736055Y428464D01*
X735540Y427612D01*
X734995Y426802D01*
X734422Y426037D01*
X733824Y425317D01*
X733203Y424643D01*
X732558Y424015D01*
X731888Y423433D01*
X731195Y422897D01*
X730477Y422407D01*
X729735Y421964D01*
X728972Y421569D01*
X728192Y421227D01*
X727394Y420938D01*
X726579Y420701D01*
X725746Y420517D01*
X725323Y420445D01*
X724896Y420386D01*
X724464Y420340D01*
X724028Y420307D01*
X723588Y420287D01*
X723143Y420280D01*
X722188Y420300D01*
X721287Y420357D01*
X720439Y420453D01*
X719645Y420587D01*
X718905Y420760D01*
X718218Y420971D01*
X717586Y421220D01*
X717006Y421508D01*
X716466Y421821D01*
X715948Y422145D01*
X715453Y422482D01*
X714981Y422831D01*
X714533Y423192D01*
X714107Y423566D01*
X713704Y423951D01*
X713325Y424348D01*
X713325Y415371D01*
X713333Y414743D01*
X713359Y414153D01*
X713401Y413604D01*
X713461Y413094D01*
X713537Y412624D01*
X713630Y412194D01*
X713741Y411804D01*
X713868Y411453D01*
X714013Y411142D01*
X714174Y410871D01*
X714352Y410639D01*
X714548Y410447D01*
X714760Y410295D01*
X714989Y410182D01*
X715235Y410110D01*
X715499Y410077D01*
X715762Y410053D01*
X716008Y410008D01*
X716238Y409942D01*
X716450Y409855D01*
X716645Y409747D01*
X716823Y409618D01*
X716985Y409468D01*
X717129Y409296D01*
X717257Y409104D01*
X717367Y408890D01*
X717460Y408656D01*
X717537Y408400D01*
X717596Y408123D01*
X717639Y407825D01*
X717664Y407506D01*
X717673Y407166D01*
X717663Y406974D01*
X717635Y406783D01*
X717589Y406593D01*
X717524Y406404D01*
X717440Y406216D01*
X717337Y406029D01*
X717077Y405658D01*
X716917Y405486D01*
X716737Y405336D01*
X716536Y405210D01*
X716314Y405106D01*
X716071Y405026D01*
X715808Y404968D01*
X715523Y404934D01*
X715218Y404922D01*
G37*
%LPC*%
G36*
X721390Y426031D02*
X721737Y426047D01*
X722077Y426093D01*
X722411Y426170D01*
X722737Y426279D01*
X723057Y426418D01*
X723370Y426588D01*
X723676Y426789D01*
X723976Y427022D01*
X724268Y427285D01*
X724554Y427579D01*
X724832Y427904D01*
X725104Y428260D01*
X725369Y428647D01*
X725627Y429065D01*
X725879Y429514D01*
X726123Y429993D01*
X726357Y430503D01*
X726575Y431040D01*
X726779Y431606D01*
X726967Y432200D01*
X727140Y432823D01*
X727298Y433473D01*
X727442Y434152D01*
X727570Y434859D01*
X727683Y435594D01*
X727781Y436357D01*
X727864Y437149D01*
X727931Y437968D01*
X727984Y438816D01*
X728022Y439693D01*
X728044Y440597D01*
X728052Y441530D01*
X728042Y442503D01*
X728012Y443458D01*
X727963Y444396D01*
X727894Y445317D01*
X727805Y446220D01*
X727697Y447105D01*
X727569Y447973D01*
X727421Y448823D01*
X727256Y449650D01*
X727079Y450449D01*
X726888Y451220D01*
X726684Y451961D01*
X726467Y452675D01*
X726237Y453360D01*
X725994Y454016D01*
X725738Y454644D01*
X725468Y455241D01*
X725185Y455805D01*
X724889Y456337D01*
X724580Y456835D01*
X724258Y457301D01*
X723923Y457734D01*
X723575Y458134D01*
X723213Y458501D01*
X722859Y458813D01*
X722498Y459084D01*
X722131Y459313D01*
X721758Y459500D01*
X721377Y459646D01*
X720991Y459750D01*
X720597Y459813D01*
X720197Y459833D01*
X719833Y459819D01*
X719476Y459775D01*
X719127Y459703D01*
X718786Y459601D01*
X718452Y459470D01*
X718126Y459311D01*
X717808Y459122D01*
X717497Y458904D01*
X717194Y458657D01*
X716899Y458382D01*
X716611Y458077D01*
X716331Y457743D01*
X716059Y457380D01*
X715795Y456988D01*
X715538Y456567D01*
X715288Y456117D01*
X715051Y455641D01*
X714828Y455145D01*
X714621Y454627D01*
X714429Y454087D01*
X714253Y453526D01*
X714092Y452944D01*
X713946Y452341D01*
X713816Y451716D01*
X713701Y451070D01*
X713601Y450402D01*
X713516Y449713D01*
X713447Y449003D01*
X713394Y448271D01*
X713355Y447518D01*
X713332Y446744D01*
X713325Y445948D01*
X713325Y441179D01*
X713333Y440347D01*
X713359Y439535D01*
X713401Y438743D01*
X713461Y437971D01*
X713537Y437218D01*
X713630Y436485D01*
X713741Y435771D01*
X713868Y435078D01*
X714013Y434404D01*
X714174Y433750D01*
X714352Y433115D01*
X714548Y432500D01*
X714760Y431905D01*
X714989Y431330D01*
X715235Y430775D01*
X715499Y430239D01*
X715776Y429729D01*
X716066Y429253D01*
X716368Y428809D01*
X716682Y428398D01*
X717008Y428020D01*
X717346Y427675D01*
X717696Y427362D01*
X718058Y427083D01*
X718433Y426836D01*
X718819Y426623D01*
X719217Y426442D01*
X719628Y426294D01*
X720050Y426179D01*
X720484Y426097D01*
X720931Y426047D01*
X721390Y426031D01*
G37*
%LPD*%
G36*
X693548Y421262D02*
X692910Y421271D01*
X692260Y421297D01*
X691596Y421341D01*
X690918Y421403D01*
X690153Y421464D01*
X689226Y421508D01*
X688137Y421534D01*
X686886Y421543D01*
X685575Y421534D01*
X684449Y421508D01*
X683507Y421464D01*
X682748Y421403D01*
X682086Y421341D01*
X681433Y421297D01*
X680789Y421271D01*
X680153Y421262D01*
X679831Y421272D01*
X679529Y421302D01*
X679248Y421351D01*
X678988Y421420D01*
X678748Y421509D01*
X678530Y421617D01*
X678332Y421745D01*
X678155Y421893D01*
X677999Y422056D01*
X677863Y422227D01*
X677749Y422406D01*
X677655Y422595D01*
X677582Y422792D01*
X677530Y422998D01*
X677499Y423213D01*
X677489Y423436D01*
X677496Y423743D01*
X677516Y424030D01*
X677551Y424299D01*
X677600Y424550D01*
X677663Y424781D01*
X677740Y424994D01*
X677831Y425189D01*
X677936Y425365D01*
X678054Y425522D01*
X678187Y425661D01*
X678334Y425781D01*
X678494Y425882D01*
X678669Y425965D01*
X678858Y426029D01*
X679060Y426074D01*
X679277Y426101D01*
X679493Y426133D01*
X679696Y426194D01*
X679885Y426284D01*
X680059Y426404D01*
X680220Y426552D01*
X680367Y426729D01*
X680499Y426935D01*
X680618Y427171D01*
X680723Y427435D01*
X680814Y427728D01*
X680891Y428051D01*
X680953Y428402D01*
X681002Y428783D01*
X681037Y429192D01*
X681058Y429631D01*
X681065Y430099D01*
X681039Y430835D01*
X680960Y431782D01*
X680864Y432816D01*
X680785Y433815D01*
X679382Y448192D01*
X679271Y449229D01*
X679148Y450234D01*
X679012Y451210D01*
X678865Y452154D01*
X678705Y453068D01*
X678534Y453951D01*
X678350Y454804D01*
X678155Y455626D01*
X678048Y456016D01*
X677928Y456382D01*
X677797Y456722D01*
X677653Y457037D01*
X677497Y457327D01*
X677328Y457591D01*
X677147Y457831D01*
X676954Y458045D01*
X676748Y458234D01*
X676530Y458398D01*
X676300Y458537D01*
X676057Y458650D01*
X675803Y458738D01*
X675535Y458801D01*
X675256Y458839D01*
X674964Y458852D01*
X674728Y458842D01*
X674495Y458812D01*
X674264Y458763D01*
X674035Y458694D01*
X673808Y458605D01*
X673583Y458497D01*
X673361Y458368D01*
X673141Y458220D01*
X672922Y458053D01*
X672707Y457865D01*
X672281Y457431D01*
X671865Y456919D01*
X671457Y456327D01*
X671262Y455997D01*
X671079Y455637D01*
X670909Y455247D01*
X670752Y454828D01*
X670607Y454379D01*
X670475Y453901D01*
X670355Y453393D01*
X670248Y452856D01*
X670153Y452288D01*
X670071Y451692D01*
X670002Y451066D01*
X669945Y450410D01*
X669901Y449724D01*
X669870Y449009D01*
X669851Y448265D01*
X669844Y447491D01*
X669844Y431782D01*
X669852Y431136D01*
X669876Y430530D01*
X669915Y429964D01*
X669969Y429439D01*
X670040Y428954D01*
X670126Y428509D01*
X670227Y428105D01*
X670344Y427740D01*
X670477Y427417D01*
X670625Y427133D01*
X670789Y426889D01*
X670969Y426686D01*
X671164Y426523D01*
X671375Y426401D01*
X671601Y426319D01*
X671843Y426277D01*
X672085Y426245D01*
X672312Y426194D01*
X672522Y426123D01*
X672718Y426033D01*
X672897Y425924D01*
X673061Y425795D01*
X673209Y425647D01*
X673342Y425479D01*
X673459Y425292D01*
X673561Y425085D01*
X673647Y424859D01*
X673717Y424613D01*
X673772Y424348D01*
X673811Y424064D01*
X673834Y423760D01*
X673842Y423436D01*
X673833Y423260D01*
X673807Y423083D01*
X673763Y422905D01*
X673702Y422726D01*
X673526Y422365D01*
X673281Y421999D01*
X673128Y421826D01*
X672952Y421676D01*
X672752Y421550D01*
X672527Y421446D01*
X672278Y421366D01*
X672005Y421308D01*
X671708Y421274D01*
X671387Y421262D01*
X670771Y421271D01*
X670116Y421297D01*
X669421Y421341D01*
X668687Y421403D01*
X667852Y421464D01*
X666855Y421508D01*
X665696Y421534D01*
X664374Y421543D01*
X663121Y421534D01*
X662025Y421508D01*
X661087Y421464D01*
X660307Y421403D01*
X659623Y421341D01*
X658974Y421297D01*
X658361Y421271D01*
X657782Y421262D01*
X657461Y421274D01*
X657162Y421308D01*
X656886Y421366D01*
X656634Y421446D01*
X656404Y421550D01*
X656198Y421676D01*
X656014Y421826D01*
X655854Y421999D01*
X655593Y422365D01*
X655490Y422546D01*
X655407Y422726D01*
X655341Y422905D01*
X655295Y423083D01*
X655267Y423260D01*
X655258Y423436D01*
X655265Y423760D01*
X655286Y424064D01*
X655322Y424348D01*
X655371Y424613D01*
X655436Y424859D01*
X655514Y425085D01*
X655607Y425292D01*
X655713Y425479D01*
X655834Y425647D01*
X655970Y425795D01*
X656119Y425924D01*
X656283Y426033D01*
X656461Y426123D01*
X656654Y426194D01*
X656860Y426245D01*
X657081Y426277D01*
X657302Y426319D01*
X657508Y426401D01*
X657701Y426523D01*
X657879Y426686D01*
X658042Y426889D01*
X658192Y427133D01*
X658327Y427417D01*
X658448Y427740D01*
X658555Y428105D01*
X658648Y428509D01*
X658726Y428954D01*
X658790Y429439D01*
X658840Y429964D01*
X658876Y430530D01*
X658897Y431136D01*
X658904Y431782D01*
X658904Y447561D01*
X658891Y448571D01*
X658852Y449566D01*
X658786Y450547D01*
X658694Y451514D01*
X658576Y452467D01*
X658431Y453406D01*
X658260Y454330D01*
X658063Y455240D01*
X657950Y455677D01*
X657822Y456086D01*
X657678Y456467D01*
X657519Y456820D01*
X657345Y457145D01*
X657155Y457441D01*
X656950Y457709D01*
X656730Y457949D01*
X656495Y458160D01*
X656244Y458344D01*
X655977Y458499D01*
X655696Y458626D01*
X655399Y458725D01*
X655087Y458795D01*
X654759Y458838D01*
X654416Y458852D01*
X654145Y458841D01*
X653877Y458811D01*
X653611Y458759D01*
X653347Y458687D01*
X653085Y458595D01*
X652825Y458482D01*
X652567Y458348D01*
X652312Y458194D01*
X652059Y458020D01*
X651808Y457824D01*
X651559Y457609D01*
X651313Y457372D01*
X650826Y456838D01*
X650348Y456222D01*
X650119Y455878D01*
X649905Y455505D01*
X649705Y455101D01*
X649520Y454668D01*
X649350Y454205D01*
X649195Y453712D01*
X649054Y453189D01*
X648928Y452636D01*
X648817Y452054D01*
X648721Y451441D01*
X648640Y450799D01*
X648573Y450127D01*
X648522Y449425D01*
X648485Y448693D01*
X648462Y447932D01*
X648455Y447140D01*
X648455Y431782D01*
X648462Y431136D01*
X648484Y430530D01*
X648520Y429964D01*
X648571Y429439D01*
X648636Y428954D01*
X648716Y428509D01*
X648811Y428105D01*
X648920Y427740D01*
X649043Y427417D01*
X649181Y427133D01*
X649333Y426889D01*
X649500Y426686D01*
X649682Y426523D01*
X649878Y426401D01*
X650088Y426319D01*
X650313Y426277D01*
X650538Y426245D01*
X650749Y426194D01*
X650945Y426123D01*
X651126Y426033D01*
X651293Y425924D01*
X651446Y425795D01*
X651584Y425647D01*
X651707Y425479D01*
X651816Y425292D01*
X651910Y425085D01*
X651990Y424859D01*
X652056Y424613D01*
X652107Y424348D01*
X652143Y424064D01*
X652165Y423760D01*
X652172Y423436D01*
X652163Y423260D01*
X652135Y423083D01*
X652088Y422905D01*
X652023Y422726D01*
X651939Y422546D01*
X651837Y422365D01*
X651576Y421999D01*
X651416Y421826D01*
X651236Y421676D01*
X651035Y421550D01*
X650813Y421446D01*
X650570Y421366D01*
X650307Y421308D01*
X650022Y421274D01*
X649717Y421262D01*
X649134Y421271D01*
X648508Y421297D01*
X647837Y421341D01*
X647123Y421403D01*
X646316Y421464D01*
X645369Y421508D01*
X644282Y421534D01*
X643055Y421543D01*
X641771Y421534D01*
X640653Y421508D01*
X639702Y421464D01*
X638917Y421403D01*
X638229Y421341D01*
X637567Y421297D01*
X636932Y421271D01*
X636323Y421262D01*
X636001Y421274D01*
X635702Y421308D01*
X635427Y421366D01*
X635174Y421446D01*
X634945Y421550D01*
X634738Y421676D01*
X634555Y421826D01*
X634394Y421999D01*
X634133Y422365D01*
X634031Y422546D01*
X633947Y422726D01*
X633882Y422905D01*
X633835Y423083D01*
X633807Y423260D01*
X633798Y423436D01*
X633805Y423760D01*
X633827Y424064D01*
X633863Y424348D01*
X633914Y424613D01*
X633979Y424859D01*
X634059Y425085D01*
X634154Y425292D01*
X634263Y425479D01*
X634386Y425647D01*
X634524Y425795D01*
X634676Y425924D01*
X634843Y426033D01*
X635025Y426123D01*
X635221Y426194D01*
X635431Y426245D01*
X635656Y426277D01*
X635881Y426319D01*
X636092Y426401D01*
X636288Y426523D01*
X636469Y426686D01*
X636636Y426889D01*
X636789Y427133D01*
X636927Y427417D01*
X637050Y427740D01*
X637159Y428105D01*
X637253Y428509D01*
X637333Y428954D01*
X637399Y429439D01*
X637449Y429964D01*
X637486Y430530D01*
X637508Y431136D01*
X637515Y431782D01*
X637515Y452750D01*
X637507Y453251D01*
X637482Y453717D01*
X637442Y454149D01*
X637385Y454547D01*
X637313Y454912D01*
X637224Y455242D01*
X637119Y455539D01*
X636998Y455801D01*
X636860Y456029D01*
X636707Y456224D01*
X636537Y456384D01*
X636351Y456511D01*
X636149Y456604D01*
X635931Y456662D01*
X635696Y456687D01*
X635446Y456678D01*
X635195Y456663D01*
X634961Y456671D01*
X634743Y456702D01*
X634541Y456756D01*
X634355Y456834D01*
X634185Y456934D01*
X634032Y457057D01*
X633894Y457204D01*
X633773Y457373D01*
X633668Y457565D01*
X633579Y457780D01*
X633506Y458019D01*
X633450Y458280D01*
X633409Y458565D01*
X633385Y458872D01*
X633377Y459202D01*
X633401Y459546D01*
X633471Y459877D01*
X633589Y460195D01*
X633754Y460500D01*
X633966Y460791D01*
X634225Y461069D01*
X634532Y461335D01*
X634885Y461587D01*
X635777Y462139D01*
X636945Y462814D01*
X638389Y463612D01*
X640110Y464532D01*
X642810Y465970D01*
X643765Y466452D01*
X644458Y466776D01*
X644992Y466991D01*
X645474Y467144D01*
X645904Y467236D01*
X646099Y467259D01*
X646281Y467267D01*
X646648Y467245D01*
X646976Y467179D01*
X647266Y467070D01*
X647517Y466916D01*
X647730Y466719D01*
X647905Y466478D01*
X648041Y466193D01*
X648139Y465865D01*
X648277Y465190D01*
X648376Y464567D01*
X648435Y463997D01*
X648455Y463480D01*
X648455Y458571D01*
X648525Y458571D01*
X648915Y459484D01*
X649349Y460364D01*
X649827Y461211D01*
X650348Y462025D01*
X650914Y462806D01*
X651523Y463555D01*
X652176Y464270D01*
X652873Y464953D01*
X653236Y465276D01*
X653605Y465577D01*
X653981Y465859D01*
X654363Y466119D01*
X654752Y466358D01*
X655148Y466577D01*
X655550Y466775D01*
X655959Y466952D01*
X656374Y467108D01*
X656796Y467243D01*
X657224Y467358D01*
X657659Y467451D01*
X658101Y467524D01*
X658549Y467576D01*
X659004Y467607D01*
X659465Y467618D01*
X659916Y467608D01*
X660356Y467577D01*
X660785Y467525D01*
X661203Y467453D01*
X661611Y467361D01*
X662008Y467248D01*
X662394Y467114D01*
X662770Y466960D01*
X663135Y466786D01*
X663490Y466590D01*
X663833Y466375D01*
X664166Y466138D01*
X664488Y465882D01*
X664800Y465604D01*
X665101Y465306D01*
X665391Y464988D01*
X665943Y464310D01*
X666459Y463592D01*
X666938Y462833D01*
X667381Y462034D01*
X667788Y461194D01*
X668159Y460313D01*
X668494Y459392D01*
X668793Y458431D01*
X669179Y459392D01*
X669603Y460313D01*
X670065Y461194D01*
X670563Y462034D01*
X671099Y462833D01*
X671672Y463592D01*
X672283Y464310D01*
X672930Y464988D01*
X673269Y465306D01*
X673618Y465604D01*
X673979Y465882D01*
X674350Y466138D01*
X674733Y466375D01*
X675126Y466590D01*
X675530Y466786D01*
X675946Y466960D01*
X676372Y467114D01*
X676809Y467248D01*
X677257Y467361D01*
X677716Y467453D01*
X678187Y467525D01*
X678668Y467577D01*
X679160Y467608D01*
X679663Y467618D01*
X680061Y467611D01*
X680449Y467590D01*
X680828Y467556D01*
X681197Y467508D01*
X681556Y467447D01*
X681905Y467371D01*
X682244Y467282D01*
X682573Y467179D01*
X682892Y467063D01*
X683202Y466933D01*
X683502Y466789D01*
X683791Y466632D01*
X684071Y466460D01*
X684342Y466275D01*
X684602Y466077D01*
X684852Y465865D01*
X685329Y465396D01*
X685777Y464900D01*
X686197Y464379D01*
X686588Y463831D01*
X686951Y463257D01*
X687285Y462656D01*
X687590Y462029D01*
X687868Y461376D01*
X688121Y460702D01*
X688354Y460013D01*
X688568Y459309D01*
X688762Y458589D01*
X688936Y457853D01*
X689091Y457103D01*
X689225Y456337D01*
X689340Y455556D01*
X689726Y452575D01*
X690042Y449805D01*
X691865Y432623D01*
X691948Y431859D01*
X692041Y431143D01*
X692142Y430476D01*
X692253Y429857D01*
X692373Y429288D01*
X692501Y428767D01*
X692639Y428295D01*
X692786Y427872D01*
X692941Y427497D01*
X693106Y427172D01*
X693280Y426895D01*
X693463Y426667D01*
X693655Y426487D01*
X693856Y426356D01*
X694066Y426275D01*
X694285Y426241D01*
X694501Y426222D01*
X694704Y426181D01*
X694892Y426119D01*
X695067Y426035D01*
X695228Y425931D01*
X695374Y425804D01*
X695507Y425657D01*
X695626Y425488D01*
X695731Y425297D01*
X695821Y425085D01*
X695898Y424852D01*
X695961Y424598D01*
X696010Y424322D01*
X696045Y424025D01*
X696066Y423706D01*
X696073Y423366D01*
X696062Y423127D01*
X696031Y422902D01*
X695979Y422689D01*
X695906Y422490D01*
X695813Y422303D01*
X695698Y422130D01*
X695563Y421970D01*
X695407Y421823D01*
X695232Y421692D01*
X695041Y421578D01*
X694833Y421481D01*
X694609Y421403D01*
X694368Y421341D01*
X694111Y421297D01*
X693838Y421271D01*
X693548Y421262D01*
G37*
G36*
X755753Y420351D02*
X755095Y420366D01*
X754454Y420411D01*
X753831Y420486D01*
X753224Y420592D01*
X752634Y420727D01*
X752061Y420893D01*
X751505Y421089D01*
X750967Y421315D01*
X750445Y421571D01*
X749940Y421857D01*
X749452Y422174D01*
X748981Y422520D01*
X748527Y422897D01*
X748090Y423304D01*
X747670Y423741D01*
X747267Y424208D01*
X746885Y424698D01*
X746528Y425206D01*
X746195Y425731D01*
X745887Y426272D01*
X745603Y426831D01*
X745344Y427406D01*
X745110Y427999D01*
X744900Y428608D01*
X744716Y429235D01*
X744555Y429878D01*
X744420Y430539D01*
X744309Y431216D01*
X744222Y431911D01*
X744161Y432622D01*
X744124Y433351D01*
X744111Y434096D01*
X744125Y434843D01*
X744167Y435576D01*
X744237Y436296D01*
X744335Y437002D01*
X744461Y437694D01*
X744614Y438373D01*
X744796Y439038D01*
X745006Y439689D01*
X745243Y440326D01*
X745509Y440950D01*
X745802Y441560D01*
X746123Y442156D01*
X746473Y442739D01*
X746850Y443308D01*
X747255Y443863D01*
X747688Y444405D01*
X748146Y444923D01*
X748625Y445408D01*
X749125Y445859D01*
X749647Y446277D01*
X750191Y446661D01*
X750755Y447012D01*
X751341Y447329D01*
X751948Y447613D01*
X752577Y447864D01*
X753227Y448081D01*
X753899Y448265D01*
X754591Y448415D01*
X755306Y448532D01*
X756041Y448616D01*
X756798Y448666D01*
X757576Y448683D01*
X758129Y448675D01*
X758666Y448652D01*
X759185Y448614D01*
X759689Y448560D01*
X760176Y448491D01*
X760647Y448407D01*
X761101Y448307D01*
X761539Y448192D01*
X762374Y447933D01*
X763160Y447648D01*
X763899Y447337D01*
X764589Y447000D01*
X764449Y448192D01*
X764292Y449666D01*
X764103Y451039D01*
X763880Y452309D01*
X763625Y453478D01*
X763485Y454024D01*
X763337Y454545D01*
X763180Y455040D01*
X763016Y455510D01*
X762843Y455954D01*
X762662Y456372D01*
X762472Y456766D01*
X762275Y457133D01*
X762069Y457477D01*
X761854Y457799D01*
X761631Y458099D01*
X761398Y458376D01*
X761157Y458631D01*
X760907Y458864D01*
X760649Y459075D01*
X760381Y459264D01*
X760105Y459430D01*
X759820Y459574D01*
X759527Y459696D01*
X759224Y459796D01*
X758913Y459874D01*
X758593Y459929D01*
X758264Y459963D01*
X757927Y459974D01*
X757425Y459954D01*
X756934Y459895D01*
X756456Y459796D01*
X755990Y459658D01*
X755535Y459481D01*
X755093Y459264D01*
X754663Y459007D01*
X754245Y458711D01*
X753419Y458050D01*
X752588Y457326D01*
X751753Y456542D01*
X750914Y455696D01*
X750629Y455428D01*
X750335Y455187D01*
X750033Y454973D01*
X749722Y454784D01*
X749411Y454631D01*
X749108Y454521D01*
X748815Y454455D01*
X748530Y454433D01*
X748387Y454442D01*
X748238Y454466D01*
X747925Y454565D01*
X747589Y454729D01*
X747232Y454959D01*
X747060Y455100D01*
X746910Y455260D01*
X746784Y455438D01*
X746680Y455634D01*
X746599Y455850D01*
X746542Y456084D01*
X746507Y456336D01*
X746496Y456607D01*
X746506Y456838D01*
X746535Y457072D01*
X746585Y457311D01*
X746654Y457554D01*
X746742Y457802D01*
X746851Y458054D01*
X747127Y458571D01*
X747460Y459097D01*
X747828Y459623D01*
X748232Y460149D01*
X748670Y460675D01*
X749246Y461347D01*
X749853Y461994D01*
X750491Y462618D01*
X751159Y463217D01*
X751859Y463792D01*
X752588Y464344D01*
X753349Y464871D01*
X754140Y465374D01*
X754547Y465611D01*
X754961Y465834D01*
X755382Y466041D01*
X755810Y466233D01*
X756245Y466409D01*
X756688Y466570D01*
X757137Y466716D01*
X757594Y466846D01*
X758058Y466961D01*
X758529Y467061D01*
X759007Y467146D01*
X759492Y467215D01*
X759984Y467268D01*
X760483Y467307D01*
X760990Y467330D01*
X761504Y467337D01*
X762239Y467320D01*
X762955Y467269D01*
X763651Y467184D01*
X764328Y467066D01*
X764986Y466913D01*
X765624Y466726D01*
X766243Y466505D01*
X766842Y466250D01*
X767422Y465962D01*
X767982Y465639D01*
X768523Y465282D01*
X769045Y464892D01*
X769547Y464467D01*
X770029Y464008D01*
X770492Y463516D01*
X770936Y462989D01*
X771359Y462434D01*
X771761Y461854D01*
X772140Y461250D01*
X772499Y460622D01*
X772835Y459970D01*
X773150Y459294D01*
X773443Y458594D01*
X773715Y457870D01*
X773965Y457121D01*
X774193Y456349D01*
X774400Y455552D01*
X774585Y454732D01*
X774748Y453887D01*
X774890Y453018D01*
X775010Y452125D01*
X775109Y451208D01*
X776652Y436060D01*
X776801Y434939D01*
X776969Y433927D01*
X777156Y433024D01*
X777362Y432229D01*
X777586Y431542D01*
X777828Y430964D01*
X777957Y430716D01*
X778090Y430495D01*
X778227Y430301D01*
X778370Y430134D01*
X778684Y429834D01*
X779047Y429548D01*
X779459Y429277D01*
X779921Y429020D01*
X780432Y428778D01*
X780993Y428549D01*
X781603Y428335D01*
X782262Y428135D01*
X782529Y428045D01*
X782770Y427916D01*
X782985Y427747D01*
X783174Y427539D01*
X783327Y427296D01*
X783437Y427022D01*
X783502Y426717D01*
X783524Y426382D01*
X783515Y426178D01*
X783489Y425972D01*
X783444Y425762D01*
X783382Y425549D01*
X783204Y425113D01*
X782954Y424664D01*
X782634Y424201D01*
X782242Y423726D01*
X781779Y423237D01*
X781245Y422735D01*
X780953Y422489D01*
X780646Y422258D01*
X780325Y422044D01*
X779989Y421845D01*
X779639Y421662D01*
X779274Y421496D01*
X778895Y421345D01*
X778501Y421210D01*
X778093Y421090D01*
X777670Y420987D01*
X777233Y420900D01*
X776781Y420828D01*
X776314Y420773D01*
X775834Y420733D01*
X775338Y420709D01*
X774828Y420701D01*
X774219Y420724D01*
X773621Y420793D01*
X773032Y420908D01*
X772453Y421069D01*
X771883Y421277D01*
X771324Y421530D01*
X770774Y421829D01*
X770235Y422174D01*
X769718Y422570D01*
X769238Y423020D01*
X768793Y423525D01*
X768385Y424085D01*
X768013Y424700D01*
X767677Y425369D01*
X767377Y426094D01*
X767346Y426186D01*
X767114Y426873D01*
X766869Y426536D01*
X766625Y426202D01*
X766104Y425558D01*
X765551Y424940D01*
X764966Y424348D01*
X764350Y423783D01*
X763702Y423243D01*
X763022Y422731D01*
X762310Y422244D01*
X761571Y421800D01*
X761193Y421601D01*
X760809Y421416D01*
X760419Y421246D01*
X760024Y421090D01*
X759623Y420950D01*
X759216Y420824D01*
X758803Y420713D01*
X758384Y420617D01*
X757960Y420535D01*
X757530Y420469D01*
X757095Y420417D01*
X756653Y420380D01*
X756206Y420358D01*
X755753Y420351D01*
G37*
%LPC*%
G36*
X760031Y427153D02*
X760267Y427159D01*
X760500Y427178D01*
X760962Y427254D01*
X761416Y427380D01*
X761863Y427556D01*
X762302Y427783D01*
X762733Y428060D01*
X763157Y428388D01*
X763572Y428766D01*
X763679Y428875D01*
X763972Y429176D01*
X764346Y429599D01*
X764695Y430035D01*
X765019Y430484D01*
X765317Y430947D01*
X765591Y431422D01*
X765839Y431911D01*
X766062Y432413D01*
X765080Y442021D01*
X764679Y442316D01*
X764247Y442573D01*
X763785Y442790D01*
X763292Y442967D01*
X762781Y443105D01*
X762266Y443204D01*
X761747Y443263D01*
X761223Y443283D01*
X760894Y443275D01*
X760572Y443250D01*
X760257Y443209D01*
X759950Y443151D01*
X759650Y443077D01*
X759357Y442987D01*
X759072Y442880D01*
X758795Y442757D01*
X758525Y442617D01*
X758262Y442461D01*
X758006Y442288D01*
X757758Y442099D01*
X757518Y441894D01*
X757284Y441672D01*
X756840Y441179D01*
X756632Y440909D01*
X756437Y440625D01*
X756256Y440326D01*
X756088Y440013D01*
X755934Y439686D01*
X755793Y439345D01*
X755665Y438989D01*
X755551Y438619D01*
X755451Y438235D01*
X755363Y437837D01*
X755290Y437424D01*
X755229Y436998D01*
X755182Y436556D01*
X755149Y436101D01*
X755128Y435632D01*
X755122Y435148D01*
X755143Y434291D01*
X755207Y433474D01*
X755314Y432696D01*
X755464Y431957D01*
X755656Y431258D01*
X755891Y430598D01*
X756169Y429978D01*
X756489Y429397D01*
X756844Y428871D01*
X757223Y428415D01*
X757423Y428214D01*
X757628Y428030D01*
X757840Y427863D01*
X758058Y427714D01*
X758283Y427583D01*
X758514Y427469D01*
X758751Y427372D01*
X758994Y427293D01*
X759244Y427232D01*
X759500Y427188D01*
X759762Y427162D01*
X760031Y427153D01*
G37*
%LPD*%
G36*
X791098Y419790D02*
X790776Y419807D01*
X790476Y419860D01*
X790197Y419947D01*
X789941Y420070D01*
X789707Y420228D01*
X789494Y420421D01*
X789303Y420649D01*
X789135Y420912D01*
X788832Y421477D01*
X788556Y422051D01*
X788306Y422634D01*
X788083Y423226D01*
X785979Y429397D01*
X784787Y433044D01*
X784602Y433675D01*
X784471Y434236D01*
X784392Y434727D01*
X784366Y435148D01*
X784376Y435420D01*
X784407Y435676D01*
X784459Y435915D01*
X784532Y436138D01*
X784626Y436345D01*
X784740Y436535D01*
X784876Y436709D01*
X785032Y436866D01*
X785201Y437006D01*
X785376Y437127D01*
X785556Y437229D01*
X785742Y437313D01*
X785933Y437378D01*
X786130Y437425D01*
X786332Y437453D01*
X786540Y437462D01*
X786763Y437452D01*
X786978Y437421D01*
X787184Y437368D01*
X787381Y437296D01*
X787570Y437202D01*
X787749Y437087D01*
X787920Y436952D01*
X788083Y436796D01*
X788661Y436156D01*
X789135Y435569D01*
X789857Y434604D01*
X790588Y433673D01*
X791326Y432776D01*
X792071Y431913D01*
X792825Y431084D01*
X793586Y430289D01*
X794354Y429528D01*
X795131Y428801D01*
X795524Y428457D01*
X795922Y428135D01*
X796327Y427836D01*
X796737Y427559D01*
X797153Y427303D01*
X797575Y427070D01*
X798002Y426860D01*
X798435Y426671D01*
X798874Y426505D01*
X799319Y426360D01*
X799770Y426238D01*
X800226Y426138D01*
X800688Y426061D01*
X801156Y426005D01*
X801629Y425972D01*
X802108Y425961D01*
X802725Y425984D01*
X803312Y426053D01*
X803869Y426168D01*
X804396Y426329D01*
X804894Y426536D01*
X805363Y426789D01*
X805802Y427088D01*
X806211Y427434D01*
X806581Y427813D01*
X806901Y428214D01*
X807173Y428637D01*
X807394Y429082D01*
X807567Y429548D01*
X807690Y430037D01*
X807764Y430548D01*
X807783Y430811D01*
X807789Y431080D01*
X807779Y431452D01*
X807751Y431815D01*
X807703Y432167D01*
X807636Y432509D01*
X807549Y432842D01*
X807444Y433165D01*
X807319Y433477D01*
X807175Y433780D01*
X807012Y434073D01*
X806830Y434357D01*
X806629Y434630D01*
X806408Y434894D01*
X806169Y435147D01*
X805910Y435391D01*
X805632Y435625D01*
X805334Y435849D01*
X804693Y436293D01*
X803998Y436748D01*
X803247Y437213D01*
X802442Y437690D01*
X801581Y438178D01*
X800666Y438676D01*
X798672Y439706D01*
X797426Y440364D01*
X796211Y441041D01*
X795028Y441736D01*
X793877Y442450D01*
X792758Y443183D01*
X791670Y443934D01*
X790614Y444704D01*
X789590Y445492D01*
X789102Y445903D01*
X788645Y446338D01*
X788220Y446798D01*
X787826Y447282D01*
X787464Y447791D01*
X787133Y448324D01*
X786834Y448881D01*
X786566Y449463D01*
X786330Y450069D01*
X786125Y450700D01*
X785952Y451354D01*
X785810Y452034D01*
X785700Y452737D01*
X785621Y453465D01*
X785574Y454218D01*
X785558Y454994D01*
X785572Y455679D01*
X785614Y456347D01*
X785684Y456999D01*
X785781Y457635D01*
X785907Y458255D01*
X786061Y458859D01*
X786243Y459446D01*
X786452Y460018D01*
X786690Y460573D01*
X786955Y461112D01*
X787248Y461634D01*
X787570Y462141D01*
X787919Y462632D01*
X788296Y463106D01*
X788701Y463564D01*
X789135Y464006D01*
X789587Y464426D01*
X790052Y464820D01*
X790528Y465186D01*
X791015Y465525D01*
X791514Y465837D01*
X792024Y466122D01*
X792546Y466379D01*
X793079Y466610D01*
X793624Y466813D01*
X794181Y466989D01*
X794748Y467139D01*
X795328Y467261D01*
X795919Y467355D01*
X796521Y467423D01*
X797135Y467464D01*
X797760Y467478D01*
X798497Y467464D01*
X799198Y467425D01*
X799864Y467359D01*
X800496Y467267D01*
X801092Y467149D01*
X801653Y467004D01*
X802179Y466833D01*
X802670Y466636D01*
X803546Y466268D01*
X804282Y466005D01*
X804598Y465913D01*
X804879Y465847D01*
X805124Y465808D01*
X805334Y465794D01*
X805525Y465809D01*
X805709Y465851D01*
X805888Y465923D01*
X806062Y466022D01*
X806230Y466151D01*
X806393Y466307D01*
X806550Y466492D01*
X806702Y466706D01*
X806860Y466920D01*
X807037Y467105D01*
X807233Y467262D01*
X807447Y467390D01*
X807680Y467490D01*
X807931Y467561D01*
X808202Y467604D01*
X808490Y467618D01*
X808796Y467602D01*
X809082Y467556D01*
X809348Y467480D01*
X809595Y467372D01*
X809822Y467234D01*
X810029Y467066D01*
X810216Y466866D01*
X810384Y466636D01*
X810695Y466128D01*
X810997Y465584D01*
X811291Y465005D01*
X811576Y464392D01*
X813960Y459202D01*
X814556Y457721D01*
X815082Y456362D01*
X815297Y455755D01*
X815451Y455231D01*
X815543Y454791D01*
X815566Y454602D01*
X815573Y454433D01*
X815565Y454196D01*
X815538Y453973D01*
X815494Y453766D01*
X815433Y453574D01*
X815354Y453398D01*
X815258Y453237D01*
X815144Y453091D01*
X815012Y452961D01*
X814723Y452746D01*
X814416Y452593D01*
X814256Y452539D01*
X814092Y452501D01*
X813923Y452478D01*
X813750Y452470D01*
X813543Y452478D01*
X813345Y452501D01*
X813153Y452539D01*
X812970Y452593D01*
X812794Y452662D01*
X812626Y452746D01*
X812465Y452846D01*
X812312Y452961D01*
X811672Y453522D01*
X810945Y454223D01*
X810212Y455042D01*
X809487Y455814D01*
X808770Y456541D01*
X808061Y457221D01*
X807359Y457856D01*
X806665Y458444D01*
X805978Y458986D01*
X805299Y459483D01*
X804627Y459927D01*
X803960Y460311D01*
X803299Y460637D01*
X802643Y460903D01*
X801993Y461110D01*
X801670Y461191D01*
X801348Y461258D01*
X801028Y461310D01*
X800709Y461347D01*
X800391Y461369D01*
X800075Y461376D01*
X799595Y461358D01*
X799137Y461302D01*
X798701Y461209D01*
X798286Y461078D01*
X797894Y460911D01*
X797524Y460706D01*
X797175Y460463D01*
X796849Y460184D01*
X796553Y459873D01*
X796297Y459535D01*
X796080Y459172D01*
X795902Y458781D01*
X795764Y458365D01*
X795665Y457922D01*
X795606Y457453D01*
X795586Y456958D01*
X795595Y456638D01*
X795623Y456327D01*
X795668Y456025D01*
X795731Y455731D01*
X795812Y455446D01*
X795912Y455170D01*
X796029Y454902D01*
X796165Y454644D01*
X796319Y454394D01*
X796490Y454153D01*
X796680Y453921D01*
X796888Y453697D01*
X797114Y453482D01*
X797358Y453276D01*
X797620Y453079D01*
X797901Y452891D01*
X799150Y452115D01*
X800583Y451260D01*
X802201Y450327D01*
X804002Y449314D01*
X805286Y448591D01*
X806542Y447859D01*
X807771Y447118D01*
X808972Y446369D01*
X810147Y445610D01*
X811293Y444843D01*
X812413Y444067D01*
X813505Y443283D01*
X814027Y442874D01*
X814515Y442438D01*
X814970Y441974D01*
X815391Y441481D01*
X815779Y440961D01*
X816133Y440413D01*
X816453Y439837D01*
X816739Y439233D01*
X816992Y438601D01*
X817211Y437941D01*
X817396Y437253D01*
X817548Y436537D01*
X817666Y435794D01*
X817750Y435022D01*
X817801Y434222D01*
X817817Y433395D01*
X817800Y432609D01*
X817748Y431846D01*
X817662Y431107D01*
X817541Y430392D01*
X817386Y429701D01*
X817196Y429032D01*
X816972Y428388D01*
X816713Y427767D01*
X816420Y427169D01*
X816092Y426595D01*
X815729Y426045D01*
X815332Y425518D01*
X814901Y425015D01*
X814435Y424535D01*
X813934Y424079D01*
X813399Y423647D01*
X812843Y423239D01*
X812278Y422858D01*
X811706Y422503D01*
X811124Y422174D01*
X810535Y421872D01*
X809938Y421595D01*
X809332Y421346D01*
X808718Y421122D01*
X808096Y420925D01*
X807466Y420754D01*
X806827Y420609D01*
X806180Y420491D01*
X805525Y420399D01*
X804862Y420333D01*
X804191Y420294D01*
X803511Y420280D01*
X802720Y420295D01*
X801962Y420337D01*
X801235Y420409D01*
X800539Y420508D01*
X799876Y420637D01*
X799244Y420793D01*
X798644Y420978D01*
X798076Y421192D01*
X797039Y421591D01*
X796572Y421748D01*
X796139Y421876D01*
X795739Y421976D01*
X795374Y422047D01*
X795042Y422090D01*
X794745Y422104D01*
X794427Y422086D01*
X794140Y422031D01*
X793884Y421941D01*
X793658Y421815D01*
X793463Y421652D01*
X793298Y421453D01*
X793165Y421218D01*
X793062Y420947D01*
X792954Y420675D01*
X792808Y420440D01*
X792621Y420242D01*
X792396Y420079D01*
X792130Y419952D01*
X791826Y419862D01*
X791482Y419808D01*
X791098Y419790D01*
G37*
G36*
X828126Y419790D02*
X827820Y419807D01*
X827533Y419860D01*
X827264Y419947D01*
X827013Y420070D01*
X826781Y420228D01*
X826568Y420421D01*
X826374Y420649D01*
X826198Y420912D01*
X825885Y421477D01*
X825611Y422051D01*
X825376Y422634D01*
X825181Y423226D01*
X823077Y429397D01*
X822350Y431466D01*
X822071Y432316D01*
X821850Y433044D01*
X821681Y433675D01*
X821561Y434236D01*
X821488Y434727D01*
X821464Y435148D01*
X821475Y435420D01*
X821506Y435676D01*
X821558Y435915D01*
X821631Y436138D01*
X821724Y436345D01*
X821839Y436535D01*
X821974Y436709D01*
X822130Y436866D01*
X822300Y437006D01*
X822474Y437127D01*
X822655Y437229D01*
X822840Y437313D01*
X823032Y437378D01*
X823228Y437425D01*
X823431Y437453D01*
X823638Y437462D01*
X823845Y437452D01*
X824046Y437421D01*
X824240Y437368D01*
X824427Y437296D01*
X824608Y437202D01*
X824782Y437087D01*
X824950Y436952D01*
X825111Y436796D01*
X826233Y435569D01*
X826955Y434604D01*
X827684Y433673D01*
X828419Y432776D01*
X829161Y431913D01*
X829909Y431084D01*
X830664Y430289D01*
X831426Y429528D01*
X832194Y428801D01*
X832583Y428457D01*
X832977Y428135D01*
X833378Y427836D01*
X833785Y427559D01*
X834198Y427303D01*
X834617Y427070D01*
X835042Y426860D01*
X835473Y426671D01*
X835909Y426505D01*
X836352Y426360D01*
X836801Y426238D01*
X837256Y426138D01*
X837718Y426061D01*
X838185Y426005D01*
X838658Y425972D01*
X839137Y425961D01*
X839754Y425984D01*
X840342Y426053D01*
X840902Y426168D01*
X841434Y426329D01*
X841936Y426536D01*
X842411Y426789D01*
X842857Y427088D01*
X843274Y427434D01*
X843652Y427813D01*
X843980Y428214D01*
X844257Y428637D01*
X844484Y429082D01*
X844661Y429548D01*
X844787Y430037D01*
X844862Y430548D01*
X844881Y430811D01*
X844887Y431080D01*
X844878Y431452D01*
X844849Y431815D01*
X844800Y432167D01*
X844732Y432509D01*
X844644Y432842D01*
X844537Y433165D01*
X844411Y433477D01*
X844265Y433780D01*
X844100Y434073D01*
X843915Y434357D01*
X843711Y434630D01*
X843487Y434894D01*
X843244Y435147D01*
X842981Y435391D01*
X842699Y435625D01*
X842398Y435849D01*
X841749Y436293D01*
X841046Y436748D01*
X840289Y437213D01*
X839479Y437690D01*
X838615Y438178D01*
X837697Y438676D01*
X835700Y439706D01*
X834470Y440364D01*
X833270Y441041D01*
X832099Y441736D01*
X830958Y442450D01*
X829846Y443183D01*
X828764Y443934D01*
X827712Y444704D01*
X826689Y445492D01*
X826201Y445903D01*
X825744Y446338D01*
X825318Y446798D01*
X824925Y447282D01*
X824562Y447791D01*
X824232Y448324D01*
X823932Y448881D01*
X823665Y449463D01*
X823428Y450069D01*
X823223Y450700D01*
X823050Y451354D01*
X822908Y452034D01*
X822798Y452737D01*
X822719Y453465D01*
X822672Y454218D01*
X822656Y454994D01*
X822670Y455679D01*
X822712Y456347D01*
X822782Y456999D01*
X822880Y457635D01*
X823006Y458255D01*
X823159Y458859D01*
X823341Y459446D01*
X823551Y460018D01*
X823788Y460573D01*
X824054Y461112D01*
X824347Y461634D01*
X824668Y462141D01*
X825018Y462632D01*
X825395Y463106D01*
X825800Y463564D01*
X826233Y464006D01*
X826686Y464426D01*
X827150Y464820D01*
X827626Y465186D01*
X828113Y465525D01*
X828612Y465837D01*
X829123Y466122D01*
X829644Y466379D01*
X830178Y466610D01*
X830723Y466813D01*
X831279Y466989D01*
X831847Y467139D01*
X832426Y467261D01*
X833017Y467355D01*
X833620Y467423D01*
X834233Y467464D01*
X834859Y467478D01*
X835595Y467464D01*
X836294Y467425D01*
X836958Y467359D01*
X837585Y467267D01*
X838176Y467149D01*
X838731Y467004D01*
X839250Y466833D01*
X839733Y466636D01*
X840599Y466268D01*
X841337Y466005D01*
X841659Y465913D01*
X841949Y465847D01*
X842207Y465808D01*
X842433Y465794D01*
X842607Y465809D01*
X842779Y465851D01*
X842949Y465923D01*
X843117Y466022D01*
X843282Y466151D01*
X843445Y466307D01*
X843606Y466492D01*
X843765Y466706D01*
X843932Y466920D01*
X844116Y467105D01*
X844318Y467262D01*
X844537Y467390D01*
X844773Y467490D01*
X845028Y467561D01*
X845299Y467604D01*
X845589Y467618D01*
X845879Y467602D01*
X846152Y467556D01*
X846409Y467480D01*
X846649Y467372D01*
X846873Y467234D01*
X847081Y467066D01*
X847272Y466866D01*
X847447Y466636D01*
X847774Y466128D01*
X848087Y465584D01*
X848387Y465005D01*
X848674Y464392D01*
X850989Y459202D01*
X851324Y458446D01*
X851629Y457721D01*
X851903Y457026D01*
X852146Y456362D01*
X852345Y455755D01*
X852488Y455231D01*
X852573Y454791D01*
X852602Y454433D01*
X852593Y454196D01*
X852567Y453973D01*
X852523Y453766D01*
X852461Y453574D01*
X852382Y453398D01*
X852286Y453237D01*
X852172Y453091D01*
X852041Y452961D01*
X851756Y452746D01*
X851462Y452593D01*
X851312Y452539D01*
X851160Y452501D01*
X851005Y452478D01*
X850848Y452470D01*
X850641Y452478D01*
X850441Y452501D01*
X850247Y452539D01*
X850059Y452593D01*
X849879Y452662D01*
X849704Y452746D01*
X849537Y452846D01*
X849376Y452961D01*
X849056Y453224D01*
X848727Y453522D01*
X848389Y453855D01*
X848043Y454223D01*
X847295Y455042D01*
X846557Y455814D01*
X845831Y456541D01*
X845115Y457221D01*
X844411Y457856D01*
X843717Y458444D01*
X843034Y458986D01*
X842363Y459483D01*
X841699Y459927D01*
X841039Y460311D01*
X840384Y460637D01*
X839733Y460903D01*
X839086Y461110D01*
X838765Y461191D01*
X838444Y461258D01*
X838125Y461310D01*
X837807Y461347D01*
X837489Y461369D01*
X837173Y461376D01*
X836693Y461358D01*
X836235Y461302D01*
X835799Y461209D01*
X835385Y461078D01*
X834993Y460911D01*
X834622Y460706D01*
X834274Y460463D01*
X833947Y460184D01*
X833651Y459873D01*
X833395Y459535D01*
X833178Y459172D01*
X833000Y458781D01*
X832862Y458365D01*
X832764Y457922D01*
X832705Y457453D01*
X832685Y456958D01*
X832694Y456638D01*
X832721Y456327D01*
X832765Y456025D01*
X832827Y455731D01*
X832907Y455446D01*
X833005Y455170D01*
X833121Y454902D01*
X833255Y454644D01*
X833406Y454394D01*
X833575Y454153D01*
X833762Y453921D01*
X833967Y453697D01*
X834190Y453482D01*
X834430Y453276D01*
X834688Y453079D01*
X834964Y452891D01*
X836198Y452115D01*
X837620Y451260D01*
X839231Y450327D01*
X841030Y449314D01*
X842330Y448591D01*
X843601Y447859D01*
X844842Y447118D01*
X846053Y446369D01*
X847235Y445610D01*
X848387Y444843D01*
X849510Y444067D01*
X850603Y443283D01*
X851125Y442874D01*
X851614Y442438D01*
X852069Y441974D01*
X852490Y441481D01*
X852877Y440961D01*
X853231Y440413D01*
X853551Y439837D01*
X853838Y439233D01*
X854090Y438601D01*
X854309Y437941D01*
X854495Y437253D01*
X854646Y436537D01*
X854764Y435794D01*
X854849Y435022D01*
X854899Y434222D01*
X854916Y433395D01*
X854899Y432609D01*
X854846Y431846D01*
X854759Y431107D01*
X854638Y430392D01*
X854481Y429701D01*
X854290Y429032D01*
X854064Y428388D01*
X853803Y427767D01*
X853507Y427169D01*
X853176Y426595D01*
X852811Y426045D01*
X852411Y425518D01*
X851976Y425015D01*
X851506Y424535D01*
X851002Y424079D01*
X850463Y423647D01*
X849902Y423239D01*
X849335Y422858D01*
X848759Y422503D01*
X848177Y422174D01*
X847587Y421872D01*
X846990Y421595D01*
X846385Y421346D01*
X845773Y421122D01*
X845153Y420925D01*
X844526Y420754D01*
X843892Y420609D01*
X843250Y420491D01*
X842601Y420399D01*
X841945Y420333D01*
X841281Y420294D01*
X840610Y420280D01*
X839818Y420295D01*
X839058Y420337D01*
X838328Y420409D01*
X837629Y420508D01*
X836961Y420637D01*
X836323Y420793D01*
X835716Y420978D01*
X835139Y421192D01*
X834092Y421591D01*
X833624Y421748D01*
X833193Y421876D01*
X832800Y421976D01*
X832444Y422047D01*
X832125Y422090D01*
X831843Y422104D01*
X831525Y422086D01*
X831236Y422031D01*
X830977Y421941D01*
X830748Y421815D01*
X830548Y421652D01*
X830377Y421453D01*
X830236Y421218D01*
X830125Y420947D01*
X830010Y420675D01*
X829856Y420440D01*
X829663Y420242D01*
X829433Y420079D01*
X829164Y419952D01*
X828856Y419862D01*
X828511Y419808D01*
X828126Y419790D01*
G37*
G36*
X562827Y420982D02*
X562347Y420988D01*
X561873Y421006D01*
X560938Y421078D01*
X560023Y421199D01*
X559128Y421367D01*
X558252Y421584D01*
X557396Y421850D01*
X556560Y422163D01*
X555744Y422525D01*
X554951Y422932D01*
X554184Y423384D01*
X553443Y423879D01*
X552728Y424418D01*
X552040Y425001D01*
X551378Y425628D01*
X550743Y426298D01*
X550134Y427013D01*
X549554Y427770D01*
X549007Y428569D01*
X548493Y429409D01*
X548012Y430291D01*
X547564Y431215D01*
X547149Y432181D01*
X546766Y433188D01*
X546417Y434236D01*
X546104Y435308D01*
X545834Y436419D01*
X545605Y437570D01*
X545417Y438760D01*
X545272Y439989D01*
X545168Y441258D01*
X545105Y442566D01*
X545084Y443914D01*
X545090Y444611D01*
X545108Y445299D01*
X545138Y445978D01*
X545181Y446649D01*
X545235Y447311D01*
X545301Y447964D01*
X545470Y449244D01*
X545687Y450489D01*
X545952Y451698D01*
X546265Y452873D01*
X546627Y454013D01*
X547028Y455131D01*
X547460Y456209D01*
X547922Y457244D01*
X548415Y458238D01*
X548939Y459190D01*
X549494Y460101D01*
X550079Y460970D01*
X550695Y461797D01*
X551338Y462581D01*
X552005Y463318D01*
X552697Y464009D01*
X553412Y464655D01*
X554152Y465254D01*
X554916Y465808D01*
X555703Y466315D01*
X556515Y466776D01*
X557326Y467187D01*
X558146Y467543D01*
X558974Y467845D01*
X559811Y468091D01*
X560657Y468283D01*
X561084Y468358D01*
X561512Y468420D01*
X561943Y468468D01*
X562376Y468502D01*
X562811Y468523D01*
X563248Y468529D01*
X564002Y468515D01*
X564740Y468474D01*
X565461Y468404D01*
X566165Y468306D01*
X566852Y468180D01*
X567523Y468027D01*
X568177Y467845D01*
X568814Y467635D01*
X569435Y467398D01*
X570039Y467132D01*
X570626Y466839D01*
X571196Y466518D01*
X571750Y466168D01*
X572287Y465791D01*
X572808Y465386D01*
X573311Y464953D01*
X573791Y464508D01*
X574240Y464067D01*
X574658Y463631D01*
X575045Y463200D01*
X575401Y462772D01*
X575726Y462349D01*
X576020Y461931D01*
X576283Y461517D01*
X576515Y461107D01*
X576716Y460701D01*
X576887Y460300D01*
X577026Y459904D01*
X577134Y459511D01*
X577212Y459123D01*
X577258Y458740D01*
X577274Y458361D01*
X577257Y457965D01*
X577206Y457550D01*
X577121Y457115D01*
X577002Y456660D01*
X576849Y456186D01*
X576662Y455691D01*
X576441Y455177D01*
X576187Y454644D01*
X575894Y454097D01*
X575558Y453544D01*
X575179Y452984D01*
X574758Y452417D01*
X574294Y451844D01*
X573787Y451264D01*
X573237Y450678D01*
X572645Y450085D01*
X572275Y449733D01*
X571935Y449446D01*
X571626Y449224D01*
X571348Y449069D01*
X571078Y448961D01*
X570795Y448884D01*
X570500Y448838D01*
X570191Y448823D01*
X569984Y448833D01*
X569785Y448863D01*
X569594Y448912D01*
X569410Y448981D01*
X569235Y449070D01*
X569066Y449178D01*
X568906Y449306D01*
X568753Y449454D01*
X568611Y449622D01*
X568483Y449809D01*
X568370Y450016D01*
X568271Y450243D01*
X568186Y450490D01*
X568115Y450756D01*
X568059Y451042D01*
X568017Y451348D01*
X567887Y452346D01*
X567743Y453342D01*
X567584Y454336D01*
X567412Y455328D01*
X567225Y456317D01*
X567024Y457304D01*
X566808Y458289D01*
X566579Y459272D01*
X566452Y459748D01*
X566307Y460193D01*
X566144Y460607D01*
X565963Y460991D01*
X565765Y461343D01*
X565548Y461666D01*
X565314Y461957D01*
X565062Y462218D01*
X564793Y462448D01*
X564505Y462647D01*
X564200Y462816D01*
X563877Y462954D01*
X563536Y463062D01*
X563177Y463138D01*
X562801Y463184D01*
X562406Y463200D01*
X562060Y463184D01*
X561724Y463136D01*
X561396Y463055D01*
X561078Y462943D01*
X560769Y462799D01*
X560470Y462623D01*
X560180Y462414D01*
X559899Y462174D01*
X559628Y461902D01*
X559365Y461597D01*
X559113Y461261D01*
X558869Y460892D01*
X558635Y460491D01*
X558410Y460059D01*
X558194Y459594D01*
X557988Y459097D01*
X557793Y458574D01*
X557610Y458029D01*
X557440Y457464D01*
X557282Y456877D01*
X557137Y456269D01*
X557005Y455640D01*
X556885Y454991D01*
X556778Y454319D01*
X556684Y453627D01*
X556602Y452914D01*
X556533Y452180D01*
X556476Y451424D01*
X556432Y450648D01*
X556400Y449850D01*
X556381Y449032D01*
X556375Y448192D01*
X556389Y447101D01*
X556432Y446035D01*
X556503Y444997D01*
X556603Y443984D01*
X556731Y442998D01*
X556888Y442038D01*
X557073Y441104D01*
X557287Y440197D01*
X557508Y439319D01*
X557751Y438475D01*
X558017Y437663D01*
X558304Y436884D01*
X558613Y436137D01*
X558944Y435424D01*
X559296Y434744D01*
X559671Y434096D01*
X560063Y433483D01*
X560469Y432908D01*
X560887Y432370D01*
X561319Y431869D01*
X561764Y431406D01*
X562222Y430980D01*
X562693Y430591D01*
X563178Y430239D01*
X563690Y429910D01*
X564212Y429625D01*
X564742Y429384D01*
X565282Y429187D01*
X565829Y429033D01*
X566386Y428924D01*
X566951Y428858D01*
X567526Y428836D01*
X567813Y428842D01*
X568096Y428860D01*
X568650Y428933D01*
X569187Y429053D01*
X569708Y429222D01*
X570213Y429439D01*
X570701Y429704D01*
X571173Y430017D01*
X571628Y430379D01*
X572070Y430777D01*
X572503Y431199D01*
X572925Y431645D01*
X573338Y432115D01*
X573740Y432609D01*
X574133Y433127D01*
X574516Y433670D01*
X574889Y434236D01*
X575100Y434558D01*
X575310Y434824D01*
X575520Y435032D01*
X575731Y435183D01*
X575950Y435290D01*
X576187Y435367D01*
X576441Y435413D01*
X576713Y435428D01*
X576884Y435419D01*
X577048Y435391D01*
X577204Y435345D01*
X577353Y435279D01*
X577493Y435196D01*
X577626Y435093D01*
X577752Y434972D01*
X577870Y434832D01*
X578069Y434523D01*
X578212Y434192D01*
X578261Y434019D01*
X578297Y433840D01*
X578318Y433655D01*
X578326Y433465D01*
X578317Y433145D01*
X578291Y432816D01*
X578247Y432479D01*
X578185Y432132D01*
X578028Y431431D01*
X577835Y430730D01*
X577659Y430318D01*
X577465Y429907D01*
X577254Y429496D01*
X577024Y429086D01*
X576510Y428268D01*
X575924Y427451D01*
X575265Y426637D01*
X574534Y425825D01*
X573731Y425015D01*
X572855Y424208D01*
X572389Y423817D01*
X571901Y423452D01*
X571392Y423111D01*
X570861Y422796D01*
X570309Y422507D01*
X569736Y422242D01*
X569141Y422002D01*
X568525Y421788D01*
X567888Y421599D01*
X567229Y421435D01*
X566549Y421297D01*
X565847Y421183D01*
X565124Y421095D01*
X564380Y421032D01*
X563614Y420994D01*
X562827Y420982D01*
G37*
G36*
X605957Y419299D02*
X605328Y419306D01*
X604703Y419329D01*
X604083Y419368D01*
X603467Y419421D01*
X602856Y419490D01*
X602248Y419575D01*
X601646Y419674D01*
X601048Y419790D01*
X600454Y419920D01*
X599864Y420066D01*
X599279Y420227D01*
X598698Y420403D01*
X598122Y420595D01*
X597550Y420802D01*
X596982Y421024D01*
X596419Y421262D01*
X595332Y421758D01*
X594900Y421979D01*
X594280Y422297D01*
X593263Y422880D01*
X592281Y423506D01*
X591335Y424177D01*
X590423Y424891D01*
X589546Y425650D01*
X588705Y426452D01*
X587903Y427294D01*
X587144Y428174D01*
X586430Y429092D01*
X585759Y430046D01*
X585133Y431038D01*
X584550Y432067D01*
X584010Y433133D01*
X583515Y434236D01*
X583277Y434791D01*
X583055Y435351D01*
X582848Y435915D01*
X582656Y436485D01*
X582480Y437059D01*
X582319Y437639D01*
X582173Y438223D01*
X582042Y438812D01*
X581927Y439406D01*
X581828Y440005D01*
X581743Y440609D01*
X581674Y441218D01*
X581621Y441832D01*
X581582Y442451D01*
X581559Y443075D01*
X581552Y443704D01*
X581559Y444332D01*
X581582Y444956D01*
X581621Y445575D01*
X581674Y446189D01*
X581743Y446798D01*
X581828Y447402D01*
X581927Y448001D01*
X582042Y448595D01*
X582173Y449184D01*
X582319Y449769D01*
X582480Y450348D01*
X582656Y450923D01*
X582848Y451492D01*
X583055Y452057D01*
X583277Y452616D01*
X583515Y453171D01*
X584010Y454259D01*
X584550Y455312D01*
X585133Y456332D01*
X585759Y457318D01*
X586430Y458269D01*
X587144Y459187D01*
X587903Y460071D01*
X588705Y460920D01*
X589546Y461731D01*
X590423Y462496D01*
X591335Y463217D01*
X592281Y463892D01*
X593263Y464523D01*
X594280Y465108D01*
X595332Y465649D01*
X596419Y466145D01*
X596982Y466374D01*
X597550Y466589D01*
X598122Y466789D01*
X598698Y466973D01*
X599279Y467144D01*
X599864Y467299D01*
X600454Y467439D01*
X601048Y467565D01*
X601646Y467676D01*
X602248Y467772D01*
X602856Y467854D01*
X603467Y467920D01*
X604083Y467972D01*
X604703Y468009D01*
X605328Y468031D01*
X605957Y468039D01*
X606603Y468030D01*
X607245Y468006D01*
X607883Y467965D01*
X608516Y467907D01*
X609145Y467833D01*
X609770Y467743D01*
X610390Y467636D01*
X611006Y467513D01*
X611615Y467374D01*
X612216Y467221D01*
X612807Y467054D01*
X613390Y466873D01*
X613964Y466677D01*
X614530Y466467D01*
X615087Y466243D01*
X615634Y466005D01*
X613250Y462428D01*
X612398Y462757D01*
X611523Y463042D01*
X610627Y463283D01*
X609708Y463480D01*
X608777Y463634D01*
X607841Y463743D01*
X606901Y463809D01*
X605957Y463831D01*
X605433Y463824D01*
X604913Y463806D01*
X604398Y463774D01*
X603888Y463730D01*
X602880Y463604D01*
X601889Y463428D01*
X600916Y463201D01*
X599961Y462923D01*
X599023Y462596D01*
X598102Y462218D01*
X597205Y461813D01*
X596336Y461372D01*
X595495Y460893D01*
X594683Y460377D01*
X593900Y459824D01*
X593145Y459233D01*
X592418Y458605D01*
X591720Y457940D01*
X591054Y457241D01*
X590423Y456511D01*
X589827Y455751D01*
X589266Y454959D01*
X588740Y454138D01*
X588249Y453285D01*
X587793Y452402D01*
X587372Y451488D01*
X587011Y450569D01*
X586697Y449634D01*
X586432Y448684D01*
X586215Y447719D01*
X586046Y446738D01*
X585926Y445742D01*
X585854Y444730D01*
X585835Y444219D01*
X585829Y443704D01*
X585835Y443180D01*
X585854Y442660D01*
X585926Y441635D01*
X586046Y440627D01*
X586215Y439636D01*
X586432Y438663D01*
X586697Y437708D01*
X587011Y436770D01*
X587372Y435849D01*
X587793Y434952D01*
X588249Y434083D01*
X588740Y433242D01*
X589266Y432430D01*
X589827Y431647D01*
X590423Y430892D01*
X591054Y430165D01*
X591720Y429467D01*
X592418Y428801D01*
X593145Y428170D01*
X593900Y427574D01*
X594683Y427013D01*
X595495Y426487D01*
X596336Y425996D01*
X596655Y425829D01*
X597205Y425540D01*
X598102Y425119D01*
X599023Y424758D01*
X599961Y424444D01*
X600916Y424179D01*
X601889Y423962D01*
X602880Y423793D01*
X603888Y423673D01*
X604913Y423601D01*
X605433Y423583D01*
X605957Y423577D01*
X606472Y423583D01*
X606983Y423601D01*
X607995Y423673D01*
X608991Y423793D01*
X609971Y423962D01*
X610937Y424179D01*
X611887Y424444D01*
X612822Y424758D01*
X613741Y425119D01*
X614655Y425540D01*
X615538Y425996D01*
X616391Y426487D01*
X617212Y427013D01*
X618003Y427574D01*
X618764Y428170D01*
X619494Y428801D01*
X620193Y429467D01*
X620858Y430165D01*
X621486Y430892D01*
X622076Y431647D01*
X622630Y432430D01*
X623146Y433242D01*
X623625Y434083D01*
X624066Y434952D01*
X624471Y435849D01*
X624849Y436770D01*
X625176Y437708D01*
X625454Y438663D01*
X625680Y439636D01*
X625857Y440627D01*
X625983Y441635D01*
X626027Y442145D01*
X626058Y442660D01*
X626077Y443180D01*
X626084Y443704D01*
X626068Y444523D01*
X626020Y445334D01*
X625941Y446136D01*
X625829Y446930D01*
X625686Y447714D01*
X625512Y448490D01*
X625305Y449257D01*
X625067Y450015D01*
X624800Y450762D01*
X624508Y451492D01*
X624191Y452208D01*
X623848Y452908D01*
X623481Y453593D01*
X623088Y454263D01*
X622670Y454917D01*
X622227Y455556D01*
X624681Y459202D01*
X625329Y458401D01*
X625939Y457574D01*
X626512Y456722D01*
X627048Y455845D01*
X627547Y454942D01*
X628008Y454015D01*
X628432Y453062D01*
X628819Y452084D01*
X629164Y451086D01*
X629463Y450074D01*
X629716Y449048D01*
X629923Y448008D01*
X630084Y446953D01*
X630199Y445884D01*
X630268Y444801D01*
X630291Y443704D01*
X630284Y443075D01*
X630262Y442451D01*
X630225Y441832D01*
X630173Y441218D01*
X630107Y440609D01*
X630025Y440005D01*
X629929Y439406D01*
X629818Y438812D01*
X629692Y438223D01*
X629552Y437639D01*
X629396Y437059D01*
X629226Y436485D01*
X629041Y435915D01*
X628842Y435351D01*
X628627Y434791D01*
X628398Y434236D01*
X627902Y433133D01*
X627361Y432067D01*
X626776Y431038D01*
X626145Y430046D01*
X625470Y429092D01*
X624749Y428174D01*
X623984Y427294D01*
X623173Y426452D01*
X622324Y425650D01*
X621440Y424891D01*
X620522Y424177D01*
X619570Y423506D01*
X618585Y422880D01*
X617565Y422297D01*
X616512Y421758D01*
X615424Y421262D01*
X614869Y421024D01*
X614310Y420802D01*
X613745Y420595D01*
X613176Y420403D01*
X612601Y420227D01*
X612022Y420066D01*
X611437Y419920D01*
X610848Y419790D01*
X610254Y419674D01*
X609655Y419575D01*
X609051Y419490D01*
X608442Y419421D01*
X607828Y419368D01*
X607209Y419329D01*
X606585Y419306D01*
X605957Y419299D01*
G37*
G36*
X606027Y425049D02*
X605053Y425072D01*
X604094Y425141D01*
X603150Y425256D01*
X602222Y425417D01*
X601309Y425625D01*
X600412Y425878D01*
X599530Y426177D01*
X598663Y426522D01*
X597818Y426907D01*
X597273Y427185D01*
X597002Y427324D01*
X596214Y427774D01*
X595455Y428258D01*
X594724Y428774D01*
X594021Y429323D01*
X593348Y429905D01*
X592702Y430519D01*
X592087Y431165D01*
X591506Y431839D01*
X590957Y432541D01*
X590440Y433272D01*
X589957Y434031D01*
X589507Y434819D01*
X589089Y435635D01*
X588705Y436480D01*
X588343Y437347D01*
X588030Y438229D01*
X587765Y439127D01*
X587548Y440039D01*
X587379Y440968D01*
X587258Y441911D01*
X587186Y442870D01*
X587168Y443355D01*
X587162Y443844D01*
X587168Y444324D01*
X587186Y444802D01*
X587258Y445746D01*
X587379Y446678D01*
X587548Y447596D01*
X587765Y448501D01*
X588030Y449393D01*
X588343Y450272D01*
X588705Y451137D01*
X589089Y451983D01*
X589507Y452801D01*
X589957Y453591D01*
X590440Y454355D01*
X590957Y455090D01*
X591506Y455799D01*
X592087Y456480D01*
X592702Y457133D01*
X593348Y457756D01*
X594021Y458345D01*
X594724Y458900D01*
X595455Y459421D01*
X596214Y459908D01*
X597002Y460362D01*
X597818Y460781D01*
X598663Y461166D01*
X599530Y461511D01*
X600412Y461810D01*
X601309Y462063D01*
X602222Y462270D01*
X603150Y462431D01*
X604094Y462547D01*
X605053Y462616D01*
X606027Y462639D01*
X606901Y462617D01*
X607771Y462551D01*
X608637Y462441D01*
X609498Y462288D01*
X610351Y462095D01*
X611190Y461867D01*
X612016Y461604D01*
X612829Y461306D01*
X609744Y456818D01*
X609288Y456947D01*
X608832Y457055D01*
X608376Y457140D01*
X607920Y457204D01*
X607460Y457250D01*
X606991Y457282D01*
X606513Y457302D01*
X606027Y457309D01*
X605332Y457293D01*
X604650Y457247D01*
X603981Y457169D01*
X603325Y457061D01*
X602681Y456922D01*
X602051Y456752D01*
X601433Y456550D01*
X600828Y456318D01*
X600236Y456055D01*
X599658Y455761D01*
X599091Y455436D01*
X598538Y455080D01*
X597998Y454693D01*
X597470Y454275D01*
X596956Y453826D01*
X596454Y453346D01*
X595974Y452845D01*
X595525Y452331D01*
X595107Y451805D01*
X594721Y451267D01*
X594365Y450716D01*
X594039Y450153D01*
X593745Y449577D01*
X593482Y448990D01*
X593250Y448390D01*
X593049Y447777D01*
X592879Y447152D01*
X592739Y446515D01*
X592631Y445866D01*
X592554Y445204D01*
X592507Y444530D01*
X592492Y443844D01*
X592507Y443149D01*
X592554Y442467D01*
X592631Y441798D01*
X592739Y441142D01*
X592879Y440498D01*
X593049Y439868D01*
X593250Y439250D01*
X593482Y438646D01*
X593745Y438054D01*
X594039Y437475D01*
X594365Y436909D01*
X594721Y436355D01*
X595107Y435815D01*
X595525Y435288D01*
X595974Y434773D01*
X596454Y434271D01*
X596956Y433791D01*
X597470Y433343D01*
X597998Y432925D01*
X598538Y432538D01*
X599091Y432182D01*
X599456Y431973D01*
X599658Y431857D01*
X600236Y431563D01*
X600828Y431300D01*
X601433Y431067D01*
X602051Y430866D01*
X602681Y430696D01*
X603325Y430557D01*
X603981Y430448D01*
X604650Y430371D01*
X605332Y430324D01*
X606027Y430309D01*
X606713Y430324D01*
X607387Y430371D01*
X608049Y430448D01*
X608698Y430557D01*
X609335Y430696D01*
X609960Y430866D01*
X610572Y431067D01*
X611172Y431300D01*
X611760Y431563D01*
X612336Y431857D01*
X612899Y432182D01*
X613449Y432538D01*
X613988Y432925D01*
X614514Y433343D01*
X615028Y433791D01*
X615529Y434271D01*
X616009Y434773D01*
X616458Y435288D01*
X616876Y435815D01*
X617263Y436355D01*
X617619Y436909D01*
X617944Y437475D01*
X618238Y438054D01*
X618501Y438646D01*
X618733Y439250D01*
X618934Y439868D01*
X619105Y440498D01*
X619244Y441142D01*
X619352Y441798D01*
X619430Y442467D01*
X619476Y443149D01*
X619492Y443844D01*
X619486Y444263D01*
X619467Y444679D01*
X619395Y445501D01*
X619275Y446309D01*
X619106Y447105D01*
X618889Y447883D01*
X618624Y448639D01*
X618310Y449373D01*
X617949Y450085D01*
X621175Y454854D01*
X621584Y454268D01*
X621972Y453666D01*
X622338Y453049D01*
X622682Y452417D01*
X623005Y451770D01*
X623305Y451107D01*
X623583Y450428D01*
X623840Y449735D01*
X624070Y449029D01*
X624269Y448315D01*
X624438Y447591D01*
X624576Y446859D01*
X624683Y446119D01*
X624760Y445369D01*
X624806Y444611D01*
X624821Y443844D01*
X624798Y442870D01*
X624729Y441911D01*
X624614Y440968D01*
X624453Y440039D01*
X624246Y439127D01*
X623993Y438229D01*
X623694Y437347D01*
X623349Y436480D01*
X622948Y435635D01*
X622516Y434819D01*
X622053Y434031D01*
X621560Y433272D01*
X621037Y432541D01*
X620482Y431839D01*
X619897Y431165D01*
X619281Y430519D01*
X618636Y429905D01*
X617962Y429323D01*
X617259Y428774D01*
X616529Y428258D01*
X615769Y427774D01*
X614981Y427324D01*
X614165Y426907D01*
X613320Y426522D01*
X612454Y426177D01*
X611576Y425878D01*
X610684Y425625D01*
X609779Y425417D01*
X608860Y425256D01*
X607929Y425141D01*
X606984Y425072D01*
X606027Y425049D01*
G37*
G36*
X601332Y432753D02*
X601127Y432761D01*
X600925Y432790D01*
X600724Y432840D01*
X600526Y432910D01*
X600330Y433002D01*
X600136Y433114D01*
X600018Y433205D01*
X599969Y433243D01*
X599818Y433384D01*
X599684Y433537D01*
X599566Y433701D01*
X599465Y433878D01*
X599380Y434067D01*
X599311Y434269D01*
X599259Y434482D01*
X599226Y434698D01*
X599213Y434909D01*
X599221Y435114D01*
X599250Y435314D01*
X599300Y435509D01*
X599371Y435698D01*
X599462Y435881D01*
X599575Y436060D01*
X604883Y443876D01*
X622804Y470266D01*
X626434Y475613D01*
X626563Y475780D01*
X626704Y475930D01*
X626857Y476065D01*
X627022Y476182D01*
X627199Y476284D01*
X627388Y476369D01*
X627589Y476437D01*
X627802Y476489D01*
X628018Y476523D01*
X628229Y476535D01*
X628435Y476527D01*
X628635Y476498D01*
X628829Y476448D01*
X629018Y476377D01*
X629202Y476286D01*
X629380Y476174D01*
X629547Y476045D01*
X629698Y475904D01*
X629832Y475751D01*
X629950Y475586D01*
X630051Y475409D01*
X630136Y475220D01*
X630204Y475019D01*
X630256Y474806D01*
X630290Y474590D01*
X630302Y474379D01*
X630294Y474173D01*
X630265Y473973D01*
X630215Y473779D01*
X630145Y473590D01*
X630053Y473406D01*
X629941Y473228D01*
X603081Y433675D01*
X602953Y433508D01*
X602814Y433357D01*
X602664Y433223D01*
X602503Y433105D01*
X602331Y433004D01*
X602148Y432919D01*
X601954Y432851D01*
X601749Y432799D01*
X601540Y432765D01*
X601332Y432753D01*
G37*
G36*
X585413Y408768D02*
X585208Y408777D01*
X585005Y408806D01*
X584805Y408855D01*
X584607Y408926D01*
X584410Y409018D01*
X584216Y409130D01*
X584049Y409259D01*
X583899Y409399D01*
X583764Y409552D01*
X583647Y409717D01*
X583545Y409894D01*
X583460Y410083D01*
X583392Y410284D01*
X583340Y410497D01*
X583306Y410714D01*
X583294Y410925D01*
X583302Y411130D01*
X583331Y411330D01*
X583381Y411525D01*
X583452Y411714D01*
X583543Y411897D01*
X583655Y412075D01*
X590107Y421543D01*
X593614Y419158D01*
X587162Y409691D01*
X587034Y409524D01*
X586895Y409373D01*
X586744Y409239D01*
X586583Y409121D01*
X586411Y409020D01*
X586228Y408935D01*
X586034Y408866D01*
X585829Y408814D01*
X585620Y408781D01*
X585413Y408768D01*
G37*
G36*
X699724Y-205313D02*
X697105Y-205297D01*
X694496Y-205250D01*
X691896Y-205172D01*
X689306Y-205062D01*
X686726Y-204921D01*
X684155Y-204749D01*
X681595Y-204546D01*
X679044Y-204311D01*
X676502Y-204045D01*
X673971Y-203748D01*
X671449Y-203420D01*
X668936Y-203060D01*
X666434Y-202669D01*
X663941Y-202246D01*
X661458Y-201793D01*
X658985Y-201308D01*
X656521Y-200791D01*
X654067Y-200244D01*
X651623Y-199665D01*
X649188Y-199055D01*
X646763Y-198414D01*
X644348Y-197741D01*
X641943Y-197037D01*
X639547Y-196302D01*
X637161Y-195535D01*
X634785Y-194737D01*
X632418Y-193908D01*
X630061Y-193048D01*
X627714Y-192156D01*
X625377Y-191233D01*
X623049Y-190279D01*
X620731Y-189293D01*
X618427Y-188281D01*
X616142Y-187246D01*
X613876Y-186190D01*
X611629Y-185111D01*
X609401Y-184010D01*
X607607Y-183099D01*
X607192Y-182888D01*
X605001Y-181743D01*
X602830Y-180575D01*
X600677Y-179386D01*
X598543Y-178175D01*
X596428Y-176941D01*
X594332Y-175686D01*
X592255Y-174408D01*
X590197Y-173108D01*
X588158Y-171786D01*
X586137Y-170442D01*
X584135Y-169076D01*
X582153Y-167688D01*
X580189Y-166278D01*
X578244Y-164845D01*
X576318Y-163390D01*
X574410Y-161914D01*
X572522Y-160415D01*
X570653Y-158894D01*
X568802Y-157351D01*
X566970Y-155785D01*
X565157Y-154198D01*
X563363Y-152589D01*
X561588Y-150957D01*
X559832Y-149303D01*
X558095Y-147628D01*
X556377Y-145930D01*
X554679Y-144211D01*
X553003Y-142474D01*
X551349Y-140718D01*
X549718Y-138943D01*
X548108Y-137149D01*
X546521Y-135336D01*
X544956Y-133504D01*
X543412Y-131654D01*
X541891Y-129784D01*
X540393Y-127896D01*
X538916Y-125989D01*
X537461Y-124062D01*
X536029Y-122117D01*
X534618Y-120154D01*
X533230Y-118171D01*
X531864Y-116169D01*
X530520Y-114149D01*
X529198Y-112109D01*
X527898Y-110051D01*
X526620Y-107974D01*
X525365Y-105878D01*
X524131Y-103763D01*
X522920Y-101629D01*
X521731Y-99476D01*
X520564Y-97305D01*
X519419Y-95114D01*
X518296Y-92905D01*
X517195Y-90677D01*
X516116Y-88430D01*
X515060Y-86164D01*
X514025Y-83879D01*
X513013Y-81575D01*
X512028Y-79257D01*
X511073Y-76929D01*
X510150Y-74592D01*
X509259Y-72245D01*
X508398Y-69888D01*
X507569Y-67521D01*
X506771Y-65145D01*
X506005Y-62759D01*
X505269Y-60363D01*
X504565Y-57958D01*
X503893Y-55543D01*
X503251Y-53118D01*
X502641Y-50684D01*
X502062Y-48239D01*
X501515Y-45785D01*
X500999Y-43322D01*
X500514Y-40848D01*
X500060Y-38365D01*
X499638Y-35872D01*
X499246Y-33370D01*
X498887Y-30858D01*
X498558Y-28336D01*
X498261Y-25804D01*
X497995Y-23263D01*
X497760Y-20712D01*
X497557Y-18151D01*
X497385Y-15580D01*
X497244Y-13000D01*
X497134Y-10410D01*
X497056Y-7811D01*
X497009Y-5201D01*
X496994Y-2582D01*
X497009Y37D01*
X497056Y2646D01*
X497134Y5246D01*
X497244Y7836D01*
X497385Y10416D01*
X497557Y12986D01*
X497760Y15547D01*
X497995Y18098D01*
X498261Y20640D01*
X498558Y23171D01*
X498887Y25693D01*
X499246Y28205D01*
X499638Y30708D01*
X500060Y33201D01*
X500514Y35684D01*
X500999Y38157D01*
X501515Y40621D01*
X502062Y43075D01*
X502641Y45519D01*
X503251Y47954D01*
X503893Y50378D01*
X504565Y52794D01*
X505269Y55199D01*
X506005Y57595D01*
X506771Y59981D01*
X507569Y62357D01*
X508398Y64724D01*
X509259Y67080D01*
X510150Y69428D01*
X511073Y71765D01*
X512028Y74093D01*
X513013Y76411D01*
X514025Y78681D01*
X515060Y80934D01*
X516116Y83169D01*
X517195Y85387D01*
X518296Y87588D01*
X519419Y89772D01*
X520564Y91938D01*
X521731Y94088D01*
X522920Y96219D01*
X524131Y98334D01*
X525365Y100432D01*
X526620Y102512D01*
X527898Y104574D01*
X529198Y106620D01*
X530520Y108648D01*
X531864Y110660D01*
X533230Y112653D01*
X534618Y114630D01*
X536029Y116589D01*
X537461Y118531D01*
X538916Y120456D01*
X540393Y122363D01*
X541891Y124254D01*
X543412Y126127D01*
X544956Y127982D01*
X546521Y129821D01*
X548108Y131642D01*
X549718Y133446D01*
X551349Y135233D01*
X553003Y137002D01*
X554679Y138754D01*
X556377Y140489D01*
X558095Y142204D01*
X559832Y143896D01*
X561588Y145566D01*
X563363Y147213D01*
X565157Y148837D01*
X566970Y150439D01*
X568802Y152018D01*
X570653Y153574D01*
X572522Y155108D01*
X574410Y156619D01*
X576318Y158107D01*
X578244Y159573D01*
X580189Y161016D01*
X582153Y162436D01*
X584135Y163834D01*
X586137Y165209D01*
X588158Y166561D01*
X590197Y167891D01*
X592255Y169198D01*
X594332Y170483D01*
X596428Y171744D01*
X598543Y172983D01*
X600677Y174200D01*
X602830Y175394D01*
X605001Y176565D01*
X607192Y177713D01*
X609401Y178839D01*
X611629Y179942D01*
X613876Y181023D01*
X616142Y182081D01*
X618427Y183116D01*
X620731Y184129D01*
X623049Y185080D01*
X625377Y186002D01*
X627714Y186893D01*
X630061Y187754D01*
X632418Y188584D01*
X634785Y189385D01*
X637161Y190155D01*
X639547Y190895D01*
X641943Y191605D01*
X644348Y192285D01*
X646763Y192935D01*
X649188Y193554D01*
X651623Y194143D01*
X654067Y194702D01*
X656521Y195230D01*
X658985Y195729D01*
X661458Y196197D01*
X663941Y196635D01*
X666434Y197043D01*
X668936Y197421D01*
X671449Y197768D01*
X673971Y198085D01*
X676502Y198372D01*
X679044Y198629D01*
X681595Y198856D01*
X684155Y199052D01*
X686726Y199218D01*
X689306Y199354D01*
X691896Y199460D01*
X694496Y199535D01*
X697105Y199581D01*
X699724Y199596D01*
X702412Y199580D01*
X705088Y199531D01*
X707754Y199450D01*
X710409Y199337D01*
X713054Y199191D01*
X715687Y199013D01*
X718310Y198803D01*
X720922Y198560D01*
X723524Y198285D01*
X726114Y197977D01*
X728694Y197637D01*
X731262Y197265D01*
X733821Y196861D01*
X736368Y196424D01*
X738904Y195954D01*
X741430Y195453D01*
X743945Y194919D01*
X746449Y194352D01*
X748942Y193753D01*
X751425Y193122D01*
X753897Y192459D01*
X756358Y191763D01*
X758808Y191035D01*
X761247Y190274D01*
X763676Y189481D01*
X766094Y188656D01*
X768501Y187798D01*
X770897Y186908D01*
X773283Y185985D01*
X775657Y185031D01*
X778021Y184043D01*
X780374Y183024D01*
X760488Y153194D01*
X758689Y153875D01*
X756884Y154536D01*
X755073Y155178D01*
X753255Y155801D01*
X751430Y156404D01*
X749600Y156988D01*
X747762Y157552D01*
X745918Y158097D01*
X744068Y158622D01*
X742211Y159128D01*
X740348Y159615D01*
X738478Y160082D01*
X736602Y160530D01*
X734719Y160958D01*
X732830Y161367D01*
X730934Y161756D01*
X729032Y162124D01*
X727124Y162468D01*
X725209Y162789D01*
X723287Y163086D01*
X721359Y163359D01*
X719425Y163608D01*
X717484Y163833D01*
X715536Y164035D01*
X713582Y164213D01*
X711622Y164367D01*
X709655Y164498D01*
X707682Y164605D01*
X705702Y164688D01*
X703716Y164747D01*
X701723Y164783D01*
X699724Y164795D01*
X697553Y164782D01*
X695391Y164743D01*
X693238Y164678D01*
X691093Y164587D01*
X688957Y164471D01*
X686829Y164328D01*
X684710Y164160D01*
X682600Y163966D01*
X680498Y163746D01*
X678405Y163500D01*
X676320Y163228D01*
X674245Y162930D01*
X672177Y162607D01*
X670119Y162257D01*
X668069Y161882D01*
X666028Y161480D01*
X663995Y161053D01*
X661971Y160600D01*
X659956Y160121D01*
X657949Y159616D01*
X655951Y159085D01*
X653961Y158528D01*
X651980Y157946D01*
X650008Y157337D01*
X648044Y156703D01*
X646090Y156043D01*
X644143Y155356D01*
X642205Y154644D01*
X640276Y153906D01*
X638356Y153142D01*
X636444Y152353D01*
X634541Y151537D01*
X632649Y150699D01*
X630772Y149843D01*
X628910Y148969D01*
X627062Y148076D01*
X625229Y147165D01*
X623410Y146235D01*
X621606Y145287D01*
X619816Y144321D01*
X618041Y143337D01*
X616280Y142334D01*
X614535Y141313D01*
X612803Y140273D01*
X611086Y139215D01*
X609384Y138139D01*
X607696Y137045D01*
X606023Y135932D01*
X604365Y134801D01*
X602721Y133651D01*
X601091Y132483D01*
X599477Y131297D01*
X597876Y130092D01*
X596291Y128869D01*
X594719Y127628D01*
X593163Y126368D01*
X591621Y125090D01*
X590093Y123794D01*
X588580Y122479D01*
X587082Y121146D01*
X585598Y119795D01*
X584129Y118425D01*
X582675Y117037D01*
X581234Y115631D01*
X579812Y114208D01*
X578409Y112770D01*
X577026Y111317D01*
X575663Y109848D01*
X574320Y108365D01*
X572997Y106866D01*
X571694Y105352D01*
X570411Y103824D01*
X569148Y102280D01*
X567905Y100721D01*
X566681Y99147D01*
X565478Y97557D01*
X564295Y95953D01*
X563132Y94334D01*
X561988Y92699D01*
X560865Y91049D01*
X559761Y89385D01*
X558678Y87705D01*
X557614Y86010D01*
X556571Y84300D01*
X555547Y82575D01*
X554543Y80834D01*
X553560Y79079D01*
X552596Y77308D01*
X551652Y75523D01*
X550728Y73722D01*
X549825Y71906D01*
X548941Y70075D01*
X548077Y68229D01*
X547233Y66368D01*
X546409Y64492D01*
X545605Y62601D01*
X544789Y60698D01*
X543999Y58786D01*
X543235Y56865D01*
X542497Y54936D01*
X541785Y52999D01*
X541099Y51052D01*
X540439Y49097D01*
X539805Y47134D01*
X539196Y45161D01*
X538613Y43181D01*
X538057Y41191D01*
X537526Y39193D01*
X537021Y37186D01*
X536542Y35171D01*
X536089Y33147D01*
X535662Y31114D01*
X535260Y29073D01*
X534885Y27023D01*
X534535Y24964D01*
X534212Y22897D01*
X533914Y20821D01*
X533642Y18737D01*
X533396Y16644D01*
X533176Y14542D01*
X532982Y12432D01*
X532813Y10313D01*
X532671Y8185D01*
X532554Y6049D01*
X532464Y3904D01*
X532399Y1751D01*
X532360Y-411D01*
X532347Y-2582D01*
X532360Y-4753D01*
X532399Y-6915D01*
X532464Y-9069D01*
X532554Y-11213D01*
X532671Y-13350D01*
X532813Y-15477D01*
X532982Y-17596D01*
X533176Y-19707D01*
X533396Y-21808D01*
X533642Y-23901D01*
X533914Y-25986D01*
X534212Y-28062D01*
X534535Y-30129D01*
X534885Y-32187D01*
X535260Y-34237D01*
X535662Y-36279D01*
X536089Y-38311D01*
X536542Y-40335D01*
X537021Y-42351D01*
X537526Y-44357D01*
X538057Y-46356D01*
X538613Y-48345D01*
X539196Y-50326D01*
X539805Y-52298D01*
X540439Y-54262D01*
X541099Y-56217D01*
X541785Y-58163D01*
X542497Y-60101D01*
X543235Y-62030D01*
X543999Y-63950D01*
X544789Y-65862D01*
X545605Y-67765D01*
X546409Y-69657D01*
X547233Y-71533D01*
X548077Y-73394D01*
X548941Y-75240D01*
X549825Y-77071D01*
X550728Y-78887D01*
X551652Y-80687D01*
X552596Y-82473D01*
X553560Y-84243D01*
X554543Y-85999D01*
X555547Y-87739D01*
X556571Y-89464D01*
X557614Y-91174D01*
X558678Y-92869D01*
X559761Y-94549D01*
X560865Y-96214D01*
X561988Y-97863D01*
X563132Y-99498D01*
X564295Y-101117D01*
X565478Y-102722D01*
X566681Y-104311D01*
X567905Y-105885D01*
X569148Y-107444D01*
X570411Y-108988D01*
X571694Y-110517D01*
X572997Y-112031D01*
X574320Y-113529D01*
X575663Y-115013D01*
X577026Y-116481D01*
X578409Y-117934D01*
X579812Y-119372D01*
X581234Y-120796D01*
X582675Y-122202D01*
X584129Y-123590D01*
X585598Y-124960D01*
X587082Y-126311D01*
X588580Y-127644D01*
X590093Y-128959D01*
X591621Y-130255D01*
X593163Y-131533D01*
X594719Y-132792D01*
X596291Y-134034D01*
X597876Y-135257D01*
X599477Y-136461D01*
X601091Y-137647D01*
X602721Y-138815D01*
X604365Y-139965D01*
X606023Y-141096D01*
X607696Y-142209D01*
X609384Y-143304D01*
X611086Y-144380D01*
X612803Y-145438D01*
X614535Y-146477D01*
X616280Y-147498D01*
X618041Y-148501D01*
X619816Y-149486D01*
X621606Y-150452D01*
X622318Y-150826D01*
X623410Y-151400D01*
X625229Y-152329D01*
X627062Y-153240D01*
X628910Y-154133D01*
X630772Y-155008D01*
X632649Y-155864D01*
X634541Y-156701D01*
X636444Y-157517D01*
X638356Y-158307D01*
X640276Y-159071D01*
X642205Y-159809D01*
X644143Y-160521D01*
X646090Y-161207D01*
X648044Y-161867D01*
X650008Y-162502D01*
X651980Y-163110D01*
X653961Y-163693D01*
X655951Y-164249D01*
X657949Y-164780D01*
X659956Y-165285D01*
X661971Y-165764D01*
X663995Y-166217D01*
X666028Y-166645D01*
X668069Y-167046D01*
X670119Y-167421D01*
X672177Y-167771D01*
X674245Y-168095D01*
X676320Y-168392D01*
X678405Y-168664D01*
X680498Y-168910D01*
X682600Y-169130D01*
X684710Y-169325D01*
X686829Y-169493D01*
X688957Y-169635D01*
X691093Y-169752D01*
X693238Y-169843D01*
X695391Y-169907D01*
X697553Y-169946D01*
X699724Y-169959D01*
X701861Y-169946D01*
X703990Y-169907D01*
X706112Y-169843D01*
X708226Y-169752D01*
X710332Y-169635D01*
X712431Y-169493D01*
X714523Y-169325D01*
X716607Y-169130D01*
X718683Y-168910D01*
X720752Y-168664D01*
X722813Y-168392D01*
X724867Y-168095D01*
X726913Y-167771D01*
X728951Y-167421D01*
X730983Y-167046D01*
X733006Y-166645D01*
X735022Y-166217D01*
X737030Y-165764D01*
X739031Y-165285D01*
X741024Y-164780D01*
X743010Y-164249D01*
X744988Y-163693D01*
X746959Y-163110D01*
X748922Y-162502D01*
X750877Y-161867D01*
X752825Y-161207D01*
X754766Y-160521D01*
X756699Y-159809D01*
X758624Y-159071D01*
X760542Y-158307D01*
X762452Y-157517D01*
X764355Y-156701D01*
X766280Y-155864D01*
X768189Y-155008D01*
X770082Y-154133D01*
X771959Y-153240D01*
X773819Y-152329D01*
X775664Y-151400D01*
X777492Y-150452D01*
X779304Y-149486D01*
X781100Y-148501D01*
X782879Y-147498D01*
X784643Y-146477D01*
X786390Y-145438D01*
X788121Y-144380D01*
X789836Y-143304D01*
X791535Y-142209D01*
X793217Y-141096D01*
X794884Y-139965D01*
X796534Y-138815D01*
X798168Y-137647D01*
X799786Y-136461D01*
X801387Y-135257D01*
X802973Y-134034D01*
X804542Y-132792D01*
X806095Y-131533D01*
X807632Y-130255D01*
X809153Y-128959D01*
X810657Y-127644D01*
X812146Y-126311D01*
X813618Y-124960D01*
X815074Y-123590D01*
X816514Y-122202D01*
X817937Y-120796D01*
X819344Y-119372D01*
X820732Y-117934D01*
X822101Y-116481D01*
X823453Y-115013D01*
X824786Y-113529D01*
X826100Y-112031D01*
X827397Y-110517D01*
X828675Y-108988D01*
X829934Y-107444D01*
X831175Y-105885D01*
X832398Y-104311D01*
X833603Y-102722D01*
X834789Y-101117D01*
X835957Y-99498D01*
X837107Y-97863D01*
X838238Y-96214D01*
X839351Y-94549D01*
X840445Y-92869D01*
X841522Y-91174D01*
X842579Y-89464D01*
X843619Y-87739D01*
X844640Y-85999D01*
X845643Y-84243D01*
X846627Y-82473D01*
X847594Y-80687D01*
X848541Y-78887D01*
X849471Y-77071D01*
X850382Y-75240D01*
X851275Y-73394D01*
X852149Y-71533D01*
X853005Y-69657D01*
X853843Y-67765D01*
X854625Y-65862D01*
X855382Y-63950D01*
X856114Y-62030D01*
X856821Y-60101D01*
X857503Y-58163D01*
X858161Y-56217D01*
X858794Y-54262D01*
X859402Y-52298D01*
X859985Y-50326D01*
X860543Y-48345D01*
X861077Y-46356D01*
X861585Y-44357D01*
X862069Y-42351D01*
X862528Y-40335D01*
X862963Y-38311D01*
X863372Y-36279D01*
X863757Y-34237D01*
X864117Y-32187D01*
X864452Y-30129D01*
X864762Y-28062D01*
X865047Y-25986D01*
X865308Y-23901D01*
X865543Y-21808D01*
X865754Y-19707D01*
X865940Y-17596D01*
X866102Y-15477D01*
X866238Y-13350D01*
X866350Y-11213D01*
X866437Y-9069D01*
X866499Y-6915D01*
X866536Y-4753D01*
X866548Y-2582D01*
X866540Y-858D01*
X866516Y861D01*
X866476Y2575D01*
X866419Y4284D01*
X866346Y5988D01*
X866257Y7688D01*
X866152Y9383D01*
X866031Y11072D01*
X865893Y12757D01*
X865739Y14437D01*
X865569Y16113D01*
X865383Y17783D01*
X865181Y19449D01*
X864962Y21109D01*
X864728Y22765D01*
X864477Y24416D01*
X864210Y26062D01*
X863927Y27704D01*
X863627Y29340D01*
X863312Y30972D01*
X862980Y32598D01*
X862632Y34220D01*
X862268Y35837D01*
X861888Y37449D01*
X861491Y39057D01*
X861078Y40659D01*
X860649Y42257D01*
X860204Y43849D01*
X859743Y45437D01*
X859266Y47020D01*
X858772Y48599D01*
X858262Y50172D01*
X857738Y51738D01*
X857199Y53295D01*
X856646Y54843D01*
X856079Y56382D01*
X855498Y57912D01*
X854903Y59432D01*
X854294Y60943D01*
X853671Y62445D01*
X853033Y63938D01*
X852382Y65422D01*
X851717Y66897D01*
X851038Y68362D01*
X850345Y69818D01*
X849638Y71266D01*
X848916Y72703D01*
X848181Y74132D01*
X847432Y75552D01*
X846668Y76962D01*
X845891Y78363D01*
X845100Y79755D01*
X844294Y81138D01*
X843475Y82512D01*
X842641Y83877D01*
X841794Y85232D01*
X840933Y86578D01*
X840057Y87915D01*
X839167Y89243D01*
X838264Y90562D01*
X837346Y91871D01*
X836415Y93172D01*
X835469Y94463D01*
X834509Y95745D01*
X855500Y126679D01*
X856838Y125016D01*
X858158Y123340D01*
X859460Y121652D01*
X860744Y119951D01*
X862010Y118238D01*
X863259Y116513D01*
X864490Y114775D01*
X865703Y113024D01*
X866898Y111262D01*
X868075Y109487D01*
X869235Y107699D01*
X870376Y105899D01*
X871500Y104087D01*
X872606Y102262D01*
X873695Y100425D01*
X874765Y98576D01*
X875818Y96714D01*
X876853Y94840D01*
X877870Y92953D01*
X878869Y91054D01*
X879851Y89142D01*
X880815Y87218D01*
X881761Y85282D01*
X882689Y83333D01*
X883599Y81372D01*
X884492Y79398D01*
X885366Y77412D01*
X886223Y75414D01*
X887062Y73403D01*
X887884Y71380D01*
X888687Y69344D01*
X889473Y67296D01*
X890238Y65238D01*
X890978Y63172D01*
X891694Y61097D01*
X892386Y59015D01*
X893054Y56924D01*
X893697Y54825D01*
X894316Y52718D01*
X894911Y50603D01*
X895481Y48480D01*
X896027Y46349D01*
X896549Y44210D01*
X897047Y42063D01*
X897520Y39907D01*
X897969Y37744D01*
X898394Y35572D01*
X898795Y33393D01*
X899171Y31205D01*
X899523Y29009D01*
X899851Y26805D01*
X900154Y24593D01*
X900433Y22373D01*
X900688Y20145D01*
X900919Y17909D01*
X901125Y15664D01*
X901307Y13412D01*
X901465Y11151D01*
X901598Y8882D01*
X901708Y6606D01*
X901793Y4321D01*
X901853Y2028D01*
X901890Y-273D01*
X901902Y-2582D01*
X901886Y-5201D01*
X901839Y-7811D01*
X901761Y-10410D01*
X901652Y-13000D01*
X901511Y-15580D01*
X901339Y-18151D01*
X901135Y-20712D01*
X900901Y-23263D01*
X900635Y-25804D01*
X900337Y-28336D01*
X900009Y-30858D01*
X899649Y-33370D01*
X899258Y-35872D01*
X898836Y-38365D01*
X898382Y-40848D01*
X897897Y-43322D01*
X897381Y-45785D01*
X896833Y-48239D01*
X896254Y-50684D01*
X895644Y-53118D01*
X895003Y-55543D01*
X894330Y-57958D01*
X893626Y-60363D01*
X892891Y-62759D01*
X892124Y-65145D01*
X891326Y-67521D01*
X890497Y-69888D01*
X889637Y-72245D01*
X888745Y-74592D01*
X887822Y-76929D01*
X886868Y-79257D01*
X885882Y-81575D01*
X884904Y-83879D01*
X883901Y-86164D01*
X882875Y-88430D01*
X881826Y-90677D01*
X880752Y-92905D01*
X879655Y-95114D01*
X878534Y-97305D01*
X877389Y-99476D01*
X876221Y-101629D01*
X875029Y-103763D01*
X873813Y-105878D01*
X872573Y-107974D01*
X871310Y-110051D01*
X870022Y-112109D01*
X868712Y-114149D01*
X867377Y-116169D01*
X866019Y-118171D01*
X864637Y-120154D01*
X863231Y-122117D01*
X861801Y-124062D01*
X860348Y-125989D01*
X858871Y-127896D01*
X857370Y-129784D01*
X855846Y-131654D01*
X854297Y-133504D01*
X852725Y-135336D01*
X851130Y-137149D01*
X849510Y-138943D01*
X847867Y-140718D01*
X846200Y-142474D01*
X844510Y-144211D01*
X842795Y-145930D01*
X841060Y-147628D01*
X839306Y-149303D01*
X837534Y-150957D01*
X835744Y-152589D01*
X833935Y-154198D01*
X832108Y-155785D01*
X830262Y-157351D01*
X828398Y-158894D01*
X826516Y-160415D01*
X824616Y-161914D01*
X822697Y-163390D01*
X820760Y-164845D01*
X818804Y-166278D01*
X816830Y-167688D01*
X814838Y-169076D01*
X812828Y-170442D01*
X810799Y-171786D01*
X808752Y-173108D01*
X806686Y-174408D01*
X804602Y-175686D01*
X802500Y-176941D01*
X800379Y-178175D01*
X798240Y-179386D01*
X796083Y-180575D01*
X793907Y-181743D01*
X791713Y-182888D01*
X789501Y-184010D01*
X787271Y-185111D01*
X785022Y-186190D01*
X782754Y-187246D01*
X780469Y-188281D01*
X778165Y-189293D01*
X775881Y-190279D01*
X773586Y-191233D01*
X771280Y-192156D01*
X768964Y-193048D01*
X766636Y-193908D01*
X764299Y-194737D01*
X761950Y-195535D01*
X759590Y-196302D01*
X757220Y-197037D01*
X754839Y-197741D01*
X752447Y-198414D01*
X750044Y-199055D01*
X747631Y-199665D01*
X745206Y-200244D01*
X742771Y-200791D01*
X740325Y-201308D01*
X737869Y-201793D01*
X735401Y-202246D01*
X732923Y-202669D01*
X730434Y-203060D01*
X727934Y-203420D01*
X725423Y-203748D01*
X722902Y-204045D01*
X720370Y-204311D01*
X717827Y-204546D01*
X715273Y-204749D01*
X712709Y-204921D01*
X710133Y-205062D01*
X707547Y-205172D01*
X704950Y-205250D01*
X702342Y-205297D01*
X699724Y-205313D01*
G37*
G36*
X699724Y-157806D02*
X697725Y-157794D01*
X695732Y-157759D01*
X693746Y-157699D01*
X691766Y-157616D01*
X689793Y-157510D01*
X687826Y-157379D01*
X685865Y-157225D01*
X683912Y-157047D01*
X681964Y-156845D01*
X680023Y-156619D01*
X678089Y-156370D01*
X676161Y-156097D01*
X674239Y-155801D01*
X672324Y-155480D01*
X670416Y-155136D01*
X668513Y-154768D01*
X666618Y-154376D01*
X664729Y-153961D01*
X662846Y-153522D01*
X660970Y-153059D01*
X659100Y-152573D01*
X657237Y-152062D01*
X655380Y-151528D01*
X653530Y-150970D01*
X651686Y-150389D01*
X649848Y-149784D01*
X648018Y-149155D01*
X646193Y-148502D01*
X644375Y-147825D01*
X642564Y-147125D01*
X640759Y-146401D01*
X638960Y-145654D01*
X637206Y-144885D01*
X635466Y-144099D01*
X633738Y-143295D01*
X632025Y-142473D01*
X630325Y-141633D01*
X628638Y-140776D01*
X627234Y-140041D01*
X626965Y-139901D01*
X625306Y-139007D01*
X623659Y-138097D01*
X622027Y-137168D01*
X620408Y-136221D01*
X618802Y-135257D01*
X617210Y-134275D01*
X615631Y-133275D01*
X614066Y-132258D01*
X612514Y-131222D01*
X610976Y-130169D01*
X609451Y-129098D01*
X607940Y-128009D01*
X606442Y-126902D01*
X604958Y-125778D01*
X603487Y-124635D01*
X602030Y-123475D01*
X600586Y-122297D01*
X599155Y-121102D01*
X597738Y-119888D01*
X596335Y-118657D01*
X594945Y-117408D01*
X593569Y-116141D01*
X592206Y-114856D01*
X590856Y-113554D01*
X589520Y-112233D01*
X588200Y-110897D01*
X586898Y-109546D01*
X585613Y-108180D01*
X584346Y-106800D01*
X583097Y-105405D01*
X581866Y-103996D01*
X580652Y-102572D01*
X579456Y-101134D01*
X578279Y-99681D01*
X577118Y-98213D01*
X575976Y-96731D01*
X574852Y-95234D01*
X573745Y-93723D01*
X572656Y-92197D01*
X571585Y-90657D01*
X570532Y-89102D01*
X569496Y-87532D01*
X568479Y-85948D01*
X567479Y-84349D01*
X566497Y-82736D01*
X565532Y-81108D01*
X564586Y-79466D01*
X563657Y-77809D01*
X562746Y-76138D01*
X561853Y-74452D01*
X560978Y-72751D01*
X560121Y-71036D01*
X559281Y-69306D01*
X558459Y-67562D01*
X557655Y-65803D01*
X556869Y-64029D01*
X556100Y-62241D01*
X555353Y-60476D01*
X554629Y-58702D01*
X553928Y-56920D01*
X553252Y-55129D01*
X552599Y-53330D01*
X551970Y-51521D01*
X551365Y-49704D01*
X550783Y-47879D01*
X550226Y-46045D01*
X549692Y-44202D01*
X549181Y-42351D01*
X548695Y-40491D01*
X548232Y-38622D01*
X547793Y-36745D01*
X547377Y-34859D01*
X546986Y-32964D01*
X546618Y-31061D01*
X546274Y-29149D01*
X545953Y-27229D01*
X545657Y-25300D01*
X545384Y-23362D01*
X545134Y-21416D01*
X544909Y-19461D01*
X544707Y-17497D01*
X544529Y-15525D01*
X544375Y-13544D01*
X544244Y-11554D01*
X544137Y-9556D01*
X544054Y-7550D01*
X543995Y-5534D01*
X543959Y-3510D01*
X543948Y-1477D01*
X543959Y522D01*
X543995Y2515D01*
X544054Y4501D01*
X544137Y6481D01*
X544244Y8454D01*
X544375Y10421D01*
X544529Y12381D01*
X544707Y14335D01*
X544909Y16282D01*
X545134Y18223D01*
X545384Y20158D01*
X545657Y22086D01*
X545953Y24007D01*
X546274Y25922D01*
X546618Y27831D01*
X546986Y29733D01*
X547377Y31629D01*
X547793Y33518D01*
X548232Y35401D01*
X548695Y37277D01*
X549181Y39147D01*
X549692Y41010D01*
X550226Y42867D01*
X550783Y44717D01*
X551365Y46561D01*
X551970Y48398D01*
X552599Y50229D01*
X553252Y52053D01*
X553928Y53871D01*
X554629Y55683D01*
X555353Y57488D01*
X556100Y59286D01*
X556869Y61040D01*
X557655Y62781D01*
X558459Y64508D01*
X559281Y66222D01*
X560121Y67922D01*
X560978Y69608D01*
X561853Y71281D01*
X562746Y72941D01*
X563657Y74587D01*
X564586Y76220D01*
X565532Y77839D01*
X566497Y79445D01*
X567479Y81037D01*
X568479Y82616D01*
X569496Y84181D01*
X570532Y85733D01*
X571585Y87271D01*
X572656Y88796D01*
X573745Y90307D01*
X574852Y91805D01*
X575976Y93289D01*
X577118Y94760D01*
X578279Y96217D01*
X579456Y97661D01*
X580652Y99091D01*
X581866Y100508D01*
X583097Y101911D01*
X584346Y103301D01*
X585613Y104678D01*
X586898Y106041D01*
X588200Y107390D01*
X589520Y108726D01*
X590856Y110046D01*
X592206Y111349D01*
X593569Y112634D01*
X594945Y113901D01*
X596335Y115150D01*
X597738Y116381D01*
X599155Y117594D01*
X600586Y118790D01*
X602030Y119968D01*
X603487Y121128D01*
X604958Y122270D01*
X606442Y123395D01*
X607940Y124502D01*
X609451Y125590D01*
X610976Y126662D01*
X612514Y127715D01*
X614066Y128750D01*
X615631Y129768D01*
X617210Y130768D01*
X618802Y131750D01*
X620408Y132714D01*
X622027Y133661D01*
X623659Y134589D01*
X625306Y135500D01*
X626965Y136393D01*
X628638Y137269D01*
X630325Y138126D01*
X632025Y138966D01*
X633738Y139787D01*
X635466Y140592D01*
X637206Y141378D01*
X638960Y142146D01*
X640759Y142928D01*
X642564Y143685D01*
X644375Y144417D01*
X646193Y145124D01*
X648018Y145806D01*
X649848Y146464D01*
X651686Y147097D01*
X653530Y147705D01*
X655380Y148288D01*
X657237Y148846D01*
X659100Y149380D01*
X660970Y149888D01*
X662846Y150372D01*
X664729Y150831D01*
X666618Y151266D01*
X668513Y151675D01*
X670416Y152060D01*
X672324Y152420D01*
X674239Y152755D01*
X676161Y153065D01*
X678089Y153350D01*
X680023Y153611D01*
X681964Y153846D01*
X683912Y154057D01*
X685865Y154243D01*
X687826Y154405D01*
X689793Y154541D01*
X691766Y154653D01*
X693746Y154740D01*
X695732Y154802D01*
X697725Y154839D01*
X699724Y154851D01*
X701652Y154841D01*
X703569Y154808D01*
X705476Y154754D01*
X707371Y154679D01*
X709256Y154582D01*
X711130Y154463D01*
X712993Y154323D01*
X714846Y154161D01*
X716688Y153977D01*
X718518Y153773D01*
X720339Y153546D01*
X722148Y153298D01*
X723946Y153028D01*
X725734Y152737D01*
X727511Y152424D01*
X729277Y152089D01*
X731035Y151733D01*
X732786Y151356D01*
X734530Y150957D01*
X736269Y150536D01*
X738000Y150093D01*
X739725Y149630D01*
X741444Y149144D01*
X743156Y148637D01*
X744862Y148108D01*
X746561Y147558D01*
X748254Y146986D01*
X749940Y146393D01*
X751620Y145778D01*
X753294Y145141D01*
X754961Y144483D01*
X756621Y143803D01*
X731211Y106240D01*
X729402Y106775D01*
X727568Y107276D01*
X725708Y107742D01*
X723822Y108174D01*
X721911Y108571D01*
X719973Y108933D01*
X718009Y109261D01*
X716020Y109555D01*
X714013Y109814D01*
X711998Y110038D01*
X709974Y110228D01*
X707941Y110383D01*
X705900Y110504D01*
X703850Y110590D01*
X701791Y110642D01*
X699724Y110660D01*
X698277Y110651D01*
X696835Y110625D01*
X695398Y110582D01*
X693967Y110521D01*
X692541Y110444D01*
X691121Y110349D01*
X689706Y110237D01*
X688296Y110107D01*
X686892Y109960D01*
X685493Y109796D01*
X684100Y109615D01*
X682712Y109417D01*
X681329Y109201D01*
X679952Y108968D01*
X678580Y108717D01*
X677214Y108450D01*
X675853Y108165D01*
X674497Y107863D01*
X673147Y107544D01*
X671802Y107207D01*
X670462Y106853D01*
X669128Y106482D01*
X667800Y106094D01*
X666476Y105688D01*
X665159Y105265D01*
X663846Y104825D01*
X662539Y104367D01*
X661237Y103893D01*
X659941Y103401D01*
X658650Y102891D01*
X657365Y102365D01*
X656084Y101821D01*
X654812Y101263D01*
X653550Y100692D01*
X651057Y99512D01*
X648604Y98283D01*
X646193Y97005D01*
X643823Y95677D01*
X641493Y94299D01*
X639205Y92872D01*
X636958Y91395D01*
X634751Y89868D01*
X632586Y88292D01*
X630462Y86666D01*
X628378Y84990D01*
X626336Y83265D01*
X624334Y81490D01*
X622374Y79666D01*
X620455Y77792D01*
X618581Y75872D01*
X616756Y73912D01*
X614981Y71911D01*
X613256Y69868D01*
X611581Y67785D01*
X609955Y65661D01*
X608379Y63495D01*
X606852Y61289D01*
X605375Y59042D01*
X603948Y56753D01*
X602570Y54424D01*
X601242Y52053D01*
X599963Y49642D01*
X598734Y47190D01*
X597555Y44696D01*
X596984Y43434D01*
X596425Y42162D01*
X595882Y40882D01*
X595355Y39596D01*
X594846Y38306D01*
X594354Y37009D01*
X593879Y35708D01*
X593422Y34400D01*
X592982Y33088D01*
X592559Y31770D01*
X592153Y30447D01*
X591765Y29118D01*
X591393Y27784D01*
X591040Y26445D01*
X590703Y25100D01*
X590384Y23750D01*
X590081Y22394D01*
X589797Y21033D01*
X589529Y19666D01*
X589279Y18295D01*
X589046Y16917D01*
X588830Y15535D01*
X588631Y14147D01*
X588450Y12753D01*
X588286Y11355D01*
X588139Y9950D01*
X588010Y8541D01*
X587898Y7126D01*
X587803Y5705D01*
X587725Y4280D01*
X587665Y2848D01*
X587622Y1412D01*
X587596Y-30D01*
X587587Y-1477D01*
X587596Y-2925D01*
X587622Y-4367D01*
X587665Y-5803D01*
X587725Y-7234D01*
X587803Y-8660D01*
X587898Y-10081D01*
X588010Y-11496D01*
X588139Y-12905D01*
X588286Y-14309D01*
X588450Y-15708D01*
X588631Y-17102D01*
X588830Y-18490D01*
X589046Y-19872D01*
X589279Y-21249D01*
X589529Y-22621D01*
X589797Y-23988D01*
X590081Y-25349D01*
X590384Y-26704D01*
X590703Y-28055D01*
X591040Y-29399D01*
X591393Y-30739D01*
X591765Y-32073D01*
X592153Y-33402D01*
X592559Y-34725D01*
X592982Y-36043D01*
X593422Y-37355D01*
X593879Y-38662D01*
X594354Y-39964D01*
X594846Y-41260D01*
X595355Y-42551D01*
X595882Y-43837D01*
X596425Y-45117D01*
X597555Y-47652D01*
X598734Y-50149D01*
X599963Y-52607D01*
X601242Y-55026D01*
X602570Y-57406D01*
X603948Y-59747D01*
X605375Y-62049D01*
X606852Y-64313D01*
X608379Y-66537D01*
X609955Y-68723D01*
X611581Y-70870D01*
X613256Y-72979D01*
X614981Y-75048D01*
X616756Y-77078D01*
X618581Y-79070D01*
X620455Y-81023D01*
X622374Y-82930D01*
X624334Y-84786D01*
X626336Y-86590D01*
X628378Y-88342D01*
X629415Y-89199D01*
X630462Y-90042D01*
X631519Y-90873D01*
X632586Y-91691D01*
X633664Y-92496D01*
X634751Y-93288D01*
X635849Y-94067D01*
X636958Y-94833D01*
X638076Y-95586D01*
X639205Y-96326D01*
X640344Y-97053D01*
X641493Y-97767D01*
X642653Y-98469D01*
X643823Y-99157D01*
X645003Y-99832D01*
X645450Y-100081D01*
X646193Y-100495D01*
X647394Y-101144D01*
X648604Y-101781D01*
X649825Y-102405D01*
X651057Y-103015D01*
X652298Y-103613D01*
X653550Y-104198D01*
X654812Y-104770D01*
X656084Y-105328D01*
X657365Y-105872D01*
X658650Y-106399D01*
X659941Y-106908D01*
X661237Y-107400D01*
X662539Y-107875D01*
X663846Y-108332D01*
X665159Y-108772D01*
X666476Y-109195D01*
X667800Y-109601D01*
X669128Y-109989D01*
X670462Y-110360D01*
X671802Y-110714D01*
X673147Y-111051D01*
X674497Y-111370D01*
X675853Y-111672D01*
X677214Y-111957D01*
X678580Y-112225D01*
X679952Y-112475D01*
X681329Y-112708D01*
X682712Y-112924D01*
X684100Y-113122D01*
X685493Y-113304D01*
X686892Y-113468D01*
X688296Y-113614D01*
X689706Y-113744D01*
X691121Y-113856D01*
X692541Y-113951D01*
X693967Y-114029D01*
X695398Y-114089D01*
X696835Y-114132D01*
X698277Y-114158D01*
X699724Y-114167D01*
X701205Y-114158D01*
X702680Y-114132D01*
X704149Y-114089D01*
X705610Y-114029D01*
X707066Y-113951D01*
X708515Y-113856D01*
X709957Y-113744D01*
X711393Y-113614D01*
X712823Y-113468D01*
X714246Y-113304D01*
X715663Y-113122D01*
X717073Y-112924D01*
X718476Y-112708D01*
X719874Y-112475D01*
X721264Y-112225D01*
X722649Y-111957D01*
X724026Y-111672D01*
X725398Y-111370D01*
X726762Y-111051D01*
X728121Y-110714D01*
X729473Y-110360D01*
X730818Y-109989D01*
X732157Y-109601D01*
X733489Y-109195D01*
X734815Y-108772D01*
X736135Y-108332D01*
X737448Y-107875D01*
X738754Y-107400D01*
X740054Y-106908D01*
X741348Y-106399D01*
X742635Y-105872D01*
X743916Y-105328D01*
X745188Y-104770D01*
X746450Y-104198D01*
X747702Y-103613D01*
X748944Y-103015D01*
X750175Y-102405D01*
X751396Y-101781D01*
X752607Y-101144D01*
X753807Y-100495D01*
X754998Y-99832D01*
X756178Y-99157D01*
X757347Y-98469D01*
X758507Y-97767D01*
X759656Y-97053D01*
X760795Y-96326D01*
X761924Y-95586D01*
X763043Y-94833D01*
X764151Y-94067D01*
X765249Y-93288D01*
X766337Y-92496D01*
X767414Y-91691D01*
X768482Y-90873D01*
X769539Y-90042D01*
X770586Y-89199D01*
X771622Y-88342D01*
X773664Y-86590D01*
X775666Y-84786D01*
X777626Y-82930D01*
X779546Y-81023D01*
X781420Y-79070D01*
X783244Y-77078D01*
X785019Y-75048D01*
X786744Y-72979D01*
X788420Y-70870D01*
X790045Y-68723D01*
X791622Y-66537D01*
X793148Y-64313D01*
X794625Y-62049D01*
X796053Y-59747D01*
X797431Y-57406D01*
X798759Y-55026D01*
X800037Y-52607D01*
X801266Y-50149D01*
X802445Y-47652D01*
X803575Y-45117D01*
X804119Y-43837D01*
X804645Y-42551D01*
X805154Y-41260D01*
X805646Y-39964D01*
X806121Y-38662D01*
X806579Y-37355D01*
X807019Y-36043D01*
X807442Y-34725D01*
X807847Y-33402D01*
X808236Y-32073D01*
X808607Y-30739D01*
X808961Y-29399D01*
X809297Y-28055D01*
X809617Y-26704D01*
X809919Y-25349D01*
X810204Y-23988D01*
X810471Y-22621D01*
X810722Y-21249D01*
X810955Y-19872D01*
X811170Y-18490D01*
X811369Y-17102D01*
X811550Y-15708D01*
X811714Y-14309D01*
X811861Y-12905D01*
X811990Y-11496D01*
X812103Y-10081D01*
X812198Y-8660D01*
X812275Y-7234D01*
X812336Y-5803D01*
X812379Y-4367D01*
X812405Y-2925D01*
X812413Y-1477D01*
X812400Y247D01*
X812362Y1966D01*
X812297Y3682D01*
X812206Y5393D01*
X812090Y7100D01*
X811947Y8802D01*
X811779Y10501D01*
X811585Y12194D01*
X811365Y13884D01*
X811119Y15569D01*
X810847Y17250D01*
X810549Y18927D01*
X810225Y20599D01*
X809876Y22267D01*
X809500Y23931D01*
X809099Y25590D01*
X808674Y27241D01*
X808227Y28879D01*
X807759Y30503D01*
X807269Y32115D01*
X806758Y33714D01*
X806225Y35300D01*
X805670Y36873D01*
X805094Y38433D01*
X804496Y39981D01*
X803877Y41515D01*
X803236Y43036D01*
X802574Y44544D01*
X801890Y46040D01*
X801184Y47522D01*
X800457Y48992D01*
X799708Y50448D01*
X826223Y90221D01*
X827993Y87788D01*
X829710Y85323D01*
X831376Y82825D01*
X832990Y80295D01*
X834552Y77732D01*
X836063Y75138D01*
X837522Y72511D01*
X838928Y69851D01*
X840284Y67159D01*
X841587Y64435D01*
X842838Y61678D01*
X844038Y58889D01*
X845186Y56068D01*
X846282Y53214D01*
X847327Y50328D01*
X848319Y47410D01*
X848795Y45941D01*
X849256Y44468D01*
X849701Y42991D01*
X850132Y41510D01*
X850547Y40026D01*
X850947Y38538D01*
X851333Y37046D01*
X851703Y35551D01*
X852058Y34051D01*
X852397Y32548D01*
X852722Y31041D01*
X853032Y29530D01*
X853326Y28016D01*
X853606Y26497D01*
X853870Y24975D01*
X854119Y23450D01*
X854354Y21920D01*
X854573Y20387D01*
X854776Y18849D01*
X854965Y17308D01*
X855139Y15764D01*
X855298Y14215D01*
X855441Y12663D01*
X855569Y11107D01*
X855683Y9547D01*
X855781Y7983D01*
X855864Y6416D01*
X855932Y4845D01*
X855985Y3270D01*
X856023Y1691D01*
X856045Y109D01*
X856053Y-1477D01*
X856041Y-3510D01*
X856005Y-5534D01*
X855946Y-7550D01*
X855863Y-9556D01*
X855756Y-11554D01*
X855626Y-13544D01*
X855471Y-15525D01*
X855293Y-17497D01*
X855091Y-19461D01*
X854866Y-21416D01*
X854617Y-23362D01*
X854344Y-25300D01*
X854047Y-27229D01*
X853727Y-29149D01*
X853383Y-31061D01*
X853015Y-32964D01*
X852623Y-34859D01*
X852208Y-36745D01*
X851768Y-38622D01*
X851306Y-40491D01*
X850819Y-42351D01*
X850309Y-44202D01*
X849775Y-46045D01*
X849217Y-47879D01*
X848635Y-49704D01*
X848030Y-51521D01*
X847401Y-53330D01*
X846748Y-55129D01*
X846072Y-56920D01*
X845372Y-58702D01*
X844648Y-60476D01*
X843900Y-62241D01*
X843132Y-64029D01*
X842345Y-65803D01*
X841541Y-67562D01*
X840719Y-69306D01*
X839880Y-71036D01*
X839022Y-72751D01*
X838147Y-74452D01*
X837254Y-76138D01*
X836343Y-77809D01*
X835414Y-79466D01*
X834468Y-81108D01*
X833504Y-82736D01*
X832522Y-84349D01*
X831522Y-85948D01*
X830504Y-87532D01*
X829469Y-89102D01*
X828415Y-90657D01*
X827344Y-92197D01*
X826255Y-93723D01*
X825149Y-95234D01*
X824024Y-96731D01*
X822882Y-98213D01*
X821722Y-99681D01*
X820544Y-101134D01*
X819348Y-102572D01*
X818135Y-103996D01*
X816903Y-105405D01*
X815654Y-106800D01*
X814387Y-108180D01*
X813103Y-109546D01*
X811800Y-110897D01*
X810480Y-112233D01*
X809144Y-113554D01*
X807795Y-114856D01*
X806432Y-116141D01*
X805055Y-117408D01*
X803665Y-118657D01*
X802262Y-119888D01*
X800845Y-121102D01*
X799415Y-122297D01*
X797971Y-123475D01*
X796514Y-124635D01*
X795043Y-125778D01*
X793558Y-126902D01*
X792061Y-128009D01*
X790549Y-129098D01*
X789025Y-130169D01*
X787486Y-131222D01*
X785935Y-132258D01*
X784369Y-133275D01*
X782791Y-134275D01*
X781198Y-135257D01*
X779593Y-136221D01*
X777974Y-137168D01*
X776341Y-138097D01*
X774695Y-139007D01*
X773035Y-139901D01*
X771362Y-140776D01*
X769676Y-141633D01*
X767975Y-142473D01*
X766262Y-143295D01*
X764535Y-144099D01*
X762794Y-144885D01*
X761040Y-145654D01*
X759241Y-146401D01*
X757435Y-147125D01*
X755620Y-147825D01*
X753799Y-148502D01*
X751969Y-149155D01*
X750133Y-149784D01*
X748288Y-150389D01*
X746436Y-150970D01*
X744577Y-151528D01*
X742710Y-152062D01*
X740835Y-152573D01*
X738953Y-153059D01*
X737063Y-153522D01*
X735166Y-153961D01*
X733261Y-154376D01*
X731349Y-154768D01*
X729429Y-155136D01*
X727501Y-155480D01*
X725566Y-155801D01*
X723624Y-156097D01*
X721674Y-156370D01*
X719716Y-156619D01*
X717751Y-156845D01*
X715778Y-157047D01*
X713798Y-157225D01*
X711810Y-157379D01*
X709814Y-157510D01*
X707811Y-157616D01*
X705801Y-157699D01*
X703783Y-157759D01*
X701757Y-157794D01*
X699724Y-157806D01*
G37*
G36*
X661246Y-93780D02*
X660412Y-93749D01*
X659584Y-93672D01*
X658763Y-93550D01*
X657949Y-93383D01*
X657141Y-93170D01*
X656339Y-92912D01*
X655544Y-92609D01*
X654755Y-92261D01*
X653973Y-91867D01*
X653197Y-91428D01*
X652428Y-90943D01*
X651665Y-90414D01*
X650924Y-89917D01*
X650295Y-89451D01*
X650220Y-89395D01*
X649552Y-88847D01*
X648921Y-88273D01*
X648326Y-87673D01*
X647768Y-87047D01*
X647247Y-86396D01*
X646763Y-85718D01*
X646315Y-85015D01*
X645904Y-84285D01*
X645530Y-83530D01*
X645192Y-82749D01*
X644891Y-81942D01*
X644627Y-81109D01*
X644399Y-80250D01*
X644208Y-79366D01*
X644056Y-78472D01*
X643945Y-77588D01*
X643875Y-76712D01*
X643845Y-75844D01*
X643857Y-74985D01*
X643910Y-74135D01*
X644004Y-73294D01*
X644139Y-72461D01*
X644315Y-71636D01*
X644532Y-70821D01*
X644789Y-70014D01*
X645088Y-69215D01*
X645428Y-68426D01*
X645809Y-67644D01*
X646231Y-66872D01*
X646694Y-66108D01*
X690028Y-2287D01*
X839806Y218302D01*
X869863Y262569D01*
X870359Y263310D01*
X870881Y264015D01*
X871429Y264683D01*
X872003Y265314D01*
X872603Y265908D01*
X873229Y266466D01*
X873881Y266987D01*
X874558Y267472D01*
X875262Y267919D01*
X875991Y268330D01*
X876746Y268705D01*
X877527Y269043D01*
X878334Y269344D01*
X879167Y269608D01*
X880026Y269836D01*
X880911Y270027D01*
X881804Y270177D01*
X882689Y270281D01*
X883565Y270340D01*
X884432Y270355D01*
X885291Y270323D01*
X886141Y270247D01*
X886983Y270125D01*
X887816Y269957D01*
X888640Y269745D01*
X889456Y269487D01*
X890263Y269184D01*
X891061Y268835D01*
X891851Y268442D01*
X892632Y268003D01*
X893404Y267518D01*
X894168Y266988D01*
X894910Y266492D01*
X895614Y265970D01*
X896282Y265422D01*
X896913Y264848D01*
X897508Y264248D01*
X898065Y263622D01*
X898586Y262971D01*
X899071Y262293D01*
X899519Y261590D01*
X899930Y260860D01*
X900304Y260105D01*
X900642Y259324D01*
X900943Y258517D01*
X901207Y257684D01*
X901435Y256825D01*
X901626Y255940D01*
X901778Y255047D01*
X901889Y254162D01*
X901959Y253286D01*
X901988Y252419D01*
X901976Y251560D01*
X901923Y250710D01*
X901830Y249868D01*
X901695Y249035D01*
X901519Y248211D01*
X901302Y247395D01*
X901044Y246588D01*
X900745Y245790D01*
X900405Y245000D01*
X900025Y244219D01*
X899603Y243447D01*
X899140Y242683D01*
X675971Y-85994D01*
X675409Y-86736D01*
X674827Y-87440D01*
X674226Y-88108D01*
X673606Y-88739D01*
X672966Y-89334D01*
X672307Y-89891D01*
X671628Y-90413D01*
X670930Y-90897D01*
X670213Y-91345D01*
X669476Y-91756D01*
X668720Y-92130D01*
X667944Y-92468D01*
X667149Y-92769D01*
X666334Y-93033D01*
X665500Y-93261D01*
X664647Y-93452D01*
X663787Y-93602D01*
X662933Y-93706D01*
X662086Y-93766D01*
X661246Y-93780D01*
G37*
G36*
X528826Y-292678D02*
X527967Y-292666D01*
X527117Y-292613D01*
X526275Y-292519D01*
X525442Y-292384D01*
X524618Y-292209D01*
X523802Y-291992D01*
X522995Y-291734D01*
X522197Y-291435D01*
X521407Y-291095D01*
X520626Y-290714D01*
X519853Y-290292D01*
X519090Y-289830D01*
X518348Y-289266D01*
X517644Y-288682D01*
X516976Y-288075D01*
X516345Y-287447D01*
X515750Y-286798D01*
X515193Y-286127D01*
X514671Y-285434D01*
X514187Y-284720D01*
X513739Y-283984D01*
X513328Y-283227D01*
X512954Y-282448D01*
X512616Y-281647D01*
X512315Y-280825D01*
X512051Y-279981D01*
X511823Y-279116D01*
X511632Y-278229D01*
X511482Y-277336D01*
X511378Y-276451D01*
X511318Y-275575D01*
X511304Y-274708D01*
X511336Y-273849D01*
X511412Y-272999D01*
X511534Y-272157D01*
X511701Y-271324D01*
X511914Y-270500D01*
X512172Y-269684D01*
X512475Y-268877D01*
X512823Y-268079D01*
X513217Y-267289D01*
X513656Y-266508D01*
X514141Y-265735D01*
X514670Y-264972D01*
X568253Y-186531D01*
X596978Y-206417D01*
X543395Y-284858D01*
X542899Y-285599D01*
X542377Y-286304D01*
X541829Y-286972D01*
X541255Y-287603D01*
X540655Y-288197D01*
X540029Y-288755D01*
X539377Y-289276D01*
X538700Y-289760D01*
X537996Y-290208D01*
X537267Y-290619D01*
X536512Y-290994D01*
X535731Y-291331D01*
X534924Y-291632D01*
X534091Y-291897D01*
X533232Y-292124D01*
X532347Y-292315D01*
X531454Y-292467D01*
X530569Y-292579D01*
X529693Y-292649D01*
X528826Y-292678D01*
G37*
D10*
X-85000Y0D02*
X-84974Y2086D01*
X-84898Y4171D01*
X-84770Y6253D01*
X-84591Y8331D01*
X-84361Y10405D01*
X-84080Y12472D01*
X-83749Y14532D01*
X-83367Y16583D01*
X-82935Y18624D01*
X-82453Y20653D01*
X-81921Y22671D01*
X-81340Y24674D01*
X-80710Y26663D01*
X-80031Y28636D01*
X-79304Y30591D01*
X-78530Y32528D01*
X-77708Y34446D01*
X-76839Y36342D01*
X-75924Y38217D01*
X-74963Y40069D01*
X-73957Y41896D01*
X-72907Y43699D01*
X-71813Y45475D01*
X-70675Y47223D01*
X-69495Y48944D01*
X-68273Y50634D01*
X-67009Y52295D01*
X-65706Y53923D01*
X-64363Y55520D01*
X-62981Y57083D01*
X-61561Y58611D01*
X-60104Y60104D01*
X-58611Y61561D01*
X-57083Y62981D01*
X-55520Y64363D01*
X-53923Y65706D01*
X-52295Y67009D01*
X-50634Y68273D01*
X-48944Y69495D01*
X-47223Y70675D01*
X-45475Y71813D01*
X-43699Y72907D01*
X-41896Y73957D01*
X-40069Y74963D01*
X-38217Y75924D01*
X-36342Y76839D01*
X-34446Y77708D01*
X-32528Y78530D01*
X-30591Y79304D01*
X-28636Y80031D01*
X-26663Y80710D01*
X-24674Y81340D01*
X-22671Y81921D01*
X-20653Y82453D01*
X-18624Y82935D01*
X-16583Y83367D01*
X-14532Y83749D01*
X-12472Y84080D01*
X-10405Y84361D01*
X-8331Y84591D01*
X-6253Y84770D01*
X-4171Y84898D01*
X-2086Y84974D01*
X0Y85000D01*
X2086Y84974D01*
X4171Y84898D01*
X6253Y84770D01*
X8331Y84591D01*
X10405Y84361D01*
X12472Y84080D01*
X14532Y83749D01*
X16583Y83367D01*
X18624Y82935D01*
X20653Y82453D01*
X22671Y81921D01*
X24674Y81340D01*
X26663Y80710D01*
X28636Y80031D01*
X30591Y79304D01*
X32528Y78530D01*
X34446Y77708D01*
X36342Y76839D01*
X38217Y75924D01*
X40069Y74963D01*
X41896Y73957D01*
X43699Y72907D01*
X45475Y71813D01*
X47223Y70675D01*
X48944Y69495D01*
X50634Y68273D01*
X52295Y67009D01*
X53923Y65706D01*
X55520Y64363D01*
X57083Y62981D01*
X58611Y61561D01*
X60104Y60104D01*
X61561Y58611D01*
X62981Y57083D01*
X64363Y55520D01*
X65706Y53923D01*
X67009Y52295D01*
X68273Y50634D01*
X69495Y48944D01*
X70675Y47223D01*
X71813Y45475D01*
X72907Y43699D01*
X73957Y41896D01*
X74963Y40069D01*
X75924Y38217D01*
X76839Y36342D01*
X77708Y34446D01*
X78530Y32528D01*
X79304Y30591D01*
X80031Y28636D01*
X80710Y26663D01*
X81340Y24674D01*
X81921Y22671D01*
X82453Y20653D01*
X82935Y18624D01*
X83367Y16583D01*
X83749Y14532D01*
X84080Y12472D01*
X84361Y10405D01*
X84591Y8331D01*
X84770Y6253D01*
X84898Y4171D01*
X84974Y2086D01*
X85000Y0D01*
X84974Y-2086D01*
X84898Y-4171D01*
X84770Y-6253D01*
X84591Y-8331D01*
X84361Y-10405D01*
X84080Y-12472D01*
X83749Y-14532D01*
X83367Y-16583D01*
X82935Y-18624D01*
X82453Y-20653D01*
X81921Y-22671D01*
X81340Y-24674D01*
X80710Y-26663D01*
X80031Y-28636D01*
X79304Y-30591D01*
X78530Y-32528D01*
X77708Y-34446D01*
X76839Y-36342D01*
X75924Y-38217D01*
X74963Y-40069D01*
X73957Y-41896D01*
X72907Y-43699D01*
X71813Y-45475D01*
X70675Y-47223D01*
X69495Y-48944D01*
X68273Y-50634D01*
X67009Y-52295D01*
X65706Y-53923D01*
X64363Y-55520D01*
X62981Y-57083D01*
X61561Y-58611D01*
X60104Y-60104D01*
X58611Y-61561D01*
X57083Y-62981D01*
X55520Y-64363D01*
X53923Y-65706D01*
X52295Y-67009D01*
X50634Y-68273D01*
X48944Y-69495D01*
X47223Y-70675D01*
X45475Y-71813D01*
X43699Y-72907D01*
X41896Y-73957D01*
X40069Y-74963D01*
X38217Y-75924D01*
X36342Y-76839D01*
X34446Y-77708D01*
X32528Y-78530D01*
X30591Y-79304D01*
X28636Y-80031D01*
X26663Y-80710D01*
X24674Y-81340D01*
X22671Y-81921D01*
X20653Y-82453D01*
X18624Y-82935D01*
X16583Y-83367D01*
X14532Y-83749D01*
X12472Y-84080D01*
X10405Y-84361D01*
X8331Y-84591D01*
X6253Y-84770D01*
X4171Y-84898D01*
X2086Y-84974D01*
X0Y-85000D01*
X-2086Y-84974D01*
X-4171Y-84898D01*
X-6253Y-84770D01*
X-8331Y-84591D01*
X-10405Y-84361D01*
X-12472Y-84080D01*
X-14532Y-83749D01*
X-16583Y-83367D01*
X-18624Y-82935D01*
X-20653Y-82453D01*
X-22671Y-81921D01*
X-24674Y-81340D01*
X-26663Y-80710D01*
X-28636Y-80031D01*
X-30591Y-79304D01*
X-32528Y-78530D01*
X-34446Y-77708D01*
X-36342Y-76839D01*
X-38217Y-75924D01*
X-40069Y-74963D01*
X-41896Y-73957D01*
X-43699Y-72907D01*
X-45475Y-71813D01*
X-47223Y-70675D01*
X-48944Y-69495D01*
X-50634Y-68273D01*
X-52295Y-67009D01*
X-53923Y-65706D01*
X-55520Y-64363D01*
X-57083Y-62981D01*
X-58611Y-61561D01*
X-60104Y-60104D01*
X-61561Y-58611D01*
X-62981Y-57083D01*
X-64363Y-55520D01*
X-65706Y-53923D01*
X-67009Y-52295D01*
X-68273Y-50634D01*
X-69495Y-48944D01*
X-70675Y-47223D01*
X-71813Y-45475D01*
X-72907Y-43699D01*
X-73957Y-41896D01*
X-74963Y-40069D01*
X-75924Y-38217D01*
X-76839Y-36342D01*
X-77708Y-34446D01*
X-78530Y-32528D01*
X-79304Y-30591D01*
X-80031Y-28636D01*
X-80710Y-26663D01*
X-81340Y-24674D01*
X-81921Y-22671D01*
X-82453Y-20653D01*
X-82935Y-18624D01*
X-83367Y-16583D01*
X-83749Y-14532D01*
X-84080Y-12472D01*
X-84361Y-10405D01*
X-84591Y-8331D01*
X-84770Y-6253D01*
X-84898Y-4171D01*
X-84974Y-2086D01*
X-85000Y0D01*
X1320000Y0D02*
X1320024Y1963D01*
X1320096Y3925D01*
X1320217Y5885D01*
X1320385Y7841D01*
X1320602Y9793D01*
X1320866Y11738D01*
X1321178Y13677D01*
X1321537Y15607D01*
X1321944Y17528D01*
X1322397Y19438D01*
X1322898Y21337D01*
X1323445Y23223D01*
X1324038Y25095D01*
X1324676Y26951D01*
X1325361Y28792D01*
X1326090Y30615D01*
X1326863Y32419D01*
X1327681Y34204D01*
X1328542Y35969D01*
X1329446Y37712D01*
X1330393Y39432D01*
X1331382Y41128D01*
X1332412Y42800D01*
X1333482Y44446D01*
X1334593Y46065D01*
X1335743Y47656D01*
X1336932Y49219D01*
X1338159Y50751D01*
X1339423Y52254D01*
X1340724Y53725D01*
X1342060Y55163D01*
X1343431Y56569D01*
X1344837Y57940D01*
X1346275Y59276D01*
X1347746Y60577D01*
X1349249Y61841D01*
X1350781Y63068D01*
X1352344Y64257D01*
X1353935Y65407D01*
X1355554Y66518D01*
X1357200Y67588D01*
X1358872Y68618D01*
X1360568Y69607D01*
X1362288Y70554D01*
X1364031Y71458D01*
X1365796Y72319D01*
X1367581Y73137D01*
X1369385Y73910D01*
X1371208Y74639D01*
X1373049Y75324D01*
X1374905Y75962D01*
X1376777Y76555D01*
X1378663Y77102D01*
X1380562Y77603D01*
X1382472Y78056D01*
X1384393Y78463D01*
X1386323Y78822D01*
X1388262Y79134D01*
X1390207Y79398D01*
X1392159Y79615D01*
X1394115Y79783D01*
X1396075Y79904D01*
X1398037Y79976D01*
X1400000Y80000D01*
X1401963Y79976D01*
X1403925Y79904D01*
X1405885Y79783D01*
X1407841Y79615D01*
X1409793Y79398D01*
X1411738Y79134D01*
X1413677Y78822D01*
X1415607Y78463D01*
X1417528Y78056D01*
X1419438Y77603D01*
X1421337Y77102D01*
X1423223Y76555D01*
X1425095Y75962D01*
X1426951Y75324D01*
X1428792Y74639D01*
X1430615Y73910D01*
X1432419Y73137D01*
X1434204Y72319D01*
X1435969Y71458D01*
X1437712Y70554D01*
X1439432Y69607D01*
X1441128Y68618D01*
X1442800Y67588D01*
X1444446Y66518D01*
X1446065Y65407D01*
X1447656Y64257D01*
X1449219Y63068D01*
X1450751Y61841D01*
X1452254Y60577D01*
X1453725Y59276D01*
X1455163Y57940D01*
X1456569Y56569D01*
X1457940Y55163D01*
X1459276Y53725D01*
X1460577Y52254D01*
X1461841Y50751D01*
X1463068Y49219D01*
X1464257Y47656D01*
X1465407Y46065D01*
X1466518Y44446D01*
X1467588Y42800D01*
X1468618Y41128D01*
X1469607Y39432D01*
X1470554Y37712D01*
X1471458Y35969D01*
X1472319Y34204D01*
X1473137Y32419D01*
X1473910Y30615D01*
X1474639Y28792D01*
X1475324Y26951D01*
X1475962Y25095D01*
X1476555Y23223D01*
X1477102Y21337D01*
X1477603Y19438D01*
X1478056Y17528D01*
X1478463Y15607D01*
X1478822Y13677D01*
X1479134Y11738D01*
X1479398Y9793D01*
X1479615Y7841D01*
X1479783Y5885D01*
X1479904Y3925D01*
X1479976Y1963D01*
X1480000Y0D01*
X1479976Y-1963D01*
X1479904Y-3925D01*
X1479783Y-5885D01*
X1479615Y-7841D01*
X1479398Y-9793D01*
X1479134Y-11738D01*
X1478822Y-13677D01*
X1478463Y-15607D01*
X1478056Y-17528D01*
X1477603Y-19438D01*
X1477102Y-21337D01*
X1476555Y-23223D01*
X1475962Y-25095D01*
X1475324Y-26951D01*
X1474639Y-28792D01*
X1473910Y-30615D01*
X1473137Y-32419D01*
X1472319Y-34204D01*
X1471458Y-35969D01*
X1470554Y-37712D01*
X1469607Y-39432D01*
X1468618Y-41128D01*
X1467588Y-42800D01*
X1466518Y-44446D01*
X1465407Y-46065D01*
X1464257Y-47656D01*
X1463068Y-49219D01*
X1461841Y-50751D01*
X1460577Y-52254D01*
X1459276Y-53725D01*
X1457940Y-55163D01*
X1456569Y-56569D01*
X1455163Y-57940D01*
X1453725Y-59276D01*
X1452254Y-60577D01*
X1450751Y-61841D01*
X1449219Y-63068D01*
X1447656Y-64257D01*
X1446065Y-65407D01*
X1444446Y-66518D01*
X1442800Y-67588D01*
X1441128Y-68618D01*
X1439432Y-69607D01*
X1437712Y-70554D01*
X1435969Y-71458D01*
X1434204Y-72319D01*
X1432419Y-73137D01*
X1430615Y-73910D01*
X1428792Y-74639D01*
X1426951Y-75324D01*
X1425095Y-75962D01*
X1423223Y-76555D01*
X1421337Y-77102D01*
X1419438Y-77603D01*
X1417528Y-78056D01*
X1415607Y-78463D01*
X1413677Y-78822D01*
X1411738Y-79134D01*
X1409793Y-79398D01*
X1407841Y-79615D01*
X1405885Y-79783D01*
X1403925Y-79904D01*
X1401963Y-79976D01*
X1400000Y-80000D01*
X1398037Y-79976D01*
X1396075Y-79904D01*
X1394115Y-79783D01*
X1392159Y-79615D01*
X1390207Y-79398D01*
X1388262Y-79134D01*
X1386323Y-78822D01*
X1384393Y-78463D01*
X1382472Y-78056D01*
X1380562Y-77603D01*
X1378663Y-77102D01*
X1376777Y-76555D01*
X1374905Y-75962D01*
X1373049Y-75324D01*
X1371208Y-74639D01*
X1369385Y-73910D01*
X1367581Y-73137D01*
X1365796Y-72319D01*
X1364031Y-71458D01*
X1362288Y-70554D01*
X1360568Y-69607D01*
X1358872Y-68618D01*
X1357200Y-67588D01*
X1355554Y-66518D01*
X1353935Y-65407D01*
X1352344Y-64257D01*
X1350781Y-63068D01*
X1349249Y-61841D01*
X1347746Y-60577D01*
X1346275Y-59276D01*
X1344837Y-57940D01*
X1343431Y-56569D01*
X1342060Y-55163D01*
X1340724Y-53725D01*
X1339423Y-52254D01*
X1338159Y-50751D01*
X1336932Y-49219D01*
X1335743Y-47656D01*
X1334593Y-46065D01*
X1333482Y-44446D01*
X1332412Y-42800D01*
X1331382Y-41128D01*
X1330393Y-39432D01*
X1329446Y-37712D01*
X1328542Y-35969D01*
X1327681Y-34204D01*
X1326863Y-32419D01*
X1326090Y-30615D01*
X1325361Y-28792D01*
X1324676Y-26951D01*
X1324038Y-25095D01*
X1323445Y-23223D01*
X1322898Y-21337D01*
X1322397Y-19438D01*
X1321944Y-17528D01*
X1321537Y-15607D01*
X1321178Y-13677D01*
X1320866Y-11738D01*
X1320602Y-9793D01*
X1320385Y-7841D01*
X1320217Y-5885D01*
X1320096Y-3925D01*
X1320024Y-1963D01*
X1320000Y0D01*
D11*
X-25781Y-108524D02*
X-25781Y-143576D01*
X-29676Y-143576D02*
X-21886Y-143576D01*
X-21886Y-108524D02*
X-29676Y-108524D01*
X2011Y-104629D02*
X-13568Y-147471D01*
X10202Y-133839D02*
X10202Y-118261D01*
X10205Y-118024D01*
X10214Y-117787D01*
X10228Y-117550D01*
X10248Y-117314D01*
X10274Y-117078D01*
X10306Y-116843D01*
X10343Y-116609D01*
X10386Y-116376D01*
X10435Y-116144D01*
X10489Y-115913D01*
X10549Y-115684D01*
X10615Y-115456D01*
X10686Y-115230D01*
X10762Y-115005D01*
X10844Y-114783D01*
X10932Y-114562D01*
X11025Y-114344D01*
X11123Y-114128D01*
X11226Y-113915D01*
X11334Y-113704D01*
X11448Y-113496D01*
X11566Y-113290D01*
X11690Y-113088D01*
X11818Y-112888D01*
X11952Y-112692D01*
X12090Y-112499D01*
X12232Y-112310D01*
X12379Y-112124D01*
X12531Y-111942D01*
X12687Y-111763D01*
X12848Y-111589D01*
X13012Y-111418D01*
X13181Y-111251D01*
X13353Y-111089D01*
X13530Y-110931D01*
X13711Y-110777D01*
X13895Y-110627D01*
X14082Y-110482D01*
X14273Y-110342D01*
X14468Y-110206D01*
X14666Y-110076D01*
X14867Y-109950D01*
X15071Y-109829D01*
X15277Y-109712D01*
X15487Y-109601D01*
X15699Y-109496D01*
X15914Y-109395D01*
X16131Y-109300D01*
X16350Y-109210D01*
X16572Y-109125D01*
X16795Y-109046D01*
X17020Y-108972D01*
X17248Y-108903D01*
X17476Y-108841D01*
X17706Y-108783D01*
X17938Y-108732D01*
X18170Y-108686D01*
X18404Y-108646D01*
X18639Y-108611D01*
X18874Y-108582D01*
X19110Y-108559D01*
X19347Y-108542D01*
X19583Y-108530D01*
X19820Y-108525D01*
X20058Y-108525D01*
X20295Y-108530D01*
X20531Y-108542D01*
X20768Y-108559D01*
X21004Y-108582D01*
X21239Y-108611D01*
X21474Y-108646D01*
X21708Y-108686D01*
X21940Y-108732D01*
X22172Y-108783D01*
X22402Y-108841D01*
X22630Y-108903D01*
X22858Y-108972D01*
X23083Y-109046D01*
X23306Y-109125D01*
X23528Y-109210D01*
X23747Y-109300D01*
X23964Y-109395D01*
X24179Y-109496D01*
X24391Y-109601D01*
X24601Y-109712D01*
X24808Y-109829D01*
X25011Y-109950D01*
X25212Y-110076D01*
X25410Y-110206D01*
X25605Y-110342D01*
X25796Y-110482D01*
X25983Y-110627D01*
X26167Y-110777D01*
X26348Y-110931D01*
X26525Y-111089D01*
X26697Y-111251D01*
X26866Y-111418D01*
X27030Y-111589D01*
X27191Y-111763D01*
X27347Y-111942D01*
X27499Y-112124D01*
X27646Y-112310D01*
X27788Y-112499D01*
X27926Y-112692D01*
X28060Y-112888D01*
X28188Y-113088D01*
X28312Y-113290D01*
X28430Y-113496D01*
X28544Y-113704D01*
X28652Y-113915D01*
X28755Y-114128D01*
X28853Y-114344D01*
X28946Y-114562D01*
X29034Y-114783D01*
X29116Y-115005D01*
X29192Y-115230D01*
X29263Y-115456D01*
X29329Y-115684D01*
X29389Y-115913D01*
X29443Y-116144D01*
X29492Y-116376D01*
X29535Y-116609D01*
X29572Y-116843D01*
X29604Y-117078D01*
X29630Y-117314D01*
X29650Y-117550D01*
X29664Y-117787D01*
X29673Y-118024D01*
X29676Y-118261D01*
X29676Y-133839D01*
X29673Y-134076D01*
X29664Y-134313D01*
X29650Y-134550D01*
X29630Y-134786D01*
X29604Y-135022D01*
X29572Y-135257D01*
X29535Y-135491D01*
X29492Y-135724D01*
X29443Y-135956D01*
X29389Y-136187D01*
X29329Y-136416D01*
X29263Y-136644D01*
X29192Y-136870D01*
X29116Y-137095D01*
X29034Y-137317D01*
X28946Y-137538D01*
X28853Y-137756D01*
X28755Y-137972D01*
X28652Y-138185D01*
X28544Y-138396D01*
X28430Y-138604D01*
X28312Y-138810D01*
X28188Y-139012D01*
X28060Y-139212D01*
X27926Y-139408D01*
X27788Y-139601D01*
X27646Y-139790D01*
X27499Y-139976D01*
X27347Y-140158D01*
X27191Y-140337D01*
X27030Y-140511D01*
X26866Y-140682D01*
X26697Y-140849D01*
X26525Y-141011D01*
X26348Y-141169D01*
X26167Y-141323D01*
X25983Y-141473D01*
X25796Y-141618D01*
X25605Y-141758D01*
X25410Y-141894D01*
X25212Y-142024D01*
X25011Y-142150D01*
X24808Y-142271D01*
X24601Y-142388D01*
X24391Y-142499D01*
X24179Y-142604D01*
X23964Y-142705D01*
X23747Y-142800D01*
X23528Y-142890D01*
X23306Y-142975D01*
X23083Y-143054D01*
X22858Y-143128D01*
X22630Y-143197D01*
X22402Y-143259D01*
X22172Y-143317D01*
X21940Y-143368D01*
X21708Y-143414D01*
X21474Y-143454D01*
X21239Y-143489D01*
X21004Y-143518D01*
X20768Y-143541D01*
X20531Y-143558D01*
X20295Y-143570D01*
X20058Y-143575D01*
X19820Y-143575D01*
X19583Y-143570D01*
X19347Y-143558D01*
X19110Y-143541D01*
X18874Y-143518D01*
X18639Y-143489D01*
X18404Y-143454D01*
X18170Y-143414D01*
X17938Y-143368D01*
X17706Y-143317D01*
X17476Y-143259D01*
X17248Y-143197D01*
X17020Y-143128D01*
X16795Y-143054D01*
X16572Y-142975D01*
X16350Y-142890D01*
X16131Y-142800D01*
X15914Y-142705D01*
X15699Y-142604D01*
X15487Y-142499D01*
X15277Y-142388D01*
X15071Y-142271D01*
X14867Y-142150D01*
X14666Y-142024D01*
X14468Y-141894D01*
X14273Y-141758D01*
X14082Y-141618D01*
X13895Y-141473D01*
X13711Y-141323D01*
X13530Y-141169D01*
X13353Y-141011D01*
X13181Y-140849D01*
X13012Y-140682D01*
X12848Y-140511D01*
X12687Y-140337D01*
X12531Y-140158D01*
X12379Y-139976D01*
X12232Y-139790D01*
X12090Y-139601D01*
X11952Y-139408D01*
X11818Y-139212D01*
X11690Y-139012D01*
X11566Y-138810D01*
X11448Y-138604D01*
X11334Y-138396D01*
X11226Y-138185D01*
X11123Y-137972D01*
X11025Y-137756D01*
X10932Y-137538D01*
X10844Y-137317D01*
X10762Y-137095D01*
X10686Y-136870D01*
X10615Y-136644D01*
X10549Y-136416D01*
X10489Y-136187D01*
X10435Y-135956D01*
X10386Y-135724D01*
X10343Y-135491D01*
X10306Y-135257D01*
X10274Y-135022D01*
X10248Y-134786D01*
X10228Y-134550D01*
X10214Y-134313D01*
X10205Y-134076D01*
X10202Y-133839D01*
D10*
X520000Y0D02*
X520054Y4417D01*
X520217Y8832D01*
X520488Y13242D01*
X520867Y17643D01*
X521354Y22034D01*
X521948Y26411D01*
X522650Y30773D01*
X523459Y35116D01*
X524374Y39438D01*
X525394Y43736D01*
X526520Y48008D01*
X527751Y52251D01*
X529085Y56463D01*
X530522Y60640D01*
X532061Y64781D01*
X533702Y68883D01*
X535442Y72943D01*
X537282Y76960D01*
X539220Y80930D01*
X541254Y84851D01*
X543384Y88722D01*
X545609Y92538D01*
X547926Y96300D01*
X550335Y100003D01*
X552835Y103645D01*
X555423Y107226D01*
X558098Y110742D01*
X560858Y114191D01*
X563702Y117571D01*
X566629Y120881D01*
X569636Y124117D01*
X572721Y127279D01*
X575883Y130364D01*
X579119Y133371D01*
X582429Y136298D01*
X585809Y139142D01*
X589258Y141902D01*
X592774Y144577D01*
X596355Y147165D01*
X599997Y149665D01*
X603700Y152074D01*
X607462Y154391D01*
X611278Y156616D01*
X615149Y158746D01*
X619070Y160780D01*
X623040Y162718D01*
X627057Y164558D01*
X631117Y166298D01*
X635219Y167939D01*
X639360Y169478D01*
X643537Y170915D01*
X647749Y172249D01*
X651992Y173480D01*
X656264Y174606D01*
X660562Y175626D01*
X664884Y176541D01*
X669227Y177350D01*
X673589Y178052D01*
X677966Y178646D01*
X682357Y179133D01*
X686758Y179512D01*
X691168Y179783D01*
X695583Y179946D01*
X700000Y180000D01*
X704417Y179946D01*
X708832Y179783D01*
X713242Y179512D01*
X717643Y179133D01*
X722034Y178646D01*
X726411Y178052D01*
X730773Y177350D01*
X735116Y176541D01*
X739438Y175626D01*
X743736Y174606D01*
X748008Y173480D01*
X752251Y172249D01*
X756463Y170915D01*
X760640Y169478D01*
X764781Y167939D01*
X768883Y166298D01*
X772943Y164558D01*
X776960Y162718D01*
X780930Y160780D01*
X784851Y158746D01*
X788722Y156616D01*
X792538Y154391D01*
X796300Y152074D01*
X800003Y149665D01*
X803645Y147165D01*
X807226Y144577D01*
X810742Y141902D01*
X814191Y139142D01*
X817571Y136298D01*
X820881Y133371D01*
X824117Y130364D01*
X827279Y127279D01*
X830364Y124117D01*
X833371Y120881D01*
X836298Y117571D01*
X839142Y114191D01*
X841902Y110742D01*
X844577Y107226D01*
X847165Y103645D01*
X849665Y100003D01*
X852074Y96300D01*
X854391Y92538D01*
X856616Y88722D01*
X858746Y84851D01*
X860780Y80930D01*
X862718Y76960D01*
X864558Y72943D01*
X866298Y68883D01*
X867939Y64781D01*
X869478Y60640D01*
X870915Y56463D01*
X872249Y52251D01*
X873480Y48008D01*
X874606Y43736D01*
X875626Y39438D01*
X876541Y35116D01*
X877350Y30773D01*
X878052Y26411D01*
X878646Y22034D01*
X879133Y17643D01*
X879512Y13242D01*
X879783Y8832D01*
X879946Y4417D01*
X880000Y0D01*
X879946Y-4417D01*
X879783Y-8832D01*
X879512Y-13242D01*
X879133Y-17643D01*
X878646Y-22034D01*
X878052Y-26411D01*
X877350Y-30773D01*
X876541Y-35116D01*
X875626Y-39438D01*
X874606Y-43736D01*
X873480Y-48008D01*
X872249Y-52251D01*
X870915Y-56463D01*
X869478Y-60640D01*
X867939Y-64781D01*
X866298Y-68883D01*
X864558Y-72943D01*
X862718Y-76960D01*
X860780Y-80930D01*
X858746Y-84851D01*
X856616Y-88722D01*
X854391Y-92538D01*
X852074Y-96300D01*
X849665Y-100003D01*
X847165Y-103645D01*
X844577Y-107226D01*
X841902Y-110742D01*
X839142Y-114191D01*
X836298Y-117571D01*
X833371Y-120881D01*
X830364Y-124117D01*
X827279Y-127279D01*
X824117Y-130364D01*
X820881Y-133371D01*
X817571Y-136298D01*
X814191Y-139142D01*
X810742Y-141902D01*
X807226Y-144577D01*
X803645Y-147165D01*
X800003Y-149665D01*
X796300Y-152074D01*
X792538Y-154391D01*
X788722Y-156616D01*
X784851Y-158746D01*
X780930Y-160780D01*
X776960Y-162718D01*
X772943Y-164558D01*
X768883Y-166298D01*
X764781Y-167939D01*
X760640Y-169478D01*
X756463Y-170915D01*
X752251Y-172249D01*
X748008Y-173480D01*
X743736Y-174606D01*
X739438Y-175626D01*
X735116Y-176541D01*
X730773Y-177350D01*
X726411Y-178052D01*
X722034Y-178646D01*
X717643Y-179133D01*
X713242Y-179512D01*
X708832Y-179783D01*
X704417Y-179946D01*
X700000Y-180000D01*
X695583Y-179946D01*
X691168Y-179783D01*
X686758Y-179512D01*
X682357Y-179133D01*
X677966Y-178646D01*
X673589Y-178052D01*
X669227Y-177350D01*
X664884Y-176541D01*
X660562Y-175626D01*
X656264Y-174606D01*
X651992Y-173480D01*
X647749Y-172249D01*
X643537Y-170915D01*
X639360Y-169478D01*
X635219Y-167939D01*
X631117Y-166298D01*
X627057Y-164558D01*
X623040Y-162718D01*
X619070Y-160780D01*
X615149Y-158746D01*
X611278Y-156616D01*
X607462Y-154391D01*
X603700Y-152074D01*
X599997Y-149665D01*
X596355Y-147165D01*
X592774Y-144577D01*
X589258Y-141902D01*
X585809Y-139142D01*
X582429Y-136298D01*
X579119Y-133371D01*
X575883Y-130364D01*
X572721Y-127279D01*
X569636Y-124117D01*
X566629Y-120881D01*
X563702Y-117571D01*
X560858Y-114191D01*
X558098Y-110742D01*
X555423Y-107226D01*
X552835Y-103645D01*
X550335Y-100003D01*
X547926Y-96300D01*
X545609Y-92538D01*
X543384Y-88722D01*
X541254Y-84851D01*
X539220Y-80930D01*
X537282Y-76960D01*
X535442Y-72943D01*
X533702Y-68883D01*
X532061Y-64781D01*
X530522Y-60640D01*
X529085Y-56463D01*
X527751Y-52251D01*
X526520Y-48008D01*
X525394Y-43736D01*
X524374Y-39438D01*
X523459Y-35116D01*
X522650Y-30773D01*
X521948Y-26411D01*
X521354Y-22034D01*
X520867Y-17643D01*
X520488Y-13242D01*
X520217Y-8832D01*
X520054Y-4417D01*
X520000Y0D01*
X1320000Y-60000D02*
X1321488Y-61934D01*
X1323022Y-63831D01*
X1324603Y-65691D01*
X1326228Y-67511D01*
X1327897Y-69291D01*
X1329610Y-71029D01*
X1331364Y-72726D01*
X1333159Y-74379D01*
X1334993Y-75988D01*
X1336867Y-77551D01*
X1338778Y-79069D01*
X1340725Y-80539D01*
X1342708Y-81961D01*
X1344725Y-83335D01*
X1346775Y-84659D01*
X1348856Y-85932D01*
X1350968Y-87154D01*
X1353110Y-88325D01*
X1355279Y-89443D01*
X1357474Y-90507D01*
X1359695Y-91518D01*
X1361940Y-92474D01*
X1364208Y-93375D01*
X1366497Y-94221D01*
X1368806Y-95010D01*
X1371134Y-95743D01*
X1373478Y-96419D01*
X1375839Y-97037D01*
X1378214Y-97598D01*
X1380602Y-98101D01*
X1383001Y-98545D01*
X1385411Y-98930D01*
X1387829Y-99257D01*
X1390254Y-99524D01*
X1392686Y-99732D01*
X1395121Y-99881D01*
X1397560Y-99970D01*
X1400000Y-100000D01*
X1402440Y-99970D01*
X1404879Y-99881D01*
X1407314Y-99732D01*
X1409746Y-99524D01*
X1412171Y-99257D01*
X1414589Y-98930D01*
X1416999Y-98545D01*
X1419398Y-98101D01*
X1421786Y-97598D01*
X1424161Y-97037D01*
X1426522Y-96419D01*
X1428866Y-95743D01*
X1431194Y-95010D01*
X1433503Y-94221D01*
X1435792Y-93375D01*
X1438060Y-92474D01*
X1440305Y-91518D01*
X1442526Y-90507D01*
X1444721Y-89443D01*
X1446890Y-88325D01*
X1449032Y-87154D01*
X1451144Y-85932D01*
X1453225Y-84659D01*
X1455275Y-83335D01*
X1457292Y-81961D01*
X1459275Y-80539D01*
X1461222Y-79069D01*
X1463133Y-77551D01*
X1465007Y-75988D01*
X1466841Y-74379D01*
X1468636Y-72726D01*
X1470390Y-71029D01*
X1472103Y-69291D01*
X1473772Y-67511D01*
X1475397Y-65691D01*
X1476978Y-63831D01*
X1478512Y-61934D01*
X1480000Y-60000D01*
X1320000Y-60000D02*
X1320000Y-70000D01*
X1480000Y-70000D02*
X1480000Y-60000D01*
M02*
