G04 EAGLE Gerber RS-274X export*
G75*
%MOMM*%
%FSLAX34Y34*%
%LPD*%
%IN*%
%IPPOS*%
%AMOC8*
5,1,8,0,0,1.08239X$1,22.5*%
G01*
G04 Define Apertures*
%ADD10C,0.254000*%
D10*
X-230000Y-60307D02*
X-229886Y-62921D01*
X-229544Y-65516D01*
X-228978Y-68071D01*
X-228191Y-70567D01*
X-227189Y-72985D01*
X-225981Y-75307D01*
X-224575Y-77514D01*
X-222981Y-79590D01*
X-221213Y-81520D01*
X-219284Y-83288D01*
X-217207Y-84881D01*
X-215000Y-86287D01*
X-212679Y-87496D01*
X-210261Y-88497D01*
X-207765Y-89284D01*
X-205209Y-89851D01*
X-202615Y-90192D01*
X-200000Y-90307D01*
X1700000Y-90307D01*
X1702615Y-90192D01*
X1705209Y-89851D01*
X1707765Y-89284D01*
X1710261Y-88497D01*
X1712679Y-87496D01*
X1715000Y-86287D01*
X1717207Y-84881D01*
X1719284Y-83288D01*
X1721213Y-81520D01*
X1722981Y-79590D01*
X1724575Y-77514D01*
X1725981Y-75307D01*
X1727189Y-72985D01*
X1728191Y-70567D01*
X1728978Y-68071D01*
X1729544Y-65516D01*
X1729886Y-62921D01*
X1730000Y-60307D01*
X1730000Y360307D01*
X1729886Y362921D01*
X1729544Y365516D01*
X1728978Y368071D01*
X1728191Y370567D01*
X1727189Y372985D01*
X1725981Y375307D01*
X1724575Y377514D01*
X1722981Y379590D01*
X1721213Y381520D01*
X1719284Y383288D01*
X1717207Y384881D01*
X1715000Y386287D01*
X1712679Y387496D01*
X1710261Y388497D01*
X1707765Y389284D01*
X1705209Y389851D01*
X1702615Y390192D01*
X1700000Y390307D01*
X-200000Y390307D01*
X-202615Y390192D01*
X-205209Y389851D01*
X-207765Y389284D01*
X-210261Y388497D01*
X-212679Y387496D01*
X-215000Y386287D01*
X-217207Y384881D01*
X-219284Y383288D01*
X-221213Y381520D01*
X-222981Y379590D01*
X-224575Y377514D01*
X-225981Y375307D01*
X-227189Y372985D01*
X-228191Y370567D01*
X-228978Y368071D01*
X-229544Y365516D01*
X-229886Y362921D01*
X-230000Y360307D01*
X-230000Y-60307D01*
X-163500Y339766D02*
X-163500Y340847D01*
X-163571Y341925D01*
X-163712Y342996D01*
X-163922Y344055D01*
X-164202Y345099D01*
X-164549Y346122D01*
X-164963Y347120D01*
X-165441Y348089D01*
X-165981Y349024D01*
X-166581Y349923D01*
X-167239Y350780D01*
X-167951Y351592D01*
X-168715Y352356D01*
X-169527Y353068D01*
X-170384Y353726D01*
X-171282Y354326D01*
X-172218Y354866D01*
X-173187Y355344D01*
X-174185Y355757D01*
X-175208Y356104D01*
X-176251Y356384D01*
X-177311Y356595D01*
X-178382Y356736D01*
X-179460Y356807D01*
X-180540Y356807D01*
X-181618Y356736D01*
X-182689Y356595D01*
X-183749Y356384D01*
X-184792Y356104D01*
X-185815Y355757D01*
X-186813Y355344D01*
X-187782Y354866D01*
X-188718Y354326D01*
X-189616Y353726D01*
X-190473Y353068D01*
X-191285Y352356D01*
X-192049Y351592D01*
X-192762Y350780D01*
X-193419Y349923D01*
X-194019Y349024D01*
X-194560Y348089D01*
X-195037Y347120D01*
X-195451Y346122D01*
X-195798Y345099D01*
X-196078Y344055D01*
X-196288Y342996D01*
X-196429Y341925D01*
X-196500Y340847D01*
X-196500Y339766D01*
X-196429Y338688D01*
X-196288Y337617D01*
X-196078Y336558D01*
X-195798Y335514D01*
X-195451Y334491D01*
X-195037Y333493D01*
X-194560Y332524D01*
X-194019Y331589D01*
X-193419Y330690D01*
X-192762Y329833D01*
X-192049Y329021D01*
X-191285Y328257D01*
X-190473Y327545D01*
X-189616Y326887D01*
X-188718Y326287D01*
X-187782Y325747D01*
X-186813Y325269D01*
X-185815Y324856D01*
X-184792Y324509D01*
X-183749Y324229D01*
X-182689Y324018D01*
X-181618Y323877D01*
X-180540Y323807D01*
X-179460Y323807D01*
X-178382Y323877D01*
X-177311Y324018D01*
X-176251Y324229D01*
X-175208Y324509D01*
X-174185Y324856D01*
X-173187Y325269D01*
X-172218Y325747D01*
X-171282Y326287D01*
X-170384Y326887D01*
X-169527Y327545D01*
X-168715Y328257D01*
X-167951Y329021D01*
X-167239Y329833D01*
X-166581Y330690D01*
X-165981Y331589D01*
X-165441Y332524D01*
X-164963Y333493D01*
X-164549Y334491D01*
X-164202Y335514D01*
X-163922Y336558D01*
X-163712Y337617D01*
X-163571Y338688D01*
X-163500Y339766D01*
X1696500Y339766D02*
X1696500Y340847D01*
X1696429Y341925D01*
X1696288Y342996D01*
X1696078Y344055D01*
X1695798Y345099D01*
X1695451Y346122D01*
X1695037Y347120D01*
X1694560Y348089D01*
X1694019Y349024D01*
X1693419Y349923D01*
X1692762Y350780D01*
X1692049Y351592D01*
X1691285Y352356D01*
X1690473Y353068D01*
X1689616Y353726D01*
X1688718Y354326D01*
X1687782Y354866D01*
X1686813Y355344D01*
X1685815Y355757D01*
X1684792Y356104D01*
X1683749Y356384D01*
X1682689Y356595D01*
X1681618Y356736D01*
X1680540Y356807D01*
X1679460Y356807D01*
X1678382Y356736D01*
X1677311Y356595D01*
X1676251Y356384D01*
X1675208Y356104D01*
X1674185Y355757D01*
X1673187Y355344D01*
X1672218Y354866D01*
X1671282Y354326D01*
X1670384Y353726D01*
X1669527Y353068D01*
X1668715Y352356D01*
X1667951Y351592D01*
X1667239Y350780D01*
X1666581Y349923D01*
X1665981Y349024D01*
X1665441Y348089D01*
X1664963Y347120D01*
X1664549Y346122D01*
X1664202Y345099D01*
X1663922Y344055D01*
X1663712Y342996D01*
X1663571Y341925D01*
X1663500Y340847D01*
X1663500Y339766D01*
X1663571Y338688D01*
X1663712Y337617D01*
X1663922Y336558D01*
X1664202Y335514D01*
X1664549Y334491D01*
X1664963Y333493D01*
X1665441Y332524D01*
X1665981Y331589D01*
X1666581Y330690D01*
X1667239Y329833D01*
X1667951Y329021D01*
X1668715Y328257D01*
X1669527Y327545D01*
X1670384Y326887D01*
X1671282Y326287D01*
X1672218Y325747D01*
X1673187Y325269D01*
X1674185Y324856D01*
X1675208Y324509D01*
X1676251Y324229D01*
X1677311Y324018D01*
X1678382Y323877D01*
X1679460Y323807D01*
X1680540Y323807D01*
X1681618Y323877D01*
X1682689Y324018D01*
X1683749Y324229D01*
X1684792Y324509D01*
X1685815Y324856D01*
X1686813Y325269D01*
X1687782Y325747D01*
X1688718Y326287D01*
X1689616Y326887D01*
X1690473Y327545D01*
X1691285Y328257D01*
X1692049Y329021D01*
X1692762Y329833D01*
X1693419Y330690D01*
X1694019Y331589D01*
X1694560Y332524D01*
X1695037Y333493D01*
X1695451Y334491D01*
X1695798Y335514D01*
X1696078Y336558D01*
X1696288Y337617D01*
X1696429Y338688D01*
X1696500Y339766D01*
X-163500Y-40847D02*
X-163500Y-39766D01*
X-163571Y-38688D01*
X-163712Y-37617D01*
X-163922Y-36558D01*
X-164202Y-35514D01*
X-164549Y-34491D01*
X-164963Y-33493D01*
X-165441Y-32524D01*
X-165981Y-31589D01*
X-166581Y-30690D01*
X-167239Y-29833D01*
X-167951Y-29021D01*
X-168715Y-28257D01*
X-169527Y-27545D01*
X-170384Y-26887D01*
X-171282Y-26287D01*
X-172218Y-25747D01*
X-173187Y-25269D01*
X-174185Y-24856D01*
X-175208Y-24509D01*
X-176251Y-24229D01*
X-177311Y-24018D01*
X-178382Y-23877D01*
X-179460Y-23807D01*
X-180540Y-23807D01*
X-181618Y-23877D01*
X-182689Y-24018D01*
X-183749Y-24229D01*
X-184792Y-24509D01*
X-185815Y-24856D01*
X-186813Y-25269D01*
X-187782Y-25747D01*
X-188718Y-26287D01*
X-189616Y-26887D01*
X-190473Y-27545D01*
X-191285Y-28257D01*
X-192049Y-29021D01*
X-192762Y-29833D01*
X-193419Y-30690D01*
X-194019Y-31589D01*
X-194560Y-32524D01*
X-195037Y-33493D01*
X-195451Y-34491D01*
X-195798Y-35514D01*
X-196078Y-36558D01*
X-196288Y-37617D01*
X-196429Y-38688D01*
X-196500Y-39766D01*
X-196500Y-40847D01*
X-196429Y-41925D01*
X-196288Y-42996D01*
X-196078Y-44055D01*
X-195798Y-45099D01*
X-195451Y-46122D01*
X-195037Y-47120D01*
X-194560Y-48089D01*
X-194019Y-49024D01*
X-193419Y-49923D01*
X-192762Y-50780D01*
X-192049Y-51592D01*
X-191285Y-52356D01*
X-190473Y-53068D01*
X-189616Y-53726D01*
X-188718Y-54326D01*
X-187782Y-54866D01*
X-186813Y-55344D01*
X-185815Y-55757D01*
X-184792Y-56104D01*
X-183749Y-56384D01*
X-182689Y-56595D01*
X-181618Y-56736D01*
X-180540Y-56807D01*
X-179460Y-56807D01*
X-178382Y-56736D01*
X-177311Y-56595D01*
X-176251Y-56384D01*
X-175208Y-56104D01*
X-174185Y-55757D01*
X-173187Y-55344D01*
X-172218Y-54866D01*
X-171282Y-54326D01*
X-170384Y-53726D01*
X-169527Y-53068D01*
X-168715Y-52356D01*
X-167951Y-51592D01*
X-167239Y-50780D01*
X-166581Y-49923D01*
X-165981Y-49024D01*
X-165441Y-48089D01*
X-164963Y-47120D01*
X-164549Y-46122D01*
X-164202Y-45099D01*
X-163922Y-44055D01*
X-163712Y-42996D01*
X-163571Y-41925D01*
X-163500Y-40847D01*
X1696500Y-40847D02*
X1696500Y-39766D01*
X1696429Y-38688D01*
X1696288Y-37617D01*
X1696078Y-36558D01*
X1695798Y-35514D01*
X1695451Y-34491D01*
X1695037Y-33493D01*
X1694560Y-32524D01*
X1694019Y-31589D01*
X1693419Y-30690D01*
X1692762Y-29833D01*
X1692049Y-29021D01*
X1691285Y-28257D01*
X1690473Y-27545D01*
X1689616Y-26887D01*
X1688718Y-26287D01*
X1687782Y-25747D01*
X1686813Y-25269D01*
X1685815Y-24856D01*
X1684792Y-24509D01*
X1683749Y-24229D01*
X1682689Y-24018D01*
X1681618Y-23877D01*
X1680540Y-23807D01*
X1679460Y-23807D01*
X1678382Y-23877D01*
X1677311Y-24018D01*
X1676251Y-24229D01*
X1675208Y-24509D01*
X1674185Y-24856D01*
X1673187Y-25269D01*
X1672218Y-25747D01*
X1671282Y-26287D01*
X1670384Y-26887D01*
X1669527Y-27545D01*
X1668715Y-28257D01*
X1667951Y-29021D01*
X1667239Y-29833D01*
X1666581Y-30690D01*
X1665981Y-31589D01*
X1665441Y-32524D01*
X1664963Y-33493D01*
X1664549Y-34491D01*
X1664202Y-35514D01*
X1663922Y-36558D01*
X1663712Y-37617D01*
X1663571Y-38688D01*
X1663500Y-39766D01*
X1663500Y-40847D01*
X1663571Y-41925D01*
X1663712Y-42996D01*
X1663922Y-44055D01*
X1664202Y-45099D01*
X1664549Y-46122D01*
X1664963Y-47120D01*
X1665441Y-48089D01*
X1665981Y-49024D01*
X1666581Y-49923D01*
X1667239Y-50780D01*
X1667951Y-51592D01*
X1668715Y-52356D01*
X1669527Y-53068D01*
X1670384Y-53726D01*
X1671282Y-54326D01*
X1672218Y-54866D01*
X1673187Y-55344D01*
X1674185Y-55757D01*
X1675208Y-56104D01*
X1676251Y-56384D01*
X1677311Y-56595D01*
X1678382Y-56736D01*
X1679460Y-56807D01*
X1680540Y-56807D01*
X1681618Y-56736D01*
X1682689Y-56595D01*
X1683749Y-56384D01*
X1684792Y-56104D01*
X1685815Y-55757D01*
X1686813Y-55344D01*
X1687782Y-54866D01*
X1688718Y-54326D01*
X1689616Y-53726D01*
X1690473Y-53068D01*
X1691285Y-52356D01*
X1692049Y-51592D01*
X1692762Y-50780D01*
X1693419Y-49923D01*
X1694019Y-49024D01*
X1694560Y-48089D01*
X1695037Y-47120D01*
X1695451Y-46122D01*
X1695798Y-45099D01*
X1696078Y-44055D01*
X1696288Y-42996D01*
X1696429Y-41925D01*
X1696500Y-40847D01*
M02*
