G04 EAGLE Gerber RS-274X export*
G75*
%MOMM*%
%FSLAX34Y34*%
%LPD*%
%INSilkscreen Bottom*%
%IPPOS*%
%AMOC8*
5,1,8,0,0,1.08239X$1,22.5*%
G01*
G04 Define Apertures*
%ADD10C,0.152400*%
D10*
X1432916Y90762D02*
X1436529Y90762D01*
X1436630Y90764D01*
X1436731Y90770D01*
X1436832Y90779D01*
X1436933Y90792D01*
X1437033Y90809D01*
X1437132Y90830D01*
X1437230Y90854D01*
X1437327Y90882D01*
X1437424Y90914D01*
X1437519Y90949D01*
X1437612Y90988D01*
X1437704Y91030D01*
X1437795Y91076D01*
X1437884Y91125D01*
X1437970Y91177D01*
X1438055Y91233D01*
X1438138Y91291D01*
X1438218Y91353D01*
X1438296Y91418D01*
X1438372Y91485D01*
X1438445Y91555D01*
X1438515Y91628D01*
X1438582Y91704D01*
X1438647Y91782D01*
X1438709Y91862D01*
X1438767Y91945D01*
X1438823Y92030D01*
X1438875Y92116D01*
X1438924Y92205D01*
X1438970Y92296D01*
X1439012Y92388D01*
X1439051Y92481D01*
X1439086Y92576D01*
X1439118Y92673D01*
X1439146Y92770D01*
X1439170Y92868D01*
X1439191Y92967D01*
X1439208Y93067D01*
X1439221Y93168D01*
X1439230Y93269D01*
X1439236Y93370D01*
X1439238Y93471D01*
X1439238Y98890D01*
X1439236Y98991D01*
X1439230Y99092D01*
X1439221Y99193D01*
X1439208Y99294D01*
X1439191Y99394D01*
X1439170Y99493D01*
X1439146Y99591D01*
X1439118Y99688D01*
X1439086Y99785D01*
X1439051Y99880D01*
X1439012Y99973D01*
X1438970Y100065D01*
X1438924Y100156D01*
X1438875Y100245D01*
X1438823Y100331D01*
X1438767Y100416D01*
X1438709Y100499D01*
X1438647Y100579D01*
X1438582Y100657D01*
X1438515Y100733D01*
X1438445Y100806D01*
X1438372Y100876D01*
X1438296Y100943D01*
X1438218Y101008D01*
X1438138Y101070D01*
X1438055Y101128D01*
X1437970Y101184D01*
X1437884Y101236D01*
X1437795Y101285D01*
X1437704Y101331D01*
X1437612Y101373D01*
X1437519Y101412D01*
X1437424Y101447D01*
X1437327Y101479D01*
X1437230Y101507D01*
X1437132Y101531D01*
X1437033Y101552D01*
X1436933Y101569D01*
X1436832Y101582D01*
X1436731Y101591D01*
X1436630Y101597D01*
X1436529Y101599D01*
X1432916Y101599D01*
X1426666Y101599D02*
X1426666Y90762D01*
X1426666Y101599D02*
X1421247Y101599D01*
X1421247Y99793D01*
X1416330Y97987D02*
X1416330Y94374D01*
X1416329Y97987D02*
X1416327Y98106D01*
X1416321Y98226D01*
X1416311Y98345D01*
X1416297Y98463D01*
X1416280Y98582D01*
X1416258Y98699D01*
X1416233Y98816D01*
X1416203Y98931D01*
X1416170Y99046D01*
X1416133Y99160D01*
X1416093Y99272D01*
X1416048Y99383D01*
X1416000Y99492D01*
X1415949Y99600D01*
X1415894Y99706D01*
X1415835Y99810D01*
X1415773Y99912D01*
X1415708Y100012D01*
X1415639Y100110D01*
X1415567Y100206D01*
X1415492Y100299D01*
X1415415Y100389D01*
X1415334Y100477D01*
X1415250Y100562D01*
X1415163Y100644D01*
X1415074Y100724D01*
X1414982Y100800D01*
X1414888Y100874D01*
X1414791Y100944D01*
X1414693Y101011D01*
X1414592Y101075D01*
X1414488Y101135D01*
X1414383Y101192D01*
X1414276Y101245D01*
X1414168Y101295D01*
X1414058Y101341D01*
X1413946Y101383D01*
X1413833Y101422D01*
X1413719Y101457D01*
X1413604Y101488D01*
X1413487Y101516D01*
X1413370Y101539D01*
X1413253Y101559D01*
X1413134Y101575D01*
X1413015Y101587D01*
X1412896Y101595D01*
X1412777Y101599D01*
X1412657Y101599D01*
X1412538Y101595D01*
X1412419Y101587D01*
X1412300Y101575D01*
X1412181Y101559D01*
X1412064Y101539D01*
X1411947Y101516D01*
X1411830Y101488D01*
X1411715Y101457D01*
X1411601Y101422D01*
X1411488Y101383D01*
X1411376Y101341D01*
X1411266Y101295D01*
X1411158Y101245D01*
X1411051Y101192D01*
X1410946Y101135D01*
X1410842Y101075D01*
X1410741Y101011D01*
X1410643Y100944D01*
X1410546Y100874D01*
X1410452Y100800D01*
X1410360Y100724D01*
X1410271Y100644D01*
X1410184Y100562D01*
X1410100Y100477D01*
X1410019Y100389D01*
X1409942Y100299D01*
X1409867Y100206D01*
X1409795Y100110D01*
X1409726Y100012D01*
X1409661Y99912D01*
X1409599Y99810D01*
X1409540Y99706D01*
X1409485Y99600D01*
X1409434Y99492D01*
X1409386Y99383D01*
X1409341Y99272D01*
X1409301Y99160D01*
X1409264Y99046D01*
X1409231Y98931D01*
X1409201Y98816D01*
X1409176Y98699D01*
X1409154Y98582D01*
X1409137Y98463D01*
X1409123Y98345D01*
X1409113Y98226D01*
X1409107Y98106D01*
X1409105Y97987D01*
X1409105Y94374D01*
X1409107Y94255D01*
X1409113Y94135D01*
X1409123Y94016D01*
X1409137Y93898D01*
X1409154Y93779D01*
X1409176Y93662D01*
X1409201Y93545D01*
X1409231Y93430D01*
X1409264Y93315D01*
X1409301Y93201D01*
X1409341Y93089D01*
X1409386Y92978D01*
X1409434Y92869D01*
X1409485Y92761D01*
X1409540Y92655D01*
X1409599Y92551D01*
X1409661Y92449D01*
X1409726Y92349D01*
X1409795Y92251D01*
X1409867Y92155D01*
X1409942Y92062D01*
X1410019Y91972D01*
X1410100Y91884D01*
X1410184Y91799D01*
X1410271Y91717D01*
X1410360Y91637D01*
X1410452Y91561D01*
X1410546Y91487D01*
X1410643Y91417D01*
X1410741Y91350D01*
X1410842Y91286D01*
X1410946Y91226D01*
X1411051Y91169D01*
X1411158Y91116D01*
X1411266Y91066D01*
X1411376Y91020D01*
X1411488Y90978D01*
X1411601Y90939D01*
X1411715Y90904D01*
X1411830Y90873D01*
X1411947Y90845D01*
X1412064Y90822D01*
X1412181Y90802D01*
X1412300Y90786D01*
X1412419Y90774D01*
X1412538Y90766D01*
X1412657Y90762D01*
X1412777Y90762D01*
X1412896Y90766D01*
X1413015Y90774D01*
X1413134Y90786D01*
X1413253Y90802D01*
X1413370Y90822D01*
X1413487Y90845D01*
X1413604Y90873D01*
X1413719Y90904D01*
X1413833Y90939D01*
X1413946Y90978D01*
X1414058Y91020D01*
X1414168Y91066D01*
X1414276Y91116D01*
X1414383Y91169D01*
X1414488Y91226D01*
X1414592Y91286D01*
X1414693Y91350D01*
X1414791Y91417D01*
X1414888Y91487D01*
X1414982Y91561D01*
X1415074Y91637D01*
X1415163Y91717D01*
X1415250Y91799D01*
X1415334Y91884D01*
X1415415Y91972D01*
X1415492Y92062D01*
X1415567Y92155D01*
X1415639Y92251D01*
X1415708Y92349D01*
X1415773Y92449D01*
X1415835Y92551D01*
X1415894Y92655D01*
X1415949Y92761D01*
X1416000Y92869D01*
X1416048Y92978D01*
X1416093Y93089D01*
X1416133Y93201D01*
X1416170Y93315D01*
X1416203Y93430D01*
X1416233Y93545D01*
X1416258Y93662D01*
X1416280Y93779D01*
X1416297Y93898D01*
X1416311Y94016D01*
X1416321Y94135D01*
X1416327Y94255D01*
X1416329Y94374D01*
X1401428Y97084D02*
X1396913Y95278D01*
X1401428Y97084D02*
X1401516Y97121D01*
X1401602Y97162D01*
X1401687Y97206D01*
X1401770Y97254D01*
X1401850Y97305D01*
X1401929Y97359D01*
X1402005Y97417D01*
X1402079Y97477D01*
X1402151Y97541D01*
X1402219Y97607D01*
X1402285Y97677D01*
X1402348Y97748D01*
X1402409Y97823D01*
X1402466Y97899D01*
X1402519Y97978D01*
X1402570Y98059D01*
X1402617Y98142D01*
X1402661Y98227D01*
X1402701Y98314D01*
X1402738Y98402D01*
X1402771Y98492D01*
X1402801Y98583D01*
X1402826Y98675D01*
X1402848Y98768D01*
X1402866Y98862D01*
X1402881Y98956D01*
X1402891Y99051D01*
X1402897Y99147D01*
X1402900Y99242D01*
X1402899Y99338D01*
X1402893Y99433D01*
X1402884Y99529D01*
X1402871Y99623D01*
X1402855Y99717D01*
X1402834Y99811D01*
X1402809Y99903D01*
X1402781Y99994D01*
X1402749Y100084D01*
X1402714Y100173D01*
X1402675Y100260D01*
X1402632Y100346D01*
X1402586Y100430D01*
X1402536Y100511D01*
X1402484Y100591D01*
X1402428Y100669D01*
X1402368Y100744D01*
X1402306Y100816D01*
X1402241Y100886D01*
X1402173Y100954D01*
X1402103Y101018D01*
X1402030Y101080D01*
X1401954Y101138D01*
X1401876Y101194D01*
X1401796Y101246D01*
X1401714Y101295D01*
X1401630Y101340D01*
X1401544Y101382D01*
X1401457Y101421D01*
X1401368Y101456D01*
X1401277Y101487D01*
X1401186Y101514D01*
X1401093Y101538D01*
X1401000Y101558D01*
X1400906Y101574D01*
X1400811Y101586D01*
X1400716Y101595D01*
X1400620Y101599D01*
X1400525Y101600D01*
X1400278Y101593D01*
X1400032Y101581D01*
X1399786Y101563D01*
X1399540Y101538D01*
X1399296Y101508D01*
X1399052Y101472D01*
X1398809Y101431D01*
X1398567Y101383D01*
X1398326Y101329D01*
X1398087Y101270D01*
X1397849Y101205D01*
X1397613Y101134D01*
X1397378Y101058D01*
X1397145Y100976D01*
X1396915Y100888D01*
X1396687Y100795D01*
X1396460Y100697D01*
X1396912Y95277D02*
X1396824Y95240D01*
X1396738Y95199D01*
X1396653Y95155D01*
X1396570Y95107D01*
X1396490Y95056D01*
X1396411Y95002D01*
X1396335Y94944D01*
X1396261Y94884D01*
X1396189Y94820D01*
X1396121Y94754D01*
X1396055Y94684D01*
X1395992Y94613D01*
X1395931Y94538D01*
X1395874Y94462D01*
X1395821Y94383D01*
X1395770Y94302D01*
X1395723Y94219D01*
X1395679Y94134D01*
X1395639Y94047D01*
X1395602Y93959D01*
X1395569Y93869D01*
X1395539Y93778D01*
X1395514Y93686D01*
X1395492Y93593D01*
X1395474Y93499D01*
X1395459Y93405D01*
X1395449Y93310D01*
X1395443Y93214D01*
X1395440Y93119D01*
X1395441Y93023D01*
X1395447Y92928D01*
X1395456Y92832D01*
X1395469Y92738D01*
X1395485Y92644D01*
X1395506Y92550D01*
X1395531Y92458D01*
X1395559Y92367D01*
X1395591Y92277D01*
X1395626Y92188D01*
X1395665Y92101D01*
X1395708Y92015D01*
X1395754Y91931D01*
X1395804Y91850D01*
X1395856Y91770D01*
X1395912Y91692D01*
X1395972Y91617D01*
X1396034Y91545D01*
X1396099Y91475D01*
X1396167Y91407D01*
X1396237Y91343D01*
X1396310Y91281D01*
X1396386Y91223D01*
X1396464Y91167D01*
X1396544Y91115D01*
X1396626Y91066D01*
X1396710Y91021D01*
X1396796Y90979D01*
X1396883Y90940D01*
X1396972Y90905D01*
X1397063Y90874D01*
X1397154Y90847D01*
X1397247Y90823D01*
X1397340Y90803D01*
X1397434Y90787D01*
X1397529Y90775D01*
X1397624Y90766D01*
X1397720Y90762D01*
X1397815Y90761D01*
X1397816Y90762D02*
X1398178Y90771D01*
X1398540Y90789D01*
X1398901Y90816D01*
X1399261Y90851D01*
X1399621Y90894D01*
X1399980Y90946D01*
X1400337Y91007D01*
X1400692Y91076D01*
X1401046Y91153D01*
X1401398Y91239D01*
X1401748Y91333D01*
X1402096Y91436D01*
X1402441Y91546D01*
X1402783Y91665D01*
X1387881Y97084D02*
X1383365Y95278D01*
X1387881Y97084D02*
X1387969Y97121D01*
X1388055Y97162D01*
X1388140Y97206D01*
X1388223Y97254D01*
X1388303Y97305D01*
X1388382Y97359D01*
X1388458Y97417D01*
X1388532Y97477D01*
X1388604Y97541D01*
X1388672Y97607D01*
X1388738Y97677D01*
X1388801Y97748D01*
X1388862Y97823D01*
X1388919Y97899D01*
X1388972Y97978D01*
X1389023Y98059D01*
X1389070Y98142D01*
X1389114Y98227D01*
X1389154Y98314D01*
X1389191Y98402D01*
X1389224Y98492D01*
X1389254Y98583D01*
X1389279Y98675D01*
X1389301Y98768D01*
X1389319Y98862D01*
X1389334Y98956D01*
X1389344Y99051D01*
X1389350Y99147D01*
X1389353Y99242D01*
X1389352Y99338D01*
X1389346Y99433D01*
X1389337Y99529D01*
X1389324Y99623D01*
X1389308Y99717D01*
X1389287Y99811D01*
X1389262Y99903D01*
X1389234Y99994D01*
X1389202Y100084D01*
X1389167Y100173D01*
X1389128Y100260D01*
X1389085Y100346D01*
X1389039Y100430D01*
X1388989Y100511D01*
X1388937Y100591D01*
X1388881Y100669D01*
X1388821Y100744D01*
X1388759Y100816D01*
X1388694Y100886D01*
X1388626Y100954D01*
X1388556Y101018D01*
X1388483Y101080D01*
X1388407Y101138D01*
X1388329Y101194D01*
X1388249Y101246D01*
X1388167Y101295D01*
X1388083Y101340D01*
X1387997Y101382D01*
X1387910Y101421D01*
X1387821Y101456D01*
X1387730Y101487D01*
X1387639Y101514D01*
X1387546Y101538D01*
X1387453Y101558D01*
X1387359Y101574D01*
X1387264Y101586D01*
X1387169Y101595D01*
X1387073Y101599D01*
X1386978Y101600D01*
X1386731Y101593D01*
X1386485Y101581D01*
X1386239Y101563D01*
X1385993Y101538D01*
X1385749Y101508D01*
X1385505Y101472D01*
X1385262Y101431D01*
X1385020Y101383D01*
X1384779Y101329D01*
X1384540Y101270D01*
X1384302Y101205D01*
X1384066Y101134D01*
X1383831Y101058D01*
X1383598Y100976D01*
X1383368Y100888D01*
X1383140Y100795D01*
X1382913Y100697D01*
X1383365Y95277D02*
X1383277Y95240D01*
X1383191Y95199D01*
X1383106Y95155D01*
X1383023Y95107D01*
X1382943Y95056D01*
X1382864Y95002D01*
X1382788Y94944D01*
X1382714Y94884D01*
X1382642Y94820D01*
X1382574Y94754D01*
X1382508Y94684D01*
X1382445Y94613D01*
X1382384Y94538D01*
X1382327Y94462D01*
X1382274Y94383D01*
X1382223Y94302D01*
X1382176Y94219D01*
X1382132Y94134D01*
X1382092Y94047D01*
X1382055Y93959D01*
X1382022Y93869D01*
X1381992Y93778D01*
X1381967Y93686D01*
X1381945Y93593D01*
X1381927Y93499D01*
X1381912Y93405D01*
X1381902Y93310D01*
X1381896Y93214D01*
X1381893Y93119D01*
X1381894Y93023D01*
X1381900Y92928D01*
X1381909Y92832D01*
X1381922Y92738D01*
X1381938Y92644D01*
X1381959Y92550D01*
X1381984Y92458D01*
X1382012Y92367D01*
X1382044Y92277D01*
X1382079Y92188D01*
X1382118Y92101D01*
X1382161Y92015D01*
X1382207Y91931D01*
X1382257Y91850D01*
X1382309Y91770D01*
X1382365Y91692D01*
X1382425Y91617D01*
X1382487Y91545D01*
X1382552Y91475D01*
X1382620Y91407D01*
X1382690Y91343D01*
X1382763Y91281D01*
X1382839Y91223D01*
X1382917Y91167D01*
X1382997Y91115D01*
X1383079Y91066D01*
X1383163Y91021D01*
X1383249Y90979D01*
X1383336Y90940D01*
X1383425Y90905D01*
X1383516Y90874D01*
X1383607Y90847D01*
X1383700Y90823D01*
X1383793Y90803D01*
X1383887Y90787D01*
X1383982Y90775D01*
X1384077Y90766D01*
X1384173Y90762D01*
X1384268Y90761D01*
X1384269Y90762D02*
X1384631Y90771D01*
X1384993Y90789D01*
X1385354Y90816D01*
X1385714Y90851D01*
X1386074Y90894D01*
X1386433Y90946D01*
X1386790Y91007D01*
X1387145Y91076D01*
X1387499Y91153D01*
X1387851Y91239D01*
X1388201Y91333D01*
X1388549Y91436D01*
X1388894Y91546D01*
X1389236Y91665D01*
X1374818Y90762D02*
X1374818Y107018D01*
X1370302Y107018D01*
X1370169Y107016D01*
X1370037Y107010D01*
X1369905Y107000D01*
X1369773Y106987D01*
X1369641Y106969D01*
X1369511Y106948D01*
X1369380Y106923D01*
X1369251Y106894D01*
X1369123Y106861D01*
X1368995Y106825D01*
X1368869Y106785D01*
X1368744Y106741D01*
X1368620Y106693D01*
X1368498Y106642D01*
X1368377Y106587D01*
X1368258Y106529D01*
X1368140Y106467D01*
X1368025Y106402D01*
X1367911Y106333D01*
X1367800Y106262D01*
X1367691Y106186D01*
X1367584Y106108D01*
X1367479Y106027D01*
X1367377Y105942D01*
X1367277Y105855D01*
X1367180Y105765D01*
X1367085Y105672D01*
X1366994Y105576D01*
X1366905Y105478D01*
X1366819Y105377D01*
X1366736Y105273D01*
X1366656Y105167D01*
X1366580Y105059D01*
X1366506Y104949D01*
X1366436Y104836D01*
X1366369Y104722D01*
X1366306Y104605D01*
X1366246Y104487D01*
X1366189Y104367D01*
X1366136Y104245D01*
X1366087Y104122D01*
X1366041Y103998D01*
X1365999Y103872D01*
X1365961Y103745D01*
X1365926Y103617D01*
X1365895Y103488D01*
X1365868Y103359D01*
X1365845Y103228D01*
X1365825Y103097D01*
X1365810Y102965D01*
X1365798Y102833D01*
X1365790Y102701D01*
X1365786Y102568D01*
X1365786Y102436D01*
X1365790Y102303D01*
X1365798Y102171D01*
X1365810Y102039D01*
X1365825Y101907D01*
X1365845Y101776D01*
X1365868Y101645D01*
X1365895Y101516D01*
X1365926Y101387D01*
X1365961Y101259D01*
X1365999Y101132D01*
X1366041Y101006D01*
X1366087Y100882D01*
X1366136Y100759D01*
X1366189Y100637D01*
X1366246Y100517D01*
X1366306Y100399D01*
X1366369Y100282D01*
X1366436Y100168D01*
X1366506Y100055D01*
X1366580Y99945D01*
X1366656Y99837D01*
X1366736Y99731D01*
X1366819Y99627D01*
X1366905Y99526D01*
X1366994Y99428D01*
X1367085Y99332D01*
X1367180Y99239D01*
X1367277Y99149D01*
X1367377Y99062D01*
X1367479Y98977D01*
X1367584Y98896D01*
X1367691Y98818D01*
X1367800Y98742D01*
X1367911Y98671D01*
X1368025Y98602D01*
X1368140Y98537D01*
X1368258Y98475D01*
X1368377Y98417D01*
X1368498Y98362D01*
X1368620Y98311D01*
X1368744Y98263D01*
X1368869Y98219D01*
X1368995Y98179D01*
X1369123Y98143D01*
X1369251Y98110D01*
X1369380Y98081D01*
X1369511Y98056D01*
X1369641Y98035D01*
X1369773Y98017D01*
X1369905Y98004D01*
X1370037Y97994D01*
X1370169Y97988D01*
X1370302Y97986D01*
X1370302Y97987D02*
X1374818Y97987D01*
X1356970Y97084D02*
X1352906Y97084D01*
X1356970Y97084D02*
X1357082Y97082D01*
X1357193Y97076D01*
X1357304Y97066D01*
X1357415Y97053D01*
X1357525Y97035D01*
X1357634Y97013D01*
X1357743Y96988D01*
X1357851Y96959D01*
X1357957Y96926D01*
X1358063Y96889D01*
X1358167Y96849D01*
X1358269Y96805D01*
X1358370Y96757D01*
X1358469Y96706D01*
X1358567Y96651D01*
X1358662Y96593D01*
X1358755Y96532D01*
X1358846Y96467D01*
X1358935Y96399D01*
X1359021Y96328D01*
X1359104Y96255D01*
X1359185Y96178D01*
X1359264Y96098D01*
X1359339Y96016D01*
X1359411Y95931D01*
X1359481Y95844D01*
X1359547Y95754D01*
X1359610Y95662D01*
X1359670Y95567D01*
X1359726Y95471D01*
X1359779Y95373D01*
X1359828Y95273D01*
X1359874Y95171D01*
X1359916Y95068D01*
X1359955Y94963D01*
X1359990Y94857D01*
X1360021Y94750D01*
X1360048Y94642D01*
X1360072Y94533D01*
X1360091Y94423D01*
X1360107Y94313D01*
X1360119Y94202D01*
X1360127Y94090D01*
X1360131Y93979D01*
X1360131Y93867D01*
X1360127Y93756D01*
X1360119Y93644D01*
X1360107Y93533D01*
X1360091Y93423D01*
X1360072Y93313D01*
X1360048Y93204D01*
X1360021Y93096D01*
X1359990Y92989D01*
X1359955Y92883D01*
X1359916Y92778D01*
X1359874Y92675D01*
X1359828Y92573D01*
X1359779Y92473D01*
X1359726Y92375D01*
X1359670Y92279D01*
X1359610Y92184D01*
X1359547Y92092D01*
X1359481Y92002D01*
X1359411Y91915D01*
X1359339Y91830D01*
X1359264Y91748D01*
X1359185Y91668D01*
X1359104Y91591D01*
X1359021Y91518D01*
X1358935Y91447D01*
X1358846Y91379D01*
X1358755Y91314D01*
X1358662Y91253D01*
X1358567Y91195D01*
X1358469Y91140D01*
X1358370Y91089D01*
X1358269Y91041D01*
X1358167Y90997D01*
X1358063Y90957D01*
X1357957Y90920D01*
X1357851Y90887D01*
X1357743Y90858D01*
X1357634Y90833D01*
X1357525Y90811D01*
X1357415Y90793D01*
X1357304Y90780D01*
X1357193Y90770D01*
X1357082Y90764D01*
X1356970Y90762D01*
X1352906Y90762D01*
X1352906Y98890D01*
X1352908Y98991D01*
X1352914Y99092D01*
X1352923Y99193D01*
X1352936Y99294D01*
X1352953Y99394D01*
X1352974Y99493D01*
X1352998Y99591D01*
X1353026Y99688D01*
X1353058Y99785D01*
X1353093Y99880D01*
X1353132Y99973D01*
X1353174Y100065D01*
X1353220Y100156D01*
X1353269Y100245D01*
X1353321Y100331D01*
X1353377Y100416D01*
X1353435Y100499D01*
X1353497Y100579D01*
X1353562Y100657D01*
X1353629Y100733D01*
X1353699Y100806D01*
X1353772Y100876D01*
X1353848Y100943D01*
X1353926Y101008D01*
X1354006Y101070D01*
X1354089Y101128D01*
X1354174Y101184D01*
X1354261Y101236D01*
X1354349Y101285D01*
X1354440Y101331D01*
X1354532Y101373D01*
X1354625Y101412D01*
X1354720Y101447D01*
X1354817Y101479D01*
X1354914Y101507D01*
X1355012Y101531D01*
X1355111Y101552D01*
X1355211Y101569D01*
X1355312Y101582D01*
X1355413Y101591D01*
X1355514Y101597D01*
X1355615Y101599D01*
X1359228Y101599D01*
X1345468Y101599D02*
X1345468Y90762D01*
X1345468Y101599D02*
X1340953Y101599D01*
X1340849Y101597D01*
X1340746Y101591D01*
X1340642Y101581D01*
X1340539Y101567D01*
X1340437Y101549D01*
X1340336Y101528D01*
X1340235Y101502D01*
X1340136Y101473D01*
X1340037Y101440D01*
X1339940Y101403D01*
X1339845Y101362D01*
X1339751Y101318D01*
X1339659Y101270D01*
X1339569Y101219D01*
X1339480Y101164D01*
X1339394Y101106D01*
X1339311Y101044D01*
X1339229Y100980D01*
X1339151Y100912D01*
X1339075Y100842D01*
X1339001Y100769D01*
X1338931Y100692D01*
X1338863Y100614D01*
X1338799Y100532D01*
X1338737Y100449D01*
X1338679Y100363D01*
X1338624Y100274D01*
X1338573Y100184D01*
X1338525Y100092D01*
X1338481Y99998D01*
X1338440Y99903D01*
X1338403Y99806D01*
X1338370Y99707D01*
X1338341Y99608D01*
X1338315Y99507D01*
X1338294Y99406D01*
X1338276Y99304D01*
X1338262Y99201D01*
X1338252Y99097D01*
X1338246Y98994D01*
X1338244Y98890D01*
X1338243Y98890D02*
X1338243Y90762D01*
X1328691Y90762D02*
X1324175Y90762D01*
X1328691Y90762D02*
X1328792Y90764D01*
X1328893Y90770D01*
X1328994Y90779D01*
X1329095Y90792D01*
X1329195Y90809D01*
X1329294Y90830D01*
X1329392Y90854D01*
X1329489Y90882D01*
X1329586Y90914D01*
X1329681Y90949D01*
X1329774Y90988D01*
X1329866Y91030D01*
X1329957Y91076D01*
X1330046Y91125D01*
X1330132Y91177D01*
X1330217Y91233D01*
X1330300Y91291D01*
X1330380Y91353D01*
X1330458Y91418D01*
X1330534Y91485D01*
X1330607Y91555D01*
X1330677Y91628D01*
X1330744Y91704D01*
X1330809Y91782D01*
X1330871Y91862D01*
X1330929Y91945D01*
X1330985Y92030D01*
X1331037Y92116D01*
X1331086Y92205D01*
X1331132Y92296D01*
X1331174Y92388D01*
X1331213Y92481D01*
X1331248Y92576D01*
X1331280Y92673D01*
X1331308Y92770D01*
X1331332Y92868D01*
X1331353Y92967D01*
X1331370Y93067D01*
X1331383Y93168D01*
X1331392Y93269D01*
X1331398Y93370D01*
X1331400Y93471D01*
X1331400Y97987D01*
X1331398Y98106D01*
X1331392Y98226D01*
X1331382Y98345D01*
X1331368Y98463D01*
X1331351Y98582D01*
X1331329Y98699D01*
X1331304Y98816D01*
X1331274Y98931D01*
X1331241Y99046D01*
X1331204Y99160D01*
X1331164Y99272D01*
X1331119Y99383D01*
X1331071Y99492D01*
X1331020Y99600D01*
X1330965Y99706D01*
X1330906Y99810D01*
X1330844Y99912D01*
X1330779Y100012D01*
X1330710Y100110D01*
X1330638Y100206D01*
X1330563Y100299D01*
X1330486Y100389D01*
X1330405Y100477D01*
X1330321Y100562D01*
X1330234Y100644D01*
X1330145Y100724D01*
X1330053Y100800D01*
X1329959Y100874D01*
X1329862Y100944D01*
X1329764Y101011D01*
X1329663Y101075D01*
X1329559Y101135D01*
X1329454Y101192D01*
X1329347Y101245D01*
X1329239Y101295D01*
X1329129Y101341D01*
X1329017Y101383D01*
X1328904Y101422D01*
X1328790Y101457D01*
X1328675Y101488D01*
X1328558Y101516D01*
X1328441Y101539D01*
X1328324Y101559D01*
X1328205Y101575D01*
X1328086Y101587D01*
X1327967Y101595D01*
X1327848Y101599D01*
X1327728Y101599D01*
X1327609Y101595D01*
X1327490Y101587D01*
X1327371Y101575D01*
X1327252Y101559D01*
X1327135Y101539D01*
X1327018Y101516D01*
X1326901Y101488D01*
X1326786Y101457D01*
X1326672Y101422D01*
X1326559Y101383D01*
X1326447Y101341D01*
X1326337Y101295D01*
X1326229Y101245D01*
X1326122Y101192D01*
X1326017Y101135D01*
X1325913Y101075D01*
X1325812Y101011D01*
X1325714Y100944D01*
X1325617Y100874D01*
X1325523Y100800D01*
X1325431Y100724D01*
X1325342Y100644D01*
X1325255Y100562D01*
X1325171Y100477D01*
X1325090Y100389D01*
X1325013Y100299D01*
X1324938Y100206D01*
X1324866Y100110D01*
X1324797Y100012D01*
X1324732Y99912D01*
X1324670Y99810D01*
X1324611Y99706D01*
X1324556Y99600D01*
X1324505Y99492D01*
X1324457Y99383D01*
X1324412Y99272D01*
X1324372Y99160D01*
X1324335Y99046D01*
X1324302Y98931D01*
X1324272Y98816D01*
X1324247Y98699D01*
X1324225Y98582D01*
X1324208Y98463D01*
X1324194Y98345D01*
X1324184Y98226D01*
X1324178Y98106D01*
X1324176Y97987D01*
X1324175Y97987D02*
X1324175Y96181D01*
X1331400Y96181D01*
X1317616Y93471D02*
X1317616Y107018D01*
X1317616Y93471D02*
X1317614Y93370D01*
X1317608Y93269D01*
X1317599Y93168D01*
X1317586Y93067D01*
X1317569Y92967D01*
X1317548Y92868D01*
X1317524Y92770D01*
X1317496Y92673D01*
X1317464Y92576D01*
X1317429Y92481D01*
X1317390Y92388D01*
X1317348Y92296D01*
X1317302Y92205D01*
X1317253Y92116D01*
X1317201Y92030D01*
X1317145Y91945D01*
X1317087Y91862D01*
X1317025Y91782D01*
X1316960Y91704D01*
X1316893Y91628D01*
X1316823Y91555D01*
X1316750Y91485D01*
X1316674Y91418D01*
X1316596Y91353D01*
X1316516Y91291D01*
X1316433Y91233D01*
X1316348Y91177D01*
X1316262Y91125D01*
X1316173Y91076D01*
X1316082Y91030D01*
X1315990Y90988D01*
X1315897Y90949D01*
X1315802Y90914D01*
X1315705Y90882D01*
X1315608Y90854D01*
X1315510Y90830D01*
X1315411Y90809D01*
X1315311Y90792D01*
X1315210Y90779D01*
X1315109Y90770D01*
X1315008Y90764D01*
X1314907Y90762D01*
X1432013Y50762D02*
X1435626Y50762D01*
X1435744Y50764D01*
X1435862Y50770D01*
X1435980Y50779D01*
X1436097Y50793D01*
X1436214Y50810D01*
X1436331Y50831D01*
X1436446Y50856D01*
X1436561Y50885D01*
X1436675Y50918D01*
X1436787Y50954D01*
X1436898Y50994D01*
X1437008Y51037D01*
X1437117Y51084D01*
X1437224Y51134D01*
X1437329Y51189D01*
X1437432Y51246D01*
X1437533Y51307D01*
X1437633Y51371D01*
X1437730Y51438D01*
X1437825Y51508D01*
X1437917Y51582D01*
X1438008Y51658D01*
X1438095Y51738D01*
X1438180Y51820D01*
X1438262Y51905D01*
X1438342Y51992D01*
X1438418Y52083D01*
X1438492Y52175D01*
X1438562Y52270D01*
X1438629Y52367D01*
X1438693Y52467D01*
X1438754Y52568D01*
X1438811Y52671D01*
X1438866Y52776D01*
X1438916Y52883D01*
X1438963Y52992D01*
X1439006Y53102D01*
X1439046Y53213D01*
X1439082Y53325D01*
X1439115Y53439D01*
X1439144Y53554D01*
X1439169Y53669D01*
X1439190Y53786D01*
X1439207Y53903D01*
X1439221Y54020D01*
X1439230Y54138D01*
X1439236Y54256D01*
X1439238Y54374D01*
X1439238Y63406D01*
X1439236Y63524D01*
X1439230Y63642D01*
X1439221Y63760D01*
X1439207Y63877D01*
X1439190Y63994D01*
X1439169Y64111D01*
X1439144Y64226D01*
X1439115Y64341D01*
X1439082Y64455D01*
X1439046Y64567D01*
X1439006Y64678D01*
X1438963Y64788D01*
X1438916Y64897D01*
X1438866Y65004D01*
X1438811Y65109D01*
X1438754Y65212D01*
X1438693Y65313D01*
X1438629Y65413D01*
X1438562Y65510D01*
X1438492Y65605D01*
X1438418Y65697D01*
X1438342Y65788D01*
X1438262Y65875D01*
X1438180Y65960D01*
X1438095Y66042D01*
X1438008Y66122D01*
X1437917Y66198D01*
X1437825Y66272D01*
X1437730Y66342D01*
X1437633Y66409D01*
X1437533Y66473D01*
X1437432Y66534D01*
X1437329Y66591D01*
X1437224Y66646D01*
X1437117Y66696D01*
X1437008Y66743D01*
X1436898Y66786D01*
X1436787Y66826D01*
X1436675Y66862D01*
X1436561Y66895D01*
X1436446Y66924D01*
X1436331Y66949D01*
X1436214Y66970D01*
X1436097Y66987D01*
X1435980Y67001D01*
X1435862Y67010D01*
X1435744Y67016D01*
X1435626Y67018D01*
X1432013Y67018D01*
X1423224Y57084D02*
X1419160Y57084D01*
X1423224Y57084D02*
X1423336Y57082D01*
X1423447Y57076D01*
X1423558Y57066D01*
X1423669Y57053D01*
X1423779Y57035D01*
X1423888Y57013D01*
X1423997Y56988D01*
X1424105Y56959D01*
X1424211Y56926D01*
X1424317Y56889D01*
X1424421Y56849D01*
X1424523Y56805D01*
X1424624Y56757D01*
X1424723Y56706D01*
X1424821Y56651D01*
X1424916Y56593D01*
X1425009Y56532D01*
X1425100Y56467D01*
X1425189Y56399D01*
X1425275Y56328D01*
X1425358Y56255D01*
X1425439Y56178D01*
X1425518Y56098D01*
X1425593Y56016D01*
X1425665Y55931D01*
X1425735Y55844D01*
X1425801Y55754D01*
X1425864Y55662D01*
X1425924Y55567D01*
X1425980Y55471D01*
X1426033Y55373D01*
X1426082Y55273D01*
X1426128Y55171D01*
X1426170Y55068D01*
X1426209Y54963D01*
X1426244Y54857D01*
X1426275Y54750D01*
X1426302Y54642D01*
X1426326Y54533D01*
X1426345Y54423D01*
X1426361Y54313D01*
X1426373Y54202D01*
X1426381Y54090D01*
X1426385Y53979D01*
X1426385Y53867D01*
X1426381Y53756D01*
X1426373Y53644D01*
X1426361Y53533D01*
X1426345Y53423D01*
X1426326Y53313D01*
X1426302Y53204D01*
X1426275Y53096D01*
X1426244Y52989D01*
X1426209Y52883D01*
X1426170Y52778D01*
X1426128Y52675D01*
X1426082Y52573D01*
X1426033Y52473D01*
X1425980Y52375D01*
X1425924Y52279D01*
X1425864Y52184D01*
X1425801Y52092D01*
X1425735Y52002D01*
X1425665Y51915D01*
X1425593Y51830D01*
X1425518Y51748D01*
X1425439Y51668D01*
X1425358Y51591D01*
X1425275Y51518D01*
X1425189Y51447D01*
X1425100Y51379D01*
X1425009Y51314D01*
X1424916Y51253D01*
X1424821Y51195D01*
X1424723Y51140D01*
X1424624Y51089D01*
X1424523Y51041D01*
X1424421Y50997D01*
X1424317Y50957D01*
X1424211Y50920D01*
X1424105Y50887D01*
X1423997Y50858D01*
X1423888Y50833D01*
X1423779Y50811D01*
X1423669Y50793D01*
X1423558Y50780D01*
X1423447Y50770D01*
X1423336Y50764D01*
X1423224Y50762D01*
X1419160Y50762D01*
X1419160Y58890D01*
X1419162Y58991D01*
X1419168Y59092D01*
X1419177Y59193D01*
X1419190Y59294D01*
X1419207Y59394D01*
X1419228Y59493D01*
X1419252Y59591D01*
X1419280Y59688D01*
X1419312Y59785D01*
X1419347Y59880D01*
X1419386Y59973D01*
X1419428Y60065D01*
X1419474Y60156D01*
X1419523Y60245D01*
X1419575Y60331D01*
X1419631Y60416D01*
X1419689Y60499D01*
X1419751Y60579D01*
X1419816Y60657D01*
X1419883Y60733D01*
X1419953Y60806D01*
X1420026Y60876D01*
X1420102Y60943D01*
X1420180Y61008D01*
X1420260Y61070D01*
X1420343Y61128D01*
X1420428Y61184D01*
X1420515Y61236D01*
X1420603Y61285D01*
X1420694Y61331D01*
X1420786Y61373D01*
X1420879Y61412D01*
X1420974Y61447D01*
X1421071Y61479D01*
X1421168Y61507D01*
X1421266Y61531D01*
X1421365Y61552D01*
X1421465Y61569D01*
X1421566Y61582D01*
X1421667Y61591D01*
X1421768Y61597D01*
X1421869Y61599D01*
X1425482Y61599D01*
X1411444Y61599D02*
X1411444Y50762D01*
X1411444Y61599D02*
X1403316Y61599D01*
X1403215Y61597D01*
X1403114Y61591D01*
X1403013Y61582D01*
X1402912Y61569D01*
X1402812Y61552D01*
X1402713Y61531D01*
X1402615Y61507D01*
X1402518Y61479D01*
X1402421Y61447D01*
X1402326Y61412D01*
X1402233Y61373D01*
X1402141Y61331D01*
X1402050Y61285D01*
X1401962Y61236D01*
X1401875Y61184D01*
X1401790Y61128D01*
X1401707Y61070D01*
X1401627Y61008D01*
X1401549Y60943D01*
X1401473Y60876D01*
X1401400Y60806D01*
X1401330Y60733D01*
X1401263Y60657D01*
X1401198Y60579D01*
X1401136Y60499D01*
X1401078Y60416D01*
X1401022Y60331D01*
X1400970Y60245D01*
X1400921Y60156D01*
X1400875Y60065D01*
X1400833Y59973D01*
X1400794Y59880D01*
X1400759Y59785D01*
X1400727Y59688D01*
X1400699Y59591D01*
X1400675Y59493D01*
X1400654Y59394D01*
X1400637Y59294D01*
X1400624Y59193D01*
X1400615Y59092D01*
X1400609Y58991D01*
X1400607Y58890D01*
X1400607Y50762D01*
X1406026Y50762D02*
X1406026Y61599D01*
X1390777Y50762D02*
X1386261Y50762D01*
X1390777Y50762D02*
X1390878Y50764D01*
X1390979Y50770D01*
X1391080Y50779D01*
X1391181Y50792D01*
X1391281Y50809D01*
X1391380Y50830D01*
X1391478Y50854D01*
X1391575Y50882D01*
X1391672Y50914D01*
X1391767Y50949D01*
X1391860Y50988D01*
X1391952Y51030D01*
X1392043Y51076D01*
X1392132Y51125D01*
X1392218Y51177D01*
X1392303Y51233D01*
X1392386Y51291D01*
X1392466Y51353D01*
X1392544Y51418D01*
X1392620Y51485D01*
X1392693Y51555D01*
X1392763Y51628D01*
X1392830Y51704D01*
X1392895Y51782D01*
X1392957Y51862D01*
X1393015Y51945D01*
X1393071Y52030D01*
X1393123Y52116D01*
X1393172Y52205D01*
X1393218Y52296D01*
X1393260Y52388D01*
X1393299Y52481D01*
X1393334Y52576D01*
X1393366Y52673D01*
X1393394Y52770D01*
X1393418Y52868D01*
X1393439Y52967D01*
X1393456Y53067D01*
X1393469Y53168D01*
X1393478Y53269D01*
X1393484Y53370D01*
X1393486Y53471D01*
X1393486Y57987D01*
X1393485Y57987D02*
X1393483Y58106D01*
X1393477Y58226D01*
X1393467Y58345D01*
X1393453Y58463D01*
X1393436Y58582D01*
X1393414Y58699D01*
X1393389Y58816D01*
X1393359Y58931D01*
X1393326Y59046D01*
X1393289Y59160D01*
X1393249Y59272D01*
X1393204Y59383D01*
X1393156Y59492D01*
X1393105Y59600D01*
X1393050Y59706D01*
X1392991Y59810D01*
X1392929Y59912D01*
X1392864Y60012D01*
X1392795Y60110D01*
X1392723Y60206D01*
X1392648Y60299D01*
X1392571Y60389D01*
X1392490Y60477D01*
X1392406Y60562D01*
X1392319Y60644D01*
X1392230Y60724D01*
X1392138Y60800D01*
X1392044Y60874D01*
X1391947Y60944D01*
X1391849Y61011D01*
X1391748Y61075D01*
X1391644Y61135D01*
X1391539Y61192D01*
X1391432Y61245D01*
X1391324Y61295D01*
X1391214Y61341D01*
X1391102Y61383D01*
X1390989Y61422D01*
X1390875Y61457D01*
X1390760Y61488D01*
X1390643Y61516D01*
X1390526Y61539D01*
X1390409Y61559D01*
X1390290Y61575D01*
X1390171Y61587D01*
X1390052Y61595D01*
X1389933Y61599D01*
X1389813Y61599D01*
X1389694Y61595D01*
X1389575Y61587D01*
X1389456Y61575D01*
X1389337Y61559D01*
X1389220Y61539D01*
X1389103Y61516D01*
X1388986Y61488D01*
X1388871Y61457D01*
X1388757Y61422D01*
X1388644Y61383D01*
X1388532Y61341D01*
X1388422Y61295D01*
X1388314Y61245D01*
X1388207Y61192D01*
X1388102Y61135D01*
X1387998Y61075D01*
X1387897Y61011D01*
X1387799Y60944D01*
X1387702Y60874D01*
X1387608Y60800D01*
X1387516Y60724D01*
X1387427Y60644D01*
X1387340Y60562D01*
X1387256Y60477D01*
X1387175Y60389D01*
X1387098Y60299D01*
X1387023Y60206D01*
X1386951Y60110D01*
X1386882Y60012D01*
X1386817Y59912D01*
X1386755Y59810D01*
X1386696Y59706D01*
X1386641Y59600D01*
X1386590Y59492D01*
X1386542Y59383D01*
X1386497Y59272D01*
X1386457Y59160D01*
X1386420Y59046D01*
X1386387Y58931D01*
X1386357Y58816D01*
X1386332Y58699D01*
X1386310Y58582D01*
X1386293Y58463D01*
X1386279Y58345D01*
X1386269Y58226D01*
X1386263Y58106D01*
X1386261Y57987D01*
X1386261Y56181D01*
X1393486Y56181D01*
X1379333Y50762D02*
X1379333Y61599D01*
X1373914Y61599D01*
X1373914Y59793D01*
X1368997Y57987D02*
X1368997Y54374D01*
X1368997Y57987D02*
X1368995Y58106D01*
X1368989Y58226D01*
X1368979Y58345D01*
X1368965Y58463D01*
X1368948Y58582D01*
X1368926Y58699D01*
X1368901Y58816D01*
X1368871Y58931D01*
X1368838Y59046D01*
X1368801Y59160D01*
X1368761Y59272D01*
X1368716Y59383D01*
X1368668Y59492D01*
X1368617Y59600D01*
X1368562Y59706D01*
X1368503Y59810D01*
X1368441Y59912D01*
X1368376Y60012D01*
X1368307Y60110D01*
X1368235Y60206D01*
X1368160Y60299D01*
X1368083Y60389D01*
X1368002Y60477D01*
X1367918Y60562D01*
X1367831Y60644D01*
X1367742Y60724D01*
X1367650Y60800D01*
X1367556Y60874D01*
X1367459Y60944D01*
X1367361Y61011D01*
X1367260Y61075D01*
X1367156Y61135D01*
X1367051Y61192D01*
X1366944Y61245D01*
X1366836Y61295D01*
X1366726Y61341D01*
X1366614Y61383D01*
X1366501Y61422D01*
X1366387Y61457D01*
X1366272Y61488D01*
X1366155Y61516D01*
X1366038Y61539D01*
X1365921Y61559D01*
X1365802Y61575D01*
X1365683Y61587D01*
X1365564Y61595D01*
X1365445Y61599D01*
X1365325Y61599D01*
X1365206Y61595D01*
X1365087Y61587D01*
X1364968Y61575D01*
X1364849Y61559D01*
X1364732Y61539D01*
X1364615Y61516D01*
X1364498Y61488D01*
X1364383Y61457D01*
X1364269Y61422D01*
X1364156Y61383D01*
X1364044Y61341D01*
X1363934Y61295D01*
X1363826Y61245D01*
X1363719Y61192D01*
X1363614Y61135D01*
X1363510Y61075D01*
X1363409Y61011D01*
X1363311Y60944D01*
X1363214Y60874D01*
X1363120Y60800D01*
X1363028Y60724D01*
X1362939Y60644D01*
X1362852Y60562D01*
X1362768Y60477D01*
X1362687Y60389D01*
X1362610Y60299D01*
X1362535Y60206D01*
X1362463Y60110D01*
X1362394Y60012D01*
X1362329Y59912D01*
X1362267Y59810D01*
X1362208Y59706D01*
X1362153Y59600D01*
X1362102Y59492D01*
X1362054Y59383D01*
X1362009Y59272D01*
X1361969Y59160D01*
X1361932Y59046D01*
X1361899Y58931D01*
X1361869Y58816D01*
X1361844Y58699D01*
X1361822Y58582D01*
X1361805Y58463D01*
X1361791Y58345D01*
X1361781Y58226D01*
X1361775Y58106D01*
X1361773Y57987D01*
X1361772Y57987D02*
X1361772Y54374D01*
X1361773Y54374D02*
X1361775Y54255D01*
X1361781Y54135D01*
X1361791Y54016D01*
X1361805Y53898D01*
X1361822Y53779D01*
X1361844Y53662D01*
X1361869Y53545D01*
X1361899Y53430D01*
X1361932Y53315D01*
X1361969Y53201D01*
X1362009Y53089D01*
X1362054Y52978D01*
X1362102Y52869D01*
X1362153Y52761D01*
X1362208Y52655D01*
X1362267Y52551D01*
X1362329Y52449D01*
X1362394Y52349D01*
X1362463Y52251D01*
X1362535Y52155D01*
X1362610Y52062D01*
X1362687Y51972D01*
X1362768Y51884D01*
X1362852Y51799D01*
X1362939Y51717D01*
X1363028Y51637D01*
X1363120Y51561D01*
X1363214Y51487D01*
X1363311Y51417D01*
X1363409Y51350D01*
X1363510Y51286D01*
X1363614Y51226D01*
X1363719Y51169D01*
X1363826Y51116D01*
X1363934Y51066D01*
X1364044Y51020D01*
X1364156Y50978D01*
X1364269Y50939D01*
X1364383Y50904D01*
X1364498Y50873D01*
X1364615Y50845D01*
X1364732Y50822D01*
X1364849Y50802D01*
X1364968Y50786D01*
X1365087Y50774D01*
X1365206Y50766D01*
X1365325Y50762D01*
X1365445Y50762D01*
X1365564Y50766D01*
X1365683Y50774D01*
X1365802Y50786D01*
X1365921Y50802D01*
X1366038Y50822D01*
X1366155Y50845D01*
X1366272Y50873D01*
X1366387Y50904D01*
X1366501Y50939D01*
X1366614Y50978D01*
X1366726Y51020D01*
X1366836Y51066D01*
X1366944Y51116D01*
X1367051Y51169D01*
X1367156Y51226D01*
X1367260Y51286D01*
X1367361Y51350D01*
X1367459Y51417D01*
X1367556Y51487D01*
X1367650Y51561D01*
X1367742Y51637D01*
X1367831Y51717D01*
X1367918Y51799D01*
X1368002Y51884D01*
X1368083Y51972D01*
X1368160Y52062D01*
X1368235Y52155D01*
X1368307Y52251D01*
X1368376Y52349D01*
X1368441Y52449D01*
X1368503Y52551D01*
X1368562Y52655D01*
X1368617Y52761D01*
X1368668Y52869D01*
X1368716Y52978D01*
X1368761Y53089D01*
X1368801Y53201D01*
X1368838Y53315D01*
X1368871Y53430D01*
X1368901Y53545D01*
X1368926Y53662D01*
X1368948Y53779D01*
X1368965Y53898D01*
X1368979Y54016D01*
X1368989Y54135D01*
X1368995Y54255D01*
X1368997Y54374D01*
X1354929Y50762D02*
X1354929Y61599D01*
X1350413Y61599D01*
X1350309Y61597D01*
X1350206Y61591D01*
X1350102Y61581D01*
X1349999Y61567D01*
X1349897Y61549D01*
X1349796Y61528D01*
X1349695Y61502D01*
X1349596Y61473D01*
X1349497Y61440D01*
X1349400Y61403D01*
X1349305Y61362D01*
X1349211Y61318D01*
X1349119Y61270D01*
X1349029Y61219D01*
X1348940Y61164D01*
X1348854Y61106D01*
X1348771Y61044D01*
X1348689Y60980D01*
X1348611Y60912D01*
X1348535Y60842D01*
X1348461Y60769D01*
X1348391Y60692D01*
X1348323Y60614D01*
X1348259Y60532D01*
X1348197Y60449D01*
X1348139Y60363D01*
X1348084Y60274D01*
X1348033Y60184D01*
X1347985Y60092D01*
X1347941Y59998D01*
X1347900Y59903D01*
X1347863Y59806D01*
X1347830Y59707D01*
X1347801Y59608D01*
X1347775Y59507D01*
X1347754Y59406D01*
X1347736Y59304D01*
X1347722Y59201D01*
X1347712Y59097D01*
X1347706Y58994D01*
X1347704Y58890D01*
X1347704Y50762D01*
X1328812Y50762D02*
X1325200Y50762D01*
X1328812Y50762D02*
X1328930Y50764D01*
X1329048Y50770D01*
X1329166Y50779D01*
X1329283Y50793D01*
X1329400Y50810D01*
X1329517Y50831D01*
X1329632Y50856D01*
X1329747Y50885D01*
X1329861Y50918D01*
X1329973Y50954D01*
X1330084Y50994D01*
X1330194Y51037D01*
X1330303Y51084D01*
X1330410Y51134D01*
X1330515Y51189D01*
X1330618Y51246D01*
X1330719Y51307D01*
X1330819Y51371D01*
X1330916Y51438D01*
X1331011Y51508D01*
X1331103Y51582D01*
X1331194Y51658D01*
X1331281Y51738D01*
X1331366Y51820D01*
X1331448Y51905D01*
X1331528Y51992D01*
X1331604Y52083D01*
X1331678Y52175D01*
X1331748Y52270D01*
X1331815Y52367D01*
X1331879Y52467D01*
X1331940Y52568D01*
X1331997Y52671D01*
X1332052Y52776D01*
X1332102Y52883D01*
X1332149Y52992D01*
X1332192Y53102D01*
X1332232Y53213D01*
X1332268Y53325D01*
X1332301Y53439D01*
X1332330Y53554D01*
X1332355Y53669D01*
X1332376Y53786D01*
X1332393Y53903D01*
X1332407Y54020D01*
X1332416Y54138D01*
X1332422Y54256D01*
X1332424Y54374D01*
X1332425Y54374D02*
X1332425Y63406D01*
X1332424Y63406D02*
X1332422Y63524D01*
X1332416Y63642D01*
X1332407Y63760D01*
X1332393Y63877D01*
X1332376Y63994D01*
X1332355Y64111D01*
X1332330Y64226D01*
X1332301Y64341D01*
X1332268Y64455D01*
X1332232Y64567D01*
X1332192Y64678D01*
X1332149Y64788D01*
X1332102Y64897D01*
X1332052Y65004D01*
X1331997Y65109D01*
X1331940Y65212D01*
X1331879Y65313D01*
X1331815Y65413D01*
X1331748Y65510D01*
X1331678Y65605D01*
X1331604Y65697D01*
X1331528Y65788D01*
X1331448Y65875D01*
X1331366Y65960D01*
X1331281Y66042D01*
X1331194Y66122D01*
X1331103Y66198D01*
X1331011Y66272D01*
X1330916Y66342D01*
X1330819Y66409D01*
X1330719Y66473D01*
X1330618Y66534D01*
X1330515Y66591D01*
X1330410Y66646D01*
X1330303Y66696D01*
X1330194Y66743D01*
X1330084Y66786D01*
X1329973Y66826D01*
X1329861Y66862D01*
X1329747Y66895D01*
X1329632Y66924D01*
X1329517Y66949D01*
X1329400Y66970D01*
X1329283Y66987D01*
X1329166Y67001D01*
X1329048Y67010D01*
X1328930Y67016D01*
X1328812Y67018D01*
X1325200Y67018D01*
X1318977Y67018D02*
X1318977Y50762D01*
X1318977Y61599D02*
X1314462Y61599D01*
X1314358Y61597D01*
X1314255Y61591D01*
X1314151Y61581D01*
X1314048Y61567D01*
X1313946Y61549D01*
X1313845Y61528D01*
X1313744Y61502D01*
X1313645Y61473D01*
X1313546Y61440D01*
X1313449Y61403D01*
X1313354Y61362D01*
X1313260Y61318D01*
X1313168Y61270D01*
X1313078Y61219D01*
X1312989Y61164D01*
X1312903Y61106D01*
X1312820Y61044D01*
X1312738Y60980D01*
X1312660Y60912D01*
X1312584Y60842D01*
X1312510Y60769D01*
X1312440Y60692D01*
X1312372Y60614D01*
X1312308Y60532D01*
X1312246Y60449D01*
X1312188Y60363D01*
X1312133Y60274D01*
X1312082Y60184D01*
X1312034Y60092D01*
X1311990Y59998D01*
X1311949Y59903D01*
X1311912Y59806D01*
X1311879Y59707D01*
X1311850Y59608D01*
X1311824Y59507D01*
X1311803Y59406D01*
X1311785Y59304D01*
X1311771Y59201D01*
X1311761Y59097D01*
X1311755Y58994D01*
X1311753Y58890D01*
X1311752Y58890D02*
X1311752Y50762D01*
X1301821Y57084D02*
X1297757Y57084D01*
X1301821Y57084D02*
X1301933Y57082D01*
X1302044Y57076D01*
X1302155Y57066D01*
X1302266Y57053D01*
X1302376Y57035D01*
X1302485Y57013D01*
X1302594Y56988D01*
X1302702Y56959D01*
X1302808Y56926D01*
X1302914Y56889D01*
X1303018Y56849D01*
X1303120Y56805D01*
X1303221Y56757D01*
X1303320Y56706D01*
X1303418Y56651D01*
X1303513Y56593D01*
X1303606Y56532D01*
X1303697Y56467D01*
X1303786Y56399D01*
X1303872Y56328D01*
X1303955Y56255D01*
X1304036Y56178D01*
X1304115Y56098D01*
X1304190Y56016D01*
X1304262Y55931D01*
X1304332Y55844D01*
X1304398Y55754D01*
X1304461Y55662D01*
X1304521Y55567D01*
X1304577Y55471D01*
X1304630Y55373D01*
X1304679Y55273D01*
X1304725Y55171D01*
X1304767Y55068D01*
X1304806Y54963D01*
X1304841Y54857D01*
X1304872Y54750D01*
X1304899Y54642D01*
X1304923Y54533D01*
X1304942Y54423D01*
X1304958Y54313D01*
X1304970Y54202D01*
X1304978Y54090D01*
X1304982Y53979D01*
X1304982Y53867D01*
X1304978Y53756D01*
X1304970Y53644D01*
X1304958Y53533D01*
X1304942Y53423D01*
X1304923Y53313D01*
X1304899Y53204D01*
X1304872Y53096D01*
X1304841Y52989D01*
X1304806Y52883D01*
X1304767Y52778D01*
X1304725Y52675D01*
X1304679Y52573D01*
X1304630Y52473D01*
X1304577Y52375D01*
X1304521Y52279D01*
X1304461Y52184D01*
X1304398Y52092D01*
X1304332Y52002D01*
X1304262Y51915D01*
X1304190Y51830D01*
X1304115Y51748D01*
X1304036Y51668D01*
X1303955Y51591D01*
X1303872Y51518D01*
X1303786Y51447D01*
X1303697Y51379D01*
X1303606Y51314D01*
X1303513Y51253D01*
X1303418Y51195D01*
X1303320Y51140D01*
X1303221Y51089D01*
X1303120Y51041D01*
X1303018Y50997D01*
X1302914Y50957D01*
X1302808Y50920D01*
X1302702Y50887D01*
X1302594Y50858D01*
X1302485Y50833D01*
X1302376Y50811D01*
X1302266Y50793D01*
X1302155Y50780D01*
X1302044Y50770D01*
X1301933Y50764D01*
X1301821Y50762D01*
X1297757Y50762D01*
X1297757Y58890D01*
X1297758Y58890D02*
X1297760Y58991D01*
X1297766Y59092D01*
X1297775Y59193D01*
X1297788Y59294D01*
X1297805Y59394D01*
X1297826Y59493D01*
X1297850Y59591D01*
X1297878Y59688D01*
X1297910Y59785D01*
X1297945Y59880D01*
X1297984Y59973D01*
X1298026Y60065D01*
X1298072Y60156D01*
X1298121Y60245D01*
X1298173Y60331D01*
X1298229Y60416D01*
X1298287Y60499D01*
X1298349Y60579D01*
X1298414Y60657D01*
X1298481Y60733D01*
X1298551Y60806D01*
X1298624Y60876D01*
X1298700Y60943D01*
X1298778Y61008D01*
X1298858Y61070D01*
X1298941Y61128D01*
X1299026Y61184D01*
X1299113Y61236D01*
X1299201Y61285D01*
X1299292Y61331D01*
X1299384Y61373D01*
X1299477Y61412D01*
X1299572Y61447D01*
X1299669Y61479D01*
X1299766Y61507D01*
X1299864Y61531D01*
X1299963Y61552D01*
X1300063Y61569D01*
X1300164Y61582D01*
X1300265Y61591D01*
X1300366Y61597D01*
X1300467Y61599D01*
X1304079Y61599D01*
X1290320Y61599D02*
X1290320Y50762D01*
X1290320Y61599D02*
X1285804Y61599D01*
X1285700Y61597D01*
X1285597Y61591D01*
X1285493Y61581D01*
X1285390Y61567D01*
X1285288Y61549D01*
X1285187Y61528D01*
X1285086Y61502D01*
X1284987Y61473D01*
X1284888Y61440D01*
X1284791Y61403D01*
X1284696Y61362D01*
X1284602Y61318D01*
X1284510Y61270D01*
X1284420Y61219D01*
X1284331Y61164D01*
X1284245Y61106D01*
X1284162Y61044D01*
X1284080Y60980D01*
X1284002Y60912D01*
X1283926Y60842D01*
X1283852Y60769D01*
X1283782Y60692D01*
X1283714Y60614D01*
X1283650Y60532D01*
X1283588Y60449D01*
X1283530Y60363D01*
X1283475Y60274D01*
X1283424Y60184D01*
X1283376Y60092D01*
X1283332Y59998D01*
X1283291Y59903D01*
X1283254Y59806D01*
X1283221Y59707D01*
X1283192Y59608D01*
X1283166Y59507D01*
X1283145Y59406D01*
X1283127Y59304D01*
X1283113Y59201D01*
X1283103Y59097D01*
X1283097Y58994D01*
X1283095Y58890D01*
X1283095Y50762D01*
X1273543Y50762D02*
X1269027Y50762D01*
X1273543Y50762D02*
X1273644Y50764D01*
X1273745Y50770D01*
X1273846Y50779D01*
X1273947Y50792D01*
X1274047Y50809D01*
X1274146Y50830D01*
X1274244Y50854D01*
X1274341Y50882D01*
X1274438Y50914D01*
X1274533Y50949D01*
X1274626Y50988D01*
X1274718Y51030D01*
X1274809Y51076D01*
X1274898Y51125D01*
X1274984Y51177D01*
X1275069Y51233D01*
X1275152Y51291D01*
X1275232Y51353D01*
X1275310Y51418D01*
X1275386Y51485D01*
X1275459Y51555D01*
X1275529Y51628D01*
X1275596Y51704D01*
X1275661Y51782D01*
X1275723Y51862D01*
X1275781Y51945D01*
X1275837Y52030D01*
X1275889Y52116D01*
X1275938Y52205D01*
X1275984Y52296D01*
X1276026Y52388D01*
X1276065Y52481D01*
X1276100Y52576D01*
X1276132Y52673D01*
X1276160Y52770D01*
X1276184Y52868D01*
X1276205Y52967D01*
X1276222Y53067D01*
X1276235Y53168D01*
X1276244Y53269D01*
X1276250Y53370D01*
X1276252Y53471D01*
X1276252Y57987D01*
X1276251Y57987D02*
X1276249Y58106D01*
X1276243Y58226D01*
X1276233Y58345D01*
X1276219Y58463D01*
X1276202Y58582D01*
X1276180Y58699D01*
X1276155Y58816D01*
X1276125Y58931D01*
X1276092Y59046D01*
X1276055Y59160D01*
X1276015Y59272D01*
X1275970Y59383D01*
X1275922Y59492D01*
X1275871Y59600D01*
X1275816Y59706D01*
X1275757Y59810D01*
X1275695Y59912D01*
X1275630Y60012D01*
X1275561Y60110D01*
X1275489Y60206D01*
X1275414Y60299D01*
X1275337Y60389D01*
X1275256Y60477D01*
X1275172Y60562D01*
X1275085Y60644D01*
X1274996Y60724D01*
X1274904Y60800D01*
X1274810Y60874D01*
X1274713Y60944D01*
X1274615Y61011D01*
X1274514Y61075D01*
X1274410Y61135D01*
X1274305Y61192D01*
X1274198Y61245D01*
X1274090Y61295D01*
X1273980Y61341D01*
X1273868Y61383D01*
X1273755Y61422D01*
X1273641Y61457D01*
X1273526Y61488D01*
X1273409Y61516D01*
X1273292Y61539D01*
X1273175Y61559D01*
X1273056Y61575D01*
X1272937Y61587D01*
X1272818Y61595D01*
X1272699Y61599D01*
X1272579Y61599D01*
X1272460Y61595D01*
X1272341Y61587D01*
X1272222Y61575D01*
X1272103Y61559D01*
X1271986Y61539D01*
X1271869Y61516D01*
X1271752Y61488D01*
X1271637Y61457D01*
X1271523Y61422D01*
X1271410Y61383D01*
X1271298Y61341D01*
X1271188Y61295D01*
X1271080Y61245D01*
X1270973Y61192D01*
X1270868Y61135D01*
X1270764Y61075D01*
X1270663Y61011D01*
X1270565Y60944D01*
X1270468Y60874D01*
X1270374Y60800D01*
X1270282Y60724D01*
X1270193Y60644D01*
X1270106Y60562D01*
X1270022Y60477D01*
X1269941Y60389D01*
X1269864Y60299D01*
X1269789Y60206D01*
X1269717Y60110D01*
X1269648Y60012D01*
X1269583Y59912D01*
X1269521Y59810D01*
X1269462Y59706D01*
X1269407Y59600D01*
X1269356Y59492D01*
X1269308Y59383D01*
X1269263Y59272D01*
X1269223Y59160D01*
X1269186Y59046D01*
X1269153Y58931D01*
X1269123Y58816D01*
X1269098Y58699D01*
X1269076Y58582D01*
X1269059Y58463D01*
X1269045Y58345D01*
X1269035Y58226D01*
X1269029Y58106D01*
X1269027Y57987D01*
X1269027Y56181D01*
X1276252Y56181D01*
X1263226Y45343D02*
X1261420Y45343D01*
X1256001Y61599D01*
X1263226Y61599D02*
X1259613Y50762D01*
X1241584Y58890D02*
X1241580Y59262D01*
X1241566Y59634D01*
X1241544Y60005D01*
X1241512Y60376D01*
X1241472Y60746D01*
X1241423Y61114D01*
X1241365Y61482D01*
X1241299Y61848D01*
X1241223Y62212D01*
X1241139Y62574D01*
X1241046Y62934D01*
X1240944Y63292D01*
X1240834Y63648D01*
X1240715Y64000D01*
X1240588Y64350D01*
X1240453Y64696D01*
X1240309Y65039D01*
X1240157Y65379D01*
X1239997Y65715D01*
X1239829Y66046D01*
X1239653Y66374D01*
X1239469Y66698D01*
X1239277Y67016D01*
X1239078Y67330D01*
X1238871Y67640D01*
X1238657Y67944D01*
X1238436Y68243D01*
X1238207Y68536D01*
X1237971Y68824D01*
X1241584Y58890D02*
X1241580Y58518D01*
X1241566Y58146D01*
X1241544Y57775D01*
X1241512Y57404D01*
X1241472Y57034D01*
X1241423Y56666D01*
X1241365Y56298D01*
X1241299Y55932D01*
X1241223Y55568D01*
X1241139Y55206D01*
X1241046Y54846D01*
X1240944Y54488D01*
X1240834Y54132D01*
X1240715Y53780D01*
X1240588Y53430D01*
X1240453Y53084D01*
X1240309Y52741D01*
X1240157Y52401D01*
X1239997Y52065D01*
X1239829Y51734D01*
X1239653Y51406D01*
X1239469Y51083D01*
X1239277Y50764D01*
X1239078Y50450D01*
X1238871Y50140D01*
X1238657Y49836D01*
X1238436Y49537D01*
X1238207Y49244D01*
X1237972Y48956D01*
X1229237Y50762D02*
X1225624Y50762D01*
X1229237Y50762D02*
X1229338Y50764D01*
X1229439Y50770D01*
X1229540Y50779D01*
X1229641Y50792D01*
X1229741Y50809D01*
X1229840Y50830D01*
X1229938Y50854D01*
X1230035Y50882D01*
X1230132Y50914D01*
X1230227Y50949D01*
X1230320Y50988D01*
X1230412Y51030D01*
X1230503Y51076D01*
X1230592Y51125D01*
X1230678Y51177D01*
X1230763Y51233D01*
X1230846Y51291D01*
X1230926Y51353D01*
X1231004Y51418D01*
X1231080Y51485D01*
X1231153Y51555D01*
X1231223Y51628D01*
X1231290Y51704D01*
X1231355Y51782D01*
X1231417Y51862D01*
X1231475Y51945D01*
X1231531Y52030D01*
X1231583Y52116D01*
X1231632Y52205D01*
X1231678Y52296D01*
X1231720Y52388D01*
X1231759Y52481D01*
X1231794Y52576D01*
X1231826Y52673D01*
X1231854Y52770D01*
X1231878Y52868D01*
X1231899Y52967D01*
X1231916Y53067D01*
X1231929Y53168D01*
X1231938Y53269D01*
X1231944Y53370D01*
X1231946Y53471D01*
X1231946Y58890D01*
X1231944Y58991D01*
X1231938Y59092D01*
X1231929Y59193D01*
X1231916Y59294D01*
X1231899Y59394D01*
X1231878Y59493D01*
X1231854Y59591D01*
X1231826Y59688D01*
X1231794Y59785D01*
X1231759Y59880D01*
X1231720Y59973D01*
X1231678Y60065D01*
X1231632Y60156D01*
X1231583Y60245D01*
X1231531Y60331D01*
X1231475Y60416D01*
X1231417Y60499D01*
X1231355Y60579D01*
X1231290Y60657D01*
X1231223Y60733D01*
X1231153Y60806D01*
X1231080Y60876D01*
X1231004Y60943D01*
X1230926Y61008D01*
X1230846Y61070D01*
X1230763Y61128D01*
X1230678Y61184D01*
X1230592Y61236D01*
X1230503Y61285D01*
X1230412Y61331D01*
X1230320Y61373D01*
X1230227Y61412D01*
X1230132Y61447D01*
X1230035Y61479D01*
X1229938Y61507D01*
X1229840Y61531D01*
X1229741Y61552D01*
X1229641Y61569D01*
X1229540Y61582D01*
X1229439Y61591D01*
X1229338Y61597D01*
X1229237Y61599D01*
X1225624Y61599D01*
X1216681Y58890D02*
X1216685Y58518D01*
X1216699Y58146D01*
X1216721Y57775D01*
X1216753Y57404D01*
X1216793Y57034D01*
X1216842Y56666D01*
X1216900Y56298D01*
X1216966Y55932D01*
X1217042Y55568D01*
X1217126Y55206D01*
X1217219Y54846D01*
X1217321Y54488D01*
X1217431Y54132D01*
X1217550Y53780D01*
X1217677Y53430D01*
X1217812Y53084D01*
X1217956Y52741D01*
X1218108Y52401D01*
X1218268Y52065D01*
X1218436Y51734D01*
X1218612Y51406D01*
X1218796Y51083D01*
X1218988Y50764D01*
X1219187Y50450D01*
X1219394Y50140D01*
X1219608Y49836D01*
X1219829Y49537D01*
X1220058Y49244D01*
X1220293Y48956D01*
X1216681Y58890D02*
X1216685Y59262D01*
X1216699Y59634D01*
X1216721Y60005D01*
X1216753Y60376D01*
X1216793Y60746D01*
X1216842Y61114D01*
X1216900Y61482D01*
X1216966Y61848D01*
X1217042Y62212D01*
X1217126Y62574D01*
X1217219Y62934D01*
X1217321Y63292D01*
X1217431Y63648D01*
X1217550Y64000D01*
X1217677Y64350D01*
X1217812Y64696D01*
X1217956Y65039D01*
X1218108Y65379D01*
X1218268Y65715D01*
X1218436Y66046D01*
X1218612Y66374D01*
X1218796Y66698D01*
X1218988Y67016D01*
X1219187Y67330D01*
X1219394Y67640D01*
X1219608Y67944D01*
X1219829Y68243D01*
X1220058Y68536D01*
X1220294Y68824D01*
X1196637Y67018D02*
X1196512Y67016D01*
X1196387Y67010D01*
X1196262Y67001D01*
X1196138Y66987D01*
X1196014Y66970D01*
X1195890Y66949D01*
X1195768Y66924D01*
X1195646Y66895D01*
X1195525Y66863D01*
X1195405Y66827D01*
X1195286Y66787D01*
X1195169Y66744D01*
X1195053Y66697D01*
X1194938Y66646D01*
X1194826Y66592D01*
X1194714Y66534D01*
X1194605Y66474D01*
X1194498Y66409D01*
X1194392Y66342D01*
X1194289Y66271D01*
X1194188Y66197D01*
X1194089Y66120D01*
X1193993Y66040D01*
X1193899Y65957D01*
X1193808Y65872D01*
X1193719Y65783D01*
X1193634Y65692D01*
X1193551Y65598D01*
X1193471Y65502D01*
X1193394Y65403D01*
X1193320Y65302D01*
X1193249Y65199D01*
X1193182Y65093D01*
X1193117Y64986D01*
X1193057Y64877D01*
X1192999Y64765D01*
X1192945Y64653D01*
X1192894Y64538D01*
X1192847Y64422D01*
X1192804Y64305D01*
X1192764Y64186D01*
X1192728Y64066D01*
X1192696Y63945D01*
X1192667Y63823D01*
X1192642Y63701D01*
X1192621Y63577D01*
X1192604Y63453D01*
X1192590Y63329D01*
X1192581Y63204D01*
X1192575Y63079D01*
X1192573Y62954D01*
X1196637Y67018D02*
X1196780Y67016D01*
X1196922Y67010D01*
X1197065Y67000D01*
X1197207Y66987D01*
X1197348Y66969D01*
X1197490Y66948D01*
X1197630Y66923D01*
X1197770Y66894D01*
X1197909Y66861D01*
X1198047Y66824D01*
X1198184Y66784D01*
X1198319Y66740D01*
X1198454Y66692D01*
X1198587Y66640D01*
X1198719Y66585D01*
X1198849Y66526D01*
X1198977Y66464D01*
X1199104Y66398D01*
X1199229Y66329D01*
X1199352Y66257D01*
X1199473Y66181D01*
X1199591Y66102D01*
X1199708Y66019D01*
X1199822Y65934D01*
X1199934Y65845D01*
X1200043Y65754D01*
X1200150Y65659D01*
X1200255Y65562D01*
X1200356Y65461D01*
X1200455Y65358D01*
X1200551Y65253D01*
X1200644Y65144D01*
X1200734Y65033D01*
X1200821Y64920D01*
X1200905Y64805D01*
X1200985Y64687D01*
X1201063Y64567D01*
X1201137Y64445D01*
X1201207Y64321D01*
X1201275Y64195D01*
X1201338Y64067D01*
X1201399Y63938D01*
X1201456Y63807D01*
X1201509Y63675D01*
X1201558Y63541D01*
X1201604Y63406D01*
X1193928Y59793D02*
X1193834Y59885D01*
X1193744Y59979D01*
X1193656Y60076D01*
X1193571Y60176D01*
X1193489Y60278D01*
X1193410Y60383D01*
X1193335Y60490D01*
X1193263Y60599D01*
X1193194Y60710D01*
X1193128Y60824D01*
X1193066Y60939D01*
X1193007Y61056D01*
X1192952Y61175D01*
X1192901Y61295D01*
X1192853Y61417D01*
X1192808Y61540D01*
X1192768Y61664D01*
X1192731Y61790D01*
X1192698Y61917D01*
X1192669Y62044D01*
X1192643Y62173D01*
X1192622Y62302D01*
X1192604Y62432D01*
X1192591Y62562D01*
X1192581Y62692D01*
X1192575Y62823D01*
X1192573Y62954D01*
X1193928Y59793D02*
X1201604Y50762D01*
X1192573Y50762D01*
X1185973Y58890D02*
X1185969Y59210D01*
X1185958Y59529D01*
X1185939Y59849D01*
X1185912Y60167D01*
X1185878Y60485D01*
X1185836Y60802D01*
X1185786Y61118D01*
X1185729Y61433D01*
X1185665Y61746D01*
X1185593Y62058D01*
X1185514Y62368D01*
X1185427Y62675D01*
X1185333Y62981D01*
X1185232Y63284D01*
X1185123Y63585D01*
X1185008Y63883D01*
X1184885Y64179D01*
X1184755Y64471D01*
X1184618Y64760D01*
X1184618Y64761D02*
X1184579Y64869D01*
X1184536Y64976D01*
X1184490Y65081D01*
X1184439Y65185D01*
X1184386Y65287D01*
X1184329Y65387D01*
X1184268Y65485D01*
X1184204Y65580D01*
X1184137Y65674D01*
X1184066Y65765D01*
X1183993Y65854D01*
X1183916Y65940D01*
X1183837Y66023D01*
X1183755Y66104D01*
X1183670Y66182D01*
X1183582Y66256D01*
X1183492Y66328D01*
X1183400Y66396D01*
X1183305Y66462D01*
X1183208Y66524D01*
X1183109Y66582D01*
X1183007Y66638D01*
X1182905Y66689D01*
X1182800Y66737D01*
X1182694Y66782D01*
X1182586Y66823D01*
X1182477Y66860D01*
X1182367Y66893D01*
X1182255Y66922D01*
X1182143Y66948D01*
X1182030Y66970D01*
X1181916Y66987D01*
X1181802Y67001D01*
X1181687Y67011D01*
X1181572Y67017D01*
X1181457Y67019D01*
X1181457Y67018D02*
X1181342Y67016D01*
X1181227Y67010D01*
X1181112Y67000D01*
X1180998Y66986D01*
X1180884Y66969D01*
X1180771Y66947D01*
X1180659Y66921D01*
X1180547Y66892D01*
X1180437Y66859D01*
X1180328Y66822D01*
X1180220Y66781D01*
X1180114Y66736D01*
X1180010Y66688D01*
X1179907Y66637D01*
X1179806Y66581D01*
X1179706Y66523D01*
X1179609Y66461D01*
X1179515Y66396D01*
X1179422Y66327D01*
X1179332Y66255D01*
X1179244Y66181D01*
X1179159Y66103D01*
X1179077Y66022D01*
X1178998Y65939D01*
X1178921Y65853D01*
X1178848Y65764D01*
X1178777Y65673D01*
X1178710Y65579D01*
X1178646Y65484D01*
X1178585Y65386D01*
X1178528Y65286D01*
X1178475Y65184D01*
X1178424Y65080D01*
X1178378Y64975D01*
X1178335Y64868D01*
X1178296Y64760D01*
X1178297Y64760D02*
X1178160Y64471D01*
X1178030Y64179D01*
X1177907Y63883D01*
X1177792Y63585D01*
X1177683Y63284D01*
X1177582Y62981D01*
X1177488Y62675D01*
X1177401Y62368D01*
X1177322Y62058D01*
X1177250Y61746D01*
X1177186Y61433D01*
X1177129Y61118D01*
X1177079Y60802D01*
X1177037Y60485D01*
X1177003Y60167D01*
X1176976Y59849D01*
X1176957Y59529D01*
X1176946Y59210D01*
X1176942Y58890D01*
X1185973Y58890D02*
X1185969Y58570D01*
X1185958Y58251D01*
X1185939Y57931D01*
X1185912Y57613D01*
X1185878Y57295D01*
X1185836Y56978D01*
X1185786Y56662D01*
X1185729Y56347D01*
X1185665Y56034D01*
X1185593Y55722D01*
X1185514Y55412D01*
X1185427Y55105D01*
X1185333Y54799D01*
X1185232Y54496D01*
X1185123Y54195D01*
X1185008Y53897D01*
X1184885Y53601D01*
X1184755Y53309D01*
X1184618Y53020D01*
X1184579Y52912D01*
X1184536Y52805D01*
X1184490Y52700D01*
X1184439Y52596D01*
X1184386Y52494D01*
X1184329Y52394D01*
X1184268Y52296D01*
X1184204Y52201D01*
X1184137Y52107D01*
X1184066Y52016D01*
X1183993Y51927D01*
X1183916Y51841D01*
X1183837Y51758D01*
X1183755Y51677D01*
X1183670Y51599D01*
X1183582Y51525D01*
X1183492Y51453D01*
X1183399Y51384D01*
X1183305Y51319D01*
X1183208Y51257D01*
X1183108Y51199D01*
X1183007Y51143D01*
X1182905Y51092D01*
X1182800Y51044D01*
X1182694Y50999D01*
X1182586Y50958D01*
X1182477Y50921D01*
X1182367Y50888D01*
X1182255Y50859D01*
X1182143Y50833D01*
X1182030Y50811D01*
X1181916Y50794D01*
X1181802Y50780D01*
X1181687Y50770D01*
X1181572Y50764D01*
X1181457Y50762D01*
X1178297Y53020D02*
X1178160Y53309D01*
X1178030Y53601D01*
X1177907Y53897D01*
X1177792Y54195D01*
X1177683Y54496D01*
X1177582Y54799D01*
X1177488Y55105D01*
X1177401Y55412D01*
X1177322Y55722D01*
X1177250Y56034D01*
X1177186Y56347D01*
X1177129Y56662D01*
X1177079Y56978D01*
X1177037Y57295D01*
X1177003Y57613D01*
X1176976Y57931D01*
X1176957Y58251D01*
X1176946Y58570D01*
X1176942Y58890D01*
X1178296Y53020D02*
X1178335Y52912D01*
X1178378Y52805D01*
X1178424Y52700D01*
X1178475Y52596D01*
X1178528Y52494D01*
X1178586Y52394D01*
X1178646Y52296D01*
X1178710Y52201D01*
X1178777Y52107D01*
X1178848Y52016D01*
X1178921Y51927D01*
X1178998Y51841D01*
X1179077Y51758D01*
X1179159Y51677D01*
X1179244Y51599D01*
X1179332Y51525D01*
X1179422Y51453D01*
X1179515Y51384D01*
X1179609Y51319D01*
X1179706Y51257D01*
X1179806Y51199D01*
X1179907Y51143D01*
X1180010Y51092D01*
X1180114Y51044D01*
X1180220Y50999D01*
X1180328Y50958D01*
X1180437Y50921D01*
X1180547Y50888D01*
X1180659Y50859D01*
X1180771Y50833D01*
X1180884Y50811D01*
X1180998Y50794D01*
X1181112Y50780D01*
X1181227Y50770D01*
X1181342Y50764D01*
X1181457Y50762D01*
X1185070Y54374D02*
X1177845Y63406D01*
X1165375Y67018D02*
X1165250Y67016D01*
X1165125Y67010D01*
X1165000Y67001D01*
X1164876Y66987D01*
X1164752Y66970D01*
X1164628Y66949D01*
X1164506Y66924D01*
X1164384Y66895D01*
X1164263Y66863D01*
X1164143Y66827D01*
X1164024Y66787D01*
X1163907Y66744D01*
X1163791Y66697D01*
X1163676Y66646D01*
X1163564Y66592D01*
X1163452Y66534D01*
X1163343Y66474D01*
X1163236Y66409D01*
X1163130Y66342D01*
X1163027Y66271D01*
X1162926Y66197D01*
X1162827Y66120D01*
X1162731Y66040D01*
X1162637Y65957D01*
X1162546Y65872D01*
X1162457Y65783D01*
X1162372Y65692D01*
X1162289Y65598D01*
X1162209Y65502D01*
X1162132Y65403D01*
X1162058Y65302D01*
X1161987Y65199D01*
X1161920Y65093D01*
X1161855Y64986D01*
X1161795Y64877D01*
X1161737Y64765D01*
X1161683Y64653D01*
X1161632Y64538D01*
X1161585Y64422D01*
X1161542Y64305D01*
X1161502Y64186D01*
X1161466Y64066D01*
X1161434Y63945D01*
X1161405Y63823D01*
X1161380Y63701D01*
X1161359Y63577D01*
X1161342Y63453D01*
X1161328Y63329D01*
X1161319Y63204D01*
X1161313Y63079D01*
X1161311Y62954D01*
X1165375Y67018D02*
X1165518Y67016D01*
X1165660Y67010D01*
X1165803Y67000D01*
X1165945Y66987D01*
X1166086Y66969D01*
X1166228Y66948D01*
X1166368Y66923D01*
X1166508Y66894D01*
X1166647Y66861D01*
X1166785Y66824D01*
X1166922Y66784D01*
X1167057Y66740D01*
X1167192Y66692D01*
X1167325Y66640D01*
X1167457Y66585D01*
X1167587Y66526D01*
X1167715Y66464D01*
X1167842Y66398D01*
X1167967Y66329D01*
X1168090Y66257D01*
X1168211Y66181D01*
X1168329Y66102D01*
X1168446Y66019D01*
X1168560Y65934D01*
X1168672Y65845D01*
X1168781Y65754D01*
X1168888Y65659D01*
X1168993Y65562D01*
X1169094Y65461D01*
X1169193Y65358D01*
X1169289Y65253D01*
X1169382Y65144D01*
X1169472Y65033D01*
X1169559Y64920D01*
X1169643Y64805D01*
X1169723Y64687D01*
X1169801Y64567D01*
X1169875Y64445D01*
X1169945Y64321D01*
X1170013Y64195D01*
X1170076Y64067D01*
X1170137Y63938D01*
X1170194Y63807D01*
X1170247Y63675D01*
X1170296Y63541D01*
X1170342Y63406D01*
X1162666Y59793D02*
X1162572Y59885D01*
X1162482Y59979D01*
X1162394Y60076D01*
X1162309Y60176D01*
X1162227Y60278D01*
X1162148Y60383D01*
X1162073Y60490D01*
X1162001Y60599D01*
X1161932Y60710D01*
X1161866Y60824D01*
X1161804Y60939D01*
X1161745Y61056D01*
X1161690Y61175D01*
X1161639Y61295D01*
X1161591Y61417D01*
X1161546Y61540D01*
X1161506Y61664D01*
X1161469Y61790D01*
X1161436Y61917D01*
X1161407Y62044D01*
X1161381Y62173D01*
X1161360Y62302D01*
X1161342Y62432D01*
X1161329Y62562D01*
X1161319Y62692D01*
X1161313Y62823D01*
X1161311Y62954D01*
X1162665Y59793D02*
X1170342Y50762D01*
X1161311Y50762D01*
X1154710Y50762D02*
X1149292Y50762D01*
X1149174Y50764D01*
X1149056Y50770D01*
X1148938Y50779D01*
X1148821Y50793D01*
X1148704Y50810D01*
X1148587Y50831D01*
X1148472Y50856D01*
X1148357Y50885D01*
X1148243Y50918D01*
X1148131Y50954D01*
X1148020Y50994D01*
X1147910Y51037D01*
X1147801Y51084D01*
X1147694Y51134D01*
X1147589Y51189D01*
X1147486Y51246D01*
X1147385Y51307D01*
X1147285Y51371D01*
X1147188Y51438D01*
X1147093Y51508D01*
X1147001Y51582D01*
X1146910Y51658D01*
X1146823Y51738D01*
X1146738Y51820D01*
X1146656Y51905D01*
X1146576Y51992D01*
X1146500Y52083D01*
X1146426Y52175D01*
X1146356Y52270D01*
X1146289Y52367D01*
X1146225Y52467D01*
X1146164Y52568D01*
X1146107Y52671D01*
X1146052Y52776D01*
X1146002Y52883D01*
X1145955Y52992D01*
X1145912Y53102D01*
X1145872Y53213D01*
X1145836Y53325D01*
X1145803Y53439D01*
X1145774Y53554D01*
X1145749Y53669D01*
X1145728Y53786D01*
X1145711Y53903D01*
X1145697Y54020D01*
X1145688Y54138D01*
X1145682Y54256D01*
X1145680Y54374D01*
X1145679Y54374D02*
X1145679Y56181D01*
X1145680Y56181D02*
X1145682Y56299D01*
X1145688Y56417D01*
X1145697Y56535D01*
X1145711Y56652D01*
X1145728Y56769D01*
X1145749Y56886D01*
X1145774Y57001D01*
X1145803Y57116D01*
X1145836Y57230D01*
X1145872Y57342D01*
X1145912Y57453D01*
X1145955Y57563D01*
X1146002Y57672D01*
X1146052Y57779D01*
X1146107Y57884D01*
X1146164Y57987D01*
X1146225Y58088D01*
X1146289Y58188D01*
X1146356Y58285D01*
X1146426Y58380D01*
X1146500Y58472D01*
X1146576Y58563D01*
X1146656Y58650D01*
X1146738Y58735D01*
X1146823Y58817D01*
X1146910Y58897D01*
X1147001Y58973D01*
X1147093Y59047D01*
X1147188Y59117D01*
X1147285Y59184D01*
X1147385Y59248D01*
X1147486Y59309D01*
X1147589Y59366D01*
X1147694Y59421D01*
X1147801Y59471D01*
X1147910Y59518D01*
X1148020Y59561D01*
X1148131Y59601D01*
X1148243Y59637D01*
X1148357Y59670D01*
X1148472Y59699D01*
X1148587Y59724D01*
X1148704Y59745D01*
X1148821Y59762D01*
X1148938Y59776D01*
X1149056Y59785D01*
X1149174Y59791D01*
X1149292Y59793D01*
X1154710Y59793D01*
X1154710Y67018D01*
X1145679Y67018D01*
M02*
