G04 EAGLE Gerber RS-274X export*
G75*
%MOMM*%
%FSLAX34Y34*%
%LPD*%
%INBottom Copper*%
%IPPOS*%
%AMOC8*
5,1,8,0,0,1.08239X$1,22.5*%
G01*
G04 Define Apertures*
%ADD10C,1.905000*%
%ADD11P,2.06195X8X202.5*%
%ADD12C,1.508000*%
%ADD13R,1.508000X1.508000*%
%ADD14C,1.879600*%
%ADD15R,2.032000X2.032000*%
%ADD16C,2.032000*%
%ADD17C,1.524000*%
%ADD18C,3.302000*%
%ADD19R,0.635000X1.270000*%
%ADD20R,0.660400X1.270000*%
%ADD21P,2.06195X8X112.5*%
%ADD22C,1.270000*%
%ADD23C,0.756400*%
%ADD24C,0.304800*%
%ADD25C,0.152400*%
G36*
X271610Y10281D02*
X271015Y10160D01*
X-309115Y10160D01*
X-309813Y10329D01*
X-310287Y10709D01*
X-310574Y11243D01*
X-310631Y11847D01*
X-310447Y12425D01*
X-310053Y12886D01*
X-309510Y13156D01*
X-307402Y13721D01*
X-301436Y17165D01*
X-296565Y22036D01*
X-293121Y28002D01*
X-291338Y34656D01*
X-291338Y41544D01*
X-293121Y48198D01*
X-296565Y54164D01*
X-301436Y59035D01*
X-307402Y62479D01*
X-314056Y64262D01*
X-320944Y64262D01*
X-327598Y62479D01*
X-333564Y59035D01*
X-338435Y54164D01*
X-341879Y48198D01*
X-342444Y46090D01*
X-342788Y45460D01*
X-343277Y45101D01*
X-343867Y44961D01*
X-344465Y45063D01*
X-344976Y45390D01*
X-345319Y45890D01*
X-345440Y46485D01*
X-345440Y1007615D01*
X-345271Y1008313D01*
X-344891Y1008787D01*
X-344357Y1009074D01*
X-343753Y1009131D01*
X-343175Y1008947D01*
X-342714Y1008553D01*
X-342444Y1008010D01*
X-341879Y1005902D01*
X-338435Y999936D01*
X-333564Y995065D01*
X-327598Y991621D01*
X-320944Y989838D01*
X-314056Y989838D01*
X-307402Y991621D01*
X-301436Y995065D01*
X-296565Y999936D01*
X-293121Y1005902D01*
X-291338Y1012556D01*
X-291338Y1019444D01*
X-293121Y1026098D01*
X-296565Y1032064D01*
X-301436Y1036935D01*
X-302928Y1037796D01*
X-303191Y1037988D01*
X-303550Y1038477D01*
X-303689Y1039067D01*
X-303588Y1039665D01*
X-303261Y1040176D01*
X-302761Y1040519D01*
X-302166Y1040640D01*
X264066Y1040640D01*
X264390Y1040605D01*
X264945Y1040361D01*
X265361Y1039920D01*
X265572Y1039351D01*
X265544Y1038745D01*
X265283Y1038198D01*
X264828Y1037796D01*
X263336Y1036935D01*
X258465Y1032064D01*
X255021Y1026098D01*
X253238Y1019444D01*
X253238Y1012556D01*
X255021Y1005902D01*
X258465Y999936D01*
X263336Y995065D01*
X269302Y991621D01*
X275956Y989838D01*
X282844Y989838D01*
X289498Y991621D01*
X295464Y995065D01*
X300335Y999936D01*
X303779Y1005902D01*
X304144Y1007263D01*
X304488Y1007894D01*
X304977Y1008253D01*
X305567Y1008392D01*
X306165Y1008290D01*
X306676Y1007964D01*
X307019Y1007463D01*
X307140Y1006869D01*
X307140Y47231D01*
X306971Y46533D01*
X306591Y46060D01*
X306057Y45772D01*
X305453Y45716D01*
X304875Y45899D01*
X304414Y46294D01*
X304144Y46837D01*
X303779Y48198D01*
X300335Y54164D01*
X295464Y59035D01*
X289498Y62479D01*
X282844Y64262D01*
X275956Y64262D01*
X269302Y62479D01*
X263336Y59035D01*
X258465Y54164D01*
X255021Y48198D01*
X253238Y41544D01*
X253238Y34656D01*
X255021Y28002D01*
X258465Y22036D01*
X263336Y17165D01*
X269302Y13721D01*
X271410Y13156D01*
X272040Y12812D01*
X272399Y12323D01*
X272539Y11733D01*
X272437Y11135D01*
X272110Y10624D01*
X271610Y10281D01*
G37*
%LPC*%
G36*
X-52070Y996482D02*
X-40132Y996482D01*
X-40132Y1008420D01*
X-50582Y1008420D01*
X-52070Y1006932D01*
X-52070Y996482D01*
G37*
G36*
X-38608Y996482D02*
X-26670Y996482D01*
X-26670Y1006932D01*
X-28158Y1008420D01*
X-38608Y1008420D01*
X-38608Y996482D01*
G37*
G36*
X-91694Y984036D02*
X-87046Y984036D01*
X-82752Y985815D01*
X-79465Y989102D01*
X-77686Y993396D01*
X-77686Y998044D01*
X-79465Y1002338D01*
X-82752Y1005625D01*
X-87046Y1007404D01*
X-91694Y1007404D01*
X-95988Y1005625D01*
X-99275Y1002338D01*
X-101054Y998044D01*
X-101054Y993396D01*
X-99275Y989102D01*
X-95988Y985815D01*
X-91694Y984036D01*
G37*
G36*
X-38608Y983020D02*
X-28158Y983020D01*
X-26670Y984508D01*
X-26670Y994958D01*
X-38608Y994958D01*
X-38608Y983020D01*
G37*
G36*
X-50582Y983020D02*
X-40132Y983020D01*
X-40132Y994958D01*
X-52070Y994958D01*
X-52070Y984508D01*
X-50582Y983020D01*
G37*
G36*
X255070Y921512D02*
X266373Y921512D01*
X266373Y932815D01*
X262138Y932815D01*
X255070Y925747D01*
X255070Y921512D01*
G37*
G36*
X267897Y921512D02*
X279200Y921512D01*
X279200Y925747D01*
X272132Y932815D01*
X267897Y932815D01*
X267897Y921512D01*
G37*
G36*
X267897Y908685D02*
X272132Y908685D01*
X279200Y915753D01*
X279200Y919988D01*
X267897Y919988D01*
X267897Y908685D01*
G37*
G36*
X262138Y908685D02*
X266373Y908685D01*
X266373Y919988D01*
X255070Y919988D01*
X255070Y915753D01*
X262138Y908685D01*
G37*
G36*
X264937Y858901D02*
X269333Y858901D01*
X273394Y860583D01*
X276502Y863691D01*
X278184Y867752D01*
X278184Y872148D01*
X276502Y876209D01*
X273394Y879317D01*
X269333Y880999D01*
X264937Y880999D01*
X260876Y879317D01*
X257768Y876209D01*
X256086Y872148D01*
X256086Y867752D01*
X257768Y863691D01*
X260876Y860583D01*
X264937Y858901D01*
G37*
G36*
X-78373Y433578D02*
X-74028Y433578D01*
X-70013Y435241D01*
X-66941Y438313D01*
X-65715Y441273D01*
X-65401Y441750D01*
X-64901Y442093D01*
X-64307Y442214D01*
X-61087Y442214D01*
X-60538Y442112D01*
X-60027Y441785D01*
X-59684Y441284D01*
X-59563Y440690D01*
X-59563Y437519D01*
X-58670Y436626D01*
X-42930Y436626D01*
X-42037Y437519D01*
X-42037Y445462D01*
X-41926Y446034D01*
X-41591Y446539D01*
X-37992Y450139D01*
X-37519Y450460D01*
X-36926Y450585D01*
X-36801Y450561D01*
X-34441Y450561D01*
X-32491Y451368D01*
X-30998Y452861D01*
X-30191Y454811D01*
X-30191Y457143D01*
X-30215Y457260D01*
X-30104Y457856D01*
X-29769Y458362D01*
X-23114Y465016D01*
X-23114Y483547D01*
X-39686Y500119D01*
X-40011Y500602D01*
X-40132Y501196D01*
X-40132Y711899D01*
X-74215Y745982D01*
X-74536Y746454D01*
X-74661Y747048D01*
X-74545Y747643D01*
X-74296Y748245D01*
X-74296Y750355D01*
X-75104Y752306D01*
X-76596Y753798D01*
X-78547Y754606D01*
X-80657Y754606D01*
X-82608Y753798D01*
X-84100Y752306D01*
X-84908Y750355D01*
X-84908Y748245D01*
X-84100Y746294D01*
X-82608Y744802D01*
X-80657Y743994D01*
X-79324Y743994D01*
X-78752Y743883D01*
X-78246Y743548D01*
X-45150Y710452D01*
X-44825Y709969D01*
X-44704Y709374D01*
X-44704Y498671D01*
X-44161Y498128D01*
X-43855Y497689D01*
X-43715Y497099D01*
X-43817Y496501D01*
X-44144Y495990D01*
X-44644Y495647D01*
X-45238Y495526D01*
X-46996Y495526D01*
X-47113Y495502D01*
X-47709Y495613D01*
X-48215Y495948D01*
X-49084Y496817D01*
X-49409Y497300D01*
X-49530Y497894D01*
X-49530Y691587D01*
X-106488Y748544D01*
X-106813Y749027D01*
X-106934Y749622D01*
X-106934Y778202D01*
X-106823Y778774D01*
X-106488Y779279D01*
X-77724Y808043D01*
X-77724Y826035D01*
X-77617Y826596D01*
X-77286Y827105D01*
X-77180Y827176D01*
X-75512Y828844D01*
X-74704Y830795D01*
X-74704Y832905D01*
X-75512Y834856D01*
X-77004Y836348D01*
X-78955Y837156D01*
X-81065Y837156D01*
X-83016Y836348D01*
X-84508Y834856D01*
X-85316Y832905D01*
X-85316Y830795D01*
X-84508Y828844D01*
X-82859Y827196D01*
X-82760Y827130D01*
X-82417Y826630D01*
X-82296Y826035D01*
X-82296Y810568D01*
X-82407Y809996D01*
X-82742Y809491D01*
X-111506Y780727D01*
X-111506Y747097D01*
X-54548Y690139D01*
X-54223Y689656D01*
X-54102Y689062D01*
X-54102Y495369D01*
X-51448Y492715D01*
X-51127Y492243D01*
X-51002Y491649D01*
X-51026Y491524D01*
X-51026Y489165D01*
X-50218Y487214D01*
X-48569Y485566D01*
X-48470Y485500D01*
X-48127Y485000D01*
X-48006Y484405D01*
X-48006Y479298D01*
X-48108Y478749D01*
X-48435Y478238D01*
X-48936Y477895D01*
X-49530Y477774D01*
X-58670Y477774D01*
X-59563Y476881D01*
X-59563Y473710D01*
X-59665Y473161D01*
X-59992Y472650D01*
X-60493Y472307D01*
X-61087Y472186D01*
X-64307Y472186D01*
X-64867Y472293D01*
X-65376Y472624D01*
X-65715Y473127D01*
X-66941Y476087D01*
X-70013Y479159D01*
X-74028Y480822D01*
X-78373Y480822D01*
X-82387Y479159D01*
X-85459Y476087D01*
X-87122Y472073D01*
X-87122Y467728D01*
X-85459Y463713D01*
X-82387Y460641D01*
X-78373Y458978D01*
X-74028Y458978D01*
X-70013Y460641D01*
X-66941Y463713D01*
X-65715Y466673D01*
X-65401Y467150D01*
X-64901Y467493D01*
X-64307Y467614D01*
X-61087Y467614D01*
X-60538Y467512D01*
X-60027Y467185D01*
X-59684Y466684D01*
X-59563Y466090D01*
X-59563Y462919D01*
X-58670Y462026D01*
X-42930Y462026D01*
X-42037Y462919D01*
X-42037Y476881D01*
X-42988Y477832D01*
X-43313Y478315D01*
X-43434Y478910D01*
X-43434Y484405D01*
X-43327Y484966D01*
X-42996Y485475D01*
X-42890Y485546D01*
X-41222Y487214D01*
X-40414Y489165D01*
X-40414Y490702D01*
X-40320Y491229D01*
X-40001Y491745D01*
X-39507Y492096D01*
X-38914Y492226D01*
X-38318Y492114D01*
X-37812Y491779D01*
X-28132Y482099D01*
X-27807Y481616D01*
X-27686Y481022D01*
X-27686Y467541D01*
X-27797Y466969D01*
X-28132Y466464D01*
X-33001Y461594D01*
X-33474Y461273D01*
X-34067Y461148D01*
X-34192Y461173D01*
X-36552Y461173D01*
X-38502Y460365D01*
X-39995Y458872D01*
X-40803Y456922D01*
X-40803Y454590D01*
X-40778Y454473D01*
X-40890Y453877D01*
X-41224Y453371D01*
X-41776Y452820D01*
X-42259Y452495D01*
X-42853Y452374D01*
X-58670Y452374D01*
X-59563Y451481D01*
X-59563Y448310D01*
X-59665Y447761D01*
X-59992Y447250D01*
X-60493Y446907D01*
X-61087Y446786D01*
X-64307Y446786D01*
X-64867Y446893D01*
X-65376Y447224D01*
X-65715Y447727D01*
X-66941Y450687D01*
X-70013Y453759D01*
X-74028Y455422D01*
X-78373Y455422D01*
X-82387Y453759D01*
X-85459Y450687D01*
X-87122Y446673D01*
X-87122Y442328D01*
X-85459Y438313D01*
X-82387Y435241D01*
X-78373Y433578D01*
G37*
G36*
X182903Y788698D02*
X190077Y788698D01*
X196705Y791443D01*
X201778Y796516D01*
X204524Y803144D01*
X204524Y810319D01*
X201778Y816947D01*
X196705Y822020D01*
X190077Y824766D01*
X182903Y824766D01*
X176275Y822020D01*
X171202Y816947D01*
X168456Y810319D01*
X168456Y803144D01*
X171202Y796516D01*
X176275Y791443D01*
X182903Y788698D01*
G37*
G36*
X9699Y439194D02*
X11810Y439194D01*
X13760Y440002D01*
X15253Y441494D01*
X16061Y443445D01*
X16061Y445555D01*
X15253Y447506D01*
X13760Y448998D01*
X11810Y449806D01*
X9478Y449806D01*
X9361Y449782D01*
X8765Y449893D01*
X8259Y450228D01*
X-14540Y473027D01*
X-14865Y473510D01*
X-14986Y474105D01*
X-14986Y492429D01*
X-30288Y507731D01*
X-30613Y508214D01*
X-30734Y508809D01*
X-30734Y735875D01*
X-71878Y777019D01*
X-72199Y777491D01*
X-72324Y778085D01*
X-72300Y778210D01*
X-72300Y780569D01*
X-73108Y782520D01*
X-74600Y784012D01*
X-76551Y784820D01*
X-78661Y784820D01*
X-80612Y784012D01*
X-82104Y782520D01*
X-82912Y780569D01*
X-82912Y778459D01*
X-82104Y776508D01*
X-80612Y775016D01*
X-78661Y774208D01*
X-76330Y774208D01*
X-76213Y774232D01*
X-75617Y774121D01*
X-75111Y773786D01*
X-35752Y734427D01*
X-35427Y733944D01*
X-35306Y733350D01*
X-35306Y506284D01*
X-20004Y490982D01*
X-19679Y490499D01*
X-19558Y489904D01*
X-19558Y471580D01*
X5027Y446995D01*
X5348Y446523D01*
X5473Y445929D01*
X5449Y445804D01*
X5449Y443445D01*
X6256Y441494D01*
X7749Y440002D01*
X9699Y439194D01*
G37*
G36*
X124828Y154178D02*
X129173Y154178D01*
X133187Y155841D01*
X136259Y158913D01*
X137922Y162928D01*
X137922Y167272D01*
X137012Y169471D01*
X136896Y170029D01*
X137007Y170626D01*
X137342Y171131D01*
X142748Y176537D01*
X142748Y210559D01*
X142842Y211086D01*
X143161Y211602D01*
X143655Y211953D01*
X144248Y212083D01*
X144844Y211972D01*
X145350Y211637D01*
X146854Y210132D01*
X148805Y209324D01*
X149881Y209324D01*
X150408Y209230D01*
X150924Y208911D01*
X151275Y208417D01*
X151405Y207824D01*
X151294Y207228D01*
X150959Y206722D01*
X150442Y206206D01*
X149634Y204255D01*
X149634Y202145D01*
X150442Y200194D01*
X151934Y198702D01*
X153885Y197894D01*
X155995Y197894D01*
X156770Y198215D01*
X157304Y198330D01*
X157902Y198228D01*
X158413Y197901D01*
X158756Y197401D01*
X158877Y196807D01*
X158877Y186679D01*
X158766Y186107D01*
X158431Y185601D01*
X156382Y183552D01*
X155899Y183227D01*
X155304Y183106D01*
X153885Y183106D01*
X151934Y182298D01*
X150442Y180806D01*
X149634Y178855D01*
X149634Y176745D01*
X150442Y174794D01*
X151934Y173302D01*
X153885Y172494D01*
X155995Y172494D01*
X157946Y173302D01*
X159438Y174794D01*
X160246Y176745D01*
X160246Y178164D01*
X160357Y178736D01*
X160692Y179242D01*
X163630Y182180D01*
X164113Y182505D01*
X164708Y182626D01*
X175510Y182626D01*
X176403Y183519D01*
X176403Y190257D01*
X176514Y190829D01*
X176849Y191335D01*
X206248Y220733D01*
X206248Y315606D01*
X206359Y316178D01*
X206694Y316684D01*
X231480Y341469D01*
X231941Y341785D01*
X232533Y341915D01*
X233129Y341804D01*
X233635Y341469D01*
X235113Y339991D01*
X239128Y338328D01*
X243473Y338328D01*
X247487Y339991D01*
X250559Y343063D01*
X252222Y347078D01*
X252222Y351423D01*
X250559Y355437D01*
X247487Y358509D01*
X243907Y359992D01*
X243456Y360280D01*
X243101Y360772D01*
X242966Y361364D01*
X243073Y361961D01*
X243404Y362469D01*
X243907Y362808D01*
X248062Y364529D01*
X251421Y367888D01*
X253238Y372275D01*
X253238Y373888D01*
X229339Y373888D01*
X229362Y373772D01*
X229362Y372275D01*
X231179Y367888D01*
X234538Y364529D01*
X238693Y362808D01*
X239144Y362520D01*
X239499Y362028D01*
X239634Y361437D01*
X239527Y360839D01*
X239196Y360331D01*
X238693Y359992D01*
X235113Y358509D01*
X232041Y355437D01*
X230378Y351423D01*
X230378Y349620D01*
X230267Y349048D01*
X229932Y348542D01*
X200152Y318763D01*
X200152Y223890D01*
X200041Y223318D01*
X199706Y222812D01*
X175714Y198820D01*
X175231Y198495D01*
X174636Y198374D01*
X174371Y198374D01*
X173822Y198476D01*
X173311Y198803D01*
X173075Y199147D01*
X166798Y205424D01*
X166492Y205863D01*
X166352Y206453D01*
X166454Y207051D01*
X166781Y207562D01*
X167281Y207905D01*
X167875Y208026D01*
X176780Y208026D01*
X177673Y208919D01*
X177673Y222881D01*
X176780Y223774D01*
X173594Y223774D01*
X173022Y223885D01*
X172516Y224220D01*
X165851Y230886D01*
X160755Y230886D01*
X160194Y230993D01*
X159685Y231324D01*
X159614Y231430D01*
X158434Y232609D01*
X158109Y233093D01*
X157988Y233687D01*
X157988Y305446D01*
X158099Y306018D01*
X158434Y306524D01*
X226760Y374850D01*
X227199Y375156D01*
X227789Y375295D01*
X228387Y375194D01*
X228898Y374867D01*
X228981Y374746D01*
X228981Y375412D01*
X253238Y375412D01*
X253238Y377025D01*
X251421Y381412D01*
X248062Y384771D01*
X243907Y386492D01*
X243456Y386780D01*
X243101Y387272D01*
X242966Y387863D01*
X243073Y388461D01*
X243404Y388969D01*
X243907Y389308D01*
X247487Y390791D01*
X250559Y393863D01*
X252222Y397878D01*
X252222Y402223D01*
X250559Y406237D01*
X247487Y409309D01*
X243907Y410792D01*
X243456Y411080D01*
X243101Y411572D01*
X242966Y412164D01*
X243073Y412761D01*
X243404Y413269D01*
X243907Y413608D01*
X248062Y415329D01*
X251421Y418688D01*
X253238Y423075D01*
X253238Y424688D01*
X229362Y424688D01*
X229362Y423075D01*
X231179Y418688D01*
X234538Y415329D01*
X238693Y413608D01*
X239144Y413320D01*
X239499Y412828D01*
X239634Y412237D01*
X239527Y411639D01*
X239196Y411131D01*
X238693Y410792D01*
X235113Y409309D01*
X232041Y406237D01*
X230378Y402223D01*
X230378Y397878D01*
X232041Y393863D01*
X233519Y392385D01*
X233835Y391924D01*
X233965Y391332D01*
X233854Y390735D01*
X233519Y390230D01*
X228154Y384864D01*
X227715Y384558D01*
X227125Y384419D01*
X226527Y384520D01*
X226016Y384847D01*
X225673Y385347D01*
X225552Y385942D01*
X225552Y667559D01*
X183154Y709958D01*
X177716Y709958D01*
X177144Y710069D01*
X176638Y710404D01*
X125621Y761421D01*
X125300Y761893D01*
X125175Y762486D01*
X125291Y763082D01*
X125784Y764273D01*
X125784Y767910D01*
X124392Y771271D01*
X121820Y773843D01*
X118459Y775236D01*
X114821Y775236D01*
X111460Y773843D01*
X108888Y771271D01*
X107496Y767910D01*
X107496Y764273D01*
X108888Y760912D01*
X111460Y758340D01*
X114821Y756948D01*
X118459Y756948D01*
X119650Y757441D01*
X120209Y757557D01*
X120805Y757445D01*
X121311Y757110D01*
X174559Y703862D01*
X179997Y703862D01*
X180569Y703750D01*
X181075Y703415D01*
X189203Y695287D01*
X189509Y694848D01*
X189649Y694258D01*
X189547Y693660D01*
X189220Y693149D01*
X188720Y692806D01*
X188125Y692686D01*
X182903Y692686D01*
X176275Y689940D01*
X171202Y684867D01*
X168456Y678239D01*
X168456Y671064D01*
X171202Y664436D01*
X176275Y659363D01*
X182903Y656618D01*
X190077Y656618D01*
X196705Y659363D01*
X201778Y664436D01*
X204524Y671064D01*
X204524Y676287D01*
X204618Y676814D01*
X204937Y677330D01*
X205431Y677681D01*
X206024Y677811D01*
X206620Y677700D01*
X207126Y677365D01*
X219010Y665481D01*
X219335Y664997D01*
X219456Y664403D01*
X219456Y604163D01*
X219362Y603636D01*
X219043Y603120D01*
X218549Y602769D01*
X217956Y602639D01*
X217360Y602750D01*
X216854Y603085D01*
X200153Y619787D01*
X199832Y620259D01*
X199706Y620852D01*
X199822Y621447D01*
X200733Y623646D01*
X200733Y627991D01*
X199070Y632005D01*
X195998Y635077D01*
X191983Y636740D01*
X187638Y636740D01*
X183624Y635077D01*
X180552Y632005D01*
X178889Y627991D01*
X178889Y623646D01*
X180552Y619631D01*
X183624Y616559D01*
X187204Y615076D01*
X187655Y614788D01*
X188010Y614296D01*
X188145Y613704D01*
X188038Y613107D01*
X187707Y612599D01*
X187204Y612260D01*
X183049Y610539D01*
X179690Y607180D01*
X177873Y602793D01*
X177873Y601180D01*
X201749Y601180D01*
X201749Y602793D01*
X199889Y607283D01*
X199775Y607793D01*
X199867Y608393D01*
X200185Y608909D01*
X200680Y609260D01*
X201273Y609390D01*
X201869Y609279D01*
X202375Y608944D01*
X211926Y599393D01*
X212251Y598910D01*
X212372Y598315D01*
X212372Y407306D01*
X212261Y406734D01*
X211926Y406228D01*
X209231Y403534D01*
X208759Y403213D01*
X208166Y403088D01*
X207571Y403204D01*
X205372Y404114D01*
X201028Y404114D01*
X197013Y402451D01*
X193941Y399379D01*
X192278Y395365D01*
X192278Y391020D01*
X193941Y387005D01*
X197013Y383933D01*
X201028Y382270D01*
X205373Y382270D01*
X209387Y383933D01*
X212459Y387005D01*
X214122Y391020D01*
X214122Y395364D01*
X213212Y397563D01*
X213096Y398121D01*
X213207Y398718D01*
X213542Y399223D01*
X216854Y402536D01*
X217293Y402842D01*
X217883Y402981D01*
X218481Y402880D01*
X218992Y402553D01*
X219335Y402053D01*
X219456Y401458D01*
X219456Y388675D01*
X219345Y388103D01*
X219010Y387598D01*
X139446Y308034D01*
X139446Y298255D01*
X139356Y297740D01*
X139042Y297221D01*
X138550Y296866D01*
X137958Y296731D01*
X137361Y296838D01*
X136853Y297169D01*
X136514Y297672D01*
X136259Y298287D01*
X133187Y301359D01*
X129173Y303022D01*
X124828Y303022D01*
X120813Y301359D01*
X117741Y298287D01*
X116078Y294273D01*
X116078Y289928D01*
X117741Y285913D01*
X120813Y282841D01*
X124828Y281178D01*
X129173Y281178D01*
X133187Y282841D01*
X134050Y283704D01*
X134489Y284010D01*
X135079Y284150D01*
X135677Y284048D01*
X136188Y283721D01*
X136531Y283221D01*
X136652Y282627D01*
X136652Y276173D01*
X136558Y275647D01*
X136239Y275131D01*
X135745Y274780D01*
X135152Y274650D01*
X134556Y274761D01*
X134050Y275096D01*
X133187Y275959D01*
X129173Y277622D01*
X124828Y277622D01*
X120813Y275959D01*
X117741Y272887D01*
X116078Y268873D01*
X116078Y264528D01*
X117741Y260513D01*
X120813Y257441D01*
X124828Y255778D01*
X129173Y255778D01*
X133187Y257441D01*
X134050Y258304D01*
X134489Y258610D01*
X135079Y258750D01*
X135677Y258648D01*
X136188Y258321D01*
X136531Y257821D01*
X136652Y257227D01*
X136652Y250773D01*
X136558Y250247D01*
X136239Y249731D01*
X135745Y249380D01*
X135152Y249250D01*
X134556Y249361D01*
X134050Y249696D01*
X133187Y250559D01*
X129173Y252222D01*
X124828Y252222D01*
X120813Y250559D01*
X117741Y247487D01*
X116078Y243473D01*
X116078Y239128D01*
X117741Y235113D01*
X120813Y232041D01*
X124828Y230378D01*
X129173Y230378D01*
X133187Y232041D01*
X134050Y232904D01*
X134489Y233210D01*
X135079Y233350D01*
X135677Y233248D01*
X136188Y232921D01*
X136531Y232421D01*
X136652Y231827D01*
X136652Y225373D01*
X136558Y224847D01*
X136239Y224331D01*
X135745Y223980D01*
X135152Y223850D01*
X134556Y223961D01*
X134050Y224296D01*
X133187Y225159D01*
X129173Y226822D01*
X124828Y226822D01*
X120813Y225159D01*
X117741Y222087D01*
X116078Y218073D01*
X116078Y213728D01*
X117741Y209713D01*
X120813Y206641D01*
X124828Y204978D01*
X129173Y204978D01*
X133187Y206641D01*
X134050Y207504D01*
X134489Y207810D01*
X135079Y207950D01*
X135677Y207848D01*
X136188Y207521D01*
X136531Y207021D01*
X136652Y206427D01*
X136652Y199973D01*
X136558Y199447D01*
X136239Y198931D01*
X135745Y198580D01*
X135152Y198450D01*
X134556Y198561D01*
X134050Y198896D01*
X133187Y199759D01*
X129173Y201422D01*
X124828Y201422D01*
X120813Y199759D01*
X117741Y196687D01*
X116078Y192673D01*
X116078Y188328D01*
X117741Y184313D01*
X120813Y181241D01*
X124828Y179578D01*
X129173Y179578D01*
X133187Y181241D01*
X134050Y182104D01*
X134489Y182410D01*
X135079Y182550D01*
X135677Y182448D01*
X136188Y182121D01*
X136531Y181621D01*
X136652Y181027D01*
X136652Y179694D01*
X136541Y179122D01*
X136206Y178616D01*
X133031Y175442D01*
X132559Y175121D01*
X131966Y174996D01*
X131371Y175112D01*
X129172Y176022D01*
X124828Y176022D01*
X120813Y174359D01*
X117741Y171287D01*
X116078Y167273D01*
X116078Y162928D01*
X117741Y158913D01*
X120813Y155841D01*
X124828Y154178D01*
G37*
G36*
X76962Y26162D02*
X78575Y26162D01*
X82962Y27979D01*
X86321Y31338D01*
X87597Y34420D01*
X87886Y34870D01*
X88377Y35225D01*
X88969Y35360D01*
X89566Y35254D01*
X90074Y34923D01*
X90413Y34420D01*
X91479Y31846D01*
X94838Y28487D01*
X99225Y26670D01*
X100838Y26670D01*
X100838Y39370D01*
X102362Y39370D01*
X102362Y26670D01*
X103975Y26670D01*
X108362Y28487D01*
X111721Y31846D01*
X112892Y34674D01*
X113180Y35124D01*
X113672Y35479D01*
X114264Y35614D01*
X114861Y35508D01*
X115369Y35177D01*
X115708Y34674D01*
X116879Y31846D01*
X120238Y28487D01*
X124625Y26670D01*
X126238Y26670D01*
X126238Y39370D01*
X127762Y39370D01*
X127762Y26670D01*
X129375Y26670D01*
X133762Y28487D01*
X137121Y31846D01*
X138292Y34674D01*
X138580Y35124D01*
X139072Y35479D01*
X139664Y35614D01*
X140261Y35508D01*
X140769Y35177D01*
X141108Y34674D01*
X142279Y31846D01*
X145638Y28487D01*
X150025Y26670D01*
X151638Y26670D01*
X151638Y50546D01*
X150025Y50546D01*
X145638Y48729D01*
X142279Y45370D01*
X141108Y42542D01*
X140820Y42092D01*
X140328Y41737D01*
X139736Y41602D01*
X139139Y41708D01*
X138631Y42039D01*
X138292Y42542D01*
X137121Y45370D01*
X136579Y45912D01*
X136273Y46351D01*
X136133Y46941D01*
X136235Y47539D01*
X136562Y48050D01*
X137062Y48393D01*
X137656Y48514D01*
X140647Y48514D01*
X146833Y54700D01*
X147316Y55025D01*
X147910Y55146D01*
X181260Y55146D01*
X191962Y65848D01*
X192445Y66173D01*
X193040Y66294D01*
X258103Y66294D01*
X285242Y93433D01*
X285242Y746812D01*
X270469Y761585D01*
X270148Y762057D01*
X270023Y762650D01*
X270139Y763246D01*
X270564Y764273D01*
X270564Y767910D01*
X269172Y771271D01*
X266600Y773843D01*
X263239Y775236D01*
X259601Y775236D01*
X256240Y773843D01*
X253668Y771271D01*
X252276Y767910D01*
X252276Y764273D01*
X253668Y760912D01*
X256240Y758340D01*
X259601Y756948D01*
X263239Y756948D01*
X266118Y758140D01*
X266676Y758256D01*
X267273Y758145D01*
X267778Y757810D01*
X280224Y745364D01*
X280549Y744881D01*
X280670Y744287D01*
X280670Y702954D01*
X280576Y702427D01*
X280257Y701911D01*
X279763Y701560D01*
X279170Y701430D01*
X278574Y701541D01*
X278068Y701876D01*
X270085Y709859D01*
X269765Y710331D01*
X269639Y710924D01*
X269755Y711520D01*
X270564Y713473D01*
X270564Y717110D01*
X269172Y720471D01*
X266600Y723043D01*
X263239Y724436D01*
X259601Y724436D01*
X256240Y723043D01*
X253668Y720471D01*
X252276Y717110D01*
X252276Y713473D01*
X253668Y710112D01*
X256240Y707540D01*
X259601Y706148D01*
X263239Y706148D01*
X265192Y706956D01*
X265751Y707072D01*
X266347Y706961D01*
X266853Y706626D01*
X272604Y700875D01*
X272929Y700392D01*
X273050Y699797D01*
X273050Y179423D01*
X272956Y178896D01*
X272637Y178380D01*
X272143Y178029D01*
X271550Y177899D01*
X270954Y178010D01*
X270448Y178345D01*
X269508Y179285D01*
X265214Y181064D01*
X260566Y181064D01*
X256272Y179285D01*
X252985Y175998D01*
X251206Y171704D01*
X251206Y167056D01*
X252985Y162762D01*
X256272Y159475D01*
X260566Y157696D01*
X265214Y157696D01*
X269508Y159475D01*
X270448Y160415D01*
X270887Y160721D01*
X271477Y160860D01*
X272075Y160759D01*
X272586Y160432D01*
X272929Y159932D01*
X273050Y159337D01*
X273050Y133604D01*
X272948Y133055D01*
X272621Y132544D01*
X272120Y132201D01*
X271526Y132080D01*
X263652Y132080D01*
X263652Y106680D01*
X266831Y106680D01*
X267357Y106586D01*
X267873Y106267D01*
X268224Y105773D01*
X268355Y105180D01*
X268243Y104584D01*
X267908Y104078D01*
X242762Y78932D01*
X242279Y78607D01*
X241685Y78486D01*
X166490Y78486D01*
X165963Y78580D01*
X165447Y78899D01*
X165096Y79393D01*
X164966Y79986D01*
X165077Y80582D01*
X165412Y81088D01*
X166243Y81919D01*
X166243Y89862D01*
X166354Y90434D01*
X166689Y90939D01*
X173463Y97714D01*
X173936Y98035D01*
X174529Y98160D01*
X174654Y98136D01*
X177014Y98136D01*
X178964Y98943D01*
X180457Y100436D01*
X181265Y102386D01*
X181265Y104718D01*
X181240Y104835D01*
X181352Y105431D01*
X181686Y105937D01*
X218186Y142436D01*
X218186Y300580D01*
X218297Y301152D01*
X218632Y301658D01*
X219584Y302609D01*
X220391Y304559D01*
X220391Y306670D01*
X219584Y308620D01*
X218091Y310113D01*
X216141Y310921D01*
X214030Y310921D01*
X212080Y310113D01*
X210587Y308620D01*
X209779Y306670D01*
X209779Y304559D01*
X210587Y302609D01*
X212080Y301116D01*
X212673Y300871D01*
X213150Y300557D01*
X213493Y300057D01*
X213614Y299463D01*
X213614Y144961D01*
X213503Y144389D01*
X213168Y143884D01*
X178454Y109169D01*
X177981Y108848D01*
X177388Y108723D01*
X177263Y108748D01*
X174903Y108748D01*
X172953Y107940D01*
X171460Y106447D01*
X170653Y104497D01*
X170653Y102165D01*
X170677Y102048D01*
X170566Y101452D01*
X170231Y100946D01*
X166504Y97220D01*
X166021Y96895D01*
X165427Y96774D01*
X157484Y96774D01*
X157288Y96578D01*
X156827Y96262D01*
X156234Y96132D01*
X155638Y96243D01*
X155132Y96578D01*
X154936Y96774D01*
X147070Y96774D01*
X146177Y95881D01*
X146177Y93472D01*
X146075Y92923D01*
X145748Y92412D01*
X145247Y92069D01*
X144653Y91948D01*
X138578Y91948D01*
X138017Y92055D01*
X137509Y92386D01*
X137170Y92889D01*
X136259Y95087D01*
X133187Y98159D01*
X129173Y99822D01*
X124828Y99822D01*
X120813Y98159D01*
X117741Y95087D01*
X116078Y91073D01*
X116078Y86728D01*
X117741Y82713D01*
X119366Y81088D01*
X119672Y80649D01*
X119812Y80059D01*
X119710Y79461D01*
X119383Y78950D01*
X118883Y78607D01*
X118289Y78486D01*
X110311Y78486D01*
X109785Y78580D01*
X109269Y78899D01*
X108918Y79393D01*
X108788Y79986D01*
X108899Y80582D01*
X109234Y81088D01*
X110859Y82713D01*
X112522Y86728D01*
X112522Y91073D01*
X110859Y95087D01*
X107787Y98159D01*
X103773Y99822D01*
X99428Y99822D01*
X95413Y98159D01*
X92341Y95087D01*
X90678Y91073D01*
X90678Y86728D01*
X92341Y82713D01*
X93966Y81088D01*
X94272Y80649D01*
X94412Y80059D01*
X94310Y79461D01*
X93983Y78950D01*
X93483Y78607D01*
X92889Y78486D01*
X84911Y78486D01*
X84385Y78580D01*
X83869Y78899D01*
X83518Y79393D01*
X83388Y79986D01*
X83499Y80582D01*
X83834Y81088D01*
X85459Y82713D01*
X87122Y86728D01*
X87122Y91073D01*
X85459Y95087D01*
X82387Y98159D01*
X78373Y99822D01*
X74028Y99822D01*
X70013Y98159D01*
X66941Y95087D01*
X65278Y91073D01*
X65278Y86728D01*
X66941Y82713D01*
X68566Y81088D01*
X68872Y80649D01*
X69012Y80059D01*
X68910Y79461D01*
X68583Y78950D01*
X68083Y78607D01*
X67489Y78486D01*
X24438Y78486D01*
X23866Y78597D01*
X23361Y78932D01*
X-65275Y167568D01*
X-65605Y168062D01*
X-66941Y171287D01*
X-70013Y174359D01*
X-74028Y176022D01*
X-78373Y176022D01*
X-82387Y174359D01*
X-85459Y171287D01*
X-87122Y167273D01*
X-87122Y162928D01*
X-85459Y158913D01*
X-82387Y155841D01*
X-78373Y154178D01*
X-74028Y154178D01*
X-70013Y155841D01*
X-66941Y158913D01*
X-66685Y159532D01*
X-66388Y159991D01*
X-65893Y160342D01*
X-65301Y160472D01*
X-64705Y160361D01*
X-64199Y160026D01*
X21913Y73914D01*
X67489Y73914D01*
X68015Y73820D01*
X68531Y73501D01*
X68882Y73007D01*
X69013Y72414D01*
X68901Y71818D01*
X68566Y71312D01*
X66941Y69687D01*
X65278Y65673D01*
X65278Y61328D01*
X66941Y57313D01*
X68566Y55688D01*
X68872Y55249D01*
X69012Y54659D01*
X68910Y54061D01*
X68583Y53550D01*
X68083Y53207D01*
X67489Y53086D01*
X35368Y53086D01*
X34796Y53197D01*
X34290Y53532D01*
X-54164Y141986D01*
X-64307Y141986D01*
X-64867Y142093D01*
X-65376Y142424D01*
X-65715Y142927D01*
X-66941Y145887D01*
X-70013Y148959D01*
X-74028Y150622D01*
X-78373Y150622D01*
X-82387Y148959D01*
X-85459Y145887D01*
X-87122Y141873D01*
X-87122Y137528D01*
X-85459Y133513D01*
X-82387Y130441D01*
X-78373Y128778D01*
X-74028Y128778D01*
X-70013Y130441D01*
X-66941Y133513D01*
X-65715Y136473D01*
X-65401Y136950D01*
X-64901Y137293D01*
X-64307Y137414D01*
X-56689Y137414D01*
X-56117Y137303D01*
X-55611Y136968D01*
X32843Y48514D01*
X66052Y48514D01*
X66579Y48420D01*
X67095Y48101D01*
X67446Y47607D01*
X67576Y47014D01*
X67464Y46418D01*
X67129Y45912D01*
X66079Y44862D01*
X64262Y40475D01*
X64262Y38862D01*
X76962Y38862D01*
X76962Y26162D01*
G37*
G36*
X251260Y741454D02*
X260658Y741454D01*
X260658Y750852D01*
X259399Y750852D01*
X255665Y749305D01*
X252807Y746447D01*
X251260Y742713D01*
X251260Y741454D01*
G37*
G36*
X262182Y741454D02*
X271580Y741454D01*
X271580Y742713D01*
X270033Y746447D01*
X267175Y749305D01*
X263441Y750852D01*
X262182Y750852D01*
X262182Y741454D01*
G37*
G36*
X262182Y730532D02*
X263441Y730532D01*
X267175Y732078D01*
X270033Y734936D01*
X271580Y738671D01*
X271580Y739930D01*
X262182Y739930D01*
X262182Y730532D01*
G37*
G36*
X259399Y730532D02*
X260658Y730532D01*
X260658Y739930D01*
X251260Y739930D01*
X251260Y738671D01*
X252807Y734936D01*
X255665Y732078D01*
X259399Y730532D01*
G37*
G36*
X117402Y716054D02*
X126800Y716054D01*
X126800Y717313D01*
X125253Y721047D01*
X122395Y723905D01*
X118661Y725452D01*
X117402Y725452D01*
X117402Y716054D01*
G37*
G36*
X106480Y716054D02*
X115878Y716054D01*
X115878Y725452D01*
X114619Y725452D01*
X110885Y723905D01*
X108027Y721047D01*
X106480Y717313D01*
X106480Y716054D01*
G37*
G36*
X114619Y705132D02*
X115878Y705132D01*
X115878Y714530D01*
X106480Y714530D01*
X106480Y713271D01*
X108027Y709536D01*
X110885Y706678D01*
X114619Y705132D01*
G37*
G36*
X117402Y705132D02*
X118661Y705132D01*
X122395Y706678D01*
X125253Y709536D01*
X126800Y713271D01*
X126800Y714530D01*
X117402Y714530D01*
X117402Y705132D01*
G37*
G36*
X74028Y611378D02*
X78373Y611378D01*
X82387Y613041D01*
X85459Y616113D01*
X87122Y620128D01*
X87122Y624473D01*
X85459Y628487D01*
X82387Y631559D01*
X78373Y633222D01*
X74028Y633222D01*
X70013Y631559D01*
X66941Y628487D01*
X65715Y625527D01*
X65401Y625050D01*
X64901Y624707D01*
X64307Y624586D01*
X61087Y624586D01*
X60538Y624688D01*
X60027Y625015D01*
X59684Y625516D01*
X59563Y626110D01*
X59563Y629281D01*
X58670Y630174D01*
X44125Y630174D01*
X43587Y630272D01*
X43073Y630595D01*
X42726Y631092D01*
X42601Y631686D01*
X42717Y632281D01*
X43406Y633945D01*
X43406Y636276D01*
X43382Y636393D01*
X43493Y636989D01*
X43828Y637495D01*
X63246Y656913D01*
X63246Y699035D01*
X63353Y699596D01*
X63684Y700105D01*
X63790Y700176D01*
X65458Y701844D01*
X66266Y703795D01*
X66266Y705905D01*
X65458Y707856D01*
X63966Y709348D01*
X62015Y710156D01*
X59905Y710156D01*
X57954Y709348D01*
X56462Y707856D01*
X55654Y705905D01*
X55654Y703795D01*
X56462Y701844D01*
X58111Y700196D01*
X58210Y700130D01*
X58553Y699630D01*
X58674Y699035D01*
X58674Y659438D01*
X58563Y658866D01*
X58228Y658361D01*
X40595Y640728D01*
X40123Y640407D01*
X39529Y640282D01*
X39404Y640306D01*
X37045Y640306D01*
X35094Y639498D01*
X33602Y638006D01*
X32794Y636055D01*
X32794Y633945D01*
X33602Y631994D01*
X35251Y630346D01*
X35350Y630280D01*
X35693Y629780D01*
X35814Y629185D01*
X35814Y628846D01*
X41591Y623069D01*
X41916Y622586D01*
X42037Y621992D01*
X42037Y615319D01*
X42930Y614426D01*
X58670Y614426D01*
X59563Y615319D01*
X59563Y618490D01*
X59665Y619039D01*
X59992Y619550D01*
X60493Y619893D01*
X61087Y620014D01*
X64307Y620014D01*
X64867Y619907D01*
X65376Y619576D01*
X65715Y619073D01*
X66941Y616113D01*
X70013Y613041D01*
X74028Y611378D01*
G37*
G36*
X24345Y439194D02*
X26455Y439194D01*
X28406Y440002D01*
X29898Y441494D01*
X30706Y443445D01*
X30706Y445555D01*
X29898Y447506D01*
X28894Y448509D01*
X28569Y448993D01*
X28448Y449587D01*
X28448Y579113D01*
X28559Y579685D01*
X28894Y580191D01*
X29898Y581194D01*
X30706Y583145D01*
X30706Y585255D01*
X29898Y587206D01*
X28894Y588209D01*
X28569Y588693D01*
X28448Y589287D01*
X28448Y614141D01*
X-3848Y646436D01*
X-4173Y646919D01*
X-4294Y647514D01*
X-4294Y648933D01*
X-5102Y650884D01*
X-6594Y652376D01*
X-8545Y653184D01*
X-10655Y653184D01*
X-12606Y652376D01*
X-14098Y650884D01*
X-14906Y648933D01*
X-14906Y646823D01*
X-14098Y644872D01*
X-12606Y643380D01*
X-10655Y642572D01*
X-9236Y642572D01*
X-8664Y642461D01*
X-8158Y642126D01*
X21906Y612062D01*
X22231Y611579D01*
X22352Y610984D01*
X22352Y589287D01*
X22241Y588715D01*
X21906Y588209D01*
X20902Y587206D01*
X20094Y585255D01*
X20094Y583145D01*
X20902Y581194D01*
X21906Y580191D01*
X22231Y579707D01*
X22352Y579113D01*
X22352Y449587D01*
X22241Y449015D01*
X21906Y448509D01*
X20902Y447506D01*
X20094Y445555D01*
X20094Y443445D01*
X20902Y441494D01*
X22394Y440002D01*
X24345Y439194D01*
G37*
G36*
X-103773Y611378D02*
X-99428Y611378D01*
X-95413Y613041D01*
X-92341Y616113D01*
X-90678Y620128D01*
X-90678Y624473D01*
X-92341Y628487D01*
X-95413Y631559D01*
X-99428Y633222D01*
X-103773Y633222D01*
X-107787Y631559D01*
X-110859Y628487D01*
X-112522Y624473D01*
X-112522Y620128D01*
X-110859Y616113D01*
X-107787Y613041D01*
X-103773Y611378D01*
G37*
G36*
X-78373Y611378D02*
X-74028Y611378D01*
X-70013Y613041D01*
X-66941Y616113D01*
X-65278Y620128D01*
X-65278Y624473D01*
X-66941Y628487D01*
X-70013Y631559D01*
X-74028Y633222D01*
X-78373Y633222D01*
X-82387Y631559D01*
X-85459Y628487D01*
X-87122Y624473D01*
X-87122Y620128D01*
X-85459Y616113D01*
X-82387Y613041D01*
X-78373Y611378D01*
G37*
G36*
X99428Y611378D02*
X103773Y611378D01*
X107787Y613041D01*
X110859Y616113D01*
X112522Y620128D01*
X112522Y624473D01*
X110859Y628487D01*
X107787Y631559D01*
X103773Y633222D01*
X99428Y633222D01*
X95413Y631559D01*
X92341Y628487D01*
X90678Y624473D01*
X90678Y620128D01*
X92341Y616113D01*
X95413Y613041D01*
X99428Y611378D01*
G37*
G36*
X124828Y611378D02*
X129173Y611378D01*
X133187Y613041D01*
X136259Y616113D01*
X137922Y620128D01*
X137922Y624473D01*
X136259Y628487D01*
X133187Y631559D01*
X129173Y633222D01*
X124828Y633222D01*
X120813Y631559D01*
X117741Y628487D01*
X116078Y624473D01*
X116078Y620128D01*
X117741Y616113D01*
X120813Y613041D01*
X124828Y611378D01*
G37*
G36*
X-129173Y611378D02*
X-124828Y611378D01*
X-120813Y613041D01*
X-117741Y616113D01*
X-116078Y620128D01*
X-116078Y624473D01*
X-117741Y628487D01*
X-120813Y631559D01*
X-124828Y633222D01*
X-129173Y633222D01*
X-133187Y631559D01*
X-136259Y628487D01*
X-137922Y624473D01*
X-137922Y620128D01*
X-136259Y616113D01*
X-133187Y613041D01*
X-129173Y611378D01*
G37*
G36*
X165847Y541821D02*
X167957Y541821D01*
X169908Y542629D01*
X171400Y544121D01*
X172208Y546071D01*
X172208Y548182D01*
X171400Y550133D01*
X169751Y551781D01*
X169652Y551847D01*
X169309Y552347D01*
X169188Y552941D01*
X169188Y555402D01*
X169299Y555974D01*
X169634Y556480D01*
X170053Y556899D01*
X170053Y571340D01*
X170145Y571857D01*
X169639Y571754D01*
X161294Y571754D01*
X161098Y571558D01*
X160637Y571242D01*
X160044Y571112D01*
X159448Y571223D01*
X158942Y571558D01*
X158746Y571754D01*
X156010Y571754D01*
X155438Y571865D01*
X154933Y572200D01*
X137026Y590107D01*
X136705Y590579D01*
X136580Y591172D01*
X136696Y591767D01*
X137922Y594728D01*
X137922Y599073D01*
X136259Y603087D01*
X133187Y606159D01*
X129173Y607822D01*
X124828Y607822D01*
X120813Y606159D01*
X117741Y603087D01*
X116078Y599073D01*
X116078Y594728D01*
X117741Y590713D01*
X120813Y587641D01*
X124828Y585978D01*
X129173Y585978D01*
X132133Y587204D01*
X132691Y587320D01*
X133288Y587209D01*
X133793Y586874D01*
X149541Y571126D01*
X149866Y570643D01*
X149987Y570049D01*
X149987Y556899D01*
X150880Y556006D01*
X158746Y556006D01*
X158942Y556202D01*
X159403Y556518D01*
X159996Y556648D01*
X160592Y556537D01*
X161098Y556202D01*
X161294Y556006D01*
X163092Y556006D01*
X163641Y555904D01*
X164152Y555577D01*
X164495Y555076D01*
X164616Y554482D01*
X164616Y552941D01*
X164509Y552381D01*
X164178Y551872D01*
X164072Y551801D01*
X162404Y550133D01*
X161596Y548182D01*
X161596Y546071D01*
X162404Y544121D01*
X163896Y542629D01*
X165847Y541821D01*
G37*
G36*
X-103773Y585978D02*
X-99428Y585978D01*
X-95413Y587641D01*
X-92341Y590713D01*
X-90678Y594728D01*
X-90678Y599073D01*
X-92341Y603087D01*
X-95413Y606159D01*
X-99428Y607822D01*
X-103773Y607822D01*
X-107787Y606159D01*
X-110859Y603087D01*
X-112522Y599073D01*
X-112522Y594728D01*
X-110859Y590713D01*
X-107787Y587641D01*
X-103773Y585978D01*
G37*
G36*
X-129173Y585978D02*
X-124828Y585978D01*
X-120813Y587641D01*
X-117741Y590713D01*
X-116078Y594728D01*
X-116078Y599073D01*
X-117741Y603087D01*
X-120813Y606159D01*
X-124828Y607822D01*
X-129173Y607822D01*
X-133187Y606159D01*
X-136259Y603087D01*
X-137922Y599073D01*
X-137922Y594728D01*
X-136259Y590713D01*
X-133187Y587641D01*
X-129173Y585978D01*
G37*
G36*
X-78373Y585978D02*
X-74028Y585978D01*
X-70013Y587641D01*
X-66941Y590713D01*
X-65278Y594728D01*
X-65278Y599073D01*
X-66941Y603087D01*
X-70013Y606159D01*
X-74028Y607822D01*
X-78373Y607822D01*
X-82387Y606159D01*
X-85459Y603087D01*
X-87122Y599073D01*
X-87122Y594728D01*
X-85459Y590713D01*
X-82387Y587641D01*
X-78373Y585978D01*
G37*
G36*
X74028Y585978D02*
X78373Y585978D01*
X82387Y587641D01*
X85459Y590713D01*
X87122Y594728D01*
X87122Y599073D01*
X85459Y603087D01*
X82387Y606159D01*
X78373Y607822D01*
X74028Y607822D01*
X70013Y606159D01*
X66941Y603087D01*
X65278Y599073D01*
X65278Y594728D01*
X66941Y590713D01*
X70013Y587641D01*
X74028Y585978D01*
G37*
G36*
X99428Y585978D02*
X103773Y585978D01*
X107787Y587641D01*
X110859Y590713D01*
X112522Y594728D01*
X112522Y599073D01*
X110859Y603087D01*
X107787Y606159D01*
X103773Y607822D01*
X99428Y607822D01*
X95413Y606159D01*
X92341Y603087D01*
X90678Y599073D01*
X90678Y594728D01*
X92341Y590713D01*
X95413Y587641D01*
X99428Y585978D01*
G37*
G36*
X-302180Y597662D02*
X-292862Y597662D01*
X-292862Y606980D01*
X-300692Y606980D01*
X-302180Y605492D01*
X-302180Y597662D01*
G37*
G36*
X-291338Y597662D02*
X-282020Y597662D01*
X-282020Y605492D01*
X-283508Y606980D01*
X-291338Y606980D01*
X-291338Y597662D01*
G37*
G36*
X-129173Y535178D02*
X-124828Y535178D01*
X-120813Y536841D01*
X-117741Y539913D01*
X-116078Y543928D01*
X-116078Y548273D01*
X-117741Y552287D01*
X-120813Y555359D01*
X-124828Y557022D01*
X-129173Y557022D01*
X-133187Y555359D01*
X-136259Y552287D01*
X-136944Y550634D01*
X-137240Y550175D01*
X-137735Y549824D01*
X-138327Y549694D01*
X-138924Y549805D01*
X-139429Y550140D01*
X-148906Y559616D01*
X-149231Y560099D01*
X-149352Y560694D01*
X-149352Y585463D01*
X-156180Y592291D01*
X-156501Y592763D01*
X-156626Y593356D01*
X-156511Y593951D01*
X-156036Y595097D01*
X-156036Y598703D01*
X-157416Y602034D01*
X-159966Y604584D01*
X-163297Y605964D01*
X-166903Y605964D01*
X-170234Y604584D01*
X-172784Y602034D01*
X-174164Y598703D01*
X-174164Y595097D01*
X-172784Y591766D01*
X-170234Y589216D01*
X-166903Y587836D01*
X-163297Y587836D01*
X-162151Y588311D01*
X-161593Y588426D01*
X-160996Y588315D01*
X-160491Y587980D01*
X-155894Y583384D01*
X-155569Y582901D01*
X-155448Y582306D01*
X-155448Y578346D01*
X-155542Y577819D01*
X-155861Y577303D01*
X-156355Y576952D01*
X-156948Y576822D01*
X-157544Y576933D01*
X-158050Y577268D01*
X-159966Y579184D01*
X-163297Y580564D01*
X-166903Y580564D01*
X-170234Y579184D01*
X-172784Y576634D01*
X-174164Y573303D01*
X-174164Y569697D01*
X-172784Y566366D01*
X-170234Y563816D01*
X-166903Y562436D01*
X-163297Y562436D01*
X-159966Y563816D01*
X-158050Y565732D01*
X-157611Y566038D01*
X-157021Y566178D01*
X-156423Y566076D01*
X-155912Y565749D01*
X-155569Y565249D01*
X-155448Y564654D01*
X-155448Y557537D01*
X-140963Y543052D01*
X-138578Y543052D01*
X-138017Y542945D01*
X-137509Y542614D01*
X-137170Y542111D01*
X-136259Y539913D01*
X-133187Y536841D01*
X-129173Y535178D01*
G37*
G36*
X124828Y484378D02*
X129173Y484378D01*
X133187Y486041D01*
X136259Y489113D01*
X137485Y492073D01*
X137799Y492550D01*
X138299Y492893D01*
X138893Y493014D01*
X143383Y493014D01*
X143932Y492912D01*
X144443Y492585D01*
X144786Y492084D01*
X144907Y491490D01*
X144907Y488319D01*
X145800Y487426D01*
X153666Y487426D01*
X153862Y487622D01*
X154323Y487938D01*
X154916Y488068D01*
X155512Y487957D01*
X156018Y487622D01*
X156214Y487426D01*
X164080Y487426D01*
X164973Y488319D01*
X164973Y496262D01*
X165084Y496834D01*
X165419Y497339D01*
X167386Y499306D01*
X167386Y515331D01*
X167497Y515903D01*
X167832Y516409D01*
X169118Y517694D01*
X169926Y519645D01*
X169926Y521662D01*
X170037Y522234D01*
X170372Y522739D01*
X176912Y529279D01*
X177339Y529580D01*
X177929Y529724D01*
X178527Y529627D01*
X179041Y529304D01*
X179388Y528807D01*
X179513Y528213D01*
X179397Y527618D01*
X178889Y526391D01*
X178889Y522046D01*
X180552Y518031D01*
X183624Y514959D01*
X187638Y513296D01*
X191983Y513296D01*
X195998Y514959D01*
X199070Y518031D01*
X200733Y522046D01*
X200733Y526391D01*
X199070Y530405D01*
X195998Y533477D01*
X191983Y535140D01*
X187638Y535140D01*
X186411Y534632D01*
X185901Y534517D01*
X185301Y534609D01*
X184785Y534928D01*
X184434Y535423D01*
X184304Y536015D01*
X184415Y536612D01*
X184750Y537117D01*
X185992Y538359D01*
X186464Y538680D01*
X187058Y538806D01*
X187622Y538696D01*
X191983Y538696D01*
X195998Y540359D01*
X199070Y543431D01*
X200733Y547446D01*
X200733Y551791D01*
X199070Y555805D01*
X195998Y558877D01*
X191983Y560540D01*
X191629Y560540D01*
X191057Y560651D01*
X190552Y560986D01*
X190044Y561494D01*
X189738Y561933D01*
X189598Y562523D01*
X189700Y563121D01*
X190027Y563632D01*
X190527Y563975D01*
X191121Y564096D01*
X191983Y564096D01*
X195998Y565759D01*
X199070Y568831D01*
X200733Y572846D01*
X200733Y577191D01*
X199070Y581205D01*
X195998Y584277D01*
X192418Y585760D01*
X191967Y586048D01*
X191612Y586540D01*
X191477Y587132D01*
X191584Y587729D01*
X191915Y588237D01*
X192418Y588576D01*
X196573Y590297D01*
X199931Y593656D01*
X201749Y598043D01*
X201749Y599656D01*
X177873Y599656D01*
X177873Y598043D01*
X179690Y593656D01*
X183049Y590297D01*
X187204Y588576D01*
X187655Y588288D01*
X188010Y587796D01*
X188145Y587205D01*
X188038Y586607D01*
X187707Y586099D01*
X187204Y585760D01*
X183624Y584277D01*
X180552Y581205D01*
X178889Y577191D01*
X178889Y576328D01*
X178795Y575802D01*
X178476Y575286D01*
X177982Y574935D01*
X177389Y574805D01*
X176793Y574916D01*
X176287Y575251D01*
X163232Y588306D01*
X162907Y588789D01*
X162786Y589383D01*
X162786Y591605D01*
X161978Y593556D01*
X160486Y595048D01*
X158535Y595856D01*
X156425Y595856D01*
X154474Y595048D01*
X152982Y593556D01*
X152174Y591605D01*
X152174Y589495D01*
X152982Y587544D01*
X154474Y586052D01*
X156425Y585244D01*
X158562Y585244D01*
X159068Y585349D01*
X159664Y585238D01*
X160170Y584903D01*
X170717Y574356D01*
X171023Y573917D01*
X171162Y573327D01*
X171065Y572757D01*
X171553Y572864D01*
X172149Y572753D01*
X172655Y572418D01*
X183832Y561240D01*
X184148Y560779D01*
X184278Y560187D01*
X184167Y559591D01*
X183832Y559085D01*
X180552Y555805D01*
X178889Y551791D01*
X178889Y547446D01*
X180552Y543431D01*
X181497Y542486D01*
X181813Y542025D01*
X181944Y541432D01*
X181832Y540836D01*
X181497Y540330D01*
X167455Y526287D01*
X166983Y525967D01*
X166389Y525841D01*
X165794Y525957D01*
X165676Y526006D01*
X163565Y526006D01*
X161614Y525198D01*
X160122Y523706D01*
X159314Y521755D01*
X159314Y519645D01*
X160122Y517694D01*
X161614Y516202D01*
X161873Y516095D01*
X162350Y515781D01*
X162693Y515281D01*
X162814Y514687D01*
X162814Y504698D01*
X162712Y504149D01*
X162385Y503638D01*
X161884Y503295D01*
X161290Y503174D01*
X156214Y503174D01*
X156018Y502978D01*
X155557Y502662D01*
X154964Y502532D01*
X154368Y502643D01*
X153862Y502978D01*
X153666Y503174D01*
X145800Y503174D01*
X144907Y502281D01*
X144907Y499110D01*
X144805Y498561D01*
X144478Y498050D01*
X143977Y497707D01*
X143383Y497586D01*
X138893Y497586D01*
X138333Y497693D01*
X137824Y498024D01*
X137485Y498527D01*
X136259Y501487D01*
X133187Y504559D01*
X129173Y506222D01*
X124828Y506222D01*
X120813Y504559D01*
X117741Y501487D01*
X116078Y497473D01*
X116078Y493128D01*
X117741Y489113D01*
X120813Y486041D01*
X124828Y484378D01*
G37*
G36*
X-300692Y586820D02*
X-292862Y586820D01*
X-292862Y596138D01*
X-302180Y596138D01*
X-302180Y588308D01*
X-300692Y586820D01*
G37*
G36*
X-291338Y586820D02*
X-283508Y586820D01*
X-282020Y588308D01*
X-282020Y596138D01*
X-291338Y596138D01*
X-291338Y586820D01*
G37*
G36*
X99428Y560578D02*
X103773Y560578D01*
X107787Y562241D01*
X110859Y565313D01*
X112522Y569328D01*
X112522Y573673D01*
X110859Y577687D01*
X107787Y580759D01*
X103773Y582422D01*
X99428Y582422D01*
X95413Y580759D01*
X92341Y577687D01*
X90678Y573673D01*
X90678Y569328D01*
X92341Y565313D01*
X95413Y562241D01*
X99428Y560578D01*
G37*
G36*
X-129173Y560578D02*
X-124828Y560578D01*
X-120813Y562241D01*
X-117741Y565313D01*
X-116078Y569328D01*
X-116078Y573673D01*
X-117741Y577687D01*
X-120813Y580759D01*
X-124828Y582422D01*
X-129173Y582422D01*
X-133187Y580759D01*
X-136259Y577687D01*
X-137922Y573673D01*
X-137922Y569328D01*
X-136259Y565313D01*
X-133187Y562241D01*
X-129173Y560578D01*
G37*
G36*
X-103773Y560578D02*
X-99428Y560578D01*
X-95413Y562241D01*
X-92341Y565313D01*
X-90678Y569328D01*
X-90678Y573673D01*
X-92341Y577687D01*
X-95413Y580759D01*
X-99428Y582422D01*
X-103773Y582422D01*
X-107787Y580759D01*
X-110859Y577687D01*
X-112522Y573673D01*
X-112522Y569328D01*
X-110859Y565313D01*
X-107787Y562241D01*
X-103773Y560578D01*
G37*
G36*
X-78373Y560578D02*
X-74028Y560578D01*
X-70013Y562241D01*
X-66941Y565313D01*
X-65278Y569328D01*
X-65278Y573673D01*
X-66941Y577687D01*
X-70013Y580759D01*
X-74028Y582422D01*
X-78373Y582422D01*
X-82387Y580759D01*
X-85459Y577687D01*
X-87122Y573673D01*
X-87122Y569328D01*
X-85459Y565313D01*
X-82387Y562241D01*
X-78373Y560578D01*
G37*
G36*
X74028Y560578D02*
X78373Y560578D01*
X82387Y562241D01*
X85459Y565313D01*
X87122Y569328D01*
X87122Y573673D01*
X85459Y577687D01*
X82387Y580759D01*
X78373Y582422D01*
X74028Y582422D01*
X70013Y580759D01*
X66941Y577687D01*
X65278Y573673D01*
X65278Y569328D01*
X66941Y565313D01*
X70013Y562241D01*
X74028Y560578D01*
G37*
G36*
X124828Y560578D02*
X129173Y560578D01*
X133187Y562241D01*
X136259Y565313D01*
X137922Y569328D01*
X137922Y573673D01*
X136259Y577687D01*
X133187Y580759D01*
X129173Y582422D01*
X124828Y582422D01*
X120813Y580759D01*
X117741Y577687D01*
X116078Y573673D01*
X116078Y569328D01*
X117741Y565313D01*
X120813Y562241D01*
X124828Y560578D01*
G37*
G36*
X-206169Y77978D02*
X-201824Y77978D01*
X-197810Y79641D01*
X-194738Y82713D01*
X-193075Y86728D01*
X-193075Y91073D01*
X-194738Y95087D01*
X-197810Y98159D01*
X-201824Y99822D01*
X-206169Y99822D01*
X-210184Y98159D01*
X-213256Y95087D01*
X-214167Y92889D01*
X-214480Y92412D01*
X-214980Y92069D01*
X-215575Y91948D01*
X-226706Y91948D01*
X-227278Y92059D01*
X-227784Y92394D01*
X-275906Y140516D01*
X-276231Y140999D01*
X-276352Y141594D01*
X-276352Y330957D01*
X-283989Y338594D01*
X-284310Y339066D01*
X-284435Y339660D01*
X-284320Y340255D01*
X-283845Y341401D01*
X-283845Y345006D01*
X-285225Y348338D01*
X-287775Y350888D01*
X-291106Y352268D01*
X-294712Y352268D01*
X-295858Y351793D01*
X-296416Y351677D01*
X-297013Y351788D01*
X-297518Y352123D01*
X-301306Y355911D01*
X-301631Y356394D01*
X-301752Y356988D01*
X-301752Y357000D01*
X-301650Y357549D01*
X-301323Y358060D01*
X-300822Y358403D01*
X-300228Y358524D01*
X-293671Y358524D01*
X-293671Y378684D01*
X-298925Y378684D01*
X-299474Y378786D01*
X-299985Y379113D01*
X-300328Y379613D01*
X-300449Y380208D01*
X-300449Y410951D01*
X-300355Y411478D01*
X-300036Y411994D01*
X-299542Y412345D01*
X-298949Y412475D01*
X-298353Y412364D01*
X-297847Y412029D01*
X-297234Y411416D01*
X-293903Y410036D01*
X-290297Y410036D01*
X-286966Y411416D01*
X-284416Y413966D01*
X-283036Y417297D01*
X-283036Y420903D01*
X-284416Y424234D01*
X-286966Y426784D01*
X-290297Y428164D01*
X-293903Y428164D01*
X-297234Y426784D01*
X-297847Y426171D01*
X-298286Y425865D01*
X-298876Y425725D01*
X-299474Y425827D01*
X-299985Y426154D01*
X-300328Y426654D01*
X-300449Y427249D01*
X-300449Y434914D01*
X-300355Y435441D01*
X-300036Y435957D01*
X-299542Y436308D01*
X-298949Y436438D01*
X-298353Y436327D01*
X-297847Y435992D01*
X-297810Y435955D01*
X-294105Y434420D01*
X-292862Y434420D01*
X-292862Y454580D01*
X-294105Y454580D01*
X-297810Y453045D01*
X-297847Y453008D01*
X-298286Y452702D01*
X-298876Y452562D01*
X-299474Y452664D01*
X-299985Y452991D01*
X-300328Y453491D01*
X-300449Y454086D01*
X-300449Y461751D01*
X-300355Y462278D01*
X-300036Y462794D01*
X-299542Y463145D01*
X-298949Y463275D01*
X-298353Y463164D01*
X-297847Y462829D01*
X-297234Y462216D01*
X-293903Y460836D01*
X-290297Y460836D01*
X-286966Y462216D01*
X-284416Y464766D01*
X-283036Y468097D01*
X-283036Y471703D01*
X-284416Y475034D01*
X-286966Y477584D01*
X-290297Y478964D01*
X-293903Y478964D01*
X-297234Y477584D01*
X-297847Y476971D01*
X-298286Y476665D01*
X-298876Y476525D01*
X-299474Y476627D01*
X-299985Y476954D01*
X-300328Y477454D01*
X-300449Y478049D01*
X-300449Y487151D01*
X-300355Y487678D01*
X-300036Y488194D01*
X-299542Y488545D01*
X-298949Y488675D01*
X-298353Y488564D01*
X-297847Y488229D01*
X-297234Y487616D01*
X-293903Y486236D01*
X-290297Y486236D01*
X-286966Y487616D01*
X-284416Y490166D01*
X-283036Y493497D01*
X-283036Y497103D01*
X-284416Y500434D01*
X-286966Y502984D01*
X-290297Y504364D01*
X-293903Y504364D01*
X-297234Y502984D01*
X-297847Y502371D01*
X-298286Y502065D01*
X-298876Y501925D01*
X-299474Y502027D01*
X-299985Y502354D01*
X-300328Y502854D01*
X-300449Y503449D01*
X-300449Y512551D01*
X-300355Y513078D01*
X-300036Y513594D01*
X-299542Y513945D01*
X-298949Y514075D01*
X-298353Y513964D01*
X-297847Y513629D01*
X-297234Y513016D01*
X-293903Y511636D01*
X-290297Y511636D01*
X-286966Y513016D01*
X-284416Y515566D01*
X-283036Y518897D01*
X-283036Y522503D01*
X-284416Y525834D01*
X-286966Y528384D01*
X-290297Y529764D01*
X-293903Y529764D01*
X-297234Y528384D01*
X-297847Y527771D01*
X-298286Y527465D01*
X-298876Y527325D01*
X-299474Y527427D01*
X-299985Y527754D01*
X-300328Y528254D01*
X-300449Y528849D01*
X-300449Y537951D01*
X-300355Y538478D01*
X-300036Y538994D01*
X-299542Y539345D01*
X-298949Y539475D01*
X-298353Y539364D01*
X-297847Y539029D01*
X-297234Y538416D01*
X-293903Y537036D01*
X-290297Y537036D01*
X-286966Y538416D01*
X-284416Y540966D01*
X-283036Y544297D01*
X-283036Y547903D01*
X-284416Y551234D01*
X-286966Y553784D01*
X-290506Y555251D01*
X-290547Y555258D01*
X-291063Y555577D01*
X-291414Y556071D01*
X-291544Y556664D01*
X-291433Y557260D01*
X-291098Y557766D01*
X-289052Y559811D01*
X-289052Y561933D01*
X-288945Y562494D01*
X-288614Y563002D01*
X-288111Y563341D01*
X-286966Y563816D01*
X-284416Y566366D01*
X-283036Y569697D01*
X-283036Y573303D01*
X-284416Y576634D01*
X-286966Y579184D01*
X-290297Y580564D01*
X-293903Y580564D01*
X-297234Y579184D01*
X-299784Y576634D01*
X-301164Y573303D01*
X-301164Y569697D01*
X-299784Y566366D01*
X-297234Y563816D01*
X-296820Y563644D01*
X-296361Y563348D01*
X-296010Y562853D01*
X-295879Y562261D01*
X-295991Y561664D01*
X-296326Y561159D01*
X-306545Y550939D01*
X-306545Y371497D01*
X-306656Y370925D01*
X-306991Y370419D01*
X-307848Y369563D01*
X-307848Y353832D01*
X-301829Y347813D01*
X-301508Y347341D01*
X-301383Y346747D01*
X-301499Y346152D01*
X-301973Y345007D01*
X-301973Y341401D01*
X-300593Y338069D01*
X-298043Y335520D01*
X-294712Y334140D01*
X-291106Y334140D01*
X-289960Y334614D01*
X-289402Y334730D01*
X-288805Y334619D01*
X-288300Y334284D01*
X-282894Y328878D01*
X-282569Y328395D01*
X-282448Y327801D01*
X-282448Y323840D01*
X-282542Y323314D01*
X-282861Y322798D01*
X-283355Y322447D01*
X-283948Y322316D01*
X-284544Y322428D01*
X-285050Y322763D01*
X-287775Y325488D01*
X-291106Y326868D01*
X-294712Y326868D01*
X-298043Y325488D01*
X-300593Y322938D01*
X-301973Y319606D01*
X-301973Y316001D01*
X-300593Y312669D01*
X-298043Y310120D01*
X-294712Y308740D01*
X-291106Y308740D01*
X-287775Y310120D01*
X-285050Y312845D01*
X-284611Y313151D01*
X-284021Y313290D01*
X-283423Y313188D01*
X-282912Y312862D01*
X-282569Y312361D01*
X-282448Y311767D01*
X-282448Y298440D01*
X-282542Y297914D01*
X-282861Y297398D01*
X-283355Y297047D01*
X-283948Y296916D01*
X-284544Y297028D01*
X-285050Y297363D01*
X-287775Y300088D01*
X-291106Y301468D01*
X-294712Y301468D01*
X-298043Y300088D01*
X-300593Y297538D01*
X-301973Y294206D01*
X-301973Y290601D01*
X-300593Y287269D01*
X-298043Y284720D01*
X-294712Y283340D01*
X-291106Y283340D01*
X-287775Y284720D01*
X-285050Y287445D01*
X-284611Y287751D01*
X-284021Y287890D01*
X-283423Y287788D01*
X-282912Y287462D01*
X-282569Y286961D01*
X-282448Y286367D01*
X-282448Y273040D01*
X-282542Y272514D01*
X-282861Y271998D01*
X-283355Y271647D01*
X-283948Y271516D01*
X-284544Y271628D01*
X-285050Y271963D01*
X-287775Y274688D01*
X-291106Y276068D01*
X-294712Y276068D01*
X-298043Y274688D01*
X-300593Y272138D01*
X-301973Y268806D01*
X-301973Y265201D01*
X-300593Y261869D01*
X-298043Y259320D01*
X-294712Y257940D01*
X-291106Y257940D01*
X-287775Y259320D01*
X-285050Y262045D01*
X-284611Y262351D01*
X-284021Y262490D01*
X-283423Y262388D01*
X-282912Y262062D01*
X-282569Y261561D01*
X-282448Y260967D01*
X-282448Y247640D01*
X-282542Y247114D01*
X-282861Y246598D01*
X-283355Y246247D01*
X-283948Y246116D01*
X-284544Y246228D01*
X-285050Y246563D01*
X-287775Y249288D01*
X-291106Y250668D01*
X-294712Y250668D01*
X-298043Y249288D01*
X-300593Y246738D01*
X-301973Y243406D01*
X-301973Y239801D01*
X-300593Y236469D01*
X-298043Y233920D01*
X-294712Y232540D01*
X-291106Y232540D01*
X-287775Y233920D01*
X-285050Y236645D01*
X-284611Y236951D01*
X-284021Y237090D01*
X-283423Y236988D01*
X-282912Y236662D01*
X-282569Y236161D01*
X-282448Y235567D01*
X-282448Y223677D01*
X-282542Y223150D01*
X-282861Y222634D01*
X-283355Y222283D01*
X-283948Y222153D01*
X-284544Y222265D01*
X-285050Y222599D01*
X-287199Y224749D01*
X-290904Y226284D01*
X-292147Y226284D01*
X-292147Y206124D01*
X-290904Y206124D01*
X-287199Y207658D01*
X-285050Y209808D01*
X-284611Y210114D01*
X-284021Y210253D01*
X-283423Y210152D01*
X-282912Y209825D01*
X-282569Y209324D01*
X-282448Y208730D01*
X-282448Y196840D01*
X-282542Y196314D01*
X-282861Y195798D01*
X-283355Y195447D01*
X-283948Y195316D01*
X-284544Y195428D01*
X-285050Y195763D01*
X-287775Y198488D01*
X-291106Y199868D01*
X-294712Y199868D01*
X-298043Y198488D01*
X-300593Y195938D01*
X-301973Y192606D01*
X-301973Y189001D01*
X-300593Y185669D01*
X-298043Y183120D01*
X-294712Y181740D01*
X-291106Y181740D01*
X-287775Y183120D01*
X-285050Y185845D01*
X-284611Y186151D01*
X-284021Y186290D01*
X-283423Y186188D01*
X-282912Y185862D01*
X-282569Y185361D01*
X-282448Y184767D01*
X-282448Y138437D01*
X-229863Y85852D01*
X-215575Y85852D01*
X-215014Y85745D01*
X-214506Y85414D01*
X-214167Y84911D01*
X-213256Y82713D01*
X-210184Y79641D01*
X-206169Y77978D01*
G37*
G36*
X-332373Y535178D02*
X-328028Y535178D01*
X-324013Y536841D01*
X-320941Y539913D01*
X-319278Y543928D01*
X-319278Y548273D01*
X-320941Y552287D01*
X-324013Y555359D01*
X-328028Y557022D01*
X-332373Y557022D01*
X-336387Y555359D01*
X-339459Y552287D01*
X-341122Y548273D01*
X-341122Y543928D01*
X-339459Y539913D01*
X-336387Y536841D01*
X-332373Y535178D01*
G37*
G36*
X-103773Y535178D02*
X-99428Y535178D01*
X-95413Y536841D01*
X-92341Y539913D01*
X-90678Y543928D01*
X-90678Y548273D01*
X-92341Y552287D01*
X-95413Y555359D01*
X-99428Y557022D01*
X-103773Y557022D01*
X-107787Y555359D01*
X-110859Y552287D01*
X-112522Y548273D01*
X-112522Y543928D01*
X-110859Y539913D01*
X-107787Y536841D01*
X-103773Y535178D01*
G37*
G36*
X-78373Y535178D02*
X-74028Y535178D01*
X-70013Y536841D01*
X-66941Y539913D01*
X-65278Y543928D01*
X-65278Y548273D01*
X-66941Y552287D01*
X-70013Y555359D01*
X-74028Y557022D01*
X-78373Y557022D01*
X-82387Y555359D01*
X-85459Y552287D01*
X-87122Y548273D01*
X-87122Y543928D01*
X-85459Y539913D01*
X-82387Y536841D01*
X-78373Y535178D01*
G37*
G36*
X124828Y535178D02*
X129173Y535178D01*
X133187Y536841D01*
X136259Y539913D01*
X137922Y543928D01*
X137922Y548273D01*
X136259Y552287D01*
X133187Y555359D01*
X129173Y557022D01*
X124828Y557022D01*
X120813Y555359D01*
X117741Y552287D01*
X116078Y548273D01*
X116078Y543928D01*
X117741Y539913D01*
X120813Y536841D01*
X124828Y535178D01*
G37*
G36*
X99428Y535178D02*
X103773Y535178D01*
X107787Y536841D01*
X110859Y539913D01*
X112522Y543928D01*
X112522Y548273D01*
X110859Y552287D01*
X107787Y555359D01*
X103773Y557022D01*
X99428Y557022D01*
X95413Y555359D01*
X92341Y552287D01*
X90678Y548273D01*
X90678Y543928D01*
X92341Y539913D01*
X95413Y536841D01*
X99428Y535178D01*
G37*
G36*
X74028Y535178D02*
X78373Y535178D01*
X82387Y536841D01*
X85459Y539913D01*
X87122Y543928D01*
X87122Y548273D01*
X85459Y552287D01*
X82387Y555359D01*
X78373Y557022D01*
X74028Y557022D01*
X70013Y555359D01*
X66941Y552287D01*
X65278Y548273D01*
X65278Y543928D01*
X66941Y539913D01*
X70013Y536841D01*
X74028Y535178D01*
G37*
G36*
X-166903Y537036D02*
X-163297Y537036D01*
X-159966Y538416D01*
X-157416Y540966D01*
X-156036Y544297D01*
X-156036Y547903D01*
X-157416Y551234D01*
X-159966Y553784D01*
X-163297Y555164D01*
X-166903Y555164D01*
X-170234Y553784D01*
X-172784Y551234D01*
X-174164Y547903D01*
X-174164Y544297D01*
X-172784Y540966D01*
X-170234Y538416D01*
X-166903Y537036D01*
G37*
G36*
X-129173Y509778D02*
X-124828Y509778D01*
X-120813Y511441D01*
X-117741Y514513D01*
X-116078Y518528D01*
X-116078Y522873D01*
X-117741Y526887D01*
X-120813Y529959D01*
X-124828Y531622D01*
X-129173Y531622D01*
X-133187Y529959D01*
X-136259Y526887D01*
X-137922Y522873D01*
X-137922Y518528D01*
X-136259Y514513D01*
X-133187Y511441D01*
X-129173Y509778D01*
G37*
G36*
X-332373Y509778D02*
X-328028Y509778D01*
X-324013Y511441D01*
X-320941Y514513D01*
X-319278Y518528D01*
X-319278Y522873D01*
X-320941Y526887D01*
X-324013Y529959D01*
X-328028Y531622D01*
X-332373Y531622D01*
X-336387Y529959D01*
X-339459Y526887D01*
X-341122Y522873D01*
X-341122Y518528D01*
X-339459Y514513D01*
X-336387Y511441D01*
X-332373Y509778D01*
G37*
G36*
X-78373Y509778D02*
X-74028Y509778D01*
X-70013Y511441D01*
X-66941Y514513D01*
X-65278Y518528D01*
X-65278Y522873D01*
X-66941Y526887D01*
X-70013Y529959D01*
X-74028Y531622D01*
X-78373Y531622D01*
X-82387Y529959D01*
X-85459Y526887D01*
X-87122Y522873D01*
X-87122Y518528D01*
X-85459Y514513D01*
X-82387Y511441D01*
X-78373Y509778D01*
G37*
G36*
X74028Y509778D02*
X78373Y509778D01*
X82387Y511441D01*
X85459Y514513D01*
X87122Y518528D01*
X87122Y522873D01*
X85459Y526887D01*
X82387Y529959D01*
X78373Y531622D01*
X74028Y531622D01*
X70013Y529959D01*
X66941Y526887D01*
X65278Y522873D01*
X65278Y518528D01*
X66941Y514513D01*
X70013Y511441D01*
X74028Y509778D01*
G37*
G36*
X99428Y509778D02*
X103773Y509778D01*
X107787Y511441D01*
X110859Y514513D01*
X112522Y518528D01*
X112522Y522873D01*
X110859Y526887D01*
X107787Y529959D01*
X103773Y531622D01*
X99428Y531622D01*
X95413Y529959D01*
X92341Y526887D01*
X90678Y522873D01*
X90678Y518528D01*
X92341Y514513D01*
X95413Y511441D01*
X99428Y509778D01*
G37*
G36*
X124828Y509778D02*
X129173Y509778D01*
X133187Y511441D01*
X136259Y514513D01*
X137922Y518528D01*
X137922Y522873D01*
X136259Y526887D01*
X133187Y529959D01*
X129173Y531622D01*
X124828Y531622D01*
X120813Y529959D01*
X117741Y526887D01*
X116078Y522873D01*
X116078Y518528D01*
X117741Y514513D01*
X120813Y511441D01*
X124828Y509778D01*
G37*
G36*
X-103773Y509778D02*
X-99428Y509778D01*
X-95413Y511441D01*
X-92341Y514513D01*
X-90678Y518528D01*
X-90678Y522873D01*
X-92341Y526887D01*
X-95413Y529959D01*
X-99428Y531622D01*
X-103773Y531622D01*
X-107787Y529959D01*
X-110859Y526887D01*
X-112522Y522873D01*
X-112522Y518528D01*
X-110859Y514513D01*
X-107787Y511441D01*
X-103773Y509778D01*
G37*
G36*
X-166903Y511636D02*
X-163297Y511636D01*
X-159966Y513016D01*
X-157416Y515566D01*
X-156036Y518897D01*
X-156036Y522503D01*
X-157416Y525834D01*
X-159966Y528384D01*
X-163297Y529764D01*
X-166903Y529764D01*
X-170234Y528384D01*
X-172784Y525834D01*
X-174164Y522503D01*
X-174164Y518897D01*
X-172784Y515566D01*
X-170234Y513016D01*
X-166903Y511636D01*
G37*
G36*
X187638Y487896D02*
X191983Y487896D01*
X195998Y489559D01*
X199070Y492631D01*
X200733Y496646D01*
X200733Y500991D01*
X199070Y505005D01*
X195998Y508077D01*
X191983Y509740D01*
X187638Y509740D01*
X183624Y508077D01*
X180552Y505005D01*
X178889Y500991D01*
X178889Y496646D01*
X180552Y492631D01*
X182619Y490563D01*
X182920Y490136D01*
X183029Y489693D01*
X183542Y489593D01*
X187638Y487896D01*
G37*
G36*
X-78373Y484378D02*
X-74028Y484378D01*
X-70013Y486041D01*
X-66941Y489113D01*
X-65278Y493128D01*
X-65278Y497473D01*
X-66941Y501487D01*
X-70013Y504559D01*
X-74028Y506222D01*
X-78373Y506222D01*
X-82387Y504559D01*
X-85459Y501487D01*
X-87122Y497473D01*
X-87122Y493128D01*
X-85459Y489113D01*
X-82387Y486041D01*
X-78373Y484378D01*
G37*
G36*
X-103773Y484378D02*
X-99428Y484378D01*
X-95413Y486041D01*
X-92341Y489113D01*
X-90678Y493128D01*
X-90678Y497473D01*
X-92341Y501487D01*
X-95413Y504559D01*
X-99428Y506222D01*
X-103773Y506222D01*
X-107787Y504559D01*
X-110859Y501487D01*
X-112522Y497473D01*
X-112522Y493128D01*
X-110859Y489113D01*
X-107787Y486041D01*
X-103773Y484378D01*
G37*
G36*
X-129173Y484378D02*
X-124828Y484378D01*
X-120813Y486041D01*
X-117741Y489113D01*
X-116078Y493128D01*
X-116078Y497473D01*
X-117741Y501487D01*
X-120813Y504559D01*
X-124828Y506222D01*
X-129173Y506222D01*
X-133187Y504559D01*
X-136259Y501487D01*
X-137922Y497473D01*
X-137922Y493128D01*
X-136259Y489113D01*
X-133187Y486041D01*
X-129173Y484378D01*
G37*
G36*
X-332373Y484378D02*
X-328028Y484378D01*
X-324013Y486041D01*
X-320941Y489113D01*
X-319278Y493128D01*
X-319278Y497473D01*
X-320941Y501487D01*
X-324013Y504559D01*
X-328028Y506222D01*
X-332373Y506222D01*
X-336387Y504559D01*
X-339459Y501487D01*
X-341122Y497473D01*
X-341122Y493128D01*
X-339459Y489113D01*
X-336387Y486041D01*
X-332373Y484378D01*
G37*
G36*
X99428Y484378D02*
X103773Y484378D01*
X107787Y486041D01*
X110859Y489113D01*
X112522Y493128D01*
X112522Y497473D01*
X110859Y501487D01*
X107787Y504559D01*
X103773Y506222D01*
X99428Y506222D01*
X95413Y504559D01*
X92341Y501487D01*
X90678Y497473D01*
X90678Y493128D01*
X92341Y489113D01*
X95413Y486041D01*
X99428Y484378D01*
G37*
G36*
X74028Y484378D02*
X78373Y484378D01*
X82387Y486041D01*
X85459Y489113D01*
X87122Y493128D01*
X87122Y497473D01*
X85459Y501487D01*
X82387Y504559D01*
X78373Y506222D01*
X74028Y506222D01*
X70013Y504559D01*
X66941Y501487D01*
X65278Y497473D01*
X65278Y493128D01*
X66941Y489113D01*
X70013Y486041D01*
X74028Y484378D01*
G37*
G36*
X-166903Y486236D02*
X-163297Y486236D01*
X-159966Y487616D01*
X-157416Y490166D01*
X-156036Y493497D01*
X-156036Y497103D01*
X-157416Y500434D01*
X-159966Y502984D01*
X-163297Y504364D01*
X-166903Y504364D01*
X-170234Y502984D01*
X-172784Y500434D01*
X-174164Y497103D01*
X-174164Y493497D01*
X-172784Y490166D01*
X-170234Y487616D01*
X-166903Y486236D01*
G37*
G36*
X124828Y458978D02*
X129173Y458978D01*
X133187Y460641D01*
X136259Y463713D01*
X137485Y466673D01*
X137799Y467150D01*
X138299Y467493D01*
X138893Y467614D01*
X143383Y467614D01*
X143932Y467512D01*
X144443Y467185D01*
X144786Y466684D01*
X144907Y466090D01*
X144907Y462919D01*
X145800Y462026D01*
X153666Y462026D01*
X153862Y462222D01*
X154323Y462538D01*
X154916Y462668D01*
X155512Y462557D01*
X156018Y462222D01*
X156214Y462026D01*
X164080Y462026D01*
X164973Y462919D01*
X164973Y466852D01*
X165084Y467424D01*
X165419Y467930D01*
X175376Y477886D01*
X175848Y478207D01*
X176441Y478332D01*
X176566Y478308D01*
X177734Y478308D01*
X178272Y478210D01*
X178785Y477887D01*
X179132Y477389D01*
X179257Y476796D01*
X179142Y476201D01*
X178889Y475591D01*
X178889Y471246D01*
X180552Y467231D01*
X183624Y464159D01*
X187638Y462496D01*
X191983Y462496D01*
X195998Y464159D01*
X199070Y467231D01*
X200733Y471246D01*
X200733Y475591D01*
X199070Y479605D01*
X195998Y482677D01*
X191983Y484340D01*
X187638Y484340D01*
X185284Y483365D01*
X184749Y483249D01*
X184151Y483351D01*
X183640Y483678D01*
X183297Y484178D01*
X183218Y484569D01*
X182369Y486619D01*
X181881Y487107D01*
X181580Y487535D01*
X181471Y487978D01*
X180959Y488078D01*
X178926Y488920D01*
X176815Y488920D01*
X174865Y488112D01*
X173372Y486619D01*
X172565Y484669D01*
X172565Y482337D01*
X172589Y482221D01*
X172478Y481624D01*
X172143Y481119D01*
X167517Y476493D01*
X167056Y476177D01*
X166463Y476047D01*
X165867Y476158D01*
X165362Y476493D01*
X164080Y477774D01*
X156214Y477774D01*
X156018Y477578D01*
X155557Y477262D01*
X154964Y477132D01*
X154368Y477243D01*
X153862Y477578D01*
X153666Y477774D01*
X145800Y477774D01*
X144907Y476881D01*
X144907Y473710D01*
X144805Y473161D01*
X144478Y472650D01*
X143977Y472307D01*
X143383Y472186D01*
X138893Y472186D01*
X138333Y472293D01*
X137824Y472624D01*
X137485Y473127D01*
X136259Y476087D01*
X133187Y479159D01*
X129173Y480822D01*
X124828Y480822D01*
X120813Y479159D01*
X117741Y476087D01*
X116078Y472073D01*
X116078Y467728D01*
X117741Y463713D01*
X120813Y460641D01*
X124828Y458978D01*
G37*
G36*
X-266065Y470662D02*
X-254762Y470662D01*
X-254762Y481965D01*
X-258997Y481965D01*
X-266065Y474897D01*
X-266065Y470662D01*
G37*
G36*
X-253238Y470662D02*
X-241935Y470662D01*
X-241935Y474897D01*
X-249003Y481965D01*
X-253238Y481965D01*
X-253238Y470662D01*
G37*
G36*
X-205398Y458851D02*
X-201002Y458851D01*
X-196941Y460533D01*
X-193833Y463641D01*
X-192151Y467702D01*
X-192151Y472098D01*
X-193833Y476159D01*
X-196941Y479267D01*
X-201002Y480949D01*
X-205398Y480949D01*
X-209459Y479267D01*
X-212567Y476159D01*
X-214249Y472098D01*
X-214249Y467702D01*
X-212567Y463641D01*
X-209459Y460533D01*
X-205398Y458851D01*
G37*
G36*
X-103773Y458978D02*
X-99428Y458978D01*
X-95413Y460641D01*
X-92341Y463713D01*
X-90678Y467728D01*
X-90678Y472073D01*
X-92341Y476087D01*
X-95413Y479159D01*
X-99428Y480822D01*
X-103773Y480822D01*
X-107787Y479159D01*
X-110859Y476087D01*
X-112522Y472073D01*
X-112522Y467728D01*
X-110859Y463713D01*
X-107787Y460641D01*
X-103773Y458978D01*
G37*
G36*
X-332373Y458978D02*
X-328028Y458978D01*
X-324013Y460641D01*
X-320941Y463713D01*
X-319278Y467728D01*
X-319278Y472073D01*
X-320941Y476087D01*
X-324013Y479159D01*
X-328028Y480822D01*
X-332373Y480822D01*
X-336387Y479159D01*
X-339459Y476087D01*
X-341122Y472073D01*
X-341122Y467728D01*
X-339459Y463713D01*
X-336387Y460641D01*
X-332373Y458978D01*
G37*
G36*
X74028Y458978D02*
X78373Y458978D01*
X82387Y460641D01*
X85459Y463713D01*
X87122Y467728D01*
X87122Y472073D01*
X85459Y476087D01*
X82387Y479159D01*
X78373Y480822D01*
X74028Y480822D01*
X70013Y479159D01*
X66941Y476087D01*
X65278Y472073D01*
X65278Y467728D01*
X66941Y463713D01*
X70013Y460641D01*
X74028Y458978D01*
G37*
G36*
X99428Y458978D02*
X103773Y458978D01*
X107787Y460641D01*
X110859Y463713D01*
X112522Y467728D01*
X112522Y472073D01*
X110859Y476087D01*
X107787Y479159D01*
X103773Y480822D01*
X99428Y480822D01*
X95413Y479159D01*
X92341Y476087D01*
X90678Y472073D01*
X90678Y467728D01*
X92341Y463713D01*
X95413Y460641D01*
X99428Y458978D01*
G37*
G36*
X-129173Y458978D02*
X-124828Y458978D01*
X-120813Y460641D01*
X-117741Y463713D01*
X-116078Y467728D01*
X-116078Y472073D01*
X-117741Y476087D01*
X-120813Y479159D01*
X-124828Y480822D01*
X-129173Y480822D01*
X-133187Y479159D01*
X-136259Y476087D01*
X-137922Y472073D01*
X-137922Y467728D01*
X-136259Y463713D01*
X-133187Y460641D01*
X-129173Y458978D01*
G37*
G36*
X-166903Y460836D02*
X-163297Y460836D01*
X-159966Y462216D01*
X-157416Y464766D01*
X-156036Y468097D01*
X-156036Y471703D01*
X-157416Y475034D01*
X-159966Y477584D01*
X-163297Y478964D01*
X-166903Y478964D01*
X-170234Y477584D01*
X-172784Y475034D01*
X-174164Y471703D01*
X-174164Y468097D01*
X-172784Y464766D01*
X-170234Y462216D01*
X-166903Y460836D01*
G37*
G36*
X-258997Y457835D02*
X-254762Y457835D01*
X-254762Y469138D01*
X-266065Y469138D01*
X-266065Y464903D01*
X-258997Y457835D01*
G37*
G36*
X-253238Y457835D02*
X-249003Y457835D01*
X-241935Y464903D01*
X-241935Y469138D01*
X-253238Y469138D01*
X-253238Y457835D01*
G37*
G36*
X187638Y437096D02*
X191983Y437096D01*
X195998Y438759D01*
X199070Y441831D01*
X200733Y445846D01*
X200733Y450191D01*
X199070Y454205D01*
X195998Y457277D01*
X191983Y458940D01*
X187638Y458940D01*
X183624Y457277D01*
X180552Y454205D01*
X178889Y450191D01*
X178889Y445846D01*
X180552Y441831D01*
X183624Y438759D01*
X187638Y437096D01*
G37*
G36*
X99428Y433578D02*
X103773Y433578D01*
X107787Y435241D01*
X110859Y438313D01*
X112522Y442328D01*
X112522Y446673D01*
X110859Y450687D01*
X107787Y453759D01*
X103773Y455422D01*
X99428Y455422D01*
X95413Y453759D01*
X92341Y450687D01*
X90678Y446673D01*
X90678Y442328D01*
X92341Y438313D01*
X95413Y435241D01*
X99428Y433578D01*
G37*
G36*
X124828Y433578D02*
X129173Y433578D01*
X133187Y435241D01*
X136259Y438313D01*
X137922Y442328D01*
X137922Y446673D01*
X136259Y450687D01*
X133187Y453759D01*
X129173Y455422D01*
X124828Y455422D01*
X120813Y453759D01*
X117741Y450687D01*
X116078Y446673D01*
X116078Y442328D01*
X117741Y438313D01*
X120813Y435241D01*
X124828Y433578D01*
G37*
G36*
X-103773Y433578D02*
X-99428Y433578D01*
X-95413Y435241D01*
X-92341Y438313D01*
X-90678Y442328D01*
X-90678Y446673D01*
X-92341Y450687D01*
X-95413Y453759D01*
X-99428Y455422D01*
X-103773Y455422D01*
X-107787Y453759D01*
X-110859Y450687D01*
X-112522Y446673D01*
X-112522Y442328D01*
X-110859Y438313D01*
X-107787Y435241D01*
X-103773Y433578D01*
G37*
G36*
X-129173Y433578D02*
X-124828Y433578D01*
X-120813Y435241D01*
X-117741Y438313D01*
X-116078Y442328D01*
X-116078Y446673D01*
X-117741Y450687D01*
X-120813Y453759D01*
X-124828Y455422D01*
X-129173Y455422D01*
X-133187Y453759D01*
X-136259Y450687D01*
X-137922Y446673D01*
X-137922Y442328D01*
X-136259Y438313D01*
X-133187Y435241D01*
X-129173Y433578D01*
G37*
G36*
X74028Y433578D02*
X78373Y433578D01*
X82387Y435241D01*
X85459Y438313D01*
X87122Y442328D01*
X87122Y446673D01*
X85459Y450687D01*
X82387Y453759D01*
X78373Y455422D01*
X74028Y455422D01*
X70013Y453759D01*
X66941Y450687D01*
X65278Y446673D01*
X65278Y442328D01*
X66941Y438313D01*
X70013Y435241D01*
X74028Y433578D01*
G37*
G36*
X-291338Y445262D02*
X-282020Y445262D01*
X-282020Y446505D01*
X-283555Y450210D01*
X-286390Y453045D01*
X-290095Y454580D01*
X-291338Y454580D01*
X-291338Y445262D01*
G37*
G36*
X-166903Y435436D02*
X-163297Y435436D01*
X-159966Y436816D01*
X-157416Y439366D01*
X-156036Y442697D01*
X-156036Y446303D01*
X-157416Y449634D01*
X-159966Y452184D01*
X-163297Y453564D01*
X-166903Y453564D01*
X-170234Y452184D01*
X-172784Y449634D01*
X-174164Y446303D01*
X-174164Y442697D01*
X-172784Y439366D01*
X-170234Y436816D01*
X-166903Y435436D01*
G37*
G36*
X-291338Y434420D02*
X-290095Y434420D01*
X-286390Y435955D01*
X-283555Y438790D01*
X-282020Y442495D01*
X-282020Y443738D01*
X-291338Y443738D01*
X-291338Y434420D01*
G37*
G36*
X229362Y426212D02*
X240538Y426212D01*
X240538Y437388D01*
X238925Y437388D01*
X234538Y435571D01*
X231179Y432212D01*
X229362Y427825D01*
X229362Y426212D01*
G37*
G36*
X242062Y426212D02*
X253238Y426212D01*
X253238Y427825D01*
X251421Y432212D01*
X248062Y435571D01*
X243675Y437388D01*
X242062Y437388D01*
X242062Y426212D01*
G37*
G36*
X-129173Y357378D02*
X-124828Y357378D01*
X-120813Y359041D01*
X-117741Y362113D01*
X-116078Y366128D01*
X-116078Y370473D01*
X-117741Y374487D01*
X-120813Y377559D01*
X-124393Y379042D01*
X-124844Y379330D01*
X-125199Y379822D01*
X-125334Y380414D01*
X-125227Y381011D01*
X-124896Y381519D01*
X-124393Y381858D01*
X-120238Y383579D01*
X-116879Y386938D01*
X-115708Y389766D01*
X-115420Y390216D01*
X-114928Y390571D01*
X-114336Y390706D01*
X-113739Y390600D01*
X-113231Y390269D01*
X-112892Y389766D01*
X-111721Y386938D01*
X-108362Y383579D01*
X-104207Y381858D01*
X-103756Y381570D01*
X-103401Y381078D01*
X-103266Y380487D01*
X-103373Y379889D01*
X-103704Y379381D01*
X-104207Y379042D01*
X-107787Y377559D01*
X-110859Y374487D01*
X-112522Y370473D01*
X-112522Y366128D01*
X-110859Y362113D01*
X-107787Y359041D01*
X-103773Y357378D01*
X-99428Y357378D01*
X-95413Y359041D01*
X-92341Y362113D01*
X-90678Y366128D01*
X-90678Y370473D01*
X-92341Y374487D01*
X-95413Y377559D01*
X-98993Y379042D01*
X-99444Y379330D01*
X-99799Y379822D01*
X-99934Y380414D01*
X-99827Y381011D01*
X-99496Y381519D01*
X-98993Y381858D01*
X-94838Y383579D01*
X-91479Y386938D01*
X-90308Y389766D01*
X-90020Y390216D01*
X-89528Y390571D01*
X-88936Y390706D01*
X-88339Y390600D01*
X-87831Y390269D01*
X-87492Y389766D01*
X-86321Y386938D01*
X-82962Y383579D01*
X-78807Y381858D01*
X-78356Y381570D01*
X-78001Y381078D01*
X-77866Y380487D01*
X-77973Y379889D01*
X-78304Y379381D01*
X-78807Y379042D01*
X-82387Y377559D01*
X-85459Y374487D01*
X-87122Y370473D01*
X-87122Y366128D01*
X-85459Y362113D01*
X-82387Y359041D01*
X-78373Y357378D01*
X-74028Y357378D01*
X-70013Y359041D01*
X-66941Y362113D01*
X-66030Y364311D01*
X-65717Y364788D01*
X-65217Y365131D01*
X-64622Y365252D01*
X-61087Y365252D01*
X-60538Y365150D01*
X-60027Y364823D01*
X-59684Y364322D01*
X-59563Y363728D01*
X-59563Y361319D01*
X-58670Y360426D01*
X-42930Y360426D01*
X-42037Y361319D01*
X-42037Y368712D01*
X-41887Y369371D01*
X-41522Y369854D01*
X-38818Y372242D01*
X-38415Y372498D01*
X-37822Y372623D01*
X-37226Y372507D01*
X-35079Y371618D01*
X-32969Y371618D01*
X-31018Y372426D01*
X-29526Y373918D01*
X-28718Y375869D01*
X-28718Y377979D01*
X-29526Y379930D01*
X-31018Y381422D01*
X-32969Y382230D01*
X-35079Y382230D01*
X-37030Y381422D01*
X-38522Y379930D01*
X-39254Y378163D01*
X-39653Y377603D01*
X-41079Y376345D01*
X-41471Y376093D01*
X-42063Y375963D01*
X-42660Y376075D01*
X-42810Y376174D01*
X-58670Y376174D01*
X-59563Y375281D01*
X-59563Y372872D01*
X-59665Y372323D01*
X-59992Y371812D01*
X-60493Y371469D01*
X-61087Y371348D01*
X-64622Y371348D01*
X-65183Y371455D01*
X-65691Y371786D01*
X-66030Y372289D01*
X-66941Y374487D01*
X-70013Y377559D01*
X-73593Y379042D01*
X-74044Y379330D01*
X-74399Y379822D01*
X-74534Y380414D01*
X-74427Y381011D01*
X-74096Y381519D01*
X-73593Y381858D01*
X-69438Y383579D01*
X-66079Y386938D01*
X-64262Y391325D01*
X-64262Y392938D01*
X-76962Y392938D01*
X-76962Y394462D01*
X-64262Y394462D01*
X-64262Y396075D01*
X-66079Y400462D01*
X-69438Y403821D01*
X-73593Y405542D01*
X-74044Y405830D01*
X-74399Y406322D01*
X-74534Y406913D01*
X-74427Y407511D01*
X-74096Y408019D01*
X-73593Y408358D01*
X-70013Y409841D01*
X-66941Y412913D01*
X-65278Y416928D01*
X-65278Y421273D01*
X-66941Y425287D01*
X-70013Y428359D01*
X-74028Y430022D01*
X-78373Y430022D01*
X-82387Y428359D01*
X-85459Y425287D01*
X-87122Y421273D01*
X-87122Y416928D01*
X-85459Y412913D01*
X-82387Y409841D01*
X-78807Y408358D01*
X-78356Y408070D01*
X-78001Y407578D01*
X-77866Y406986D01*
X-77973Y406389D01*
X-78304Y405881D01*
X-78807Y405542D01*
X-82962Y403821D01*
X-86321Y400462D01*
X-87492Y397634D01*
X-87780Y397184D01*
X-88272Y396829D01*
X-88864Y396694D01*
X-89461Y396800D01*
X-89969Y397131D01*
X-90308Y397634D01*
X-91479Y400462D01*
X-94838Y403821D01*
X-98993Y405542D01*
X-99444Y405830D01*
X-99799Y406322D01*
X-99934Y406913D01*
X-99827Y407511D01*
X-99496Y408019D01*
X-98993Y408358D01*
X-95413Y409841D01*
X-92341Y412913D01*
X-90678Y416928D01*
X-90678Y421273D01*
X-92341Y425287D01*
X-95413Y428359D01*
X-99428Y430022D01*
X-103773Y430022D01*
X-107787Y428359D01*
X-110859Y425287D01*
X-112522Y421273D01*
X-112522Y416928D01*
X-110859Y412913D01*
X-107787Y409841D01*
X-104207Y408358D01*
X-103756Y408070D01*
X-103401Y407578D01*
X-103266Y406986D01*
X-103373Y406389D01*
X-103704Y405881D01*
X-104207Y405542D01*
X-108362Y403821D01*
X-111721Y400462D01*
X-112892Y397634D01*
X-113180Y397184D01*
X-113672Y396829D01*
X-114264Y396694D01*
X-114861Y396800D01*
X-115369Y397131D01*
X-115708Y397634D01*
X-116879Y400462D01*
X-120238Y403821D01*
X-124393Y405542D01*
X-124844Y405830D01*
X-125199Y406322D01*
X-125334Y406913D01*
X-125227Y407511D01*
X-124896Y408019D01*
X-124393Y408358D01*
X-120813Y409841D01*
X-117741Y412913D01*
X-116078Y416928D01*
X-116078Y421273D01*
X-117741Y425287D01*
X-120813Y428359D01*
X-124828Y430022D01*
X-129173Y430022D01*
X-133187Y428359D01*
X-136259Y425287D01*
X-137922Y421273D01*
X-137922Y416928D01*
X-136259Y412913D01*
X-133187Y409841D01*
X-129607Y408358D01*
X-129156Y408070D01*
X-128801Y407578D01*
X-128666Y406986D01*
X-128773Y406389D01*
X-129104Y405881D01*
X-129607Y405542D01*
X-133762Y403821D01*
X-137121Y400462D01*
X-138938Y396075D01*
X-138938Y394462D01*
X-126238Y394462D01*
X-126238Y392938D01*
X-138938Y392938D01*
X-138938Y391325D01*
X-137121Y386938D01*
X-133762Y383579D01*
X-129607Y381858D01*
X-129156Y381570D01*
X-128801Y381078D01*
X-128666Y380487D01*
X-128773Y379889D01*
X-129104Y379381D01*
X-129607Y379042D01*
X-133187Y377559D01*
X-136259Y374487D01*
X-137922Y370473D01*
X-137922Y366128D01*
X-136259Y362113D01*
X-133187Y359041D01*
X-129173Y357378D01*
G37*
G36*
X74028Y408178D02*
X78373Y408178D01*
X82387Y409841D01*
X85459Y412913D01*
X87122Y416928D01*
X87122Y421273D01*
X85459Y425287D01*
X82387Y428359D01*
X78373Y430022D01*
X74028Y430022D01*
X70013Y428359D01*
X66941Y425287D01*
X65278Y421273D01*
X65278Y416928D01*
X66941Y412913D01*
X70013Y409841D01*
X74028Y408178D01*
G37*
G36*
X124828Y408178D02*
X129173Y408178D01*
X133187Y409841D01*
X136259Y412913D01*
X137922Y416928D01*
X137922Y421273D01*
X136259Y425287D01*
X133187Y428359D01*
X129173Y430022D01*
X124828Y430022D01*
X120813Y428359D01*
X117741Y425287D01*
X116078Y421273D01*
X116078Y416928D01*
X117741Y412913D01*
X120813Y409841D01*
X124828Y408178D01*
G37*
G36*
X99428Y408178D02*
X103773Y408178D01*
X107787Y409841D01*
X110859Y412913D01*
X112522Y416928D01*
X112522Y421273D01*
X110859Y425287D01*
X107787Y428359D01*
X103773Y430022D01*
X99428Y430022D01*
X95413Y428359D01*
X92341Y425287D01*
X90678Y421273D01*
X90678Y416928D01*
X92341Y412913D01*
X95413Y409841D01*
X99428Y408178D01*
G37*
G36*
X-192303Y410036D02*
X-188697Y410036D01*
X-185366Y411416D01*
X-182816Y413966D01*
X-181436Y417297D01*
X-181436Y420903D01*
X-182816Y424234D01*
X-185366Y426784D01*
X-188697Y428164D01*
X-192303Y428164D01*
X-195634Y426784D01*
X-198184Y424234D01*
X-199564Y420903D01*
X-199564Y417297D01*
X-198184Y413966D01*
X-195634Y411416D01*
X-192303Y410036D01*
G37*
G36*
X-166903Y410036D02*
X-163297Y410036D01*
X-159966Y411416D01*
X-157416Y413966D01*
X-156036Y417297D01*
X-156036Y420903D01*
X-157416Y424234D01*
X-159966Y426784D01*
X-163297Y428164D01*
X-166903Y428164D01*
X-170234Y426784D01*
X-172784Y424234D01*
X-174164Y420903D01*
X-174164Y417297D01*
X-172784Y413966D01*
X-170234Y411416D01*
X-166903Y410036D01*
G37*
G36*
X-217703Y410036D02*
X-214097Y410036D01*
X-210766Y411416D01*
X-208216Y413966D01*
X-206836Y417297D01*
X-206836Y420903D01*
X-208216Y424234D01*
X-210766Y426784D01*
X-214097Y428164D01*
X-217703Y428164D01*
X-221034Y426784D01*
X-223584Y424234D01*
X-224964Y420903D01*
X-224964Y417297D01*
X-223584Y413966D01*
X-221034Y411416D01*
X-217703Y410036D01*
G37*
G36*
X74028Y382778D02*
X78373Y382778D01*
X82387Y384441D01*
X85459Y387513D01*
X87122Y391528D01*
X87122Y395873D01*
X85459Y399887D01*
X82387Y402959D01*
X78373Y404622D01*
X74028Y404622D01*
X70013Y402959D01*
X66941Y399887D01*
X65278Y395873D01*
X65278Y391528D01*
X66941Y387513D01*
X70013Y384441D01*
X74028Y382778D01*
G37*
G36*
X175628Y382270D02*
X179973Y382270D01*
X183987Y383933D01*
X187059Y387005D01*
X188722Y391020D01*
X188722Y395365D01*
X187059Y399379D01*
X183987Y402451D01*
X179973Y404114D01*
X175628Y404114D01*
X171613Y402451D01*
X168541Y399379D01*
X166878Y395365D01*
X166878Y391020D01*
X168541Y387005D01*
X171613Y383933D01*
X175628Y382270D01*
G37*
G36*
X99428Y357378D02*
X103773Y357378D01*
X107787Y359041D01*
X110859Y362113D01*
X112522Y366128D01*
X112522Y370473D01*
X110859Y374487D01*
X107787Y377559D01*
X103492Y379338D01*
X103042Y379626D01*
X102687Y380118D01*
X102552Y380710D01*
X102659Y381307D01*
X102989Y381815D01*
X103492Y382154D01*
X107787Y383933D01*
X110859Y387005D01*
X112522Y391020D01*
X112522Y395365D01*
X110859Y399379D01*
X107787Y402451D01*
X103773Y404114D01*
X99428Y404114D01*
X95413Y402451D01*
X92341Y399379D01*
X90678Y395365D01*
X90678Y391020D01*
X92341Y387005D01*
X95413Y383933D01*
X99708Y382154D01*
X100158Y381866D01*
X100513Y381374D01*
X100648Y380782D01*
X100541Y380185D01*
X100211Y379677D01*
X99708Y379338D01*
X95413Y377559D01*
X92341Y374487D01*
X90678Y370473D01*
X90678Y366128D01*
X92341Y362113D01*
X95413Y359041D01*
X99428Y357378D01*
G37*
G36*
X124828Y357378D02*
X129173Y357378D01*
X133187Y359041D01*
X136259Y362113D01*
X137922Y366128D01*
X137922Y370473D01*
X136259Y374487D01*
X133187Y377559D01*
X128892Y379338D01*
X128442Y379626D01*
X128087Y380118D01*
X127952Y380710D01*
X128059Y381307D01*
X128389Y381815D01*
X128892Y382154D01*
X133187Y383933D01*
X136259Y387005D01*
X137922Y391020D01*
X137922Y395365D01*
X136259Y399379D01*
X133187Y402451D01*
X129173Y404114D01*
X124828Y404114D01*
X120813Y402451D01*
X117741Y399379D01*
X116078Y395365D01*
X116078Y391020D01*
X117741Y387005D01*
X120813Y383933D01*
X125108Y382154D01*
X125558Y381866D01*
X125913Y381374D01*
X126048Y380782D01*
X125941Y380185D01*
X125611Y379677D01*
X125108Y379338D01*
X120813Y377559D01*
X117741Y374487D01*
X116078Y370473D01*
X116078Y366128D01*
X117741Y362113D01*
X120813Y359041D01*
X124828Y357378D01*
G37*
G36*
X150228Y382270D02*
X154573Y382270D01*
X158587Y383933D01*
X161659Y387005D01*
X163322Y391020D01*
X163322Y395365D01*
X161659Y399379D01*
X158587Y402451D01*
X154573Y404114D01*
X150228Y404114D01*
X146213Y402451D01*
X143141Y399379D01*
X141478Y395365D01*
X141478Y391020D01*
X143141Y387005D01*
X146213Y383933D01*
X150228Y382270D01*
G37*
G36*
X74028Y357378D02*
X78373Y357378D01*
X82387Y359041D01*
X85459Y362113D01*
X87122Y366128D01*
X87122Y370473D01*
X85459Y374487D01*
X82387Y377559D01*
X78373Y379222D01*
X74028Y379222D01*
X70013Y377559D01*
X66941Y374487D01*
X66030Y372289D01*
X65717Y371812D01*
X65217Y371469D01*
X64622Y371348D01*
X62357Y371348D01*
X61808Y371450D01*
X61297Y371777D01*
X60954Y372278D01*
X60833Y372872D01*
X60833Y375281D01*
X59940Y376174D01*
X52074Y376174D01*
X51878Y375978D01*
X51417Y375662D01*
X50824Y375532D01*
X50228Y375643D01*
X49722Y375978D01*
X49526Y376174D01*
X46790Y376174D01*
X46218Y376285D01*
X45713Y376620D01*
X43828Y378505D01*
X43507Y378977D01*
X43382Y379571D01*
X43406Y379696D01*
X43406Y382055D01*
X42598Y384006D01*
X41106Y385498D01*
X39155Y386306D01*
X37045Y386306D01*
X35094Y385498D01*
X33602Y384006D01*
X32794Y382055D01*
X32794Y379945D01*
X33602Y377994D01*
X35094Y376502D01*
X37045Y375694D01*
X39243Y375694D01*
X39792Y375592D01*
X40303Y375265D01*
X40646Y374764D01*
X40767Y374170D01*
X40767Y361319D01*
X41660Y360426D01*
X49526Y360426D01*
X49722Y360622D01*
X50183Y360938D01*
X50776Y361068D01*
X51372Y360957D01*
X51878Y360622D01*
X52074Y360426D01*
X59940Y360426D01*
X60833Y361319D01*
X60833Y363728D01*
X60935Y364277D01*
X61262Y364788D01*
X61763Y365131D01*
X62357Y365252D01*
X64622Y365252D01*
X65183Y365145D01*
X65691Y364814D01*
X66030Y364311D01*
X66941Y362113D01*
X70013Y359041D01*
X74028Y357378D01*
G37*
G36*
X-292147Y369366D02*
X-282829Y369366D01*
X-282829Y377196D01*
X-284317Y378684D01*
X-292147Y378684D01*
X-292147Y369366D01*
G37*
G36*
X-167712Y359540D02*
X-164106Y359540D01*
X-160775Y360920D01*
X-158225Y363469D01*
X-156845Y366801D01*
X-156845Y370406D01*
X-158225Y373738D01*
X-160775Y376288D01*
X-164106Y377668D01*
X-167712Y377668D01*
X-171043Y376288D01*
X-173593Y373738D01*
X-174973Y370406D01*
X-174973Y366801D01*
X-173593Y363469D01*
X-171043Y360920D01*
X-167712Y359540D01*
G37*
G36*
X-292147Y358524D02*
X-284317Y358524D01*
X-282829Y360011D01*
X-282829Y367842D01*
X-292147Y367842D01*
X-292147Y358524D01*
G37*
G36*
X74028Y306578D02*
X78373Y306578D01*
X82387Y308241D01*
X85459Y311313D01*
X87122Y315328D01*
X87122Y319673D01*
X85459Y323687D01*
X82387Y326759D01*
X78373Y328422D01*
X74028Y328422D01*
X70013Y326759D01*
X66941Y323687D01*
X65715Y320727D01*
X65401Y320250D01*
X64901Y319907D01*
X64307Y319786D01*
X61087Y319786D01*
X60538Y319888D01*
X60027Y320215D01*
X59684Y320716D01*
X59563Y321310D01*
X59563Y324481D01*
X58670Y325374D01*
X49403Y325374D01*
X48854Y325476D01*
X48343Y325803D01*
X48000Y326304D01*
X47879Y326898D01*
X47879Y328660D01*
X47954Y329037D01*
X47954Y331255D01*
X47160Y333173D01*
X47045Y333707D01*
X47146Y334305D01*
X47473Y334816D01*
X47973Y335159D01*
X48568Y335280D01*
X58670Y335280D01*
X59563Y336173D01*
X59563Y339344D01*
X59665Y339893D01*
X59992Y340404D01*
X60493Y340747D01*
X61087Y340868D01*
X64202Y340868D01*
X64762Y340761D01*
X65271Y340430D01*
X65610Y339927D01*
X66941Y336713D01*
X70013Y333641D01*
X74028Y331978D01*
X78373Y331978D01*
X82387Y333641D01*
X85459Y336713D01*
X87122Y340728D01*
X87122Y345073D01*
X85459Y349087D01*
X82387Y352159D01*
X78373Y353822D01*
X74028Y353822D01*
X70013Y352159D01*
X66941Y349087D01*
X65820Y346381D01*
X65507Y345904D01*
X65006Y345561D01*
X64412Y345440D01*
X61087Y345440D01*
X60538Y345542D01*
X60027Y345869D01*
X59684Y346370D01*
X59563Y346964D01*
X59563Y350135D01*
X58670Y351028D01*
X42930Y351028D01*
X42320Y350418D01*
X41859Y350102D01*
X41267Y349972D01*
X40670Y350083D01*
X40165Y350418D01*
X40018Y350565D01*
X39697Y351037D01*
X39572Y351631D01*
X39596Y351756D01*
X39596Y354115D01*
X38788Y356066D01*
X37296Y357558D01*
X35345Y358366D01*
X33235Y358366D01*
X31284Y357558D01*
X29792Y356066D01*
X28984Y354115D01*
X28984Y352005D01*
X29792Y350054D01*
X31284Y348562D01*
X33235Y347754D01*
X35566Y347754D01*
X35683Y347778D01*
X36279Y347667D01*
X36785Y347332D01*
X41591Y342526D01*
X41916Y342043D01*
X42037Y341449D01*
X42037Y336708D01*
X41930Y336148D01*
X41599Y335639D01*
X41096Y335300D01*
X39642Y334698D01*
X38150Y333206D01*
X37342Y331255D01*
X37342Y329145D01*
X38150Y327194D01*
X39642Y325702D01*
X41096Y325100D01*
X41573Y324786D01*
X41916Y324286D01*
X42037Y323692D01*
X42037Y310519D01*
X42930Y309626D01*
X58670Y309626D01*
X59563Y310519D01*
X59563Y313690D01*
X59665Y314239D01*
X59992Y314750D01*
X60493Y315093D01*
X61087Y315214D01*
X64307Y315214D01*
X64867Y315107D01*
X65376Y314776D01*
X65715Y314273D01*
X66941Y311313D01*
X70013Y308241D01*
X74028Y306578D01*
G37*
G36*
X124828Y331978D02*
X129173Y331978D01*
X133187Y333641D01*
X136259Y336713D01*
X137922Y340728D01*
X137922Y345073D01*
X136259Y349087D01*
X133187Y352159D01*
X129173Y353822D01*
X124828Y353822D01*
X120813Y352159D01*
X117741Y349087D01*
X116078Y345073D01*
X116078Y340728D01*
X117741Y336713D01*
X120813Y333641D01*
X124828Y331978D01*
G37*
G36*
X99428Y331978D02*
X103773Y331978D01*
X107787Y333641D01*
X110859Y336713D01*
X112522Y340728D01*
X112522Y345073D01*
X110859Y349087D01*
X107787Y352159D01*
X103773Y353822D01*
X99428Y353822D01*
X95413Y352159D01*
X92341Y349087D01*
X90678Y345073D01*
X90678Y340728D01*
X92341Y336713D01*
X95413Y333641D01*
X99428Y331978D01*
G37*
G36*
X-78373Y331978D02*
X-74028Y331978D01*
X-70013Y333641D01*
X-66941Y336713D01*
X-65278Y340728D01*
X-65278Y345073D01*
X-66941Y349087D01*
X-70013Y352159D01*
X-74028Y353822D01*
X-78373Y353822D01*
X-82387Y352159D01*
X-85459Y349087D01*
X-87122Y345073D01*
X-87122Y340728D01*
X-85459Y336713D01*
X-82387Y333641D01*
X-78373Y331978D01*
G37*
G36*
X-103773Y331978D02*
X-99428Y331978D01*
X-95413Y333641D01*
X-92341Y336713D01*
X-90678Y340728D01*
X-90678Y345073D01*
X-92341Y349087D01*
X-95413Y352159D01*
X-99428Y353822D01*
X-103773Y353822D01*
X-107787Y352159D01*
X-110859Y349087D01*
X-112522Y345073D01*
X-112522Y340728D01*
X-110859Y336713D01*
X-107787Y333641D01*
X-103773Y331978D01*
G37*
G36*
X-129173Y331978D02*
X-124828Y331978D01*
X-120813Y333641D01*
X-117741Y336713D01*
X-116078Y340728D01*
X-116078Y345073D01*
X-117741Y349087D01*
X-120813Y352159D01*
X-124828Y353822D01*
X-129173Y353822D01*
X-133187Y352159D01*
X-136259Y349087D01*
X-137922Y345073D01*
X-137922Y340728D01*
X-136259Y336713D01*
X-133187Y333641D01*
X-129173Y331978D01*
G37*
G36*
X-167712Y334140D02*
X-164106Y334140D01*
X-160775Y335520D01*
X-158225Y338069D01*
X-156845Y341401D01*
X-156845Y345006D01*
X-158225Y348338D01*
X-160775Y350888D01*
X-164106Y352268D01*
X-167712Y352268D01*
X-171043Y350888D01*
X-173593Y348338D01*
X-174973Y345006D01*
X-174973Y341401D01*
X-173593Y338069D01*
X-171043Y335520D01*
X-167712Y334140D01*
G37*
G36*
X99428Y306578D02*
X103773Y306578D01*
X107787Y308241D01*
X110859Y311313D01*
X112522Y315328D01*
X112522Y319673D01*
X110859Y323687D01*
X107787Y326759D01*
X103773Y328422D01*
X99428Y328422D01*
X95413Y326759D01*
X92341Y323687D01*
X90678Y319673D01*
X90678Y315328D01*
X92341Y311313D01*
X95413Y308241D01*
X99428Y306578D01*
G37*
G36*
X-332373Y306578D02*
X-328028Y306578D01*
X-324013Y308241D01*
X-320941Y311313D01*
X-319278Y315328D01*
X-319278Y319673D01*
X-320941Y323687D01*
X-324013Y326759D01*
X-328028Y328422D01*
X-332373Y328422D01*
X-336387Y326759D01*
X-339459Y323687D01*
X-341122Y319673D01*
X-341122Y315328D01*
X-339459Y311313D01*
X-336387Y308241D01*
X-332373Y306578D01*
G37*
G36*
X-129173Y306578D02*
X-124828Y306578D01*
X-120813Y308241D01*
X-117741Y311313D01*
X-116078Y315328D01*
X-116078Y319673D01*
X-117741Y323687D01*
X-120813Y326759D01*
X-124828Y328422D01*
X-129173Y328422D01*
X-133187Y326759D01*
X-136259Y323687D01*
X-137922Y319673D01*
X-137922Y315328D01*
X-136259Y311313D01*
X-133187Y308241D01*
X-129173Y306578D01*
G37*
G36*
X-103773Y306578D02*
X-99428Y306578D01*
X-95413Y308241D01*
X-92341Y311313D01*
X-90678Y315328D01*
X-90678Y319673D01*
X-92341Y323687D01*
X-95413Y326759D01*
X-99428Y328422D01*
X-103773Y328422D01*
X-107787Y326759D01*
X-110859Y323687D01*
X-112522Y319673D01*
X-112522Y315328D01*
X-110859Y311313D01*
X-107787Y308241D01*
X-103773Y306578D01*
G37*
G36*
X124828Y306578D02*
X129173Y306578D01*
X133187Y308241D01*
X136259Y311313D01*
X137922Y315328D01*
X137922Y319673D01*
X136259Y323687D01*
X133187Y326759D01*
X129173Y328422D01*
X124828Y328422D01*
X120813Y326759D01*
X117741Y323687D01*
X116078Y319673D01*
X116078Y315328D01*
X117741Y311313D01*
X120813Y308241D01*
X124828Y306578D01*
G37*
G36*
X-78373Y306578D02*
X-74028Y306578D01*
X-70013Y308241D01*
X-66941Y311313D01*
X-65278Y315328D01*
X-65278Y319673D01*
X-66941Y323687D01*
X-70013Y326759D01*
X-74028Y328422D01*
X-78373Y328422D01*
X-82387Y326759D01*
X-85459Y323687D01*
X-87122Y319673D01*
X-87122Y315328D01*
X-85459Y311313D01*
X-82387Y308241D01*
X-78373Y306578D01*
G37*
G36*
X-167712Y308740D02*
X-164106Y308740D01*
X-160775Y310120D01*
X-158225Y312669D01*
X-156845Y316001D01*
X-156845Y319606D01*
X-158225Y322938D01*
X-160775Y325488D01*
X-164106Y326868D01*
X-167712Y326868D01*
X-171043Y325488D01*
X-173593Y322938D01*
X-174973Y319606D01*
X-174973Y316001D01*
X-173593Y312669D01*
X-171043Y310120D01*
X-167712Y308740D01*
G37*
G36*
X243332Y305562D02*
X254508Y305562D01*
X254508Y307175D01*
X252691Y311562D01*
X249332Y314921D01*
X244945Y316738D01*
X243332Y316738D01*
X243332Y305562D01*
G37*
G36*
X230632Y305562D02*
X241808Y305562D01*
X241808Y316738D01*
X240195Y316738D01*
X235808Y314921D01*
X232449Y311562D01*
X230632Y307175D01*
X230632Y305562D01*
G37*
G36*
X230632Y254762D02*
X254508Y254762D01*
X254508Y256375D01*
X252691Y260762D01*
X249332Y264121D01*
X245177Y265842D01*
X244726Y266130D01*
X244371Y266622D01*
X244236Y267213D01*
X244343Y267811D01*
X244674Y268319D01*
X245177Y268658D01*
X248757Y270141D01*
X251829Y273213D01*
X253492Y277228D01*
X253492Y281573D01*
X251829Y285587D01*
X248757Y288659D01*
X245177Y290142D01*
X244726Y290430D01*
X244371Y290922D01*
X244236Y291514D01*
X244343Y292111D01*
X244674Y292619D01*
X245177Y292958D01*
X249332Y294679D01*
X252691Y298038D01*
X254508Y302425D01*
X254508Y304038D01*
X230632Y304038D01*
X230632Y302425D01*
X232449Y298038D01*
X235808Y294679D01*
X239963Y292958D01*
X240414Y292670D01*
X240769Y292178D01*
X240904Y291587D01*
X240797Y290989D01*
X240466Y290481D01*
X239963Y290142D01*
X236383Y288659D01*
X233311Y285587D01*
X231648Y281573D01*
X231648Y277228D01*
X233311Y273213D01*
X236383Y270141D01*
X239963Y268658D01*
X240414Y268370D01*
X240769Y267878D01*
X240904Y267286D01*
X240797Y266689D01*
X240466Y266181D01*
X239963Y265842D01*
X235808Y264121D01*
X232449Y260762D01*
X230632Y256375D01*
X230632Y254762D01*
G37*
G36*
X99428Y281178D02*
X103773Y281178D01*
X107787Y282841D01*
X110859Y285913D01*
X112522Y289928D01*
X112522Y294273D01*
X110859Y298287D01*
X107787Y301359D01*
X103773Y303022D01*
X99428Y303022D01*
X95413Y301359D01*
X92341Y298287D01*
X90678Y294273D01*
X90678Y289928D01*
X92341Y285913D01*
X95413Y282841D01*
X99428Y281178D01*
G37*
G36*
X-332373Y281178D02*
X-328028Y281178D01*
X-324013Y282841D01*
X-320941Y285913D01*
X-319278Y289928D01*
X-319278Y294273D01*
X-320941Y298287D01*
X-324013Y301359D01*
X-328028Y303022D01*
X-332373Y303022D01*
X-336387Y301359D01*
X-339459Y298287D01*
X-341122Y294273D01*
X-341122Y289928D01*
X-339459Y285913D01*
X-336387Y282841D01*
X-332373Y281178D01*
G37*
G36*
X-129173Y281178D02*
X-124828Y281178D01*
X-120813Y282841D01*
X-117741Y285913D01*
X-116078Y289928D01*
X-116078Y294273D01*
X-117741Y298287D01*
X-120813Y301359D01*
X-124828Y303022D01*
X-129173Y303022D01*
X-133187Y301359D01*
X-136259Y298287D01*
X-137922Y294273D01*
X-137922Y289928D01*
X-136259Y285913D01*
X-133187Y282841D01*
X-129173Y281178D01*
G37*
G36*
X-103773Y281178D02*
X-99428Y281178D01*
X-95413Y282841D01*
X-92341Y285913D01*
X-90678Y289928D01*
X-90678Y294273D01*
X-92341Y298287D01*
X-95413Y301359D01*
X-99428Y303022D01*
X-103773Y303022D01*
X-107787Y301359D01*
X-110859Y298287D01*
X-112522Y294273D01*
X-112522Y289928D01*
X-110859Y285913D01*
X-107787Y282841D01*
X-103773Y281178D01*
G37*
G36*
X-78373Y281178D02*
X-74028Y281178D01*
X-70013Y282841D01*
X-66941Y285913D01*
X-65278Y289928D01*
X-65278Y294273D01*
X-66941Y298287D01*
X-70013Y301359D01*
X-74028Y303022D01*
X-78373Y303022D01*
X-82387Y301359D01*
X-85459Y298287D01*
X-87122Y294273D01*
X-87122Y289928D01*
X-85459Y285913D01*
X-82387Y282841D01*
X-78373Y281178D01*
G37*
G36*
X74028Y281178D02*
X78373Y281178D01*
X82387Y282841D01*
X85459Y285913D01*
X87122Y289928D01*
X87122Y294273D01*
X85459Y298287D01*
X82387Y301359D01*
X78373Y303022D01*
X74028Y303022D01*
X70013Y301359D01*
X66941Y298287D01*
X65278Y294273D01*
X65278Y289928D01*
X66941Y285913D01*
X70013Y282841D01*
X74028Y281178D01*
G37*
G36*
X-167712Y283340D02*
X-164106Y283340D01*
X-160775Y284720D01*
X-158225Y287269D01*
X-156845Y290601D01*
X-156845Y294206D01*
X-158225Y297538D01*
X-160775Y300088D01*
X-164106Y301468D01*
X-167712Y301468D01*
X-171043Y300088D01*
X-173593Y297538D01*
X-174973Y294206D01*
X-174973Y290601D01*
X-173593Y287269D01*
X-171043Y284720D01*
X-167712Y283340D01*
G37*
G36*
X74028Y255778D02*
X78373Y255778D01*
X82387Y257441D01*
X85459Y260513D01*
X87122Y264528D01*
X87122Y268873D01*
X85459Y272887D01*
X82387Y275959D01*
X78373Y277622D01*
X74028Y277622D01*
X70013Y275959D01*
X66941Y272887D01*
X65278Y268873D01*
X65278Y264528D01*
X66941Y260513D01*
X70013Y257441D01*
X74028Y255778D01*
G37*
G36*
X-332373Y255778D02*
X-328028Y255778D01*
X-324013Y257441D01*
X-320941Y260513D01*
X-319278Y264528D01*
X-319278Y268873D01*
X-320941Y272887D01*
X-324013Y275959D01*
X-328028Y277622D01*
X-332373Y277622D01*
X-336387Y275959D01*
X-339459Y272887D01*
X-341122Y268873D01*
X-341122Y264528D01*
X-339459Y260513D01*
X-336387Y257441D01*
X-332373Y255778D01*
G37*
G36*
X99428Y255778D02*
X103773Y255778D01*
X107787Y257441D01*
X110859Y260513D01*
X112522Y264528D01*
X112522Y268873D01*
X110859Y272887D01*
X107787Y275959D01*
X103773Y277622D01*
X99428Y277622D01*
X95413Y275959D01*
X92341Y272887D01*
X90678Y268873D01*
X90678Y264528D01*
X92341Y260513D01*
X95413Y257441D01*
X99428Y255778D01*
G37*
G36*
X-78373Y255778D02*
X-74028Y255778D01*
X-70013Y257441D01*
X-66941Y260513D01*
X-65278Y264528D01*
X-65278Y268873D01*
X-66941Y272887D01*
X-70013Y275959D01*
X-74028Y277622D01*
X-78373Y277622D01*
X-82387Y275959D01*
X-85459Y272887D01*
X-87122Y268873D01*
X-87122Y264528D01*
X-85459Y260513D01*
X-82387Y257441D01*
X-78373Y255778D01*
G37*
G36*
X-129173Y255778D02*
X-124828Y255778D01*
X-120813Y257441D01*
X-117741Y260513D01*
X-116078Y264528D01*
X-116078Y268873D01*
X-117741Y272887D01*
X-120813Y275959D01*
X-124828Y277622D01*
X-129173Y277622D01*
X-133187Y275959D01*
X-136259Y272887D01*
X-137922Y268873D01*
X-137922Y264528D01*
X-136259Y260513D01*
X-133187Y257441D01*
X-129173Y255778D01*
G37*
G36*
X-103773Y255778D02*
X-99428Y255778D01*
X-95413Y257441D01*
X-92341Y260513D01*
X-90678Y264528D01*
X-90678Y268873D01*
X-92341Y272887D01*
X-95413Y275959D01*
X-99428Y277622D01*
X-103773Y277622D01*
X-107787Y275959D01*
X-110859Y272887D01*
X-112522Y268873D01*
X-112522Y264528D01*
X-110859Y260513D01*
X-107787Y257441D01*
X-103773Y255778D01*
G37*
G36*
X-167712Y257940D02*
X-164106Y257940D01*
X-160775Y259320D01*
X-158225Y261869D01*
X-156845Y265201D01*
X-156845Y268806D01*
X-158225Y272138D01*
X-160775Y274688D01*
X-164106Y276068D01*
X-167712Y276068D01*
X-171043Y274688D01*
X-173593Y272138D01*
X-174973Y268806D01*
X-174973Y265201D01*
X-173593Y261869D01*
X-171043Y259320D01*
X-167712Y257940D01*
G37*
G36*
X-266065Y242062D02*
X-254762Y242062D01*
X-254762Y253365D01*
X-258997Y253365D01*
X-266065Y246297D01*
X-266065Y242062D01*
G37*
G36*
X-253238Y242062D02*
X-241935Y242062D01*
X-241935Y246297D01*
X-249003Y253365D01*
X-253238Y253365D01*
X-253238Y242062D01*
G37*
G36*
X240398Y217678D02*
X244743Y217678D01*
X248757Y219341D01*
X251829Y222413D01*
X253492Y226428D01*
X253492Y230773D01*
X251829Y234787D01*
X248757Y237859D01*
X245177Y239342D01*
X244726Y239630D01*
X244371Y240122D01*
X244236Y240714D01*
X244343Y241311D01*
X244674Y241819D01*
X245177Y242158D01*
X249332Y243879D01*
X252691Y247238D01*
X254508Y251625D01*
X254508Y253238D01*
X230632Y253238D01*
X230632Y251625D01*
X232449Y247238D01*
X235808Y243879D01*
X239963Y242158D01*
X240414Y241870D01*
X240769Y241378D01*
X240904Y240787D01*
X240797Y240189D01*
X240466Y239681D01*
X239963Y239342D01*
X236383Y237859D01*
X233311Y234787D01*
X231648Y230773D01*
X231648Y226428D01*
X233311Y222413D01*
X236383Y219341D01*
X240398Y217678D01*
G37*
G36*
X-205398Y230251D02*
X-201002Y230251D01*
X-196941Y231933D01*
X-193833Y235041D01*
X-192151Y239102D01*
X-192151Y243498D01*
X-193833Y247559D01*
X-196941Y250667D01*
X-201002Y252349D01*
X-205398Y252349D01*
X-209459Y250667D01*
X-212567Y247559D01*
X-214249Y243498D01*
X-214249Y239102D01*
X-212567Y235041D01*
X-209459Y231933D01*
X-205398Y230251D01*
G37*
G36*
X99428Y230378D02*
X103773Y230378D01*
X107787Y232041D01*
X110859Y235113D01*
X112522Y239128D01*
X112522Y243473D01*
X110859Y247487D01*
X107787Y250559D01*
X103773Y252222D01*
X99428Y252222D01*
X95413Y250559D01*
X92341Y247487D01*
X90678Y243473D01*
X90678Y239128D01*
X92341Y235113D01*
X95413Y232041D01*
X99428Y230378D01*
G37*
G36*
X-332373Y230378D02*
X-328028Y230378D01*
X-324013Y232041D01*
X-320941Y235113D01*
X-319278Y239128D01*
X-319278Y243473D01*
X-320941Y247487D01*
X-324013Y250559D01*
X-328028Y252222D01*
X-332373Y252222D01*
X-336387Y250559D01*
X-339459Y247487D01*
X-341122Y243473D01*
X-341122Y239128D01*
X-339459Y235113D01*
X-336387Y232041D01*
X-332373Y230378D01*
G37*
G36*
X-129173Y230378D02*
X-124828Y230378D01*
X-120813Y232041D01*
X-117741Y235113D01*
X-116078Y239128D01*
X-116078Y243473D01*
X-117741Y247487D01*
X-120813Y250559D01*
X-124828Y252222D01*
X-129173Y252222D01*
X-133187Y250559D01*
X-136259Y247487D01*
X-137922Y243473D01*
X-137922Y239128D01*
X-136259Y235113D01*
X-133187Y232041D01*
X-129173Y230378D01*
G37*
G36*
X74028Y230378D02*
X78373Y230378D01*
X82387Y232041D01*
X85459Y235113D01*
X87122Y239128D01*
X87122Y243473D01*
X85459Y247487D01*
X82387Y250559D01*
X78373Y252222D01*
X74028Y252222D01*
X70013Y250559D01*
X66941Y247487D01*
X65278Y243473D01*
X65278Y239128D01*
X66941Y235113D01*
X70013Y232041D01*
X74028Y230378D01*
G37*
G36*
X-103773Y230378D02*
X-99428Y230378D01*
X-95413Y232041D01*
X-92341Y235113D01*
X-90678Y239128D01*
X-90678Y243473D01*
X-92341Y247487D01*
X-95413Y250559D01*
X-99428Y252222D01*
X-103773Y252222D01*
X-107787Y250559D01*
X-110859Y247487D01*
X-112522Y243473D01*
X-112522Y239128D01*
X-110859Y235113D01*
X-107787Y232041D01*
X-103773Y230378D01*
G37*
G36*
X-78373Y230378D02*
X-74028Y230378D01*
X-70013Y232041D01*
X-66941Y235113D01*
X-65278Y239128D01*
X-65278Y243473D01*
X-66941Y247487D01*
X-70013Y250559D01*
X-74028Y252222D01*
X-78373Y252222D01*
X-82387Y250559D01*
X-85459Y247487D01*
X-87122Y243473D01*
X-87122Y239128D01*
X-85459Y235113D01*
X-82387Y232041D01*
X-78373Y230378D01*
G37*
G36*
X-167712Y232540D02*
X-164106Y232540D01*
X-160775Y233920D01*
X-158225Y236469D01*
X-156845Y239801D01*
X-156845Y243406D01*
X-158225Y246738D01*
X-160775Y249288D01*
X-164106Y250668D01*
X-167712Y250668D01*
X-171043Y249288D01*
X-173593Y246738D01*
X-174973Y243406D01*
X-174973Y239801D01*
X-173593Y236469D01*
X-171043Y233920D01*
X-167712Y232540D01*
G37*
G36*
X-253238Y229235D02*
X-249003Y229235D01*
X-241935Y236303D01*
X-241935Y240538D01*
X-253238Y240538D01*
X-253238Y229235D01*
G37*
G36*
X-258997Y229235D02*
X-254762Y229235D01*
X-254762Y240538D01*
X-266065Y240538D01*
X-266065Y236303D01*
X-258997Y229235D01*
G37*
G36*
X99428Y204978D02*
X103773Y204978D01*
X107787Y206641D01*
X110859Y209713D01*
X112522Y213728D01*
X112522Y218073D01*
X110859Y222087D01*
X107787Y225159D01*
X103773Y226822D01*
X99428Y226822D01*
X95413Y225159D01*
X92341Y222087D01*
X90678Y218073D01*
X90678Y213728D01*
X92341Y209713D01*
X95413Y206641D01*
X99428Y204978D01*
G37*
G36*
X74028Y204978D02*
X78373Y204978D01*
X82387Y206641D01*
X85459Y209713D01*
X87122Y213728D01*
X87122Y218073D01*
X85459Y222087D01*
X82387Y225159D01*
X78373Y226822D01*
X74028Y226822D01*
X70013Y225159D01*
X66941Y222087D01*
X65278Y218073D01*
X65278Y213728D01*
X66941Y209713D01*
X70013Y206641D01*
X74028Y204978D01*
G37*
G36*
X-78373Y204978D02*
X-74028Y204978D01*
X-70013Y206641D01*
X-66941Y209713D01*
X-65278Y213728D01*
X-65278Y218073D01*
X-66941Y222087D01*
X-70013Y225159D01*
X-74028Y226822D01*
X-78373Y226822D01*
X-82387Y225159D01*
X-85459Y222087D01*
X-87122Y218073D01*
X-87122Y213728D01*
X-85459Y209713D01*
X-82387Y206641D01*
X-78373Y204978D01*
G37*
G36*
X-103773Y204978D02*
X-99428Y204978D01*
X-95413Y206641D01*
X-92341Y209713D01*
X-90678Y213728D01*
X-90678Y218073D01*
X-92341Y222087D01*
X-95413Y225159D01*
X-99428Y226822D01*
X-103773Y226822D01*
X-107787Y225159D01*
X-110859Y222087D01*
X-112522Y218073D01*
X-112522Y213728D01*
X-110859Y209713D01*
X-107787Y206641D01*
X-103773Y204978D01*
G37*
G36*
X-129173Y204978D02*
X-124828Y204978D01*
X-120813Y206641D01*
X-117741Y209713D01*
X-116078Y213728D01*
X-116078Y218073D01*
X-117741Y222087D01*
X-120813Y225159D01*
X-124828Y226822D01*
X-129173Y226822D01*
X-133187Y225159D01*
X-136259Y222087D01*
X-137922Y218073D01*
X-137922Y213728D01*
X-136259Y209713D01*
X-133187Y206641D01*
X-129173Y204978D01*
G37*
G36*
X-302989Y216966D02*
X-293671Y216966D01*
X-293671Y226284D01*
X-294914Y226284D01*
X-298619Y224749D01*
X-301454Y221913D01*
X-302989Y218209D01*
X-302989Y216966D01*
G37*
G36*
X-167712Y207140D02*
X-164106Y207140D01*
X-160775Y208520D01*
X-158225Y211069D01*
X-156845Y214401D01*
X-156845Y218006D01*
X-158225Y221338D01*
X-160775Y223888D01*
X-164106Y225268D01*
X-167712Y225268D01*
X-171043Y223888D01*
X-173593Y221338D01*
X-174973Y218006D01*
X-174973Y214401D01*
X-173593Y211069D01*
X-171043Y208520D01*
X-167712Y207140D01*
G37*
G36*
X-294914Y206124D02*
X-293671Y206124D01*
X-293671Y215442D01*
X-302989Y215442D01*
X-302989Y214199D01*
X-301454Y210494D01*
X-298619Y207658D01*
X-294914Y206124D01*
G37*
G36*
X-129173Y179578D02*
X-124828Y179578D01*
X-120813Y181241D01*
X-117741Y184313D01*
X-116078Y188328D01*
X-116078Y192673D01*
X-117741Y196687D01*
X-120813Y199759D01*
X-124828Y201422D01*
X-129173Y201422D01*
X-133187Y199759D01*
X-136259Y196687D01*
X-137922Y192673D01*
X-137922Y188328D01*
X-136259Y184313D01*
X-133187Y181241D01*
X-129173Y179578D01*
G37*
G36*
X-103773Y179578D02*
X-99428Y179578D01*
X-95413Y181241D01*
X-92341Y184313D01*
X-90678Y188328D01*
X-90678Y192673D01*
X-92341Y196687D01*
X-95413Y199759D01*
X-99428Y201422D01*
X-103773Y201422D01*
X-107787Y199759D01*
X-110859Y196687D01*
X-112522Y192673D01*
X-112522Y188328D01*
X-110859Y184313D01*
X-107787Y181241D01*
X-103773Y179578D01*
G37*
G36*
X99428Y179578D02*
X103773Y179578D01*
X107787Y181241D01*
X110859Y184313D01*
X112522Y188328D01*
X112522Y192673D01*
X110859Y196687D01*
X107787Y199759D01*
X103773Y201422D01*
X99428Y201422D01*
X95413Y199759D01*
X92341Y196687D01*
X90678Y192673D01*
X90678Y188328D01*
X92341Y184313D01*
X95413Y181241D01*
X99428Y179578D01*
G37*
G36*
X74028Y179578D02*
X78373Y179578D01*
X82387Y181241D01*
X85459Y184313D01*
X87122Y188328D01*
X87122Y192673D01*
X85459Y196687D01*
X82387Y199759D01*
X78373Y201422D01*
X74028Y201422D01*
X70013Y199759D01*
X66941Y196687D01*
X65278Y192673D01*
X65278Y188328D01*
X66941Y184313D01*
X70013Y181241D01*
X74028Y179578D01*
G37*
G36*
X-78373Y179578D02*
X-74028Y179578D01*
X-70013Y181241D01*
X-66941Y184313D01*
X-65278Y188328D01*
X-65278Y192673D01*
X-66941Y196687D01*
X-70013Y199759D01*
X-74028Y201422D01*
X-78373Y201422D01*
X-82387Y199759D01*
X-85459Y196687D01*
X-87122Y192673D01*
X-87122Y188328D01*
X-85459Y184313D01*
X-82387Y181241D01*
X-78373Y179578D01*
G37*
G36*
X-218512Y181740D02*
X-214906Y181740D01*
X-211575Y183120D01*
X-209025Y185669D01*
X-207645Y189001D01*
X-207645Y192606D01*
X-209025Y195938D01*
X-211575Y198488D01*
X-214906Y199868D01*
X-218512Y199868D01*
X-221843Y198488D01*
X-224393Y195938D01*
X-225773Y192606D01*
X-225773Y189001D01*
X-224393Y185669D01*
X-221843Y183120D01*
X-218512Y181740D01*
G37*
G36*
X-193112Y181740D02*
X-189506Y181740D01*
X-186175Y183120D01*
X-183625Y185669D01*
X-182245Y189001D01*
X-182245Y192606D01*
X-183625Y195938D01*
X-186175Y198488D01*
X-189506Y199868D01*
X-193112Y199868D01*
X-196443Y198488D01*
X-198993Y195938D01*
X-200373Y192606D01*
X-200373Y189001D01*
X-198993Y185669D01*
X-196443Y183120D01*
X-193112Y181740D01*
G37*
G36*
X-167712Y181740D02*
X-164106Y181740D01*
X-160775Y183120D01*
X-158225Y185669D01*
X-156845Y189001D01*
X-156845Y192606D01*
X-158225Y195938D01*
X-160775Y198488D01*
X-164106Y199868D01*
X-167712Y199868D01*
X-171043Y198488D01*
X-173593Y195938D01*
X-174973Y192606D01*
X-174973Y189001D01*
X-173593Y185669D01*
X-171043Y183120D01*
X-167712Y181740D01*
G37*
G36*
X-129173Y154178D02*
X-124828Y154178D01*
X-120813Y155841D01*
X-117741Y158913D01*
X-116078Y162928D01*
X-116078Y167273D01*
X-117741Y171287D01*
X-120813Y174359D01*
X-124828Y176022D01*
X-129173Y176022D01*
X-133187Y174359D01*
X-136259Y171287D01*
X-137922Y167273D01*
X-137922Y162928D01*
X-136259Y158913D01*
X-133187Y155841D01*
X-129173Y154178D01*
G37*
G36*
X-103773Y154178D02*
X-99428Y154178D01*
X-95413Y155841D01*
X-92341Y158913D01*
X-90678Y162928D01*
X-90678Y167273D01*
X-92341Y171287D01*
X-95413Y174359D01*
X-99428Y176022D01*
X-103773Y176022D01*
X-107787Y174359D01*
X-110859Y171287D01*
X-112522Y167273D01*
X-112522Y162928D01*
X-110859Y158913D01*
X-107787Y155841D01*
X-103773Y154178D01*
G37*
G36*
X74028Y154178D02*
X78373Y154178D01*
X82387Y155841D01*
X85459Y158913D01*
X87122Y162928D01*
X87122Y167273D01*
X85459Y171287D01*
X82387Y174359D01*
X78373Y176022D01*
X74028Y176022D01*
X70013Y174359D01*
X66941Y171287D01*
X65278Y167273D01*
X65278Y162928D01*
X66941Y158913D01*
X70013Y155841D01*
X74028Y154178D01*
G37*
G36*
X99428Y154178D02*
X103773Y154178D01*
X107787Y155841D01*
X110859Y158913D01*
X112522Y162928D01*
X112522Y167273D01*
X110859Y171287D01*
X107787Y174359D01*
X103773Y176022D01*
X99428Y176022D01*
X95413Y174359D01*
X92341Y171287D01*
X90678Y167273D01*
X90678Y162928D01*
X92341Y158913D01*
X95413Y155841D01*
X99428Y154178D01*
G37*
G36*
X124828Y128778D02*
X129173Y128778D01*
X133187Y130441D01*
X136259Y133513D01*
X137922Y137528D01*
X137922Y141873D01*
X136259Y145887D01*
X133187Y148959D01*
X129173Y150622D01*
X124828Y150622D01*
X120813Y148959D01*
X117741Y145887D01*
X116078Y141873D01*
X116078Y137528D01*
X117741Y133513D01*
X120813Y130441D01*
X124828Y128778D01*
G37*
G36*
X99428Y128778D02*
X103773Y128778D01*
X107787Y130441D01*
X110859Y133513D01*
X112522Y137528D01*
X112522Y141873D01*
X110859Y145887D01*
X107787Y148959D01*
X103773Y150622D01*
X99428Y150622D01*
X95413Y148959D01*
X92341Y145887D01*
X90678Y141873D01*
X90678Y137528D01*
X92341Y133513D01*
X95413Y130441D01*
X99428Y128778D01*
G37*
G36*
X74028Y128778D02*
X78373Y128778D01*
X82387Y130441D01*
X85459Y133513D01*
X87122Y137528D01*
X87122Y141873D01*
X85459Y145887D01*
X82387Y148959D01*
X78373Y150622D01*
X74028Y150622D01*
X70013Y148959D01*
X66941Y145887D01*
X65278Y141873D01*
X65278Y137528D01*
X66941Y133513D01*
X70013Y130441D01*
X74028Y128778D01*
G37*
G36*
X-103773Y128778D02*
X-99428Y128778D01*
X-95413Y130441D01*
X-92341Y133513D01*
X-90678Y137528D01*
X-90678Y141873D01*
X-92341Y145887D01*
X-95413Y148959D01*
X-99428Y150622D01*
X-103773Y150622D01*
X-107787Y148959D01*
X-110859Y145887D01*
X-112522Y141873D01*
X-112522Y137528D01*
X-110859Y133513D01*
X-107787Y130441D01*
X-103773Y128778D01*
G37*
G36*
X-129173Y128778D02*
X-124828Y128778D01*
X-120813Y130441D01*
X-117741Y133513D01*
X-116078Y137528D01*
X-116078Y141873D01*
X-117741Y145887D01*
X-120813Y148959D01*
X-124828Y150622D01*
X-129173Y150622D01*
X-133187Y148959D01*
X-136259Y145887D01*
X-137922Y141873D01*
X-137922Y137528D01*
X-136259Y133513D01*
X-133187Y130441D01*
X-129173Y128778D01*
G37*
G36*
X250190Y120142D02*
X262128Y120142D01*
X262128Y132080D01*
X251678Y132080D01*
X250190Y130592D01*
X250190Y120142D01*
G37*
G36*
X124828Y103378D02*
X129173Y103378D01*
X133187Y105041D01*
X136259Y108113D01*
X137922Y112128D01*
X137922Y116473D01*
X136259Y120487D01*
X133187Y123559D01*
X129173Y125222D01*
X124828Y125222D01*
X120813Y123559D01*
X117741Y120487D01*
X116078Y116473D01*
X116078Y112128D01*
X117741Y108113D01*
X120813Y105041D01*
X124828Y103378D01*
G37*
G36*
X99428Y103378D02*
X103773Y103378D01*
X107787Y105041D01*
X110859Y108113D01*
X112522Y112128D01*
X112522Y116473D01*
X110859Y120487D01*
X107787Y123559D01*
X103773Y125222D01*
X99428Y125222D01*
X95413Y123559D01*
X92341Y120487D01*
X90678Y116473D01*
X90678Y112128D01*
X92341Y108113D01*
X95413Y105041D01*
X99428Y103378D01*
G37*
G36*
X74028Y103378D02*
X78373Y103378D01*
X82387Y105041D01*
X85459Y108113D01*
X87122Y112128D01*
X87122Y116473D01*
X85459Y120487D01*
X82387Y123559D01*
X78373Y125222D01*
X74028Y125222D01*
X70013Y123559D01*
X66941Y120487D01*
X65278Y116473D01*
X65278Y112128D01*
X66941Y108113D01*
X70013Y105041D01*
X74028Y103378D01*
G37*
G36*
X-78373Y103378D02*
X-74028Y103378D01*
X-70013Y105041D01*
X-66941Y108113D01*
X-65278Y112128D01*
X-65278Y116473D01*
X-66941Y120487D01*
X-70013Y123559D01*
X-74028Y125222D01*
X-78373Y125222D01*
X-82387Y123559D01*
X-85459Y120487D01*
X-87122Y116473D01*
X-87122Y112128D01*
X-85459Y108113D01*
X-82387Y105041D01*
X-78373Y103378D01*
G37*
G36*
X-103773Y103378D02*
X-99428Y103378D01*
X-95413Y105041D01*
X-92341Y108113D01*
X-90678Y112128D01*
X-90678Y116473D01*
X-92341Y120487D01*
X-95413Y123559D01*
X-99428Y125222D01*
X-103773Y125222D01*
X-107787Y123559D01*
X-110859Y120487D01*
X-112522Y116473D01*
X-112522Y112128D01*
X-110859Y108113D01*
X-107787Y105041D01*
X-103773Y103378D01*
G37*
G36*
X-129173Y103378D02*
X-124828Y103378D01*
X-120813Y105041D01*
X-117741Y108113D01*
X-116078Y112128D01*
X-116078Y116473D01*
X-117741Y120487D01*
X-120813Y123559D01*
X-124828Y125222D01*
X-129173Y125222D01*
X-133187Y123559D01*
X-136259Y120487D01*
X-137922Y116473D01*
X-137922Y112128D01*
X-136259Y108113D01*
X-133187Y105041D01*
X-129173Y103378D01*
G37*
G36*
X251678Y106680D02*
X262128Y106680D01*
X262128Y118618D01*
X250190Y118618D01*
X250190Y108168D01*
X251678Y106680D01*
G37*
G36*
X-129969Y77978D02*
X-125624Y77978D01*
X-121610Y79641D01*
X-118538Y82713D01*
X-116875Y86728D01*
X-116875Y91073D01*
X-118538Y95087D01*
X-121610Y98159D01*
X-125624Y99822D01*
X-129969Y99822D01*
X-133984Y98159D01*
X-137056Y95087D01*
X-138719Y91073D01*
X-138719Y86728D01*
X-137056Y82713D01*
X-133984Y79641D01*
X-129969Y77978D01*
G37*
G36*
X-155369Y77978D02*
X-151024Y77978D01*
X-147010Y79641D01*
X-143938Y82713D01*
X-142275Y86728D01*
X-142275Y91073D01*
X-143938Y95087D01*
X-147010Y98159D01*
X-151024Y99822D01*
X-155369Y99822D01*
X-159384Y98159D01*
X-162456Y95087D01*
X-164119Y91073D01*
X-164119Y86728D01*
X-162456Y82713D01*
X-159384Y79641D01*
X-155369Y77978D01*
G37*
G36*
X-78373Y77978D02*
X-74028Y77978D01*
X-70013Y79641D01*
X-66941Y82713D01*
X-65278Y86728D01*
X-65278Y91073D01*
X-66941Y95087D01*
X-70013Y98159D01*
X-74028Y99822D01*
X-78373Y99822D01*
X-82387Y98159D01*
X-85459Y95087D01*
X-87122Y91073D01*
X-87122Y86728D01*
X-85459Y82713D01*
X-82387Y79641D01*
X-78373Y77978D01*
G37*
G36*
X-104569Y77978D02*
X-100224Y77978D01*
X-96210Y79641D01*
X-93138Y82713D01*
X-91475Y86728D01*
X-91475Y91073D01*
X-93138Y95087D01*
X-96210Y98159D01*
X-100224Y99822D01*
X-104569Y99822D01*
X-108584Y98159D01*
X-111656Y95087D01*
X-113319Y91073D01*
X-113319Y86728D01*
X-111656Y82713D01*
X-108584Y79641D01*
X-104569Y77978D01*
G37*
G36*
X-180769Y77978D02*
X-176424Y77978D01*
X-172410Y79641D01*
X-169338Y82713D01*
X-167675Y86728D01*
X-167675Y91073D01*
X-169338Y95087D01*
X-172410Y98159D01*
X-176424Y99822D01*
X-180769Y99822D01*
X-184784Y98159D01*
X-187856Y95087D01*
X-189519Y91073D01*
X-189519Y86728D01*
X-187856Y82713D01*
X-184784Y79641D01*
X-180769Y77978D01*
G37*
G36*
X-78373Y52578D02*
X-74028Y52578D01*
X-70013Y54241D01*
X-66941Y57313D01*
X-65278Y61328D01*
X-65278Y65673D01*
X-66941Y69687D01*
X-70013Y72759D01*
X-74028Y74422D01*
X-78373Y74422D01*
X-82387Y72759D01*
X-85459Y69687D01*
X-87122Y65673D01*
X-87122Y61328D01*
X-85459Y57313D01*
X-82387Y54241D01*
X-78373Y52578D01*
G37*
G36*
X-103773Y52578D02*
X-99428Y52578D01*
X-95413Y54241D01*
X-92341Y57313D01*
X-90678Y61328D01*
X-90678Y65673D01*
X-92341Y69687D01*
X-95413Y72759D01*
X-99428Y74422D01*
X-103773Y74422D01*
X-107787Y72759D01*
X-110859Y69687D01*
X-112522Y65673D01*
X-112522Y61328D01*
X-110859Y57313D01*
X-107787Y54241D01*
X-103773Y52578D01*
G37*
G36*
X-129173Y52578D02*
X-124828Y52578D01*
X-120813Y54241D01*
X-117741Y57313D01*
X-116078Y61328D01*
X-116078Y65673D01*
X-117741Y69687D01*
X-120813Y72759D01*
X-124828Y74422D01*
X-129173Y74422D01*
X-133187Y72759D01*
X-136259Y69687D01*
X-137922Y65673D01*
X-137922Y61328D01*
X-136259Y57313D01*
X-133187Y54241D01*
X-129173Y52578D01*
G37*
G36*
X178562Y26670D02*
X180175Y26670D01*
X184562Y28487D01*
X187921Y31846D01*
X189092Y34674D01*
X189380Y35124D01*
X189872Y35479D01*
X190464Y35614D01*
X191061Y35508D01*
X191569Y35177D01*
X191908Y34674D01*
X193079Y31846D01*
X196438Y28487D01*
X200825Y26670D01*
X202438Y26670D01*
X202438Y50546D01*
X200825Y50546D01*
X196438Y48729D01*
X193079Y45370D01*
X191908Y42542D01*
X191620Y42092D01*
X191128Y41737D01*
X190536Y41602D01*
X189939Y41708D01*
X189431Y42039D01*
X189092Y42542D01*
X187921Y45370D01*
X184562Y48729D01*
X180175Y50546D01*
X178562Y50546D01*
X178562Y26670D01*
G37*
G36*
X153162Y26670D02*
X154775Y26670D01*
X159162Y28487D01*
X162521Y31846D01*
X163692Y34674D01*
X163980Y35124D01*
X164472Y35479D01*
X165064Y35614D01*
X165661Y35508D01*
X166169Y35177D01*
X166508Y34674D01*
X167679Y31846D01*
X171038Y28487D01*
X175425Y26670D01*
X177038Y26670D01*
X177038Y50546D01*
X175425Y50546D01*
X171038Y48729D01*
X167679Y45370D01*
X166508Y42542D01*
X166220Y42092D01*
X165728Y41737D01*
X165136Y41602D01*
X164539Y41708D01*
X164031Y42039D01*
X163692Y42542D01*
X162521Y45370D01*
X159162Y48729D01*
X154775Y50546D01*
X153162Y50546D01*
X153162Y26670D01*
G37*
G36*
X203962Y39370D02*
X215138Y39370D01*
X215138Y40983D01*
X213321Y45370D01*
X209962Y48729D01*
X205575Y50546D01*
X203962Y50546D01*
X203962Y39370D01*
G37*
G36*
X-205373Y27178D02*
X-201028Y27178D01*
X-197013Y28841D01*
X-193941Y31913D01*
X-192278Y35928D01*
X-192278Y40273D01*
X-193941Y44287D01*
X-197013Y47359D01*
X-201028Y49022D01*
X-205373Y49022D01*
X-209387Y47359D01*
X-212459Y44287D01*
X-214122Y40273D01*
X-214122Y35928D01*
X-212459Y31913D01*
X-209387Y28841D01*
X-205373Y27178D01*
G37*
G36*
X-179973Y27178D02*
X-175628Y27178D01*
X-171613Y28841D01*
X-168541Y31913D01*
X-166878Y35928D01*
X-166878Y40273D01*
X-168541Y44287D01*
X-171613Y47359D01*
X-175628Y49022D01*
X-179973Y49022D01*
X-183987Y47359D01*
X-187059Y44287D01*
X-188722Y40273D01*
X-188722Y35928D01*
X-187059Y31913D01*
X-183987Y28841D01*
X-179973Y27178D01*
G37*
G36*
X-154573Y27178D02*
X-150228Y27178D01*
X-146213Y28841D01*
X-143141Y31913D01*
X-141478Y35928D01*
X-141478Y40273D01*
X-143141Y44287D01*
X-146213Y47359D01*
X-150228Y49022D01*
X-154573Y49022D01*
X-158587Y47359D01*
X-161659Y44287D01*
X-163322Y40273D01*
X-163322Y35928D01*
X-161659Y31913D01*
X-158587Y28841D01*
X-154573Y27178D01*
G37*
G36*
X-129173Y27178D02*
X-124828Y27178D01*
X-120813Y28841D01*
X-117741Y31913D01*
X-116078Y35928D01*
X-116078Y40273D01*
X-117741Y44287D01*
X-120813Y47359D01*
X-124828Y49022D01*
X-129173Y49022D01*
X-133187Y47359D01*
X-136259Y44287D01*
X-137922Y40273D01*
X-137922Y35928D01*
X-136259Y31913D01*
X-133187Y28841D01*
X-129173Y27178D01*
G37*
G36*
X-103773Y27178D02*
X-99428Y27178D01*
X-95413Y28841D01*
X-92341Y31913D01*
X-90678Y35928D01*
X-90678Y40273D01*
X-92341Y44287D01*
X-95413Y47359D01*
X-99428Y49022D01*
X-103773Y49022D01*
X-107787Y47359D01*
X-110859Y44287D01*
X-112522Y40273D01*
X-112522Y35928D01*
X-110859Y31913D01*
X-107787Y28841D01*
X-103773Y27178D01*
G37*
G36*
X-78373Y27178D02*
X-74028Y27178D01*
X-70013Y28841D01*
X-66941Y31913D01*
X-65278Y35928D01*
X-65278Y40273D01*
X-66941Y44287D01*
X-70013Y47359D01*
X-74028Y49022D01*
X-78373Y49022D01*
X-82387Y47359D01*
X-85459Y44287D01*
X-87122Y40273D01*
X-87122Y35928D01*
X-85459Y31913D01*
X-82387Y28841D01*
X-78373Y27178D01*
G37*
G36*
X203962Y26670D02*
X205575Y26670D01*
X209962Y28487D01*
X213321Y31846D01*
X215138Y36233D01*
X215138Y37846D01*
X203962Y37846D01*
X203962Y26670D01*
G37*
G36*
X73825Y26162D02*
X75438Y26162D01*
X75438Y37338D01*
X64262Y37338D01*
X64262Y35725D01*
X66079Y31338D01*
X69438Y27979D01*
X73825Y26162D01*
G37*
%LPD*%
G36*
X256173Y70987D02*
X255578Y70866D01*
X244841Y70866D01*
X244314Y70960D01*
X243798Y71279D01*
X243447Y71773D01*
X243317Y72366D01*
X243428Y72962D01*
X243763Y73468D01*
X278068Y107773D01*
X278507Y108079D01*
X279097Y108218D01*
X279695Y108117D01*
X280206Y107790D01*
X280549Y107289D01*
X280670Y106695D01*
X280670Y95958D01*
X280559Y95386D01*
X280224Y94880D01*
X256656Y71312D01*
X256173Y70987D01*
G37*
G36*
X138716Y53207D02*
X138122Y53086D01*
X135711Y53086D01*
X135185Y53180D01*
X134669Y53499D01*
X134318Y53993D01*
X134188Y54586D01*
X134299Y55182D01*
X134634Y55688D01*
X136259Y57313D01*
X137922Y61328D01*
X137922Y65673D01*
X136259Y69687D01*
X134634Y71312D01*
X134328Y71751D01*
X134188Y72341D01*
X134290Y72939D01*
X134617Y73450D01*
X135117Y73793D01*
X135711Y73914D01*
X189883Y73914D01*
X190410Y73820D01*
X190926Y73501D01*
X191277Y73007D01*
X191407Y72414D01*
X191296Y71818D01*
X190961Y71312D01*
X179813Y60164D01*
X179330Y59839D01*
X178735Y59718D01*
X145385Y59718D01*
X139199Y53532D01*
X138716Y53207D01*
G37*
G36*
X43752Y369634D02*
X51118Y369634D01*
X51118Y366967D01*
X43752Y366967D01*
X43752Y369634D01*
G37*
G36*
X43752Y369634D02*
X51118Y369634D01*
X51118Y366967D01*
X43752Y366967D01*
X43752Y369634D01*
G37*
G36*
X50483Y369634D02*
X57849Y369634D01*
X57849Y366967D01*
X50483Y366967D01*
X50483Y369634D01*
G37*
G36*
X50483Y369634D02*
X57849Y369634D01*
X57849Y366967D01*
X50483Y366967D01*
X50483Y369634D01*
G37*
G36*
X147892Y471234D02*
X155258Y471234D01*
X155258Y468567D01*
X147892Y468567D01*
X147892Y471234D01*
G37*
G36*
X147892Y471234D02*
X155258Y471234D01*
X155258Y468567D01*
X147892Y468567D01*
X147892Y471234D01*
G37*
G36*
X147892Y496634D02*
X155258Y496634D01*
X155258Y493967D01*
X147892Y493967D01*
X147892Y496634D01*
G37*
G36*
X147892Y496634D02*
X155258Y496634D01*
X155258Y493967D01*
X147892Y493967D01*
X147892Y496634D01*
G37*
G36*
X156528Y87567D02*
X149162Y87567D01*
X149162Y90234D01*
X156528Y90234D01*
X156528Y87567D01*
G37*
G36*
X156528Y87567D02*
X149162Y87567D01*
X149162Y90234D01*
X156528Y90234D01*
X156528Y87567D01*
G37*
G36*
X152972Y565214D02*
X160338Y565214D01*
X160338Y562547D01*
X152972Y562547D01*
X152972Y565214D01*
G37*
G36*
X152972Y565214D02*
X160338Y565214D01*
X160338Y562547D01*
X152972Y562547D01*
X152972Y565214D01*
G37*
G36*
X154623Y471234D02*
X161989Y471234D01*
X161989Y468567D01*
X154623Y468567D01*
X154623Y471234D01*
G37*
G36*
X154623Y471234D02*
X161989Y471234D01*
X161989Y468567D01*
X154623Y468567D01*
X154623Y471234D01*
G37*
G36*
X154623Y496634D02*
X161989Y496634D01*
X161989Y493967D01*
X154623Y493967D01*
X154623Y496634D01*
G37*
G36*
X154623Y496634D02*
X161989Y496634D01*
X161989Y493967D01*
X154623Y493967D01*
X154623Y496634D01*
G37*
G36*
X163259Y87567D02*
X155893Y87567D01*
X155893Y90234D01*
X163259Y90234D01*
X163259Y87567D01*
G37*
G36*
X163259Y87567D02*
X155893Y87567D01*
X155893Y90234D01*
X163259Y90234D01*
X163259Y87567D01*
G37*
G36*
X159703Y565214D02*
X167069Y565214D01*
X167069Y562547D01*
X159703Y562547D01*
X159703Y565214D01*
G37*
G36*
X159703Y565214D02*
X167069Y565214D01*
X167069Y562547D01*
X159703Y562547D01*
X159703Y565214D01*
G37*
D10*
X-203200Y469900D03*
D11*
X-254000Y469900D03*
D10*
X-203200Y241300D03*
D11*
X-254000Y241300D03*
D12*
X-165909Y368604D03*
X-165909Y343204D03*
X-165909Y317804D03*
X-165909Y292404D03*
X-165909Y267004D03*
X-165909Y241604D03*
X-165909Y216204D03*
X-165909Y190804D03*
D13*
X-292909Y368604D03*
D12*
X-292909Y343204D03*
X-292909Y317804D03*
X-292909Y292404D03*
X-292909Y267004D03*
X-292909Y241604D03*
X-292909Y216204D03*
X-292909Y190804D03*
X-191309Y190804D03*
X-216709Y190804D03*
X-165100Y596900D03*
X-165100Y571500D03*
X-165100Y546100D03*
X-165100Y520700D03*
X-165100Y495300D03*
X-165100Y469900D03*
X-165100Y444500D03*
X-165100Y419100D03*
D13*
X-292100Y596900D03*
D12*
X-292100Y571500D03*
X-292100Y546100D03*
X-292100Y520700D03*
X-292100Y495300D03*
X-292100Y469900D03*
X-292100Y444500D03*
X-292100Y419100D03*
X-190500Y419100D03*
X-215900Y419100D03*
D14*
X-127000Y622300D03*
X-101600Y622300D03*
X-127000Y596900D03*
X-101600Y596900D03*
X-127000Y571500D03*
X-101600Y571500D03*
X-127000Y546100D03*
X-101600Y546100D03*
X-127000Y520700D03*
X-101600Y520700D03*
X-127000Y495300D03*
X-101600Y495300D03*
X-127000Y469900D03*
X-101600Y469900D03*
X-127000Y444500D03*
X-101600Y444500D03*
X-127000Y419100D03*
X-101600Y419100D03*
X-127000Y393700D03*
X-101600Y393700D03*
X127000Y419100D03*
X101600Y419100D03*
X127000Y444500D03*
X101600Y444500D03*
X127000Y469900D03*
X101600Y469900D03*
X127000Y495300D03*
X101600Y495300D03*
X127000Y520700D03*
X101600Y520700D03*
X127000Y546100D03*
X101600Y546100D03*
X127000Y571500D03*
X101600Y571500D03*
X127000Y596900D03*
X101600Y596900D03*
X127000Y622300D03*
X101600Y622300D03*
X-203200Y38100D03*
X-177800Y38100D03*
X-152400Y38100D03*
X-127000Y38100D03*
X-101600Y38100D03*
D15*
X-39370Y995720D03*
D16*
X-89370Y995720D03*
D14*
X189811Y625818D03*
X189811Y600418D03*
X189811Y575018D03*
X189811Y549618D03*
X189811Y524218D03*
X189811Y498818D03*
X189811Y473418D03*
X189811Y448018D03*
X101600Y393192D03*
X127000Y393192D03*
X152400Y393192D03*
X177800Y393192D03*
X203200Y393192D03*
X101600Y38608D03*
X127000Y38608D03*
X152400Y38608D03*
X177800Y38608D03*
X203200Y38608D03*
D15*
X262890Y119380D03*
D16*
X262890Y169380D03*
D14*
X-203997Y88900D03*
X-178597Y88900D03*
X-153197Y88900D03*
X-127797Y88900D03*
X-102397Y88900D03*
X-330200Y317500D03*
X-330200Y292100D03*
X-330200Y266700D03*
X-330200Y241300D03*
X-330200Y546100D03*
X-330200Y520700D03*
X-330200Y495300D03*
X-330200Y469900D03*
X127000Y63500D03*
X127000Y88900D03*
X127000Y114300D03*
X127000Y139700D03*
X127000Y165100D03*
X127000Y190500D03*
X127000Y215900D03*
X127000Y241300D03*
X127000Y266700D03*
X127000Y292100D03*
X127000Y317500D03*
X127000Y342900D03*
X127000Y368300D03*
X101600Y368300D03*
X101600Y342900D03*
X101600Y317500D03*
X101600Y292100D03*
X101600Y266700D03*
X101600Y241300D03*
X101600Y215900D03*
X101600Y190500D03*
X101600Y165100D03*
X101600Y139700D03*
X101600Y114300D03*
X101600Y88900D03*
X101600Y63500D03*
X-127000Y368300D03*
X-101600Y368300D03*
X-127000Y342900D03*
X-101600Y342900D03*
X-127000Y317500D03*
X-101600Y317500D03*
X-127000Y292100D03*
X-101600Y292100D03*
X-127000Y266700D03*
X-101600Y266700D03*
X-127000Y241300D03*
X-101600Y241300D03*
X-127000Y215900D03*
X-101600Y215900D03*
X-127000Y190500D03*
X-101600Y190500D03*
X-127000Y165100D03*
X-101600Y165100D03*
X-127000Y139700D03*
X-101600Y139700D03*
D17*
X261420Y740692D03*
X116640Y766092D03*
D18*
X186490Y806732D03*
X186490Y674652D03*
D17*
X116640Y715292D03*
X261420Y766092D03*
X261420Y715292D03*
D14*
X-76200Y368300D03*
X-76200Y342900D03*
X-76200Y317500D03*
X-76200Y292100D03*
X-76200Y266700D03*
X-76200Y241300D03*
X-76200Y215900D03*
X-76200Y190500D03*
X-76200Y165100D03*
X-76200Y139700D03*
X-76200Y114300D03*
X-76200Y88900D03*
X-76200Y63500D03*
X-76200Y38100D03*
X76200Y368300D03*
X76200Y342900D03*
X76200Y317500D03*
X76200Y292100D03*
X76200Y266700D03*
X76200Y241300D03*
X76200Y215900D03*
X76200Y190500D03*
X76200Y165100D03*
X76200Y139700D03*
X76200Y114300D03*
X76200Y88900D03*
X76200Y63500D03*
X76200Y38100D03*
X76200Y419100D03*
X76200Y444500D03*
X76200Y469900D03*
X76200Y495300D03*
X76200Y520700D03*
X76200Y546100D03*
X76200Y571500D03*
X76200Y596900D03*
X76200Y622300D03*
X-76200Y622300D03*
X-76200Y596900D03*
X-76200Y571500D03*
X-76200Y546100D03*
X-76200Y520700D03*
X-76200Y495300D03*
X-76200Y469900D03*
X-76200Y444500D03*
X-76200Y419100D03*
X-76200Y393700D03*
X76200Y393700D03*
D19*
X171704Y190500D03*
X163576Y190500D03*
X172974Y215900D03*
X164846Y215900D03*
D20*
X56007Y368300D03*
X45593Y368300D03*
D19*
X46736Y343154D03*
X54864Y343154D03*
X-46736Y368300D03*
X-54864Y368300D03*
X-46736Y469900D03*
X-54864Y469900D03*
X46736Y317500D03*
X54864Y317500D03*
X-46736Y444500D03*
X-54864Y444500D03*
X46736Y622300D03*
X54864Y622300D03*
D14*
X-127000Y63500D03*
X-101600Y63500D03*
X-127000Y114300D03*
X-101600Y114300D03*
D20*
X151003Y88900D03*
X161417Y88900D03*
X160147Y469900D03*
X149733Y469900D03*
X160147Y495300D03*
X149733Y495300D03*
X165227Y563880D03*
X154813Y563880D03*
D10*
X267135Y869950D03*
D21*
X267135Y920750D03*
D14*
X242570Y228600D03*
X242570Y254000D03*
X242570Y279400D03*
X242570Y304800D03*
X241300Y349250D03*
X241300Y374650D03*
X241300Y400050D03*
X241300Y425450D03*
D22*
X-254000Y317500D02*
X-254000Y241300D01*
X-254000Y317500D02*
X-177800Y393700D01*
X-127000Y393700D01*
D23*
X-25400Y736600D03*
X-304800Y850900D03*
X-241300Y901700D03*
X-215900Y723900D03*
X177800Y774700D03*
X101600Y685800D03*
X-25400Y558800D03*
X-330200Y406400D03*
X-292100Y101600D03*
X-241300Y190500D03*
X12700Y228600D03*
X-12700Y165100D03*
X-25400Y279400D03*
X-25400Y342900D03*
X215900Y88900D03*
X241300Y25400D03*
X-12700Y50800D03*
X-215900Y647700D03*
X-127000Y647700D03*
X38100Y863600D03*
X-25400Y673100D03*
X-177800Y304800D03*
X-330200Y660400D03*
X-241300Y38100D03*
X-38100Y406400D03*
X254000Y622300D03*
X0Y406400D03*
X33349Y495300D03*
D24*
X180955Y609274D02*
X189811Y600418D01*
X-12700Y571500D02*
X-25400Y558800D01*
D23*
X241300Y800100D03*
D24*
X241300Y760812D01*
X261420Y740692D01*
D23*
X63500Y902970D03*
X293142Y939800D03*
X-25400Y914400D03*
X241300Y1016000D03*
X-254000Y1016000D03*
X215900Y927100D03*
X139700Y990600D03*
X279400Y952500D03*
X101600Y825500D03*
X-25400Y838200D03*
X-129540Y840740D03*
X-109220Y840740D03*
X-88900Y840740D03*
X-88900Y786130D03*
X-109220Y795020D03*
X-130810Y789940D03*
X-129540Y740410D03*
X-111760Y739140D03*
X-90170Y739140D03*
X10160Y753110D03*
X30480Y753110D03*
X49530Y754380D03*
X177800Y63500D03*
D24*
X186690Y72390D01*
X261420Y730378D02*
X261420Y740692D01*
X244841Y72390D02*
X186690Y72390D01*
X244841Y72390D02*
X279146Y106695D01*
X279146Y712652D02*
X261420Y730378D01*
X279146Y712652D02*
X279146Y106695D01*
X189811Y600418D02*
X177365Y612864D01*
X177365Y642013D01*
D23*
X142989Y676389D03*
D24*
X177365Y642013D01*
D23*
X163638Y610025D03*
D24*
X164389Y609274D01*
X180955Y609274D01*
D23*
X18570Y571500D03*
D24*
X-12700Y571500D01*
D23*
X20320Y792480D03*
X-38100Y774700D03*
X197906Y460718D03*
X177800Y419100D03*
X152400Y165100D03*
X177800Y139700D03*
D24*
X-279400Y329695D02*
X-292909Y343204D01*
X-279400Y329695D02*
X-279400Y139700D01*
X-228600Y88900D01*
X-203997Y88900D01*
X-304800Y368300D02*
X-303497Y369603D01*
X-292100Y561074D02*
X-292100Y571500D01*
X-292100Y561074D02*
X-303497Y549677D01*
X-303497Y369603D01*
X-304800Y368300D02*
X-304800Y355095D01*
X-292909Y343204D01*
X215420Y405412D02*
X215420Y600209D01*
X215420Y405412D02*
X203200Y393192D01*
X215420Y600209D02*
X189811Y625818D01*
D23*
X-9600Y647878D03*
D24*
X25400Y612878D01*
X25400Y584200D01*
D23*
X25400Y444500D03*
D24*
X25400Y584200D01*
D23*
X25400Y584200D03*
D25*
X-36969Y376924D02*
X-46736Y368300D01*
X-36969Y376924D02*
X-34024Y376924D01*
D23*
X-34024Y376924D03*
X34290Y353060D03*
D25*
X45593Y343154D02*
X46736Y343154D01*
X44196Y343154D02*
X34290Y353060D01*
X44196Y343154D02*
X46736Y343154D01*
D23*
X38100Y381000D03*
D25*
X45593Y373507D01*
X45593Y368300D01*
D24*
X56007Y368300D02*
X76200Y368300D01*
D25*
X56007Y368300D02*
X45593Y368300D01*
X-51816Y496316D02*
X-51816Y690640D01*
X-45720Y470027D02*
X-46736Y469900D01*
X-45720Y470027D02*
X-45720Y490220D01*
X-51816Y496316D01*
X-51816Y690640D02*
X-109220Y748044D01*
X-109220Y779780D01*
D23*
X-80010Y831850D03*
D25*
X-80010Y808990D01*
X-109220Y779780D01*
D23*
X-45720Y490220D03*
X42648Y330200D03*
D25*
X45593Y327255D01*
X-33020Y507231D02*
X-33020Y734928D01*
X-33020Y507231D02*
X-17272Y491483D01*
D23*
X10755Y444500D03*
D25*
X-17272Y472527D01*
X-17272Y491483D01*
X45593Y318643D02*
X46736Y317500D01*
X45593Y318643D02*
X45593Y327255D01*
D23*
X-77606Y779514D03*
D25*
X-33020Y734928D01*
X-42418Y499618D02*
X-25400Y482600D01*
X-42418Y499618D02*
X-42418Y710952D01*
X-25400Y482600D02*
X-25400Y465963D01*
X-35497Y455867D01*
X-45593Y445770D01*
X-46736Y444500D01*
D23*
X-35497Y455867D03*
D25*
X-42418Y710952D02*
X-79022Y747556D01*
D23*
X-79602Y749300D03*
D25*
X-79022Y748720D02*
X-79022Y747556D01*
X-79022Y748720D02*
X-79602Y749300D01*
X38100Y635000D02*
X38100Y629793D01*
D23*
X38100Y635000D03*
X60960Y704850D03*
D25*
X60960Y657860D01*
X38100Y635000D01*
X45593Y622300D02*
X46736Y622300D01*
X45593Y622300D02*
X38100Y629793D01*
D24*
X-152400Y584200D02*
X-165100Y596900D01*
X-152400Y584200D02*
X-152400Y558800D01*
X-139700Y546100D01*
X-127000Y546100D01*
D23*
X154940Y203200D03*
D24*
X169799Y198113D02*
X169799Y192405D01*
X171704Y190500D01*
X164712Y203200D02*
X154940Y203200D01*
X164712Y203200D02*
X169799Y198113D01*
X171704Y190500D02*
X203200Y221996D01*
X203200Y317500D01*
X234950Y349250D01*
X241300Y349250D01*
D23*
X154940Y228600D03*
D25*
X170307Y223197D02*
X170307Y218567D01*
X172974Y215900D01*
X164904Y228600D02*
X154940Y228600D01*
X164904Y228600D02*
X170307Y223197D01*
D24*
X154940Y228600D02*
X154940Y307340D01*
X241300Y393700D02*
X241300Y400050D01*
X241300Y393700D02*
X154940Y307340D01*
D25*
X151003Y88900D02*
X161417Y88900D01*
X175959Y103442D01*
D23*
X215085Y305615D03*
D25*
X215900Y143383D02*
X175959Y103442D01*
X215900Y304800D02*
X215085Y305615D01*
X215900Y304800D02*
X215900Y143383D01*
D24*
X151003Y88900D02*
X127000Y88900D01*
D23*
X175959Y103442D03*
X177871Y483614D03*
D25*
X149733Y469900D02*
X127000Y469900D01*
X164157Y469900D02*
X177871Y483614D01*
X164157Y469900D02*
X160147Y469900D01*
X149733Y469900D01*
D23*
X157480Y590550D03*
D25*
X157755Y590550D02*
X189811Y558494D01*
X157755Y590550D02*
X157480Y590550D01*
X189811Y558494D02*
X189811Y549618D01*
X149733Y495300D02*
X127000Y495300D01*
X165100Y520700D02*
X189811Y545411D01*
X189811Y549618D01*
X165100Y520700D02*
X165100Y500253D01*
X160147Y495300D01*
X149733Y495300D01*
D23*
X164620Y520700D03*
D25*
X165100Y520700D01*
X165227Y563880D02*
X154813Y563880D01*
X154813Y569087D02*
X127000Y596900D01*
X154813Y569087D02*
X154813Y563880D01*
X165227Y563880D02*
X166902Y562205D01*
X166902Y547127D01*
D23*
X166902Y547127D03*
D25*
X-55111Y139700D02*
X-76200Y139700D01*
X33789Y50800D02*
X139700Y50800D01*
X33789Y50800D02*
X-55111Y139700D01*
X261420Y766092D02*
X262729Y766092D01*
X257156Y68580D02*
X191462Y68580D01*
X180314Y57432D01*
X146332Y57432D02*
X139700Y50800D01*
X146332Y57432D02*
X180314Y57432D01*
X257156Y68580D02*
X282956Y94380D01*
X282956Y745865D01*
X262729Y766092D01*
X-66040Y165100D02*
X22860Y76200D01*
X-66040Y165100D02*
X-76200Y165100D01*
X22860Y76200D02*
X243263Y76200D01*
X275336Y108273D01*
X275336Y701376D01*
X261420Y715292D01*
D24*
X181891Y706910D02*
X175822Y706910D01*
X116640Y766092D01*
X142494Y285682D02*
X139700Y282888D01*
X139700Y177800D01*
X142494Y285682D02*
X142494Y306772D01*
X139700Y177800D02*
X127000Y165100D01*
X142494Y306772D02*
X222504Y386782D01*
X222504Y666297D02*
X181891Y706910D01*
X222504Y666297D02*
X222504Y386782D01*
D23*
X154940Y177800D03*
D24*
X163576Y186436D01*
X163576Y190500D01*
X163576Y214630D02*
X164846Y215900D01*
X163576Y214630D02*
X149860Y214630D01*
D23*
X149860Y214630D03*
D25*
X75946Y343154D02*
X54864Y343154D01*
X75946Y343154D02*
X76200Y342900D01*
D24*
X-54864Y368300D02*
X-76200Y368300D01*
D25*
X-76200Y469900D02*
X-54864Y469900D01*
X54864Y317500D02*
X76200Y317500D01*
X-54864Y444500D02*
X-76200Y444500D01*
X54864Y622300D02*
X76200Y622300D01*
M02*
