G04 EAGLE Gerber RS-274X export*
G75*
%MOMM*%
%FSLAX34Y34*%
%LPD*%
%INTop Copper*%
%IPPOS*%
%AMOC8*
5,1,8,0,0,1.08239X$1,22.5*%
G01*
G04 Define Apertures*
%ADD10C,1.905000*%
%ADD11P,2.06195X8X202.5*%
%ADD12R,1.100000X1.000000*%
%ADD13C,1.508000*%
%ADD14R,1.508000X1.508000*%
%ADD15C,1.879600*%
%ADD16R,2.032000X2.032000*%
%ADD17C,2.032000*%
%ADD18R,0.798700X0.973900*%
%ADD19R,0.973900X0.798700*%
%ADD20C,1.524000*%
%ADD21C,3.302000*%
%ADD22R,0.600000X1.550000*%
%ADD23R,1.200000X1.800000*%
%ADD24R,0.533400X1.460500*%
%ADD25R,3.100000X2.400000*%
%ADD26R,1.000000X1.100000*%
%ADD27R,0.644000X0.535100*%
%ADD28R,3.129200X1.799400*%
%ADD29R,0.700000X0.900000*%
%ADD30R,0.900000X0.700000*%
%ADD31R,0.535100X0.644000*%
%ADD32R,2.499359X1.899919*%
%ADD33P,2.06195X8X112.5*%
%ADD34R,1.270000X0.660400*%
%ADD35C,0.304800*%
%ADD36C,0.508000*%
%ADD37C,1.270000*%
%ADD38C,0.406400*%
%ADD39C,0.756400*%
%ADD40C,0.152400*%
%ADD41C,0.812800*%
%ADD42C,0.609600*%
G36*
X271610Y10281D02*
X271015Y10160D01*
X-309115Y10160D01*
X-309813Y10329D01*
X-310287Y10709D01*
X-310574Y11243D01*
X-310631Y11847D01*
X-310447Y12425D01*
X-310053Y12886D01*
X-309510Y13156D01*
X-307402Y13721D01*
X-301436Y17165D01*
X-296565Y22036D01*
X-293121Y28002D01*
X-291338Y34656D01*
X-291338Y41544D01*
X-293121Y48198D01*
X-296565Y54164D01*
X-301436Y59035D01*
X-307402Y62479D01*
X-314056Y64262D01*
X-320944Y64262D01*
X-327598Y62479D01*
X-333564Y59035D01*
X-338435Y54164D01*
X-341879Y48198D01*
X-342444Y46090D01*
X-342788Y45460D01*
X-343277Y45101D01*
X-343867Y44961D01*
X-344465Y45063D01*
X-344976Y45390D01*
X-345319Y45890D01*
X-345440Y46485D01*
X-345440Y1007615D01*
X-345271Y1008313D01*
X-344891Y1008787D01*
X-344357Y1009074D01*
X-343753Y1009131D01*
X-343175Y1008947D01*
X-342714Y1008553D01*
X-342444Y1008010D01*
X-341879Y1005902D01*
X-338435Y999936D01*
X-333564Y995065D01*
X-327598Y991621D01*
X-320944Y989838D01*
X-314056Y989838D01*
X-307402Y991621D01*
X-301436Y995065D01*
X-296565Y999936D01*
X-293121Y1005902D01*
X-291338Y1012556D01*
X-291338Y1019444D01*
X-293121Y1026098D01*
X-296565Y1032064D01*
X-301436Y1036935D01*
X-302928Y1037796D01*
X-303191Y1037988D01*
X-303550Y1038477D01*
X-303689Y1039067D01*
X-303588Y1039665D01*
X-303261Y1040176D01*
X-302761Y1040519D01*
X-302166Y1040640D01*
X264066Y1040640D01*
X264390Y1040605D01*
X264945Y1040361D01*
X265361Y1039920D01*
X265572Y1039351D01*
X265544Y1038745D01*
X265283Y1038198D01*
X264828Y1037796D01*
X263336Y1036935D01*
X258465Y1032064D01*
X255021Y1026098D01*
X253238Y1019444D01*
X253238Y1012556D01*
X255021Y1005902D01*
X258465Y999936D01*
X263336Y995065D01*
X269302Y991621D01*
X275956Y989838D01*
X282844Y989838D01*
X289498Y991621D01*
X295464Y995065D01*
X300335Y999936D01*
X303779Y1005902D01*
X304144Y1007263D01*
X304488Y1007894D01*
X304977Y1008253D01*
X305567Y1008392D01*
X306165Y1008290D01*
X306676Y1007964D01*
X307019Y1007463D01*
X307140Y1006869D01*
X307140Y778735D01*
X307046Y778208D01*
X306727Y777692D01*
X306233Y777341D01*
X305640Y777211D01*
X305044Y777322D01*
X304538Y777657D01*
X285434Y796761D01*
X285109Y797244D01*
X284988Y797839D01*
X284988Y801243D01*
X285090Y801792D01*
X285417Y802303D01*
X285918Y802646D01*
X286348Y802734D01*
X287274Y803660D01*
X287274Y811601D01*
X287305Y811907D01*
X287543Y812465D01*
X287855Y812766D01*
X287845Y812777D01*
X288120Y813023D01*
X288275Y813214D01*
X288397Y813428D01*
X288482Y813658D01*
X288533Y813919D01*
X288544Y814113D01*
X288544Y866078D01*
X288519Y866385D01*
X288460Y866624D01*
X288363Y866850D01*
X288226Y867065D01*
X288060Y867255D01*
X274171Y881144D01*
X273937Y881343D01*
X273726Y881470D01*
X273498Y881562D01*
X273248Y881617D01*
X272998Y881634D01*
X261682Y881634D01*
X261375Y881609D01*
X261136Y881550D01*
X260910Y881453D01*
X260695Y881316D01*
X260505Y881150D01*
X255506Y876151D01*
X255307Y875917D01*
X255180Y875706D01*
X255088Y875478D01*
X255033Y875228D01*
X255016Y874978D01*
X255016Y874958D01*
X255014Y874947D01*
X255012Y874926D01*
X255010Y874926D01*
X254914Y874409D01*
X254587Y873898D01*
X254086Y873555D01*
X253492Y873434D01*
X170388Y873434D01*
X169838Y873537D01*
X169327Y873864D01*
X168984Y874364D01*
X168864Y874958D01*
X168864Y877977D01*
X167971Y878870D01*
X141715Y878870D01*
X140822Y877977D01*
X140822Y873942D01*
X140720Y873393D01*
X140393Y872882D01*
X139893Y872539D01*
X139298Y872418D01*
X109838Y872418D01*
X109266Y872530D01*
X108761Y872865D01*
X98913Y882712D01*
X97232Y883409D01*
X72557Y883409D01*
X71986Y883520D01*
X71480Y883855D01*
X54916Y900419D01*
X54590Y900902D01*
X54470Y901496D01*
X54470Y919357D01*
X54572Y919906D01*
X54899Y920417D01*
X55399Y920760D01*
X55994Y920881D01*
X60619Y920881D01*
X61145Y920787D01*
X61661Y920468D01*
X62012Y919973D01*
X62142Y919381D01*
X62031Y918785D01*
X61696Y918279D01*
X61550Y918133D01*
X61550Y915167D01*
X73070Y915167D01*
X73070Y918133D01*
X72297Y918905D01*
X71991Y919344D01*
X71852Y919934D01*
X71953Y920532D01*
X72280Y921043D01*
X72780Y921386D01*
X73375Y921507D01*
X76835Y921507D01*
X77384Y921405D01*
X77895Y921078D01*
X78238Y920577D01*
X78359Y919983D01*
X78359Y915448D01*
X79252Y914555D01*
X79621Y914555D01*
X80148Y914461D01*
X80664Y914142D01*
X81015Y913648D01*
X81145Y913055D01*
X81034Y912459D01*
X80699Y911953D01*
X80122Y911376D01*
X80122Y908267D01*
X80010Y907695D01*
X79675Y907190D01*
X73976Y901491D01*
X73493Y901165D01*
X73263Y901118D01*
X72296Y900152D01*
X72296Y889889D01*
X73189Y888997D01*
X81451Y888997D01*
X82024Y889569D01*
X82485Y889885D01*
X83077Y890015D01*
X83674Y889904D01*
X84179Y889569D01*
X85768Y887981D01*
X89558Y887981D01*
X89558Y895783D01*
X91082Y895783D01*
X91082Y887981D01*
X94872Y887981D01*
X95768Y888877D01*
X96207Y889183D01*
X96797Y889322D01*
X97395Y889221D01*
X97906Y888894D01*
X98249Y888394D01*
X98291Y888187D01*
X99858Y886620D01*
X104648Y886620D01*
X104648Y893422D01*
X112450Y893422D01*
X112450Y897212D01*
X110861Y898801D01*
X110545Y899262D01*
X110415Y899854D01*
X110526Y900450D01*
X110861Y900956D01*
X111434Y901529D01*
X111434Y909791D01*
X110288Y910937D01*
X109982Y911376D01*
X109842Y911966D01*
X109944Y912564D01*
X110271Y913075D01*
X110771Y913418D01*
X111366Y913539D01*
X111669Y913539D01*
X113218Y915088D01*
X113995Y915504D01*
X114602Y915503D01*
X115160Y915265D01*
X115581Y914829D01*
X115634Y914745D01*
X115800Y914555D01*
X133499Y896856D01*
X133733Y896657D01*
X133944Y896530D01*
X134172Y896438D01*
X134422Y896383D01*
X134672Y896366D01*
X167578Y896366D01*
X167885Y896391D01*
X168124Y896450D01*
X168350Y896547D01*
X168565Y896684D01*
X168755Y896850D01*
X192804Y920899D01*
X193003Y921133D01*
X193130Y921344D01*
X193222Y921572D01*
X193277Y921822D01*
X193294Y922072D01*
X193294Y956248D01*
X193269Y956555D01*
X193210Y956794D01*
X193113Y957020D01*
X192981Y957227D01*
X192817Y957410D01*
X192626Y957565D01*
X192412Y957687D01*
X192182Y957772D01*
X191922Y957823D01*
X191727Y957834D01*
X157542Y957834D01*
X157235Y957809D01*
X156996Y957750D01*
X156770Y957653D01*
X156555Y957516D01*
X156365Y957350D01*
X148405Y949390D01*
X147922Y949065D01*
X147328Y948944D01*
X142889Y948944D01*
X142362Y949038D01*
X141846Y949357D01*
X141495Y949851D01*
X141365Y950444D01*
X141476Y951040D01*
X141811Y951546D01*
X141914Y951649D01*
X141914Y959911D01*
X140908Y960917D01*
X140583Y961400D01*
X140462Y961995D01*
X140462Y963533D01*
X139766Y965213D01*
X125287Y979692D01*
X124962Y980175D01*
X124841Y980770D01*
X124841Y985797D01*
X123948Y986690D01*
X120936Y986690D01*
X120415Y986782D01*
X119898Y987098D01*
X119545Y987591D01*
X119412Y988183D01*
X119521Y988780D01*
X119562Y988882D01*
X119617Y989132D01*
X119634Y989382D01*
X119634Y1001968D01*
X119609Y1002275D01*
X119550Y1002514D01*
X119453Y1002740D01*
X119321Y1002947D01*
X119157Y1003130D01*
X119009Y1003250D01*
X118573Y1003819D01*
X118443Y1004411D01*
X118555Y1005007D01*
X118889Y1005513D01*
X119715Y1006338D01*
X119715Y1012128D01*
X104635Y1012128D01*
X104635Y1006338D01*
X104817Y1006156D01*
X105123Y1005717D01*
X105262Y1005127D01*
X105161Y1004529D01*
X104834Y1004018D01*
X104334Y1003675D01*
X103739Y1003554D01*
X100000Y1003554D01*
X99473Y1003648D01*
X98957Y1003967D01*
X98606Y1004461D01*
X98476Y1005054D01*
X98587Y1005650D01*
X98922Y1006156D01*
X99285Y1006518D01*
X99285Y1012308D01*
X84205Y1012308D01*
X84205Y1010020D01*
X84111Y1009493D01*
X83792Y1008977D01*
X83297Y1008626D01*
X82705Y1008496D01*
X82109Y1008607D01*
X81603Y1008942D01*
X76051Y1014494D01*
X75817Y1014693D01*
X75606Y1014820D01*
X75378Y1014912D01*
X75128Y1014967D01*
X74878Y1014984D01*
X61022Y1014984D01*
X60715Y1014959D01*
X60476Y1014900D01*
X60250Y1014803D01*
X60043Y1014671D01*
X59860Y1014507D01*
X59705Y1014316D01*
X59583Y1014102D01*
X59498Y1013872D01*
X59447Y1013612D01*
X59436Y1013417D01*
X59436Y1010706D01*
X59334Y1010157D01*
X59007Y1009646D01*
X58506Y1009303D01*
X57912Y1009182D01*
X6267Y1009182D01*
X3373Y1007983D01*
X-24954Y979656D01*
X-25437Y979331D01*
X-26031Y979210D01*
X-61093Y979210D01*
X-61665Y979321D01*
X-62171Y979656D01*
X-77240Y994725D01*
X-77565Y995208D01*
X-77686Y995803D01*
X-77686Y998044D01*
X-79465Y1002338D01*
X-82752Y1005625D01*
X-87046Y1007404D01*
X-91694Y1007404D01*
X-95988Y1005625D01*
X-97573Y1004040D01*
X-98057Y1003715D01*
X-98651Y1003594D01*
X-198122Y1003594D01*
X-201016Y1002395D01*
X-279471Y923940D01*
X-280670Y921046D01*
X-280670Y607821D01*
X-280764Y607295D01*
X-281083Y606779D01*
X-281577Y606428D01*
X-282170Y606298D01*
X-282766Y606409D01*
X-283272Y606744D01*
X-283508Y606980D01*
X-291338Y606980D01*
X-291338Y597662D01*
X-282020Y597662D01*
X-282020Y598221D01*
X-281926Y598747D01*
X-281607Y599263D01*
X-281113Y599614D01*
X-280520Y599745D01*
X-279924Y599633D01*
X-279418Y599298D01*
X-210631Y530511D01*
X-210306Y530028D01*
X-210185Y529434D01*
X-210185Y479172D01*
X-210296Y478600D01*
X-210631Y478094D01*
X-212567Y476159D01*
X-214249Y472098D01*
X-214249Y470618D01*
X-214360Y470046D01*
X-214695Y469540D01*
X-236114Y448121D01*
X-236597Y447796D01*
X-237192Y447675D01*
X-272965Y447675D01*
X-275859Y446476D01*
X-279418Y442917D01*
X-279857Y442611D01*
X-280447Y442472D01*
X-281045Y442573D01*
X-281556Y442900D01*
X-281899Y443400D01*
X-281968Y443738D01*
X-291338Y443738D01*
X-291338Y434374D01*
X-291068Y434326D01*
X-290552Y434007D01*
X-290201Y433513D01*
X-290071Y432920D01*
X-290182Y432324D01*
X-290517Y431818D01*
X-294147Y428188D01*
X-294642Y427858D01*
X-297234Y426784D01*
X-299784Y424234D01*
X-301164Y420903D01*
X-301164Y417297D01*
X-300090Y414704D01*
X-299974Y414121D01*
X-299974Y392444D01*
X-298775Y389550D01*
X-290511Y381285D01*
X-290205Y380846D01*
X-290065Y380256D01*
X-290167Y379658D01*
X-290494Y379147D01*
X-290994Y378804D01*
X-291588Y378684D01*
X-292147Y378684D01*
X-292147Y369366D01*
X-282829Y369366D01*
X-282829Y369924D01*
X-282735Y370451D01*
X-282416Y370967D01*
X-281922Y371318D01*
X-281329Y371448D01*
X-280733Y371337D01*
X-280227Y371002D01*
X-211520Y302295D01*
X-211195Y301812D01*
X-211074Y301217D01*
X-211074Y249683D01*
X-211185Y249111D01*
X-211520Y248605D01*
X-212567Y247559D01*
X-214249Y243498D01*
X-214249Y242812D01*
X-214360Y242240D01*
X-214695Y241734D01*
X-224208Y232221D01*
X-224691Y231896D01*
X-225286Y231775D01*
X-242783Y231775D01*
X-243310Y231869D01*
X-243826Y232188D01*
X-244177Y232682D01*
X-244307Y233275D01*
X-244196Y233871D01*
X-243861Y234377D01*
X-241935Y236303D01*
X-241935Y240538D01*
X-266065Y240538D01*
X-266065Y236303D01*
X-263104Y233341D01*
X-262792Y232891D01*
X-262658Y232300D01*
X-262764Y231703D01*
X-263095Y231194D01*
X-263598Y230855D01*
X-264272Y230576D01*
X-280227Y214621D01*
X-280666Y214315D01*
X-281256Y214175D01*
X-281854Y214277D01*
X-282365Y214604D01*
X-282708Y215104D01*
X-282777Y215442D01*
X-292147Y215442D01*
X-292147Y206078D01*
X-291877Y206030D01*
X-291361Y205711D01*
X-291010Y205216D01*
X-290880Y204624D01*
X-290991Y204028D01*
X-291326Y203522D01*
X-294956Y199892D01*
X-295451Y199562D01*
X-298043Y198488D01*
X-300593Y195938D01*
X-301973Y192606D01*
X-301973Y189001D01*
X-300593Y185669D01*
X-298043Y183120D01*
X-294712Y181740D01*
X-291106Y181740D01*
X-287775Y183120D01*
X-285225Y185669D01*
X-284151Y188262D01*
X-283821Y188756D01*
X-256996Y215581D01*
X-256513Y215906D01*
X-255919Y216027D01*
X-219827Y216027D01*
X-216933Y217226D01*
X-204354Y229805D01*
X-203871Y230130D01*
X-203276Y230251D01*
X-201002Y230251D01*
X-196941Y231933D01*
X-196150Y232725D01*
X-195711Y233031D01*
X-195121Y233170D01*
X-194523Y233069D01*
X-194012Y232742D01*
X-193669Y232242D01*
X-193548Y231647D01*
X-193548Y208480D01*
X-193659Y207908D01*
X-193994Y207402D01*
X-206368Y195029D01*
X-206818Y194718D01*
X-207409Y194583D01*
X-208006Y194690D01*
X-208514Y195021D01*
X-208853Y195524D01*
X-209025Y195938D01*
X-211575Y198488D01*
X-214906Y199868D01*
X-218512Y199868D01*
X-221843Y198488D01*
X-224393Y195938D01*
X-225773Y192606D01*
X-225773Y189001D01*
X-224393Y185669D01*
X-221843Y183120D01*
X-218512Y181740D01*
X-214906Y181740D01*
X-211575Y183120D01*
X-208850Y185845D01*
X-208411Y186151D01*
X-207821Y186290D01*
X-207223Y186188D01*
X-206712Y185862D01*
X-206369Y185361D01*
X-206248Y184767D01*
X-206248Y133536D01*
X-175135Y102424D01*
X-174829Y101985D01*
X-174690Y101395D01*
X-174792Y100797D01*
X-175118Y100286D01*
X-175619Y99943D01*
X-176213Y99822D01*
X-180769Y99822D01*
X-184784Y98159D01*
X-187856Y95087D01*
X-188346Y93905D01*
X-188659Y93428D01*
X-189159Y93085D01*
X-189754Y92964D01*
X-192840Y92964D01*
X-193401Y93071D01*
X-193909Y93402D01*
X-194248Y93905D01*
X-194738Y95087D01*
X-197810Y98159D01*
X-201824Y99822D01*
X-206169Y99822D01*
X-210184Y98159D01*
X-213256Y95087D01*
X-214919Y91073D01*
X-214919Y86728D01*
X-213256Y82713D01*
X-210184Y79641D01*
X-206169Y77978D01*
X-201824Y77978D01*
X-197810Y79641D01*
X-194738Y82713D01*
X-194248Y83895D01*
X-193935Y84372D01*
X-193434Y84715D01*
X-192840Y84836D01*
X-189754Y84836D01*
X-189193Y84729D01*
X-188685Y84398D01*
X-188346Y83895D01*
X-187856Y82713D01*
X-184784Y79641D01*
X-180769Y77978D01*
X-176424Y77978D01*
X-172410Y79641D01*
X-169338Y82713D01*
X-168848Y83895D01*
X-168535Y84372D01*
X-168034Y84715D01*
X-167440Y84836D01*
X-164354Y84836D01*
X-163793Y84729D01*
X-163285Y84398D01*
X-162946Y83895D01*
X-162456Y82713D01*
X-159384Y79641D01*
X-155369Y77978D01*
X-151024Y77978D01*
X-147010Y79641D01*
X-143938Y82713D01*
X-143448Y83895D01*
X-143135Y84372D01*
X-142634Y84715D01*
X-142040Y84836D01*
X-138954Y84836D01*
X-138393Y84729D01*
X-137885Y84398D01*
X-137546Y83895D01*
X-137056Y82713D01*
X-133984Y79641D01*
X-129969Y77978D01*
X-125624Y77978D01*
X-121610Y79641D01*
X-118538Y82713D01*
X-118048Y83895D01*
X-117735Y84372D01*
X-117234Y84715D01*
X-116640Y84836D01*
X-113554Y84836D01*
X-112993Y84729D01*
X-112485Y84398D01*
X-112146Y83895D01*
X-111656Y82713D01*
X-108584Y79641D01*
X-104569Y77978D01*
X-100224Y77978D01*
X-96210Y79641D01*
X-93138Y82713D01*
X-92648Y83895D01*
X-92335Y84372D01*
X-91834Y84715D01*
X-91240Y84836D01*
X-87357Y84836D01*
X-86796Y84729D01*
X-86288Y84398D01*
X-85949Y83895D01*
X-85459Y82713D01*
X-82387Y79641D01*
X-78373Y77978D01*
X-74028Y77978D01*
X-70013Y79641D01*
X-66941Y82713D01*
X-66030Y84911D01*
X-65717Y85388D01*
X-65217Y85731D01*
X-64622Y85852D01*
X26663Y85852D01*
X45696Y104885D01*
X45696Y106383D01*
X45798Y106932D01*
X46125Y107443D01*
X46626Y107786D01*
X47220Y107907D01*
X47273Y107907D01*
X48166Y108799D01*
X48166Y119801D01*
X47273Y120694D01*
X47220Y120694D01*
X46671Y120796D01*
X46160Y121123D01*
X45817Y121623D01*
X45696Y122218D01*
X45696Y131783D01*
X45798Y132332D01*
X46125Y132843D01*
X46626Y133186D01*
X47220Y133307D01*
X47273Y133307D01*
X48166Y134199D01*
X48166Y145201D01*
X47273Y146094D01*
X47220Y146094D01*
X46671Y146196D01*
X46160Y146523D01*
X45817Y147023D01*
X45696Y147618D01*
X45696Y157183D01*
X45798Y157732D01*
X46125Y158243D01*
X46626Y158586D01*
X47220Y158707D01*
X47273Y158707D01*
X48166Y159599D01*
X48166Y170601D01*
X47273Y171494D01*
X47220Y171494D01*
X46671Y171596D01*
X46160Y171923D01*
X45817Y172423D01*
X45696Y173018D01*
X45696Y182583D01*
X45798Y183132D01*
X46125Y183643D01*
X46626Y183986D01*
X47220Y184107D01*
X47273Y184107D01*
X48166Y184999D01*
X48166Y196001D01*
X47273Y196894D01*
X47220Y196894D01*
X46671Y196996D01*
X46160Y197323D01*
X45817Y197823D01*
X45696Y198418D01*
X45696Y207983D01*
X45798Y208532D01*
X46125Y209043D01*
X46626Y209386D01*
X47220Y209507D01*
X47273Y209507D01*
X48166Y210399D01*
X48166Y221401D01*
X47273Y222294D01*
X47220Y222294D01*
X46671Y222396D01*
X46160Y222723D01*
X45817Y223223D01*
X45696Y223818D01*
X45696Y265568D01*
X45807Y266140D01*
X46142Y266646D01*
X55148Y275652D01*
X55631Y275977D01*
X56226Y276098D01*
X66473Y276098D01*
X66999Y276004D01*
X67515Y275685D01*
X67866Y275191D01*
X67997Y274598D01*
X67885Y274002D01*
X67550Y273496D01*
X66941Y272887D01*
X65278Y268873D01*
X65278Y264528D01*
X66941Y260513D01*
X70013Y257441D01*
X74028Y255778D01*
X78373Y255778D01*
X82387Y257441D01*
X85459Y260513D01*
X86370Y262711D01*
X86683Y263188D01*
X87183Y263531D01*
X87778Y263652D01*
X90022Y263652D01*
X90583Y263545D01*
X91091Y263214D01*
X91430Y262711D01*
X92341Y260513D01*
X95413Y257441D01*
X99428Y255778D01*
X103773Y255778D01*
X107787Y257441D01*
X110859Y260513D01*
X111770Y262711D01*
X112083Y263188D01*
X112583Y263531D01*
X113178Y263652D01*
X115422Y263652D01*
X115983Y263545D01*
X116491Y263214D01*
X116830Y262711D01*
X117741Y260513D01*
X120813Y257441D01*
X124828Y255778D01*
X129173Y255778D01*
X133187Y257441D01*
X136259Y260513D01*
X137922Y264528D01*
X137922Y268873D01*
X136259Y272887D01*
X134908Y274238D01*
X134592Y274699D01*
X134462Y275292D01*
X134573Y275888D01*
X134908Y276393D01*
X155448Y296933D01*
X155448Y366406D01*
X155559Y366978D01*
X155894Y367484D01*
X171409Y382999D01*
X171881Y383320D01*
X172475Y383445D01*
X173070Y383329D01*
X175628Y382270D01*
X179973Y382270D01*
X183987Y383933D01*
X187059Y387005D01*
X187970Y389203D01*
X188283Y389680D01*
X188783Y390023D01*
X189378Y390144D01*
X191622Y390144D01*
X192183Y390037D01*
X192691Y389706D01*
X193030Y389203D01*
X193941Y387005D01*
X197013Y383933D01*
X201028Y382270D01*
X205373Y382270D01*
X209387Y383933D01*
X209996Y384542D01*
X210435Y384848D01*
X211025Y384988D01*
X211623Y384886D01*
X212134Y384559D01*
X212477Y384059D01*
X212598Y383465D01*
X212598Y311262D01*
X212487Y310690D01*
X212152Y310185D01*
X210587Y308620D01*
X209779Y306670D01*
X209779Y304559D01*
X210587Y302609D01*
X212080Y301116D01*
X214030Y300309D01*
X216141Y300309D01*
X218091Y301116D01*
X219584Y302609D01*
X220391Y304559D01*
X220391Y306670D01*
X219584Y308620D01*
X218077Y310127D01*
X217634Y310418D01*
X217291Y310918D01*
X217170Y311513D01*
X217170Y611563D01*
X204227Y624506D01*
X203902Y624989D01*
X203781Y625583D01*
X203781Y631605D01*
X183875Y651510D01*
X93073Y651510D01*
X92501Y651621D01*
X91995Y651956D01*
X43132Y700819D01*
X42807Y701302D01*
X42686Y701897D01*
X42686Y716652D01*
X42788Y717201D01*
X43115Y717712D01*
X43616Y718055D01*
X44210Y718176D01*
X44571Y718176D01*
X44657Y718195D01*
X45254Y718084D01*
X45759Y717749D01*
X46348Y717160D01*
X49638Y717160D01*
X49638Y737740D01*
X46348Y737740D01*
X45759Y737151D01*
X45299Y736836D01*
X44707Y736705D01*
X44606Y736724D01*
X44210Y736724D01*
X43661Y736826D01*
X43150Y737153D01*
X42807Y737654D01*
X42686Y738248D01*
X42686Y767452D01*
X42788Y768001D01*
X43115Y768512D01*
X43616Y768855D01*
X44210Y768976D01*
X44571Y768976D01*
X44657Y768995D01*
X45254Y768884D01*
X45759Y768549D01*
X46348Y767960D01*
X49638Y767960D01*
X49638Y788540D01*
X46348Y788540D01*
X45759Y787951D01*
X45299Y787636D01*
X44707Y787505D01*
X44606Y787524D01*
X36229Y787524D01*
X36143Y787505D01*
X35547Y787616D01*
X35041Y787951D01*
X34452Y788540D01*
X31162Y788540D01*
X31162Y767960D01*
X34452Y767960D01*
X35041Y768549D01*
X35503Y768865D01*
X36095Y768995D01*
X36196Y768976D01*
X36590Y768976D01*
X37139Y768874D01*
X37650Y768547D01*
X37993Y768046D01*
X38114Y767452D01*
X38114Y738248D01*
X38012Y737699D01*
X37685Y737188D01*
X37184Y736845D01*
X36590Y736724D01*
X36229Y736724D01*
X36143Y736705D01*
X35547Y736816D01*
X35041Y737151D01*
X34452Y737740D01*
X31162Y737740D01*
X31162Y717160D01*
X34452Y717160D01*
X35041Y717749D01*
X35503Y718065D01*
X36095Y718195D01*
X36196Y718176D01*
X36590Y718176D01*
X37139Y718074D01*
X37650Y717747D01*
X37993Y717246D01*
X38114Y716652D01*
X38114Y699372D01*
X90994Y646492D01*
X91300Y646053D01*
X91440Y645463D01*
X91338Y644865D01*
X91011Y644354D01*
X90511Y644011D01*
X89916Y643890D01*
X89916Y643890D01*
X89344Y644001D01*
X88839Y644336D01*
X23132Y710043D01*
X22807Y710526D01*
X22686Y711120D01*
X22686Y716652D01*
X22788Y717201D01*
X23115Y717712D01*
X23616Y718055D01*
X24210Y718176D01*
X24571Y718176D01*
X24657Y718195D01*
X25254Y718084D01*
X25759Y717749D01*
X26348Y717160D01*
X29638Y717160D01*
X29638Y737740D01*
X26348Y737740D01*
X25759Y737151D01*
X25299Y736836D01*
X24707Y736705D01*
X24606Y736724D01*
X24210Y736724D01*
X23661Y736826D01*
X23150Y737153D01*
X22807Y737654D01*
X22686Y738248D01*
X22686Y767452D01*
X22788Y768001D01*
X23115Y768512D01*
X23616Y768855D01*
X24210Y768976D01*
X24571Y768976D01*
X24657Y768995D01*
X25254Y768884D01*
X25759Y768549D01*
X26348Y767960D01*
X29638Y767960D01*
X29638Y788540D01*
X26348Y788540D01*
X25759Y787951D01*
X25299Y787636D01*
X24707Y787505D01*
X24606Y787524D01*
X16229Y787524D01*
X16143Y787505D01*
X15547Y787616D01*
X15041Y787951D01*
X14452Y788540D01*
X11162Y788540D01*
X11162Y767960D01*
X14452Y767960D01*
X15041Y768549D01*
X15503Y768865D01*
X16095Y768995D01*
X16196Y768976D01*
X16590Y768976D01*
X17139Y768874D01*
X17650Y768547D01*
X17993Y768046D01*
X18114Y767452D01*
X18114Y738248D01*
X18012Y737699D01*
X17685Y737188D01*
X17184Y736845D01*
X16590Y736724D01*
X16229Y736724D01*
X16143Y736705D01*
X15547Y736816D01*
X15041Y737151D01*
X14452Y737740D01*
X11162Y737740D01*
X11162Y717160D01*
X14452Y717160D01*
X15041Y717749D01*
X15503Y718065D01*
X16095Y718195D01*
X16196Y718176D01*
X16590Y718176D01*
X17139Y718074D01*
X17650Y717747D01*
X17993Y717246D01*
X18114Y716652D01*
X18114Y708595D01*
X87838Y638872D01*
X88144Y638433D01*
X88283Y637843D01*
X88182Y637245D01*
X87855Y636734D01*
X87354Y636391D01*
X86760Y636270D01*
X78761Y636270D01*
X78189Y636381D01*
X77684Y636716D01*
X3132Y711268D01*
X2807Y711751D01*
X2686Y712345D01*
X2686Y716652D01*
X2788Y717201D01*
X3115Y717712D01*
X3616Y718055D01*
X4210Y718176D01*
X4571Y718176D01*
X4657Y718195D01*
X5254Y718084D01*
X5759Y717749D01*
X6348Y717160D01*
X9638Y717160D01*
X9638Y737740D01*
X6348Y737740D01*
X5759Y737151D01*
X5299Y736836D01*
X4707Y736705D01*
X4606Y736724D01*
X4210Y736724D01*
X3661Y736826D01*
X3150Y737153D01*
X2807Y737654D01*
X2686Y738248D01*
X2686Y767452D01*
X2788Y768001D01*
X3115Y768512D01*
X3616Y768855D01*
X4210Y768976D01*
X4571Y768976D01*
X4657Y768995D01*
X5254Y768884D01*
X5759Y768549D01*
X6348Y767960D01*
X9638Y767960D01*
X9638Y788540D01*
X6348Y788540D01*
X5759Y787951D01*
X5299Y787636D01*
X4707Y787505D01*
X4606Y787524D01*
X-3231Y787524D01*
X-3522Y787233D01*
X-3983Y786917D01*
X-4576Y786787D01*
X-5172Y786898D01*
X-5678Y787233D01*
X-5969Y787524D01*
X-13231Y787524D01*
X-14124Y786631D01*
X-14124Y769869D01*
X-13094Y768839D01*
X-12769Y768356D01*
X-12648Y767761D01*
X-12648Y763883D01*
X-12742Y763356D01*
X-13061Y762840D01*
X-13555Y762489D01*
X-14148Y762359D01*
X-14744Y762470D01*
X-15250Y762805D01*
X-15969Y763524D01*
X-29231Y763524D01*
X-30124Y762631D01*
X-30124Y743369D01*
X-29231Y742476D01*
X-15969Y742476D01*
X-15250Y743195D01*
X-14811Y743501D01*
X-14221Y743641D01*
X-13623Y743539D01*
X-13112Y743212D01*
X-12769Y742712D01*
X-12648Y742117D01*
X-12648Y737939D01*
X-12759Y737367D01*
X-13094Y736861D01*
X-14124Y735831D01*
X-14124Y719069D01*
X-13094Y718039D01*
X-12769Y717556D01*
X-12648Y716961D01*
X-12648Y713083D01*
X-12742Y712556D01*
X-13061Y712040D01*
X-13555Y711689D01*
X-14148Y711559D01*
X-14744Y711670D01*
X-15250Y712005D01*
X-15969Y712724D01*
X-29231Y712724D01*
X-30124Y711831D01*
X-30124Y692569D01*
X-29231Y691676D01*
X-15969Y691676D01*
X-15250Y692395D01*
X-14811Y692701D01*
X-14221Y692841D01*
X-13623Y692739D01*
X-13112Y692412D01*
X-12769Y691912D01*
X-12648Y691317D01*
X-12648Y652965D01*
X-12759Y652393D01*
X-13094Y651887D01*
X-14098Y650884D01*
X-14906Y648933D01*
X-14906Y646823D01*
X-14098Y644872D01*
X-12606Y643380D01*
X-10655Y642572D01*
X-9236Y642572D01*
X-8664Y642461D01*
X-8158Y642126D01*
X10014Y623953D01*
X10340Y623470D01*
X10461Y622876D01*
X10461Y616799D01*
X11353Y615907D01*
X18976Y615907D01*
X19503Y615813D01*
X20019Y615494D01*
X20370Y614999D01*
X20500Y614407D01*
X20389Y613811D01*
X20054Y613305D01*
X19081Y612332D01*
X18598Y612007D01*
X18004Y611886D01*
X-11122Y611886D01*
X-11694Y611997D01*
X-12199Y612332D01*
X-76568Y676701D01*
X-76893Y677184D01*
X-77014Y677778D01*
X-77014Y703952D01*
X-76912Y704501D01*
X-76585Y705012D01*
X-76084Y705355D01*
X-75714Y705430D01*
X-74776Y706369D01*
X-74776Y723131D01*
X-75669Y724024D01*
X-83472Y724024D01*
X-83557Y724005D01*
X-84154Y724116D01*
X-84659Y724451D01*
X-85248Y725040D01*
X-88538Y725040D01*
X-88538Y704460D01*
X-85248Y704460D01*
X-84659Y705049D01*
X-84198Y705365D01*
X-83606Y705495D01*
X-83505Y705476D01*
X-83110Y705476D01*
X-82561Y705374D01*
X-82050Y705047D01*
X-81707Y704546D01*
X-81586Y703952D01*
X-81586Y675253D01*
X-13647Y607314D01*
X20529Y607314D01*
X28675Y615460D01*
X29158Y615786D01*
X29753Y615907D01*
X47273Y615907D01*
X48166Y616799D01*
X48166Y627801D01*
X47273Y628694D01*
X42977Y628694D01*
X42450Y628787D01*
X41934Y629106D01*
X41583Y629601D01*
X41453Y630193D01*
X41564Y630789D01*
X41899Y631295D01*
X42598Y631994D01*
X43406Y633945D01*
X43406Y636055D01*
X42598Y638006D01*
X41106Y639498D01*
X39155Y640306D01*
X37045Y640306D01*
X35094Y639498D01*
X33602Y638006D01*
X32794Y636055D01*
X32794Y633945D01*
X33602Y631994D01*
X34301Y631295D01*
X34607Y630856D01*
X34747Y630266D01*
X34645Y629668D01*
X34318Y629157D01*
X33818Y628814D01*
X33223Y628694D01*
X27657Y628694D01*
X26765Y627801D01*
X26765Y620647D01*
X26653Y620075D01*
X26318Y619569D01*
X24097Y617348D01*
X23658Y617042D01*
X23068Y616902D01*
X22470Y617004D01*
X21959Y617331D01*
X21616Y617831D01*
X21496Y618426D01*
X21496Y627801D01*
X20603Y628694D01*
X14526Y628694D01*
X13954Y628805D01*
X13449Y629140D01*
X-3848Y646436D01*
X-4173Y646919D01*
X-4294Y647514D01*
X-4294Y648933D01*
X-5102Y650884D01*
X-6106Y651887D01*
X-6431Y652371D01*
X-6552Y652965D01*
X-6552Y716961D01*
X-6441Y717533D01*
X-6106Y718039D01*
X-5678Y718467D01*
X-5217Y718783D01*
X-4624Y718913D01*
X-4028Y718802D01*
X-3522Y718467D01*
X-3190Y718135D01*
X-2861Y718074D01*
X-2350Y717747D01*
X-2007Y717246D01*
X-1886Y716652D01*
X-1886Y709820D01*
X72899Y635035D01*
X73210Y634586D01*
X73345Y633994D01*
X73238Y633397D01*
X72907Y632889D01*
X72404Y632550D01*
X70013Y631559D01*
X66941Y628487D01*
X66889Y628361D01*
X66592Y627902D01*
X66098Y627551D01*
X65505Y627421D01*
X64909Y627532D01*
X64403Y627867D01*
X63577Y628694D01*
X54327Y628694D01*
X53435Y627801D01*
X53435Y616799D01*
X54327Y615907D01*
X63577Y615907D01*
X64403Y616733D01*
X64853Y617044D01*
X65444Y617179D01*
X66042Y617072D01*
X66550Y616742D01*
X66889Y616239D01*
X66941Y616113D01*
X70013Y613041D01*
X74028Y611378D01*
X78373Y611378D01*
X82387Y613041D01*
X85459Y616113D01*
X86370Y618311D01*
X86683Y618788D01*
X87183Y619131D01*
X87778Y619252D01*
X90022Y619252D01*
X90583Y619145D01*
X91091Y618814D01*
X91430Y618311D01*
X92341Y616113D01*
X95413Y613041D01*
X99428Y611378D01*
X103773Y611378D01*
X107787Y613041D01*
X110859Y616113D01*
X111770Y618311D01*
X112083Y618788D01*
X112583Y619131D01*
X113178Y619252D01*
X115422Y619252D01*
X115983Y619145D01*
X116491Y618814D01*
X116830Y618311D01*
X117741Y616113D01*
X120813Y613041D01*
X124828Y611378D01*
X129173Y611378D01*
X133187Y613041D01*
X136259Y616113D01*
X137922Y620128D01*
X137922Y620990D01*
X138016Y621516D01*
X138335Y622032D01*
X138829Y622383D01*
X139422Y622513D01*
X140018Y622402D01*
X140524Y622067D01*
X142137Y620453D01*
X142463Y619970D01*
X142584Y619376D01*
X142584Y602213D01*
X151752Y593045D01*
X152073Y592573D01*
X152198Y591979D01*
X152174Y591854D01*
X152174Y589495D01*
X152982Y587544D01*
X154474Y586052D01*
X156425Y585244D01*
X158535Y585244D01*
X160486Y586052D01*
X161978Y587544D01*
X162786Y589495D01*
X162786Y591605D01*
X161978Y593556D01*
X160486Y595048D01*
X158535Y595856D01*
X156204Y595856D01*
X156087Y595832D01*
X155491Y595943D01*
X154985Y596278D01*
X147602Y603661D01*
X147276Y604144D01*
X147156Y604738D01*
X147156Y621901D01*
X132340Y636716D01*
X132034Y637155D01*
X131895Y637745D01*
X131996Y638343D01*
X132323Y638854D01*
X132823Y639197D01*
X133418Y639318D01*
X139062Y639318D01*
X139634Y639207D01*
X140139Y638872D01*
X167345Y611666D01*
X167670Y611183D01*
X167791Y610589D01*
X167791Y593291D01*
X179634Y581448D01*
X179955Y580976D01*
X180080Y580382D01*
X179964Y579787D01*
X178889Y577191D01*
X178889Y572846D01*
X180552Y568831D01*
X183624Y565759D01*
X187638Y564096D01*
X191983Y564096D01*
X194943Y565322D01*
X195502Y565438D01*
X196099Y565327D01*
X196604Y564992D01*
X205040Y556556D01*
X205365Y556073D01*
X205486Y555479D01*
X205486Y501834D01*
X205375Y501262D01*
X205040Y500756D01*
X203335Y499051D01*
X202896Y498745D01*
X202305Y498605D01*
X201708Y498707D01*
X201197Y499034D01*
X200854Y499534D01*
X200733Y500128D01*
X200733Y500991D01*
X199070Y505005D01*
X195998Y508077D01*
X191983Y509740D01*
X191629Y509740D01*
X191057Y509851D01*
X190552Y510186D01*
X190044Y510694D01*
X189738Y511133D01*
X189598Y511723D01*
X189700Y512321D01*
X190027Y512832D01*
X190527Y513175D01*
X191121Y513296D01*
X191983Y513296D01*
X195998Y514959D01*
X199070Y518031D01*
X200733Y522046D01*
X200733Y526391D01*
X199070Y530405D01*
X195998Y533477D01*
X191983Y535140D01*
X187638Y535140D01*
X184678Y533914D01*
X184119Y533798D01*
X183523Y533909D01*
X183018Y534244D01*
X172630Y544632D01*
X172309Y545104D01*
X172184Y545698D01*
X172208Y545823D01*
X172208Y548182D01*
X171400Y550133D01*
X169751Y551781D01*
X169652Y551847D01*
X169309Y552347D01*
X169188Y552941D01*
X169188Y555963D01*
X169290Y556512D01*
X169617Y557023D01*
X170118Y557366D01*
X170712Y557487D01*
X171527Y557487D01*
X172420Y558379D01*
X172420Y569381D01*
X171527Y570274D01*
X162277Y570274D01*
X161385Y569381D01*
X161385Y558379D01*
X162277Y557487D01*
X163092Y557487D01*
X163641Y557384D01*
X164152Y557057D01*
X164495Y556557D01*
X164616Y555963D01*
X164616Y552941D01*
X164509Y552381D01*
X164178Y551872D01*
X164072Y551801D01*
X162404Y550133D01*
X161596Y548182D01*
X161596Y546072D01*
X162098Y544859D01*
X162213Y544348D01*
X162121Y543749D01*
X161802Y543233D01*
X161307Y542882D01*
X160715Y542752D01*
X160118Y542863D01*
X159613Y543198D01*
X147926Y554885D01*
X147620Y555324D01*
X147480Y555914D01*
X147582Y556512D01*
X147909Y557023D01*
X148409Y557366D01*
X149003Y557487D01*
X155223Y557487D01*
X156116Y558379D01*
X156116Y569381D01*
X155223Y570274D01*
X154408Y570274D01*
X153859Y570376D01*
X153348Y570703D01*
X153005Y571203D01*
X152884Y571798D01*
X152884Y574249D01*
X137026Y590107D01*
X136705Y590579D01*
X136580Y591172D01*
X136696Y591767D01*
X137922Y594728D01*
X137922Y599073D01*
X136259Y603087D01*
X133187Y606159D01*
X129173Y607822D01*
X124828Y607822D01*
X120813Y606159D01*
X117741Y603087D01*
X117251Y601905D01*
X116938Y601428D01*
X116438Y601085D01*
X115843Y600964D01*
X112757Y600964D01*
X112196Y601071D01*
X111688Y601402D01*
X111349Y601905D01*
X110859Y603087D01*
X107787Y606159D01*
X103773Y607822D01*
X99428Y607822D01*
X95413Y606159D01*
X92341Y603087D01*
X91851Y601905D01*
X91538Y601428D01*
X91038Y601085D01*
X90443Y600964D01*
X87357Y600964D01*
X86796Y601071D01*
X86288Y601402D01*
X85949Y601905D01*
X85459Y603087D01*
X82387Y606159D01*
X78373Y607822D01*
X74028Y607822D01*
X70013Y606159D01*
X66941Y603087D01*
X66146Y601168D01*
X65833Y600691D01*
X65332Y600348D01*
X64738Y600227D01*
X63733Y600227D01*
X63184Y600330D01*
X62673Y600657D01*
X62330Y601157D01*
X62209Y601751D01*
X62209Y602680D01*
X61316Y603573D01*
X52067Y603573D01*
X51174Y602680D01*
X51174Y591679D01*
X52067Y590786D01*
X61316Y590786D01*
X62209Y591679D01*
X62209Y592607D01*
X62311Y593157D01*
X62638Y593668D01*
X63139Y594011D01*
X63733Y594131D01*
X64507Y594131D01*
X65067Y594025D01*
X65576Y593694D01*
X65915Y593191D01*
X66941Y590713D01*
X70013Y587641D01*
X74028Y585978D01*
X78373Y585978D01*
X82387Y587641D01*
X85459Y590713D01*
X85949Y591895D01*
X86262Y592372D01*
X86762Y592715D01*
X87357Y592836D01*
X90443Y592836D01*
X91004Y592729D01*
X91512Y592398D01*
X91851Y591895D01*
X92341Y590713D01*
X95413Y587641D01*
X99428Y585978D01*
X103773Y585978D01*
X107787Y587641D01*
X110859Y590713D01*
X111349Y591895D01*
X111662Y592372D01*
X112162Y592715D01*
X112757Y592836D01*
X115843Y592836D01*
X116404Y592729D01*
X116912Y592398D01*
X117251Y591895D01*
X117741Y590713D01*
X120813Y587641D01*
X124828Y585978D01*
X129173Y585978D01*
X132133Y587204D01*
X132691Y587320D01*
X133288Y587209D01*
X133793Y586874D01*
X147792Y572875D01*
X148098Y572436D01*
X148238Y571846D01*
X148136Y571248D01*
X147809Y570737D01*
X147309Y570394D01*
X146714Y570274D01*
X145973Y570274D01*
X145081Y569381D01*
X145081Y561409D01*
X144987Y560883D01*
X144668Y560367D01*
X144173Y560016D01*
X143581Y559885D01*
X142985Y559997D01*
X142479Y560332D01*
X137342Y565469D01*
X137021Y565941D01*
X136896Y566534D01*
X137012Y567129D01*
X137922Y569328D01*
X137922Y573673D01*
X136259Y577687D01*
X133187Y580759D01*
X129173Y582422D01*
X124828Y582422D01*
X120813Y580759D01*
X117741Y577687D01*
X117251Y576505D01*
X116938Y576028D01*
X116438Y575685D01*
X115843Y575564D01*
X112757Y575564D01*
X112196Y575671D01*
X111688Y576002D01*
X111349Y576505D01*
X110859Y577687D01*
X107787Y580759D01*
X103773Y582422D01*
X99428Y582422D01*
X95413Y580759D01*
X92341Y577687D01*
X91851Y576505D01*
X91538Y576028D01*
X91038Y575685D01*
X90443Y575564D01*
X87357Y575564D01*
X86796Y575671D01*
X86288Y576002D01*
X85949Y576505D01*
X85459Y577687D01*
X82387Y580759D01*
X78373Y582422D01*
X74028Y582422D01*
X70013Y580759D01*
X66941Y577687D01*
X65278Y573673D01*
X65278Y569328D01*
X66941Y565313D01*
X70013Y562241D01*
X74028Y560578D01*
X78373Y560578D01*
X82387Y562241D01*
X85459Y565313D01*
X85949Y566495D01*
X86262Y566972D01*
X86762Y567315D01*
X87357Y567436D01*
X90443Y567436D01*
X91004Y567329D01*
X91512Y566998D01*
X91851Y566495D01*
X92341Y565313D01*
X95413Y562241D01*
X99428Y560578D01*
X103773Y560578D01*
X107787Y562241D01*
X110859Y565313D01*
X111349Y566495D01*
X111662Y566972D01*
X112162Y567315D01*
X112757Y567436D01*
X115843Y567436D01*
X116404Y567329D01*
X116912Y566998D01*
X117251Y566495D01*
X117741Y565313D01*
X120813Y562241D01*
X124828Y560578D01*
X129172Y560578D01*
X131371Y561488D01*
X131929Y561604D01*
X132526Y561493D01*
X133031Y561158D01*
X165582Y528608D01*
X165888Y528169D01*
X166027Y527579D01*
X165926Y526981D01*
X165599Y526470D01*
X165099Y526127D01*
X164504Y526006D01*
X163565Y526006D01*
X161614Y525198D01*
X160122Y523706D01*
X159314Y521755D01*
X159314Y519645D01*
X160122Y517694D01*
X161771Y516046D01*
X161870Y515980D01*
X162213Y515480D01*
X162334Y514885D01*
X162334Y503218D01*
X162232Y502668D01*
X161905Y502157D01*
X161404Y501814D01*
X160810Y501694D01*
X159737Y501694D01*
X158845Y500801D01*
X158845Y489799D01*
X159737Y488907D01*
X168987Y488907D01*
X169880Y489799D01*
X169880Y500801D01*
X168987Y501694D01*
X168430Y501694D01*
X167881Y501796D01*
X167370Y502123D01*
X167027Y502623D01*
X166906Y503218D01*
X166906Y514885D01*
X167013Y515446D01*
X167344Y515955D01*
X167450Y516026D01*
X169118Y517694D01*
X169926Y519645D01*
X169926Y520584D01*
X170020Y521111D01*
X170339Y521627D01*
X170833Y521978D01*
X171426Y522108D01*
X172022Y521997D01*
X172528Y521662D01*
X173871Y520319D01*
X174196Y519836D01*
X174317Y519241D01*
X174317Y517800D01*
X176549Y515568D01*
X182754Y509363D01*
X183070Y508902D01*
X183201Y508309D01*
X183089Y507713D01*
X182754Y507208D01*
X180552Y505005D01*
X178889Y500991D01*
X178889Y496646D01*
X180552Y492631D01*
X181161Y492022D01*
X181467Y491583D01*
X181607Y490993D01*
X181505Y490395D01*
X181178Y489884D01*
X180678Y489541D01*
X180536Y489512D01*
X180366Y489342D01*
X179893Y489021D01*
X179300Y488895D01*
X179175Y488920D01*
X176815Y488920D01*
X174865Y488112D01*
X173372Y486619D01*
X172565Y484669D01*
X172565Y482482D01*
X172649Y482075D01*
X172538Y481479D01*
X172203Y480974D01*
X167969Y476740D01*
X167486Y476414D01*
X166891Y476294D01*
X159737Y476294D01*
X158845Y475401D01*
X158845Y464399D01*
X159737Y463507D01*
X168987Y463507D01*
X169880Y464399D01*
X169880Y471553D01*
X169991Y472125D01*
X170326Y472631D01*
X175556Y477861D01*
X176039Y478187D01*
X176634Y478308D01*
X177734Y478308D01*
X178272Y478210D01*
X178785Y477887D01*
X179132Y477389D01*
X179257Y476796D01*
X179142Y476201D01*
X178889Y475591D01*
X178889Y471246D01*
X180552Y467231D01*
X183624Y464159D01*
X187638Y462496D01*
X191983Y462496D01*
X195998Y464159D01*
X199070Y467231D01*
X200733Y471246D01*
X200733Y475591D01*
X199070Y479605D01*
X195790Y482885D01*
X195474Y483346D01*
X195344Y483938D01*
X195455Y484535D01*
X195790Y485040D01*
X209996Y499247D01*
X210435Y499553D01*
X211025Y499693D01*
X211623Y499591D01*
X212134Y499264D01*
X212477Y498764D01*
X212598Y498169D01*
X212598Y402919D01*
X212504Y402393D01*
X212185Y401877D01*
X211691Y401526D01*
X211098Y401396D01*
X210502Y401507D01*
X209996Y401842D01*
X209387Y402451D01*
X205373Y404114D01*
X201028Y404114D01*
X197013Y402451D01*
X193941Y399379D01*
X193030Y397181D01*
X192717Y396704D01*
X192217Y396361D01*
X191622Y396240D01*
X189378Y396240D01*
X188817Y396347D01*
X188309Y396678D01*
X187970Y397181D01*
X187059Y399379D01*
X183987Y402451D01*
X179973Y404114D01*
X175628Y404114D01*
X171613Y402451D01*
X168541Y399379D01*
X167630Y397181D01*
X167317Y396704D01*
X166817Y396361D01*
X166222Y396240D01*
X163978Y396240D01*
X163417Y396347D01*
X162909Y396678D01*
X162570Y397181D01*
X161659Y399379D01*
X158587Y402451D01*
X154573Y404114D01*
X150228Y404114D01*
X146213Y402451D01*
X143141Y399379D01*
X142230Y397181D01*
X141917Y396704D01*
X141417Y396361D01*
X140822Y396240D01*
X138578Y396240D01*
X138017Y396347D01*
X137509Y396678D01*
X137170Y397181D01*
X136259Y399379D01*
X133187Y402451D01*
X129173Y404114D01*
X124828Y404114D01*
X120813Y402451D01*
X117741Y399379D01*
X116830Y397181D01*
X116517Y396704D01*
X116017Y396361D01*
X115422Y396240D01*
X113178Y396240D01*
X112617Y396347D01*
X112109Y396678D01*
X111770Y397181D01*
X110859Y399379D01*
X107787Y402451D01*
X103773Y404114D01*
X99428Y404114D01*
X95413Y402451D01*
X92341Y399379D01*
X91641Y397689D01*
X91327Y397212D01*
X90827Y396869D01*
X90233Y396748D01*
X87778Y396748D01*
X87217Y396855D01*
X86709Y397186D01*
X86370Y397689D01*
X85459Y399887D01*
X82387Y402959D01*
X78373Y404622D01*
X74028Y404622D01*
X70013Y402959D01*
X66941Y399887D01*
X66030Y397689D01*
X65717Y397212D01*
X65217Y396869D01*
X64622Y396748D01*
X52694Y396748D01*
X52122Y396859D01*
X51616Y397194D01*
X28894Y419916D01*
X28569Y420399D01*
X28448Y420994D01*
X28448Y439413D01*
X28559Y439985D01*
X28894Y440491D01*
X29898Y441494D01*
X30706Y443445D01*
X30706Y445555D01*
X29898Y447506D01*
X28406Y448998D01*
X26455Y449806D01*
X24345Y449806D01*
X22394Y448998D01*
X20902Y447506D01*
X20094Y445555D01*
X20094Y443445D01*
X20902Y441494D01*
X21906Y440491D01*
X22231Y440007D01*
X22352Y439413D01*
X22352Y417837D01*
X49537Y390652D01*
X64622Y390652D01*
X65183Y390545D01*
X65691Y390214D01*
X66030Y389711D01*
X66941Y387513D01*
X70013Y384441D01*
X74028Y382778D01*
X78373Y382778D01*
X82387Y384441D01*
X85459Y387513D01*
X86370Y389711D01*
X86683Y390188D01*
X87183Y390531D01*
X87778Y390652D01*
X89812Y390652D01*
X90373Y390545D01*
X90881Y390214D01*
X91220Y389711D01*
X92341Y387005D01*
X95413Y383933D01*
X99708Y382154D01*
X100158Y381866D01*
X100513Y381374D01*
X100648Y380782D01*
X100541Y380185D01*
X100211Y379677D01*
X99708Y379338D01*
X95413Y377559D01*
X92341Y374487D01*
X91430Y372289D01*
X91117Y371812D01*
X90617Y371469D01*
X90022Y371348D01*
X87778Y371348D01*
X87217Y371455D01*
X86709Y371786D01*
X86370Y372289D01*
X85459Y374487D01*
X82387Y377559D01*
X78373Y379222D01*
X74028Y379222D01*
X70013Y377559D01*
X66941Y374487D01*
X66889Y374361D01*
X66592Y373902D01*
X66098Y373551D01*
X65505Y373421D01*
X64909Y373532D01*
X64403Y373867D01*
X63577Y374694D01*
X54327Y374694D01*
X53815Y374181D01*
X53376Y373875D01*
X52786Y373736D01*
X52188Y373838D01*
X51677Y374164D01*
X51334Y374665D01*
X51214Y375259D01*
X51214Y379701D01*
X13487Y417428D01*
X13161Y417911D01*
X13041Y418505D01*
X13041Y438685D01*
X13148Y439246D01*
X13479Y439755D01*
X13584Y439826D01*
X15253Y441494D01*
X16061Y443445D01*
X16061Y445555D01*
X15253Y447506D01*
X13760Y448998D01*
X11810Y449806D01*
X9699Y449806D01*
X9080Y449549D01*
X8545Y449434D01*
X7947Y449536D01*
X7436Y449863D01*
X7093Y450363D01*
X6973Y450957D01*
X6973Y455338D01*
X7084Y455910D01*
X7419Y456415D01*
X7828Y456824D01*
X7828Y581529D01*
X-96568Y685924D01*
X-96893Y686407D01*
X-97014Y687002D01*
X-97014Y703952D01*
X-96912Y704501D01*
X-96585Y705012D01*
X-96084Y705355D01*
X-95490Y705476D01*
X-95129Y705476D01*
X-95043Y705495D01*
X-94446Y705384D01*
X-93941Y705049D01*
X-93352Y704460D01*
X-90062Y704460D01*
X-90062Y725040D01*
X-93352Y725040D01*
X-93941Y724451D01*
X-94402Y724135D01*
X-94994Y724005D01*
X-95095Y724024D01*
X-95490Y724024D01*
X-96039Y724126D01*
X-96550Y724453D01*
X-96893Y724954D01*
X-97014Y725548D01*
X-97014Y754752D01*
X-96912Y755301D01*
X-96585Y755812D01*
X-96084Y756155D01*
X-95490Y756276D01*
X-95129Y756276D01*
X-95043Y756295D01*
X-94446Y756184D01*
X-93941Y755849D01*
X-93352Y755260D01*
X-90062Y755260D01*
X-90062Y775840D01*
X-93352Y775840D01*
X-93941Y775251D01*
X-94402Y774935D01*
X-94994Y774805D01*
X-95095Y774824D01*
X-95490Y774824D01*
X-96039Y774926D01*
X-96550Y775253D01*
X-96893Y775754D01*
X-97014Y776348D01*
X-97014Y803192D01*
X-96912Y803741D01*
X-96585Y804252D01*
X-96084Y804595D01*
X-95490Y804716D01*
X-95129Y804716D01*
X-95043Y804735D01*
X-94446Y804624D01*
X-93941Y804289D01*
X-93352Y803700D01*
X-90062Y803700D01*
X-90062Y824280D01*
X-93352Y824280D01*
X-93941Y823691D01*
X-94402Y823375D01*
X-94994Y823245D01*
X-95095Y823264D01*
X-95490Y823264D01*
X-96039Y823366D01*
X-96550Y823693D01*
X-96893Y824194D01*
X-97014Y824788D01*
X-97014Y856352D01*
X-96912Y856901D01*
X-96585Y857412D01*
X-96084Y857755D01*
X-95490Y857876D01*
X-95129Y857876D01*
X-95043Y857895D01*
X-94446Y857784D01*
X-93941Y857449D01*
X-93352Y856860D01*
X-90062Y856860D01*
X-90062Y877440D01*
X-93352Y877440D01*
X-93941Y876851D01*
X-94402Y876535D01*
X-94994Y876405D01*
X-95095Y876424D01*
X-103472Y876424D01*
X-103557Y876405D01*
X-104154Y876516D01*
X-104659Y876851D01*
X-105248Y877440D01*
X-108538Y877440D01*
X-108538Y856860D01*
X-105248Y856860D01*
X-104659Y857449D01*
X-104198Y857765D01*
X-103606Y857895D01*
X-103505Y857876D01*
X-103110Y857876D01*
X-102561Y857774D01*
X-102050Y857447D01*
X-101707Y856946D01*
X-101586Y856352D01*
X-101586Y824788D01*
X-101688Y824239D01*
X-102015Y823728D01*
X-102516Y823385D01*
X-103110Y823264D01*
X-103472Y823264D01*
X-103557Y823245D01*
X-104154Y823356D01*
X-104659Y823691D01*
X-105248Y824280D01*
X-108538Y824280D01*
X-108538Y803700D01*
X-105248Y803700D01*
X-104659Y804289D01*
X-104198Y804605D01*
X-103606Y804735D01*
X-103505Y804716D01*
X-103110Y804716D01*
X-102561Y804614D01*
X-102050Y804287D01*
X-101707Y803786D01*
X-101586Y803192D01*
X-101586Y776348D01*
X-101688Y775799D01*
X-102015Y775288D01*
X-102516Y774945D01*
X-103110Y774824D01*
X-103472Y774824D01*
X-103557Y774805D01*
X-104154Y774916D01*
X-104659Y775251D01*
X-105248Y775840D01*
X-108538Y775840D01*
X-108538Y755260D01*
X-105248Y755260D01*
X-104659Y755849D01*
X-104198Y756165D01*
X-103606Y756295D01*
X-103505Y756276D01*
X-103110Y756276D01*
X-102561Y756174D01*
X-102050Y755847D01*
X-101707Y755346D01*
X-101586Y754752D01*
X-101586Y725548D01*
X-101688Y724999D01*
X-102015Y724488D01*
X-102516Y724145D01*
X-103110Y724024D01*
X-103472Y724024D01*
X-103557Y724005D01*
X-104154Y724116D01*
X-104659Y724451D01*
X-105248Y725040D01*
X-108538Y725040D01*
X-108538Y704460D01*
X-105248Y704460D01*
X-104659Y705049D01*
X-104198Y705365D01*
X-103606Y705495D01*
X-103505Y705476D01*
X-103110Y705476D01*
X-102561Y705374D01*
X-102050Y705047D01*
X-101707Y704546D01*
X-101586Y703952D01*
X-101586Y684477D01*
X2809Y580082D01*
X3135Y579598D01*
X3256Y579004D01*
X3256Y579004D01*
X3162Y578477D01*
X2843Y577961D01*
X2348Y577610D01*
X1756Y577480D01*
X1160Y577591D01*
X654Y577926D01*
X-116568Y695148D01*
X-116893Y695631D01*
X-117014Y696225D01*
X-117014Y703952D01*
X-116912Y704501D01*
X-116585Y705012D01*
X-116084Y705355D01*
X-115490Y705476D01*
X-115129Y705476D01*
X-115043Y705495D01*
X-114446Y705384D01*
X-113941Y705049D01*
X-113352Y704460D01*
X-110062Y704460D01*
X-110062Y725040D01*
X-113352Y725040D01*
X-113941Y724451D01*
X-114402Y724135D01*
X-114994Y724005D01*
X-115095Y724024D01*
X-115490Y724024D01*
X-116039Y724126D01*
X-116550Y724453D01*
X-116893Y724954D01*
X-117014Y725548D01*
X-117014Y754752D01*
X-116912Y755301D01*
X-116585Y755812D01*
X-116084Y756155D01*
X-115490Y756276D01*
X-115129Y756276D01*
X-115043Y756295D01*
X-114446Y756184D01*
X-113941Y755849D01*
X-113352Y755260D01*
X-110062Y755260D01*
X-110062Y775840D01*
X-113352Y775840D01*
X-113941Y775251D01*
X-114402Y774935D01*
X-114994Y774805D01*
X-115095Y774824D01*
X-115490Y774824D01*
X-116039Y774926D01*
X-116550Y775253D01*
X-116893Y775754D01*
X-117014Y776348D01*
X-117014Y803192D01*
X-116912Y803741D01*
X-116585Y804252D01*
X-116084Y804595D01*
X-115490Y804716D01*
X-115129Y804716D01*
X-115043Y804735D01*
X-114446Y804624D01*
X-113941Y804289D01*
X-113352Y803700D01*
X-110062Y803700D01*
X-110062Y824280D01*
X-113352Y824280D01*
X-113941Y823691D01*
X-114402Y823375D01*
X-114994Y823245D01*
X-115095Y823264D01*
X-115490Y823264D01*
X-116039Y823366D01*
X-116550Y823693D01*
X-116893Y824194D01*
X-117014Y824788D01*
X-117014Y856352D01*
X-116912Y856901D01*
X-116585Y857412D01*
X-116084Y857755D01*
X-115490Y857876D01*
X-115129Y857876D01*
X-115043Y857895D01*
X-114446Y857784D01*
X-113941Y857449D01*
X-113352Y856860D01*
X-110062Y856860D01*
X-110062Y877440D01*
X-113352Y877440D01*
X-113941Y876851D01*
X-114402Y876535D01*
X-114994Y876405D01*
X-115095Y876424D01*
X-123472Y876424D01*
X-123557Y876405D01*
X-124154Y876516D01*
X-124659Y876851D01*
X-125248Y877440D01*
X-128538Y877440D01*
X-128538Y856860D01*
X-125248Y856860D01*
X-124659Y857449D01*
X-124198Y857765D01*
X-123606Y857895D01*
X-123505Y857876D01*
X-123110Y857876D01*
X-122561Y857774D01*
X-122050Y857447D01*
X-121707Y856946D01*
X-121586Y856352D01*
X-121586Y824788D01*
X-121688Y824239D01*
X-122015Y823728D01*
X-122516Y823385D01*
X-123110Y823264D01*
X-123472Y823264D01*
X-123557Y823245D01*
X-124154Y823356D01*
X-124659Y823691D01*
X-125248Y824280D01*
X-128538Y824280D01*
X-128538Y803700D01*
X-125248Y803700D01*
X-124659Y804289D01*
X-124198Y804605D01*
X-123606Y804735D01*
X-123505Y804716D01*
X-123110Y804716D01*
X-122561Y804614D01*
X-122050Y804287D01*
X-121707Y803786D01*
X-121586Y803192D01*
X-121586Y776348D01*
X-121688Y775799D01*
X-122015Y775288D01*
X-122516Y774945D01*
X-123110Y774824D01*
X-123472Y774824D01*
X-123557Y774805D01*
X-124154Y774916D01*
X-124659Y775251D01*
X-125248Y775840D01*
X-128538Y775840D01*
X-128538Y755260D01*
X-125248Y755260D01*
X-124659Y755849D01*
X-124198Y756165D01*
X-123606Y756295D01*
X-123505Y756276D01*
X-123110Y756276D01*
X-122561Y756174D01*
X-122050Y755847D01*
X-121707Y755346D01*
X-121586Y754752D01*
X-121586Y725548D01*
X-121688Y724999D01*
X-122015Y724488D01*
X-122516Y724145D01*
X-123110Y724024D01*
X-123472Y724024D01*
X-123557Y724005D01*
X-124154Y724116D01*
X-124659Y724451D01*
X-125248Y725040D01*
X-128538Y725040D01*
X-128538Y704460D01*
X-125248Y704460D01*
X-124659Y705049D01*
X-124198Y705365D01*
X-123606Y705495D01*
X-123505Y705476D01*
X-123110Y705476D01*
X-122561Y705374D01*
X-122050Y705047D01*
X-121707Y704546D01*
X-121586Y703952D01*
X-121586Y693700D01*
X-4811Y576925D01*
X-4485Y576442D01*
X-4365Y575848D01*
X-4365Y477295D01*
X-4458Y476768D01*
X-4777Y476252D01*
X-5272Y475901D01*
X-5864Y475771D01*
X-6460Y475882D01*
X-6966Y476217D01*
X-7821Y477072D01*
X-8147Y477555D01*
X-8268Y478150D01*
X-8268Y576071D01*
X-134055Y701858D01*
X-134361Y702297D01*
X-134500Y702887D01*
X-134399Y703485D01*
X-134072Y703996D01*
X-133571Y704339D01*
X-132977Y704460D01*
X-130062Y704460D01*
X-130062Y725040D01*
X-133352Y725040D01*
X-133941Y724451D01*
X-134402Y724135D01*
X-134994Y724005D01*
X-135095Y724024D01*
X-135490Y724024D01*
X-136039Y724126D01*
X-136550Y724453D01*
X-136893Y724954D01*
X-137014Y725548D01*
X-137014Y754752D01*
X-136912Y755301D01*
X-136585Y755812D01*
X-136084Y756155D01*
X-135490Y756276D01*
X-135129Y756276D01*
X-135043Y756295D01*
X-134446Y756184D01*
X-133941Y755849D01*
X-133352Y755260D01*
X-130062Y755260D01*
X-130062Y775840D01*
X-133352Y775840D01*
X-133941Y775251D01*
X-134402Y774935D01*
X-134994Y774805D01*
X-135095Y774824D01*
X-135490Y774824D01*
X-136039Y774926D01*
X-136550Y775253D01*
X-136893Y775754D01*
X-137014Y776348D01*
X-137014Y803192D01*
X-136912Y803741D01*
X-136585Y804252D01*
X-136084Y804595D01*
X-135490Y804716D01*
X-135129Y804716D01*
X-135043Y804735D01*
X-134446Y804624D01*
X-133941Y804289D01*
X-133352Y803700D01*
X-130062Y803700D01*
X-130062Y824280D01*
X-133352Y824280D01*
X-133941Y823691D01*
X-134402Y823375D01*
X-134994Y823245D01*
X-135095Y823264D01*
X-135490Y823264D01*
X-136039Y823366D01*
X-136550Y823693D01*
X-136893Y824194D01*
X-137014Y824788D01*
X-137014Y856352D01*
X-136912Y856901D01*
X-136585Y857412D01*
X-136084Y857755D01*
X-135490Y857876D01*
X-135129Y857876D01*
X-135043Y857895D01*
X-134446Y857784D01*
X-133941Y857449D01*
X-133352Y856860D01*
X-130062Y856860D01*
X-130062Y877440D01*
X-133352Y877440D01*
X-133941Y876851D01*
X-134402Y876535D01*
X-134994Y876405D01*
X-135095Y876424D01*
X-142931Y876424D01*
X-143222Y876133D01*
X-143683Y875817D01*
X-144276Y875687D01*
X-144872Y875798D01*
X-145378Y876133D01*
X-145669Y876424D01*
X-152931Y876424D01*
X-153824Y875531D01*
X-153824Y858769D01*
X-152794Y857739D01*
X-152469Y857256D01*
X-152348Y856661D01*
X-152348Y852783D01*
X-152442Y852256D01*
X-152761Y851740D01*
X-153255Y851389D01*
X-153848Y851259D01*
X-154444Y851370D01*
X-154950Y851705D01*
X-155669Y852424D01*
X-168931Y852424D01*
X-169824Y851531D01*
X-169824Y832269D01*
X-168931Y831376D01*
X-155669Y831376D01*
X-154950Y832095D01*
X-154511Y832401D01*
X-153921Y832541D01*
X-153323Y832439D01*
X-152812Y832112D01*
X-152469Y831612D01*
X-152348Y831017D01*
X-152348Y824479D01*
X-152459Y823907D01*
X-152794Y823401D01*
X-153824Y822371D01*
X-153824Y805609D01*
X-152794Y804579D01*
X-152469Y804096D01*
X-152348Y803501D01*
X-152348Y799623D01*
X-152442Y799096D01*
X-152761Y798580D01*
X-153255Y798229D01*
X-153848Y798099D01*
X-154444Y798210D01*
X-154950Y798545D01*
X-155669Y799264D01*
X-168931Y799264D01*
X-169824Y798371D01*
X-169824Y779109D01*
X-168931Y778216D01*
X-155669Y778216D01*
X-154950Y778935D01*
X-154511Y779241D01*
X-153921Y779381D01*
X-153323Y779279D01*
X-152812Y778952D01*
X-152469Y778452D01*
X-152348Y777857D01*
X-152348Y776039D01*
X-152459Y775467D01*
X-152794Y774961D01*
X-153824Y773931D01*
X-153824Y757169D01*
X-152794Y756139D01*
X-152469Y755656D01*
X-152348Y755061D01*
X-152348Y751183D01*
X-152442Y750656D01*
X-152761Y750140D01*
X-153255Y749789D01*
X-153848Y749659D01*
X-154444Y749770D01*
X-154950Y750105D01*
X-155669Y750824D01*
X-168931Y750824D01*
X-169824Y749931D01*
X-169824Y730669D01*
X-168931Y729776D01*
X-155669Y729776D01*
X-154950Y730495D01*
X-154511Y730801D01*
X-153921Y730941D01*
X-153323Y730839D01*
X-152812Y730512D01*
X-152469Y730012D01*
X-152348Y729417D01*
X-152348Y725239D01*
X-152459Y724667D01*
X-152794Y724161D01*
X-153824Y723131D01*
X-153824Y706369D01*
X-152794Y705339D01*
X-152469Y704856D01*
X-152348Y704261D01*
X-152348Y700383D01*
X-152442Y699856D01*
X-152761Y699340D01*
X-153255Y698989D01*
X-153848Y698859D01*
X-154444Y698970D01*
X-154950Y699305D01*
X-155669Y700024D01*
X-168931Y700024D01*
X-169824Y699131D01*
X-169824Y679869D01*
X-168931Y678976D01*
X-155669Y678976D01*
X-154950Y679695D01*
X-154511Y680001D01*
X-153921Y680141D01*
X-153323Y680039D01*
X-152812Y679712D01*
X-152469Y679212D01*
X-152348Y678617D01*
X-152348Y671236D01*
X-152459Y670664D01*
X-152794Y670158D01*
X-186690Y636263D01*
X-186690Y429613D01*
X-186788Y429075D01*
X-187111Y428562D01*
X-187609Y428215D01*
X-188202Y428090D01*
X-188584Y428164D01*
X-192303Y428164D01*
X-195634Y426784D01*
X-198184Y424234D01*
X-199564Y420903D01*
X-199564Y417297D01*
X-198184Y413966D01*
X-195634Y411416D01*
X-192303Y410036D01*
X-188697Y410036D01*
X-185366Y411416D01*
X-182816Y413966D01*
X-181668Y416737D01*
X-181388Y417179D01*
X-180899Y417537D01*
X-180309Y417677D01*
X-179711Y417575D01*
X-179200Y417248D01*
X-178857Y416748D01*
X-178736Y416154D01*
X-178736Y413452D01*
X-168890Y403606D01*
X-150484Y403606D01*
X-149957Y403512D01*
X-149441Y403193D01*
X-149090Y402699D01*
X-148960Y402106D01*
X-149071Y401510D01*
X-149406Y401004D01*
X-167725Y382686D01*
X-168208Y382360D01*
X-168802Y382240D01*
X-171557Y382240D01*
X-193608Y360188D01*
X-193638Y360020D01*
X-193952Y359502D01*
X-194444Y359147D01*
X-195036Y359012D01*
X-195633Y359118D01*
X-196141Y359449D01*
X-196480Y359952D01*
X-196525Y360060D01*
X-232980Y396515D01*
X-233305Y396998D01*
X-233426Y397593D01*
X-233426Y427907D01*
X-233315Y428479D01*
X-232980Y428985D01*
X-203560Y458405D01*
X-203077Y458730D01*
X-202482Y458851D01*
X-201002Y458851D01*
X-196941Y460533D01*
X-193833Y463641D01*
X-192151Y467702D01*
X-192151Y472098D01*
X-193833Y476159D01*
X-193991Y476316D01*
X-194316Y476800D01*
X-194437Y477394D01*
X-194437Y534893D01*
X-195636Y537787D01*
X-264476Y606627D01*
X-264801Y607110D01*
X-264922Y607704D01*
X-264922Y915587D01*
X-264811Y916159D01*
X-264476Y916665D01*
X-193741Y987400D01*
X-193258Y987725D01*
X-192663Y987846D01*
X-98651Y987846D01*
X-98079Y987735D01*
X-97573Y987400D01*
X-95988Y985815D01*
X-91694Y984036D01*
X-89453Y984036D01*
X-88881Y983925D01*
X-88375Y983590D01*
X-69446Y964661D01*
X-66552Y963462D01*
X-20572Y963462D01*
X-17678Y964661D01*
X10649Y992988D01*
X11132Y993313D01*
X11726Y993434D01*
X60493Y993434D01*
X61279Y993215D01*
X61554Y993050D01*
X61782Y992958D01*
X62032Y992903D01*
X62282Y992886D01*
X63836Y992886D01*
X64385Y992784D01*
X64896Y992457D01*
X65239Y991956D01*
X65360Y991362D01*
X65360Y988817D01*
X76880Y988817D01*
X76880Y991362D01*
X76982Y991911D01*
X77309Y992422D01*
X77810Y992765D01*
X78404Y992886D01*
X78748Y992886D01*
X79319Y992775D01*
X79825Y992440D01*
X82973Y989292D01*
X83279Y988853D01*
X83419Y988263D01*
X83317Y987665D01*
X82990Y987154D01*
X82490Y986811D01*
X81896Y986690D01*
X79152Y986690D01*
X79043Y986614D01*
X78453Y986474D01*
X77855Y986576D01*
X77344Y986903D01*
X77076Y987293D01*
X65360Y987293D01*
X65360Y984327D01*
X66348Y983339D01*
X66664Y982878D01*
X66794Y982286D01*
X66683Y981690D01*
X66376Y981226D01*
X66376Y974598D01*
X67269Y973706D01*
X74971Y973706D01*
X75676Y974411D01*
X76160Y974736D01*
X76754Y974857D01*
X76835Y974857D01*
X77384Y974755D01*
X77895Y974428D01*
X78238Y973927D01*
X78359Y973333D01*
X78359Y969930D01*
X79252Y969037D01*
X85848Y969037D01*
X86741Y969930D01*
X86741Y985012D01*
X86843Y985561D01*
X87170Y986072D01*
X87671Y986415D01*
X88265Y986536D01*
X89535Y986536D01*
X90084Y986434D01*
X90595Y986107D01*
X90938Y985606D01*
X91059Y985012D01*
X91059Y969930D01*
X91952Y969037D01*
X98548Y969037D01*
X99441Y969930D01*
X99441Y981845D01*
X99535Y982371D01*
X99854Y982887D01*
X100348Y983238D01*
X100941Y983368D01*
X101537Y983257D01*
X102043Y982922D01*
X102170Y982795D01*
X102495Y982312D01*
X102616Y981718D01*
X102616Y969072D01*
X102641Y968765D01*
X102700Y968526D01*
X102797Y968300D01*
X102929Y968093D01*
X103093Y967909D01*
X103140Y967872D01*
X103565Y967325D01*
X103705Y966735D01*
X103603Y966137D01*
X103276Y965626D01*
X102776Y965283D01*
X102362Y965199D01*
X102362Y951385D01*
X119640Y951385D01*
X119640Y963675D01*
X118152Y965163D01*
X113719Y965163D01*
X113113Y965288D01*
X112616Y965635D01*
X112293Y966149D01*
X112196Y966748D01*
X112341Y967337D01*
X112704Y967823D01*
X112860Y967963D01*
X113015Y968154D01*
X113137Y968368D01*
X113222Y968598D01*
X113273Y968859D01*
X113284Y969053D01*
X113284Y976038D01*
X113374Y976553D01*
X113688Y977072D01*
X114180Y977426D01*
X114772Y977561D01*
X115369Y977455D01*
X115877Y977124D01*
X116216Y976621D01*
X116343Y976314D01*
X116459Y975731D01*
X116459Y969930D01*
X117352Y969037D01*
X122379Y969037D01*
X122951Y968926D01*
X123457Y968591D01*
X129924Y962124D01*
X130240Y961663D01*
X130370Y961071D01*
X130259Y960475D01*
X129924Y959969D01*
X129866Y959911D01*
X129866Y951649D01*
X130377Y951138D01*
X130794Y950360D01*
X130793Y949754D01*
X130555Y949196D01*
X130118Y948775D01*
X129885Y948626D01*
X129695Y948460D01*
X122242Y941007D01*
X121803Y940701D01*
X121213Y940561D01*
X120615Y940663D01*
X120104Y940990D01*
X119761Y941490D01*
X119640Y942085D01*
X119640Y949861D01*
X102362Y949861D01*
X102362Y936083D01*
X103410Y936083D01*
X103937Y935989D01*
X104453Y935670D01*
X104804Y935175D01*
X104934Y934583D01*
X104823Y933987D01*
X104488Y933481D01*
X102743Y931736D01*
X102743Y924144D01*
X108712Y924144D01*
X108712Y922620D01*
X102743Y922620D01*
X102743Y915027D01*
X104484Y913286D01*
X104790Y912847D01*
X104930Y912257D01*
X104828Y911659D01*
X104501Y911148D01*
X104001Y910805D01*
X103407Y910684D01*
X99994Y910684D01*
X99422Y910795D01*
X98916Y911130D01*
X98744Y911302D01*
X98419Y911786D01*
X98298Y912380D01*
X98298Y913673D01*
X98409Y914245D01*
X98744Y914751D01*
X99441Y915448D01*
X99441Y931315D01*
X98548Y932208D01*
X91952Y932208D01*
X91059Y931315D01*
X91059Y915448D01*
X91636Y914871D01*
X91942Y914432D01*
X92082Y913842D01*
X91980Y913244D01*
X91653Y912733D01*
X91573Y912678D01*
X90474Y911578D01*
X90013Y911262D01*
X89420Y911132D01*
X88824Y911243D01*
X88318Y911578D01*
X87628Y912269D01*
X87242Y912269D01*
X86715Y912363D01*
X86199Y912682D01*
X85848Y913176D01*
X85718Y913769D01*
X85829Y914365D01*
X86164Y914871D01*
X86741Y915448D01*
X86741Y931315D01*
X85848Y932208D01*
X79252Y932208D01*
X78359Y931315D01*
X78359Y929127D01*
X78257Y928578D01*
X77930Y928067D01*
X77429Y927724D01*
X76835Y927603D01*
X72944Y927603D01*
X72372Y927714D01*
X71866Y928049D01*
X71161Y928755D01*
X65237Y928755D01*
X64665Y928866D01*
X64159Y929201D01*
X62992Y930369D01*
X56378Y930369D01*
X55688Y929678D01*
X55227Y929362D01*
X54634Y929232D01*
X54038Y929343D01*
X53532Y929678D01*
X52842Y930369D01*
X46228Y930369D01*
X45336Y929476D01*
X45336Y927736D01*
X45220Y927153D01*
X44963Y926534D01*
X44963Y924715D01*
X45210Y924120D01*
X45326Y923537D01*
X45326Y898062D01*
X46022Y896382D01*
X67443Y874961D01*
X69123Y874265D01*
X93798Y874265D01*
X94370Y874153D01*
X94876Y873818D01*
X104723Y863970D01*
X106404Y863274D01*
X139298Y863274D01*
X139848Y863172D01*
X140358Y862845D01*
X140701Y862345D01*
X140822Y861750D01*
X140822Y857715D01*
X141715Y856823D01*
X167971Y856823D01*
X168864Y857715D01*
X168864Y860734D01*
X168966Y861284D01*
X169293Y861795D01*
X169793Y862138D01*
X170388Y862258D01*
X253492Y862258D01*
X254041Y862156D01*
X254552Y861829D01*
X254895Y861329D01*
X255016Y860734D01*
X255016Y855345D01*
X254922Y854819D01*
X254603Y854303D01*
X254109Y853952D01*
X253516Y853822D01*
X252920Y853933D01*
X252414Y854268D01*
X252052Y854630D01*
X246262Y854630D01*
X246262Y839550D01*
X252052Y839550D01*
X252414Y839912D01*
X252853Y840218D01*
X253443Y840358D01*
X254041Y840256D01*
X254552Y839929D01*
X254895Y839429D01*
X255016Y838835D01*
X255016Y829945D01*
X254922Y829419D01*
X254603Y828903D01*
X254109Y828552D01*
X253516Y828422D01*
X252920Y828533D01*
X252414Y828868D01*
X252052Y829230D01*
X246262Y829230D01*
X246262Y814150D01*
X252052Y814150D01*
X252475Y814573D01*
X253139Y814962D01*
X253744Y815007D01*
X254318Y814813D01*
X254772Y814410D01*
X255032Y813862D01*
X255100Y813586D01*
X255197Y813360D01*
X255329Y813153D01*
X255493Y812970D01*
X255684Y812815D01*
X255898Y812693D01*
X256128Y812608D01*
X256389Y812557D01*
X256583Y812546D01*
X270002Y812546D01*
X270551Y812444D01*
X271062Y812117D01*
X271405Y811616D01*
X271526Y811022D01*
X271526Y803660D01*
X272449Y802737D01*
X272837Y802665D01*
X273348Y802338D01*
X273691Y801837D01*
X273812Y801243D01*
X273812Y793782D01*
X274663Y791728D01*
X297042Y769349D01*
X297367Y768866D01*
X297488Y768271D01*
X297488Y206146D01*
X297377Y205574D01*
X297042Y205068D01*
X271461Y179488D01*
X271002Y179173D01*
X270410Y179042D01*
X269813Y179152D01*
X269786Y179170D01*
X265214Y181064D01*
X260566Y181064D01*
X256272Y179285D01*
X252985Y175998D01*
X251206Y171704D01*
X251206Y167056D01*
X252985Y162762D01*
X256272Y159475D01*
X260566Y157696D01*
X265214Y157696D01*
X265304Y157733D01*
X265863Y157849D01*
X266459Y157738D01*
X266965Y157403D01*
X273366Y151002D01*
X273691Y150519D01*
X273812Y149924D01*
X273812Y133604D01*
X273710Y133055D01*
X273383Y132544D01*
X272882Y132201D01*
X272288Y132080D01*
X263652Y132080D01*
X263652Y106680D01*
X272288Y106680D01*
X272837Y106578D01*
X273348Y106251D01*
X273691Y105750D01*
X273812Y105156D01*
X273812Y86734D01*
X273701Y86162D01*
X273366Y85657D01*
X215080Y27370D01*
X214596Y27045D01*
X214002Y26924D01*
X212078Y26924D01*
X211552Y27018D01*
X211035Y27337D01*
X210685Y27831D01*
X210554Y28424D01*
X210666Y29020D01*
X211001Y29526D01*
X213321Y31846D01*
X215138Y36233D01*
X215138Y37846D01*
X202438Y37846D01*
X202438Y50546D01*
X200825Y50546D01*
X196438Y48729D01*
X193079Y45370D01*
X191908Y42542D01*
X191620Y42092D01*
X191128Y41737D01*
X190536Y41602D01*
X189939Y41708D01*
X189431Y42039D01*
X189092Y42542D01*
X187921Y45370D01*
X184562Y48729D01*
X180175Y50546D01*
X178562Y50546D01*
X178562Y37846D01*
X177038Y37846D01*
X177038Y50546D01*
X175425Y50546D01*
X171038Y48729D01*
X167679Y45370D01*
X166508Y42542D01*
X166220Y42092D01*
X165728Y41737D01*
X165136Y41602D01*
X164539Y41708D01*
X164031Y42039D01*
X163692Y42542D01*
X162521Y45370D01*
X159162Y48729D01*
X154775Y50546D01*
X153162Y50546D01*
X153162Y37846D01*
X151638Y37846D01*
X151638Y50546D01*
X150025Y50546D01*
X145638Y48729D01*
X142279Y45370D01*
X141108Y42542D01*
X140820Y42092D01*
X140328Y41737D01*
X139736Y41602D01*
X139139Y41708D01*
X138631Y42039D01*
X138292Y42542D01*
X137121Y45370D01*
X133762Y48729D01*
X130220Y50196D01*
X129769Y50484D01*
X129414Y50976D01*
X129280Y51567D01*
X129386Y52165D01*
X129717Y52673D01*
X130220Y53012D01*
X133187Y54241D01*
X136259Y57313D01*
X137922Y61328D01*
X137922Y65673D01*
X136259Y69687D01*
X133187Y72759D01*
X129173Y74422D01*
X124828Y74422D01*
X120813Y72759D01*
X117741Y69687D01*
X116830Y67489D01*
X116517Y67012D01*
X116017Y66669D01*
X115422Y66548D01*
X113178Y66548D01*
X112617Y66655D01*
X112109Y66986D01*
X111770Y67489D01*
X110859Y69687D01*
X107787Y72759D01*
X103773Y74422D01*
X99428Y74422D01*
X95413Y72759D01*
X92341Y69687D01*
X91430Y67489D01*
X91117Y67012D01*
X90617Y66669D01*
X90022Y66548D01*
X87778Y66548D01*
X87217Y66655D01*
X86709Y66986D01*
X86370Y67489D01*
X85459Y69687D01*
X82387Y72759D01*
X78373Y74422D01*
X74028Y74422D01*
X70013Y72759D01*
X66941Y69687D01*
X65278Y65673D01*
X65278Y61328D01*
X66941Y57313D01*
X70013Y54241D01*
X73593Y52758D01*
X74044Y52470D01*
X74399Y51978D01*
X74534Y51386D01*
X74427Y50789D01*
X74096Y50281D01*
X73593Y49942D01*
X69438Y48221D01*
X66079Y44862D01*
X64262Y40475D01*
X64262Y38862D01*
X76962Y38862D01*
X76962Y37338D01*
X64262Y37338D01*
X64262Y35680D01*
X64168Y35153D01*
X63849Y34637D01*
X63355Y34286D01*
X62762Y34156D01*
X62166Y34268D01*
X61660Y34603D01*
X53426Y42837D01*
X51372Y43688D01*
X-65711Y43688D01*
X-66283Y43799D01*
X-66788Y44134D01*
X-70013Y47359D01*
X-74028Y49022D01*
X-78373Y49022D01*
X-82387Y47359D01*
X-85612Y44134D01*
X-86095Y43809D01*
X-86689Y43688D01*
X-91111Y43688D01*
X-91683Y43799D01*
X-92188Y44134D01*
X-95413Y47359D01*
X-99428Y49022D01*
X-103773Y49022D01*
X-107787Y47359D01*
X-111012Y44134D01*
X-111495Y43809D01*
X-112089Y43688D01*
X-116511Y43688D01*
X-117083Y43799D01*
X-117588Y44134D01*
X-120813Y47359D01*
X-124828Y49022D01*
X-129173Y49022D01*
X-133187Y47359D01*
X-136412Y44134D01*
X-136895Y43809D01*
X-137489Y43688D01*
X-141911Y43688D01*
X-142483Y43799D01*
X-142988Y44134D01*
X-146213Y47359D01*
X-150228Y49022D01*
X-154573Y49022D01*
X-158587Y47359D01*
X-161812Y44134D01*
X-162295Y43809D01*
X-162889Y43688D01*
X-167311Y43688D01*
X-167883Y43799D01*
X-168388Y44134D01*
X-171613Y47359D01*
X-175628Y49022D01*
X-179973Y49022D01*
X-183987Y47359D01*
X-187212Y44134D01*
X-187695Y43809D01*
X-188289Y43688D01*
X-192711Y43688D01*
X-193283Y43799D01*
X-193788Y44134D01*
X-197013Y47359D01*
X-201028Y49022D01*
X-205373Y49022D01*
X-209387Y47359D01*
X-212459Y44287D01*
X-214122Y40273D01*
X-214122Y35928D01*
X-212459Y31913D01*
X-209387Y28841D01*
X-205373Y27178D01*
X-201028Y27178D01*
X-197013Y28841D01*
X-193788Y32066D01*
X-193305Y32391D01*
X-192711Y32512D01*
X-188289Y32512D01*
X-187717Y32401D01*
X-187212Y32066D01*
X-183987Y28841D01*
X-179973Y27178D01*
X-175628Y27178D01*
X-171613Y28841D01*
X-168388Y32066D01*
X-167905Y32391D01*
X-167311Y32512D01*
X-162889Y32512D01*
X-162317Y32401D01*
X-161812Y32066D01*
X-158587Y28841D01*
X-154573Y27178D01*
X-150228Y27178D01*
X-146213Y28841D01*
X-142988Y32066D01*
X-142505Y32391D01*
X-141911Y32512D01*
X-137489Y32512D01*
X-136917Y32401D01*
X-136412Y32066D01*
X-133187Y28841D01*
X-129173Y27178D01*
X-124828Y27178D01*
X-120813Y28841D01*
X-117588Y32066D01*
X-117105Y32391D01*
X-116511Y32512D01*
X-112089Y32512D01*
X-111517Y32401D01*
X-111012Y32066D01*
X-107787Y28841D01*
X-103773Y27178D01*
X-99428Y27178D01*
X-95413Y28841D01*
X-92188Y32066D01*
X-91705Y32391D01*
X-91111Y32512D01*
X-86689Y32512D01*
X-86117Y32401D01*
X-85612Y32066D01*
X-82387Y28841D01*
X-78373Y27178D01*
X-74028Y27178D01*
X-70013Y28841D01*
X-66788Y32066D01*
X-66305Y32391D01*
X-65711Y32512D01*
X47314Y32512D01*
X47886Y32401D01*
X48392Y32066D01*
X63859Y16599D01*
X65913Y15748D01*
X218059Y15748D01*
X220113Y16599D01*
X252210Y48696D01*
X252463Y48900D01*
X253029Y49120D01*
X253635Y49102D01*
X254186Y48849D01*
X254595Y48401D01*
X254797Y47829D01*
X254760Y47224D01*
X253238Y41544D01*
X253238Y34656D01*
X255021Y28002D01*
X258465Y22036D01*
X263336Y17165D01*
X269302Y13721D01*
X271410Y13156D01*
X272040Y12812D01*
X272399Y12323D01*
X272539Y11733D01*
X272437Y11135D01*
X272110Y10624D01*
X271610Y10281D01*
G37*
%LPC*%
G36*
X176320Y1012347D02*
X193744Y1012347D01*
X193744Y1021634D01*
X192256Y1023122D01*
X176320Y1023122D01*
X176320Y1012347D01*
G37*
G36*
X157372Y1012347D02*
X174796Y1012347D01*
X174796Y1023122D01*
X158860Y1023122D01*
X157372Y1021634D01*
X157372Y1012347D01*
G37*
G36*
X92507Y1013832D02*
X99285Y1013832D01*
X99285Y1019622D01*
X97797Y1021110D01*
X92507Y1021110D01*
X92507Y1013832D01*
G37*
G36*
X84205Y1013832D02*
X90983Y1013832D01*
X90983Y1021110D01*
X85692Y1021110D01*
X84205Y1019622D01*
X84205Y1013832D01*
G37*
G36*
X112937Y1013652D02*
X119715Y1013652D01*
X119715Y1019442D01*
X118227Y1020930D01*
X112937Y1020930D01*
X112937Y1013652D01*
G37*
G36*
X104635Y1013652D02*
X111413Y1013652D01*
X111413Y1020930D01*
X106122Y1020930D01*
X104635Y1019442D01*
X104635Y1013652D01*
G37*
G36*
X176320Y1000048D02*
X192256Y1000048D01*
X193744Y1001536D01*
X193744Y1010823D01*
X176320Y1010823D01*
X176320Y1000048D01*
G37*
G36*
X158860Y1000048D02*
X174796Y1000048D01*
X174796Y1010823D01*
X157372Y1010823D01*
X157372Y1001536D01*
X158860Y1000048D01*
G37*
G36*
X-52070Y996482D02*
X-40132Y996482D01*
X-40132Y1008420D01*
X-50582Y1008420D01*
X-52070Y1006932D01*
X-52070Y996482D01*
G37*
G36*
X-38608Y996482D02*
X-26670Y996482D01*
X-26670Y1006932D01*
X-28158Y1008420D01*
X-38608Y1008420D01*
X-38608Y996482D01*
G37*
G36*
X-38608Y983020D02*
X-28158Y983020D01*
X-26670Y984508D01*
X-26670Y994958D01*
X-38608Y994958D01*
X-38608Y983020D01*
G37*
G36*
X-50582Y983020D02*
X-40132Y983020D01*
X-40132Y994958D01*
X-52070Y994958D01*
X-52070Y984508D01*
X-50582Y983020D01*
G37*
G36*
X83560Y951385D02*
X100838Y951385D01*
X100838Y965163D01*
X85048Y965163D01*
X83560Y963675D01*
X83560Y951385D01*
G37*
G36*
X85048Y936083D02*
X100838Y936083D01*
X100838Y949861D01*
X83560Y949861D01*
X83560Y937570D01*
X85048Y936083D01*
G37*
G36*
X267897Y921512D02*
X279200Y921512D01*
X279200Y925747D01*
X272132Y932815D01*
X267897Y932815D01*
X267897Y921512D01*
G37*
G36*
X255070Y921512D02*
X266373Y921512D01*
X266373Y932815D01*
X262138Y932815D01*
X255070Y925747D01*
X255070Y921512D01*
G37*
G36*
X262138Y908685D02*
X266373Y908685D01*
X266373Y919988D01*
X255070Y919988D01*
X255070Y915753D01*
X262138Y908685D01*
G37*
G36*
X267897Y908685D02*
X272132Y908685D01*
X279200Y915753D01*
X279200Y919988D01*
X267897Y919988D01*
X267897Y908685D01*
G37*
G36*
X68072Y909190D02*
X71582Y909190D01*
X73070Y910677D01*
X73070Y913643D01*
X68072Y913643D01*
X68072Y909190D01*
G37*
G36*
X63038Y909190D02*
X66548Y909190D01*
X66548Y913643D01*
X61550Y913643D01*
X61550Y910677D01*
X63038Y909190D01*
G37*
G36*
X106172Y886620D02*
X110962Y886620D01*
X112450Y888108D01*
X112450Y891898D01*
X106172Y891898D01*
X106172Y886620D01*
G37*
G36*
X-81065Y826544D02*
X-78955Y826544D01*
X-77004Y827352D01*
X-75512Y828844D01*
X-74853Y830435D01*
X-74540Y830912D01*
X-74039Y831255D01*
X-73445Y831376D01*
X-59669Y831376D01*
X-58776Y832269D01*
X-58776Y851531D01*
X-59669Y852424D01*
X-72931Y852424D01*
X-73824Y851531D01*
X-73824Y836847D01*
X-73918Y836320D01*
X-74237Y835804D01*
X-74731Y835453D01*
X-75324Y835323D01*
X-75920Y835434D01*
X-76426Y835769D01*
X-76568Y835911D01*
X-76893Y836395D01*
X-77014Y836989D01*
X-77014Y856352D01*
X-76912Y856901D01*
X-76585Y857412D01*
X-76084Y857755D01*
X-75714Y857830D01*
X-74776Y858769D01*
X-74776Y875531D01*
X-75669Y876424D01*
X-83472Y876424D01*
X-83557Y876405D01*
X-84154Y876516D01*
X-84659Y876851D01*
X-85248Y877440D01*
X-88538Y877440D01*
X-88538Y856860D01*
X-85248Y856860D01*
X-84659Y857449D01*
X-84198Y857765D01*
X-83606Y857895D01*
X-83505Y857876D01*
X-83110Y857876D01*
X-82561Y857774D01*
X-82050Y857447D01*
X-81707Y856946D01*
X-81586Y856352D01*
X-81586Y837959D01*
X-81693Y837398D01*
X-82024Y836890D01*
X-82527Y836551D01*
X-83016Y836348D01*
X-84508Y834856D01*
X-85316Y832905D01*
X-85316Y830795D01*
X-84508Y828844D01*
X-83016Y827352D01*
X-81065Y826544D01*
G37*
G36*
X237460Y847852D02*
X244738Y847852D01*
X244738Y854630D01*
X238948Y854630D01*
X237460Y853142D01*
X237460Y847852D01*
G37*
G36*
X238948Y839550D02*
X244738Y839550D01*
X244738Y846328D01*
X237460Y846328D01*
X237460Y841038D01*
X238948Y839550D01*
G37*
G36*
X237460Y822452D02*
X244738Y822452D01*
X244738Y829230D01*
X238948Y829230D01*
X237460Y827742D01*
X237460Y822452D01*
G37*
G36*
X182903Y788698D02*
X190077Y788698D01*
X196705Y791443D01*
X201778Y796516D01*
X204524Y803144D01*
X204524Y810319D01*
X201778Y816947D01*
X196705Y822020D01*
X190077Y824766D01*
X182903Y824766D01*
X176275Y822020D01*
X171202Y816947D01*
X168456Y810319D01*
X168456Y803144D01*
X171202Y796516D01*
X176275Y791443D01*
X182903Y788698D01*
G37*
G36*
X-72931Y729776D02*
X-59669Y729776D01*
X-58776Y730669D01*
X-58776Y749931D01*
X-59669Y750824D01*
X-73472Y750824D01*
X-74032Y750931D01*
X-74541Y751262D01*
X-74880Y751765D01*
X-75104Y752306D01*
X-76473Y753674D01*
X-76779Y754113D01*
X-76918Y754703D01*
X-76816Y755301D01*
X-76490Y755812D01*
X-75989Y756155D01*
X-75738Y756206D01*
X-74776Y757169D01*
X-74776Y766210D01*
X-74665Y766782D01*
X-74330Y767287D01*
X-66895Y774722D01*
X-66412Y775047D01*
X-65818Y775168D01*
X-58406Y775168D01*
X-36207Y797368D01*
X-35723Y797693D01*
X-35129Y797814D01*
X47305Y797814D01*
X47877Y797703D01*
X48382Y797368D01*
X54608Y791142D01*
X54914Y790703D01*
X55054Y790113D01*
X54952Y789515D01*
X54625Y789004D01*
X54125Y788661D01*
X53531Y788540D01*
X51162Y788540D01*
X51162Y767960D01*
X54452Y767960D01*
X55041Y768549D01*
X55503Y768865D01*
X56095Y768995D01*
X56196Y768976D01*
X64031Y768976D01*
X64924Y769869D01*
X64924Y786631D01*
X63990Y787565D01*
X63661Y787626D01*
X63150Y787953D01*
X62807Y788454D01*
X62686Y789048D01*
X62686Y789530D01*
X49830Y802386D01*
X-37654Y802386D01*
X-56174Y783866D01*
X-56613Y783560D01*
X-57203Y783420D01*
X-57801Y783522D01*
X-58312Y783849D01*
X-58655Y784349D01*
X-58776Y784943D01*
X-58776Y798371D01*
X-59669Y799264D01*
X-73024Y799264D01*
X-73157Y799171D01*
X-73747Y799031D01*
X-74345Y799133D01*
X-74856Y799460D01*
X-75199Y799960D01*
X-75320Y800555D01*
X-75320Y804433D01*
X-75209Y805005D01*
X-74874Y805511D01*
X-74776Y805609D01*
X-74776Y822371D01*
X-75669Y823264D01*
X-83472Y823264D01*
X-83557Y823245D01*
X-84154Y823356D01*
X-84659Y823691D01*
X-85248Y824280D01*
X-88538Y824280D01*
X-88538Y803700D01*
X-85248Y803700D01*
X-84659Y804289D01*
X-84198Y804605D01*
X-83606Y804735D01*
X-83505Y804716D01*
X-81416Y804716D01*
X-80867Y804614D01*
X-80356Y804287D01*
X-80013Y803786D01*
X-79892Y803192D01*
X-79892Y785329D01*
X-79999Y784768D01*
X-80330Y784259D01*
X-80436Y784188D01*
X-82104Y782520D01*
X-82912Y780569D01*
X-82912Y778459D01*
X-82341Y777079D01*
X-82226Y776569D01*
X-82319Y775969D01*
X-82637Y775453D01*
X-83132Y775102D01*
X-83724Y774972D01*
X-84321Y775083D01*
X-84826Y775418D01*
X-85248Y775840D01*
X-88538Y775840D01*
X-88538Y755260D01*
X-84825Y755260D01*
X-84298Y755166D01*
X-83782Y754847D01*
X-83431Y754353D01*
X-83301Y753760D01*
X-83412Y753164D01*
X-83747Y752658D01*
X-84100Y752306D01*
X-84908Y750355D01*
X-84908Y748245D01*
X-84100Y746294D01*
X-82608Y744802D01*
X-80657Y743994D01*
X-78547Y743994D01*
X-76596Y744802D01*
X-76426Y744973D01*
X-75987Y745279D01*
X-75397Y745418D01*
X-74799Y745316D01*
X-74288Y744990D01*
X-73945Y744489D01*
X-73824Y743895D01*
X-73824Y730669D01*
X-72931Y729776D01*
G37*
G36*
X238948Y814150D02*
X244738Y814150D01*
X244738Y820928D01*
X237460Y820928D01*
X237460Y815638D01*
X238948Y814150D01*
G37*
G36*
X114821Y756948D02*
X118459Y756948D01*
X121820Y758340D01*
X124392Y760912D01*
X125784Y764273D01*
X125784Y767910D01*
X124392Y771271D01*
X121820Y773843D01*
X118459Y775236D01*
X114821Y775236D01*
X111460Y773843D01*
X108888Y771271D01*
X107496Y767910D01*
X107496Y764273D01*
X108888Y760912D01*
X111460Y758340D01*
X114821Y756948D01*
G37*
G36*
X259601Y756948D02*
X263239Y756948D01*
X266600Y758340D01*
X269172Y760912D01*
X270564Y764273D01*
X270564Y767910D01*
X269172Y771271D01*
X266600Y773843D01*
X263239Y775236D01*
X259601Y775236D01*
X256240Y773843D01*
X253668Y771271D01*
X252276Y767910D01*
X252276Y764273D01*
X253668Y760912D01*
X256240Y758340D01*
X259601Y756948D01*
G37*
G36*
X66769Y742476D02*
X80031Y742476D01*
X80924Y743369D01*
X80924Y762631D01*
X80031Y763524D01*
X66769Y763524D01*
X65876Y762631D01*
X65876Y743369D01*
X66769Y742476D01*
G37*
G36*
X251260Y741454D02*
X260658Y741454D01*
X260658Y750852D01*
X259399Y750852D01*
X255665Y749305D01*
X252807Y746447D01*
X251260Y742713D01*
X251260Y741454D01*
G37*
G36*
X262182Y741454D02*
X271580Y741454D01*
X271580Y742713D01*
X270033Y746447D01*
X267175Y749305D01*
X263441Y750852D01*
X262182Y750852D01*
X262182Y741454D01*
G37*
G36*
X262182Y730532D02*
X263441Y730532D01*
X267175Y732078D01*
X270033Y734936D01*
X271580Y738671D01*
X271580Y739930D01*
X262182Y739930D01*
X262182Y730532D01*
G37*
G36*
X259399Y730532D02*
X260658Y730532D01*
X260658Y739930D01*
X251260Y739930D01*
X251260Y738671D01*
X252807Y734936D01*
X255665Y732078D01*
X259399Y730532D01*
G37*
G36*
X66769Y691676D02*
X80031Y691676D01*
X80924Y692569D01*
X80924Y711831D01*
X80031Y712724D01*
X66769Y712724D01*
X65876Y711831D01*
X65876Y710838D01*
X65778Y710300D01*
X65455Y709786D01*
X64958Y709439D01*
X64364Y709314D01*
X63769Y709430D01*
X63627Y709489D01*
X63150Y709802D01*
X62807Y710302D01*
X62686Y710897D01*
X62686Y716652D01*
X62788Y717201D01*
X63115Y717712D01*
X63616Y718055D01*
X63986Y718130D01*
X64924Y719069D01*
X64924Y735831D01*
X64031Y736724D01*
X56229Y736724D01*
X56143Y736705D01*
X55547Y736816D01*
X55041Y737151D01*
X54452Y737740D01*
X51162Y737740D01*
X51162Y717160D01*
X54452Y717160D01*
X55041Y717749D01*
X55503Y718065D01*
X56095Y718195D01*
X56196Y718176D01*
X56590Y718176D01*
X57139Y718074D01*
X57650Y717747D01*
X57993Y717246D01*
X58114Y716652D01*
X58114Y710139D01*
X58003Y709567D01*
X57668Y709061D01*
X56462Y707856D01*
X55654Y705905D01*
X55654Y703795D01*
X56462Y701844D01*
X57954Y700352D01*
X59905Y699544D01*
X62015Y699544D01*
X63769Y700270D01*
X64303Y700386D01*
X64901Y700284D01*
X65412Y699957D01*
X65755Y699457D01*
X65876Y698862D01*
X65876Y692569D01*
X66769Y691676D01*
G37*
G36*
X117402Y716054D02*
X126800Y716054D01*
X126800Y717313D01*
X125253Y721047D01*
X122395Y723905D01*
X118661Y725452D01*
X117402Y725452D01*
X117402Y716054D01*
G37*
G36*
X106480Y716054D02*
X115878Y716054D01*
X115878Y725452D01*
X114619Y725452D01*
X110885Y723905D01*
X108027Y721047D01*
X106480Y717313D01*
X106480Y716054D01*
G37*
G36*
X259601Y706148D02*
X263239Y706148D01*
X266600Y707540D01*
X269172Y710112D01*
X270564Y713473D01*
X270564Y717110D01*
X269172Y720471D01*
X266600Y723043D01*
X263239Y724436D01*
X259601Y724436D01*
X256240Y723043D01*
X253668Y720471D01*
X252276Y717110D01*
X252276Y713473D01*
X253668Y710112D01*
X256240Y707540D01*
X259601Y706148D01*
G37*
G36*
X117402Y705132D02*
X118661Y705132D01*
X122395Y706678D01*
X125253Y709536D01*
X126800Y713271D01*
X126800Y714530D01*
X117402Y714530D01*
X117402Y705132D01*
G37*
G36*
X114619Y705132D02*
X115878Y705132D01*
X115878Y714530D01*
X106480Y714530D01*
X106480Y713271D01*
X108027Y709536D01*
X110885Y706678D01*
X114619Y705132D01*
G37*
G36*
X-72931Y678976D02*
X-59669Y678976D01*
X-58776Y679869D01*
X-58776Y699131D01*
X-59669Y700024D01*
X-72931Y700024D01*
X-73824Y699131D01*
X-73824Y679869D01*
X-72931Y678976D01*
G37*
G36*
X182903Y656618D02*
X190077Y656618D01*
X196705Y659363D01*
X201778Y664436D01*
X204524Y671064D01*
X204524Y678239D01*
X201778Y684867D01*
X196705Y689940D01*
X190077Y692686D01*
X182903Y692686D01*
X176275Y689940D01*
X171202Y684867D01*
X168456Y678239D01*
X168456Y671064D01*
X171202Y664436D01*
X176275Y659363D01*
X182903Y656618D01*
G37*
G36*
X-302180Y597662D02*
X-292862Y597662D01*
X-292862Y606980D01*
X-300692Y606980D01*
X-302180Y605492D01*
X-302180Y597662D01*
G37*
G36*
X24345Y578894D02*
X26455Y578894D01*
X28406Y579702D01*
X29898Y581194D01*
X30706Y583145D01*
X30706Y584564D01*
X30817Y585136D01*
X31152Y585642D01*
X35850Y590340D01*
X36333Y590665D01*
X36928Y590786D01*
X45012Y590786D01*
X45905Y591679D01*
X45905Y602680D01*
X45012Y603573D01*
X35763Y603573D01*
X34870Y602680D01*
X34870Y598612D01*
X34759Y598040D01*
X34424Y597534D01*
X26842Y589952D01*
X26359Y589627D01*
X25764Y589506D01*
X24345Y589506D01*
X22394Y588698D01*
X20902Y587206D01*
X20094Y585255D01*
X20094Y583145D01*
X20902Y581194D01*
X22394Y579702D01*
X24345Y578894D01*
G37*
G36*
X-300692Y586820D02*
X-292862Y586820D01*
X-292862Y596138D01*
X-302180Y596138D01*
X-302180Y588308D01*
X-300692Y586820D01*
G37*
G36*
X-291338Y586820D02*
X-283508Y586820D01*
X-282020Y588308D01*
X-282020Y596138D01*
X-291338Y596138D01*
X-291338Y586820D01*
G37*
G36*
X-293903Y562436D02*
X-290297Y562436D01*
X-286966Y563816D01*
X-284416Y566366D01*
X-283036Y569697D01*
X-283036Y573303D01*
X-284416Y576634D01*
X-286966Y579184D01*
X-290297Y580564D01*
X-293903Y580564D01*
X-297234Y579184D01*
X-299784Y576634D01*
X-301164Y573303D01*
X-301164Y569697D01*
X-299784Y566366D01*
X-297234Y563816D01*
X-293903Y562436D01*
G37*
G36*
X187638Y538696D02*
X191983Y538696D01*
X195998Y540359D01*
X199070Y543431D01*
X200733Y547446D01*
X200733Y551791D01*
X199070Y555805D01*
X195998Y558877D01*
X191983Y560540D01*
X187638Y560540D01*
X183624Y558877D01*
X180552Y555805D01*
X178889Y551791D01*
X178889Y547446D01*
X180552Y543431D01*
X183624Y540359D01*
X187638Y538696D01*
G37*
G36*
X74028Y535178D02*
X78373Y535178D01*
X82387Y536841D01*
X85459Y539913D01*
X85949Y541095D01*
X86262Y541572D01*
X86762Y541915D01*
X87357Y542036D01*
X90443Y542036D01*
X91004Y541929D01*
X91512Y541598D01*
X91851Y541095D01*
X92341Y539913D01*
X95413Y536841D01*
X99428Y535178D01*
X103773Y535178D01*
X107787Y536841D01*
X110859Y539913D01*
X111349Y541095D01*
X111662Y541572D01*
X112162Y541915D01*
X112757Y542036D01*
X115843Y542036D01*
X116404Y541929D01*
X116912Y541598D01*
X117251Y541095D01*
X117741Y539913D01*
X120813Y536841D01*
X124828Y535178D01*
X129173Y535178D01*
X133187Y536841D01*
X136259Y539913D01*
X137922Y543928D01*
X137922Y548273D01*
X136259Y552287D01*
X133187Y555359D01*
X129173Y557022D01*
X124828Y557022D01*
X120813Y555359D01*
X117741Y552287D01*
X117251Y551105D01*
X116938Y550628D01*
X116438Y550285D01*
X115843Y550164D01*
X112757Y550164D01*
X112196Y550271D01*
X111688Y550602D01*
X111349Y551105D01*
X110859Y552287D01*
X107787Y555359D01*
X103773Y557022D01*
X99428Y557022D01*
X95413Y555359D01*
X92341Y552287D01*
X91851Y551105D01*
X91538Y550628D01*
X91038Y550285D01*
X90443Y550164D01*
X87357Y550164D01*
X86796Y550271D01*
X86288Y550602D01*
X85949Y551105D01*
X85459Y552287D01*
X82387Y555359D01*
X78373Y557022D01*
X74028Y557022D01*
X70013Y555359D01*
X66941Y552287D01*
X65278Y548273D01*
X65278Y543928D01*
X66941Y539913D01*
X70013Y536841D01*
X74028Y535178D01*
G37*
G36*
X-332373Y535178D02*
X-328028Y535178D01*
X-324013Y536841D01*
X-323074Y537780D01*
X-322591Y538105D01*
X-321997Y538226D01*
X-297079Y538226D01*
X-296496Y538110D01*
X-293903Y537036D01*
X-290297Y537036D01*
X-286966Y538416D01*
X-284416Y540966D01*
X-283036Y544297D01*
X-283036Y547903D01*
X-284416Y551234D01*
X-286966Y553784D01*
X-290297Y555164D01*
X-293903Y555164D01*
X-296496Y554090D01*
X-297079Y553974D01*
X-321997Y553974D01*
X-322569Y554085D01*
X-323074Y554420D01*
X-324013Y555359D01*
X-328028Y557022D01*
X-332373Y557022D01*
X-336387Y555359D01*
X-339459Y552287D01*
X-341122Y548273D01*
X-341122Y543928D01*
X-339459Y539913D01*
X-336387Y536841D01*
X-332373Y535178D01*
G37*
G36*
X74028Y509778D02*
X78373Y509778D01*
X82387Y511441D01*
X85459Y514513D01*
X85949Y515695D01*
X86262Y516172D01*
X86762Y516515D01*
X87357Y516636D01*
X90443Y516636D01*
X91004Y516529D01*
X91512Y516198D01*
X91851Y515695D01*
X92341Y514513D01*
X95413Y511441D01*
X99428Y509778D01*
X103773Y509778D01*
X107787Y511441D01*
X110859Y514513D01*
X111349Y515695D01*
X111662Y516172D01*
X112162Y516515D01*
X112757Y516636D01*
X115843Y516636D01*
X116404Y516529D01*
X116912Y516198D01*
X117251Y515695D01*
X117741Y514513D01*
X120813Y511441D01*
X124828Y509778D01*
X129173Y509778D01*
X133187Y511441D01*
X136259Y514513D01*
X137922Y518528D01*
X137922Y522873D01*
X136259Y526887D01*
X133187Y529959D01*
X129173Y531622D01*
X124828Y531622D01*
X120813Y529959D01*
X117741Y526887D01*
X117251Y525705D01*
X116938Y525228D01*
X116438Y524885D01*
X115843Y524764D01*
X112757Y524764D01*
X112196Y524871D01*
X111688Y525202D01*
X111349Y525705D01*
X110859Y526887D01*
X107787Y529959D01*
X103773Y531622D01*
X99428Y531622D01*
X95413Y529959D01*
X92341Y526887D01*
X91851Y525705D01*
X91538Y525228D01*
X91038Y524885D01*
X90443Y524764D01*
X87357Y524764D01*
X86796Y524871D01*
X86288Y525202D01*
X85949Y525705D01*
X85459Y526887D01*
X82387Y529959D01*
X78373Y531622D01*
X74028Y531622D01*
X70013Y529959D01*
X66941Y526887D01*
X65278Y522873D01*
X65278Y518528D01*
X66941Y514513D01*
X70013Y511441D01*
X74028Y509778D01*
G37*
G36*
X-332373Y509778D02*
X-328028Y509778D01*
X-324013Y511441D01*
X-323074Y512380D01*
X-322591Y512705D01*
X-321997Y512826D01*
X-297079Y512826D01*
X-296496Y512710D01*
X-293903Y511636D01*
X-290297Y511636D01*
X-286966Y513016D01*
X-284416Y515566D01*
X-283036Y518897D01*
X-283036Y522503D01*
X-284416Y525834D01*
X-286966Y528384D01*
X-290297Y529764D01*
X-293903Y529764D01*
X-296496Y528690D01*
X-297079Y528574D01*
X-321997Y528574D01*
X-322569Y528685D01*
X-323074Y529020D01*
X-324013Y529959D01*
X-328028Y531622D01*
X-332373Y531622D01*
X-336387Y529959D01*
X-339459Y526887D01*
X-341122Y522873D01*
X-341122Y518528D01*
X-339459Y514513D01*
X-336387Y511441D01*
X-332373Y509778D01*
G37*
G36*
X74028Y484378D02*
X78373Y484378D01*
X82387Y486041D01*
X85459Y489113D01*
X86370Y491311D01*
X86683Y491788D01*
X87183Y492131D01*
X87778Y492252D01*
X90022Y492252D01*
X90583Y492145D01*
X91091Y491814D01*
X91430Y491311D01*
X92341Y489113D01*
X95413Y486041D01*
X99428Y484378D01*
X103773Y484378D01*
X107787Y486041D01*
X110859Y489113D01*
X111770Y491311D01*
X112083Y491788D01*
X112583Y492131D01*
X113178Y492252D01*
X115422Y492252D01*
X115983Y492145D01*
X116491Y491814D01*
X116830Y491311D01*
X117741Y489113D01*
X120813Y486041D01*
X124828Y484378D01*
X129173Y484378D01*
X133187Y486041D01*
X136259Y489113D01*
X137485Y492073D01*
X137799Y492550D01*
X138299Y492893D01*
X138893Y493014D01*
X141017Y493014D01*
X141566Y492912D01*
X142077Y492585D01*
X142420Y492084D01*
X142541Y491490D01*
X142541Y489799D01*
X143433Y488907D01*
X152683Y488907D01*
X153576Y489799D01*
X153576Y500801D01*
X152683Y501694D01*
X143433Y501694D01*
X142541Y500801D01*
X142541Y499110D01*
X142438Y498561D01*
X142111Y498050D01*
X141611Y497707D01*
X141017Y497586D01*
X138893Y497586D01*
X138333Y497693D01*
X137824Y498024D01*
X137485Y498527D01*
X136259Y501487D01*
X133187Y504559D01*
X129173Y506222D01*
X124828Y506222D01*
X120813Y504559D01*
X117741Y501487D01*
X116830Y499289D01*
X116517Y498812D01*
X116017Y498469D01*
X115422Y498348D01*
X113178Y498348D01*
X112617Y498455D01*
X112109Y498786D01*
X111770Y499289D01*
X110859Y501487D01*
X107787Y504559D01*
X103773Y506222D01*
X99428Y506222D01*
X95413Y504559D01*
X92341Y501487D01*
X91430Y499289D01*
X91117Y498812D01*
X90617Y498469D01*
X90022Y498348D01*
X87778Y498348D01*
X87217Y498455D01*
X86709Y498786D01*
X86370Y499289D01*
X85459Y501487D01*
X82387Y504559D01*
X78373Y506222D01*
X74028Y506222D01*
X70013Y504559D01*
X66941Y501487D01*
X65278Y497473D01*
X65278Y493128D01*
X66941Y489113D01*
X70013Y486041D01*
X74028Y484378D01*
G37*
G36*
X-332373Y484378D02*
X-328028Y484378D01*
X-324013Y486041D01*
X-323074Y486980D01*
X-322591Y487305D01*
X-321997Y487426D01*
X-297079Y487426D01*
X-296496Y487310D01*
X-293903Y486236D01*
X-290297Y486236D01*
X-286966Y487616D01*
X-284416Y490166D01*
X-283036Y493497D01*
X-283036Y497103D01*
X-284416Y500434D01*
X-286966Y502984D01*
X-290297Y504364D01*
X-293903Y504364D01*
X-296496Y503290D01*
X-297079Y503174D01*
X-321997Y503174D01*
X-322569Y503285D01*
X-323074Y503620D01*
X-324013Y504559D01*
X-328028Y506222D01*
X-332373Y506222D01*
X-336387Y504559D01*
X-339459Y501487D01*
X-341122Y497473D01*
X-341122Y493128D01*
X-339459Y489113D01*
X-336387Y486041D01*
X-332373Y484378D01*
G37*
G36*
X-266065Y470662D02*
X-254762Y470662D01*
X-254762Y481965D01*
X-258997Y481965D01*
X-266065Y474897D01*
X-266065Y470662D01*
G37*
G36*
X-253238Y470662D02*
X-241935Y470662D01*
X-241935Y474897D01*
X-249003Y481965D01*
X-253238Y481965D01*
X-253238Y470662D01*
G37*
G36*
X-332373Y458978D02*
X-328028Y458978D01*
X-324013Y460641D01*
X-323074Y461580D01*
X-322591Y461905D01*
X-321997Y462026D01*
X-297079Y462026D01*
X-296496Y461910D01*
X-293903Y460836D01*
X-290297Y460836D01*
X-286966Y462216D01*
X-284416Y464766D01*
X-283036Y468097D01*
X-283036Y471703D01*
X-284416Y475034D01*
X-286966Y477584D01*
X-290297Y478964D01*
X-293903Y478964D01*
X-296496Y477890D01*
X-297079Y477774D01*
X-321997Y477774D01*
X-322569Y477885D01*
X-323074Y478220D01*
X-324013Y479159D01*
X-328028Y480822D01*
X-332373Y480822D01*
X-336387Y479159D01*
X-339459Y476087D01*
X-341122Y472073D01*
X-341122Y467728D01*
X-339459Y463713D01*
X-336387Y460641D01*
X-332373Y458978D01*
G37*
G36*
X74028Y458978D02*
X78373Y458978D01*
X82387Y460641D01*
X85459Y463713D01*
X86370Y465911D01*
X86683Y466388D01*
X87183Y466731D01*
X87778Y466852D01*
X90022Y466852D01*
X90583Y466745D01*
X91091Y466414D01*
X91430Y465911D01*
X92341Y463713D01*
X95413Y460641D01*
X99428Y458978D01*
X103773Y458978D01*
X107787Y460641D01*
X110859Y463713D01*
X111770Y465911D01*
X112083Y466388D01*
X112583Y466731D01*
X113178Y466852D01*
X115422Y466852D01*
X115983Y466745D01*
X116491Y466414D01*
X116830Y465911D01*
X117741Y463713D01*
X120813Y460641D01*
X124828Y458978D01*
X129173Y458978D01*
X133187Y460641D01*
X136259Y463713D01*
X137485Y466673D01*
X137799Y467150D01*
X138299Y467493D01*
X138893Y467614D01*
X141017Y467614D01*
X141566Y467512D01*
X142077Y467185D01*
X142420Y466684D01*
X142541Y466090D01*
X142541Y464399D01*
X143433Y463507D01*
X152683Y463507D01*
X153576Y464399D01*
X153576Y475401D01*
X152683Y476294D01*
X143433Y476294D01*
X142541Y475401D01*
X142541Y473710D01*
X142438Y473161D01*
X142111Y472650D01*
X141611Y472307D01*
X141017Y472186D01*
X138893Y472186D01*
X138333Y472293D01*
X137824Y472624D01*
X137485Y473127D01*
X136259Y476087D01*
X133187Y479159D01*
X129173Y480822D01*
X124828Y480822D01*
X120813Y479159D01*
X117741Y476087D01*
X116830Y473889D01*
X116517Y473412D01*
X116017Y473069D01*
X115422Y472948D01*
X113178Y472948D01*
X112617Y473055D01*
X112109Y473386D01*
X111770Y473889D01*
X110859Y476087D01*
X107787Y479159D01*
X103773Y480822D01*
X99428Y480822D01*
X95413Y479159D01*
X92341Y476087D01*
X91430Y473889D01*
X91117Y473412D01*
X90617Y473069D01*
X90022Y472948D01*
X87778Y472948D01*
X87217Y473055D01*
X86709Y473386D01*
X86370Y473889D01*
X85459Y476087D01*
X82387Y479159D01*
X78373Y480822D01*
X74028Y480822D01*
X70013Y479159D01*
X66941Y476087D01*
X65278Y472073D01*
X65278Y467728D01*
X66941Y463713D01*
X70013Y460641D01*
X74028Y458978D01*
G37*
G36*
X-253238Y457835D02*
X-249003Y457835D01*
X-241935Y464903D01*
X-241935Y469138D01*
X-253238Y469138D01*
X-253238Y457835D01*
G37*
G36*
X-258997Y457835D02*
X-254762Y457835D01*
X-254762Y469138D01*
X-266065Y469138D01*
X-266065Y464903D01*
X-258997Y457835D01*
G37*
G36*
X187638Y437096D02*
X191983Y437096D01*
X195998Y438759D01*
X199070Y441831D01*
X200733Y445846D01*
X200733Y450191D01*
X199070Y454205D01*
X195998Y457277D01*
X191983Y458940D01*
X187638Y458940D01*
X183624Y457277D01*
X180552Y454205D01*
X178889Y450191D01*
X178889Y445846D01*
X180552Y441831D01*
X183624Y438759D01*
X187638Y437096D01*
G37*
G36*
X74028Y433578D02*
X78373Y433578D01*
X82387Y435241D01*
X85459Y438313D01*
X86370Y440511D01*
X86683Y440988D01*
X87183Y441331D01*
X87778Y441452D01*
X90022Y441452D01*
X90583Y441345D01*
X91091Y441014D01*
X91430Y440511D01*
X92341Y438313D01*
X95413Y435241D01*
X99428Y433578D01*
X103773Y433578D01*
X107787Y435241D01*
X110859Y438313D01*
X111770Y440511D01*
X112083Y440988D01*
X112583Y441331D01*
X113178Y441452D01*
X115422Y441452D01*
X115983Y441345D01*
X116491Y441014D01*
X116830Y440511D01*
X117741Y438313D01*
X120813Y435241D01*
X124828Y433578D01*
X129173Y433578D01*
X133187Y435241D01*
X136259Y438313D01*
X137922Y442328D01*
X137922Y446673D01*
X136259Y450687D01*
X133187Y453759D01*
X129173Y455422D01*
X124828Y455422D01*
X120813Y453759D01*
X117741Y450687D01*
X116830Y448489D01*
X116517Y448012D01*
X116017Y447669D01*
X115422Y447548D01*
X113178Y447548D01*
X112617Y447655D01*
X112109Y447986D01*
X111770Y448489D01*
X110859Y450687D01*
X107787Y453759D01*
X103773Y455422D01*
X99428Y455422D01*
X95413Y453759D01*
X92341Y450687D01*
X91430Y448489D01*
X91117Y448012D01*
X90617Y447669D01*
X90022Y447548D01*
X87778Y447548D01*
X87217Y447655D01*
X86709Y447986D01*
X86370Y448489D01*
X85459Y450687D01*
X82387Y453759D01*
X78373Y455422D01*
X74028Y455422D01*
X70013Y453759D01*
X66941Y450687D01*
X65278Y446673D01*
X65278Y442328D01*
X66941Y438313D01*
X70013Y435241D01*
X74028Y433578D01*
G37*
G36*
X-291338Y445262D02*
X-282020Y445262D01*
X-282020Y446505D01*
X-283555Y450210D01*
X-286390Y453045D01*
X-290095Y454580D01*
X-291338Y454580D01*
X-291338Y445262D01*
G37*
G36*
X-302180Y445262D02*
X-292862Y445262D01*
X-292862Y454580D01*
X-294105Y454580D01*
X-297810Y453045D01*
X-300645Y450210D01*
X-302180Y446505D01*
X-302180Y445262D01*
G37*
G36*
X-294105Y434420D02*
X-292862Y434420D01*
X-292862Y443738D01*
X-302180Y443738D01*
X-302180Y442495D01*
X-300645Y438790D01*
X-297810Y435955D01*
X-294105Y434420D01*
G37*
G36*
X229362Y426212D02*
X240538Y426212D01*
X240538Y437388D01*
X238925Y437388D01*
X234538Y435571D01*
X231179Y432212D01*
X229362Y427825D01*
X229362Y426212D01*
G37*
G36*
X242062Y426212D02*
X253238Y426212D01*
X253238Y427825D01*
X251421Y432212D01*
X248062Y435571D01*
X243675Y437388D01*
X242062Y437388D01*
X242062Y426212D01*
G37*
G36*
X74028Y408178D02*
X78373Y408178D01*
X82387Y409841D01*
X85459Y412913D01*
X86370Y415111D01*
X86683Y415588D01*
X87183Y415931D01*
X87778Y416052D01*
X90022Y416052D01*
X90583Y415945D01*
X91091Y415614D01*
X91430Y415111D01*
X92341Y412913D01*
X95413Y409841D01*
X99428Y408178D01*
X103773Y408178D01*
X107787Y409841D01*
X110859Y412913D01*
X111770Y415111D01*
X112083Y415588D01*
X112583Y415931D01*
X113178Y416052D01*
X115422Y416052D01*
X115983Y415945D01*
X116491Y415614D01*
X116830Y415111D01*
X117741Y412913D01*
X120813Y409841D01*
X124828Y408178D01*
X129173Y408178D01*
X133187Y409841D01*
X136259Y412913D01*
X137922Y416928D01*
X137922Y421273D01*
X136259Y425287D01*
X133187Y428359D01*
X129173Y430022D01*
X124828Y430022D01*
X120813Y428359D01*
X117741Y425287D01*
X116830Y423089D01*
X116517Y422612D01*
X116017Y422269D01*
X115422Y422148D01*
X113178Y422148D01*
X112617Y422255D01*
X112109Y422586D01*
X111770Y423089D01*
X110859Y425287D01*
X107787Y428359D01*
X103773Y430022D01*
X99428Y430022D01*
X95413Y428359D01*
X92341Y425287D01*
X91430Y423089D01*
X91117Y422612D01*
X90617Y422269D01*
X90022Y422148D01*
X87778Y422148D01*
X87217Y422255D01*
X86709Y422586D01*
X86370Y423089D01*
X85459Y425287D01*
X82387Y428359D01*
X78373Y430022D01*
X74028Y430022D01*
X70013Y428359D01*
X66941Y425287D01*
X65278Y421273D01*
X65278Y416928D01*
X66941Y412913D01*
X70013Y409841D01*
X74028Y408178D01*
G37*
G36*
X-217703Y410036D02*
X-214097Y410036D01*
X-210766Y411416D01*
X-208216Y413966D01*
X-206836Y417297D01*
X-206836Y420903D01*
X-208216Y424234D01*
X-210766Y426784D01*
X-214097Y428164D01*
X-217703Y428164D01*
X-221034Y426784D01*
X-223584Y424234D01*
X-224964Y420903D01*
X-224964Y417297D01*
X-223584Y413966D01*
X-221034Y411416D01*
X-217703Y410036D01*
G37*
G36*
X229362Y375412D02*
X253238Y375412D01*
X253238Y377025D01*
X251421Y381412D01*
X248062Y384771D01*
X243907Y386492D01*
X243456Y386780D01*
X243101Y387272D01*
X242966Y387863D01*
X243073Y388461D01*
X243404Y388969D01*
X243907Y389308D01*
X247487Y390791D01*
X250559Y393863D01*
X252222Y397878D01*
X252222Y402223D01*
X250559Y406237D01*
X247487Y409309D01*
X243907Y410792D01*
X243456Y411080D01*
X243101Y411572D01*
X242966Y412164D01*
X243073Y412761D01*
X243404Y413269D01*
X243907Y413608D01*
X248062Y415329D01*
X251421Y418688D01*
X253238Y423075D01*
X253238Y424688D01*
X229362Y424688D01*
X229362Y423075D01*
X231179Y418688D01*
X234538Y415329D01*
X238693Y413608D01*
X239144Y413320D01*
X239499Y412828D01*
X239634Y412237D01*
X239527Y411639D01*
X239196Y411131D01*
X238693Y410792D01*
X235113Y409309D01*
X232041Y406237D01*
X230378Y402223D01*
X230378Y397878D01*
X232041Y393863D01*
X235113Y390791D01*
X238693Y389308D01*
X239144Y389020D01*
X239499Y388528D01*
X239634Y387936D01*
X239527Y387339D01*
X239196Y386831D01*
X238693Y386492D01*
X234538Y384771D01*
X231179Y381412D01*
X229362Y377025D01*
X229362Y375412D01*
G37*
G36*
X-302989Y369366D02*
X-293671Y369366D01*
X-293671Y378684D01*
X-301501Y378684D01*
X-302989Y377196D01*
X-302989Y369366D01*
G37*
G36*
X239128Y338328D02*
X243473Y338328D01*
X247487Y339991D01*
X250559Y343063D01*
X252222Y347078D01*
X252222Y351423D01*
X250559Y355437D01*
X247487Y358509D01*
X243907Y359992D01*
X243456Y360280D01*
X243101Y360772D01*
X242966Y361364D01*
X243073Y361961D01*
X243404Y362469D01*
X243907Y362808D01*
X248062Y364529D01*
X251421Y367888D01*
X253238Y372275D01*
X253238Y373888D01*
X229362Y373888D01*
X229362Y372275D01*
X231179Y367888D01*
X234538Y364529D01*
X238693Y362808D01*
X239144Y362520D01*
X239499Y362028D01*
X239634Y361437D01*
X239527Y360839D01*
X239196Y360331D01*
X238693Y359992D01*
X235113Y358509D01*
X232041Y355437D01*
X230378Y351423D01*
X230378Y347078D01*
X232041Y343063D01*
X235113Y339991D01*
X239128Y338328D01*
G37*
G36*
X-292147Y358524D02*
X-284317Y358524D01*
X-282829Y360011D01*
X-282829Y367842D01*
X-292147Y367842D01*
X-292147Y358524D01*
G37*
G36*
X-301501Y358524D02*
X-293671Y358524D01*
X-293671Y367842D01*
X-302989Y367842D01*
X-302989Y360011D01*
X-301501Y358524D01*
G37*
G36*
X-294712Y334140D02*
X-291106Y334140D01*
X-287775Y335520D01*
X-285225Y338069D01*
X-283845Y341401D01*
X-283845Y345006D01*
X-285225Y348338D01*
X-287775Y350888D01*
X-291106Y352268D01*
X-294712Y352268D01*
X-298043Y350888D01*
X-300593Y348338D01*
X-301973Y345006D01*
X-301973Y341401D01*
X-300593Y338069D01*
X-298043Y335520D01*
X-294712Y334140D01*
G37*
G36*
X-332373Y306578D02*
X-328028Y306578D01*
X-324013Y308241D01*
X-322771Y309483D01*
X-322288Y309809D01*
X-321693Y309930D01*
X-297888Y309930D01*
X-297305Y309814D01*
X-294712Y308740D01*
X-291106Y308740D01*
X-287775Y310120D01*
X-285225Y312669D01*
X-283845Y316001D01*
X-283845Y319606D01*
X-285225Y322938D01*
X-287775Y325488D01*
X-291106Y326868D01*
X-294712Y326868D01*
X-297305Y325794D01*
X-297888Y325678D01*
X-322300Y325678D01*
X-322872Y325789D01*
X-323378Y326124D01*
X-324013Y326759D01*
X-328028Y328422D01*
X-332373Y328422D01*
X-336387Y326759D01*
X-339459Y323687D01*
X-341122Y319673D01*
X-341122Y315328D01*
X-339459Y311313D01*
X-336387Y308241D01*
X-332373Y306578D01*
G37*
G36*
X230632Y305562D02*
X241808Y305562D01*
X241808Y316738D01*
X240195Y316738D01*
X235808Y314921D01*
X232449Y311562D01*
X230632Y307175D01*
X230632Y305562D01*
G37*
G36*
X243332Y305562D02*
X254508Y305562D01*
X254508Y307175D01*
X252691Y311562D01*
X249332Y314921D01*
X244945Y316738D01*
X243332Y316738D01*
X243332Y305562D01*
G37*
G36*
X74028Y103378D02*
X78373Y103378D01*
X82387Y105041D01*
X85459Y108113D01*
X86370Y110311D01*
X86683Y110788D01*
X87183Y111131D01*
X87778Y111252D01*
X90022Y111252D01*
X90583Y111145D01*
X91091Y110814D01*
X91430Y110311D01*
X92341Y108113D01*
X95413Y105041D01*
X99428Y103378D01*
X103773Y103378D01*
X107787Y105041D01*
X110859Y108113D01*
X111770Y110311D01*
X112083Y110788D01*
X112583Y111131D01*
X113178Y111252D01*
X115422Y111252D01*
X115983Y111145D01*
X116491Y110814D01*
X116830Y110311D01*
X117741Y108113D01*
X120813Y105041D01*
X124828Y103378D01*
X129173Y103378D01*
X133187Y105041D01*
X136259Y108113D01*
X137922Y112128D01*
X137922Y116472D01*
X137384Y117773D01*
X137268Y118331D01*
X137379Y118928D01*
X137714Y119433D01*
X236539Y218258D01*
X237011Y218579D01*
X237604Y218704D01*
X238199Y218588D01*
X240398Y217678D01*
X244743Y217678D01*
X248757Y219341D01*
X251829Y222413D01*
X253492Y226428D01*
X253492Y230773D01*
X251829Y234787D01*
X248757Y237859D01*
X245177Y239342D01*
X244726Y239630D01*
X244371Y240122D01*
X244236Y240714D01*
X244343Y241311D01*
X244674Y241819D01*
X245177Y242158D01*
X249332Y243879D01*
X252691Y247238D01*
X254508Y251625D01*
X254508Y253238D01*
X230632Y253238D01*
X230632Y251625D01*
X232449Y247238D01*
X235808Y243879D01*
X239963Y242158D01*
X240414Y241870D01*
X240769Y241378D01*
X240904Y240787D01*
X240797Y240189D01*
X240466Y239681D01*
X239963Y239342D01*
X236383Y237859D01*
X233311Y234787D01*
X231648Y230773D01*
X231648Y226428D01*
X232558Y224229D01*
X232674Y223671D01*
X232563Y223074D01*
X232228Y222569D01*
X215962Y206302D01*
X215523Y205996D01*
X214933Y205857D01*
X214335Y205958D01*
X213824Y206285D01*
X213481Y206785D01*
X213360Y207380D01*
X213360Y246340D01*
X213471Y246912D01*
X213806Y247417D01*
X235767Y269378D01*
X236239Y269699D01*
X236832Y269824D01*
X237428Y269708D01*
X239963Y268658D01*
X240414Y268370D01*
X240769Y267878D01*
X240904Y267286D01*
X240797Y266689D01*
X240466Y266181D01*
X239963Y265842D01*
X235808Y264121D01*
X232449Y260762D01*
X230632Y256375D01*
X230632Y254762D01*
X254508Y254762D01*
X254508Y256375D01*
X252691Y260762D01*
X249332Y264121D01*
X245177Y265842D01*
X244726Y266130D01*
X244371Y266622D01*
X244236Y267213D01*
X244343Y267811D01*
X244674Y268319D01*
X245177Y268658D01*
X248757Y270141D01*
X251829Y273213D01*
X253492Y277228D01*
X253492Y281573D01*
X251829Y285587D01*
X248757Y288659D01*
X245177Y290142D01*
X244726Y290430D01*
X244371Y290922D01*
X244236Y291514D01*
X244343Y292111D01*
X244674Y292619D01*
X245177Y292958D01*
X249332Y294679D01*
X252691Y298038D01*
X254508Y302425D01*
X254508Y304038D01*
X230632Y304038D01*
X230632Y302425D01*
X232449Y298038D01*
X235808Y294679D01*
X239963Y292958D01*
X240414Y292670D01*
X240769Y292178D01*
X240904Y291587D01*
X240797Y290989D01*
X240466Y290481D01*
X239963Y290142D01*
X236383Y288659D01*
X233311Y285587D01*
X231648Y281573D01*
X231648Y277227D01*
X232239Y275801D01*
X232355Y275242D01*
X232243Y274646D01*
X231908Y274140D01*
X207264Y249496D01*
X207264Y204702D01*
X207153Y204130D01*
X206818Y203624D01*
X189051Y185857D01*
X188612Y185551D01*
X188022Y185412D01*
X187424Y185514D01*
X186913Y185840D01*
X186570Y186341D01*
X186450Y186935D01*
X186450Y189738D01*
X179172Y189738D01*
X179172Y182960D01*
X182474Y182960D01*
X183001Y182866D01*
X183517Y182547D01*
X183868Y182053D01*
X183998Y181460D01*
X183887Y180864D01*
X183552Y180358D01*
X146388Y143194D01*
X145905Y142869D01*
X145310Y142748D01*
X138578Y142748D01*
X138017Y142855D01*
X137509Y143186D01*
X137170Y143689D01*
X136259Y145887D01*
X133187Y148959D01*
X129173Y150622D01*
X124828Y150622D01*
X120813Y148959D01*
X117741Y145887D01*
X116830Y143689D01*
X116517Y143212D01*
X116017Y142869D01*
X115422Y142748D01*
X113178Y142748D01*
X112617Y142855D01*
X112109Y143186D01*
X111770Y143689D01*
X110859Y145887D01*
X107787Y148959D01*
X103773Y150622D01*
X99428Y150622D01*
X95413Y148959D01*
X92341Y145887D01*
X91430Y143689D01*
X91117Y143212D01*
X90617Y142869D01*
X90022Y142748D01*
X87778Y142748D01*
X87217Y142855D01*
X86709Y143186D01*
X86370Y143689D01*
X85459Y145887D01*
X82387Y148959D01*
X78373Y150622D01*
X74028Y150622D01*
X70013Y148959D01*
X66941Y145887D01*
X66889Y145761D01*
X66592Y145302D01*
X66098Y144951D01*
X65505Y144821D01*
X64909Y144932D01*
X64403Y145267D01*
X63577Y146094D01*
X54327Y146094D01*
X53435Y145201D01*
X53435Y134199D01*
X54327Y133307D01*
X63577Y133307D01*
X64403Y134133D01*
X64853Y134444D01*
X65444Y134579D01*
X66042Y134472D01*
X66550Y134142D01*
X66889Y133639D01*
X66941Y133513D01*
X70013Y130441D01*
X74028Y128778D01*
X78373Y128778D01*
X82387Y130441D01*
X85459Y133513D01*
X86370Y135711D01*
X86683Y136188D01*
X87183Y136531D01*
X87778Y136652D01*
X90022Y136652D01*
X90583Y136545D01*
X91091Y136214D01*
X91430Y135711D01*
X92341Y133513D01*
X95413Y130441D01*
X99428Y128778D01*
X103773Y128778D01*
X107787Y130441D01*
X110859Y133513D01*
X111770Y135711D01*
X112083Y136188D01*
X112583Y136531D01*
X113178Y136652D01*
X115422Y136652D01*
X115983Y136545D01*
X116491Y136214D01*
X116830Y135711D01*
X117741Y133513D01*
X120813Y130441D01*
X124828Y128778D01*
X129173Y128778D01*
X133187Y130441D01*
X136259Y133513D01*
X137170Y135711D01*
X137483Y136188D01*
X137983Y136531D01*
X138578Y136652D01*
X142632Y136652D01*
X143159Y136558D01*
X143675Y136239D01*
X144026Y135745D01*
X144156Y135152D01*
X144045Y134556D01*
X143710Y134050D01*
X133929Y124270D01*
X133457Y123949D01*
X132864Y123824D01*
X132269Y123940D01*
X129173Y125222D01*
X124828Y125222D01*
X120813Y123559D01*
X117741Y120487D01*
X116830Y118289D01*
X116517Y117812D01*
X116017Y117469D01*
X115422Y117348D01*
X113178Y117348D01*
X112617Y117455D01*
X112109Y117786D01*
X111770Y118289D01*
X110859Y120487D01*
X107787Y123559D01*
X103773Y125222D01*
X99428Y125222D01*
X95413Y123559D01*
X92341Y120487D01*
X91430Y118289D01*
X91117Y117812D01*
X90617Y117469D01*
X90022Y117348D01*
X87778Y117348D01*
X87217Y117455D01*
X86709Y117786D01*
X86370Y118289D01*
X85459Y120487D01*
X82387Y123559D01*
X78373Y125222D01*
X74028Y125222D01*
X70013Y123559D01*
X66941Y120487D01*
X66889Y120361D01*
X66592Y119902D01*
X66098Y119551D01*
X65505Y119421D01*
X64909Y119532D01*
X64403Y119867D01*
X63577Y120694D01*
X54327Y120694D01*
X53435Y119801D01*
X53435Y108799D01*
X54327Y107907D01*
X63577Y107907D01*
X64403Y108733D01*
X64853Y109044D01*
X65444Y109179D01*
X66042Y109072D01*
X66550Y108742D01*
X66889Y108239D01*
X66941Y108113D01*
X70013Y105041D01*
X74028Y103378D01*
G37*
G36*
X-332373Y281178D02*
X-328028Y281178D01*
X-324013Y282841D01*
X-322771Y284083D01*
X-322288Y284409D01*
X-321693Y284530D01*
X-297888Y284530D01*
X-297305Y284414D01*
X-294712Y283340D01*
X-291106Y283340D01*
X-287775Y284720D01*
X-285225Y287269D01*
X-283845Y290601D01*
X-283845Y294206D01*
X-285225Y297538D01*
X-287775Y300088D01*
X-291106Y301468D01*
X-294712Y301468D01*
X-297305Y300394D01*
X-297888Y300278D01*
X-322300Y300278D01*
X-322872Y300389D01*
X-323378Y300724D01*
X-324013Y301359D01*
X-328028Y303022D01*
X-332373Y303022D01*
X-336387Y301359D01*
X-339459Y298287D01*
X-341122Y294273D01*
X-341122Y289928D01*
X-339459Y285913D01*
X-336387Y282841D01*
X-332373Y281178D01*
G37*
G36*
X-332373Y255778D02*
X-328028Y255778D01*
X-324013Y257441D01*
X-322771Y258683D01*
X-322288Y259009D01*
X-321693Y259130D01*
X-297888Y259130D01*
X-297305Y259014D01*
X-294712Y257940D01*
X-291106Y257940D01*
X-287775Y259320D01*
X-285225Y261869D01*
X-283845Y265201D01*
X-283845Y268806D01*
X-285225Y272138D01*
X-287775Y274688D01*
X-291106Y276068D01*
X-294712Y276068D01*
X-297305Y274994D01*
X-297888Y274878D01*
X-322300Y274878D01*
X-322872Y274989D01*
X-323378Y275324D01*
X-324013Y275959D01*
X-328028Y277622D01*
X-332373Y277622D01*
X-336387Y275959D01*
X-339459Y272887D01*
X-341122Y268873D01*
X-341122Y264528D01*
X-339459Y260513D01*
X-336387Y257441D01*
X-332373Y255778D01*
G37*
G36*
X-253238Y242062D02*
X-241935Y242062D01*
X-241935Y246297D01*
X-249003Y253365D01*
X-253238Y253365D01*
X-253238Y242062D01*
G37*
G36*
X-266065Y242062D02*
X-254762Y242062D01*
X-254762Y253365D01*
X-258997Y253365D01*
X-266065Y246297D01*
X-266065Y242062D01*
G37*
G36*
X74028Y230378D02*
X78373Y230378D01*
X82387Y232041D01*
X85459Y235113D01*
X86370Y237311D01*
X86683Y237788D01*
X87183Y238131D01*
X87778Y238252D01*
X90022Y238252D01*
X90583Y238145D01*
X91091Y237814D01*
X91430Y237311D01*
X92341Y235113D01*
X95413Y232041D01*
X99428Y230378D01*
X103773Y230378D01*
X107787Y232041D01*
X110859Y235113D01*
X111770Y237311D01*
X112083Y237788D01*
X112583Y238131D01*
X113178Y238252D01*
X115422Y238252D01*
X115983Y238145D01*
X116491Y237814D01*
X116830Y237311D01*
X117741Y235113D01*
X120813Y232041D01*
X124828Y230378D01*
X129173Y230378D01*
X133187Y232041D01*
X136259Y235113D01*
X137922Y239128D01*
X137922Y243473D01*
X136259Y247487D01*
X133187Y250559D01*
X129173Y252222D01*
X124828Y252222D01*
X120813Y250559D01*
X117741Y247487D01*
X116830Y245289D01*
X116517Y244812D01*
X116017Y244469D01*
X115422Y244348D01*
X113178Y244348D01*
X112617Y244455D01*
X112109Y244786D01*
X111770Y245289D01*
X110859Y247487D01*
X107787Y250559D01*
X103773Y252222D01*
X99428Y252222D01*
X95413Y250559D01*
X92341Y247487D01*
X91430Y245289D01*
X91117Y244812D01*
X90617Y244469D01*
X90022Y244348D01*
X87778Y244348D01*
X87217Y244455D01*
X86709Y244786D01*
X86370Y245289D01*
X85459Y247487D01*
X82387Y250559D01*
X78373Y252222D01*
X74028Y252222D01*
X70013Y250559D01*
X66941Y247487D01*
X65278Y243473D01*
X65278Y239128D01*
X66941Y235113D01*
X70013Y232041D01*
X74028Y230378D01*
G37*
G36*
X-332373Y230378D02*
X-328028Y230378D01*
X-324013Y232041D01*
X-322771Y233283D01*
X-322288Y233609D01*
X-321693Y233730D01*
X-297888Y233730D01*
X-297305Y233614D01*
X-294712Y232540D01*
X-291106Y232540D01*
X-287775Y233920D01*
X-285225Y236469D01*
X-283845Y239801D01*
X-283845Y243406D01*
X-285225Y246738D01*
X-287775Y249288D01*
X-291106Y250668D01*
X-294712Y250668D01*
X-297305Y249594D01*
X-297888Y249478D01*
X-322300Y249478D01*
X-322872Y249589D01*
X-323378Y249924D01*
X-324013Y250559D01*
X-328028Y252222D01*
X-332373Y252222D01*
X-336387Y250559D01*
X-339459Y247487D01*
X-341122Y243473D01*
X-341122Y239128D01*
X-339459Y235113D01*
X-336387Y232041D01*
X-332373Y230378D01*
G37*
G36*
X153885Y172494D02*
X155995Y172494D01*
X157946Y173302D01*
X159438Y174794D01*
X160246Y176745D01*
X160246Y178855D01*
X159438Y180806D01*
X158869Y181374D01*
X158563Y181813D01*
X158424Y182403D01*
X158526Y183001D01*
X158852Y183512D01*
X159353Y183855D01*
X159947Y183976D01*
X167541Y183976D01*
X168113Y184549D01*
X168574Y184865D01*
X169167Y184995D01*
X169763Y184884D01*
X170269Y184549D01*
X171857Y182960D01*
X177648Y182960D01*
X177648Y198040D01*
X171857Y198040D01*
X170269Y196451D01*
X169808Y196135D01*
X169215Y196005D01*
X168619Y196116D01*
X168113Y196451D01*
X167541Y197024D01*
X159947Y197024D01*
X159420Y197118D01*
X158904Y197437D01*
X158553Y197931D01*
X158423Y198524D01*
X158534Y199120D01*
X158869Y199626D01*
X159438Y200194D01*
X160246Y202145D01*
X160246Y204255D01*
X159438Y206206D01*
X158869Y206774D01*
X158563Y207213D01*
X158424Y207803D01*
X158526Y208401D01*
X158852Y208912D01*
X159353Y209255D01*
X159947Y209376D01*
X167541Y209376D01*
X168113Y209949D01*
X168574Y210265D01*
X169167Y210395D01*
X169763Y210284D01*
X170269Y209949D01*
X171857Y208360D01*
X177648Y208360D01*
X177648Y223440D01*
X171857Y223440D01*
X170269Y221851D01*
X169808Y221535D01*
X169215Y221405D01*
X168619Y221516D01*
X168113Y221851D01*
X167541Y222424D01*
X159947Y222424D01*
X159420Y222518D01*
X158904Y222837D01*
X158553Y223331D01*
X158423Y223924D01*
X158534Y224520D01*
X158869Y225026D01*
X159438Y225594D01*
X160246Y227545D01*
X160246Y229655D01*
X159438Y231606D01*
X157946Y233098D01*
X155995Y233906D01*
X153885Y233906D01*
X151934Y233098D01*
X150442Y231606D01*
X149634Y229655D01*
X149634Y227324D01*
X149658Y227207D01*
X149547Y226611D01*
X149212Y226105D01*
X141739Y218632D01*
X141256Y218307D01*
X140662Y218186D01*
X138893Y218186D01*
X138333Y218293D01*
X137824Y218624D01*
X137485Y219127D01*
X136259Y222087D01*
X133187Y225159D01*
X129173Y226822D01*
X124828Y226822D01*
X120813Y225159D01*
X117741Y222087D01*
X116830Y219889D01*
X116517Y219412D01*
X116017Y219069D01*
X115422Y218948D01*
X113178Y218948D01*
X112617Y219055D01*
X112109Y219386D01*
X111770Y219889D01*
X110859Y222087D01*
X107787Y225159D01*
X103773Y226822D01*
X99428Y226822D01*
X95413Y225159D01*
X92341Y222087D01*
X91430Y219889D01*
X91117Y219412D01*
X90617Y219069D01*
X90022Y218948D01*
X87778Y218948D01*
X87217Y219055D01*
X86709Y219386D01*
X86370Y219889D01*
X85459Y222087D01*
X82387Y225159D01*
X78373Y226822D01*
X74028Y226822D01*
X70013Y225159D01*
X66941Y222087D01*
X66889Y221961D01*
X66592Y221502D01*
X66098Y221151D01*
X65505Y221021D01*
X64909Y221132D01*
X64403Y221467D01*
X63577Y222294D01*
X54327Y222294D01*
X53435Y221401D01*
X53435Y210399D01*
X54327Y209507D01*
X63577Y209507D01*
X64403Y210333D01*
X64853Y210644D01*
X65444Y210779D01*
X66042Y210672D01*
X66550Y210342D01*
X66889Y209839D01*
X66941Y209713D01*
X70013Y206641D01*
X74028Y204978D01*
X78373Y204978D01*
X82387Y206641D01*
X85459Y209713D01*
X86370Y211911D01*
X86683Y212388D01*
X87183Y212731D01*
X87778Y212852D01*
X90022Y212852D01*
X90583Y212745D01*
X91091Y212414D01*
X91430Y211911D01*
X92341Y209713D01*
X95413Y206641D01*
X99428Y204978D01*
X103773Y204978D01*
X107787Y206641D01*
X110859Y209713D01*
X111770Y211911D01*
X112083Y212388D01*
X112583Y212731D01*
X113178Y212852D01*
X115422Y212852D01*
X115983Y212745D01*
X116491Y212414D01*
X116830Y211911D01*
X117741Y209713D01*
X120813Y206641D01*
X124828Y204978D01*
X129173Y204978D01*
X133187Y206641D01*
X136259Y209713D01*
X137485Y212673D01*
X137799Y213150D01*
X138299Y213493D01*
X138893Y213614D01*
X143519Y213614D01*
X144080Y213507D01*
X144588Y213176D01*
X144927Y212673D01*
X145362Y211624D01*
X146854Y210132D01*
X148805Y209324D01*
X149881Y209324D01*
X150408Y209230D01*
X150924Y208911D01*
X151275Y208417D01*
X151405Y207824D01*
X151294Y207228D01*
X150959Y206722D01*
X150931Y206694D01*
X150447Y206369D01*
X149853Y206248D01*
X138437Y206248D01*
X133031Y200842D01*
X132559Y200521D01*
X131966Y200396D01*
X131371Y200512D01*
X129172Y201422D01*
X124828Y201422D01*
X120813Y199759D01*
X117741Y196687D01*
X116830Y194489D01*
X116517Y194012D01*
X116017Y193669D01*
X115422Y193548D01*
X113178Y193548D01*
X112617Y193655D01*
X112109Y193986D01*
X111770Y194489D01*
X110859Y196687D01*
X107787Y199759D01*
X103773Y201422D01*
X99428Y201422D01*
X95413Y199759D01*
X92341Y196687D01*
X91430Y194489D01*
X91117Y194012D01*
X90617Y193669D01*
X90022Y193548D01*
X87778Y193548D01*
X87217Y193655D01*
X86709Y193986D01*
X86370Y194489D01*
X85459Y196687D01*
X82387Y199759D01*
X78373Y201422D01*
X74028Y201422D01*
X70013Y199759D01*
X66941Y196687D01*
X66889Y196561D01*
X66592Y196102D01*
X66098Y195751D01*
X65505Y195621D01*
X64909Y195732D01*
X64403Y196067D01*
X63577Y196894D01*
X54327Y196894D01*
X53435Y196001D01*
X53435Y184999D01*
X54327Y184107D01*
X63577Y184107D01*
X64403Y184933D01*
X64853Y185244D01*
X65444Y185379D01*
X66042Y185272D01*
X66550Y184942D01*
X66889Y184439D01*
X66941Y184313D01*
X70013Y181241D01*
X74028Y179578D01*
X78373Y179578D01*
X82387Y181241D01*
X85459Y184313D01*
X86370Y186511D01*
X86683Y186988D01*
X87183Y187331D01*
X87778Y187452D01*
X90022Y187452D01*
X90583Y187345D01*
X91091Y187014D01*
X91430Y186511D01*
X92341Y184313D01*
X95413Y181241D01*
X99428Y179578D01*
X103773Y179578D01*
X107787Y181241D01*
X110859Y184313D01*
X111770Y186511D01*
X112083Y186988D01*
X112583Y187331D01*
X113178Y187452D01*
X115422Y187452D01*
X115983Y187345D01*
X116491Y187014D01*
X116830Y186511D01*
X117741Y184313D01*
X120813Y181241D01*
X124828Y179578D01*
X129173Y179578D01*
X133187Y181241D01*
X136259Y184313D01*
X137922Y188328D01*
X137922Y192672D01*
X137012Y194871D01*
X136896Y195429D01*
X137007Y196026D01*
X137342Y196531D01*
X140516Y199706D01*
X140999Y200031D01*
X141594Y200152D01*
X149853Y200152D01*
X150425Y200041D01*
X150931Y199706D01*
X151934Y198702D01*
X153445Y198076D01*
X153922Y197763D01*
X154265Y197263D01*
X154386Y196668D01*
X154386Y188418D01*
X154274Y187846D01*
X153939Y187340D01*
X151892Y185293D01*
X151892Y182887D01*
X151781Y182315D01*
X151446Y181809D01*
X150442Y180806D01*
X149634Y178855D01*
X149634Y176745D01*
X150442Y174794D01*
X151934Y173302D01*
X153885Y172494D01*
G37*
G36*
X-292147Y216966D02*
X-282829Y216966D01*
X-282829Y218209D01*
X-284364Y221913D01*
X-287199Y224749D01*
X-290904Y226284D01*
X-292147Y226284D01*
X-292147Y216966D01*
G37*
G36*
X-302989Y216966D02*
X-293671Y216966D01*
X-293671Y226284D01*
X-294914Y226284D01*
X-298619Y224749D01*
X-301454Y221913D01*
X-302989Y218209D01*
X-302989Y216966D01*
G37*
G36*
X179172Y216662D02*
X186450Y216662D01*
X186450Y221952D01*
X184962Y223440D01*
X179172Y223440D01*
X179172Y216662D01*
G37*
G36*
X-294914Y206124D02*
X-293671Y206124D01*
X-293671Y215442D01*
X-302989Y215442D01*
X-302989Y214199D01*
X-301454Y210494D01*
X-298619Y207658D01*
X-294914Y206124D01*
G37*
G36*
X179172Y208360D02*
X184962Y208360D01*
X186450Y209848D01*
X186450Y215138D01*
X179172Y215138D01*
X179172Y208360D01*
G37*
G36*
X179172Y191262D02*
X186450Y191262D01*
X186450Y196552D01*
X184962Y198040D01*
X179172Y198040D01*
X179172Y191262D01*
G37*
G36*
X74028Y154178D02*
X78373Y154178D01*
X82387Y155841D01*
X85459Y158913D01*
X86370Y161111D01*
X86683Y161588D01*
X87183Y161931D01*
X87778Y162052D01*
X90022Y162052D01*
X90583Y161945D01*
X91091Y161614D01*
X91430Y161111D01*
X92341Y158913D01*
X95413Y155841D01*
X99428Y154178D01*
X103773Y154178D01*
X107787Y155841D01*
X110859Y158913D01*
X111770Y161111D01*
X112083Y161588D01*
X112583Y161931D01*
X113178Y162052D01*
X115422Y162052D01*
X115983Y161945D01*
X116491Y161614D01*
X116830Y161111D01*
X117741Y158913D01*
X120813Y155841D01*
X124828Y154178D01*
X129173Y154178D01*
X133187Y155841D01*
X136259Y158913D01*
X137922Y162928D01*
X137922Y167273D01*
X136259Y171287D01*
X133187Y174359D01*
X129173Y176022D01*
X124828Y176022D01*
X120813Y174359D01*
X117741Y171287D01*
X116830Y169089D01*
X116517Y168612D01*
X116017Y168269D01*
X115422Y168148D01*
X113178Y168148D01*
X112617Y168255D01*
X112109Y168586D01*
X111770Y169089D01*
X110859Y171287D01*
X107787Y174359D01*
X103773Y176022D01*
X99428Y176022D01*
X95413Y174359D01*
X92341Y171287D01*
X91430Y169089D01*
X91117Y168612D01*
X90617Y168269D01*
X90022Y168148D01*
X87778Y168148D01*
X87217Y168255D01*
X86709Y168586D01*
X86370Y169089D01*
X85459Y171287D01*
X82387Y174359D01*
X78373Y176022D01*
X74028Y176022D01*
X70013Y174359D01*
X66941Y171287D01*
X66889Y171161D01*
X66592Y170702D01*
X66098Y170351D01*
X65505Y170221D01*
X64909Y170332D01*
X64403Y170667D01*
X63577Y171494D01*
X54327Y171494D01*
X53435Y170601D01*
X53435Y159599D01*
X54327Y158707D01*
X63577Y158707D01*
X64403Y159533D01*
X64853Y159844D01*
X65444Y159979D01*
X66042Y159872D01*
X66550Y159542D01*
X66889Y159039D01*
X66941Y158913D01*
X70013Y155841D01*
X74028Y154178D01*
G37*
G36*
X250190Y120142D02*
X262128Y120142D01*
X262128Y132080D01*
X251678Y132080D01*
X250190Y130592D01*
X250190Y120142D01*
G37*
G36*
X251678Y106680D02*
X262128Y106680D01*
X262128Y118618D01*
X250190Y118618D01*
X250190Y108168D01*
X251678Y106680D01*
G37*
G36*
X159737Y82507D02*
X168987Y82507D01*
X169880Y83399D01*
X169880Y90553D01*
X169991Y91125D01*
X170326Y91631D01*
X176486Y97791D01*
X176981Y98122D01*
X178964Y98943D01*
X180457Y100436D01*
X181265Y102386D01*
X181265Y104497D01*
X180457Y106447D01*
X178964Y107940D01*
X177014Y108748D01*
X174903Y108748D01*
X172953Y107940D01*
X171460Y106447D01*
X170653Y104497D01*
X170653Y102386D01*
X171423Y100525D01*
X171539Y99966D01*
X171428Y99370D01*
X171093Y98864D01*
X167969Y95740D01*
X167486Y95414D01*
X166891Y95294D01*
X159737Y95294D01*
X158845Y94401D01*
X158845Y83399D01*
X159737Y82507D01*
G37*
G36*
X74028Y77978D02*
X78373Y77978D01*
X82387Y79641D01*
X85459Y82713D01*
X86370Y84911D01*
X86683Y85388D01*
X87183Y85731D01*
X87778Y85852D01*
X90022Y85852D01*
X90583Y85745D01*
X91091Y85414D01*
X91430Y84911D01*
X92341Y82713D01*
X95413Y79641D01*
X99428Y77978D01*
X103773Y77978D01*
X107787Y79641D01*
X110859Y82713D01*
X111770Y84911D01*
X112083Y85388D01*
X112583Y85731D01*
X113178Y85852D01*
X115422Y85852D01*
X115983Y85745D01*
X116491Y85414D01*
X116830Y84911D01*
X117741Y82713D01*
X120813Y79641D01*
X124828Y77978D01*
X129173Y77978D01*
X133187Y79641D01*
X136259Y82713D01*
X137170Y84911D01*
X137483Y85388D01*
X137983Y85731D01*
X138578Y85852D01*
X141017Y85852D01*
X141566Y85750D01*
X142077Y85423D01*
X142420Y84922D01*
X142541Y84328D01*
X142541Y83399D01*
X143433Y82507D01*
X152683Y82507D01*
X153576Y83399D01*
X153576Y94401D01*
X152683Y95294D01*
X143433Y95294D01*
X142541Y94401D01*
X142541Y93472D01*
X142438Y92923D01*
X142111Y92412D01*
X141611Y92069D01*
X141017Y91948D01*
X138578Y91948D01*
X138017Y92055D01*
X137509Y92386D01*
X137170Y92889D01*
X136259Y95087D01*
X133187Y98159D01*
X129173Y99822D01*
X124828Y99822D01*
X120813Y98159D01*
X117741Y95087D01*
X116830Y92889D01*
X116517Y92412D01*
X116017Y92069D01*
X115422Y91948D01*
X113178Y91948D01*
X112617Y92055D01*
X112109Y92386D01*
X111770Y92889D01*
X110859Y95087D01*
X107787Y98159D01*
X103773Y99822D01*
X99428Y99822D01*
X95413Y98159D01*
X92341Y95087D01*
X91430Y92889D01*
X91117Y92412D01*
X90617Y92069D01*
X90022Y91948D01*
X87778Y91948D01*
X87217Y92055D01*
X86709Y92386D01*
X86370Y92889D01*
X85459Y95087D01*
X82387Y98159D01*
X78373Y99822D01*
X74028Y99822D01*
X70013Y98159D01*
X66941Y95087D01*
X65278Y91073D01*
X65278Y86728D01*
X66941Y82713D01*
X70013Y79641D01*
X74028Y77978D01*
G37*
G36*
X-129173Y52578D02*
X-124828Y52578D01*
X-120813Y54241D01*
X-117741Y57313D01*
X-117041Y59003D01*
X-116727Y59480D01*
X-116227Y59823D01*
X-115633Y59944D01*
X-112967Y59944D01*
X-112407Y59837D01*
X-111898Y59506D01*
X-111559Y59003D01*
X-110859Y57313D01*
X-107787Y54241D01*
X-103773Y52578D01*
X-99428Y52578D01*
X-95413Y54241D01*
X-92341Y57313D01*
X-91641Y59003D01*
X-91327Y59480D01*
X-90827Y59823D01*
X-90233Y59944D01*
X-87567Y59944D01*
X-87007Y59837D01*
X-86498Y59506D01*
X-86159Y59003D01*
X-85459Y57313D01*
X-82387Y54241D01*
X-78373Y52578D01*
X-74028Y52578D01*
X-70013Y54241D01*
X-66941Y57313D01*
X-65278Y61328D01*
X-65278Y65673D01*
X-66941Y69687D01*
X-70013Y72759D01*
X-74028Y74422D01*
X-78373Y74422D01*
X-82387Y72759D01*
X-85459Y69687D01*
X-86159Y67997D01*
X-86473Y67520D01*
X-86973Y67177D01*
X-87567Y67056D01*
X-90233Y67056D01*
X-90793Y67163D01*
X-91302Y67494D01*
X-91641Y67997D01*
X-92341Y69687D01*
X-95413Y72759D01*
X-99428Y74422D01*
X-103773Y74422D01*
X-107787Y72759D01*
X-110859Y69687D01*
X-111559Y67997D01*
X-111873Y67520D01*
X-112373Y67177D01*
X-112967Y67056D01*
X-115633Y67056D01*
X-116193Y67163D01*
X-116702Y67494D01*
X-117041Y67997D01*
X-117741Y69687D01*
X-120813Y72759D01*
X-124828Y74422D01*
X-129173Y74422D01*
X-133187Y72759D01*
X-136259Y69687D01*
X-137922Y65673D01*
X-137922Y61328D01*
X-136259Y57313D01*
X-133187Y54241D01*
X-129173Y52578D01*
G37*
G36*
X203962Y39370D02*
X215138Y39370D01*
X215138Y40983D01*
X213321Y45370D01*
X209962Y48729D01*
X205575Y50546D01*
X203962Y50546D01*
X203962Y39370D01*
G37*
%LPD*%
G36*
X-55123Y409823D02*
X-55718Y409702D01*
X-66473Y409702D01*
X-66999Y409796D01*
X-67515Y410115D01*
X-67866Y410609D01*
X-67997Y411202D01*
X-67885Y411798D01*
X-67550Y412304D01*
X-66941Y412913D01*
X-65278Y416928D01*
X-65278Y421273D01*
X-66941Y425287D01*
X-70013Y428359D01*
X-74028Y430022D01*
X-78373Y430022D01*
X-82387Y428359D01*
X-85459Y425287D01*
X-85949Y424105D01*
X-86262Y423628D01*
X-86762Y423285D01*
X-87357Y423164D01*
X-90443Y423164D01*
X-91004Y423271D01*
X-91512Y423602D01*
X-91851Y424105D01*
X-92341Y425287D01*
X-95413Y428359D01*
X-99428Y430022D01*
X-103773Y430022D01*
X-107787Y428359D01*
X-110859Y425287D01*
X-111349Y424105D01*
X-111662Y423628D01*
X-112162Y423285D01*
X-112757Y423164D01*
X-115843Y423164D01*
X-116404Y423271D01*
X-116912Y423602D01*
X-117251Y424105D01*
X-117741Y425287D01*
X-120813Y428359D01*
X-124828Y430022D01*
X-129173Y430022D01*
X-133187Y428359D01*
X-136259Y425287D01*
X-137170Y423089D01*
X-137483Y422612D01*
X-137983Y422269D01*
X-138578Y422148D01*
X-155533Y422148D01*
X-156094Y422255D01*
X-156602Y422586D01*
X-156941Y423089D01*
X-157416Y424234D01*
X-159966Y426784D01*
X-163297Y428164D01*
X-166903Y428164D01*
X-170234Y426784D01*
X-172784Y424234D01*
X-172956Y423820D01*
X-173252Y423361D01*
X-173747Y423010D01*
X-174339Y422879D01*
X-174936Y422991D01*
X-175441Y423326D01*
X-180148Y428032D01*
X-180473Y428515D01*
X-180594Y429110D01*
X-180594Y633106D01*
X-180483Y633678D01*
X-180148Y634184D01*
X-146252Y668079D01*
X-146252Y704261D01*
X-146141Y704833D01*
X-145806Y705339D01*
X-145378Y705767D01*
X-144917Y706083D01*
X-144324Y706213D01*
X-143728Y706102D01*
X-143222Y705767D01*
X-142890Y705435D01*
X-142561Y705374D01*
X-142050Y705047D01*
X-141707Y704546D01*
X-141586Y703952D01*
X-141586Y702924D01*
X-74486Y635824D01*
X-74180Y635385D01*
X-74040Y634795D01*
X-74142Y634197D01*
X-74469Y633686D01*
X-74969Y633343D01*
X-75563Y633222D01*
X-78373Y633222D01*
X-82387Y631559D01*
X-85459Y628487D01*
X-85949Y627305D01*
X-86262Y626828D01*
X-86762Y626485D01*
X-87357Y626364D01*
X-90443Y626364D01*
X-91004Y626471D01*
X-91512Y626802D01*
X-91851Y627305D01*
X-92341Y628487D01*
X-95413Y631559D01*
X-99428Y633222D01*
X-103773Y633222D01*
X-107787Y631559D01*
X-110859Y628487D01*
X-111349Y627305D01*
X-111662Y626828D01*
X-112162Y626485D01*
X-112757Y626364D01*
X-115843Y626364D01*
X-116404Y626471D01*
X-116912Y626802D01*
X-117251Y627305D01*
X-117741Y628487D01*
X-120813Y631559D01*
X-124828Y633222D01*
X-129173Y633222D01*
X-133187Y631559D01*
X-136259Y628487D01*
X-137922Y624473D01*
X-137922Y620127D01*
X-136346Y616322D01*
X-136230Y615763D01*
X-136341Y615166D01*
X-136676Y614661D01*
X-153434Y597902D01*
X-153873Y597596D01*
X-154463Y597457D01*
X-155061Y597559D01*
X-155572Y597885D01*
X-155915Y598386D01*
X-155926Y598437D01*
X-157416Y602034D01*
X-159966Y604584D01*
X-163297Y605964D01*
X-166903Y605964D01*
X-170234Y604584D01*
X-172784Y602034D01*
X-174164Y598703D01*
X-174164Y595097D01*
X-172784Y591766D01*
X-170234Y589216D01*
X-166694Y587749D01*
X-166653Y587742D01*
X-166137Y587423D01*
X-165786Y586929D01*
X-165656Y586336D01*
X-165767Y585740D01*
X-166102Y585234D01*
X-168148Y583189D01*
X-168148Y581067D01*
X-168255Y580506D01*
X-168586Y579998D01*
X-169089Y579659D01*
X-170234Y579184D01*
X-172784Y576634D01*
X-174164Y573303D01*
X-174164Y569697D01*
X-172784Y566366D01*
X-170234Y563816D01*
X-166903Y562436D01*
X-163297Y562436D01*
X-159756Y563903D01*
X-159723Y563926D01*
X-159133Y564066D01*
X-158535Y563964D01*
X-158024Y563637D01*
X-157681Y563137D01*
X-157560Y562542D01*
X-157560Y555058D01*
X-157654Y554531D01*
X-157973Y554015D01*
X-158467Y553664D01*
X-159060Y553534D01*
X-159656Y553645D01*
X-159699Y553674D01*
X-163297Y555164D01*
X-166903Y555164D01*
X-170234Y553784D01*
X-172784Y551234D01*
X-174164Y547903D01*
X-174164Y544297D01*
X-172784Y540966D01*
X-170234Y538416D01*
X-166903Y537036D01*
X-163297Y537036D01*
X-159756Y538503D01*
X-159723Y538526D01*
X-159133Y538666D01*
X-158535Y538564D01*
X-158024Y538237D01*
X-157681Y537737D01*
X-157560Y537142D01*
X-157560Y529658D01*
X-157654Y529131D01*
X-157973Y528615D01*
X-158467Y528264D01*
X-159060Y528134D01*
X-159656Y528245D01*
X-159699Y528274D01*
X-163297Y529764D01*
X-166903Y529764D01*
X-170234Y528384D01*
X-172784Y525834D01*
X-174164Y522503D01*
X-174164Y518897D01*
X-172784Y515566D01*
X-170234Y513016D01*
X-166694Y511549D01*
X-166653Y511542D01*
X-166137Y511223D01*
X-165786Y510729D01*
X-165656Y510136D01*
X-165767Y509540D01*
X-166102Y509034D01*
X-168148Y506989D01*
X-168148Y504867D01*
X-168255Y504306D01*
X-168586Y503798D01*
X-169089Y503459D01*
X-170234Y502984D01*
X-172784Y500434D01*
X-174164Y497103D01*
X-174164Y493497D01*
X-172784Y490166D01*
X-170234Y487616D01*
X-166903Y486236D01*
X-163297Y486236D01*
X-159966Y487616D01*
X-157416Y490166D01*
X-156036Y493497D01*
X-156036Y497103D01*
X-157416Y500434D01*
X-159966Y502984D01*
X-160380Y503156D01*
X-160840Y503452D01*
X-161190Y503947D01*
X-161321Y504539D01*
X-161209Y505136D01*
X-160874Y505641D01*
X-151464Y515052D01*
X-151464Y578738D01*
X-151353Y579310D01*
X-151018Y579815D01*
X-139003Y591830D01*
X-138553Y592141D01*
X-137962Y592276D01*
X-137364Y592170D01*
X-136856Y591839D01*
X-136517Y591336D01*
X-136259Y590713D01*
X-133187Y587641D01*
X-129173Y585978D01*
X-124828Y585978D01*
X-120813Y587641D01*
X-117741Y590713D01*
X-117251Y591895D01*
X-116938Y592372D01*
X-116438Y592715D01*
X-115843Y592836D01*
X-112757Y592836D01*
X-112196Y592729D01*
X-111688Y592398D01*
X-111349Y591895D01*
X-110859Y590713D01*
X-107787Y587641D01*
X-103773Y585978D01*
X-99428Y585978D01*
X-95413Y587641D01*
X-92341Y590713D01*
X-91851Y591895D01*
X-91538Y592372D01*
X-91038Y592715D01*
X-90443Y592836D01*
X-87357Y592836D01*
X-86796Y592729D01*
X-86288Y592398D01*
X-85949Y591895D01*
X-85459Y590713D01*
X-82387Y587641D01*
X-78373Y585978D01*
X-74028Y585978D01*
X-70013Y587641D01*
X-66941Y590713D01*
X-66030Y592911D01*
X-65717Y593388D01*
X-65217Y593731D01*
X-64622Y593852D01*
X-64349Y593852D01*
X-63800Y593750D01*
X-63289Y593423D01*
X-62946Y592922D01*
X-62825Y592328D01*
X-62825Y587727D01*
X-61932Y586835D01*
X-50931Y586835D01*
X-50038Y587727D01*
X-50038Y596977D01*
X-50931Y597870D01*
X-57007Y597870D01*
X-57579Y597981D01*
X-58085Y598316D01*
X-59717Y599948D01*
X-64622Y599948D01*
X-65183Y600055D01*
X-65691Y600386D01*
X-66030Y600889D01*
X-66941Y603087D01*
X-70013Y606159D01*
X-74028Y607822D01*
X-78373Y607822D01*
X-82387Y606159D01*
X-85459Y603087D01*
X-85949Y601905D01*
X-86262Y601428D01*
X-86762Y601085D01*
X-87357Y600964D01*
X-90443Y600964D01*
X-91004Y601071D01*
X-91512Y601402D01*
X-91851Y601905D01*
X-92341Y603087D01*
X-95413Y606159D01*
X-99428Y607822D01*
X-103773Y607822D01*
X-107787Y606159D01*
X-110859Y603087D01*
X-111349Y601905D01*
X-111662Y601428D01*
X-112162Y601085D01*
X-112757Y600964D01*
X-115843Y600964D01*
X-116404Y601071D01*
X-116912Y601402D01*
X-117251Y601905D01*
X-117741Y603087D01*
X-120813Y606159D01*
X-124828Y607822D01*
X-129173Y607822D01*
X-131861Y606709D01*
X-132371Y606594D01*
X-132971Y606686D01*
X-133487Y607005D01*
X-133838Y607500D01*
X-133968Y608092D01*
X-133857Y608688D01*
X-133522Y609194D01*
X-131424Y611292D01*
X-130952Y611613D01*
X-130358Y611738D01*
X-129763Y611623D01*
X-129172Y611378D01*
X-124828Y611378D01*
X-120813Y613041D01*
X-117741Y616113D01*
X-117251Y617295D01*
X-116938Y617772D01*
X-116438Y618115D01*
X-115843Y618236D01*
X-112757Y618236D01*
X-112196Y618129D01*
X-111688Y617798D01*
X-111349Y617295D01*
X-110859Y616113D01*
X-107787Y613041D01*
X-103773Y611378D01*
X-99428Y611378D01*
X-95413Y613041D01*
X-92341Y616113D01*
X-91851Y617295D01*
X-91538Y617772D01*
X-91038Y618115D01*
X-90443Y618236D01*
X-87357Y618236D01*
X-86796Y618129D01*
X-86288Y617798D01*
X-85949Y617295D01*
X-85459Y616113D01*
X-82387Y613041D01*
X-78373Y611378D01*
X-74028Y611378D01*
X-70013Y613041D01*
X-66941Y616113D01*
X-65278Y620128D01*
X-65278Y622937D01*
X-65184Y623463D01*
X-64865Y623979D01*
X-64371Y624330D01*
X-63778Y624461D01*
X-63182Y624349D01*
X-62676Y624014D01*
X-13286Y574624D01*
X-12960Y574141D01*
X-12840Y573546D01*
X-12840Y477818D01*
X-12942Y477268D01*
X-13269Y476757D01*
X-13769Y476414D01*
X-14364Y476294D01*
X-20603Y476294D01*
X-21496Y475401D01*
X-21496Y464399D01*
X-20327Y463231D01*
X-20002Y462748D01*
X-19881Y462153D01*
X-19881Y452418D01*
X-19983Y451868D01*
X-20310Y451357D01*
X-20811Y451014D01*
X-21405Y450894D01*
X-21458Y450894D01*
X-22351Y450001D01*
X-22351Y443069D01*
X-22462Y442497D01*
X-22797Y441992D01*
X-25018Y439771D01*
X-25457Y439465D01*
X-26047Y439325D01*
X-26645Y439427D01*
X-27156Y439754D01*
X-27499Y440254D01*
X-27620Y440848D01*
X-27620Y450001D01*
X-28512Y450894D01*
X-29532Y450894D01*
X-30070Y450992D01*
X-30584Y451314D01*
X-30931Y451812D01*
X-31056Y452405D01*
X-30940Y453001D01*
X-30191Y454811D01*
X-30191Y456922D01*
X-30998Y458872D01*
X-32491Y460365D01*
X-32997Y460575D01*
X-33439Y460855D01*
X-33798Y461344D01*
X-33937Y461934D01*
X-33836Y462532D01*
X-33509Y463043D01*
X-33009Y463386D01*
X-32414Y463507D01*
X-27657Y463507D01*
X-26765Y464399D01*
X-26765Y475401D01*
X-27657Y476294D01*
X-38838Y476294D01*
X-39387Y476396D01*
X-39898Y476723D01*
X-40241Y477223D01*
X-40362Y477818D01*
X-40362Y488429D01*
X-40438Y488791D01*
X-40414Y488916D01*
X-40414Y491275D01*
X-41222Y493226D01*
X-42714Y494718D01*
X-44665Y495526D01*
X-46775Y495526D01*
X-48726Y494718D01*
X-50218Y493226D01*
X-51026Y491275D01*
X-51026Y489165D01*
X-50218Y487214D01*
X-48726Y485722D01*
X-46775Y484914D01*
X-46458Y484914D01*
X-45909Y484812D01*
X-45398Y484485D01*
X-45055Y483984D01*
X-44934Y483390D01*
X-44934Y477818D01*
X-45036Y477268D01*
X-45363Y476757D01*
X-45864Y476414D01*
X-46458Y476294D01*
X-47273Y476294D01*
X-48166Y475401D01*
X-48166Y464399D01*
X-47273Y463507D01*
X-38579Y463507D01*
X-38064Y463417D01*
X-37545Y463102D01*
X-37190Y462610D01*
X-37055Y462019D01*
X-37162Y461422D01*
X-37493Y460914D01*
X-37996Y460575D01*
X-38502Y460365D01*
X-39995Y458872D01*
X-40803Y456922D01*
X-40803Y454590D01*
X-40778Y454473D01*
X-40890Y453877D01*
X-41224Y453371D01*
X-41994Y452602D01*
X-41994Y452418D01*
X-42096Y451868D01*
X-42423Y451357D01*
X-42923Y451014D01*
X-43518Y450894D01*
X-47273Y450894D01*
X-48166Y450001D01*
X-48166Y438999D01*
X-47273Y438107D01*
X-30361Y438107D01*
X-29835Y438013D01*
X-29319Y437694D01*
X-28968Y437199D01*
X-28837Y436607D01*
X-28949Y436011D01*
X-29284Y435505D01*
X-54640Y410148D01*
X-55123Y409823D01*
G37*
%LPC*%
G36*
X-129173Y560578D02*
X-124828Y560578D01*
X-120813Y562241D01*
X-117741Y565313D01*
X-117251Y566495D01*
X-116938Y566972D01*
X-116438Y567315D01*
X-115843Y567436D01*
X-112757Y567436D01*
X-112196Y567329D01*
X-111688Y566998D01*
X-111349Y566495D01*
X-110859Y565313D01*
X-107787Y562241D01*
X-103773Y560578D01*
X-99428Y560578D01*
X-95413Y562241D01*
X-92341Y565313D01*
X-91851Y566495D01*
X-91538Y566972D01*
X-91038Y567315D01*
X-90443Y567436D01*
X-87357Y567436D01*
X-86796Y567329D01*
X-86288Y566998D01*
X-85949Y566495D01*
X-85459Y565313D01*
X-82387Y562241D01*
X-78373Y560578D01*
X-74028Y560578D01*
X-70013Y562241D01*
X-66941Y565313D01*
X-66030Y567511D01*
X-65717Y567988D01*
X-65217Y568331D01*
X-64622Y568452D01*
X-59717Y568452D01*
X-58085Y570084D01*
X-57602Y570410D01*
X-57007Y570531D01*
X-50931Y570531D01*
X-50038Y571423D01*
X-50038Y580673D01*
X-50931Y581566D01*
X-61932Y581566D01*
X-62825Y580673D01*
X-62825Y576072D01*
X-62927Y575523D01*
X-63254Y575012D01*
X-63755Y574669D01*
X-64349Y574548D01*
X-64622Y574548D01*
X-65183Y574655D01*
X-65691Y574986D01*
X-66030Y575489D01*
X-66941Y577687D01*
X-70013Y580759D01*
X-74028Y582422D01*
X-78373Y582422D01*
X-82387Y580759D01*
X-85459Y577687D01*
X-85949Y576505D01*
X-86262Y576028D01*
X-86762Y575685D01*
X-87357Y575564D01*
X-90443Y575564D01*
X-91004Y575671D01*
X-91512Y576002D01*
X-91851Y576505D01*
X-92341Y577687D01*
X-95413Y580759D01*
X-99428Y582422D01*
X-103773Y582422D01*
X-107787Y580759D01*
X-110859Y577687D01*
X-111349Y576505D01*
X-111662Y576028D01*
X-112162Y575685D01*
X-112757Y575564D01*
X-115843Y575564D01*
X-116404Y575671D01*
X-116912Y576002D01*
X-117251Y576505D01*
X-117741Y577687D01*
X-120813Y580759D01*
X-124828Y582422D01*
X-129173Y582422D01*
X-133187Y580759D01*
X-136259Y577687D01*
X-137922Y573673D01*
X-137922Y569328D01*
X-136259Y565313D01*
X-133187Y562241D01*
X-129173Y560578D01*
G37*
G36*
X-129173Y535178D02*
X-124828Y535178D01*
X-120813Y536841D01*
X-117741Y539913D01*
X-117251Y541095D01*
X-116938Y541572D01*
X-116438Y541915D01*
X-115843Y542036D01*
X-112757Y542036D01*
X-112196Y541929D01*
X-111688Y541598D01*
X-111349Y541095D01*
X-110859Y539913D01*
X-107787Y536841D01*
X-103773Y535178D01*
X-99428Y535178D01*
X-95413Y536841D01*
X-92341Y539913D01*
X-91851Y541095D01*
X-91538Y541572D01*
X-91038Y541915D01*
X-90443Y542036D01*
X-87357Y542036D01*
X-86796Y541929D01*
X-86288Y541598D01*
X-85949Y541095D01*
X-85459Y539913D01*
X-82387Y536841D01*
X-78373Y535178D01*
X-74028Y535178D01*
X-70013Y536841D01*
X-66941Y539913D01*
X-65278Y543928D01*
X-65278Y548273D01*
X-66941Y552287D01*
X-70013Y555359D01*
X-74028Y557022D01*
X-78373Y557022D01*
X-82387Y555359D01*
X-85459Y552287D01*
X-85949Y551105D01*
X-86262Y550628D01*
X-86762Y550285D01*
X-87357Y550164D01*
X-90443Y550164D01*
X-91004Y550271D01*
X-91512Y550602D01*
X-91851Y551105D01*
X-92341Y552287D01*
X-95413Y555359D01*
X-99428Y557022D01*
X-103773Y557022D01*
X-107787Y555359D01*
X-110859Y552287D01*
X-111349Y551105D01*
X-111662Y550628D01*
X-112162Y550285D01*
X-112757Y550164D01*
X-115843Y550164D01*
X-116404Y550271D01*
X-116912Y550602D01*
X-117251Y551105D01*
X-117741Y552287D01*
X-120813Y555359D01*
X-124828Y557022D01*
X-129173Y557022D01*
X-133187Y555359D01*
X-136259Y552287D01*
X-137922Y548273D01*
X-137922Y543928D01*
X-136259Y539913D01*
X-133187Y536841D01*
X-129173Y535178D01*
G37*
G36*
X-129173Y509778D02*
X-124828Y509778D01*
X-120813Y511441D01*
X-117741Y514513D01*
X-117251Y515695D01*
X-116938Y516172D01*
X-116438Y516515D01*
X-115843Y516636D01*
X-112757Y516636D01*
X-112196Y516529D01*
X-111688Y516198D01*
X-111349Y515695D01*
X-110859Y514513D01*
X-107787Y511441D01*
X-103773Y509778D01*
X-99428Y509778D01*
X-95413Y511441D01*
X-92341Y514513D01*
X-91851Y515695D01*
X-91538Y516172D01*
X-91038Y516515D01*
X-90443Y516636D01*
X-87357Y516636D01*
X-86796Y516529D01*
X-86288Y516198D01*
X-85949Y515695D01*
X-85459Y514513D01*
X-82387Y511441D01*
X-78373Y509778D01*
X-74028Y509778D01*
X-70013Y511441D01*
X-66941Y514513D01*
X-65278Y518528D01*
X-65278Y522873D01*
X-66941Y526887D01*
X-70013Y529959D01*
X-74028Y531622D01*
X-78373Y531622D01*
X-82387Y529959D01*
X-85459Y526887D01*
X-85949Y525705D01*
X-86262Y525228D01*
X-86762Y524885D01*
X-87357Y524764D01*
X-90443Y524764D01*
X-91004Y524871D01*
X-91512Y525202D01*
X-91851Y525705D01*
X-92341Y526887D01*
X-95413Y529959D01*
X-99428Y531622D01*
X-103773Y531622D01*
X-107787Y529959D01*
X-110859Y526887D01*
X-111349Y525705D01*
X-111662Y525228D01*
X-112162Y524885D01*
X-112757Y524764D01*
X-115843Y524764D01*
X-116404Y524871D01*
X-116912Y525202D01*
X-117251Y525705D01*
X-117741Y526887D01*
X-120813Y529959D01*
X-124828Y531622D01*
X-129173Y531622D01*
X-133187Y529959D01*
X-136259Y526887D01*
X-137922Y522873D01*
X-137922Y518528D01*
X-136259Y514513D01*
X-133187Y511441D01*
X-129173Y509778D01*
G37*
G36*
X-129173Y484378D02*
X-124828Y484378D01*
X-120813Y486041D01*
X-117741Y489113D01*
X-117251Y490295D01*
X-116938Y490772D01*
X-116438Y491115D01*
X-115843Y491236D01*
X-112757Y491236D01*
X-112196Y491129D01*
X-111688Y490798D01*
X-111349Y490295D01*
X-110859Y489113D01*
X-107787Y486041D01*
X-103773Y484378D01*
X-99428Y484378D01*
X-95413Y486041D01*
X-92341Y489113D01*
X-91851Y490295D01*
X-91538Y490772D01*
X-91038Y491115D01*
X-90443Y491236D01*
X-87357Y491236D01*
X-86796Y491129D01*
X-86288Y490798D01*
X-85949Y490295D01*
X-85459Y489113D01*
X-82387Y486041D01*
X-78373Y484378D01*
X-74028Y484378D01*
X-70013Y486041D01*
X-66941Y489113D01*
X-65278Y493128D01*
X-65278Y497473D01*
X-66941Y501487D01*
X-70013Y504559D01*
X-74028Y506222D01*
X-78373Y506222D01*
X-82387Y504559D01*
X-85459Y501487D01*
X-85949Y500305D01*
X-86262Y499828D01*
X-86762Y499485D01*
X-87357Y499364D01*
X-90443Y499364D01*
X-91004Y499471D01*
X-91512Y499802D01*
X-91851Y500305D01*
X-92341Y501487D01*
X-95413Y504559D01*
X-99428Y506222D01*
X-103773Y506222D01*
X-107787Y504559D01*
X-110859Y501487D01*
X-111349Y500305D01*
X-111662Y499828D01*
X-112162Y499485D01*
X-112757Y499364D01*
X-115843Y499364D01*
X-116404Y499471D01*
X-116912Y499802D01*
X-117251Y500305D01*
X-117741Y501487D01*
X-120813Y504559D01*
X-124828Y506222D01*
X-129173Y506222D01*
X-133187Y504559D01*
X-136259Y501487D01*
X-137922Y497473D01*
X-137922Y493128D01*
X-136259Y489113D01*
X-133187Y486041D01*
X-129173Y484378D01*
G37*
G36*
X-129173Y458978D02*
X-124828Y458978D01*
X-120813Y460641D01*
X-117741Y463713D01*
X-117251Y464895D01*
X-116938Y465372D01*
X-116438Y465715D01*
X-115843Y465836D01*
X-112757Y465836D01*
X-112196Y465729D01*
X-111688Y465398D01*
X-111349Y464895D01*
X-110859Y463713D01*
X-107787Y460641D01*
X-103773Y458978D01*
X-99428Y458978D01*
X-95413Y460641D01*
X-92341Y463713D01*
X-91851Y464895D01*
X-91538Y465372D01*
X-91038Y465715D01*
X-90443Y465836D01*
X-87357Y465836D01*
X-86796Y465729D01*
X-86288Y465398D01*
X-85949Y464895D01*
X-85459Y463713D01*
X-82387Y460641D01*
X-78373Y458978D01*
X-74028Y458978D01*
X-70013Y460641D01*
X-66941Y463713D01*
X-66889Y463839D01*
X-66592Y464298D01*
X-66098Y464649D01*
X-65505Y464779D01*
X-64909Y464668D01*
X-64403Y464333D01*
X-63577Y463507D01*
X-54327Y463507D01*
X-53435Y464399D01*
X-53435Y475401D01*
X-54327Y476294D01*
X-63577Y476294D01*
X-64403Y475467D01*
X-64853Y475156D01*
X-65444Y475021D01*
X-66042Y475128D01*
X-66550Y475458D01*
X-66889Y475961D01*
X-66941Y476087D01*
X-70013Y479159D01*
X-74028Y480822D01*
X-78373Y480822D01*
X-82387Y479159D01*
X-85459Y476087D01*
X-85949Y474905D01*
X-86262Y474428D01*
X-86762Y474085D01*
X-87357Y473964D01*
X-90443Y473964D01*
X-91004Y474071D01*
X-91512Y474402D01*
X-91851Y474905D01*
X-92341Y476087D01*
X-95413Y479159D01*
X-99428Y480822D01*
X-103773Y480822D01*
X-107787Y479159D01*
X-110859Y476087D01*
X-111349Y474905D01*
X-111662Y474428D01*
X-112162Y474085D01*
X-112757Y473964D01*
X-115843Y473964D01*
X-116404Y474071D01*
X-116912Y474402D01*
X-117251Y474905D01*
X-117741Y476087D01*
X-120813Y479159D01*
X-124828Y480822D01*
X-129173Y480822D01*
X-133187Y479159D01*
X-136259Y476087D01*
X-137922Y472073D01*
X-137922Y467728D01*
X-136259Y463713D01*
X-133187Y460641D01*
X-129173Y458978D01*
G37*
G36*
X-166903Y460836D02*
X-163297Y460836D01*
X-159966Y462216D01*
X-157416Y464766D01*
X-156036Y468097D01*
X-156036Y471703D01*
X-157416Y475034D01*
X-159966Y477584D01*
X-163297Y478964D01*
X-166903Y478964D01*
X-170234Y477584D01*
X-172784Y475034D01*
X-174164Y471703D01*
X-174164Y468097D01*
X-172784Y464766D01*
X-170234Y462216D01*
X-166903Y460836D01*
G37*
G36*
X-129173Y433578D02*
X-124828Y433578D01*
X-120813Y435241D01*
X-117741Y438313D01*
X-117251Y439495D01*
X-116938Y439972D01*
X-116438Y440315D01*
X-115843Y440436D01*
X-112757Y440436D01*
X-112196Y440329D01*
X-111688Y439998D01*
X-111349Y439495D01*
X-110859Y438313D01*
X-107787Y435241D01*
X-103773Y433578D01*
X-99428Y433578D01*
X-95413Y435241D01*
X-92341Y438313D01*
X-91851Y439495D01*
X-91538Y439972D01*
X-91038Y440315D01*
X-90443Y440436D01*
X-87357Y440436D01*
X-86796Y440329D01*
X-86288Y439998D01*
X-85949Y439495D01*
X-85459Y438313D01*
X-82387Y435241D01*
X-78373Y433578D01*
X-74028Y433578D01*
X-70013Y435241D01*
X-66941Y438313D01*
X-66889Y438439D01*
X-66592Y438898D01*
X-66098Y439249D01*
X-65505Y439379D01*
X-64909Y439268D01*
X-64403Y438933D01*
X-63577Y438107D01*
X-54327Y438107D01*
X-53435Y438999D01*
X-53435Y450001D01*
X-54327Y450894D01*
X-63577Y450894D01*
X-64403Y450067D01*
X-64853Y449756D01*
X-65444Y449621D01*
X-66042Y449728D01*
X-66550Y450058D01*
X-66889Y450561D01*
X-66941Y450687D01*
X-70013Y453759D01*
X-74028Y455422D01*
X-78373Y455422D01*
X-82387Y453759D01*
X-85459Y450687D01*
X-85949Y449505D01*
X-86262Y449028D01*
X-86762Y448685D01*
X-87357Y448564D01*
X-90443Y448564D01*
X-91004Y448671D01*
X-91512Y449002D01*
X-91851Y449505D01*
X-92341Y450687D01*
X-95413Y453759D01*
X-99428Y455422D01*
X-103773Y455422D01*
X-107787Y453759D01*
X-110859Y450687D01*
X-111349Y449505D01*
X-111662Y449028D01*
X-112162Y448685D01*
X-112757Y448564D01*
X-115843Y448564D01*
X-116404Y448671D01*
X-116912Y449002D01*
X-117251Y449505D01*
X-117741Y450687D01*
X-120813Y453759D01*
X-124828Y455422D01*
X-129173Y455422D01*
X-133187Y453759D01*
X-136259Y450687D01*
X-137922Y446673D01*
X-137922Y442328D01*
X-136259Y438313D01*
X-133187Y435241D01*
X-129173Y433578D01*
G37*
G36*
X-166903Y435436D02*
X-163297Y435436D01*
X-159966Y436816D01*
X-157416Y439366D01*
X-156036Y442697D01*
X-156036Y446303D01*
X-157416Y449634D01*
X-159966Y452184D01*
X-163297Y453564D01*
X-166903Y453564D01*
X-170234Y452184D01*
X-172784Y449634D01*
X-174164Y446303D01*
X-174164Y442697D01*
X-172784Y439366D01*
X-170234Y436816D01*
X-166903Y435436D01*
G37*
%LPD*%
G36*
X211691Y557749D02*
X211098Y557619D01*
X210502Y557730D01*
X209996Y558065D01*
X199837Y568225D01*
X199516Y568697D01*
X199391Y569290D01*
X199507Y569885D01*
X200733Y572846D01*
X200733Y577191D01*
X199070Y581205D01*
X195998Y584277D01*
X192418Y585760D01*
X191967Y586048D01*
X191612Y586540D01*
X191477Y587132D01*
X191584Y587729D01*
X191915Y588237D01*
X192418Y588576D01*
X196573Y590297D01*
X199931Y593656D01*
X201749Y598043D01*
X201749Y599656D01*
X177873Y599656D01*
X177873Y598043D01*
X179690Y593656D01*
X183049Y590297D01*
X187204Y588576D01*
X187655Y588288D01*
X188010Y587796D01*
X188145Y587205D01*
X188038Y586607D01*
X187707Y586099D01*
X187204Y585760D01*
X184315Y584563D01*
X183756Y584447D01*
X183160Y584559D01*
X182654Y584894D01*
X172810Y594738D01*
X172484Y595221D01*
X172363Y595816D01*
X172363Y613114D01*
X141140Y644336D01*
X140834Y644775D01*
X140695Y645365D01*
X140797Y645963D01*
X141123Y646474D01*
X141624Y646817D01*
X142218Y646938D01*
X181350Y646938D01*
X181922Y646827D01*
X182428Y646492D01*
X189578Y639342D01*
X189884Y638903D01*
X190024Y638313D01*
X189922Y637715D01*
X189595Y637204D01*
X189095Y636861D01*
X188500Y636740D01*
X187638Y636740D01*
X183624Y635077D01*
X180552Y632005D01*
X178889Y627991D01*
X178889Y623646D01*
X180552Y619631D01*
X183624Y616559D01*
X187204Y615076D01*
X187655Y614788D01*
X188010Y614296D01*
X188145Y613704D01*
X188038Y613107D01*
X187707Y612599D01*
X187204Y612260D01*
X183049Y610539D01*
X179690Y607180D01*
X177873Y602793D01*
X177873Y601180D01*
X201749Y601180D01*
X201749Y602793D01*
X199931Y607180D01*
X196573Y610539D01*
X192418Y612260D01*
X191967Y612548D01*
X191612Y613040D01*
X191477Y613631D01*
X191584Y614229D01*
X191915Y614737D01*
X192418Y615076D01*
X195998Y616559D01*
X199070Y619631D01*
X199242Y620045D01*
X199538Y620505D01*
X200033Y620856D01*
X200625Y620986D01*
X201222Y620875D01*
X201727Y620540D01*
X212152Y610115D01*
X212477Y609632D01*
X212598Y609038D01*
X212598Y559143D01*
X212504Y558616D01*
X212185Y558100D01*
X211691Y557749D01*
G37*
G36*
X-6105Y460267D02*
X-6695Y460127D01*
X-7293Y460229D01*
X-7804Y460556D01*
X-8147Y461056D01*
X-8268Y461650D01*
X-8268Y461650D01*
X-8156Y462222D01*
X-7821Y462728D01*
X-6966Y463583D01*
X-6527Y463889D01*
X-5937Y464029D01*
X-5339Y463927D01*
X-4828Y463600D01*
X-4485Y463100D01*
X-4365Y462505D01*
X-4365Y462505D01*
X-4476Y461933D01*
X-4811Y461428D01*
X-5666Y460573D01*
X-6105Y460267D01*
G37*
G36*
X1515Y457110D02*
X925Y456971D01*
X327Y457073D01*
X-184Y457399D01*
X-527Y457900D01*
X-648Y458494D01*
X-648Y458494D01*
X-536Y459066D01*
X-201Y459572D01*
X654Y460427D01*
X1093Y460733D01*
X1683Y460872D01*
X2281Y460771D01*
X2792Y460444D01*
X3135Y459944D01*
X3256Y459349D01*
X3256Y459349D01*
X3144Y458777D01*
X2809Y458271D01*
X1954Y457416D01*
X1515Y457110D01*
G37*
G36*
X24101Y92069D02*
X23506Y91948D01*
X-64622Y91948D01*
X-65183Y92055D01*
X-65691Y92386D01*
X-66030Y92889D01*
X-66941Y95087D01*
X-70013Y98159D01*
X-74028Y99822D01*
X-78373Y99822D01*
X-82387Y98159D01*
X-85459Y95087D01*
X-85949Y93905D01*
X-86262Y93428D01*
X-86762Y93085D01*
X-87357Y92964D01*
X-91240Y92964D01*
X-91801Y93071D01*
X-92309Y93402D01*
X-92648Y93905D01*
X-93138Y95087D01*
X-96210Y98159D01*
X-100224Y99822D01*
X-104569Y99822D01*
X-108584Y98159D01*
X-111656Y95087D01*
X-112146Y93905D01*
X-112459Y93428D01*
X-112959Y93085D01*
X-113554Y92964D01*
X-116640Y92964D01*
X-117201Y93071D01*
X-117709Y93402D01*
X-118048Y93905D01*
X-118538Y95087D01*
X-121610Y98159D01*
X-125624Y99822D01*
X-129969Y99822D01*
X-133984Y98159D01*
X-137056Y95087D01*
X-137546Y93905D01*
X-137859Y93428D01*
X-138359Y93085D01*
X-138954Y92964D01*
X-142040Y92964D01*
X-142601Y93071D01*
X-143109Y93402D01*
X-143448Y93905D01*
X-143938Y95087D01*
X-147010Y98159D01*
X-151024Y99822D01*
X-155369Y99822D01*
X-159384Y98159D01*
X-159739Y97804D01*
X-160200Y97488D01*
X-160793Y97358D01*
X-161389Y97469D01*
X-161895Y97804D01*
X-199706Y135615D01*
X-200031Y136098D01*
X-200152Y136692D01*
X-200152Y183149D01*
X-200058Y183676D01*
X-199739Y184192D01*
X-199245Y184543D01*
X-198652Y184673D01*
X-198056Y184561D01*
X-197550Y184227D01*
X-196443Y183120D01*
X-193112Y181740D01*
X-189506Y181740D01*
X-186175Y183120D01*
X-183625Y185669D01*
X-182245Y189001D01*
X-182245Y192606D01*
X-183625Y195938D01*
X-186175Y198488D01*
X-189715Y199954D01*
X-189756Y199961D01*
X-190272Y200280D01*
X-190623Y200775D01*
X-190753Y201367D01*
X-190642Y201964D01*
X-190307Y202469D01*
X-187452Y205324D01*
X-187452Y357093D01*
X-187341Y357665D01*
X-187006Y358170D01*
X-177575Y367601D01*
X-177136Y367907D01*
X-176546Y368047D01*
X-175948Y367945D01*
X-175437Y367618D01*
X-175094Y367118D01*
X-175083Y367067D01*
X-173593Y363469D01*
X-171043Y360920D01*
X-167712Y359540D01*
X-164106Y359540D01*
X-160775Y360920D01*
X-158225Y363469D01*
X-157750Y364615D01*
X-157437Y365092D01*
X-156937Y365435D01*
X-156342Y365556D01*
X-154597Y365556D01*
X-154025Y365444D01*
X-153520Y365109D01*
X-137342Y348931D01*
X-137021Y348459D01*
X-136896Y347866D01*
X-137012Y347271D01*
X-137922Y345072D01*
X-137922Y340728D01*
X-136259Y336713D01*
X-133187Y333641D01*
X-129173Y331978D01*
X-124828Y331978D01*
X-120813Y333641D01*
X-117741Y336713D01*
X-117251Y337895D01*
X-116938Y338372D01*
X-116438Y338715D01*
X-115843Y338836D01*
X-112757Y338836D01*
X-112196Y338729D01*
X-111688Y338398D01*
X-111349Y337895D01*
X-110859Y336713D01*
X-107787Y333641D01*
X-103773Y331978D01*
X-99428Y331978D01*
X-95413Y333641D01*
X-92341Y336713D01*
X-91851Y337895D01*
X-91538Y338372D01*
X-91038Y338715D01*
X-90443Y338836D01*
X-87357Y338836D01*
X-86796Y338729D01*
X-86288Y338398D01*
X-85949Y337895D01*
X-85459Y336713D01*
X-82387Y333641D01*
X-78373Y331978D01*
X-74028Y331978D01*
X-70013Y333641D01*
X-66941Y336713D01*
X-65278Y340728D01*
X-65278Y345073D01*
X-66941Y349087D01*
X-70013Y352159D01*
X-74028Y353822D01*
X-78373Y353822D01*
X-82387Y352159D01*
X-85459Y349087D01*
X-85949Y347905D01*
X-86262Y347428D01*
X-86762Y347085D01*
X-87357Y346964D01*
X-90443Y346964D01*
X-91004Y347071D01*
X-91512Y347402D01*
X-91851Y347905D01*
X-92341Y349087D01*
X-95413Y352159D01*
X-99428Y353822D01*
X-103773Y353822D01*
X-107787Y352159D01*
X-110859Y349087D01*
X-111349Y347905D01*
X-111662Y347428D01*
X-112162Y347085D01*
X-112757Y346964D01*
X-115843Y346964D01*
X-116404Y347071D01*
X-116912Y347402D01*
X-117251Y347905D01*
X-117741Y349087D01*
X-120813Y352159D01*
X-124828Y353822D01*
X-129172Y353822D01*
X-131371Y352912D01*
X-131929Y352796D01*
X-132526Y352907D01*
X-133031Y353242D01*
X-151441Y371652D01*
X-156342Y371652D01*
X-156903Y371758D01*
X-157411Y372089D01*
X-157750Y372592D01*
X-158225Y373738D01*
X-160775Y376288D01*
X-162010Y376799D01*
X-162470Y377096D01*
X-162821Y377591D01*
X-162951Y378183D01*
X-162839Y378779D01*
X-162504Y379285D01*
X-139564Y402226D01*
X-139136Y402527D01*
X-138547Y402671D01*
X-137948Y402574D01*
X-137434Y402251D01*
X-137088Y401754D01*
X-136962Y401160D01*
X-137078Y400565D01*
X-138938Y396075D01*
X-138938Y394462D01*
X-126238Y394462D01*
X-126238Y392938D01*
X-138938Y392938D01*
X-138938Y391325D01*
X-137121Y386938D01*
X-133762Y383579D01*
X-129607Y381858D01*
X-129156Y381570D01*
X-128801Y381078D01*
X-128666Y380487D01*
X-128773Y379889D01*
X-129104Y379381D01*
X-129607Y379042D01*
X-133187Y377559D01*
X-136259Y374487D01*
X-137922Y370473D01*
X-137922Y366128D01*
X-136259Y362113D01*
X-133187Y359041D01*
X-129173Y357378D01*
X-124828Y357378D01*
X-120813Y359041D01*
X-117741Y362113D01*
X-117251Y363295D01*
X-116938Y363772D01*
X-116438Y364115D01*
X-115843Y364236D01*
X-112757Y364236D01*
X-112196Y364129D01*
X-111688Y363798D01*
X-111349Y363295D01*
X-110859Y362113D01*
X-107787Y359041D01*
X-103773Y357378D01*
X-99428Y357378D01*
X-95413Y359041D01*
X-92341Y362113D01*
X-91851Y363295D01*
X-91538Y363772D01*
X-91038Y364115D01*
X-90443Y364236D01*
X-87357Y364236D01*
X-86796Y364129D01*
X-86288Y363798D01*
X-85949Y363295D01*
X-85459Y362113D01*
X-82387Y359041D01*
X-78373Y357378D01*
X-74028Y357378D01*
X-70013Y359041D01*
X-66941Y362113D01*
X-66889Y362239D01*
X-66592Y362698D01*
X-66098Y363049D01*
X-65505Y363179D01*
X-64909Y363068D01*
X-64403Y362733D01*
X-63577Y361907D01*
X-54327Y361907D01*
X-53435Y362799D01*
X-53435Y373801D01*
X-54327Y374694D01*
X-63577Y374694D01*
X-64403Y373867D01*
X-64853Y373556D01*
X-65444Y373421D01*
X-66042Y373528D01*
X-66550Y373858D01*
X-66889Y374361D01*
X-66941Y374487D01*
X-70013Y377559D01*
X-73593Y379042D01*
X-74044Y379330D01*
X-74399Y379822D01*
X-74534Y380414D01*
X-74427Y381011D01*
X-74096Y381519D01*
X-73593Y381858D01*
X-69438Y383579D01*
X-66079Y386938D01*
X-64262Y391325D01*
X-64262Y392938D01*
X-76962Y392938D01*
X-76962Y394462D01*
X-64262Y394462D01*
X-64262Y396075D01*
X-66079Y400462D01*
X-66621Y401004D01*
X-66927Y401443D01*
X-67067Y402033D01*
X-66965Y402631D01*
X-66639Y403142D01*
X-66138Y403485D01*
X-65544Y403606D01*
X-52561Y403606D01*
X-27286Y428881D01*
X-26847Y429187D01*
X-26257Y429327D01*
X-25659Y429225D01*
X-25148Y428898D01*
X-24805Y428398D01*
X-24685Y427804D01*
X-24685Y390128D01*
X-24796Y389556D01*
X-25131Y389050D01*
X-31529Y382652D01*
X-32001Y382331D01*
X-32595Y382206D01*
X-32720Y382230D01*
X-35079Y382230D01*
X-37030Y381422D01*
X-38522Y379930D01*
X-39330Y377979D01*
X-39330Y376218D01*
X-39432Y375668D01*
X-39759Y375157D01*
X-40260Y374814D01*
X-40854Y374694D01*
X-47273Y374694D01*
X-48166Y373801D01*
X-48166Y362799D01*
X-47273Y361907D01*
X-38023Y361907D01*
X-37131Y362799D01*
X-37131Y369953D01*
X-37019Y370525D01*
X-36684Y371031D01*
X-36519Y371196D01*
X-36047Y371517D01*
X-35453Y371642D01*
X-35328Y371618D01*
X-32969Y371618D01*
X-31018Y372426D01*
X-29526Y373918D01*
X-28718Y375869D01*
X-28718Y378200D01*
X-28742Y378317D01*
X-28631Y378913D01*
X-28296Y379419D01*
X-20113Y387603D01*
X-20113Y425260D01*
X-20001Y425832D01*
X-19666Y426338D01*
X-7821Y438183D01*
X-7382Y438489D01*
X-6792Y438629D01*
X-6194Y438527D01*
X-5683Y438200D01*
X-5340Y437700D01*
X-5220Y437105D01*
X-5220Y437105D01*
X-5331Y436533D01*
X-5666Y436028D01*
X-8354Y433340D01*
X-8354Y392471D01*
X28562Y355555D01*
X28883Y355083D01*
X29008Y354489D01*
X28984Y354364D01*
X28984Y352005D01*
X29792Y350054D01*
X31284Y348562D01*
X33235Y347754D01*
X35607Y347754D01*
X36156Y347652D01*
X36667Y347325D01*
X37010Y346824D01*
X37131Y346230D01*
X37131Y337399D01*
X38078Y336452D01*
X38298Y336413D01*
X38814Y336094D01*
X39165Y335599D01*
X39295Y335007D01*
X39184Y334411D01*
X38849Y333905D01*
X38150Y333206D01*
X37342Y331255D01*
X37342Y329145D01*
X38150Y327194D01*
X38849Y326495D01*
X39155Y326056D01*
X39295Y325466D01*
X39193Y324868D01*
X38866Y324357D01*
X38366Y324014D01*
X37771Y323894D01*
X27657Y323894D01*
X26765Y323001D01*
X26765Y314703D01*
X26671Y314177D01*
X26352Y313661D01*
X25857Y313310D01*
X25265Y313179D01*
X24669Y313291D01*
X24163Y313626D01*
X21942Y315847D01*
X21616Y316330D01*
X21496Y316924D01*
X21496Y323001D01*
X20603Y323894D01*
X11353Y323894D01*
X10461Y323001D01*
X10461Y311999D01*
X11353Y311107D01*
X17430Y311107D01*
X18002Y310995D01*
X18507Y310660D01*
X48944Y280224D01*
X49260Y279763D01*
X49390Y279170D01*
X49279Y278574D01*
X48944Y278068D01*
X39600Y268725D01*
X39600Y223818D01*
X39498Y223268D01*
X39171Y222757D01*
X38670Y222414D01*
X38076Y222294D01*
X38023Y222294D01*
X37131Y221401D01*
X37131Y210399D01*
X38023Y209507D01*
X38076Y209507D01*
X38625Y209404D01*
X39136Y209077D01*
X39479Y208577D01*
X39600Y207983D01*
X39600Y198418D01*
X39498Y197868D01*
X39171Y197357D01*
X38670Y197014D01*
X38076Y196894D01*
X38023Y196894D01*
X37131Y196001D01*
X37131Y184999D01*
X38023Y184107D01*
X38076Y184107D01*
X38625Y184004D01*
X39136Y183677D01*
X39479Y183177D01*
X39600Y182583D01*
X39600Y173018D01*
X39498Y172468D01*
X39171Y171957D01*
X38670Y171614D01*
X38076Y171494D01*
X38023Y171494D01*
X37131Y170601D01*
X37131Y159599D01*
X38023Y158707D01*
X38076Y158707D01*
X38625Y158604D01*
X39136Y158277D01*
X39479Y157777D01*
X39600Y157183D01*
X39600Y147618D01*
X39498Y147068D01*
X39171Y146557D01*
X38670Y146214D01*
X38076Y146094D01*
X38023Y146094D01*
X37131Y145201D01*
X37131Y134199D01*
X38023Y133307D01*
X38076Y133307D01*
X38625Y133204D01*
X39136Y132877D01*
X39479Y132377D01*
X39600Y131783D01*
X39600Y122218D01*
X39498Y121668D01*
X39171Y121157D01*
X38670Y120814D01*
X38076Y120694D01*
X38023Y120694D01*
X37131Y119801D01*
X37131Y108799D01*
X37982Y107948D01*
X38298Y107487D01*
X38428Y106894D01*
X38317Y106298D01*
X37982Y105793D01*
X24584Y92394D01*
X24101Y92069D01*
G37*
%LPC*%
G36*
X-129173Y306578D02*
X-124828Y306578D01*
X-120813Y308241D01*
X-117741Y311313D01*
X-117251Y312495D01*
X-116938Y312972D01*
X-116438Y313315D01*
X-115843Y313436D01*
X-112757Y313436D01*
X-112196Y313329D01*
X-111688Y312998D01*
X-111349Y312495D01*
X-110859Y311313D01*
X-107787Y308241D01*
X-103773Y306578D01*
X-99428Y306578D01*
X-95413Y308241D01*
X-92341Y311313D01*
X-91851Y312495D01*
X-91538Y312972D01*
X-91038Y313315D01*
X-90443Y313436D01*
X-87357Y313436D01*
X-86796Y313329D01*
X-86288Y312998D01*
X-85949Y312495D01*
X-85459Y311313D01*
X-82387Y308241D01*
X-78373Y306578D01*
X-74028Y306578D01*
X-70013Y308241D01*
X-66941Y311313D01*
X-65278Y315328D01*
X-65278Y319673D01*
X-66941Y323687D01*
X-70013Y326759D01*
X-74028Y328422D01*
X-78373Y328422D01*
X-82387Y326759D01*
X-85459Y323687D01*
X-85949Y322505D01*
X-86262Y322028D01*
X-86762Y321685D01*
X-87357Y321564D01*
X-90443Y321564D01*
X-91004Y321671D01*
X-91512Y322002D01*
X-91851Y322505D01*
X-92341Y323687D01*
X-95413Y326759D01*
X-99428Y328422D01*
X-103773Y328422D01*
X-107787Y326759D01*
X-110859Y323687D01*
X-111349Y322505D01*
X-111662Y322028D01*
X-112162Y321685D01*
X-112757Y321564D01*
X-115843Y321564D01*
X-116404Y321671D01*
X-116912Y322002D01*
X-117251Y322505D01*
X-117741Y323687D01*
X-120813Y326759D01*
X-124828Y328422D01*
X-129173Y328422D01*
X-133187Y326759D01*
X-136259Y323687D01*
X-137092Y321677D01*
X-137388Y321217D01*
X-137883Y320866D01*
X-138475Y320736D01*
X-139072Y320848D01*
X-139577Y321182D01*
X-156989Y338594D01*
X-157310Y339066D01*
X-157435Y339660D01*
X-157320Y340255D01*
X-156845Y341401D01*
X-156845Y345006D01*
X-158225Y348338D01*
X-160775Y350888D01*
X-164106Y352268D01*
X-167712Y352268D01*
X-171043Y350888D01*
X-173593Y348338D01*
X-174973Y345006D01*
X-174973Y341401D01*
X-173593Y338069D01*
X-171043Y335520D01*
X-167712Y334140D01*
X-164106Y334140D01*
X-162960Y334614D01*
X-162402Y334730D01*
X-161805Y334619D01*
X-161300Y334284D01*
X-141468Y314452D01*
X-138578Y314452D01*
X-138017Y314345D01*
X-137509Y314014D01*
X-137170Y313511D01*
X-136259Y311313D01*
X-133187Y308241D01*
X-129173Y306578D01*
G37*
G36*
X-167712Y308740D02*
X-164106Y308740D01*
X-160775Y310120D01*
X-158225Y312669D01*
X-156845Y316001D01*
X-156845Y319606D01*
X-158225Y322938D01*
X-160775Y325488D01*
X-164106Y326868D01*
X-167712Y326868D01*
X-171043Y325488D01*
X-173593Y322938D01*
X-174973Y319606D01*
X-174973Y316001D01*
X-173593Y312669D01*
X-171043Y310120D01*
X-167712Y308740D01*
G37*
G36*
X-167712Y257940D02*
X-164106Y257940D01*
X-160775Y259320D01*
X-158225Y261869D01*
X-156845Y265201D01*
X-156845Y268807D01*
X-157320Y269952D01*
X-157435Y270511D01*
X-157324Y271107D01*
X-156989Y271613D01*
X-139996Y288606D01*
X-139513Y288931D01*
X-138919Y289052D01*
X-138578Y289052D01*
X-138017Y288945D01*
X-137509Y288614D01*
X-137170Y288111D01*
X-136259Y285913D01*
X-133187Y282841D01*
X-129173Y281178D01*
X-124828Y281178D01*
X-120813Y282841D01*
X-117741Y285913D01*
X-117251Y287095D01*
X-116938Y287572D01*
X-116438Y287915D01*
X-115843Y288036D01*
X-112757Y288036D01*
X-112196Y287929D01*
X-111688Y287598D01*
X-111349Y287095D01*
X-110859Y285913D01*
X-107787Y282841D01*
X-103773Y281178D01*
X-99428Y281178D01*
X-95413Y282841D01*
X-92341Y285913D01*
X-91851Y287095D01*
X-91538Y287572D01*
X-91038Y287915D01*
X-90443Y288036D01*
X-87357Y288036D01*
X-86796Y287929D01*
X-86288Y287598D01*
X-85949Y287095D01*
X-85459Y285913D01*
X-82387Y282841D01*
X-78373Y281178D01*
X-74028Y281178D01*
X-70013Y282841D01*
X-66941Y285913D01*
X-66476Y287036D01*
X-66195Y287478D01*
X-65706Y287837D01*
X-65116Y287976D01*
X-64518Y287875D01*
X-64007Y287548D01*
X-63664Y287048D01*
X-63544Y286453D01*
X-63544Y281657D01*
X-62651Y280765D01*
X-51649Y280765D01*
X-50757Y281657D01*
X-50757Y290907D01*
X-51649Y291800D01*
X-57726Y291800D01*
X-58298Y291911D01*
X-58803Y292246D01*
X-61705Y295148D01*
X-64622Y295148D01*
X-65183Y295255D01*
X-65691Y295586D01*
X-66030Y296089D01*
X-66941Y298287D01*
X-70013Y301359D01*
X-74028Y303022D01*
X-78373Y303022D01*
X-82387Y301359D01*
X-85459Y298287D01*
X-85949Y297105D01*
X-86262Y296628D01*
X-86762Y296285D01*
X-87357Y296164D01*
X-90443Y296164D01*
X-91004Y296271D01*
X-91512Y296602D01*
X-91851Y297105D01*
X-92341Y298287D01*
X-95413Y301359D01*
X-99428Y303022D01*
X-103773Y303022D01*
X-107787Y301359D01*
X-110859Y298287D01*
X-111349Y297105D01*
X-111662Y296628D01*
X-112162Y296285D01*
X-112757Y296164D01*
X-115843Y296164D01*
X-116404Y296271D01*
X-116912Y296602D01*
X-117251Y297105D01*
X-117741Y298287D01*
X-120813Y301359D01*
X-124828Y303022D01*
X-129173Y303022D01*
X-133187Y301359D01*
X-136259Y298287D01*
X-137170Y296089D01*
X-137483Y295612D01*
X-137983Y295269D01*
X-138578Y295148D01*
X-142075Y295148D01*
X-161300Y275923D01*
X-161772Y275603D01*
X-162365Y275477D01*
X-162960Y275593D01*
X-164106Y276068D01*
X-167712Y276068D01*
X-171043Y274688D01*
X-173593Y272138D01*
X-174973Y268806D01*
X-174973Y265201D01*
X-173593Y261869D01*
X-171043Y259320D01*
X-167712Y257940D01*
G37*
G36*
X-167712Y283340D02*
X-164106Y283340D01*
X-160775Y284720D01*
X-158225Y287269D01*
X-156845Y290601D01*
X-156845Y294206D01*
X-158225Y297538D01*
X-160775Y300088D01*
X-164106Y301468D01*
X-167712Y301468D01*
X-171043Y300088D01*
X-173593Y297538D01*
X-174973Y294206D01*
X-174973Y290601D01*
X-173593Y287269D01*
X-171043Y284720D01*
X-167712Y283340D01*
G37*
G36*
X-129173Y255778D02*
X-124828Y255778D01*
X-120813Y257441D01*
X-117741Y260513D01*
X-117251Y261695D01*
X-116938Y262172D01*
X-116438Y262515D01*
X-115843Y262636D01*
X-112757Y262636D01*
X-112196Y262529D01*
X-111688Y262198D01*
X-111349Y261695D01*
X-110859Y260513D01*
X-107787Y257441D01*
X-103773Y255778D01*
X-99428Y255778D01*
X-95413Y257441D01*
X-92341Y260513D01*
X-91851Y261695D01*
X-91538Y262172D01*
X-91038Y262515D01*
X-90443Y262636D01*
X-87357Y262636D01*
X-86796Y262529D01*
X-86288Y262198D01*
X-85949Y261695D01*
X-85459Y260513D01*
X-82387Y257441D01*
X-78373Y255778D01*
X-74028Y255778D01*
X-70013Y257441D01*
X-66941Y260513D01*
X-66030Y262711D01*
X-65717Y263188D01*
X-65217Y263531D01*
X-64622Y263652D01*
X-59165Y263652D01*
X-58803Y264014D01*
X-58320Y264340D01*
X-57726Y264461D01*
X-51649Y264461D01*
X-50757Y265353D01*
X-50757Y274603D01*
X-51649Y275496D01*
X-62651Y275496D01*
X-63544Y274603D01*
X-63544Y272347D01*
X-63633Y271832D01*
X-63948Y271313D01*
X-64440Y270958D01*
X-65031Y270823D01*
X-65628Y270930D01*
X-66137Y271261D01*
X-66476Y271764D01*
X-66941Y272887D01*
X-70013Y275959D01*
X-74028Y277622D01*
X-78373Y277622D01*
X-82387Y275959D01*
X-85459Y272887D01*
X-85949Y271705D01*
X-86262Y271228D01*
X-86762Y270885D01*
X-87357Y270764D01*
X-90443Y270764D01*
X-91004Y270871D01*
X-91512Y271202D01*
X-91851Y271705D01*
X-92341Y272887D01*
X-95413Y275959D01*
X-99428Y277622D01*
X-103773Y277622D01*
X-107787Y275959D01*
X-110859Y272887D01*
X-111349Y271705D01*
X-111662Y271228D01*
X-112162Y270885D01*
X-112757Y270764D01*
X-115843Y270764D01*
X-116404Y270871D01*
X-116912Y271202D01*
X-117251Y271705D01*
X-117741Y272887D01*
X-120813Y275959D01*
X-124828Y277622D01*
X-129173Y277622D01*
X-133187Y275959D01*
X-136259Y272887D01*
X-137922Y268873D01*
X-137922Y264528D01*
X-136259Y260513D01*
X-133187Y257441D01*
X-129173Y255778D01*
G37*
G36*
X-167712Y181740D02*
X-164106Y181740D01*
X-160775Y183120D01*
X-158225Y185669D01*
X-156845Y189001D01*
X-156845Y192607D01*
X-157320Y193752D01*
X-157435Y194311D01*
X-157324Y194907D01*
X-156989Y195413D01*
X-149352Y203050D01*
X-149352Y226706D01*
X-149241Y227278D01*
X-148906Y227784D01*
X-139429Y237260D01*
X-138980Y237571D01*
X-138388Y237706D01*
X-137791Y237600D01*
X-137283Y237269D01*
X-136944Y236766D01*
X-136259Y235113D01*
X-133187Y232041D01*
X-129173Y230378D01*
X-124828Y230378D01*
X-120813Y232041D01*
X-117741Y235113D01*
X-117251Y236295D01*
X-116938Y236772D01*
X-116438Y237115D01*
X-115843Y237236D01*
X-112757Y237236D01*
X-112196Y237129D01*
X-111688Y236798D01*
X-111349Y236295D01*
X-110859Y235113D01*
X-107787Y232041D01*
X-103773Y230378D01*
X-99428Y230378D01*
X-95413Y232041D01*
X-92341Y235113D01*
X-91851Y236295D01*
X-91538Y236772D01*
X-91038Y237115D01*
X-90443Y237236D01*
X-87357Y237236D01*
X-86796Y237129D01*
X-86288Y236798D01*
X-85949Y236295D01*
X-85459Y235113D01*
X-82387Y232041D01*
X-78373Y230378D01*
X-74028Y230378D01*
X-70013Y232041D01*
X-66941Y235113D01*
X-65278Y239128D01*
X-65278Y243473D01*
X-66941Y247487D01*
X-70013Y250559D01*
X-74028Y252222D01*
X-78373Y252222D01*
X-82387Y250559D01*
X-85459Y247487D01*
X-85949Y246305D01*
X-86262Y245828D01*
X-86762Y245485D01*
X-87357Y245364D01*
X-90443Y245364D01*
X-91004Y245471D01*
X-91512Y245802D01*
X-91851Y246305D01*
X-92341Y247487D01*
X-95413Y250559D01*
X-99428Y252222D01*
X-103773Y252222D01*
X-107787Y250559D01*
X-110859Y247487D01*
X-111349Y246305D01*
X-111662Y245828D01*
X-112162Y245485D01*
X-112757Y245364D01*
X-115843Y245364D01*
X-116404Y245471D01*
X-116912Y245802D01*
X-117251Y246305D01*
X-117741Y247487D01*
X-120813Y250559D01*
X-124828Y252222D01*
X-129173Y252222D01*
X-133187Y250559D01*
X-136259Y247487D01*
X-137170Y245289D01*
X-137483Y244812D01*
X-137983Y244469D01*
X-138578Y244348D01*
X-140963Y244348D01*
X-155448Y229863D01*
X-155448Y222240D01*
X-155542Y221714D01*
X-155861Y221198D01*
X-156355Y220847D01*
X-156948Y220716D01*
X-157544Y220828D01*
X-158050Y221163D01*
X-160775Y223888D01*
X-164106Y225268D01*
X-167712Y225268D01*
X-171043Y223888D01*
X-173593Y221338D01*
X-174973Y218006D01*
X-174973Y214401D01*
X-173593Y211069D01*
X-171043Y208520D01*
X-167712Y207140D01*
X-164106Y207140D01*
X-160775Y208520D01*
X-158050Y211245D01*
X-157611Y211551D01*
X-157021Y211690D01*
X-156423Y211588D01*
X-155912Y211262D01*
X-155569Y210761D01*
X-155448Y210167D01*
X-155448Y206206D01*
X-155559Y205634D01*
X-155894Y205129D01*
X-161300Y199723D01*
X-161772Y199403D01*
X-162365Y199277D01*
X-162960Y199393D01*
X-164106Y199868D01*
X-167712Y199868D01*
X-171043Y198488D01*
X-173593Y195938D01*
X-174973Y192606D01*
X-174973Y189001D01*
X-173593Y185669D01*
X-171043Y183120D01*
X-167712Y181740D01*
G37*
G36*
X-167712Y232540D02*
X-164106Y232540D01*
X-160775Y233920D01*
X-158225Y236469D01*
X-156845Y239801D01*
X-156845Y243406D01*
X-158225Y246738D01*
X-160775Y249288D01*
X-164106Y250668D01*
X-167712Y250668D01*
X-171043Y249288D01*
X-173593Y246738D01*
X-174973Y243406D01*
X-174973Y239801D01*
X-173593Y236469D01*
X-171043Y233920D01*
X-167712Y232540D01*
G37*
G36*
X-129173Y204978D02*
X-124828Y204978D01*
X-120813Y206641D01*
X-117741Y209713D01*
X-117251Y210895D01*
X-116938Y211372D01*
X-116438Y211715D01*
X-115843Y211836D01*
X-112757Y211836D01*
X-112196Y211729D01*
X-111688Y211398D01*
X-111349Y210895D01*
X-110859Y209713D01*
X-107787Y206641D01*
X-103773Y204978D01*
X-99428Y204978D01*
X-95413Y206641D01*
X-92341Y209713D01*
X-91851Y210895D01*
X-91538Y211372D01*
X-91038Y211715D01*
X-90443Y211836D01*
X-87357Y211836D01*
X-86796Y211729D01*
X-86288Y211398D01*
X-85949Y210895D01*
X-85459Y209713D01*
X-82387Y206641D01*
X-78373Y204978D01*
X-74028Y204978D01*
X-70013Y206641D01*
X-66941Y209713D01*
X-65278Y213728D01*
X-65278Y218073D01*
X-66941Y222087D01*
X-70013Y225159D01*
X-74028Y226822D01*
X-78373Y226822D01*
X-82387Y225159D01*
X-85459Y222087D01*
X-85949Y220905D01*
X-86262Y220428D01*
X-86762Y220085D01*
X-87357Y219964D01*
X-90443Y219964D01*
X-91004Y220071D01*
X-91512Y220402D01*
X-91851Y220905D01*
X-92341Y222087D01*
X-95413Y225159D01*
X-99428Y226822D01*
X-103773Y226822D01*
X-107787Y225159D01*
X-110859Y222087D01*
X-111349Y220905D01*
X-111662Y220428D01*
X-112162Y220085D01*
X-112757Y219964D01*
X-115843Y219964D01*
X-116404Y220071D01*
X-116912Y220402D01*
X-117251Y220905D01*
X-117741Y222087D01*
X-120813Y225159D01*
X-124828Y226822D01*
X-129173Y226822D01*
X-133187Y225159D01*
X-136259Y222087D01*
X-137922Y218073D01*
X-137922Y213728D01*
X-136259Y209713D01*
X-133187Y206641D01*
X-129173Y204978D01*
G37*
G36*
X-129173Y179578D02*
X-124828Y179578D01*
X-120813Y181241D01*
X-117741Y184313D01*
X-117251Y185495D01*
X-116938Y185972D01*
X-116438Y186315D01*
X-115843Y186436D01*
X-112757Y186436D01*
X-112196Y186329D01*
X-111688Y185998D01*
X-111349Y185495D01*
X-110859Y184313D01*
X-107787Y181241D01*
X-103773Y179578D01*
X-99428Y179578D01*
X-95413Y181241D01*
X-92341Y184313D01*
X-91851Y185495D01*
X-91538Y185972D01*
X-91038Y186315D01*
X-90443Y186436D01*
X-87357Y186436D01*
X-86796Y186329D01*
X-86288Y185998D01*
X-85949Y185495D01*
X-85459Y184313D01*
X-82387Y181241D01*
X-78373Y179578D01*
X-74028Y179578D01*
X-70013Y181241D01*
X-66941Y184313D01*
X-65278Y188328D01*
X-65278Y192673D01*
X-66941Y196687D01*
X-70013Y199759D01*
X-74028Y201422D01*
X-78373Y201422D01*
X-82387Y199759D01*
X-85459Y196687D01*
X-85949Y195505D01*
X-86262Y195028D01*
X-86762Y194685D01*
X-87357Y194564D01*
X-90443Y194564D01*
X-91004Y194671D01*
X-91512Y195002D01*
X-91851Y195505D01*
X-92341Y196687D01*
X-95413Y199759D01*
X-99428Y201422D01*
X-103773Y201422D01*
X-107787Y199759D01*
X-110859Y196687D01*
X-111349Y195505D01*
X-111662Y195028D01*
X-112162Y194685D01*
X-112757Y194564D01*
X-115843Y194564D01*
X-116404Y194671D01*
X-116912Y195002D01*
X-117251Y195505D01*
X-117741Y196687D01*
X-120813Y199759D01*
X-124828Y201422D01*
X-129173Y201422D01*
X-133187Y199759D01*
X-136259Y196687D01*
X-137922Y192673D01*
X-137922Y188328D01*
X-136259Y184313D01*
X-133187Y181241D01*
X-129173Y179578D01*
G37*
G36*
X-129173Y154178D02*
X-124828Y154178D01*
X-120813Y155841D01*
X-117741Y158913D01*
X-117251Y160095D01*
X-116938Y160572D01*
X-116438Y160915D01*
X-115843Y161036D01*
X-112757Y161036D01*
X-112196Y160929D01*
X-111688Y160598D01*
X-111349Y160095D01*
X-110859Y158913D01*
X-107787Y155841D01*
X-103773Y154178D01*
X-99428Y154178D01*
X-95413Y155841D01*
X-92341Y158913D01*
X-91851Y160095D01*
X-91538Y160572D01*
X-91038Y160915D01*
X-90443Y161036D01*
X-87357Y161036D01*
X-86796Y160929D01*
X-86288Y160598D01*
X-85949Y160095D01*
X-85459Y158913D01*
X-82387Y155841D01*
X-78373Y154178D01*
X-74028Y154178D01*
X-70013Y155841D01*
X-66941Y158913D01*
X-65278Y162928D01*
X-65278Y167273D01*
X-66941Y171287D01*
X-70013Y174359D01*
X-74028Y176022D01*
X-78373Y176022D01*
X-82387Y174359D01*
X-85459Y171287D01*
X-85949Y170105D01*
X-86262Y169628D01*
X-86762Y169285D01*
X-87357Y169164D01*
X-90443Y169164D01*
X-91004Y169271D01*
X-91512Y169602D01*
X-91851Y170105D01*
X-92341Y171287D01*
X-95413Y174359D01*
X-99428Y176022D01*
X-103773Y176022D01*
X-107787Y174359D01*
X-110859Y171287D01*
X-111349Y170105D01*
X-111662Y169628D01*
X-112162Y169285D01*
X-112757Y169164D01*
X-115843Y169164D01*
X-116404Y169271D01*
X-116912Y169602D01*
X-117251Y170105D01*
X-117741Y171287D01*
X-120813Y174359D01*
X-124828Y176022D01*
X-129173Y176022D01*
X-133187Y174359D01*
X-136259Y171287D01*
X-137922Y167273D01*
X-137922Y162928D01*
X-136259Y158913D01*
X-133187Y155841D01*
X-129173Y154178D01*
G37*
G36*
X-129173Y128778D02*
X-124828Y128778D01*
X-120813Y130441D01*
X-117741Y133513D01*
X-117251Y134695D01*
X-116938Y135172D01*
X-116438Y135515D01*
X-115843Y135636D01*
X-112757Y135636D01*
X-112196Y135529D01*
X-111688Y135198D01*
X-111349Y134695D01*
X-110859Y133513D01*
X-107787Y130441D01*
X-103773Y128778D01*
X-99428Y128778D01*
X-95413Y130441D01*
X-92341Y133513D01*
X-91851Y134695D01*
X-91538Y135172D01*
X-91038Y135515D01*
X-90443Y135636D01*
X-87357Y135636D01*
X-86796Y135529D01*
X-86288Y135198D01*
X-85949Y134695D01*
X-85459Y133513D01*
X-82387Y130441D01*
X-78373Y128778D01*
X-74028Y128778D01*
X-70013Y130441D01*
X-66941Y133513D01*
X-65278Y137528D01*
X-65278Y141873D01*
X-66941Y145887D01*
X-70013Y148959D01*
X-74028Y150622D01*
X-78373Y150622D01*
X-82387Y148959D01*
X-85459Y145887D01*
X-85949Y144705D01*
X-86262Y144228D01*
X-86762Y143885D01*
X-87357Y143764D01*
X-90443Y143764D01*
X-91004Y143871D01*
X-91512Y144202D01*
X-91851Y144705D01*
X-92341Y145887D01*
X-95413Y148959D01*
X-99428Y150622D01*
X-103773Y150622D01*
X-107787Y148959D01*
X-110859Y145887D01*
X-111349Y144705D01*
X-111662Y144228D01*
X-112162Y143885D01*
X-112757Y143764D01*
X-115843Y143764D01*
X-116404Y143871D01*
X-116912Y144202D01*
X-117251Y144705D01*
X-117741Y145887D01*
X-120813Y148959D01*
X-124828Y150622D01*
X-129173Y150622D01*
X-133187Y148959D01*
X-136259Y145887D01*
X-137922Y141873D01*
X-137922Y137528D01*
X-136259Y133513D01*
X-133187Y130441D01*
X-129173Y128778D01*
G37*
G36*
X-129173Y103378D02*
X-124828Y103378D01*
X-120813Y105041D01*
X-117741Y108113D01*
X-117041Y109803D01*
X-116727Y110280D01*
X-116227Y110623D01*
X-115633Y110744D01*
X-112967Y110744D01*
X-112407Y110637D01*
X-111898Y110306D01*
X-111559Y109803D01*
X-110859Y108113D01*
X-107787Y105041D01*
X-103773Y103378D01*
X-99428Y103378D01*
X-95413Y105041D01*
X-92341Y108113D01*
X-91641Y109803D01*
X-91327Y110280D01*
X-90827Y110623D01*
X-90233Y110744D01*
X-87567Y110744D01*
X-87007Y110637D01*
X-86498Y110306D01*
X-86159Y109803D01*
X-85459Y108113D01*
X-82387Y105041D01*
X-78373Y103378D01*
X-74028Y103378D01*
X-70013Y105041D01*
X-66941Y108113D01*
X-65278Y112128D01*
X-65278Y116473D01*
X-66941Y120487D01*
X-70013Y123559D01*
X-74028Y125222D01*
X-78373Y125222D01*
X-82387Y123559D01*
X-85459Y120487D01*
X-86159Y118797D01*
X-86473Y118320D01*
X-86973Y117977D01*
X-87567Y117856D01*
X-90233Y117856D01*
X-90793Y117963D01*
X-91302Y118294D01*
X-91641Y118797D01*
X-92341Y120487D01*
X-95413Y123559D01*
X-99428Y125222D01*
X-103773Y125222D01*
X-107787Y123559D01*
X-110859Y120487D01*
X-111559Y118797D01*
X-111873Y118320D01*
X-112373Y117977D01*
X-112967Y117856D01*
X-115633Y117856D01*
X-116193Y117963D01*
X-116702Y118294D01*
X-117041Y118797D01*
X-117741Y120487D01*
X-120813Y123559D01*
X-124828Y125222D01*
X-129173Y125222D01*
X-133187Y123559D01*
X-136259Y120487D01*
X-137922Y116473D01*
X-137922Y112128D01*
X-136259Y108113D01*
X-133187Y105041D01*
X-129173Y103378D01*
G37*
%LPD*%
G36*
X45712Y349414D02*
X45118Y349294D01*
X41921Y349294D01*
X41349Y349405D01*
X40843Y349740D01*
X40018Y350565D01*
X39697Y351037D01*
X39572Y351631D01*
X39596Y351756D01*
X39596Y354115D01*
X38788Y356066D01*
X37296Y357558D01*
X35345Y358366D01*
X33014Y358366D01*
X32897Y358342D01*
X32301Y358453D01*
X31795Y358788D01*
X-3336Y393919D01*
X-3661Y394402D01*
X-3782Y394996D01*
X-3782Y430815D01*
X-3671Y431387D01*
X-3336Y431892D01*
X-201Y435027D01*
X238Y435333D01*
X828Y435472D01*
X1426Y435371D01*
X1937Y435044D01*
X2280Y434544D01*
X2401Y433949D01*
X2401Y413467D01*
X32372Y383495D01*
X32693Y383023D01*
X32818Y382429D01*
X32794Y382304D01*
X32794Y379945D01*
X33602Y377994D01*
X35094Y376502D01*
X36337Y375987D01*
X36796Y375691D01*
X37147Y375196D01*
X37277Y374603D01*
X37166Y374007D01*
X37131Y373953D01*
X37131Y362799D01*
X38023Y361907D01*
X45118Y361907D01*
X45667Y361804D01*
X46178Y361477D01*
X46521Y360977D01*
X46642Y360383D01*
X46642Y350818D01*
X46539Y350268D01*
X46212Y349757D01*
X45712Y349414D01*
G37*
G36*
X-204924Y309753D02*
X-205220Y309688D01*
X-205518Y309743D01*
X-205771Y309911D01*
X-290768Y394908D01*
X-290860Y394965D01*
X-290892Y394970D01*
X-291338Y394970D01*
X-291613Y395021D01*
X-291868Y395185D01*
X-292040Y395435D01*
X-292100Y395732D01*
X-292100Y418784D01*
X-292044Y419070D01*
X-291877Y419323D01*
X-273112Y438088D01*
X-273055Y438180D01*
X-273050Y438212D01*
X-273050Y438658D01*
X-272999Y438933D01*
X-272835Y439188D01*
X-272585Y439360D01*
X-272288Y439420D01*
X-242062Y439420D01*
X-241787Y439369D01*
X-241532Y439205D01*
X-241360Y438955D01*
X-241300Y438658D01*
X-241300Y397598D01*
X-241275Y397493D01*
X-241256Y397466D01*
X-204693Y360903D01*
X-204530Y360662D01*
X-204470Y360364D01*
X-204470Y310450D01*
X-204517Y310186D01*
X-204676Y309928D01*
X-204924Y309753D01*
G37*
G36*
X167622Y897950D02*
X167324Y897890D01*
X134936Y897890D01*
X134650Y897946D01*
X134397Y898113D01*
X117063Y915447D01*
X116900Y915688D01*
X116840Y915986D01*
X116840Y933134D01*
X116896Y933420D01*
X117063Y933673D01*
X130587Y947197D01*
X130828Y947360D01*
X131126Y947420D01*
X148502Y947420D01*
X148607Y947445D01*
X148634Y947464D01*
X157257Y956087D01*
X157498Y956250D01*
X157796Y956310D01*
X191008Y956310D01*
X191283Y956259D01*
X191538Y956095D01*
X191710Y955845D01*
X191770Y955548D01*
X191770Y922336D01*
X191714Y922050D01*
X191547Y921797D01*
X167863Y898113D01*
X167622Y897950D01*
G37*
G36*
X286555Y814130D02*
X286258Y814070D01*
X257302Y814070D01*
X257027Y814121D01*
X256772Y814285D01*
X256600Y814535D01*
X256540Y814832D01*
X256540Y874714D01*
X256596Y875000D01*
X256763Y875253D01*
X261397Y879887D01*
X261638Y880050D01*
X261936Y880110D01*
X272734Y880110D01*
X273020Y880054D01*
X273273Y879887D01*
X286797Y866363D01*
X286960Y866122D01*
X287020Y865824D01*
X287020Y814832D01*
X286969Y814557D01*
X286805Y814302D01*
X286555Y814130D01*
G37*
G36*
X109255Y980525D02*
X107650Y980322D01*
X106094Y980761D01*
X104832Y981773D01*
X104308Y982744D01*
X104251Y982717D01*
X104132Y982975D01*
X104039Y983081D01*
X99120Y988000D01*
X99100Y988018D01*
X99056Y988050D01*
X98918Y988060D01*
X88043Y988060D01*
X86518Y988357D01*
X85170Y989250D01*
X80070Y994350D01*
X80050Y994368D01*
X80006Y994400D01*
X79868Y994410D01*
X65024Y994410D01*
X63559Y994683D01*
X62197Y995555D01*
X61282Y996889D01*
X60960Y998474D01*
X60960Y1009182D01*
X61233Y1010647D01*
X62105Y1012010D01*
X63439Y1012924D01*
X65024Y1013246D01*
X73461Y1013246D01*
X74986Y1012949D01*
X76334Y1012056D01*
X86300Y1002090D01*
X86320Y1002072D01*
X86364Y1002040D01*
X86502Y1002030D01*
X114046Y1002030D01*
X115511Y1001757D01*
X116874Y1000885D01*
X117788Y999551D01*
X118110Y997966D01*
X118110Y991013D01*
X117813Y989488D01*
X116920Y988140D01*
X111820Y983040D01*
X111802Y983020D01*
X111769Y982975D01*
X111635Y982724D01*
X111607Y982739D01*
X110654Y981337D01*
X109255Y980525D01*
G37*
G36*
X278067Y813118D02*
X280734Y813118D01*
X280734Y805752D01*
X278067Y805752D01*
X278067Y813118D01*
G37*
G36*
X278067Y813118D02*
X280734Y813118D01*
X280734Y805752D01*
X278067Y805752D01*
X278067Y813118D01*
G37*
G36*
X278067Y819849D02*
X280734Y819849D01*
X280734Y812483D01*
X278067Y812483D01*
X278067Y819849D01*
G37*
G36*
X278067Y819849D02*
X280734Y819849D01*
X280734Y812483D01*
X278067Y812483D01*
X278067Y819849D01*
G37*
D10*
X-203200Y469900D03*
D11*
X-254000Y469900D03*
D10*
X-203200Y241300D03*
D11*
X-254000Y241300D03*
D12*
X161410Y190500D03*
X178410Y190500D03*
D13*
X-165909Y368604D03*
X-165909Y343204D03*
X-165909Y317804D03*
X-165909Y292404D03*
X-165909Y267004D03*
X-165909Y241604D03*
X-165909Y216204D03*
X-165909Y190804D03*
D14*
X-292909Y368604D03*
D13*
X-292909Y343204D03*
X-292909Y317804D03*
X-292909Y292404D03*
X-292909Y267004D03*
X-292909Y241604D03*
X-292909Y216204D03*
X-292909Y190804D03*
X-191309Y190804D03*
X-216709Y190804D03*
X-165100Y596900D03*
X-165100Y571500D03*
X-165100Y546100D03*
X-165100Y520700D03*
X-165100Y495300D03*
X-165100Y469900D03*
X-165100Y444500D03*
X-165100Y419100D03*
D14*
X-292100Y596900D03*
D13*
X-292100Y571500D03*
X-292100Y546100D03*
X-292100Y520700D03*
X-292100Y495300D03*
X-292100Y469900D03*
X-292100Y444500D03*
X-292100Y419100D03*
X-190500Y419100D03*
X-215900Y419100D03*
D15*
X-127000Y622300D03*
X-101600Y622300D03*
X-127000Y596900D03*
X-101600Y596900D03*
X-127000Y571500D03*
X-101600Y571500D03*
X-127000Y546100D03*
X-101600Y546100D03*
X-127000Y520700D03*
X-101600Y520700D03*
X-127000Y495300D03*
X-101600Y495300D03*
X-127000Y469900D03*
X-101600Y469900D03*
X-127000Y444500D03*
X-101600Y444500D03*
X-127000Y419100D03*
X-101600Y419100D03*
X-127000Y393700D03*
X-101600Y393700D03*
X127000Y419100D03*
X101600Y419100D03*
X127000Y444500D03*
X101600Y444500D03*
X127000Y469900D03*
X101600Y469900D03*
X127000Y495300D03*
X101600Y495300D03*
X127000Y520700D03*
X101600Y520700D03*
X127000Y546100D03*
X101600Y546100D03*
X127000Y571500D03*
X101600Y571500D03*
X127000Y596900D03*
X101600Y596900D03*
X127000Y622300D03*
X101600Y622300D03*
X-203200Y38100D03*
X-177800Y38100D03*
X-152400Y38100D03*
X-127000Y38100D03*
X-101600Y38100D03*
D16*
X-39370Y995720D03*
D17*
X-89370Y995720D03*
D15*
X189811Y625818D03*
X189811Y600418D03*
X189811Y575018D03*
X189811Y549618D03*
X189811Y524218D03*
X189811Y498818D03*
X189811Y473418D03*
X189811Y448018D03*
X101600Y393192D03*
X127000Y393192D03*
X152400Y393192D03*
X177800Y393192D03*
X203200Y393192D03*
X101600Y38608D03*
X127000Y38608D03*
X152400Y38608D03*
X177800Y38608D03*
X203200Y38608D03*
D16*
X262890Y119380D03*
D17*
X262890Y169380D03*
D15*
X-203997Y88900D03*
X-178597Y88900D03*
X-153197Y88900D03*
X-127797Y88900D03*
X-102397Y88900D03*
X-330200Y317500D03*
X-330200Y292100D03*
X-330200Y266700D03*
X-330200Y241300D03*
X-330200Y546100D03*
X-330200Y520700D03*
X-330200Y495300D03*
X-330200Y469900D03*
X127000Y63500D03*
X127000Y88900D03*
X127000Y114300D03*
X127000Y139700D03*
X127000Y165100D03*
X127000Y190500D03*
X127000Y215900D03*
X127000Y241300D03*
X127000Y266700D03*
X127000Y292100D03*
X127000Y317500D03*
X127000Y342900D03*
X127000Y368300D03*
X101600Y368300D03*
X101600Y342900D03*
X101600Y317500D03*
X101600Y292100D03*
X101600Y266700D03*
X101600Y241300D03*
X101600Y215900D03*
X101600Y190500D03*
X101600Y165100D03*
X101600Y139700D03*
X101600Y114300D03*
X101600Y88900D03*
X101600Y63500D03*
X-127000Y368300D03*
X-101600Y368300D03*
X-127000Y342900D03*
X-101600Y342900D03*
X-127000Y317500D03*
X-101600Y317500D03*
X-127000Y292100D03*
X-101600Y292100D03*
X-127000Y266700D03*
X-101600Y266700D03*
X-127000Y241300D03*
X-101600Y241300D03*
X-127000Y215900D03*
X-101600Y215900D03*
X-127000Y190500D03*
X-101600Y190500D03*
X-127000Y165100D03*
X-101600Y165100D03*
X-127000Y139700D03*
X-101600Y139700D03*
D18*
X58952Y215900D03*
X42648Y215900D03*
X58952Y190500D03*
X42648Y190500D03*
X58952Y139700D03*
X42648Y139700D03*
D19*
X-57150Y269978D03*
X-57150Y286282D03*
X-56432Y592352D03*
X-56432Y576048D03*
D20*
X261420Y740692D03*
X116640Y766092D03*
D21*
X186490Y806732D03*
X186490Y674652D03*
D20*
X116640Y715292D03*
X261420Y766092D03*
X261420Y715292D03*
D15*
X-76200Y368300D03*
X-76200Y342900D03*
X-76200Y317500D03*
X-76200Y292100D03*
X-76200Y266700D03*
X-76200Y241300D03*
X-76200Y215900D03*
X-76200Y190500D03*
X-76200Y165100D03*
X-76200Y139700D03*
X-76200Y114300D03*
X-76200Y88900D03*
X-76200Y63500D03*
X-76200Y38100D03*
X76200Y368300D03*
X76200Y342900D03*
X76200Y317500D03*
X76200Y292100D03*
X76200Y266700D03*
X76200Y241300D03*
X76200Y215900D03*
X76200Y190500D03*
X76200Y165100D03*
X76200Y139700D03*
X76200Y114300D03*
X76200Y88900D03*
X76200Y63500D03*
X76200Y38100D03*
X76200Y419100D03*
X76200Y444500D03*
X76200Y469900D03*
X76200Y495300D03*
X76200Y520700D03*
X76200Y546100D03*
X76200Y571500D03*
X76200Y596900D03*
X76200Y622300D03*
X-76200Y622300D03*
X-76200Y596900D03*
X-76200Y571500D03*
X-76200Y546100D03*
X-76200Y520700D03*
X-76200Y495300D03*
X-76200Y469900D03*
X-76200Y444500D03*
X-76200Y419100D03*
X-76200Y393700D03*
X76200Y393700D03*
D22*
X-79300Y867150D03*
X-89300Y867150D03*
X-99300Y867150D03*
X-109300Y867150D03*
X-119300Y867150D03*
X-129300Y867150D03*
X-139300Y867150D03*
X-149300Y867150D03*
D23*
X-162300Y841900D03*
X-66300Y841900D03*
D22*
X-79300Y813990D03*
X-89300Y813990D03*
X-99300Y813990D03*
X-109300Y813990D03*
X-119300Y813990D03*
X-129300Y813990D03*
X-139300Y813990D03*
X-149300Y813990D03*
D23*
X-162300Y788740D03*
X-66300Y788740D03*
D22*
X-79300Y765550D03*
X-89300Y765550D03*
X-99300Y765550D03*
X-109300Y765550D03*
X-119300Y765550D03*
X-129300Y765550D03*
X-139300Y765550D03*
X-149300Y765550D03*
D23*
X-162300Y740300D03*
X-66300Y740300D03*
D22*
X-79300Y714750D03*
X-89300Y714750D03*
X-99300Y714750D03*
X-109300Y714750D03*
X-119300Y714750D03*
X-129300Y714750D03*
X-139300Y714750D03*
X-149300Y714750D03*
D23*
X-162300Y689500D03*
X-66300Y689500D03*
D12*
X161410Y215900D03*
X178410Y215900D03*
D18*
X42648Y368300D03*
X58952Y368300D03*
X42648Y342900D03*
X58952Y342900D03*
X-42648Y368300D03*
X-58952Y368300D03*
X-42648Y469900D03*
X-58952Y469900D03*
D22*
X60400Y778250D03*
X50400Y778250D03*
X40400Y778250D03*
X30400Y778250D03*
X20400Y778250D03*
X10400Y778250D03*
X400Y778250D03*
X-9600Y778250D03*
D23*
X-22600Y753000D03*
X73400Y753000D03*
D22*
X60400Y727450D03*
X50400Y727450D03*
X40400Y727450D03*
X30400Y727450D03*
X20400Y727450D03*
X10400Y727450D03*
X400Y727450D03*
X-9600Y727450D03*
D23*
X-22600Y702200D03*
X73400Y702200D03*
D18*
X42648Y317500D03*
X58952Y317500D03*
X-42648Y444500D03*
X-58952Y444500D03*
X42648Y622300D03*
X58952Y622300D03*
X58952Y165100D03*
X42648Y165100D03*
D15*
X-127000Y63500D03*
X-101600Y63500D03*
X-127000Y114300D03*
X-101600Y114300D03*
D18*
X148058Y88900D03*
X164362Y88900D03*
X148058Y469900D03*
X164362Y469900D03*
X148058Y495300D03*
X164362Y495300D03*
X150598Y563880D03*
X166902Y563880D03*
X-15978Y469900D03*
X-32282Y469900D03*
X-16833Y444500D03*
X-33137Y444500D03*
X15978Y317500D03*
X32282Y317500D03*
X40387Y597179D03*
X56691Y597179D03*
X15978Y622300D03*
X32282Y622300D03*
D24*
X120650Y977864D03*
X107950Y977864D03*
X95250Y977864D03*
X82550Y977864D03*
X82550Y923382D03*
X95250Y923382D03*
X107950Y923382D03*
X120650Y923382D03*
D25*
X101600Y950623D03*
D26*
X91745Y996070D03*
X91745Y1013070D03*
X112175Y995890D03*
X112175Y1012890D03*
D27*
X71120Y988055D03*
X71120Y977905D03*
D28*
X175558Y946755D03*
X175558Y1011585D03*
D29*
X77320Y895021D03*
X90320Y895021D03*
D30*
X105410Y905660D03*
X105410Y892660D03*
D31*
X84321Y907525D03*
X94471Y907525D03*
D27*
X67310Y914405D03*
X67310Y924555D03*
D31*
X59685Y925625D03*
X49535Y925625D03*
D32*
X154843Y908842D03*
X154843Y867846D03*
D30*
X135890Y955780D03*
X135890Y942780D03*
D12*
X262500Y821690D03*
X245500Y821690D03*
X262500Y847090D03*
X245500Y847090D03*
D10*
X267135Y869950D03*
D33*
X267135Y920750D03*
D34*
X279400Y807593D03*
X279400Y818007D03*
D18*
X58952Y114300D03*
X42648Y114300D03*
D15*
X242570Y228600D03*
X242570Y254000D03*
X242570Y279400D03*
X242570Y304800D03*
X241300Y349250D03*
X241300Y374650D03*
X241300Y400050D03*
X241300Y425450D03*
D35*
X203200Y38608D02*
X202946Y38354D01*
X202692Y38100D01*
D36*
X76708Y38608D02*
X76200Y38100D01*
X76708Y38608D02*
X101600Y38608D01*
X127000Y38608D01*
X152400Y38608D01*
X177800Y38608D01*
X202692Y38608D01*
X202946Y38354D01*
X-76200Y393700D02*
X-101600Y393700D01*
X-127000Y393700D01*
D37*
X-254000Y558800D02*
X-292100Y596900D01*
X-254000Y558800D02*
X-254000Y469900D01*
X-266700Y469900D01*
X-292100Y444500D01*
X-292309Y444500D01*
X-307514Y429295D01*
X-307514Y383209D01*
X-292909Y368604D01*
X-254000Y329695D01*
X-254000Y241300D01*
X-267813Y241300D01*
X-292909Y216204D01*
D38*
X262890Y119380D02*
X262890Y98298D01*
X203200Y38608D01*
D35*
X177546Y63754D02*
X152400Y38608D01*
X178308Y38608D01*
D37*
X-292100Y596900D02*
X-292100Y927100D01*
D35*
X116640Y715292D02*
X236020Y715292D01*
X261420Y740692D01*
D39*
X-25400Y736600D03*
X-304800Y850900D03*
X-241300Y901700D03*
X-215900Y723900D03*
X177800Y774700D03*
X101600Y685800D03*
X-25400Y558800D03*
X-330200Y406400D03*
X-292100Y101600D03*
X-241300Y190500D03*
X12700Y228600D03*
X-12700Y165100D03*
X-25400Y279400D03*
X-25400Y342900D03*
X215900Y88900D03*
X241300Y25400D03*
X-12700Y50800D03*
X-215900Y647700D03*
X-127000Y647700D03*
X38100Y863600D03*
X-25400Y673100D03*
X-177800Y304800D03*
X-330200Y660400D03*
X-241300Y38100D03*
X-38100Y406400D03*
X254000Y622300D03*
D35*
X249682Y109982D02*
X178308Y38608D01*
X249682Y109982D02*
X249682Y186182D01*
X-89300Y765550D02*
X-89300Y813990D01*
X-129300Y765550D02*
X-129300Y714750D01*
X-129300Y765550D02*
X-129300Y813990D01*
X-129300Y867150D01*
X-109300Y867150D02*
X-109300Y813990D01*
X-89300Y813990D02*
X-89300Y867150D01*
X-109300Y813990D02*
X-109300Y765550D01*
X-109300Y714750D01*
X-89300Y714750D02*
X-89300Y765550D01*
D39*
X0Y406400D03*
D35*
X0Y433073D02*
X877Y433949D01*
X0Y433073D02*
X0Y406400D01*
X-12700Y431149D02*
X-12700Y355600D01*
X-12700Y431149D02*
X-6744Y437105D01*
X-12700Y355600D02*
X-25400Y342900D01*
X-6744Y461650D02*
X-5889Y462505D01*
X-6744Y461650D02*
X-6744Y437105D01*
X877Y458494D02*
X1732Y459349D01*
X877Y458494D02*
X877Y433949D01*
X-85348Y710798D02*
X-89300Y714750D01*
X-5889Y575848D02*
X-5889Y462505D01*
X-129300Y699259D02*
X-129300Y714750D01*
X-129300Y699259D02*
X-5889Y575848D01*
X1732Y579004D02*
X1732Y459349D01*
X-109300Y690035D02*
X-109300Y714750D01*
X-109300Y690035D02*
X1732Y579004D01*
X-85348Y676860D02*
X-85348Y710798D01*
D39*
X33349Y495300D03*
D35*
X10400Y727450D02*
X10400Y778250D01*
X30400Y778250D02*
X30400Y727450D01*
X50400Y727450D02*
X50400Y778250D01*
X10400Y708112D02*
X80718Y637794D01*
X10400Y708112D02*
X10400Y727450D01*
X30400Y704930D02*
X89916Y645414D01*
X30400Y704930D02*
X30400Y727450D01*
X80718Y637794D02*
X133418Y637794D01*
X160816Y610396D01*
X116640Y715292D02*
X113019Y715292D01*
X90063Y738248D01*
X56138Y738248D02*
X54352Y736463D01*
X54352Y731402D02*
X50400Y727450D01*
X54352Y731402D02*
X54352Y736463D01*
X56138Y738248D02*
X90063Y738248D01*
D37*
X-39370Y995720D02*
X-65240Y1021590D01*
X-197610Y1021590D01*
X-292100Y927100D01*
D35*
X70772Y889258D02*
X72558Y887473D01*
X82083Y887473D01*
X89631Y895021D02*
X90320Y895021D01*
X89631Y895021D02*
X82083Y887473D01*
X70772Y910943D02*
X67310Y914405D01*
X70772Y910943D02*
X70772Y889258D01*
X90320Y895021D02*
X92681Y892660D01*
X105410Y892660D01*
X112958Y900898D02*
X112958Y910423D01*
X105410Y893350D02*
X105410Y892660D01*
X105410Y893350D02*
X112958Y900898D01*
X112958Y910423D02*
X107950Y915431D01*
X107950Y923382D01*
X111995Y1013070D02*
X91745Y1013070D01*
X111995Y1013070D02*
X112175Y1012890D01*
X174253Y1012890D01*
X175558Y1011585D01*
X66638Y983629D02*
X64852Y981843D01*
X64852Y973967D01*
X84710Y967513D02*
X101600Y950623D01*
X66694Y983629D02*
X71120Y988055D01*
X66694Y983629D02*
X66638Y983629D01*
X64852Y973967D02*
X71306Y967513D01*
X84710Y967513D01*
X101600Y929732D02*
X107950Y923382D01*
X101600Y929732D02*
X101600Y950623D01*
X245500Y847090D02*
X245500Y821690D01*
X267135Y920750D02*
X176300Y1011585D01*
X175558Y1011585D01*
X91745Y1013070D02*
X87505Y1017310D01*
X-17780Y1017310D01*
X-39370Y995720D01*
X105410Y892660D02*
X239045Y892660D01*
X267135Y920750D01*
X245500Y821690D02*
X245500Y804300D01*
X241300Y800100D01*
D39*
X241300Y800100D03*
X63500Y902970D03*
X293142Y939800D03*
X-25400Y914400D03*
X241300Y1016000D03*
X-254000Y1016000D03*
X215900Y927100D03*
X139700Y990600D03*
X279400Y952500D03*
X101600Y825500D03*
X-25400Y838200D03*
X-129540Y840740D03*
X-109220Y840740D03*
X-88900Y840740D03*
X-88900Y786130D03*
X-109220Y795020D03*
X-130810Y789940D03*
X-129540Y740410D03*
X-111760Y739140D03*
X-90170Y739140D03*
X10160Y753110D03*
X30480Y753110D03*
X49530Y754380D03*
X177800Y63500D03*
D35*
X177546Y63754D01*
X202692Y88900D01*
X249682Y186182D02*
X255778Y192278D01*
X178410Y190500D02*
X178410Y215900D01*
X255778Y192278D02*
X255778Y242563D01*
X244341Y254000D02*
X242570Y254000D01*
X244341Y254000D02*
X255778Y242563D01*
X255778Y257569D02*
X255778Y293911D01*
X252209Y254000D02*
X242570Y254000D01*
X252209Y254000D02*
X255778Y257569D01*
X255778Y293911D02*
X244889Y304800D01*
X242570Y304800D01*
X215900Y88900D02*
X202692Y88900D01*
X242570Y304800D02*
X242570Y320219D01*
X241300Y374650D02*
X246201Y374650D01*
X253746Y331395D02*
X242570Y320219D01*
X253746Y331395D02*
X253746Y362204D01*
X241300Y374650D01*
X246201Y374650D02*
X253746Y382195D01*
X253746Y413004D01*
X241300Y425450D01*
X242570Y304800D02*
X242570Y297001D01*
X178410Y232841D02*
X178410Y215900D01*
X178410Y232841D02*
X242570Y297001D01*
D39*
X142989Y676389D03*
D35*
X130143Y676389D02*
X116640Y689892D01*
X116640Y715292D01*
X130143Y676389D02*
X142989Y676389D01*
X187214Y600418D02*
X189811Y600418D01*
D39*
X163638Y610025D03*
D35*
X163266Y610396D01*
X160816Y610396D01*
X142218Y645414D02*
X89916Y645414D01*
X142218Y645414D02*
X187214Y600418D01*
D39*
X18570Y571500D03*
D35*
X18570Y572942D01*
X-85348Y676860D01*
D39*
X20320Y792480D03*
X-38100Y774700D03*
X197906Y460718D03*
X177800Y419100D03*
X152400Y165100D03*
X177800Y139700D03*
D35*
X101092Y393700D02*
X76200Y393700D01*
X101092Y393700D02*
X101600Y393192D01*
X127000Y393192D01*
X152400Y393192D01*
X177800Y393192D01*
X203200Y393192D01*
D36*
X-178597Y88900D02*
X-203997Y88900D01*
X-178597Y88900D02*
X-153197Y88900D01*
X-127797Y88900D01*
X-102397Y88900D01*
X-127000Y88900D01*
X-102397Y88900D02*
X-76200Y88900D01*
D35*
X54332Y279146D02*
X133350Y279146D01*
X-190500Y206586D02*
X-203200Y193886D01*
X152400Y298196D02*
X152400Y368300D01*
X177292Y393192D01*
X177800Y393192D01*
X-127797Y88900D02*
X-157301Y88900D01*
X-127797Y88900D02*
X-127000Y88900D01*
X-203200Y134799D02*
X-203200Y193886D01*
X-203200Y134799D02*
X-157301Y88900D01*
X-9600Y727450D02*
X-9600Y778250D01*
X-149300Y813990D02*
X-149300Y867150D01*
X-149300Y813990D02*
X-149300Y765550D01*
X-149300Y714750D01*
X-149300Y669342D02*
X-183642Y635000D01*
X-149300Y669342D02*
X-149300Y714750D01*
X152400Y298196D02*
X133350Y279146D01*
X-16833Y443645D02*
X-16833Y444500D01*
X-16833Y469045D01*
X-15978Y469900D01*
X15978Y317500D02*
X54332Y279146D01*
X-9600Y647878D02*
X-9600Y727450D01*
X-9600Y647878D02*
X15978Y622300D01*
X54332Y279146D02*
X42648Y267462D01*
X42648Y215900D01*
X42648Y190500D01*
X42648Y165100D01*
X42648Y139700D01*
X42648Y114300D01*
X25400Y88900D02*
X-76200Y88900D01*
X25400Y88900D02*
X42648Y106148D01*
X42648Y114300D01*
D39*
X-9600Y647878D03*
X25400Y444500D03*
D35*
X25400Y419100D01*
X50800Y393700D01*
X76200Y393700D01*
X40387Y597179D02*
X38379Y597179D01*
X25400Y584200D01*
D39*
X25400Y584200D03*
D35*
X-183642Y635000D02*
X-183642Y427216D01*
X-175688Y419262D01*
X-175688Y414714D01*
X-53824Y406654D02*
X-16833Y443645D01*
X-167628Y406654D02*
X-175688Y414714D01*
X-167628Y406654D02*
X-139446Y406654D01*
X-53824Y406654D01*
X-139446Y406654D02*
X-166908Y379192D01*
X-170295Y379192D01*
X-190500Y358986D01*
X-190500Y206586D01*
D40*
X-34024Y376924D02*
X-22399Y388550D01*
D39*
X-34024Y376924D03*
D40*
X-139300Y714750D02*
X-139300Y765550D01*
X-139300Y813990D01*
X-139300Y867150D01*
X-22399Y426839D02*
X-22399Y388550D01*
X-22399Y426839D02*
X-10554Y438684D01*
X-9699Y475716D02*
X-10554Y476571D01*
X-9699Y475716D02*
X-9699Y464084D01*
X-10554Y463229D01*
X-10554Y438684D01*
X-10554Y476571D02*
X-10554Y575124D01*
X-139300Y703871D02*
X-139300Y714750D01*
X-139300Y703871D02*
X-10554Y575124D01*
X-34024Y376924D02*
X-42648Y368300D01*
D39*
X34290Y353060D03*
D40*
X42648Y344702D01*
X42648Y342900D01*
X34290Y353060D02*
X-6068Y393418D01*
X-6068Y432393D01*
X-2934Y435527D01*
X-2934Y460072D01*
X-2079Y460927D01*
X-2079Y577426D01*
X-119300Y694647D01*
X-119300Y714750D01*
X-119300Y765550D01*
X-119300Y813990D01*
X-119300Y867150D01*
D35*
X76200Y368300D02*
X101600Y368300D01*
X127000Y368300D01*
X76200Y368300D02*
X58952Y368300D01*
D40*
X42648Y368300D02*
X42648Y376452D01*
D39*
X38100Y381000D03*
D40*
X42648Y376452D01*
X38100Y381000D02*
X4687Y414414D01*
X4687Y456916D01*
X5542Y457771D01*
X5542Y580582D01*
X-99300Y685424D01*
X-99300Y714750D01*
X-99300Y765550D01*
X-99300Y813990D01*
X-99300Y867150D01*
X-79300Y867150D02*
X-79300Y832560D01*
X-80010Y831850D01*
D39*
X-80010Y831850D03*
D40*
X-42648Y469900D02*
X-32282Y469900D01*
X-42648Y469900D02*
X-42648Y487148D01*
X-45720Y490220D01*
D39*
X-45720Y490220D03*
D40*
X42648Y330804D02*
X42648Y330200D01*
X42648Y317500D01*
X42648Y330804D02*
X48928Y337084D01*
D39*
X42648Y330200D03*
D40*
X48928Y337084D02*
X48928Y378754D01*
D39*
X10755Y444500D03*
D40*
X10755Y416927D02*
X48928Y378754D01*
X10755Y416927D02*
X10755Y444500D01*
X32282Y317500D02*
X42648Y317500D01*
D39*
X-77606Y779514D03*
D40*
X-77606Y812296D02*
X-79300Y813990D01*
X-77606Y812296D02*
X-77606Y779514D01*
D39*
X-35497Y455867D03*
D40*
X-39708Y451656D01*
X-42648Y444500D02*
X-33137Y444500D01*
X-39708Y447441D02*
X-42648Y444500D01*
X-39708Y447441D02*
X-39708Y451656D01*
X60400Y788583D02*
X48883Y800100D01*
X60400Y788583D02*
X60400Y778250D01*
D39*
X-79602Y749300D03*
D40*
X-79300Y749602D02*
X-79300Y765550D01*
X-79300Y749602D02*
X-79602Y749300D01*
X-79300Y765550D02*
X-67396Y777454D01*
X-59353Y777454D01*
X-36707Y800100D01*
X48883Y800100D01*
D39*
X38100Y635000D03*
D40*
X38100Y629388D01*
X42648Y624840D02*
X42648Y622300D01*
X42648Y624840D02*
X38100Y629388D01*
X-12700Y609600D02*
X-79300Y676200D01*
D39*
X60960Y704850D03*
D40*
X19582Y609600D02*
X-12700Y609600D01*
X-79300Y676200D02*
X-79300Y714750D01*
X32282Y622300D02*
X42648Y622300D01*
X32282Y622300D02*
X19582Y609600D01*
X60400Y705410D02*
X60400Y727450D01*
X60400Y705410D02*
X60960Y704850D01*
D41*
X-76200Y38100D02*
X-101600Y38100D01*
X-127000Y38100D01*
X-152400Y38100D01*
X-177800Y38100D01*
X-203200Y38100D01*
X-76200Y38100D02*
X50260Y38100D01*
X67024Y21336D01*
X262890Y169380D02*
X279400Y152870D01*
X216948Y21336D02*
X67024Y21336D01*
X216948Y21336D02*
X279400Y83788D01*
X279400Y152870D01*
X303076Y771217D02*
X279400Y794893D01*
X279400Y807593D01*
X303076Y203200D02*
X269256Y169380D01*
X262890Y169380D01*
D42*
X154843Y867846D02*
X107313Y867846D01*
X49898Y925262D02*
X49535Y925625D01*
X96323Y878837D02*
X107313Y867846D01*
X96323Y878837D02*
X70032Y878837D01*
X49898Y898971D02*
X49898Y925262D01*
X49898Y898971D02*
X70032Y878837D01*
D41*
X154843Y867846D02*
X265031Y867846D01*
X267135Y869950D01*
D35*
X267135Y851725D01*
X262500Y847090D01*
X262500Y821690D01*
X275717Y821690D01*
X279400Y818007D01*
D42*
X279400Y807593D01*
D41*
X303076Y771217D02*
X303076Y203200D01*
D36*
X-76200Y546100D02*
X-101600Y546100D01*
X-127000Y546100D01*
X-127000Y622300D02*
X-101600Y622300D01*
X-76200Y622300D01*
D35*
X-165100Y581926D02*
X-165100Y571500D01*
X-127000Y620026D02*
X-127000Y622300D01*
X-127000Y620026D02*
X-165100Y581926D01*
D36*
X-127000Y520700D02*
X-101600Y520700D01*
X-76200Y520700D01*
X-76200Y495300D02*
X-101600Y495300D01*
X-127000Y495300D01*
D35*
X101600Y190500D02*
X127000Y190500D01*
X101600Y190500D02*
X76200Y190500D01*
X127000Y190500D02*
X139700Y203200D01*
X154940Y203200D01*
D39*
X154940Y203200D03*
D35*
X76200Y190500D02*
X58952Y190500D01*
X76200Y215900D02*
X101600Y215900D01*
X127000Y215900D01*
D40*
X142240Y215900D01*
X154940Y228600D01*
D39*
X154940Y228600D03*
D35*
X76200Y215900D02*
X58952Y215900D01*
D37*
X-292100Y394010D02*
X-292100Y419100D01*
X-203200Y305110D02*
X-203200Y241300D01*
X-203200Y305110D02*
X-292100Y394010D01*
X-203200Y355600D02*
X-203200Y241300D01*
X-203200Y355600D02*
X-241300Y393700D01*
X-241300Y431800D01*
X-272796Y603812D02*
X-272796Y919480D01*
X-202311Y533327D02*
X-202311Y470789D01*
X-203200Y469900D01*
X-202311Y533327D02*
X-272796Y603812D01*
X-272796Y919480D02*
X-196556Y995720D01*
X-203200Y469900D02*
X-241300Y431800D01*
X-271399Y439801D02*
X-292100Y419100D01*
X-233299Y439801D02*
X-203200Y469900D01*
X-233299Y439801D02*
X-271399Y439801D01*
X-259812Y223901D02*
X-292909Y190804D01*
X-259812Y223901D02*
X-221393Y223901D01*
X-203994Y241300D02*
X-203200Y241300D01*
X-203994Y241300D02*
X-221393Y223901D01*
X-196556Y995720D02*
X-89370Y995720D01*
D35*
X85090Y995680D02*
X91355Y995680D01*
X91745Y996070D01*
X91925Y995890D01*
X112175Y995890D01*
X107950Y991666D01*
X107950Y977864D01*
D37*
X7834Y1001308D02*
X-22139Y971336D01*
X-64986Y971336D01*
X-89370Y995720D01*
D35*
X79462Y1001308D02*
X85090Y995680D01*
D37*
X64770Y1001308D02*
X7834Y1001308D01*
D35*
X64770Y1001308D02*
X79462Y1001308D01*
D36*
X-76200Y292100D02*
X-101600Y292100D01*
X-127000Y292100D01*
D35*
X-140813Y292100D02*
X-165909Y267004D01*
X-140813Y292100D02*
X-127000Y292100D01*
X-76200Y292100D02*
X-62968Y292100D01*
X-57150Y286282D01*
D37*
X-292100Y520700D02*
X-330200Y520700D01*
X-330200Y546100D02*
X-292100Y546100D01*
X-329896Y292404D02*
X-330200Y292100D01*
X-329896Y292404D02*
X-292909Y292404D01*
X-329896Y317804D02*
X-330200Y317500D01*
X-329896Y317804D02*
X-292909Y317804D01*
D35*
X76200Y63500D02*
X101600Y63500D01*
X127000Y63500D01*
X127000Y88900D02*
X101600Y88900D01*
X76200Y88900D01*
D40*
X40400Y727450D02*
X40400Y778250D01*
X40400Y700319D02*
X91495Y649224D01*
X40400Y700319D02*
X40400Y727450D01*
X91495Y649224D02*
X182929Y649224D01*
D35*
X148058Y88900D02*
X127000Y88900D01*
D39*
X215085Y305615D03*
D40*
X175959Y100497D02*
X164362Y88900D01*
X175959Y100497D02*
X175959Y103442D01*
D39*
X175959Y103442D03*
D40*
X201495Y624005D02*
X201495Y630658D01*
X182929Y649224D01*
X214884Y305816D02*
X215085Y305615D01*
X214884Y610616D02*
X201495Y624005D01*
X214884Y610616D02*
X214884Y305816D01*
D35*
X101600Y292100D02*
X76200Y292100D01*
X101600Y292100D02*
X127000Y292100D01*
D36*
X-76200Y342900D02*
X-101600Y342900D01*
X-127000Y342900D01*
D35*
X-152704Y368604D02*
X-165909Y368604D01*
X-152704Y368604D02*
X-127000Y342900D01*
D36*
X-127000Y317500D02*
X-101600Y317500D01*
X-76200Y317500D01*
D35*
X-140205Y317500D02*
X-165909Y343204D01*
X-140205Y317500D02*
X-127000Y317500D01*
D36*
X-101600Y241300D02*
X-76200Y241300D01*
X-101600Y241300D02*
X-127000Y241300D01*
D35*
X-152400Y204313D02*
X-165909Y190804D01*
X-152400Y204313D02*
X-152400Y228600D01*
X-139700Y241300D01*
X-127000Y241300D01*
D36*
X-127000Y266700D02*
X-101600Y266700D01*
X-76200Y266700D01*
D35*
X-60428Y266700D01*
X-57150Y269978D01*
D36*
X-101600Y571500D02*
X-127000Y571500D01*
X-101600Y571500D02*
X-76200Y571500D01*
D35*
X-60980Y571500D02*
X-56432Y576048D01*
X-60980Y571500D02*
X-76200Y571500D01*
D36*
X-76200Y596900D02*
X-101600Y596900D01*
X-127000Y596900D01*
D35*
X-165100Y505726D02*
X-165100Y495300D01*
X-165100Y505726D02*
X-154512Y516314D01*
X-154512Y580632D01*
X-76200Y596900D02*
X-60980Y596900D01*
X-56432Y592352D01*
X-138244Y596900D02*
X-154512Y580632D01*
X-138244Y596900D02*
X-127000Y596900D01*
X76200Y419100D02*
X101600Y419100D01*
X127000Y419100D01*
X127000Y469900D02*
X101600Y469900D01*
X76200Y469900D01*
D40*
X178127Y483665D02*
X178127Y483870D01*
X178127Y483665D02*
X164362Y469900D01*
X148058Y469900D02*
X127000Y469900D01*
D39*
X177871Y483614D03*
D40*
X178127Y483870D01*
X20400Y727450D02*
X20400Y778250D01*
X88338Y641604D02*
X140640Y641604D01*
X88338Y641604D02*
X20400Y709542D01*
X20400Y727450D01*
X140640Y641604D02*
X170077Y612167D01*
X189297Y575018D02*
X189811Y575018D01*
X189297Y575018D02*
X170077Y594238D01*
X170077Y612167D01*
X181391Y487134D02*
X177871Y483614D01*
X181391Y487134D02*
X194651Y487134D01*
X207772Y500255D01*
X207772Y557057D01*
X189811Y575018D01*
D35*
X101600Y495300D02*
X76200Y495300D01*
X101600Y495300D02*
X127000Y495300D01*
D39*
X157480Y590550D03*
D40*
X148058Y495300D02*
X127000Y495300D01*
X400Y727450D02*
X400Y778250D01*
X400Y710767D02*
X77183Y633984D01*
X400Y710767D02*
X400Y727450D01*
X77183Y633984D02*
X131840Y633984D01*
X144870Y620954D01*
X144870Y603160D01*
X157480Y590550D01*
D39*
X164620Y520700D03*
D40*
X164620Y495558D02*
X164362Y495300D01*
X164620Y495558D02*
X164620Y520700D01*
D36*
X127000Y571500D02*
X101600Y571500D01*
X76200Y571500D01*
D35*
X177365Y521135D02*
X177365Y519063D01*
X177365Y521135D02*
X127000Y571500D01*
X189811Y506617D02*
X189811Y498818D01*
X189811Y506617D02*
X177365Y519063D01*
D40*
X166902Y563880D02*
X166902Y565555D01*
D36*
X101600Y596900D02*
X76200Y596900D01*
X101600Y596900D02*
X127000Y596900D01*
D40*
X166902Y563880D02*
X166902Y547127D01*
X189811Y524218D01*
X150598Y563880D02*
X150598Y573302D01*
X127000Y596900D01*
D39*
X166902Y547127D03*
D35*
X75921Y597179D02*
X56691Y597179D01*
X75921Y597179D02*
X76200Y596900D01*
D36*
X-76200Y139700D02*
X-101600Y139700D01*
X-127000Y139700D01*
X-127000Y165100D02*
X-101600Y165100D01*
X-76200Y165100D01*
D35*
X76200Y165100D02*
X101600Y165100D01*
X127000Y165100D01*
X76200Y165100D02*
X58952Y165100D01*
D37*
X-292100Y469900D02*
X-330200Y469900D01*
X-330200Y495300D02*
X-292100Y495300D01*
X-329896Y241604D02*
X-330200Y241300D01*
X-329896Y241604D02*
X-292909Y241604D01*
X-329896Y267004D02*
X-330200Y266700D01*
X-329896Y267004D02*
X-292909Y267004D01*
D35*
X154940Y184031D02*
X161410Y190500D01*
X154940Y184031D02*
X154940Y177800D01*
D39*
X154940Y177800D03*
X149860Y214630D03*
D35*
X151130Y215900D01*
X161410Y215900D01*
D38*
X-76200Y63500D02*
X-101600Y63500D01*
X-127000Y63500D01*
X-127000Y114300D02*
X-101600Y114300D01*
X-76200Y114300D01*
D35*
X76200Y342900D02*
X101600Y342900D01*
X127000Y342900D01*
X76200Y342900D02*
X58952Y342900D01*
D36*
X-101600Y368300D02*
X-127000Y368300D01*
X-101600Y368300D02*
X-76200Y368300D01*
D35*
X-58952Y368300D01*
D36*
X-101600Y469900D02*
X-127000Y469900D01*
X-101600Y469900D02*
X-76200Y469900D01*
D35*
X-58952Y469900D01*
X76200Y317500D02*
X101600Y317500D01*
X127000Y317500D01*
X76200Y317500D02*
X58952Y317500D01*
D36*
X-76200Y444500D02*
X-101600Y444500D01*
X-127000Y444500D01*
D35*
X-76200Y444500D02*
X-58952Y444500D01*
X76200Y622300D02*
X101600Y622300D01*
X127000Y622300D01*
D40*
X76200Y622300D02*
X58952Y622300D01*
D36*
X-101600Y419100D02*
X-127000Y419100D01*
X-101600Y419100D02*
X-76200Y419100D01*
D35*
X-127000Y419100D02*
X-165100Y419100D01*
X71120Y977905D02*
X82509Y977905D01*
X82550Y977864D01*
X84321Y907525D02*
X77320Y900524D01*
X77320Y895021D01*
X95250Y908304D02*
X95250Y923382D01*
X95250Y908304D02*
X94471Y907525D01*
X103545Y907525D01*
X105410Y905660D01*
X81377Y924555D02*
X67310Y924555D01*
X81377Y924555D02*
X82550Y923382D01*
X66241Y925625D02*
X59685Y925625D01*
X66241Y925625D02*
X67310Y924555D01*
D42*
X135890Y942780D02*
X171583Y942780D01*
X175558Y946755D01*
X135890Y938622D02*
X120650Y923382D01*
X135890Y938622D02*
X135890Y942780D01*
X120650Y923382D02*
X135190Y908842D01*
X154843Y908842D01*
X135890Y955780D02*
X135890Y962624D01*
X120650Y977864D01*
D35*
X101600Y241300D02*
X76200Y241300D01*
X101600Y241300D02*
X127000Y241300D01*
X101600Y266700D02*
X76200Y266700D01*
X101600Y266700D02*
X127000Y266700D01*
X127000Y139700D02*
X101600Y139700D01*
X76200Y139700D01*
X58952Y139700D01*
X147204Y139700D02*
X210312Y202808D01*
X147204Y139700D02*
X127000Y139700D01*
X241479Y279400D02*
X242570Y279400D01*
X241479Y279400D02*
X210312Y248233D01*
X210312Y202808D01*
X101600Y114300D02*
X76200Y114300D01*
X101600Y114300D02*
X127000Y114300D01*
X128270Y114300D01*
X242570Y228600D01*
X76200Y114300D02*
X58952Y114300D01*
X76200Y444500D02*
X101600Y444500D01*
X127000Y444500D01*
D36*
X101600Y520700D02*
X76200Y520700D01*
X101600Y520700D02*
X127000Y520700D01*
X101600Y546100D02*
X76200Y546100D01*
X101600Y546100D02*
X127000Y546100D01*
X-101600Y215900D02*
X-127000Y215900D01*
X-101600Y215900D02*
X-76200Y215900D01*
X-101600Y190500D02*
X-127000Y190500D01*
X-101600Y190500D02*
X-76200Y190500D01*
M02*
