G04 EAGLE Gerber RS-274X export*
G75*
%MOMM*%
%FSLAX34Y34*%
%LPD*%
%INSoldermask Bottom*%
%IPPOS*%
%AMOC8*
5,1,8,0,0,1.08239X$1,22.5*%
G01*
G04 Define Apertures*
%ADD10C,3.403600*%
%ADD11C,2.108200*%
%ADD12P,2.28189X8X202.5*%
%ADD13C,1.711200*%
%ADD14R,1.711200X1.711200*%
%ADD15C,2.082800*%
%ADD16R,2.235200X2.235200*%
%ADD17C,2.235200*%
%ADD18C,1.727200*%
%ADD19C,3.505200*%
%ADD20R,0.838200X1.473200*%
%ADD21R,0.863600X1.473200*%
%ADD22P,2.28189X8X112.5*%
%ADD23C,0.959600*%
G36*
X48260Y370205D02*
X53340Y370205D01*
X53340Y366395D01*
X48260Y366395D01*
X48260Y370205D01*
G37*
G36*
X152400Y471805D02*
X157480Y471805D01*
X157480Y467995D01*
X152400Y467995D01*
X152400Y471805D01*
G37*
G36*
X152400Y497205D02*
X157480Y497205D01*
X157480Y493395D01*
X152400Y493395D01*
X152400Y497205D01*
G37*
G36*
X158750Y86995D02*
X153670Y86995D01*
X153670Y90805D01*
X158750Y90805D01*
X158750Y86995D01*
G37*
G36*
X157480Y565785D02*
X162560Y565785D01*
X162560Y561975D01*
X157480Y561975D01*
X157480Y565785D01*
G37*
D10*
X-317500Y38100D03*
X279400Y38100D03*
X-317500Y1016000D03*
X279400Y1016000D03*
D11*
X-203200Y469900D03*
D12*
X-254000Y469900D03*
D11*
X-203200Y241300D03*
D12*
X-254000Y241300D03*
D13*
X-165909Y368604D03*
X-165909Y343204D03*
X-165909Y317804D03*
X-165909Y292404D03*
X-165909Y267004D03*
X-165909Y241604D03*
X-165909Y216204D03*
X-165909Y190804D03*
D14*
X-292909Y368604D03*
D13*
X-292909Y343204D03*
X-292909Y317804D03*
X-292909Y292404D03*
X-292909Y267004D03*
X-292909Y241604D03*
X-292909Y216204D03*
X-292909Y190804D03*
X-191309Y190804D03*
X-216709Y190804D03*
X-165100Y596900D03*
X-165100Y571500D03*
X-165100Y546100D03*
X-165100Y520700D03*
X-165100Y495300D03*
X-165100Y469900D03*
X-165100Y444500D03*
X-165100Y419100D03*
D14*
X-292100Y596900D03*
D13*
X-292100Y571500D03*
X-292100Y546100D03*
X-292100Y520700D03*
X-292100Y495300D03*
X-292100Y469900D03*
X-292100Y444500D03*
X-292100Y419100D03*
X-190500Y419100D03*
X-215900Y419100D03*
D15*
X-127000Y622300D03*
X-101600Y622300D03*
X-127000Y596900D03*
X-101600Y596900D03*
X-127000Y571500D03*
X-101600Y571500D03*
X-127000Y546100D03*
X-101600Y546100D03*
X-127000Y520700D03*
X-101600Y520700D03*
X-127000Y495300D03*
X-101600Y495300D03*
X-127000Y469900D03*
X-101600Y469900D03*
X-127000Y444500D03*
X-101600Y444500D03*
X-127000Y419100D03*
X-101600Y419100D03*
X-127000Y393700D03*
X-101600Y393700D03*
X127000Y419100D03*
X101600Y419100D03*
X127000Y444500D03*
X101600Y444500D03*
X127000Y469900D03*
X101600Y469900D03*
X127000Y495300D03*
X101600Y495300D03*
X127000Y520700D03*
X101600Y520700D03*
X127000Y546100D03*
X101600Y546100D03*
X127000Y571500D03*
X101600Y571500D03*
X127000Y596900D03*
X101600Y596900D03*
X127000Y622300D03*
X101600Y622300D03*
X-203200Y38100D03*
X-177800Y38100D03*
X-152400Y38100D03*
X-127000Y38100D03*
X-101600Y38100D03*
D16*
X-39370Y995720D03*
D17*
X-89370Y995720D03*
D15*
X189811Y625818D03*
X189811Y600418D03*
X189811Y575018D03*
X189811Y549618D03*
X189811Y524218D03*
X189811Y498818D03*
X189811Y473418D03*
X189811Y448018D03*
X101600Y393192D03*
X127000Y393192D03*
X152400Y393192D03*
X177800Y393192D03*
X203200Y393192D03*
X101600Y38608D03*
X127000Y38608D03*
X152400Y38608D03*
X177800Y38608D03*
X203200Y38608D03*
D16*
X262890Y119380D03*
D17*
X262890Y169380D03*
D15*
X-203997Y88900D03*
X-178597Y88900D03*
X-153197Y88900D03*
X-127797Y88900D03*
X-102397Y88900D03*
X-330200Y317500D03*
X-330200Y292100D03*
X-330200Y266700D03*
X-330200Y241300D03*
X-330200Y546100D03*
X-330200Y520700D03*
X-330200Y495300D03*
X-330200Y469900D03*
X127000Y63500D03*
X127000Y88900D03*
X127000Y114300D03*
X127000Y139700D03*
X127000Y165100D03*
X127000Y190500D03*
X127000Y215900D03*
X127000Y241300D03*
X127000Y266700D03*
X127000Y292100D03*
X127000Y317500D03*
X127000Y342900D03*
X127000Y368300D03*
X101600Y368300D03*
X101600Y342900D03*
X101600Y317500D03*
X101600Y292100D03*
X101600Y266700D03*
X101600Y241300D03*
X101600Y215900D03*
X101600Y190500D03*
X101600Y165100D03*
X101600Y139700D03*
X101600Y114300D03*
X101600Y88900D03*
X101600Y63500D03*
X-127000Y368300D03*
X-101600Y368300D03*
X-127000Y342900D03*
X-101600Y342900D03*
X-127000Y317500D03*
X-101600Y317500D03*
X-127000Y292100D03*
X-101600Y292100D03*
X-127000Y266700D03*
X-101600Y266700D03*
X-127000Y241300D03*
X-101600Y241300D03*
X-127000Y215900D03*
X-101600Y215900D03*
X-127000Y190500D03*
X-101600Y190500D03*
X-127000Y165100D03*
X-101600Y165100D03*
X-127000Y139700D03*
X-101600Y139700D03*
D18*
X261420Y740692D03*
X116640Y766092D03*
D19*
X186490Y806732D03*
X186490Y674652D03*
D18*
X116640Y715292D03*
X261420Y766092D03*
X261420Y715292D03*
D15*
X-76200Y368300D03*
X-76200Y342900D03*
X-76200Y317500D03*
X-76200Y292100D03*
X-76200Y266700D03*
X-76200Y241300D03*
X-76200Y215900D03*
X-76200Y190500D03*
X-76200Y165100D03*
X-76200Y139700D03*
X-76200Y114300D03*
X-76200Y88900D03*
X-76200Y63500D03*
X-76200Y38100D03*
X76200Y368300D03*
X76200Y342900D03*
X76200Y317500D03*
X76200Y292100D03*
X76200Y266700D03*
X76200Y241300D03*
X76200Y215900D03*
X76200Y190500D03*
X76200Y165100D03*
X76200Y139700D03*
X76200Y114300D03*
X76200Y88900D03*
X76200Y63500D03*
X76200Y38100D03*
X76200Y419100D03*
X76200Y444500D03*
X76200Y469900D03*
X76200Y495300D03*
X76200Y520700D03*
X76200Y546100D03*
X76200Y571500D03*
X76200Y596900D03*
X76200Y622300D03*
X-76200Y622300D03*
X-76200Y596900D03*
X-76200Y571500D03*
X-76200Y546100D03*
X-76200Y520700D03*
X-76200Y495300D03*
X-76200Y469900D03*
X-76200Y444500D03*
X-76200Y419100D03*
X-76200Y393700D03*
X76200Y393700D03*
D20*
X171704Y190500D03*
X163576Y190500D03*
X172974Y215900D03*
X164846Y215900D03*
D21*
X56007Y368300D03*
X45593Y368300D03*
D20*
X46736Y343154D03*
X54864Y343154D03*
X-46736Y368300D03*
X-54864Y368300D03*
X-46736Y469900D03*
X-54864Y469900D03*
X46736Y317500D03*
X54864Y317500D03*
X-46736Y444500D03*
X-54864Y444500D03*
X46736Y622300D03*
X54864Y622300D03*
D15*
X-127000Y63500D03*
X-101600Y63500D03*
X-127000Y114300D03*
X-101600Y114300D03*
D21*
X151003Y88900D03*
X161417Y88900D03*
X160147Y469900D03*
X149733Y469900D03*
X160147Y495300D03*
X149733Y495300D03*
X165227Y563880D03*
X154813Y563880D03*
D11*
X267135Y869950D03*
D22*
X267135Y920750D03*
D15*
X242570Y228600D03*
X242570Y254000D03*
X242570Y279400D03*
X242570Y304800D03*
X241300Y349250D03*
X241300Y374650D03*
X241300Y400050D03*
X241300Y425450D03*
D23*
X-25400Y736600D03*
X-304800Y850900D03*
X-241300Y901700D03*
X-215900Y723900D03*
X177800Y774700D03*
X101600Y685800D03*
X-25400Y558800D03*
X-330200Y406400D03*
X-292100Y101600D03*
X-241300Y190500D03*
X12700Y228600D03*
X-12700Y165100D03*
X-25400Y279400D03*
X-25400Y342900D03*
X215900Y88900D03*
X241300Y25400D03*
X-12700Y50800D03*
X-215900Y647700D03*
X-127000Y647700D03*
X38100Y863600D03*
X-25400Y673100D03*
X-177800Y304800D03*
X-330200Y660400D03*
X-241300Y38100D03*
X-38100Y406400D03*
X254000Y622300D03*
X0Y406400D03*
X33349Y495300D03*
X241300Y800100D03*
X63500Y902970D03*
X293142Y939800D03*
X-25400Y914400D03*
X241300Y1016000D03*
X-254000Y1016000D03*
X215900Y927100D03*
X139700Y990600D03*
X279400Y952500D03*
X101600Y825500D03*
X-25400Y838200D03*
X-129540Y840740D03*
X-109220Y840740D03*
X-88900Y840740D03*
X-88900Y786130D03*
X-109220Y795020D03*
X-130810Y789940D03*
X-129540Y740410D03*
X-111760Y739140D03*
X-90170Y739140D03*
X10160Y753110D03*
X30480Y753110D03*
X49530Y754380D03*
X177800Y63500D03*
X142989Y676389D03*
X163638Y610025D03*
X18570Y571500D03*
X20320Y792480D03*
X-38100Y774700D03*
X197906Y460718D03*
X177800Y419100D03*
X152400Y165100D03*
X177800Y139700D03*
X-9600Y647878D03*
X25400Y444500D03*
X25400Y584200D03*
X-34024Y376924D03*
X34290Y353060D03*
X38100Y381000D03*
X-80010Y831850D03*
X-45720Y490220D03*
X42648Y330200D03*
X10755Y444500D03*
X-77606Y779514D03*
X-35497Y455867D03*
X-79602Y749300D03*
X38100Y635000D03*
X60960Y704850D03*
X154940Y203200D03*
X154940Y228600D03*
X215085Y305615D03*
X175959Y103442D03*
X177871Y483614D03*
X157480Y590550D03*
X164620Y520700D03*
X166902Y547127D03*
X154940Y177800D03*
X149860Y214630D03*
M02*
