0
SECTION
2
HEADER
9
$INSUNITS
70
4
9
$ACADVER
1
AC1014
9
$HANDSEED
5
FFFF
0
ENDSEC
0
SECTION
2
TABLES
0
TABLE
2
VPORT
5
8
100
AcDbSymbolTable
0
ENDTAB
0
TABLE
2
LTYPE
5
5
100
AcDbSymbolTable
0
LTYPE
5
14
100
AcDbSymbolTableRecord
100
AcDbLinetypeTableRecord
2
BYBLOCK
70
0
0
LTYPE
5
15
100
AcDbSymbolTableRecord
100
AcDbLinetypeTableRecord
2
BYLAYER
70
0
0
LTYPE
5
16
100
AcDbSymbolTableRecord
100
AcDbLinetypeTableRecord
2
DASHED
70
0
3
Dashed __ __ __ __ __ __ __ __ __ __ __ __ __ _
72
65
73
2
40
0.75
49
0.5
74
0
49
-0.25
74
0
0
ENDTAB
0
TABLE
2
LAYER
5
2
100
AcDbSymbolTable
70
2
0
LAYER
5
50
100
AcDbSymbolTableRecord
100
AcDbLayerTableRecord
2
0
70
0
62
7
6
CONTINUOUS
0
ENDTAB
0
TABLE
2
STYLE
5
3
100
AcDbSymbolTable
70
1
0
STYLE
5
11
100
AcDbSymbolTableRecord
100
AcDbTextStyleTableRecord
2
STANDARD
70
0
0
ENDTAB
0
TABLE
2
VIEW
5
6
100
AcDbSymbolTable
70
0
0
ENDTAB
0
TABLE
2
UCS
5
7
100
AcDbSymbolTable
70
0
0
ENDTAB
0
TABLE
2
APPID
5
9
100
AcDbSymbolTable
70
2
0
APPID
5
12
100
AcDbSymbolTableRecord
100
AcDbRegAppTableRecord
2
ACAD
70
0
0
ENDTAB
0
TABLE
2
DIMSTYLE
5
A
100
AcDbSymbolTable
70
1
0
ENDTAB
0
TABLE
2
BLOCK_RECORD
5
1
100
AcDbSymbolTable
70
1
0
BLOCK_RECORD
5
1F
100
AcDbSymbolTableRecord
100
AcDbBlockTableRecord
2
*MODEL_SPACE
0
BLOCK_RECORD
5
1B
100
AcDbSymbolTableRecord
100
AcDbBlockTableRecord
2
*PAPER_SPACE
0
ENDTAB
0
ENDSEC
0
SECTION
2
BLOCKS
0
BLOCK
5
20
100
AcDbEntity
100
AcDbBlockBegin
2
*MODEL_SPACE
0
ENDBLK
5
21
100
AcDbEntity
100
AcDbBlockEnd
0
BLOCK
5
1C
100
AcDbEntity
100
AcDbBlockBegin
2
*PAPER_SPACE
0
ENDBLK
5
1D
100
AcDbEntity
100
AcDbBlockEnd
0
ENDSEC
0
SECTION
2
ENTITIES
0
ARC
5
100
100
AcDbEntity
8
0
100
AcDbCircle
10
111.99999999999997
20
116.99999999999997
30
0
40
8.0000000000000249
210
0
220
-0
230
1
100
AcDbArc
50
0
51
89.999999999999801
0
CIRCLE
5
101
100
AcDbEntity
8
0
100
AcDbCircle
10
56.55796188425078
20
26
30
0
40
1.6000000000000003
210
0
220
0
230
1
0
CIRCLE
5
102
100
AcDbEntity
8
0
100
AcDbCircle
10
83.442038115749227
20
94
30
0
40
1.6000000000000003
210
0
220
0
230
1
0
CIRCLE
5
103
100
AcDbEntity
8
0
100
AcDbCircle
10
56.557961884250773
20
94
30
0
40
1.6000000000000003
210
0
220
0
230
1
0
CIRCLE
5
104
100
AcDbEntity
8
0
100
AcDbCircle
10
83.442038115749256
20
26
30
0
40
1.6000000000000003
210
0
220
0
230
1
0
CIRCLE
5
105
100
AcDbEntity
8
0
100
AcDbCircle
10
-83.442038115749213
20
26
30
0
40
1.6000000000000003
210
0
220
0
230
1
0
CIRCLE
5
106
100
AcDbEntity
8
0
100
AcDbCircle
10
-56.557961884250773
20
94
30
0
40
1.6000000000000003
210
0
220
0
230
1
0
CIRCLE
5
107
100
AcDbEntity
8
0
100
AcDbCircle
10
-83.442038115749227
20
94
30
0
40
1.6000000000000003
210
0
220
0
230
1
0
CIRCLE
5
108
100
AcDbEntity
8
0
100
AcDbCircle
10
-56.557961884250751
20
26
30
0
40
1.6000000000000003
210
0
220
0
230
1
0
CIRCLE
5
109
100
AcDbEntity
8
0
100
AcDbCircle
10
56.55796188425078
20
-94
30
0
40
1.6000000000000003
210
0
220
0
230
1
0
CIRCLE
5
110
100
AcDbEntity
8
0
100
AcDbCircle
10
83.442038115749227
20
-25.999999999999996
30
0
40
1.6000000000000003
210
0
220
0
230
1
0
CIRCLE
5
111
100
AcDbEntity
8
0
100
AcDbCircle
10
56.557961884250773
20
-25.999999999999996
30
0
40
1.6000000000000003
210
0
220
0
230
1
0
CIRCLE
5
112
100
AcDbEntity
8
0
100
AcDbCircle
10
83.442038115749256
20
-94
30
0
40
1.6000000000000003
210
0
220
0
230
1
0
CIRCLE
5
113
100
AcDbEntity
8
0
100
AcDbCircle
10
-83.442038115749213
20
-94
30
0
40
1.6000000000000003
210
0
220
0
230
1
0
CIRCLE
5
114
100
AcDbEntity
8
0
100
AcDbCircle
10
-56.557961884250773
20
-25.999999999999996
30
0
40
1.6000000000000003
210
0
220
0
230
1
0
CIRCLE
5
115
100
AcDbEntity
8
0
100
AcDbCircle
10
-83.442038115749227
20
-25.999999999999996
30
0
40
1.6000000000000003
210
0
220
0
230
1
0
CIRCLE
5
116
100
AcDbEntity
8
0
100
AcDbCircle
10
-56.557961884250751
20
-94
30
0
40
1.6000000000000003
210
0
220
0
230
1
0
CIRCLE
5
117
100
AcDbEntity
8
0
100
AcDbCircle
10
-225.99999999999997
20
111.5
30
0
40
2.6500000000000004
210
0
220
0
230
1
0
CIRCLE
5
118
100
AcDbEntity
8
0
100
AcDbCircle
10
-140
20
65.499999999999815
30
0
40
2.6500000000000004
210
0
220
0
230
1
0
CIRCLE
5
119
100
AcDbEntity
8
0
100
AcDbCircle
10
-56.69999999999996
20
117
30
0
40
2.6500000000000004
210
0
220
0
230
1
0
CIRCLE
5
120
100
AcDbEntity
8
0
100
AcDbCircle
10
-59.999999999999993
20
-1.407691592274779e-13
30
0
40
2.6500000000000004
210
0
220
0
230
1
0
CIRCLE
5
121
100
AcDbEntity
8
0
100
AcDbCircle
10
26
20
55.999999999996135
30
0
40
2.6500000000000004
210
0
220
0
230
1
0
CIRCLE
5
122
100
AcDbEntity
8
0
100
AcDbCircle
10
67.999999999999957
20
117
30
0
40
2.6500000000000004
210
0
220
0
230
1
0
CIRCLE
5
123
100
AcDbEntity
8
0
100
AcDbCircle
10
107.99999999999994
20
117
30
0
40
2.6500000000000004
210
0
220
0
230
1
0
CIRCLE
5
124
100
AcDbEntity
8
0
100
AcDbCircle
10
107.99999999999994
20
47
30
0
40
2.6500000000000004
210
0
220
0
230
1
0
CIRCLE
5
125
100
AcDbEntity
8
0
100
AcDbCircle
10
-26
20
55.999999999992262
30
0
40
2.6500000000000004
210
0
220
0
230
1
0
CIRCLE
5
126
100
AcDbEntity
8
0
100
AcDbCircle
10
59.99999999999978
20
0
30
0
40
2.6500000000000004
210
0
220
0
230
1
0
CIRCLE
5
127
100
AcDbEntity
8
0
100
AcDbCircle
10
-152
20
117
30
0
40
2.6500000000000004
210
0
220
0
230
1
0
CIRCLE
5
128
100
AcDbEntity
8
0
100
AcDbCircle
10
-173.5
20
111.5
30
0
40
2.6500000000000004
210
0
220
0
230
1
0
CIRCLE
5
129
100
AcDbEntity
8
0
100
AcDbCircle
10
-225.99999999999997
20
-111.5
30
0
40
2.6500000000000004
210
0
220
0
230
1
0
CIRCLE
5
130
100
AcDbEntity
8
0
100
AcDbCircle
10
-140
20
-65.499999999999815
30
0
40
2.6500000000000004
210
0
220
0
230
1
0
CIRCLE
5
131
100
AcDbEntity
8
0
100
AcDbCircle
10
-56.69999999999996
20
-117
30
0
40
2.6500000000000004
210
0
220
0
230
1
0
CIRCLE
5
132
100
AcDbEntity
8
0
100
AcDbCircle
10
26
20
-55.999999999996135
30
0
40
2.6500000000000004
210
0
220
0
230
1
0
CIRCLE
5
133
100
AcDbEntity
8
0
100
AcDbCircle
10
67.999999999999957
20
-117
30
0
40
2.6500000000000004
210
0
220
0
230
1
0
CIRCLE
5
134
100
AcDbEntity
8
0
100
AcDbCircle
10
107.99999999999994
20
-117
30
0
40
2.6500000000000004
210
0
220
0
230
1
0
CIRCLE
5
135
100
AcDbEntity
8
0
100
AcDbCircle
10
107.99999999999994
20
-47
30
0
40
2.6500000000000004
210
0
220
0
230
1
0
CIRCLE
5
136
100
AcDbEntity
8
0
100
AcDbCircle
10
-26
20
-55.999999999992262
30
0
40
2.6500000000000004
210
0
220
0
230
1
0
CIRCLE
5
137
100
AcDbEntity
8
0
100
AcDbCircle
10
-152
20
-117
30
0
40
2.6500000000000004
210
0
220
0
230
1
0
CIRCLE
5
138
100
AcDbEntity
8
0
100
AcDbCircle
10
-173.5
20
-111.5
30
0
40
2.6500000000000004
210
0
220
0
230
1
0
LWPOLYLINE
5
139
100
AcDbEntity
8
0
100
AcDbPolyline
90
32
70
1
43
0.0
10
112.00000000000003
20
-125
42
0.41421356237309309
10
120.00000000000001
20
-117
10
120
20
-3.6055512754640162
42
0.14806873911203447
10
119.66410058867569
20
-2.4961508830135521
10
118.36980013081683
20
-0.55470019622524203
42
-0.30277563773199562
10
118.36980013081683
20
0.55470019622521949
10
119.66410058867569
20
2.4961508830135504
42
0.14806873911203611
10
120
20
3.6055512754640171
10
120
20
117
42
0.4142135623730937
10
112
20
125
10
3.6055512754640162
20
125
42
0.14806873911203555
10
2.4961508830135544
20
124.66410058867569
10
0.55470019622522371
20
123.36980013081683
42
-0.30277563773198973
10
-0.55470019622522171
20
123.36980013081683
10
-2.4961508830135526
20
124.66410058867569
42
0.14806873911203572
10
-3.6055512754640162
20
125
10
-232.00000000000003
20
125
42
0.41421356237309243
10
-240.00000000000003
20
117
10
-240
20
3.6055512754639452
42
0.14806873911200688
10
-239.66410058867567
20
2.4961508830134922
10
-238.36980013081683
20
0.55470019622520406
42
-0.30277563773199123
10
-238.36980013081683
20
-0.55470019622524169
10
-239.66410058867569
20
-2.4961508830135593
42
0.14806873911200744
10
-240
20
-3.6055512754640162
10
-240.00000000000003
20
-117
42
0.41421356237309243
10
-232.00000000000003
20
-125
10
-3.6055512754640162
20
-125
42
0.1480687391120348
10
-2.4961508830135606
20
-124.66410058867569
10
-0.55470019622522981
20
-123.36980013081683
42
-0.30277563773199145
10
0.55470019622521949
20
-123.36980013081683
10
2.4961508830135504
20
-124.66410058867569
42
0.14806873911203322
10
3.6055512754640162
20
-125
0
LWPOLYLINE
5
140
100
AcDbEntity
8
0
100
AcDbPolyline
90
8
70
1
43
0.0
10
55
20
75.299999999999997
10
85
20
75.299999999999997
42
-0.41421356237309509
10
91.299999999999983
20
69
10
91.300000000000011
20
51.000000000000007
42
-0.4142135623730942
10
85
20
44.700000000000017
10
55
20
44.700000000000003
42
-0.41421356237309337
10
48.700000000000003
20
51.000000000000007
10
48.700000000000003
20
69
42
-0.4142135623730942
0
LWPOLYLINE
5
141
100
AcDbEntity
8
0
100
AcDbPolyline
90
8
70
1
43
0.0
10
-85
20
75.299999999999997
10
-55
20
75.299999999999997
42
-0.4142135623730942
10
-48.700000000000003
20
69
10
-48.700000000000003
20
51.000000000000007
42
-0.41421356237309465
10
-55
20
44.700000000000017
10
-85
20
44.699999999999996
42
-0.4142135623730942
10
-91.299999999999983
20
51.000000000000007
10
-91.299999999999983
20
69
42
-0.41421356237309509
0
LWPOLYLINE
5
142
100
AcDbEntity
8
0
100
AcDbPolyline
90
8
70
1
43
0.0
10
55
20
-44.699999999999996
10
85
20
-44.700000000000003
42
-0.41421356237309509
10
91.299999999999983
20
-51
10
91.300000000000011
20
-69
42
-0.4142135623730942
10
85
20
-75.299999999999983
10
55
20
-75.299999999999997
42
-0.41421356237309337
10
48.700000000000003
20
-69
10
48.700000000000003
20
-51
42
-0.4142135623730942
0
LWPOLYLINE
5
143
100
AcDbEntity
8
0
100
AcDbPolyline
90
8
70
1
43
0.0
10
-85
20
-44.699999999999996
10
-55
20
-44.699999999999996
42
-0.4142135623730942
10
-48.700000000000003
20
-51
10
-48.700000000000003
20
-69
42
-0.41421356237309465
10
-55
20
-75.299999999999983
10
-85
20
-75.299999999999997
42
-0.4142135623730942
10
-91.299999999999983
20
-69
10
-91.299999999999983
20
-51
42
-0.41421356237309509
0
CIRCLE
5
144
100
AcDbEntity
8
0
100
AcDbCircle
10
56.646125374605028
20
25.999999999999996
30
0
40
1.6000000000000003
210
0
220
0
230
1
0
CIRCLE
5
145
100
AcDbEntity
8
0
100
AcDbCircle
10
83.35387462539498
20
94
30
0
40
1.6000000000000003
210
0
220
0
230
1
0
CIRCLE
5
146
100
AcDbEntity
8
0
100
AcDbCircle
10
56.646125374605028
20
94
30
0
40
1.6000000000000003
210
0
220
0
230
1
0
CIRCLE
5
147
100
AcDbEntity
8
0
100
AcDbCircle
10
83.35387462539498
20
25.999999999999996
30
0
40
1.6000000000000003
210
0
220
0
230
1
0
CIRCLE
5
148
100
AcDbEntity
8
0
100
AcDbCircle
10
-83.35387462539498
20
25.999999999999996
30
0
40
1.6000000000000003
210
0
220
0
230
1
0
CIRCLE
5
149
100
AcDbEntity
8
0
100
AcDbCircle
10
-56.646125374605028
20
94
30
0
40
1.6000000000000003
210
0
220
0
230
1
0
CIRCLE
5
150
100
AcDbEntity
8
0
100
AcDbCircle
10
-83.35387462539498
20
94
30
0
40
1.6000000000000003
210
0
220
0
230
1
0
CIRCLE
5
151
100
AcDbEntity
8
0
100
AcDbCircle
10
-56.646125374605028
20
25.999999999999996
30
0
40
1.6000000000000003
210
0
220
0
230
1
0
CIRCLE
5
152
100
AcDbEntity
8
0
100
AcDbCircle
10
56.646125374605028
20
-94
30
0
40
1.6000000000000003
210
0
220
0
230
1
0
CIRCLE
5
153
100
AcDbEntity
8
0
100
AcDbCircle
10
83.35387462539498
20
-25.999999999999996
30
0
40
1.6000000000000003
210
0
220
0
230
1
0
CIRCLE
5
154
100
AcDbEntity
8
0
100
AcDbCircle
10
56.646125374605028
20
-25.999999999999996
30
0
40
1.6000000000000003
210
0
220
0
230
1
0
CIRCLE
5
155
100
AcDbEntity
8
0
100
AcDbCircle
10
83.35387462539498
20
-94
30
0
40
1.6000000000000003
210
0
220
0
230
1
0
CIRCLE
5
156
100
AcDbEntity
8
0
100
AcDbCircle
10
-83.35387462539498
20
-94
30
0
40
1.6000000000000003
210
0
220
0
230
1
0
CIRCLE
5
157
100
AcDbEntity
8
0
100
AcDbCircle
10
-56.646125374605028
20
-25.999999999999996
30
0
40
1.6000000000000003
210
0
220
0
230
1
0
CIRCLE
5
158
100
AcDbEntity
8
0
100
AcDbCircle
10
-83.35387462539498
20
-25.999999999999996
30
0
40
1.6000000000000003
210
0
220
0
230
1
0
CIRCLE
5
159
100
AcDbEntity
8
0
100
AcDbCircle
10
-56.646125374605028
20
-94
30
0
40
1.6000000000000003
210
0
220
0
230
1
0
LWPOLYLINE
5
160
100
AcDbEntity
8
0
100
AcDbPolyline
90
20
70
1
43
0.0
10
14.999999999999998
20
26.733200530681511
42
0.27603881589364071
10
17.105263157894733
20
23.210421471590664
42
-0.27603881589364171
10
25
20
9.9999999999999982
10
25.000000000000004
20
-9.9999999999999947
42
-0.27603881589364182
10
17.105263157894733
20
-23.210421471590671
42
0.2760388158936411
10
15
20
-26.733200530681511
10
15.000000000000004
20
-66
42
-0.41421356237309537
10
10.999999999999996
20
-70
10
-11
20
-70
42
-0.41421356237309509
10
-15.000000000000002
20
-66
10
-15
20
-26.733200530681511
42
0.27603881589364071
10
-17.105263157894733
20
-23.210421471590664
42
-0.27603881589364171
10
-25
20
-9.9999999999999982
10
-25.000000000000004
20
9.9999999999999947
42
-0.27603881589364182
10
-17.105263157894733
20
23.210421471590671
42
0.2760388158936411
10
-15
20
26.733200530681511
10
-15.000000000000004
20
66
42
-0.41421356237309509
10
-11
20
70
10
11
20
70
42
-0.41421356237309509
10
15.000000000000002
20
66
0
CIRCLE
5
161
100
AcDbEntity
8
0
100
AcDbCircle
10
-225.99999999999997
20
111.5
30
0
40
2.6500000000000004
210
0
220
0
230
1
0
CIRCLE
5
162
100
AcDbEntity
8
0
100
AcDbCircle
10
-140
20
65.499999999999815
30
0
40
2.6500000000000004
210
0
220
0
230
1
0
CIRCLE
5
163
100
AcDbEntity
8
0
100
AcDbCircle
10
-56.69999999999996
20
117
30
0
40
2.6500000000000004
210
0
220
0
230
1
0
CIRCLE
5
164
100
AcDbEntity
8
0
100
AcDbCircle
10
-59.999999999999993
20
-1.407691592274779e-13
30
0
40
2.6500000000000004
210
0
220
0
230
1
0
CIRCLE
5
165
100
AcDbEntity
8
0
100
AcDbCircle
10
26
20
55.999999999996135
30
0
40
2.6500000000000004
210
0
220
0
230
1
0
CIRCLE
5
166
100
AcDbEntity
8
0
100
AcDbCircle
10
67.999999999999957
20
117
30
0
40
2.6500000000000004
210
0
220
0
230
1
0
CIRCLE
5
167
100
AcDbEntity
8
0
100
AcDbCircle
10
107.99999999999994
20
117
30
0
40
2.6500000000000004
210
0
220
0
230
1
0
CIRCLE
5
168
100
AcDbEntity
8
0
100
AcDbCircle
10
107.99999999999994
20
47
30
0
40
2.6500000000000004
210
0
220
0
230
1
0
CIRCLE
5
169
100
AcDbEntity
8
0
100
AcDbCircle
10
-26
20
55.999999999992262
30
0
40
2.6500000000000004
210
0
220
0
230
1
0
CIRCLE
5
170
100
AcDbEntity
8
0
100
AcDbCircle
10
59.99999999999978
20
0
30
0
40
2.6500000000000004
210
0
220
0
230
1
0
CIRCLE
5
171
100
AcDbEntity
8
0
100
AcDbCircle
10
-152
20
117
30
0
40
2.6500000000000004
210
0
220
0
230
1
0
CIRCLE
5
172
100
AcDbEntity
8
0
100
AcDbCircle
10
-173.5
20
111.5
30
0
40
2.6500000000000004
210
0
220
0
230
1
0
CIRCLE
5
173
100
AcDbEntity
8
0
100
AcDbCircle
10
-225.99999999999997
20
-111.5
30
0
40
2.6500000000000004
210
0
220
0
230
1
0
CIRCLE
5
174
100
AcDbEntity
8
0
100
AcDbCircle
10
-140
20
-65.499999999999815
30
0
40
2.6500000000000004
210
0
220
0
230
1
0
CIRCLE
5
175
100
AcDbEntity
8
0
100
AcDbCircle
10
-56.69999999999996
20
-117
30
0
40
2.6500000000000004
210
0
220
0
230
1
0
CIRCLE
5
176
100
AcDbEntity
8
0
100
AcDbCircle
10
26
20
-55.999999999996135
30
0
40
2.6500000000000004
210
0
220
0
230
1
0
CIRCLE
5
177
100
AcDbEntity
8
0
100
AcDbCircle
10
67.999999999999957
20
-117
30
0
40
2.6500000000000004
210
0
220
0
230
1
0
CIRCLE
5
178
100
AcDbEntity
8
0
100
AcDbCircle
10
107.99999999999994
20
-117
30
0
40
2.6500000000000004
210
0
220
0
230
1
0
CIRCLE
5
179
100
AcDbEntity
8
0
100
AcDbCircle
10
107.99999999999994
20
-47
30
0
40
2.6500000000000004
210
0
220
0
230
1
0
CIRCLE
5
180
100
AcDbEntity
8
0
100
AcDbCircle
10
-26
20
-55.999999999992262
30
0
40
2.6500000000000004
210
0
220
0
230
1
0
CIRCLE
5
181
100
AcDbEntity
8
0
100
AcDbCircle
10
-152
20
-117
30
0
40
2.6500000000000004
210
0
220
0
230
1
0
CIRCLE
5
182
100
AcDbEntity
8
0
100
AcDbCircle
10
-173.5
20
-111.5
30
0
40
2.6500000000000004
210
0
220
0
230
1
0
ENDSEC
0
SECTION
2
OBJECTS
0
DICTIONARY
5
C
100
AcDbDictionary
3
ACAD_GROUP
350
D
3
ACAD_MLINESTYLE
350
17
0
DICTIONARY
5
D
100
AcDbDictionary
0
DICTIONARY
5
1A
330
C
100
AcDbDictionary
0
DICTIONARY
5
17
100
AcDbDictionary
0
ENDSEC
0
EOF
