0
SECTION
2
HEADER
9
$INSUNITS
70
4
9
$ACADVER
1
AC1014
9
$HANDSEED
5
FFFF
0
ENDSEC
0
SECTION
2
TABLES
0
TABLE
2
VPORT
5
8
100
AcDbSymbolTable
0
ENDTAB
0
TABLE
2
LTYPE
5
5
100
AcDbSymbolTable
0
LTYPE
5
14
100
AcDbSymbolTableRecord
100
AcDbLinetypeTableRecord
2
BYBLOCK
70
0
0
LTYPE
5
15
100
AcDbSymbolTableRecord
100
AcDbLinetypeTableRecord
2
BYLAYER
70
0
0
LTYPE
5
16
100
AcDbSymbolTableRecord
100
AcDbLinetypeTableRecord
2
DASHED
70
0
3
Dashed __ __ __ __ __ __ __ __ __ __ __ __ __ _
72
65
73
2
40
0.75
49
0.5
74
0
49
-0.25
74
0
0
ENDTAB
0
TABLE
2
LAYER
5
2
100
AcDbSymbolTable
70
2
0
LAYER
5
50
100
AcDbSymbolTableRecord
100
AcDbLayerTableRecord
2
0
70
0
62
7
6
CONTINUOUS
0
ENDTAB
0
TABLE
2
STYLE
5
3
100
AcDbSymbolTable
70
1
0
STYLE
5
11
100
AcDbSymbolTableRecord
100
AcDbTextStyleTableRecord
2
STANDARD
70
0
0
ENDTAB
0
TABLE
2
VIEW
5
6
100
AcDbSymbolTable
70
0
0
ENDTAB
0
TABLE
2
UCS
5
7
100
AcDbSymbolTable
70
0
0
ENDTAB
0
TABLE
2
APPID
5
9
100
AcDbSymbolTable
70
2
0
APPID
5
12
100
AcDbSymbolTableRecord
100
AcDbRegAppTableRecord
2
ACAD
70
0
0
ENDTAB
0
TABLE
2
DIMSTYLE
5
A
100
AcDbSymbolTable
70
1
0
ENDTAB
0
TABLE
2
BLOCK_RECORD
5
1
100
AcDbSymbolTable
70
1
0
BLOCK_RECORD
5
1F
100
AcDbSymbolTableRecord
100
AcDbBlockTableRecord
2
*MODEL_SPACE
0
BLOCK_RECORD
5
1B
100
AcDbSymbolTableRecord
100
AcDbBlockTableRecord
2
*PAPER_SPACE
0
ENDTAB
0
ENDSEC
0
SECTION
2
BLOCKS
0
BLOCK
5
20
100
AcDbEntity
100
AcDbBlockBegin
2
*MODEL_SPACE
0
ENDBLK
5
21
100
AcDbEntity
100
AcDbBlockEnd
0
BLOCK
5
1C
100
AcDbEntity
100
AcDbBlockBegin
2
*PAPER_SPACE
0
ENDBLK
5
1D
100
AcDbEntity
100
AcDbBlockEnd
0
ENDSEC
0
SECTION
2
ENTITIES
0
LWPOLYLINE
5
100
100
AcDbEntity
8
0
100
AcDbPolyline
90
16
70
1
43
0.0
10
14.000000000000002
20
-12.499999999999998
42
0.41421356237309509
10
11
20
-15.499999999999998
10
11
20
-20
42
-0.41421356237309509
10
9
20
-22
10
-8.9999999999999982
20
-22
42
-0.41421356237309537
10
-11
20
-20
10
-11
20
-15.5
42
0.4142135623730952
10
-14.000000000000002
20
-12.499999999999998
10
-15.500000000000005
20
-12.499999999999998
42
-0.4142135623730947
10
-17.500000000000004
20
-10.499999999999998
10
-17.500000000000004
20
10.499999999999998
42
-0.41421356237309509
10
-15.500000000000004
20
12.499999999999998
10
15.500000000000004
20
12.499999999999998
42
-0.41421356237309509
10
17.500000000000004
20
10.499999999999998
10
17.500000000000004
20
-10.499999999999998
42
-0.41421356237309509
10
15.500000000000004
20
-12.499999999999998
0
LWPOLYLINE
5
101
100
AcDbEntity
8
0
100
AcDbPolyline
90
16
70
1
43
0.0
10
-120.82124728582826
20
40.000000000000036
42
0.51310055979649993
10
-123.66372412278986
20
36.040664067525519
10
-98.688724122789921
20
-37.959335932474502
42
0.32178921424031265
10
-95.846247285828312
20
-39.999999999999957
10
-71.660254037844425
20
-39.999999999999972
42
-0.26794919243112403
10
-69.062177826491094
20
-41.499999999999979
10
-63.866025403784441
20
-50.499999999999972
42
0.26794919243112109
10
-61.267949192431139
20
-51.999999999999964
10
61.267949192431139
20
-51.999999999999964
42
0.26794919243112436
10
63.866025403784462
20
-50.499999999999972
10
69.062177826491109
20
-41.499999999999957
42
-0.26794919243112214
10
71.660254037844425
20
-39.999999999999964
10
95.846247285828184
20
-39.999999999999964
42
0.32178921424031437
10
98.688724122789779
20
-37.959335932474488
10
123.66372412278984
20
36.040664067525427
42
0.51310055979650582
10
120.82124728582824
20
39.999999999999979
0
CIRCLE
5
102
100
AcDbEntity
8
0
100
AcDbCircle
10
-14.999999999999998
20
-17
30
0
40
1.7000000000000002
210
0
220
0
230
1
0
CIRCLE
5
103
100
AcDbEntity
8
0
100
AcDbCircle
10
15.000000000000007
20
16.999999999999996
30
0
40
1.7000000000000002
210
0
220
0
230
1
0
CIRCLE
5
104
100
AcDbEntity
8
0
100
AcDbCircle
10
-93
20
33.184000000000005
30
0
40
1.7000000000000002
210
0
220
0
230
1
0
CIRCLE
5
105
100
AcDbEntity
8
0
100
AcDbCircle
10
93.000000000000028
20
-33.183999999999997
30
0
40
1.7000000000000002
210
0
220
0
230
1
0
CIRCLE
5
106
100
AcDbEntity
8
0
100
AcDbCircle
10
-92.999999999999986
20
-33.183999999999997
30
0
40
1.7000000000000002
210
0
220
0
230
1
0
CIRCLE
5
107
100
AcDbEntity
8
0
100
AcDbCircle
10
93.000000000000043
20
33.183999999999997
30
0
40
1.7000000000000002
210
0
220
0
230
1
0
CIRCLE
5
108
100
AcDbEntity
8
0
100
AcDbCircle
10
15.000000000000002
20
-16.999999999999996
30
0
40
1.7000000000000002
210
0
220
0
230
1
0
CIRCLE
5
109
100
AcDbEntity
8
0
100
AcDbCircle
10
-14.999999999999998
20
17
30
0
40
1.7000000000000002
210
0
220
0
230
1
0
CIRCLE
5
110
100
AcDbEntity
8
0
100
AcDbCircle
10
-70
20
-6.0000000000000009
30
0
40
1.2000000000000011
210
0
220
-0
230
1
0
CIRCLE
5
111
100
AcDbEntity
8
0
100
AcDbCircle
10
70
20
0
30
0
40
7.9999999999999982
210
0
220
-0
230
1
0
CIRCLE
5
112
100
AcDbEntity
8
0
100
AcDbCircle
10
-70
20
0
30
0
40
3.7000000000000006
210
0
220
-0
230
1
0
ENDSEC
0
SECTION
2
OBJECTS
0
DICTIONARY
5
C
100
AcDbDictionary
3
ACAD_GROUP
350
D
3
ACAD_MLINESTYLE
350
17
0
DICTIONARY
5
D
100
AcDbDictionary
0
DICTIONARY
5
1A
330
C
100
AcDbDictionary
0
DICTIONARY
5
17
100
AcDbDictionary
0
ENDSEC
0
EOF
