0
SECTION
2
HEADER
9
$INSUNITS
70
4
9
$ACADVER
1
AC1014
9
$HANDSEED
5
FFFF
0
ENDSEC
0
SECTION
2
TABLES
0
TABLE
2
VPORT
5
8
100
AcDbSymbolTable
0
ENDTAB
0
TABLE
2
LTYPE
5
5
100
AcDbSymbolTable
0
LTYPE
5
14
100
AcDbSymbolTableRecord
100
AcDbLinetypeTableRecord
2
BYBLOCK
70
0
0
LTYPE
5
15
100
AcDbSymbolTableRecord
100
AcDbLinetypeTableRecord
2
BYLAYER
70
0
0
LTYPE
5
16
100
AcDbSymbolTableRecord
100
AcDbLinetypeTableRecord
2
DASHED
70
0
3
Dashed __ __ __ __ __ __ __ __ __ __ __ __ __ _
72
65
73
2
40
0.75
49
0.5
74
0
49
-0.25
74
0
0
ENDTAB
0
TABLE
2
LAYER
5
2
100
AcDbSymbolTable
70
3
0
LAYER
5
50
100
AcDbSymbolTableRecord
100
AcDbLayerTableRecord
2
1
70
0
62
7
6
DASHED
0
LAYER
5
51
100
AcDbSymbolTableRecord
100
AcDbLayerTableRecord
2
0
70
0
62
7
6
CONTINUOUS
0
ENDTAB
0
TABLE
2
STYLE
5
3
100
AcDbSymbolTable
70
1
0
STYLE
5
11
100
AcDbSymbolTableRecord
100
AcDbTextStyleTableRecord
2
STANDARD
70
0
0
ENDTAB
0
TABLE
2
VIEW
5
6
100
AcDbSymbolTable
70
0
0
ENDTAB
0
TABLE
2
UCS
5
7
100
AcDbSymbolTable
70
0
0
ENDTAB
0
TABLE
2
APPID
5
9
100
AcDbSymbolTable
70
2
0
APPID
5
12
100
AcDbSymbolTableRecord
100
AcDbRegAppTableRecord
2
ACAD
70
0
0
ENDTAB
0
TABLE
2
DIMSTYLE
5
A
100
AcDbSymbolTable
70
1
0
ENDTAB
0
TABLE
2
BLOCK_RECORD
5
1
100
AcDbSymbolTable
70
1
0
BLOCK_RECORD
5
1F
100
AcDbSymbolTableRecord
100
AcDbBlockTableRecord
2
*MODEL_SPACE
0
BLOCK_RECORD
5
1B
100
AcDbSymbolTableRecord
100
AcDbBlockTableRecord
2
*PAPER_SPACE
0
ENDTAB
0
ENDSEC
0
SECTION
2
BLOCKS
0
BLOCK
5
20
100
AcDbEntity
100
AcDbBlockBegin
2
*MODEL_SPACE
0
ENDBLK
5
21
100
AcDbEntity
100
AcDbBlockEnd
0
BLOCK
5
1C
100
AcDbEntity
100
AcDbBlockBegin
2
*PAPER_SPACE
0
ENDBLK
5
1D
100
AcDbEntity
100
AcDbBlockEnd
0
ENDSEC
0
SECTION
2
ENTITIES
0
CIRCLE
5
100
100
AcDbEntity
8
0
100
AcDbCircle
10
22.630332511376618
20
-142.48556512670567
30
0
40
1.7499999999999984
210
-6.1166053000874389e-31
220
-1.6653345369377348e-16
230
1
0
CIRCLE
5
101
100
AcDbEntity
8
0
100
AcDbCircle
10
-22.630332511374334
20
-142.48556512670578
30
-3.5527136788005009e-14
40
1.7499999999999984
210
-6.1166053000874389e-31
220
-1.6653345369377348e-16
230
1
0
CIRCLE
5
102
100
AcDbEntity
8
0
100
AcDbCircle
10
22.630332511376473
20
-91.94556512670539
30
3.5527136788005009e-14
40
1.7499999999999984
210
-6.1166053000874389e-31
220
-1.6653345369377348e-16
230
1
0
CIRCLE
5
103
100
AcDbEntity
8
0
100
AcDbCircle
10
-22.630332511374547
20
-91.945565126705461
30
0
40
1.7499999999999984
210
-6.1166053000874389e-31
220
-1.6653345369377348e-16
230
1
0
CIRCLE
5
104
100
AcDbEntity
8
0
100
AcDbCircle
10
13.349999999999946
20
-112.66066542829748
30
0
40
1.25
210
-4.0879096909040454e-31
220
-2.2204460492503131e-16
230
1
0
CIRCLE
5
105
100
AcDbEntity
8
0
100
AcDbCircle
10
-13.350000000000053
20
-112.66066542829745
30
0
40
1.25
210
-4.0879096909040454e-31
220
-2.2204460492503131e-16
230
1
0
LWPOLYLINE
5
106
100
AcDbEntity
8
0
100
AcDbPolyline
90
8
70
1
43
0.0
10
-10.600000000000055
20
-119.96066542829749
10
-10.600000000000026
20
-107.66066542829748
42
-0.41421356237309509
10
-8.6000000000000352
20
-105.66066542829748
10
8.5999999999999659
20
-105.66066542829746
42
-0.41421356237309259
10
10.599999999999968
20
-107.66066542829745
10
10.599999999999977
20
-119.96066542829746
42
-0.41421356237309509
10
8.5999999999999837
20
-121.96066542829746
10
-8.6000000000000547
20
-121.96066542829746
42
-0.41421356237309243
0
CIRCLE
5
107
100
AcDbEntity
8
0
100
AcDbCircle
10
13.349999999999945
20
-131.26066542829744
30
-3.5527136788005009e-14
40
1.25
210
-4.0879096909040454e-31
220
-2.2204460492503131e-16
230
1
0
CIRCLE
5
108
100
AcDbEntity
8
0
100
AcDbCircle
10
-13.350000000000058
20
-131.26066542829747
30
0
40
1.25
210
-4.0879096909040454e-31
220
-2.2204460492503131e-16
230
1
0
CIRCLE
5
109
100
AcDbEntity
8
0
100
AcDbCircle
10
70.000000000000909
20
-115.96066542829797
30
0
40
1.2000000000000013
210
-6.9318657669295645e-32
220
-1.6653345369377348e-16
230
1
0
CIRCLE
5
110
100
AcDbEntity
8
0
100
AcDbCircle
10
69.999999999998892
20
-121.96066542829796
30
0
40
3.7000000000000011
210
-4.6273182786189173e-31
220
-5.5511151231257839e-17
230
1
0
CIRCLE
5
111
100
AcDbEntity
8
0
100
AcDbCircle
10
92.999999999999986
20
-86.776899244224012
30
3.5527136788005009e-14
40
1.7500000000000071
210
-1.376200329206813e-31
220
-2.2204460492503131e-16
230
1
0
CIRCLE
5
112
100
AcDbEntity
8
0
100
AcDbCircle
10
93.000000000001165
20
-153.14443161237082
30
0
40
1.7500000000000071
210
-1.376200329206813e-31
220
-2.2204460492503131e-16
230
1
0
CIRCLE
5
113
100
AcDbEntity
8
0
100
AcDbCircle
10
-92.999999999998849
20
-153.14443161237142
30
0
40
1.7500000000000071
210
-1.376200329206813e-31
220
-2.2204460492503131e-16
230
1
0
CIRCLE
5
114
100
AcDbEntity
8
0
100
AcDbCircle
10
-93.000000000000028
20
-86.776899244223983
30
0
40
1.7500000000000071
210
-1.376200329206813e-31
220
-2.2204460492503131e-16
230
1
0
CIRCLE
5
115
100
AcDbEntity
8
0
100
AcDbCircle
10
-70.000000000001108
20
-121.96066542829743
30
3.5527136788005009e-14
40
7.9999999999999982
210
2.3317579881957802e-31
220
-1.1102230246251565e-16
230
1
0
LWPOLYLINE
5
116
100
AcDbEntity
8
0
100
AcDbPolyline
90
20
70
1
43
0.0
10
-71.660254037844396
20
-81.776899244223983
10
-95.878679656440383
20
-81.776899244224012
42
0.31783724519578171
10
-98.707106781186539
20
-83.776899244223998
10
-124.82842712474621
20
-157.6591502381323
42
0.085164233174746626
10
-125.00000000000003
20
-158.65915023813233
10
-124.99999999999883
20
-159.14443161237156
42
0.41421356237308465
10
-121.99999999999882
20
-162.14443161237153
10
122.00000000000087
20
-162.14443161237088
42
0.41421356237308288
10
125.00000000000087
20
-159.14443161237091
10
124.99999999999964
20
-158.65915023813247
42
0.085164233174740006
10
124.82842712474584
20
-157.65915023813247
10
98.707106781186539
20
-83.776899244224055
42
0.31783724519577089
10
95.87867965644034
20
-81.776899244224026
10
71.660254037844439
20
-81.776899244224026
42
-0.26794919243112109
10
69.062177826491123
20
-80.27689924422404
10
63.86602540378442
20
-71.276899244224211
42
0.26794919243112131
10
61.267949192431146
20
-69.776899244224225
10
-61.267949192431146
20
-69.776899244224154
42
0.26794919243111726
10
-63.866025403784448
20
-71.276899244224154
10
-69.062177826491066
20
-80.276899244223969
42
-0.26794919243112503
0
ENDSEC
0
SECTION
2
OBJECTS
0
DICTIONARY
5
C
100
AcDbDictionary
3
ACAD_GROUP
350
D
3
ACAD_MLINESTYLE
350
17
0
DICTIONARY
5
D
100
AcDbDictionary
0
DICTIONARY
5
1A
330
C
100
AcDbDictionary
0
DICTIONARY
5
17
100
AcDbDictionary
0
ENDSEC
0
EOF
