G04 EAGLE Gerber RS-274X export*
G75*
%MOMM*%
%FSLAX34Y34*%
%LPD*%
%INBottom Copper*%
%IPPOS*%
%AMOC8*
5,1,8,0,0,1.08239X$1,22.5*%
G01*
G04 Define Apertures*
%ADD10C,1.879600*%
%ADD11R,1.270000X1.270000*%
%ADD12C,1.270000*%
%ADD13C,0.756400*%
%ADD14C,0.304800*%
%ADD15C,0.203200*%
G36*
X110149Y-194985D02*
X110000Y-195000D01*
X-110000Y-195000D01*
X-110149Y-194985D01*
X-115597Y-193902D01*
X-115872Y-193788D01*
X-120491Y-190701D01*
X-120701Y-190491D01*
X-123788Y-185872D01*
X-123902Y-185597D01*
X-124985Y-180149D01*
X-125000Y-180000D01*
X-125000Y130000D01*
X-124985Y130149D01*
X-123902Y135597D01*
X-123788Y135872D01*
X-120701Y140491D01*
X-120491Y140701D01*
X-115872Y143788D01*
X-115597Y143902D01*
X-110149Y144985D01*
X-110000Y145000D01*
X110000Y145000D01*
X110149Y144985D01*
X115597Y143902D01*
X115872Y143788D01*
X120491Y140701D01*
X120701Y140491D01*
X123788Y135872D01*
X123902Y135597D01*
X124985Y130149D01*
X125000Y130000D01*
X125000Y-180000D01*
X124985Y-180149D01*
X123902Y-185597D01*
X123788Y-185872D01*
X120701Y-190491D01*
X120491Y-190701D01*
X115872Y-193788D01*
X115597Y-193902D01*
X110149Y-194985D01*
G37*
%LPC*%
G36*
X101718Y108500D02*
X108282Y108500D01*
X114347Y111012D01*
X118988Y115654D01*
X121500Y121718D01*
X121500Y128282D01*
X118988Y134347D01*
X114347Y138988D01*
X108282Y141500D01*
X101718Y141500D01*
X95654Y138988D01*
X91012Y134347D01*
X88500Y128282D01*
X88500Y121718D01*
X91012Y115654D01*
X95654Y111012D01*
X101718Y108500D01*
G37*
G36*
X-108282Y108500D02*
X-101718Y108500D01*
X-95654Y111012D01*
X-91012Y115654D01*
X-88500Y121718D01*
X-88500Y128282D01*
X-91012Y134347D01*
X-95654Y138988D01*
X-101718Y141500D01*
X-108282Y141500D01*
X-114347Y138988D01*
X-118988Y134347D01*
X-121500Y128282D01*
X-121500Y121718D01*
X-118988Y115654D01*
X-114347Y111012D01*
X-108282Y108500D01*
G37*
G36*
X-40801Y-93138D02*
X40547Y-93138D01*
X45225Y-90437D01*
X47926Y-85759D01*
X47926Y-84269D01*
X47975Y-84000D01*
X48136Y-83743D01*
X48385Y-83569D01*
X48682Y-83507D01*
X48980Y-83565D01*
X51774Y-84722D01*
X54906Y-84722D01*
X57800Y-83523D01*
X60015Y-81308D01*
X61214Y-78414D01*
X61214Y-75282D01*
X60015Y-72388D01*
X57800Y-70173D01*
X54906Y-68974D01*
X51774Y-68974D01*
X48980Y-70131D01*
X48712Y-70189D01*
X48413Y-70138D01*
X48158Y-69975D01*
X47986Y-69725D01*
X47926Y-69427D01*
X47926Y-66469D01*
X47975Y-66200D01*
X48136Y-65943D01*
X48385Y-65769D01*
X48682Y-65707D01*
X48980Y-65765D01*
X51774Y-66922D01*
X54906Y-66922D01*
X57800Y-65723D01*
X60015Y-63508D01*
X61214Y-60614D01*
X61214Y-57482D01*
X60015Y-54588D01*
X57800Y-52373D01*
X54906Y-51174D01*
X51774Y-51174D01*
X48980Y-52331D01*
X48712Y-52389D01*
X48413Y-52338D01*
X48158Y-52175D01*
X47986Y-51925D01*
X47926Y-51627D01*
X47926Y-48669D01*
X47975Y-48400D01*
X48136Y-48143D01*
X48385Y-47969D01*
X48682Y-47907D01*
X48980Y-47965D01*
X51774Y-49122D01*
X54906Y-49122D01*
X57800Y-47923D01*
X60015Y-45708D01*
X61214Y-42814D01*
X61214Y-39682D01*
X60015Y-36788D01*
X57800Y-34573D01*
X54906Y-33374D01*
X51774Y-33374D01*
X48980Y-34531D01*
X48712Y-34589D01*
X48413Y-34538D01*
X48158Y-34375D01*
X47986Y-34125D01*
X47926Y-33827D01*
X47926Y-30869D01*
X47975Y-30600D01*
X48136Y-30343D01*
X48385Y-30169D01*
X48682Y-30107D01*
X48980Y-30165D01*
X51774Y-31322D01*
X54906Y-31322D01*
X57800Y-30123D01*
X60015Y-27908D01*
X61214Y-25014D01*
X61214Y-21882D01*
X60015Y-18988D01*
X57800Y-16773D01*
X54906Y-15574D01*
X51774Y-15574D01*
X48980Y-16731D01*
X48712Y-16789D01*
X48413Y-16738D01*
X48158Y-16575D01*
X47986Y-16325D01*
X47926Y-16027D01*
X47926Y-13069D01*
X47975Y-12800D01*
X48136Y-12543D01*
X48385Y-12369D01*
X48682Y-12307D01*
X48980Y-12365D01*
X51774Y-13522D01*
X54906Y-13522D01*
X57800Y-12323D01*
X60015Y-10108D01*
X61214Y-7214D01*
X61214Y-4082D01*
X60015Y-1188D01*
X57800Y1027D01*
X54906Y2226D01*
X51774Y2226D01*
X48980Y1069D01*
X48712Y1011D01*
X48413Y1062D01*
X48158Y1225D01*
X47986Y1475D01*
X47926Y1773D01*
X47926Y4731D01*
X47975Y5000D01*
X48136Y5257D01*
X48385Y5431D01*
X48682Y5493D01*
X48980Y5435D01*
X51774Y4278D01*
X54906Y4278D01*
X57800Y5477D01*
X60015Y7692D01*
X61214Y10586D01*
X61214Y13718D01*
X60015Y16612D01*
X57800Y18827D01*
X54906Y20026D01*
X51774Y20026D01*
X48980Y18869D01*
X48712Y18811D01*
X48413Y18862D01*
X48158Y19025D01*
X47986Y19275D01*
X47926Y19573D01*
X47926Y22531D01*
X47975Y22800D01*
X48136Y23057D01*
X48385Y23231D01*
X48682Y23293D01*
X48980Y23235D01*
X51774Y22078D01*
X54906Y22078D01*
X57800Y23277D01*
X60015Y25492D01*
X61214Y28386D01*
X61214Y31518D01*
X60015Y34412D01*
X57800Y36627D01*
X54906Y37826D01*
X51774Y37826D01*
X48980Y36669D01*
X48712Y36611D01*
X48413Y36662D01*
X48158Y36825D01*
X47986Y37075D01*
X47926Y37373D01*
X47926Y40331D01*
X47975Y40600D01*
X48136Y40857D01*
X48385Y41031D01*
X48682Y41093D01*
X48980Y41035D01*
X51774Y39878D01*
X54906Y39878D01*
X57800Y41077D01*
X60015Y43292D01*
X61214Y46186D01*
X61214Y49318D01*
X60015Y52212D01*
X57800Y54427D01*
X54906Y55626D01*
X51774Y55626D01*
X48980Y54469D01*
X48712Y54411D01*
X48413Y54462D01*
X48158Y54625D01*
X47986Y54875D01*
X47926Y55173D01*
X47926Y82203D01*
X45225Y86881D01*
X40547Y89582D01*
X-40801Y89582D01*
X-45479Y86881D01*
X-48180Y82203D01*
X-48180Y65278D01*
X-48231Y65003D01*
X-48395Y64748D01*
X-48645Y64576D01*
X-48942Y64516D01*
X-60575Y64516D01*
X-61468Y63623D01*
X-61468Y49661D01*
X-60575Y48768D01*
X-48942Y48768D01*
X-48667Y48717D01*
X-48412Y48553D01*
X-48240Y48303D01*
X-48180Y48006D01*
X-48180Y46263D01*
X-48229Y45994D01*
X-48390Y45737D01*
X-48639Y45563D01*
X-48936Y45501D01*
X-49234Y45559D01*
X-52028Y46716D01*
X-55160Y46716D01*
X-58054Y45517D01*
X-60269Y43302D01*
X-61468Y40408D01*
X-61468Y37276D01*
X-61070Y36314D01*
X-61012Y36047D01*
X-61063Y35748D01*
X-61226Y35493D01*
X-61477Y35321D01*
X-61774Y35261D01*
X-65243Y35261D01*
X-68351Y32153D01*
X-68351Y27757D01*
X-66263Y25669D01*
X-66100Y25427D01*
X-66040Y25130D01*
X-66040Y11377D01*
X-61243Y6581D01*
X-61083Y6345D01*
X-61020Y6048D01*
X-61078Y5750D01*
X-61468Y4808D01*
X-61468Y1676D01*
X-60269Y-1218D01*
X-58054Y-3433D01*
X-55160Y-4632D01*
X-52028Y-4632D01*
X-49234Y-3475D01*
X-48966Y-3417D01*
X-48667Y-3468D01*
X-48412Y-3631D01*
X-48240Y-3881D01*
X-48180Y-4179D01*
X-48180Y-7137D01*
X-48229Y-7406D01*
X-48390Y-7663D01*
X-48639Y-7837D01*
X-48936Y-7899D01*
X-49234Y-7841D01*
X-52028Y-6684D01*
X-55160Y-6684D01*
X-58054Y-7883D01*
X-60269Y-10098D01*
X-61468Y-12992D01*
X-61468Y-16124D01*
X-60269Y-19018D01*
X-58054Y-21233D01*
X-55160Y-22432D01*
X-52028Y-22432D01*
X-49234Y-21275D01*
X-48966Y-21217D01*
X-48667Y-21268D01*
X-48412Y-21431D01*
X-48240Y-21681D01*
X-48180Y-21979D01*
X-48180Y-24937D01*
X-48229Y-25206D01*
X-48390Y-25463D01*
X-48639Y-25637D01*
X-48936Y-25699D01*
X-49234Y-25641D01*
X-52028Y-24484D01*
X-55160Y-24484D01*
X-58054Y-25683D01*
X-60269Y-27898D01*
X-61468Y-30792D01*
X-61468Y-33924D01*
X-60269Y-36818D01*
X-58054Y-39033D01*
X-55160Y-40232D01*
X-52028Y-40232D01*
X-49234Y-39075D01*
X-48966Y-39017D01*
X-48667Y-39068D01*
X-48412Y-39231D01*
X-48240Y-39481D01*
X-48180Y-39779D01*
X-48180Y-42737D01*
X-48229Y-43006D01*
X-48390Y-43263D01*
X-48639Y-43437D01*
X-48936Y-43499D01*
X-49234Y-43441D01*
X-52028Y-42284D01*
X-55160Y-42284D01*
X-58054Y-43483D01*
X-60269Y-45698D01*
X-60870Y-47148D01*
X-61026Y-47386D01*
X-61277Y-47558D01*
X-61574Y-47618D01*
X-63693Y-47618D01*
X-64000Y-47925D01*
X-64241Y-48088D01*
X-64539Y-48148D01*
X-81932Y-48148D01*
X-82207Y-48097D01*
X-82462Y-47933D01*
X-82634Y-47683D01*
X-82694Y-47386D01*
X-82694Y-43802D01*
X-85802Y-40694D01*
X-90198Y-40694D01*
X-93306Y-43802D01*
X-93306Y-48198D01*
X-90198Y-51306D01*
X-86602Y-51306D01*
X-86316Y-51362D01*
X-86063Y-51529D01*
X-84364Y-53228D01*
X-62119Y-53228D01*
X-62025Y-53134D01*
X-61800Y-52978D01*
X-61504Y-52911D01*
X-61205Y-52964D01*
X-60951Y-53130D01*
X-60782Y-53381D01*
X-60269Y-54618D01*
X-58054Y-56833D01*
X-55160Y-58032D01*
X-52028Y-58032D01*
X-49234Y-56875D01*
X-48966Y-56817D01*
X-48667Y-56868D01*
X-48412Y-57031D01*
X-48240Y-57281D01*
X-48180Y-57579D01*
X-48180Y-60563D01*
X-48229Y-60832D01*
X-48390Y-61089D01*
X-48639Y-61263D01*
X-48936Y-61325D01*
X-49234Y-61267D01*
X-52033Y-60108D01*
X-52832Y-60108D01*
X-52832Y-75808D01*
X-52033Y-75808D01*
X-49234Y-74649D01*
X-48966Y-74591D01*
X-48667Y-74642D01*
X-48412Y-74805D01*
X-48240Y-75055D01*
X-48180Y-75353D01*
X-48180Y-85759D01*
X-45479Y-90437D01*
X-40801Y-93138D01*
G37*
G36*
X107429Y63846D02*
X111775Y63846D01*
X115789Y65509D01*
X118861Y68581D01*
X120524Y72595D01*
X120524Y76941D01*
X118861Y80955D01*
X115789Y84027D01*
X111775Y85690D01*
X107429Y85690D01*
X103415Y84027D01*
X100343Y80955D01*
X98680Y76941D01*
X98680Y72595D01*
X100343Y68581D01*
X103415Y65509D01*
X107429Y63846D01*
G37*
G36*
X107429Y38446D02*
X111775Y38446D01*
X115789Y40109D01*
X118861Y43181D01*
X120524Y47195D01*
X120524Y51541D01*
X118861Y55555D01*
X115789Y58627D01*
X111775Y60290D01*
X107429Y60290D01*
X103415Y58627D01*
X100343Y55555D01*
X98680Y51541D01*
X98680Y47195D01*
X100343Y43181D01*
X103415Y40109D01*
X107429Y38446D01*
G37*
G36*
X-99729Y-38837D02*
X-95333Y-38837D01*
X-92225Y-35729D01*
X-92225Y-31333D01*
X-95333Y-28225D01*
X-99868Y-28225D01*
X-100154Y-28169D01*
X-100406Y-28002D01*
X-107221Y-21187D01*
X-108312Y-21187D01*
X-108598Y-21131D01*
X-108851Y-20964D01*
X-111393Y-18421D01*
X-115789Y-18421D01*
X-118897Y-21529D01*
X-118897Y-25925D01*
X-115789Y-29033D01*
X-111393Y-29033D01*
X-109515Y-27155D01*
X-109285Y-26997D01*
X-108988Y-26932D01*
X-108690Y-26987D01*
X-108437Y-27155D01*
X-103060Y-32532D01*
X-102897Y-32774D01*
X-102837Y-33071D01*
X-102837Y-35729D01*
X-99729Y-38837D01*
G37*
G36*
X-61444Y-67196D02*
X-54356Y-67196D01*
X-54356Y-60108D01*
X-55155Y-60108D01*
X-58041Y-61303D01*
X-60249Y-63511D01*
X-61444Y-66397D01*
X-61444Y-67196D01*
G37*
G36*
X-55155Y-75808D02*
X-54356Y-75808D01*
X-54356Y-68720D01*
X-61444Y-68720D01*
X-61444Y-69519D01*
X-60249Y-72405D01*
X-58041Y-74613D01*
X-55155Y-75808D01*
G37*
G36*
X-79326Y-115306D02*
X-74930Y-115306D01*
X-72387Y-112763D01*
X-72146Y-112600D01*
X-71849Y-112540D01*
X-57085Y-112540D01*
X-56799Y-112596D01*
X-56546Y-112763D01*
X-54142Y-115167D01*
X-49746Y-115167D01*
X-46638Y-112059D01*
X-46638Y-107664D01*
X-49746Y-104555D01*
X-54142Y-104555D01*
X-56823Y-107237D01*
X-57065Y-107400D01*
X-57362Y-107460D01*
X-71849Y-107460D01*
X-72135Y-107404D01*
X-72387Y-107237D01*
X-74930Y-104694D01*
X-79326Y-104694D01*
X-82434Y-107802D01*
X-82434Y-112198D01*
X-79326Y-115306D01*
G37*
G36*
X101718Y-141500D02*
X108282Y-141500D01*
X114347Y-138988D01*
X118988Y-134347D01*
X121500Y-128282D01*
X121500Y-121718D01*
X118988Y-115654D01*
X114347Y-111012D01*
X108282Y-108500D01*
X101718Y-108500D01*
X95654Y-111012D01*
X91012Y-115654D01*
X88500Y-121718D01*
X88500Y-128282D01*
X91012Y-134347D01*
X95654Y-138988D01*
X101718Y-141500D01*
G37*
G36*
X-108282Y-141500D02*
X-101718Y-141500D01*
X-95654Y-138988D01*
X-91012Y-134347D01*
X-88500Y-128282D01*
X-88500Y-121718D01*
X-91012Y-115654D01*
X-95654Y-111012D01*
X-101718Y-108500D01*
X-108282Y-108500D01*
X-114347Y-111012D01*
X-118988Y-115654D01*
X-121500Y-121718D01*
X-121500Y-128282D01*
X-118988Y-134347D01*
X-114347Y-138988D01*
X-108282Y-141500D01*
G37*
G36*
X86727Y-185922D02*
X91073Y-185922D01*
X95087Y-184259D01*
X98159Y-181187D01*
X99822Y-177173D01*
X99822Y-172827D01*
X98159Y-168813D01*
X95087Y-165741D01*
X91073Y-164078D01*
X86727Y-164078D01*
X82713Y-165741D01*
X79641Y-168813D01*
X77978Y-172827D01*
X77978Y-177173D01*
X79641Y-181187D01*
X82713Y-184259D01*
X86727Y-185922D01*
G37*
G36*
X35927Y-185922D02*
X40273Y-185922D01*
X44287Y-184259D01*
X47359Y-181187D01*
X49022Y-177173D01*
X49022Y-172827D01*
X47359Y-168813D01*
X44287Y-165741D01*
X40273Y-164078D01*
X35927Y-164078D01*
X31913Y-165741D01*
X28841Y-168813D01*
X27178Y-172827D01*
X27178Y-177173D01*
X28841Y-181187D01*
X31913Y-184259D01*
X35927Y-185922D01*
G37*
G36*
X-14873Y-185922D02*
X-10527Y-185922D01*
X-6513Y-184259D01*
X-3441Y-181187D01*
X-1778Y-177173D01*
X-1778Y-172827D01*
X-3441Y-168813D01*
X-6513Y-165741D01*
X-10527Y-164078D01*
X-14873Y-164078D01*
X-18887Y-165741D01*
X-21959Y-168813D01*
X-23622Y-172827D01*
X-23622Y-177173D01*
X-21959Y-181187D01*
X-18887Y-184259D01*
X-14873Y-185922D01*
G37*
G36*
X-65673Y-185922D02*
X-61327Y-185922D01*
X-57313Y-184259D01*
X-54241Y-181187D01*
X-52578Y-177173D01*
X-52578Y-172827D01*
X-54241Y-168813D01*
X-57313Y-165741D01*
X-61327Y-164078D01*
X-65673Y-164078D01*
X-69687Y-165741D01*
X-72759Y-168813D01*
X-74422Y-172827D01*
X-74422Y-177173D01*
X-72759Y-181187D01*
X-69687Y-184259D01*
X-65673Y-185922D01*
G37*
G36*
X-91073Y-185922D02*
X-86727Y-185922D01*
X-82713Y-184259D01*
X-79641Y-181187D01*
X-77978Y-177173D01*
X-77978Y-172827D01*
X-79641Y-168813D01*
X-82713Y-165741D01*
X-86727Y-164078D01*
X-91073Y-164078D01*
X-95087Y-165741D01*
X-98159Y-168813D01*
X-99822Y-172827D01*
X-99822Y-177173D01*
X-98159Y-181187D01*
X-95087Y-184259D01*
X-91073Y-185922D01*
G37*
G36*
X52602Y-174238D02*
X62738Y-174238D01*
X62738Y-164102D01*
X61332Y-164102D01*
X57327Y-165761D01*
X54261Y-168827D01*
X52602Y-172832D01*
X52602Y-174238D01*
G37*
G36*
X1802Y-174238D02*
X11938Y-174238D01*
X11938Y-164102D01*
X10532Y-164102D01*
X6527Y-165761D01*
X3461Y-168827D01*
X1802Y-172832D01*
X1802Y-174238D01*
G37*
G36*
X-48998Y-174238D02*
X-38862Y-174238D01*
X-38862Y-164102D01*
X-40268Y-164102D01*
X-44273Y-165761D01*
X-47339Y-168827D01*
X-48998Y-172832D01*
X-48998Y-174238D01*
G37*
G36*
X-37338Y-174238D02*
X-27202Y-174238D01*
X-27202Y-172832D01*
X-28861Y-168827D01*
X-31927Y-165761D01*
X-35932Y-164102D01*
X-37338Y-164102D01*
X-37338Y-174238D01*
G37*
G36*
X13462Y-174238D02*
X23598Y-174238D01*
X23598Y-172832D01*
X21939Y-168827D01*
X18873Y-165761D01*
X14868Y-164102D01*
X13462Y-164102D01*
X13462Y-174238D01*
G37*
G36*
X64262Y-174238D02*
X74398Y-174238D01*
X74398Y-172832D01*
X72739Y-168827D01*
X69673Y-165761D01*
X65668Y-164102D01*
X64262Y-164102D01*
X64262Y-174238D01*
G37*
G36*
X64262Y-185898D02*
X65668Y-185898D01*
X69673Y-184239D01*
X72739Y-181173D01*
X74398Y-177168D01*
X74398Y-175762D01*
X64262Y-175762D01*
X64262Y-185898D01*
G37*
G36*
X61332Y-185898D02*
X62738Y-185898D01*
X62738Y-175762D01*
X52602Y-175762D01*
X52602Y-177168D01*
X54261Y-181173D01*
X57327Y-184239D01*
X61332Y-185898D01*
G37*
G36*
X13462Y-185898D02*
X14868Y-185898D01*
X18873Y-184239D01*
X21939Y-181173D01*
X23598Y-177168D01*
X23598Y-175762D01*
X13462Y-175762D01*
X13462Y-185898D01*
G37*
G36*
X10532Y-185898D02*
X11938Y-185898D01*
X11938Y-175762D01*
X1802Y-175762D01*
X1802Y-177168D01*
X3461Y-181173D01*
X6527Y-184239D01*
X10532Y-185898D01*
G37*
G36*
X-37338Y-185898D02*
X-35932Y-185898D01*
X-31927Y-184239D01*
X-28861Y-181173D01*
X-27202Y-177168D01*
X-27202Y-175762D01*
X-37338Y-175762D01*
X-37338Y-185898D01*
G37*
G36*
X-40268Y-185898D02*
X-38862Y-185898D01*
X-38862Y-175762D01*
X-48998Y-175762D01*
X-48998Y-177168D01*
X-47339Y-181173D01*
X-44273Y-184239D01*
X-40268Y-185898D01*
G37*
%LPD*%
D10*
X-88900Y-175000D03*
X-63500Y-175000D03*
X-38100Y-175000D03*
X-12700Y-175000D03*
X12700Y-175000D03*
X38100Y-175000D03*
X63500Y-175000D03*
X88900Y-175000D03*
D11*
X-53594Y56642D03*
D12*
X-53594Y38842D03*
X-53594Y21042D03*
X-53594Y3242D03*
X-53594Y-14558D03*
X-53594Y-32358D03*
X-53594Y-50158D03*
X-53594Y-67958D03*
X53340Y47752D03*
X53340Y29952D03*
X53340Y12152D03*
X53340Y-5648D03*
X53340Y-23448D03*
X53340Y-41248D03*
X53340Y-59048D03*
X53340Y-76848D03*
D10*
X109602Y74768D03*
X109602Y49368D03*
D13*
X-62287Y-23713D03*
X62000Y139000D03*
X83000Y-153932D03*
X57640Y61640D03*
X84282Y-61000D03*
X-79128Y-130236D03*
X-25000Y141218D03*
X-18000Y-127000D03*
X12000Y-128000D03*
X57000Y-136000D03*
X31000Y-158000D03*
X56000Y-158000D03*
X7000Y-159000D03*
X-22000Y-159000D03*
X-120000Y-109000D03*
X-121218Y-141000D03*
X-108822Y-191184D03*
X-76200Y-183095D03*
X52000Y-191218D03*
X76000Y-191000D03*
X113000Y-186000D03*
X116000Y-166000D03*
X91000Y-144000D03*
X99000Y-38000D03*
X121218Y-108000D03*
X121218Y-69000D03*
X121000Y-48000D03*
X119000Y-6000D03*
X109000Y27000D03*
X83000Y59000D03*
X-60000Y95000D03*
X-83170Y75340D03*
X-78000Y61000D03*
X-117000Y107000D03*
X-83000Y137000D03*
X-63000Y141218D03*
X45000Y141218D03*
X99000Y104000D03*
X-98000Y20000D03*
X-98000Y31000D03*
X-95000Y56000D03*
X-93000Y-61000D03*
X-63000Y-59000D03*
X-115000Y-34000D03*
X-75000Y-6000D03*
X-98340Y7000D03*
X-121218Y53000D03*
X-121218Y20000D03*
X-113000Y3000D03*
X99000Y-3000D03*
X88000Y39000D03*
X-53170Y73340D03*
X51708Y85000D03*
X59513Y96513D03*
X68672Y106672D03*
X-118159Y84159D03*
X38000Y126660D03*
X-22000Y126660D03*
X-37000Y126660D03*
X-88414Y89414D03*
X25000Y110830D03*
X-3000Y110830D03*
X-30000Y110830D03*
X75098Y80928D03*
X2000Y93364D03*
X30000Y94000D03*
X15000Y95000D03*
X-50000Y-97000D03*
X-51000Y-119000D03*
X61194Y2982D03*
X61994Y-33006D03*
X79797Y-12203D03*
X-66000Y-43858D03*
X84718Y-131451D03*
X-38958Y-118042D03*
X-112218Y-80718D03*
X-87193Y-95658D03*
X62640Y39640D03*
X61797Y-14203D03*
X28000Y-97000D03*
X-24000Y-98000D03*
X-106203Y74797D03*
X118797Y92797D03*
X-83203Y-76203D03*
X-119203Y-181203D03*
X120797Y62797D03*
X99762Y-92000D03*
X99762Y-70000D03*
X64996Y-62479D03*
X73291Y-108529D03*
X51087Y-104087D03*
X-25404Y-183844D03*
X-312Y-183407D03*
X37696Y-129706D03*
X72815Y-92000D03*
X-51404Y-183844D03*
X24800Y-183844D03*
X41587Y-113570D03*
X-91378Y-160296D03*
X-112203Y-153203D03*
X-51000Y-157306D03*
X94672Y80672D03*
X51000Y-113570D03*
X-55000Y-128000D03*
X61194Y20982D03*
X85903Y-103000D03*
X110218Y-105000D03*
X-101914Y-42000D03*
X-99000Y-23062D03*
X-106340Y-10000D03*
X-79378Y-155296D03*
X-66000Y4000D03*
X-63045Y29955D03*
D14*
X-62992Y29901D01*
X-62992Y12640D02*
X-53594Y3242D01*
X-62992Y12640D02*
X-62992Y29901D01*
D13*
X-88000Y-46000D03*
D15*
X-83312Y-50688D02*
X-63171Y-50688D01*
X-83312Y-50688D02*
X-88000Y-46000D01*
X-62641Y-50158D02*
X-53594Y-50158D01*
X-62641Y-50158D02*
X-63171Y-50688D01*
D13*
X-97531Y-33531D03*
D15*
X-98469Y-33531D01*
D13*
X-113591Y-23727D03*
D15*
X-108273Y-23727D02*
X-98469Y-33531D01*
X-108273Y-23727D02*
X-113591Y-23727D01*
D13*
X-51944Y-109861D03*
D14*
X-52452Y-109861D02*
X-52590Y-110000D01*
D13*
X-77128Y-110000D03*
D15*
X-52590Y-110000D01*
D14*
X-52452Y-109861D02*
X-51944Y-109861D01*
M02*
