G04 EAGLE Gerber RS-274X export*
G75*
%MOMM*%
%FSLAX34Y34*%
%LPD*%
%INTop Copper*%
%IPPOS*%
%AMOC8*
5,1,8,0,0,1.08239X$1,22.5*%
G01*
G04 Define Apertures*
%ADD10R,0.920900X0.970200*%
%ADD11R,0.560000X0.629100*%
%ADD12C,1.879600*%
%ADD13R,0.600000X0.700000*%
%ADD14R,1.270000X1.270000*%
%ADD15C,1.270000*%
%ADD16R,0.800100X0.457200*%
%ADD17R,0.600000X1.700000*%
%ADD18R,1.000000X2.800000*%
%ADD19R,0.740000X0.925000*%
%ADD20R,0.700000X0.600000*%
%ADD21C,0.304800*%
%ADD22C,0.756400*%
%ADD23C,0.203200*%
%ADD24C,0.200000*%
G36*
X110149Y-194985D02*
X110000Y-195000D01*
X-110000Y-195000D01*
X-110149Y-194985D01*
X-115597Y-193902D01*
X-115872Y-193788D01*
X-120491Y-190701D01*
X-120701Y-190491D01*
X-123788Y-185872D01*
X-123902Y-185597D01*
X-124985Y-180149D01*
X-125000Y-180000D01*
X-125000Y-91027D01*
X-124953Y-90764D01*
X-124794Y-90505D01*
X-124546Y-90330D01*
X-124250Y-90265D01*
X-123952Y-90321D01*
X-123699Y-90488D01*
X-111671Y-102516D01*
X-93902Y-102516D01*
X-93616Y-102572D01*
X-93363Y-102739D01*
X-83562Y-112540D01*
X-82407Y-112540D01*
X-82121Y-112596D01*
X-81869Y-112763D01*
X-79326Y-115306D01*
X-74930Y-115306D01*
X-74647Y-115023D01*
X-74427Y-114870D01*
X-74132Y-114800D01*
X-73833Y-114851D01*
X-73578Y-115014D01*
X-73406Y-115264D01*
X-73346Y-115561D01*
X-73346Y-125681D01*
X-56852Y-142175D01*
X-56699Y-142395D01*
X-56629Y-142690D01*
X-56680Y-142989D01*
X-56843Y-143244D01*
X-57093Y-143416D01*
X-57391Y-143476D01*
X-60005Y-143476D01*
X-60835Y-144306D01*
X-61066Y-144464D01*
X-61362Y-144529D01*
X-61660Y-144473D01*
X-61913Y-144306D01*
X-62743Y-143476D01*
X-70005Y-143476D01*
X-70898Y-144369D01*
X-70898Y-145214D01*
X-70949Y-145489D01*
X-71113Y-145744D01*
X-71363Y-145916D01*
X-71660Y-145976D01*
X-89545Y-145976D01*
X-108822Y-165253D01*
X-109064Y-165416D01*
X-109361Y-165476D01*
X-114131Y-165476D01*
X-115024Y-166369D01*
X-115024Y-173631D01*
X-114194Y-174461D01*
X-114036Y-174692D01*
X-113971Y-174988D01*
X-114027Y-175286D01*
X-114194Y-175539D01*
X-115024Y-176369D01*
X-115024Y-183631D01*
X-114131Y-184524D01*
X-109103Y-184524D01*
X-108817Y-184580D01*
X-108564Y-184747D01*
X-100625Y-192687D01*
X-57215Y-192687D01*
X-57152Y-192674D01*
X28832Y-192674D01*
X35360Y-186145D01*
X35602Y-185982D01*
X35899Y-185922D01*
X40273Y-185922D01*
X44287Y-184259D01*
X47359Y-181187D01*
X49022Y-177173D01*
X49022Y-172827D01*
X47359Y-168813D01*
X44287Y-165741D01*
X40273Y-164078D01*
X35927Y-164078D01*
X31913Y-165741D01*
X31701Y-165953D01*
X31470Y-166111D01*
X31174Y-166177D01*
X30876Y-166121D01*
X30623Y-165953D01*
X21497Y-156828D01*
X21334Y-156586D01*
X21274Y-156289D01*
X21274Y-153442D01*
X21325Y-153167D01*
X21489Y-152912D01*
X21739Y-152740D01*
X22036Y-152680D01*
X22381Y-152680D01*
X23274Y-151787D01*
X23274Y-133525D01*
X23149Y-133400D01*
X22991Y-133170D01*
X22926Y-132873D01*
X22982Y-132575D01*
X23149Y-132322D01*
X29325Y-126147D01*
X29566Y-125984D01*
X29863Y-125924D01*
X47580Y-125924D01*
X47866Y-125980D01*
X48118Y-126147D01*
X53699Y-131728D01*
X66806Y-131728D01*
X67069Y-131775D01*
X67327Y-131934D01*
X67503Y-132182D01*
X67568Y-132478D01*
X67512Y-132776D01*
X67345Y-133029D01*
X60465Y-139909D01*
X60223Y-140072D01*
X59926Y-140132D01*
X49036Y-140132D01*
X48761Y-140081D01*
X48506Y-139917D01*
X48334Y-139667D01*
X48274Y-139370D01*
X48274Y-133525D01*
X47381Y-132632D01*
X40119Y-132632D01*
X39226Y-133525D01*
X39226Y-151787D01*
X40119Y-152680D01*
X47381Y-152680D01*
X48274Y-151787D01*
X48274Y-145942D01*
X48325Y-145667D01*
X48489Y-145412D01*
X48739Y-145240D01*
X49036Y-145180D01*
X55195Y-145180D01*
X55481Y-145236D01*
X55734Y-145403D01*
X79135Y-168805D01*
X79296Y-169041D01*
X79358Y-169337D01*
X79300Y-169635D01*
X77978Y-172827D01*
X77978Y-177173D01*
X79641Y-181187D01*
X82713Y-184259D01*
X86727Y-185922D01*
X91073Y-185922D01*
X95087Y-184259D01*
X98159Y-181187D01*
X99822Y-177173D01*
X99822Y-172827D01*
X98159Y-168813D01*
X95087Y-165741D01*
X91073Y-164078D01*
X86727Y-164078D01*
X83535Y-165400D01*
X83256Y-165458D01*
X82957Y-165403D01*
X82705Y-165235D01*
X63030Y-145560D01*
X62872Y-145330D01*
X62807Y-145034D01*
X62862Y-144736D01*
X63030Y-144483D01*
X87704Y-119808D01*
X87918Y-119658D01*
X88213Y-119586D01*
X88512Y-119634D01*
X88769Y-119796D01*
X88942Y-120044D01*
X89005Y-120341D01*
X88947Y-120639D01*
X88500Y-121718D01*
X88500Y-128282D01*
X91012Y-134347D01*
X95654Y-138988D01*
X101718Y-141500D01*
X108282Y-141500D01*
X114347Y-138988D01*
X118988Y-134347D01*
X121500Y-128282D01*
X121500Y-121718D01*
X118988Y-115654D01*
X114347Y-111012D01*
X108282Y-108500D01*
X101718Y-108500D01*
X100639Y-108947D01*
X100383Y-109004D01*
X100084Y-108958D01*
X99826Y-108799D01*
X99650Y-108551D01*
X99585Y-108255D01*
X99641Y-107957D01*
X99808Y-107704D01*
X108592Y-98920D01*
X108592Y-24848D01*
X86868Y-3124D01*
X61326Y-3124D01*
X61046Y-3071D01*
X60792Y-2905D01*
X60622Y-2654D01*
X60015Y-1188D01*
X57800Y1027D01*
X54906Y2226D01*
X51774Y2226D01*
X48980Y1069D01*
X48712Y1011D01*
X48413Y1062D01*
X48158Y1225D01*
X47986Y1475D01*
X47926Y1773D01*
X47926Y4731D01*
X47975Y5000D01*
X48136Y5257D01*
X48385Y5431D01*
X48682Y5493D01*
X48980Y5435D01*
X51774Y4278D01*
X54906Y4278D01*
X57800Y5477D01*
X60015Y7692D01*
X61214Y10586D01*
X61214Y13718D01*
X60015Y16612D01*
X57800Y18827D01*
X54906Y20026D01*
X51774Y20026D01*
X48980Y18869D01*
X48712Y18811D01*
X48413Y18862D01*
X48158Y19025D01*
X47986Y19275D01*
X47926Y19573D01*
X47926Y22531D01*
X47975Y22800D01*
X48136Y23057D01*
X48385Y23231D01*
X48682Y23293D01*
X48980Y23235D01*
X51774Y22078D01*
X54906Y22078D01*
X57800Y23277D01*
X60015Y25492D01*
X60405Y26434D01*
X60562Y26672D01*
X60812Y26844D01*
X61109Y26904D01*
X64184Y26904D01*
X64459Y26853D01*
X64714Y26689D01*
X64886Y26439D01*
X64927Y26233D01*
X65839Y25322D01*
X73101Y25322D01*
X73931Y26152D01*
X74162Y26310D01*
X74458Y26375D01*
X74756Y26319D01*
X75009Y26152D01*
X75880Y25281D01*
X75935Y25271D01*
X76190Y25107D01*
X76362Y24857D01*
X76422Y24560D01*
X76422Y23320D01*
X76400Y23137D01*
X76208Y22363D01*
X76313Y22189D01*
X76422Y21796D01*
X76422Y21593D01*
X76986Y21029D01*
X77100Y20883D01*
X77167Y20773D01*
X77276Y20379D01*
X77276Y15545D01*
X78353Y14468D01*
X78516Y14227D01*
X78576Y13930D01*
X78576Y13148D01*
X78520Y12862D01*
X78353Y12610D01*
X77300Y11557D01*
X77300Y4003D01*
X78193Y3111D01*
X85055Y3111D01*
X85948Y4003D01*
X86179Y4161D01*
X86475Y4227D01*
X86773Y4171D01*
X87026Y4003D01*
X87895Y3135D01*
X90554Y3135D01*
X90554Y12426D01*
X87895Y12426D01*
X87026Y11557D01*
X86795Y11399D01*
X86499Y11334D01*
X86201Y11389D01*
X85948Y11557D01*
X84895Y12610D01*
X84732Y12851D01*
X84672Y13148D01*
X84672Y13978D01*
X84728Y14264D01*
X84895Y14516D01*
X85924Y15545D01*
X86155Y15703D01*
X86451Y15769D01*
X86749Y15713D01*
X87002Y15545D01*
X87871Y14677D01*
X90530Y14677D01*
X90530Y23968D01*
X87871Y23968D01*
X87002Y23099D01*
X86771Y22941D01*
X86475Y22876D01*
X86177Y22931D01*
X85924Y23099D01*
X85031Y23992D01*
X83610Y23992D01*
X83347Y24038D01*
X83089Y24198D01*
X82914Y24445D01*
X82849Y24741D01*
X82904Y25039D01*
X83072Y25292D01*
X83994Y26215D01*
X83994Y34477D01*
X83101Y35370D01*
X80625Y35370D01*
X80339Y35426D01*
X80086Y35593D01*
X75027Y40652D01*
X74864Y40894D01*
X74804Y41191D01*
X74804Y75874D01*
X43630Y107048D01*
X-42263Y107048D01*
X-66040Y83271D01*
X-66040Y34779D01*
X-66096Y34493D01*
X-66263Y34241D01*
X-68351Y32153D01*
X-68351Y27757D01*
X-65985Y25391D01*
X-65832Y25171D01*
X-65762Y24876D01*
X-65813Y24577D01*
X-65977Y24322D01*
X-66227Y24150D01*
X-66524Y24090D01*
X-68850Y24090D01*
X-69034Y24113D01*
X-69308Y24243D01*
X-72156Y26384D01*
X-72400Y26696D01*
X-72460Y26993D01*
X-72460Y29827D01*
X-73513Y30880D01*
X-73676Y31121D01*
X-73736Y31418D01*
X-73736Y33423D01*
X-73685Y33698D01*
X-73521Y33953D01*
X-73271Y34125D01*
X-72974Y34185D01*
X-69648Y34185D01*
X-68756Y35078D01*
X-68756Y46042D01*
X-69648Y46935D01*
X-80120Y46935D01*
X-81013Y46042D01*
X-81013Y35078D01*
X-80055Y34120D01*
X-79892Y33879D01*
X-79832Y33582D01*
X-79832Y31418D01*
X-79888Y31132D01*
X-80055Y30880D01*
X-81108Y29827D01*
X-81339Y29669D01*
X-81635Y29604D01*
X-81933Y29659D01*
X-82186Y29827D01*
X-83055Y30696D01*
X-85714Y30696D01*
X-85714Y25288D01*
X-90776Y25288D01*
X-90776Y22283D01*
X-89732Y21239D01*
X-89574Y21008D01*
X-89509Y20712D01*
X-89564Y20414D01*
X-89732Y20161D01*
X-90776Y19117D01*
X-90776Y16112D01*
X-85714Y16112D01*
X-85714Y14588D01*
X-90776Y14588D01*
X-90776Y11583D01*
X-89867Y10674D01*
X-89709Y10443D01*
X-89644Y10147D01*
X-89699Y9849D01*
X-89867Y9596D01*
X-90776Y8687D01*
X-90776Y5682D01*
X-85714Y5682D01*
X-85714Y4158D01*
X-90776Y4158D01*
X-90776Y1153D01*
X-89740Y117D01*
X-89587Y-103D01*
X-89517Y-398D01*
X-89568Y-697D01*
X-89731Y-952D01*
X-89981Y-1124D01*
X-90278Y-1184D01*
X-92155Y-1184D01*
X-108878Y-17907D01*
X-108878Y-19097D01*
X-108925Y-19360D01*
X-109084Y-19618D01*
X-109332Y-19794D01*
X-109628Y-19859D01*
X-109926Y-19803D01*
X-110179Y-19636D01*
X-110540Y-19275D01*
X-110703Y-19033D01*
X-110763Y-18736D01*
X-110763Y-8330D01*
X-110707Y-8044D01*
X-110540Y-7791D01*
X-103630Y-881D01*
X-103630Y60632D01*
X-103574Y60918D01*
X-103407Y61171D01*
X-47511Y117067D01*
X-47269Y117230D01*
X-46972Y117290D01*
X44488Y117290D01*
X44774Y117234D01*
X45026Y117067D01*
X102902Y59192D01*
X103060Y58961D01*
X103125Y58665D01*
X103069Y58367D01*
X102902Y58114D01*
X100343Y55555D01*
X98680Y51541D01*
X98680Y47195D01*
X100343Y43181D01*
X103415Y40109D01*
X107429Y38446D01*
X111775Y38446D01*
X115789Y40109D01*
X118861Y43181D01*
X120524Y47195D01*
X120524Y51541D01*
X118861Y55555D01*
X115789Y58627D01*
X111775Y60290D01*
X109303Y60290D01*
X109017Y60346D01*
X108764Y60513D01*
X106727Y62550D01*
X106577Y62764D01*
X106505Y63058D01*
X106553Y63358D01*
X106715Y63614D01*
X106963Y63788D01*
X107260Y63851D01*
X107285Y63846D01*
X111775Y63846D01*
X115789Y65509D01*
X118861Y68581D01*
X120524Y72595D01*
X120524Y76941D01*
X118861Y80955D01*
X115789Y84027D01*
X111775Y85690D01*
X107429Y85690D01*
X104253Y84374D01*
X103974Y84316D01*
X103675Y84372D01*
X103423Y84539D01*
X78265Y109697D01*
X78103Y109938D01*
X78042Y110235D01*
X78042Y110553D01*
X52226Y136370D01*
X-59881Y136370D01*
X-116928Y79323D01*
X-116928Y13639D01*
X-116984Y13353D01*
X-117151Y13100D01*
X-123699Y6552D01*
X-123919Y6399D01*
X-124214Y6329D01*
X-124513Y6380D01*
X-124768Y6544D01*
X-124940Y6794D01*
X-125000Y7091D01*
X-125000Y130000D01*
X-124985Y130149D01*
X-123902Y135597D01*
X-123788Y135872D01*
X-120701Y140491D01*
X-120491Y140701D01*
X-115872Y143788D01*
X-115597Y143902D01*
X-110149Y144985D01*
X-110000Y145000D01*
X110000Y145000D01*
X110149Y144985D01*
X115597Y143902D01*
X115872Y143788D01*
X120491Y140701D01*
X120701Y140491D01*
X123788Y135872D01*
X123902Y135597D01*
X124985Y130149D01*
X125000Y130000D01*
X125000Y-180000D01*
X124985Y-180149D01*
X123902Y-185597D01*
X123788Y-185872D01*
X120701Y-190491D01*
X120491Y-190701D01*
X115872Y-193788D01*
X115597Y-193902D01*
X110149Y-194985D01*
G37*
%LPC*%
G36*
X-108282Y108500D02*
X-101718Y108500D01*
X-95654Y111012D01*
X-91012Y115654D01*
X-88500Y121718D01*
X-88500Y128282D01*
X-91012Y134347D01*
X-95654Y138988D01*
X-101718Y141500D01*
X-108282Y141500D01*
X-114347Y138988D01*
X-118988Y134347D01*
X-121500Y128282D01*
X-121500Y121718D01*
X-118988Y115654D01*
X-114347Y111012D01*
X-108282Y108500D01*
G37*
G36*
X101718Y108500D02*
X108282Y108500D01*
X114347Y111012D01*
X118988Y115654D01*
X121500Y121718D01*
X121500Y128282D01*
X118988Y134347D01*
X114347Y138988D01*
X108282Y141500D01*
X101718Y141500D01*
X95654Y138988D01*
X91012Y134347D01*
X88500Y128282D01*
X88500Y121718D01*
X91012Y115654D01*
X95654Y111012D01*
X101718Y108500D01*
G37*
G36*
X-89614Y41322D02*
X-84272Y41322D01*
X-84272Y46032D01*
X-85150Y46911D01*
X-89614Y46911D01*
X-89614Y41322D01*
G37*
G36*
X-96481Y41322D02*
X-91138Y41322D01*
X-91138Y46911D01*
X-95602Y46911D01*
X-96481Y46032D01*
X-96481Y41322D01*
G37*
G36*
X-95602Y34209D02*
X-91138Y34209D01*
X-91138Y39798D01*
X-96481Y39798D01*
X-96481Y35088D01*
X-95602Y34209D01*
G37*
G36*
X-89614Y34209D02*
X-85150Y34209D01*
X-84272Y35088D01*
X-84272Y39798D01*
X-89614Y39798D01*
X-89614Y34209D01*
G37*
G36*
X-90776Y26812D02*
X-87238Y26812D01*
X-87238Y30696D01*
X-89897Y30696D01*
X-90776Y29817D01*
X-90776Y26812D01*
G37*
G36*
X92054Y20084D02*
X95592Y20084D01*
X95592Y23089D01*
X94713Y23968D01*
X92054Y23968D01*
X92054Y20084D01*
G37*
G36*
X92054Y14677D02*
X94713Y14677D01*
X95592Y15555D01*
X95592Y18560D01*
X92054Y18560D01*
X92054Y14677D01*
G37*
G36*
X92078Y8542D02*
X95616Y8542D01*
X95616Y11547D01*
X94737Y12426D01*
X92078Y12426D01*
X92078Y8542D01*
G37*
G36*
X92078Y3135D02*
X94737Y3135D01*
X95616Y4013D01*
X95616Y7018D01*
X92078Y7018D01*
X92078Y3135D01*
G37*
G36*
X-108282Y-141500D02*
X-101718Y-141500D01*
X-95654Y-138988D01*
X-91012Y-134347D01*
X-88500Y-128282D01*
X-88500Y-121718D01*
X-91012Y-115654D01*
X-95654Y-111012D01*
X-101718Y-108500D01*
X-108282Y-108500D01*
X-114347Y-111012D01*
X-118988Y-115654D01*
X-121500Y-121718D01*
X-121500Y-128282D01*
X-118988Y-134347D01*
X-114347Y-138988D01*
X-108282Y-141500D01*
G37*
G36*
X26750Y-141894D02*
X30488Y-141894D01*
X30488Y-132656D01*
X27629Y-132656D01*
X26750Y-133535D01*
X26750Y-141894D01*
G37*
G36*
X32012Y-141894D02*
X35750Y-141894D01*
X35750Y-133535D01*
X34871Y-132656D01*
X32012Y-132656D01*
X32012Y-141894D01*
G37*
G36*
X27629Y-152656D02*
X30488Y-152656D01*
X30488Y-143418D01*
X26750Y-143418D01*
X26750Y-151777D01*
X27629Y-152656D01*
G37*
G36*
X32012Y-152656D02*
X34871Y-152656D01*
X35750Y-151777D01*
X35750Y-143418D01*
X32012Y-143418D01*
X32012Y-152656D01*
G37*
G36*
X52602Y-174238D02*
X62738Y-174238D01*
X62738Y-164102D01*
X61332Y-164102D01*
X57327Y-165761D01*
X54261Y-168827D01*
X52602Y-172832D01*
X52602Y-174238D01*
G37*
G36*
X64262Y-174238D02*
X74398Y-174238D01*
X74398Y-172832D01*
X72739Y-168827D01*
X69673Y-165761D01*
X65668Y-164102D01*
X64262Y-164102D01*
X64262Y-174238D01*
G37*
G36*
X64262Y-185898D02*
X65668Y-185898D01*
X69673Y-184239D01*
X72739Y-181173D01*
X74398Y-177168D01*
X74398Y-175762D01*
X64262Y-175762D01*
X64262Y-185898D01*
G37*
G36*
X61332Y-185898D02*
X62738Y-185898D01*
X62738Y-175762D01*
X52602Y-175762D01*
X52602Y-177168D01*
X54261Y-181173D01*
X57327Y-184239D01*
X61332Y-185898D01*
G37*
%LPD*%
G36*
X-118209Y-20774D02*
X-118504Y-20844D01*
X-118803Y-20793D01*
X-119058Y-20630D01*
X-119230Y-20380D01*
X-119290Y-20082D01*
X-119290Y3461D01*
X-119234Y3747D01*
X-119067Y4000D01*
X-111848Y11219D01*
X-111848Y76903D01*
X-111792Y77189D01*
X-111625Y77442D01*
X-58000Y131067D01*
X-57759Y131230D01*
X-57461Y131290D01*
X49806Y131290D01*
X50092Y131234D01*
X50345Y131067D01*
X72739Y108672D01*
X72902Y108431D01*
X72962Y108134D01*
X72962Y107816D01*
X99831Y80947D01*
X99991Y80711D01*
X100054Y80415D01*
X99996Y80117D01*
X98680Y76941D01*
X98680Y72486D01*
X98684Y72469D01*
X98638Y72169D01*
X98479Y71911D01*
X98231Y71735D01*
X97935Y71670D01*
X97637Y71726D01*
X97384Y71893D01*
X46907Y122370D01*
X-49392Y122370D01*
X-108710Y63052D01*
X-108710Y1539D01*
X-108766Y1253D01*
X-108933Y1000D01*
X-115843Y-5910D01*
X-115843Y-18160D01*
X-115899Y-18445D01*
X-116066Y-18698D01*
X-117989Y-20621D01*
X-118209Y-20774D01*
G37*
G36*
X64481Y33060D02*
X64184Y33000D01*
X61109Y33000D01*
X60829Y33053D01*
X60575Y33219D01*
X60405Y33470D01*
X60015Y34412D01*
X57800Y36627D01*
X54906Y37826D01*
X51774Y37826D01*
X48980Y36669D01*
X48712Y36611D01*
X48413Y36662D01*
X48158Y36825D01*
X47986Y37075D01*
X47926Y37373D01*
X47926Y40331D01*
X47975Y40600D01*
X48136Y40857D01*
X48385Y41031D01*
X48682Y41093D01*
X48980Y41035D01*
X51774Y39878D01*
X54906Y39878D01*
X57800Y41077D01*
X60015Y43292D01*
X61214Y46186D01*
X61214Y49318D01*
X60015Y52212D01*
X57800Y54427D01*
X54906Y55626D01*
X51774Y55626D01*
X48980Y54469D01*
X48712Y54411D01*
X48413Y54462D01*
X48158Y54625D01*
X47986Y54875D01*
X47926Y55173D01*
X47926Y82203D01*
X45225Y86881D01*
X40547Y89582D01*
X-40801Y89582D01*
X-45479Y86881D01*
X-48180Y82203D01*
X-48180Y65278D01*
X-48231Y65003D01*
X-48395Y64748D01*
X-48645Y64576D01*
X-48942Y64516D01*
X-59182Y64516D01*
X-59457Y64567D01*
X-59712Y64731D01*
X-59884Y64981D01*
X-59944Y65278D01*
X-59944Y80430D01*
X-59888Y80716D01*
X-59721Y80969D01*
X-39961Y100729D01*
X-39719Y100892D01*
X-39422Y100952D01*
X40789Y100952D01*
X41075Y100896D01*
X41328Y100729D01*
X68485Y73572D01*
X68648Y73330D01*
X68708Y73033D01*
X68708Y38350D01*
X70387Y36671D01*
X70540Y36451D01*
X70610Y36156D01*
X70559Y35857D01*
X70396Y35602D01*
X70146Y35430D01*
X69849Y35370D01*
X65839Y35370D01*
X64946Y34477D01*
X64946Y33762D01*
X64895Y33487D01*
X64731Y33232D01*
X64481Y33060D01*
G37*
G36*
X-89264Y-40455D02*
X-89560Y-40520D01*
X-89858Y-40465D01*
X-90111Y-40297D01*
X-92913Y-37495D01*
X-93071Y-37264D01*
X-93136Y-36968D01*
X-93081Y-36670D01*
X-92913Y-36417D01*
X-92225Y-35729D01*
X-92225Y-31333D01*
X-95333Y-28225D01*
X-99729Y-28225D01*
X-101481Y-29977D01*
X-101701Y-30130D01*
X-101996Y-30200D01*
X-102295Y-30149D01*
X-102550Y-29986D01*
X-102722Y-29736D01*
X-102782Y-29439D01*
X-102782Y-20748D01*
X-102726Y-20462D01*
X-102559Y-20209D01*
X-89853Y-7503D01*
X-89612Y-7340D01*
X-89314Y-7280D01*
X-85412Y-7280D01*
X-85207Y-7308D01*
X-85017Y-7405D01*
X-83950Y-7285D01*
X-83865Y-7280D01*
X-82801Y-7280D01*
X-82701Y-7205D01*
X-82498Y-7139D01*
X-81829Y-6300D01*
X-81772Y-6236D01*
X-81020Y-5483D01*
X-81003Y-5360D01*
X-80865Y-5090D01*
X-76837Y-37D01*
X-76538Y190D01*
X-76241Y251D01*
X-73353Y251D01*
X-72460Y1143D01*
X-72460Y8697D01*
X-73359Y9596D01*
X-73517Y9827D01*
X-73583Y10123D01*
X-73527Y10421D01*
X-73359Y10674D01*
X-72452Y11581D01*
X-72409Y11815D01*
X-72245Y12070D01*
X-71995Y12242D01*
X-71698Y12302D01*
X-67280Y12302D01*
X-66994Y12246D01*
X-66741Y12079D01*
X-61243Y6581D01*
X-61083Y6345D01*
X-61020Y6048D01*
X-61078Y5750D01*
X-61468Y4808D01*
X-61468Y1676D01*
X-60269Y-1218D01*
X-58054Y-3433D01*
X-55160Y-4632D01*
X-52028Y-4632D01*
X-49234Y-3475D01*
X-48966Y-3417D01*
X-48667Y-3468D01*
X-48412Y-3631D01*
X-48240Y-3881D01*
X-48180Y-4179D01*
X-48180Y-7137D01*
X-48229Y-7406D01*
X-48390Y-7663D01*
X-48639Y-7837D01*
X-48936Y-7899D01*
X-49234Y-7841D01*
X-52028Y-6684D01*
X-55160Y-6684D01*
X-58054Y-7883D01*
X-60269Y-10098D01*
X-60751Y-11262D01*
X-60908Y-11500D01*
X-61158Y-11672D01*
X-61455Y-11732D01*
X-71698Y-11732D01*
X-71973Y-11681D01*
X-72228Y-11517D01*
X-72400Y-11267D01*
X-72452Y-11012D01*
X-73353Y-10111D01*
X-80215Y-10111D01*
X-81108Y-11003D01*
X-81339Y-11161D01*
X-81635Y-11227D01*
X-81933Y-11171D01*
X-82186Y-11003D01*
X-83055Y-10135D01*
X-85714Y-10135D01*
X-85714Y-15542D01*
X-90776Y-15542D01*
X-90776Y-18547D01*
X-89867Y-19456D01*
X-89709Y-19687D01*
X-89644Y-19983D01*
X-89699Y-20281D01*
X-89867Y-20534D01*
X-90776Y-21443D01*
X-90776Y-24448D01*
X-85714Y-24448D01*
X-85714Y-29856D01*
X-85264Y-29856D01*
X-85000Y-29902D01*
X-84742Y-30062D01*
X-84567Y-30309D01*
X-84502Y-30605D01*
X-84557Y-30903D01*
X-84725Y-31156D01*
X-85349Y-31781D01*
X-85591Y-31944D01*
X-85888Y-32004D01*
X-87917Y-32004D01*
X-88810Y-32897D01*
X-88810Y-39758D01*
X-88857Y-40022D01*
X-89016Y-40280D01*
X-89264Y-40455D01*
G37*
%LPC*%
G36*
X-90776Y-14018D02*
X-87238Y-14018D01*
X-87238Y-10135D01*
X-89897Y-10135D01*
X-90776Y-11013D01*
X-90776Y-14018D01*
G37*
G36*
X-89897Y-29856D02*
X-87238Y-29856D01*
X-87238Y-25972D01*
X-90776Y-25972D01*
X-90776Y-28977D01*
X-89897Y-29856D01*
G37*
%LPD*%
G36*
X95814Y-104493D02*
X95519Y-104563D01*
X95220Y-104512D01*
X94965Y-104349D01*
X94793Y-104098D01*
X94733Y-103801D01*
X94733Y-31163D01*
X85223Y-21653D01*
X81307Y-21653D01*
X81033Y-21602D01*
X80777Y-21439D01*
X80606Y-21188D01*
X80545Y-20891D01*
X80545Y-20046D01*
X79653Y-19153D01*
X72390Y-19153D01*
X71560Y-19983D01*
X71330Y-20141D01*
X71033Y-20206D01*
X70735Y-20151D01*
X70483Y-19983D01*
X69653Y-19153D01*
X62390Y-19153D01*
X61566Y-19978D01*
X61341Y-20133D01*
X61045Y-20201D01*
X60747Y-20147D01*
X60492Y-19982D01*
X60323Y-19730D01*
X60015Y-18988D01*
X57800Y-16773D01*
X54906Y-15574D01*
X51774Y-15574D01*
X48980Y-16731D01*
X48712Y-16789D01*
X48413Y-16738D01*
X48158Y-16575D01*
X47986Y-16325D01*
X47926Y-16027D01*
X47926Y-13069D01*
X47975Y-12800D01*
X48136Y-12543D01*
X48385Y-12369D01*
X48682Y-12307D01*
X48980Y-12365D01*
X51774Y-13522D01*
X54906Y-13522D01*
X57800Y-12323D01*
X60015Y-10108D01*
X60622Y-8642D01*
X60779Y-8404D01*
X61029Y-8232D01*
X61326Y-8172D01*
X84462Y-8172D01*
X84748Y-8228D01*
X85001Y-8395D01*
X103321Y-26715D01*
X103484Y-26957D01*
X103544Y-27254D01*
X103544Y-96514D01*
X103488Y-96800D01*
X103321Y-97053D01*
X96034Y-104340D01*
X95814Y-104493D01*
G37*
G36*
X-61933Y-34428D02*
X-62230Y-34488D01*
X-69000Y-34488D01*
X-69275Y-34437D01*
X-69530Y-34273D01*
X-69702Y-34023D01*
X-69762Y-33726D01*
X-69762Y-32897D01*
X-70655Y-32004D01*
X-75112Y-32004D01*
X-75375Y-31957D01*
X-75633Y-31798D01*
X-75809Y-31550D01*
X-75874Y-31254D01*
X-75818Y-30956D01*
X-75651Y-30703D01*
X-75050Y-30103D01*
X-74809Y-29940D01*
X-74511Y-29880D01*
X-73353Y-29880D01*
X-72460Y-28987D01*
X-72460Y-27828D01*
X-72404Y-27542D01*
X-72237Y-27289D01*
X-72082Y-27135D01*
X-72082Y-26606D01*
X-72027Y-26323D01*
X-71831Y-25832D01*
X-72020Y-25390D01*
X-72082Y-25090D01*
X-72082Y-24609D01*
X-72237Y-24455D01*
X-72400Y-24213D01*
X-72460Y-23916D01*
X-72460Y-21433D01*
X-73359Y-20534D01*
X-73517Y-20303D01*
X-73583Y-20007D01*
X-73527Y-19709D01*
X-73359Y-19456D01*
X-72452Y-18549D01*
X-72409Y-18315D01*
X-72245Y-18060D01*
X-71995Y-17888D01*
X-71698Y-17828D01*
X-61271Y-17828D01*
X-60991Y-17881D01*
X-60737Y-18047D01*
X-60567Y-18298D01*
X-60269Y-19018D01*
X-58054Y-21233D01*
X-55160Y-22432D01*
X-52028Y-22432D01*
X-49234Y-21275D01*
X-48966Y-21217D01*
X-48667Y-21268D01*
X-48412Y-21431D01*
X-48240Y-21681D01*
X-48180Y-21979D01*
X-48180Y-24937D01*
X-48229Y-25206D01*
X-48390Y-25463D01*
X-48639Y-25637D01*
X-48936Y-25699D01*
X-49234Y-25641D01*
X-52028Y-24484D01*
X-55160Y-24484D01*
X-58054Y-25683D01*
X-60269Y-27898D01*
X-61468Y-30792D01*
X-61468Y-33726D01*
X-61519Y-34001D01*
X-61683Y-34256D01*
X-61933Y-34428D01*
G37*
G36*
X-81467Y-106762D02*
X-81763Y-106827D01*
X-82061Y-106772D01*
X-82314Y-106604D01*
X-91482Y-97436D01*
X-109251Y-97436D01*
X-109537Y-97380D01*
X-109790Y-97213D01*
X-119067Y-87936D01*
X-119230Y-87695D01*
X-119290Y-87397D01*
X-119290Y-27372D01*
X-119243Y-27108D01*
X-119084Y-26850D01*
X-118836Y-26675D01*
X-118540Y-26610D01*
X-118242Y-26665D01*
X-117989Y-26833D01*
X-115789Y-29033D01*
X-111393Y-29033D01*
X-110179Y-27819D01*
X-109959Y-27666D01*
X-109664Y-27596D01*
X-109365Y-27647D01*
X-109110Y-27810D01*
X-108938Y-28060D01*
X-108878Y-28357D01*
X-108878Y-32911D01*
X-108934Y-33197D01*
X-109101Y-33450D01*
X-111792Y-36141D01*
X-111792Y-54157D01*
X-103967Y-61982D01*
X-103804Y-62223D01*
X-103744Y-62521D01*
X-103744Y-64774D01*
X-103795Y-65048D01*
X-103958Y-65304D01*
X-104208Y-65475D01*
X-104506Y-65536D01*
X-105327Y-65536D01*
X-106220Y-66428D01*
X-106220Y-72263D01*
X-105327Y-73156D01*
X-103837Y-73156D01*
X-103562Y-73207D01*
X-103307Y-73370D01*
X-103136Y-73620D01*
X-103075Y-73918D01*
X-103075Y-77257D01*
X-101461Y-78872D01*
X-101308Y-79091D01*
X-101238Y-79386D01*
X-101289Y-79685D01*
X-101357Y-79792D01*
X-100698Y-79792D01*
X-100698Y-89464D01*
X-98039Y-89464D01*
X-97170Y-88595D01*
X-96939Y-88437D01*
X-96643Y-88372D01*
X-96345Y-88427D01*
X-96092Y-88595D01*
X-95199Y-89488D01*
X-88337Y-89488D01*
X-87444Y-88595D01*
X-87444Y-81041D01*
X-88337Y-80149D01*
X-91802Y-80149D01*
X-92077Y-80097D01*
X-92332Y-79934D01*
X-92504Y-79684D01*
X-92564Y-79387D01*
X-92564Y-79147D01*
X-96756Y-74956D01*
X-96919Y-74714D01*
X-96979Y-74417D01*
X-96979Y-73918D01*
X-96928Y-73643D01*
X-96765Y-73387D01*
X-96514Y-73216D01*
X-96217Y-73156D01*
X-96064Y-73156D01*
X-95171Y-72263D01*
X-95171Y-66428D01*
X-96064Y-65536D01*
X-96886Y-65536D01*
X-97160Y-65484D01*
X-97416Y-65321D01*
X-97587Y-65071D01*
X-97648Y-64774D01*
X-97648Y-59680D01*
X-101871Y-55456D01*
X-102024Y-55237D01*
X-102094Y-54942D01*
X-102043Y-54643D01*
X-101880Y-54387D01*
X-101630Y-54216D01*
X-101332Y-54156D01*
X-96064Y-54156D01*
X-95171Y-53263D01*
X-95171Y-47428D01*
X-96064Y-46536D01*
X-104934Y-46536D01*
X-105209Y-46484D01*
X-105464Y-46321D01*
X-105636Y-46071D01*
X-105696Y-45774D01*
X-105696Y-38981D01*
X-105640Y-38695D01*
X-105473Y-38442D01*
X-103337Y-36306D01*
X-103106Y-36148D01*
X-102810Y-36083D01*
X-102512Y-36139D01*
X-102259Y-36306D01*
X-99729Y-38837D01*
X-99071Y-38837D01*
X-98785Y-38892D01*
X-98532Y-39060D01*
X-93529Y-44063D01*
X-93366Y-44305D01*
X-93306Y-44602D01*
X-93306Y-48198D01*
X-90198Y-51306D01*
X-86856Y-51306D01*
X-86593Y-51353D01*
X-86335Y-51512D01*
X-86159Y-51760D01*
X-86094Y-52056D01*
X-86150Y-52354D01*
X-86317Y-52607D01*
X-86868Y-53157D01*
X-86868Y-67113D01*
X-81587Y-72394D01*
X-80879Y-72394D01*
X-80593Y-72449D01*
X-80340Y-72617D01*
X-79801Y-73156D01*
X-75986Y-73156D01*
X-75700Y-73211D01*
X-75447Y-73379D01*
X-72887Y-75938D01*
X-72724Y-76180D01*
X-72664Y-76477D01*
X-72664Y-79550D01*
X-72720Y-79836D01*
X-72887Y-80088D01*
X-73940Y-81141D01*
X-73940Y-88695D01*
X-73569Y-89066D01*
X-73406Y-89307D01*
X-73346Y-89604D01*
X-73346Y-104439D01*
X-73393Y-104702D01*
X-73552Y-104960D01*
X-73800Y-105135D01*
X-74096Y-105200D01*
X-74394Y-105145D01*
X-74647Y-104977D01*
X-74930Y-104694D01*
X-79326Y-104694D01*
X-81236Y-106604D01*
X-81467Y-106762D01*
G37*
%LPC*%
G36*
X-105760Y-84056D02*
X-102222Y-84056D01*
X-102222Y-80173D01*
X-104881Y-80173D01*
X-105760Y-81051D01*
X-105760Y-84056D01*
G37*
G36*
X-104881Y-89464D02*
X-102222Y-89464D01*
X-102222Y-85580D01*
X-105760Y-85580D01*
X-105760Y-88585D01*
X-104881Y-89464D01*
G37*
%LPD*%
G36*
X83202Y-112121D02*
X82907Y-112191D01*
X82608Y-112140D01*
X82353Y-111977D01*
X82181Y-111727D01*
X82121Y-111429D01*
X82121Y-66926D01*
X62673Y-47478D01*
X62510Y-47237D01*
X62450Y-46939D01*
X62450Y-46789D01*
X60772Y-45111D01*
X60612Y-44875D01*
X60549Y-44578D01*
X60607Y-44280D01*
X61214Y-42814D01*
X61214Y-39682D01*
X60015Y-36788D01*
X57800Y-34573D01*
X54906Y-33374D01*
X51774Y-33374D01*
X48980Y-34531D01*
X48712Y-34589D01*
X48413Y-34538D01*
X48158Y-34375D01*
X47986Y-34125D01*
X47926Y-33827D01*
X47926Y-30869D01*
X47975Y-30600D01*
X48136Y-30343D01*
X48385Y-30169D01*
X48682Y-30107D01*
X48980Y-30165D01*
X51774Y-31322D01*
X54906Y-31322D01*
X57800Y-30123D01*
X60015Y-27908D01*
X60031Y-27870D01*
X60171Y-27649D01*
X60416Y-27469D01*
X60711Y-27399D01*
X61010Y-27450D01*
X61265Y-27614D01*
X61437Y-27864D01*
X61497Y-28161D01*
X61497Y-28308D01*
X62390Y-29201D01*
X69653Y-29201D01*
X70483Y-28371D01*
X70713Y-28213D01*
X71009Y-28148D01*
X71307Y-28204D01*
X71560Y-28371D01*
X72390Y-29201D01*
X72735Y-29201D01*
X73010Y-29252D01*
X73265Y-29416D01*
X73437Y-29666D01*
X73497Y-29963D01*
X73497Y-33821D01*
X74798Y-35122D01*
X74961Y-35364D01*
X75021Y-35661D01*
X75021Y-42256D01*
X75243Y-42478D01*
X75401Y-42709D01*
X75466Y-43005D01*
X75411Y-43303D01*
X75243Y-43556D01*
X75045Y-43754D01*
X75045Y-48238D01*
X85445Y-48238D01*
X85445Y-43754D01*
X85247Y-43556D01*
X85089Y-43325D01*
X85024Y-43029D01*
X85080Y-42731D01*
X85247Y-42478D01*
X85469Y-42256D01*
X85469Y-31744D01*
X84577Y-30851D01*
X79307Y-30851D01*
X79033Y-30800D01*
X78777Y-30636D01*
X78606Y-30386D01*
X78545Y-30089D01*
X78545Y-29963D01*
X78597Y-29689D01*
X78760Y-29433D01*
X79010Y-29262D01*
X79307Y-29201D01*
X79653Y-29201D01*
X80545Y-28308D01*
X80545Y-27463D01*
X80597Y-27189D01*
X80760Y-26933D01*
X81010Y-26762D01*
X81307Y-26701D01*
X82816Y-26701D01*
X83102Y-26757D01*
X83355Y-26924D01*
X89462Y-33031D01*
X89624Y-33273D01*
X89685Y-33570D01*
X89685Y-105389D01*
X89629Y-105675D01*
X89462Y-105928D01*
X83422Y-111968D01*
X83202Y-112121D01*
G37*
%LPC*%
G36*
X75924Y-55125D02*
X79483Y-55125D01*
X79483Y-49762D01*
X75045Y-49762D01*
X75045Y-54246D01*
X75924Y-55125D01*
G37*
G36*
X81007Y-55125D02*
X84567Y-55125D01*
X85445Y-54246D01*
X85445Y-49762D01*
X81007Y-49762D01*
X81007Y-55125D01*
G37*
%LPD*%
G36*
X-38145Y-151509D02*
X-38440Y-151579D01*
X-38739Y-151528D01*
X-38994Y-151364D01*
X-39166Y-151114D01*
X-39226Y-150817D01*
X-39226Y-133525D01*
X-40119Y-132632D01*
X-47381Y-132632D01*
X-48274Y-133525D01*
X-48274Y-138846D01*
X-48325Y-139121D01*
X-48489Y-139376D01*
X-48739Y-139548D01*
X-49036Y-139608D01*
X-50482Y-139608D01*
X-50768Y-139552D01*
X-51021Y-139385D01*
X-67027Y-123379D01*
X-67190Y-123138D01*
X-67250Y-122840D01*
X-67250Y-90350D01*
X-67199Y-90075D01*
X-67035Y-89819D01*
X-66785Y-89648D01*
X-66488Y-89588D01*
X-66185Y-89588D01*
X-65292Y-88695D01*
X-65061Y-88537D01*
X-64765Y-88472D01*
X-64467Y-88527D01*
X-64214Y-88695D01*
X-63345Y-89564D01*
X-60686Y-89564D01*
X-60686Y-80273D01*
X-63345Y-80273D01*
X-64214Y-81141D01*
X-64445Y-81299D01*
X-64741Y-81365D01*
X-65039Y-81309D01*
X-65292Y-81141D01*
X-66345Y-80088D01*
X-66508Y-79847D01*
X-66568Y-79550D01*
X-66568Y-73636D01*
X-69422Y-70783D01*
X-69585Y-70541D01*
X-69645Y-70244D01*
X-69645Y-66428D01*
X-70538Y-65536D01*
X-79508Y-65536D01*
X-79794Y-65480D01*
X-80047Y-65312D01*
X-80427Y-64932D01*
X-80580Y-64713D01*
X-80650Y-64418D01*
X-80599Y-64119D01*
X-80436Y-63863D01*
X-80186Y-63692D01*
X-79888Y-63632D01*
X-75932Y-63632D01*
X-75932Y-56060D01*
X-79309Y-56060D01*
X-79573Y-56013D01*
X-79831Y-55853D01*
X-80006Y-55606D01*
X-80071Y-55310D01*
X-80016Y-55012D01*
X-79848Y-54759D01*
X-79468Y-54379D01*
X-79227Y-54216D01*
X-78929Y-54156D01*
X-70538Y-54156D01*
X-69645Y-53263D01*
X-69645Y-47428D01*
X-70538Y-46536D01*
X-71360Y-46536D01*
X-71634Y-46484D01*
X-71890Y-46321D01*
X-72061Y-46071D01*
X-72122Y-45774D01*
X-72122Y-45692D01*
X-74461Y-43353D01*
X-74614Y-43133D01*
X-74684Y-42838D01*
X-74633Y-42539D01*
X-74470Y-42284D01*
X-74220Y-42112D01*
X-73922Y-42052D01*
X-70655Y-42052D01*
X-69762Y-41159D01*
X-69762Y-40330D01*
X-69711Y-40055D01*
X-69547Y-39800D01*
X-69297Y-39628D01*
X-69000Y-39568D01*
X-64092Y-39568D01*
X-63806Y-39624D01*
X-63553Y-39791D01*
X-59497Y-43847D01*
X-59339Y-44078D01*
X-59274Y-44374D01*
X-59329Y-44672D01*
X-59497Y-44925D01*
X-60269Y-45698D01*
X-61468Y-48592D01*
X-61468Y-51724D01*
X-60269Y-54618D01*
X-58054Y-56833D01*
X-55160Y-58032D01*
X-52028Y-58032D01*
X-49234Y-56875D01*
X-48966Y-56817D01*
X-48667Y-56868D01*
X-48412Y-57031D01*
X-48240Y-57281D01*
X-48180Y-57579D01*
X-48180Y-60563D01*
X-48229Y-60832D01*
X-48390Y-61089D01*
X-48639Y-61263D01*
X-48936Y-61325D01*
X-49234Y-61267D01*
X-52033Y-60108D01*
X-52832Y-60108D01*
X-52832Y-75808D01*
X-52033Y-75808D01*
X-49234Y-74649D01*
X-48966Y-74591D01*
X-48667Y-74642D01*
X-48412Y-74805D01*
X-48240Y-75055D01*
X-48180Y-75353D01*
X-48180Y-85759D01*
X-45479Y-90437D01*
X-40801Y-93138D01*
X40547Y-93138D01*
X42664Y-91916D01*
X43009Y-91815D01*
X43308Y-91861D01*
X43566Y-92020D01*
X43742Y-92267D01*
X43807Y-92564D01*
X43751Y-92862D01*
X43584Y-93114D01*
X32461Y-104237D01*
X32220Y-104400D01*
X31923Y-104460D01*
X-39627Y-104460D01*
X-42265Y-107098D01*
X-42507Y-107261D01*
X-42804Y-107321D01*
X-46665Y-107321D01*
X-46951Y-107266D01*
X-47203Y-107098D01*
X-49746Y-104555D01*
X-54142Y-104555D01*
X-57250Y-107664D01*
X-57250Y-112059D01*
X-54142Y-115167D01*
X-49746Y-115167D01*
X-47203Y-112625D01*
X-46962Y-112462D01*
X-46665Y-112401D01*
X-40384Y-112401D01*
X-37746Y-109763D01*
X-37505Y-109600D01*
X-37207Y-109540D01*
X-24949Y-109540D01*
X-24686Y-109587D01*
X-24428Y-109746D01*
X-24252Y-109994D01*
X-24187Y-110290D01*
X-24243Y-110588D01*
X-24410Y-110841D01*
X-33774Y-120205D01*
X-33774Y-131870D01*
X-33825Y-132145D01*
X-33989Y-132400D01*
X-34239Y-132572D01*
X-34536Y-132632D01*
X-34881Y-132632D01*
X-35774Y-133525D01*
X-35774Y-148889D01*
X-35830Y-149175D01*
X-35997Y-149428D01*
X-37925Y-151356D01*
X-38145Y-151509D01*
G37*
%LPC*%
G36*
X-74408Y-59084D02*
X-69669Y-59084D01*
X-69669Y-56938D01*
X-70548Y-56060D01*
X-74408Y-56060D01*
X-74408Y-59084D01*
G37*
G36*
X-61444Y-67196D02*
X-54356Y-67196D01*
X-54356Y-60108D01*
X-55155Y-60108D01*
X-58041Y-61303D01*
X-60249Y-63511D01*
X-61444Y-66397D01*
X-61444Y-67196D01*
G37*
G36*
X-74408Y-63632D02*
X-70548Y-63632D01*
X-69669Y-62753D01*
X-69669Y-60608D01*
X-74408Y-60608D01*
X-74408Y-63632D01*
G37*
G36*
X-55155Y-75808D02*
X-54356Y-75808D01*
X-54356Y-68720D01*
X-61444Y-68720D01*
X-61444Y-69519D01*
X-60249Y-72405D01*
X-58041Y-74613D01*
X-55155Y-75808D01*
G37*
G36*
X-59162Y-84156D02*
X-55624Y-84156D01*
X-55624Y-81151D01*
X-56503Y-80273D01*
X-59162Y-80273D01*
X-59162Y-84156D01*
G37*
G36*
X-59162Y-89564D02*
X-56503Y-89564D01*
X-55624Y-88685D01*
X-55624Y-85680D01*
X-59162Y-85680D01*
X-59162Y-89564D01*
G37*
%LPD*%
G36*
X-59825Y-187626D02*
X-59887Y-187639D01*
X-98218Y-187639D01*
X-98504Y-187583D01*
X-98757Y-187415D01*
X-104753Y-181420D01*
X-104916Y-181178D01*
X-104976Y-180881D01*
X-104976Y-176369D01*
X-105806Y-175539D01*
X-105964Y-175308D01*
X-106029Y-175012D01*
X-105973Y-174714D01*
X-105806Y-174461D01*
X-104976Y-173631D01*
X-104976Y-168861D01*
X-104920Y-168575D01*
X-104753Y-168322D01*
X-87678Y-151247D01*
X-87436Y-151084D01*
X-87139Y-151024D01*
X-71660Y-151024D01*
X-71385Y-151075D01*
X-71130Y-151239D01*
X-70958Y-151489D01*
X-70898Y-151786D01*
X-70898Y-152631D01*
X-70830Y-152699D01*
X-70677Y-152919D01*
X-70607Y-153214D01*
X-70658Y-153513D01*
X-70822Y-153768D01*
X-71072Y-153940D01*
X-71369Y-154000D01*
X-72211Y-154000D01*
X-83229Y-165018D01*
X-83465Y-165179D01*
X-83761Y-165241D01*
X-84059Y-165183D01*
X-86727Y-164078D01*
X-91073Y-164078D01*
X-95087Y-165741D01*
X-98159Y-168813D01*
X-99822Y-172827D01*
X-99822Y-177173D01*
X-98159Y-181187D01*
X-95087Y-184259D01*
X-91073Y-185922D01*
X-86727Y-185922D01*
X-82713Y-184259D01*
X-79641Y-181187D01*
X-77978Y-177173D01*
X-77978Y-172827D01*
X-79083Y-170159D01*
X-79141Y-169880D01*
X-79086Y-169581D01*
X-78918Y-169329D01*
X-69909Y-160319D01*
X-69667Y-160156D01*
X-69370Y-160096D01*
X-61849Y-160096D01*
X-55500Y-153747D01*
X-55259Y-153584D01*
X-54961Y-153524D01*
X-52743Y-153524D01*
X-51850Y-152631D01*
X-51850Y-148602D01*
X-51794Y-148316D01*
X-51627Y-148063D01*
X-49575Y-146011D01*
X-49355Y-145858D01*
X-49060Y-145789D01*
X-48761Y-145839D01*
X-48506Y-146003D01*
X-48334Y-146253D01*
X-48274Y-146550D01*
X-48274Y-151787D01*
X-47381Y-152680D01*
X-41089Y-152680D01*
X-40826Y-152727D01*
X-40568Y-152886D01*
X-40392Y-153134D01*
X-40327Y-153430D01*
X-40383Y-153728D01*
X-40550Y-153981D01*
X-47434Y-160865D01*
X-47676Y-161028D01*
X-47973Y-161088D01*
X-53157Y-161088D01*
X-57305Y-165235D01*
X-57541Y-165396D01*
X-57837Y-165458D01*
X-58135Y-165400D01*
X-61327Y-164078D01*
X-65673Y-164078D01*
X-69687Y-165741D01*
X-72759Y-168813D01*
X-74422Y-172827D01*
X-74422Y-177173D01*
X-72759Y-181187D01*
X-69687Y-184259D01*
X-65673Y-185922D01*
X-61327Y-185922D01*
X-57313Y-184259D01*
X-54241Y-181187D01*
X-52578Y-177173D01*
X-52578Y-172827D01*
X-53900Y-169635D01*
X-53958Y-169356D01*
X-53903Y-169057D01*
X-53735Y-168805D01*
X-51290Y-166359D01*
X-51048Y-166196D01*
X-50751Y-166136D01*
X-46488Y-166136D01*
X-46224Y-166183D01*
X-45966Y-166342D01*
X-45791Y-166590D01*
X-45726Y-166886D01*
X-45781Y-167184D01*
X-45949Y-167437D01*
X-47339Y-168827D01*
X-48998Y-172832D01*
X-48998Y-174238D01*
X-38862Y-174238D01*
X-38862Y-164102D01*
X-40268Y-164102D01*
X-42302Y-164945D01*
X-42557Y-165002D01*
X-42857Y-164956D01*
X-43115Y-164796D01*
X-43290Y-164549D01*
X-43355Y-164253D01*
X-43300Y-163955D01*
X-43132Y-163702D01*
X-32334Y-152903D01*
X-32092Y-152740D01*
X-31795Y-152680D01*
X-27619Y-152680D01*
X-26726Y-151787D01*
X-26726Y-133525D01*
X-27619Y-132632D01*
X-27964Y-132632D01*
X-28239Y-132581D01*
X-28494Y-132417D01*
X-28666Y-132167D01*
X-28726Y-131870D01*
X-28726Y-122611D01*
X-28670Y-122325D01*
X-28503Y-122072D01*
X-20288Y-113857D01*
X-20046Y-113694D01*
X-19749Y-113634D01*
X36174Y-113634D01*
X64928Y-84880D01*
X64928Y-67799D01*
X60558Y-63428D01*
X60397Y-63192D01*
X60334Y-62896D01*
X60392Y-62598D01*
X61214Y-60614D01*
X61214Y-57482D01*
X60015Y-54588D01*
X57800Y-52373D01*
X54906Y-51174D01*
X51774Y-51174D01*
X48980Y-52331D01*
X48712Y-52389D01*
X48413Y-52338D01*
X48158Y-52175D01*
X47986Y-51925D01*
X47926Y-51627D01*
X47926Y-48669D01*
X47975Y-48400D01*
X48136Y-48143D01*
X48385Y-47969D01*
X48682Y-47907D01*
X48980Y-47965D01*
X51774Y-49122D01*
X54906Y-49122D01*
X56348Y-48525D01*
X56616Y-48467D01*
X56915Y-48518D01*
X57170Y-48681D01*
X57342Y-48931D01*
X57402Y-49229D01*
X57402Y-49346D01*
X76850Y-68793D01*
X77012Y-69035D01*
X77073Y-69332D01*
X77073Y-113018D01*
X77017Y-113304D01*
X76850Y-113557D01*
X67473Y-122933D01*
X67232Y-123096D01*
X66934Y-123156D01*
X57566Y-123156D01*
X57280Y-123100D01*
X57027Y-122933D01*
X51446Y-117352D01*
X5252Y-117352D01*
X-8774Y-131378D01*
X-8774Y-131870D01*
X-8825Y-132145D01*
X-8989Y-132400D01*
X-9239Y-132572D01*
X-9536Y-132632D01*
X-9881Y-132632D01*
X-10774Y-133525D01*
X-10774Y-151787D01*
X-9881Y-152680D01*
X-9536Y-152680D01*
X-9261Y-152731D01*
X-9006Y-152895D01*
X-8834Y-153145D01*
X-8774Y-153442D01*
X-8774Y-163664D01*
X-8823Y-163933D01*
X-8984Y-164190D01*
X-9233Y-164363D01*
X-9530Y-164426D01*
X-9828Y-164368D01*
X-10527Y-164078D01*
X-14873Y-164078D01*
X-18887Y-165741D01*
X-21959Y-168813D01*
X-23622Y-172827D01*
X-23622Y-177173D01*
X-21959Y-181187D01*
X-18887Y-184259D01*
X-14873Y-185922D01*
X-10527Y-185922D01*
X-6513Y-184259D01*
X-3441Y-181187D01*
X-1778Y-177173D01*
X-1778Y-172827D01*
X-3441Y-168813D01*
X-3503Y-168751D01*
X-3666Y-168510D01*
X-3726Y-168212D01*
X-3726Y-153442D01*
X-3675Y-153167D01*
X-3511Y-152912D01*
X-3261Y-152740D01*
X-2964Y-152680D01*
X-2619Y-152680D01*
X-1726Y-151787D01*
X-1726Y-133525D01*
X-2215Y-133035D01*
X-2373Y-132805D01*
X-2438Y-132509D01*
X-2383Y-132211D01*
X-2215Y-131958D01*
X7119Y-122623D01*
X7361Y-122460D01*
X7658Y-122400D01*
X24093Y-122400D01*
X24357Y-122447D01*
X24615Y-122606D01*
X24790Y-122854D01*
X24855Y-123150D01*
X24800Y-123448D01*
X24632Y-123701D01*
X17476Y-130857D01*
X17476Y-131870D01*
X17425Y-132145D01*
X17261Y-132400D01*
X17011Y-132572D01*
X16714Y-132632D01*
X15119Y-132632D01*
X14226Y-133525D01*
X14226Y-151787D01*
X15119Y-152680D01*
X15464Y-152680D01*
X15739Y-152731D01*
X15994Y-152895D01*
X16166Y-153145D01*
X16226Y-153442D01*
X16226Y-158695D01*
X27749Y-170219D01*
X27910Y-170455D01*
X27973Y-170752D01*
X27915Y-171049D01*
X27178Y-172827D01*
X27178Y-177173D01*
X28841Y-181187D01*
X30472Y-182818D01*
X30630Y-183048D01*
X30695Y-183344D01*
X30639Y-183642D01*
X30472Y-183895D01*
X26964Y-187403D01*
X26722Y-187566D01*
X26425Y-187626D01*
X-59825Y-187626D01*
G37*
%LPC*%
G36*
X-17988Y-141894D02*
X-14250Y-141894D01*
X-14250Y-133535D01*
X-15129Y-132656D01*
X-17988Y-132656D01*
X-17988Y-141894D01*
G37*
G36*
X7012Y-141894D02*
X10750Y-141894D01*
X10750Y-133535D01*
X9871Y-132656D01*
X7012Y-132656D01*
X7012Y-141894D01*
G37*
G36*
X-23250Y-141894D02*
X-19512Y-141894D01*
X-19512Y-132656D01*
X-22371Y-132656D01*
X-23250Y-133535D01*
X-23250Y-141894D01*
G37*
G36*
X1750Y-141894D02*
X5488Y-141894D01*
X5488Y-132656D01*
X2629Y-132656D01*
X1750Y-133535D01*
X1750Y-141894D01*
G37*
G36*
X-22371Y-152656D02*
X-19512Y-152656D01*
X-19512Y-143418D01*
X-23250Y-143418D01*
X-23250Y-151777D01*
X-22371Y-152656D01*
G37*
G36*
X-17988Y-152656D02*
X-15129Y-152656D01*
X-14250Y-151777D01*
X-14250Y-143418D01*
X-17988Y-143418D01*
X-17988Y-152656D01*
G37*
G36*
X2629Y-152656D02*
X5488Y-152656D01*
X5488Y-143418D01*
X1750Y-143418D01*
X1750Y-151777D01*
X2629Y-152656D01*
G37*
G36*
X7012Y-152656D02*
X9871Y-152656D01*
X10750Y-151777D01*
X10750Y-143418D01*
X7012Y-143418D01*
X7012Y-152656D01*
G37*
G36*
X1802Y-174238D02*
X11938Y-174238D01*
X11938Y-164102D01*
X10532Y-164102D01*
X6527Y-165761D01*
X3461Y-168827D01*
X1802Y-172832D01*
X1802Y-174238D01*
G37*
G36*
X-37338Y-174238D02*
X-27202Y-174238D01*
X-27202Y-172832D01*
X-28861Y-168827D01*
X-31927Y-165761D01*
X-35932Y-164102D01*
X-37338Y-164102D01*
X-37338Y-174238D01*
G37*
G36*
X13462Y-174238D02*
X23598Y-174238D01*
X23598Y-172832D01*
X21939Y-168827D01*
X18873Y-165761D01*
X14868Y-164102D01*
X13462Y-164102D01*
X13462Y-174238D01*
G37*
G36*
X13462Y-185898D02*
X14868Y-185898D01*
X18873Y-184239D01*
X21939Y-181173D01*
X23598Y-177168D01*
X23598Y-175762D01*
X13462Y-175762D01*
X13462Y-185898D01*
G37*
G36*
X10532Y-185898D02*
X11938Y-185898D01*
X11938Y-175762D01*
X1802Y-175762D01*
X1802Y-177168D01*
X3461Y-181173D01*
X6527Y-184239D01*
X10532Y-185898D01*
G37*
G36*
X-37338Y-185898D02*
X-35932Y-185898D01*
X-31927Y-184239D01*
X-28861Y-181173D01*
X-27202Y-177168D01*
X-27202Y-175762D01*
X-37338Y-175762D01*
X-37338Y-185898D01*
G37*
G36*
X-40268Y-185898D02*
X-38862Y-185898D01*
X-38862Y-175762D01*
X-48998Y-175762D01*
X-48998Y-177168D01*
X-47339Y-181173D01*
X-44273Y-184239D01*
X-40268Y-185898D01*
G37*
%LPD*%
D10*
X-74884Y40560D03*
X-90376Y40560D03*
D11*
X-76784Y26050D03*
X-86476Y26050D03*
X-76784Y-25210D03*
X-86476Y-25210D03*
X-76784Y-14780D03*
X-86476Y-14780D03*
X-69616Y-84918D03*
X-59924Y-84918D03*
X-91768Y-84818D03*
X-101460Y-84818D03*
X-76784Y4920D03*
X-86476Y4920D03*
X-76784Y15350D03*
X-86476Y15350D03*
D12*
X-88900Y-175000D03*
X-63500Y-175000D03*
X-38100Y-175000D03*
X-12700Y-175000D03*
X12700Y-175000D03*
X38100Y-175000D03*
X63500Y-175000D03*
X88900Y-175000D03*
D13*
X-84286Y-37028D03*
X-74286Y-37028D03*
D14*
X-53594Y56642D03*
D15*
X-53594Y38842D03*
X-53594Y21042D03*
X-53594Y3242D03*
X-53594Y-14558D03*
X-53594Y-32358D03*
X-53594Y-50158D03*
X-53594Y-67958D03*
X53340Y47752D03*
X53340Y29952D03*
X53340Y12152D03*
X53340Y-5648D03*
X53340Y-23448D03*
X53340Y-41248D03*
X53340Y-59048D03*
X53340Y-76848D03*
D16*
X-75170Y-69346D03*
X-75170Y-59846D03*
X-75170Y-50346D03*
X-100696Y-50346D03*
X-100696Y-69346D03*
D13*
X69470Y30346D03*
X79470Y30346D03*
X-66374Y-148500D03*
X-56374Y-148500D03*
D11*
X81624Y7780D03*
X91316Y7780D03*
X81600Y19322D03*
X91292Y19322D03*
D13*
X66021Y-24177D03*
X76021Y-24177D03*
D17*
X6250Y-142656D03*
X18750Y-142656D03*
X31250Y-142656D03*
X43750Y-142656D03*
X-6250Y-142656D03*
X-18750Y-142656D03*
X-31250Y-142656D03*
X-43750Y-142656D03*
D18*
X62250Y-109156D03*
X-62250Y-109156D03*
D12*
X109602Y74768D03*
X109602Y49368D03*
D19*
X80245Y-37000D03*
X80245Y-49000D03*
D20*
X-110000Y-180000D03*
X-110000Y-170000D03*
D21*
X-62250Y-88898D02*
X-59924Y-84918D01*
X-62250Y-88898D02*
X-62250Y-109156D01*
D22*
X-62287Y-23713D03*
X62000Y139000D03*
X83000Y-153932D03*
X57640Y61640D03*
X84282Y-61000D03*
X-79128Y-130236D03*
X-25000Y141218D03*
X-18000Y-127000D03*
X12000Y-128000D03*
X57000Y-136000D03*
X31000Y-158000D03*
X56000Y-158000D03*
X7000Y-159000D03*
X-22000Y-159000D03*
X-120000Y-109000D03*
X-121218Y-141000D03*
X-108822Y-191184D03*
X-76200Y-183095D03*
X52000Y-191218D03*
X76000Y-191000D03*
X113000Y-186000D03*
X116000Y-166000D03*
X91000Y-144000D03*
X99000Y-38000D03*
X121218Y-108000D03*
X121218Y-69000D03*
X121000Y-48000D03*
X119000Y-6000D03*
X109000Y27000D03*
X83000Y59000D03*
X-60000Y95000D03*
X-83170Y75340D03*
X-78000Y61000D03*
X-117000Y107000D03*
X-83000Y137000D03*
X-63000Y141218D03*
X45000Y141218D03*
X99000Y104000D03*
X-98000Y20000D03*
X-98000Y31000D03*
X-95000Y56000D03*
X-93000Y-61000D03*
X-63000Y-59000D03*
X-115000Y-34000D03*
X-75000Y-6000D03*
X-98340Y7000D03*
X-121218Y53000D03*
X-121218Y20000D03*
X-113000Y3000D03*
X99000Y-3000D03*
X88000Y39000D03*
X-53170Y73340D03*
X51708Y85000D03*
X59513Y96513D03*
X68672Y106672D03*
X-118159Y84159D03*
X38000Y126660D03*
X-22000Y126660D03*
X-37000Y126660D03*
X-88414Y89414D03*
X25000Y110830D03*
X-3000Y110830D03*
X-30000Y110830D03*
X75098Y80928D03*
X2000Y93364D03*
X30000Y94000D03*
X15000Y95000D03*
X-50000Y-97000D03*
X-51000Y-119000D03*
X61194Y2982D03*
X61994Y-33006D03*
X79797Y-12203D03*
X-66000Y-43858D03*
X84718Y-131451D03*
X-38958Y-118042D03*
X-112218Y-80718D03*
X-87193Y-95658D03*
X62640Y39640D03*
X61797Y-14203D03*
X28000Y-97000D03*
X-24000Y-98000D03*
X-106203Y74797D03*
X118797Y92797D03*
X-83203Y-76203D03*
X-119203Y-181203D03*
X120797Y62797D03*
X99762Y-92000D03*
X99762Y-70000D03*
X64996Y-62479D03*
X73291Y-108529D03*
X51087Y-104087D03*
X-25404Y-183844D03*
X-312Y-183407D03*
X37696Y-129706D03*
X72815Y-92000D03*
X-51404Y-183844D03*
X24800Y-183844D03*
X41587Y-113570D03*
X-91378Y-160296D03*
X-112203Y-153203D03*
X-51000Y-157306D03*
X94672Y80672D03*
X51000Y-113570D03*
X-55000Y-128000D03*
X61194Y20982D03*
X85903Y-103000D03*
X110218Y-105000D03*
X-101914Y-42000D03*
X-99000Y-23062D03*
X-106340Y-10000D03*
X-79378Y-155296D03*
X-66000Y4000D03*
D21*
X-76784Y26050D02*
X-76784Y37510D01*
X-74884Y40560D01*
X-76784Y26050D02*
X-70122Y21042D01*
X-53594Y21042D01*
X-100027Y-69346D02*
X-100696Y-69346D01*
X-76784Y4920D02*
X-76784Y15350D01*
X-65702Y15350D01*
X-53594Y3242D01*
X-100696Y-60943D02*
X-100696Y-69346D01*
D22*
X-63045Y29955D03*
D21*
X-108744Y-52894D02*
X-100696Y-60943D01*
X79470Y30346D02*
X79470Y31899D01*
X71756Y39613D01*
X71756Y74611D01*
X42367Y104000D01*
X-41000Y104000D01*
X79470Y22855D02*
X81600Y19322D01*
X79470Y22855D02*
X79470Y30346D01*
X81536Y19321D02*
X81600Y19322D01*
X81624Y18707D02*
X81624Y7780D01*
X81624Y18707D02*
X81536Y19321D01*
X-41000Y104000D02*
X-62992Y82008D01*
X-62992Y30008D01*
X-63045Y29955D01*
X-108744Y-37403D02*
X-108744Y-52894D01*
X-84079Y-4232D02*
X-76784Y4920D01*
X-84079Y-4232D02*
X-90893Y-4232D01*
X-105830Y-34489D02*
X-108744Y-37403D01*
X-105830Y-34489D02*
X-105830Y-19170D01*
X-90893Y-4232D01*
X-100027Y-69346D02*
X-100027Y-75995D01*
X-95612Y-80410D01*
X-95612Y-80974D01*
X-91768Y-84818D01*
X-79746Y-50346D02*
X-75170Y-50346D01*
X-79746Y-50346D02*
X-83820Y-54420D01*
X-83820Y-65850D01*
X-80325Y-69346D01*
X-75170Y-69346D01*
X-53816Y-14780D02*
X-53594Y-14558D01*
X-53816Y-14780D02*
X-76784Y-14780D01*
X-76784Y-25210D01*
X-75130Y-25872D01*
X-84286Y-35028D01*
X-84286Y-37028D01*
X-80334Y-40980D01*
X-80334Y-41791D01*
X-75170Y-46955D02*
X-75170Y-50346D01*
X-75170Y-46955D02*
X-80334Y-41791D01*
X-75170Y-69346D02*
X-69616Y-74899D01*
X-69616Y-84918D01*
X-70298Y-124419D02*
X-52061Y-142656D01*
X-43750Y-142656D01*
X-70298Y-85890D02*
X-69616Y-84918D01*
X-70948Y-157048D02*
X-88900Y-175000D01*
X-56374Y-148500D02*
X-50530Y-142656D01*
X-43750Y-142656D01*
X-70298Y-124419D02*
X-70298Y-85890D01*
X-56374Y-148500D02*
X-58326Y-150452D01*
X-58326Y-152263D01*
X-63112Y-157048D01*
X-70948Y-157048D01*
D23*
X-74286Y-37028D02*
X-62724Y-37028D01*
X-53594Y-46158D02*
X-53594Y-50158D01*
X-53594Y-46158D02*
X-62724Y-37028D01*
X-113303Y-23439D02*
X-113303Y-6962D01*
X-106170Y171D01*
X-106170Y62000D01*
X-48340Y119830D02*
X45855Y119830D01*
X-48340Y119830D02*
X-106170Y62000D01*
X109602Y56083D02*
X109602Y49368D01*
X109602Y56083D02*
X45855Y119830D01*
D22*
X-88000Y-46000D03*
X-97531Y-33531D03*
D23*
X-97531Y-36469D02*
X-88000Y-46000D01*
X-97531Y-36469D02*
X-97531Y-33531D01*
D22*
X-113591Y-23727D03*
D23*
X-113303Y-23439D01*
D24*
X36100Y-175000D02*
X38100Y-175000D01*
X36100Y-175000D02*
X18750Y-157650D01*
X18750Y-142656D01*
X20000Y-141406D01*
X76021Y-24177D02*
X84177Y-24177D01*
X76021Y-24177D02*
X76021Y-32776D01*
X80245Y-37000D01*
X-58526Y-190163D02*
X-99579Y-190163D01*
X-58526Y-190163D02*
X-58514Y-190150D01*
X20000Y-141406D02*
X20000Y-131902D01*
X27786Y-190150D02*
X-58514Y-190150D01*
X38100Y-179836D02*
X38100Y-175000D01*
X38100Y-179836D02*
X27786Y-190150D01*
X20000Y-131902D02*
X28502Y-123400D01*
X-99579Y-190163D02*
X-109742Y-180000D01*
X-110000Y-180000D01*
X54745Y-129204D02*
X69755Y-129204D01*
X48941Y-123400D02*
X28502Y-123400D01*
X48941Y-123400D02*
X54745Y-129204D01*
X69755Y-129204D02*
X92209Y-106751D01*
X92209Y-32209D01*
X84177Y-24177D01*
X-6250Y-168550D02*
X-12700Y-175000D01*
X-6250Y-168550D02*
X-6250Y-142656D01*
X-6250Y-132423D01*
X59926Y-47834D02*
X53340Y-41248D01*
X59926Y-47834D02*
X59926Y-48301D01*
X79597Y-67971D01*
X79597Y-114379D01*
X68296Y-125680D01*
X6297Y-119876D02*
X-6250Y-132423D01*
X56205Y-125680D02*
X68296Y-125680D01*
X50400Y-119876D02*
X6297Y-119876D01*
X50400Y-119876D02*
X56205Y-125680D01*
X53340Y-59780D02*
X53340Y-59048D01*
X-31250Y-121250D02*
X-31250Y-142656D01*
X-31250Y-148250D01*
X-31250Y-121250D02*
X-21110Y-111110D01*
X53340Y-59780D02*
X62404Y-68844D01*
X35129Y-111110D02*
X-21110Y-111110D01*
X62404Y-83835D02*
X62404Y-68844D01*
X62404Y-83835D02*
X35129Y-111110D01*
X-52112Y-163612D02*
X-63500Y-175000D01*
X-52112Y-163612D02*
X-46612Y-163612D01*
X-31250Y-148250D01*
D22*
X-51944Y-109861D03*
D23*
X-114388Y12271D02*
X-114388Y78271D01*
X75502Y108868D02*
X109602Y74768D01*
X75502Y108868D02*
X75502Y109501D01*
X51174Y133830D01*
X-58829Y133830D01*
X-114388Y78271D01*
X53340Y-76848D02*
X53340Y-86950D01*
X33290Y-107000D01*
X-114388Y12271D02*
X-121830Y4829D01*
X-38575Y-107000D02*
X33290Y-107000D01*
X-38575Y-107000D02*
X-41436Y-109861D01*
X-82510Y-110000D02*
X-92534Y-99976D01*
D22*
X-77128Y-110000D03*
D23*
X-82510Y-110000D01*
X-121830Y-88765D02*
X-121830Y4829D01*
X-121830Y-88765D02*
X-110619Y-99976D01*
X-92534Y-99976D01*
X-51944Y-109861D02*
X-41436Y-109861D01*
D24*
X56556Y-142656D02*
X88900Y-175000D01*
X56556Y-142656D02*
X43750Y-142656D01*
X106068Y-25893D02*
X85823Y-5648D01*
X53340Y-5648D01*
X56556Y-142656D02*
X61287Y-142656D01*
X106068Y-97875D01*
X106068Y-25893D01*
D21*
X69076Y29952D02*
X69470Y30346D01*
X69076Y29952D02*
X53340Y29952D01*
D24*
X54069Y-24177D02*
X66021Y-24177D01*
X54069Y-24177D02*
X53340Y-23448D01*
X-88500Y-148500D02*
X-110000Y-170000D01*
X-88500Y-148500D02*
X-66374Y-148500D01*
M02*
