G04 EAGLE Gerber RS-274X export*
G75*
%MOMM*%
%FSLAX34Y34*%
%LPD*%
%INSilkscreen Top*%
%IPPOS*%
%AMOC8*
5,1,8,0,0,1.08239X$1,22.5*%
G01*
G04 Define Apertures*
%ADD10C,0.152400*%
%ADD11C,0.127000*%
%ADD12C,0.203200*%
%ADD13C,0.200000*%
G36*
X-71175Y121600D02*
X-72261Y121600D01*
X-70105Y124714D01*
X-72160Y127659D01*
X-71046Y127659D01*
X-69534Y125302D01*
X-68033Y127659D01*
X-66908Y127659D01*
X-68963Y124725D01*
X-66779Y121600D01*
X-67904Y121600D01*
X-69534Y124086D01*
X-71175Y121600D01*
G37*
G36*
X-42110Y133190D02*
X-42491Y133205D01*
X-42805Y133252D01*
X-42805Y134008D01*
X-42581Y133982D01*
X-42334Y133974D01*
X-42105Y133996D01*
X-41889Y134060D01*
X-41684Y134169D01*
X-41492Y134320D01*
X-41312Y134514D01*
X-41144Y134752D01*
X-40988Y135033D01*
X-40845Y135357D01*
X-40750Y135598D01*
X-43152Y141629D01*
X-42077Y141629D01*
X-40800Y138280D01*
X-40733Y138093D01*
X-40481Y137362D01*
X-40251Y136668D01*
X-39859Y137771D01*
X-38532Y141629D01*
X-37468Y141629D01*
X-39798Y135570D01*
X-39982Y135117D01*
X-40160Y134725D01*
X-40332Y134396D01*
X-40498Y134128D01*
X-40664Y133906D01*
X-40840Y133715D01*
X-41024Y133554D01*
X-41217Y133422D01*
X-41421Y133321D01*
X-41638Y133248D01*
X-41868Y133205D01*
X-42110Y133190D01*
G37*
G36*
X-72308Y99916D02*
X-72555Y99928D01*
X-72786Y99965D01*
X-73002Y100025D01*
X-73201Y100110D01*
X-73385Y100219D01*
X-73552Y100353D01*
X-73704Y100510D01*
X-73840Y100692D01*
X-73960Y100898D01*
X-74064Y101125D01*
X-74152Y101375D01*
X-74224Y101647D01*
X-74280Y101941D01*
X-74320Y102258D01*
X-74344Y102597D01*
X-74352Y102958D01*
X-74344Y103327D01*
X-74321Y103672D01*
X-74282Y103993D01*
X-74228Y104291D01*
X-74158Y104564D01*
X-74072Y104814D01*
X-73971Y105039D01*
X-73855Y105241D01*
X-73721Y105419D01*
X-73570Y105573D01*
X-73401Y105704D01*
X-73213Y105811D01*
X-73008Y105894D01*
X-72784Y105953D01*
X-72543Y105989D01*
X-72283Y106001D01*
X-72030Y105989D01*
X-71795Y105953D01*
X-71576Y105893D01*
X-71375Y105809D01*
X-71191Y105701D01*
X-71024Y105569D01*
X-70874Y105413D01*
X-70741Y105233D01*
X-70624Y105029D01*
X-70523Y104803D01*
X-70438Y104553D01*
X-70368Y104280D01*
X-70314Y103984D01*
X-70275Y103665D01*
X-70252Y103323D01*
X-70244Y102958D01*
X-70252Y102599D01*
X-70276Y102261D01*
X-70317Y101946D01*
X-70374Y101652D01*
X-70448Y101380D01*
X-70538Y101131D01*
X-70644Y100903D01*
X-70766Y100697D01*
X-70905Y100514D01*
X-71059Y100355D01*
X-71228Y100221D01*
X-71413Y100111D01*
X-71613Y100026D01*
X-71830Y99965D01*
X-72061Y99928D01*
X-72308Y99916D01*
G37*
%LPC*%
G36*
X-72300Y100533D02*
X-72139Y100542D01*
X-71989Y100570D01*
X-71850Y100617D01*
X-71722Y100682D01*
X-71605Y100766D01*
X-71500Y100868D01*
X-71405Y100989D01*
X-71322Y101129D01*
X-71249Y101288D01*
X-71186Y101467D01*
X-71089Y101884D01*
X-71031Y102381D01*
X-71012Y102958D01*
X-71030Y103554D01*
X-71086Y104062D01*
X-71178Y104482D01*
X-71238Y104658D01*
X-71308Y104813D01*
X-71387Y104948D01*
X-71479Y105065D01*
X-71583Y105163D01*
X-71699Y105244D01*
X-71827Y105307D01*
X-71967Y105352D01*
X-72119Y105379D01*
X-72283Y105388D01*
X-72451Y105379D01*
X-72607Y105352D01*
X-72750Y105308D01*
X-72882Y105246D01*
X-73001Y105167D01*
X-73107Y105069D01*
X-73202Y104954D01*
X-73284Y104821D01*
X-73355Y104668D01*
X-73417Y104493D01*
X-73469Y104294D01*
X-73512Y104072D01*
X-73569Y103561D01*
X-73588Y102958D01*
X-73569Y102371D01*
X-73511Y101868D01*
X-73468Y101649D01*
X-73415Y101450D01*
X-73352Y101273D01*
X-73280Y101116D01*
X-73197Y100979D01*
X-73103Y100861D01*
X-72997Y100761D01*
X-72881Y100679D01*
X-72752Y100615D01*
X-72613Y100569D01*
X-72462Y100542D01*
X-72300Y100533D01*
G37*
%LPD*%
G36*
X-65000Y99916D02*
X-65208Y99925D01*
X-65402Y99952D01*
X-65581Y99998D01*
X-65747Y100061D01*
X-65898Y100142D01*
X-66035Y100242D01*
X-66157Y100359D01*
X-66265Y100495D01*
X-66360Y100649D01*
X-66443Y100822D01*
X-66512Y101013D01*
X-66569Y101223D01*
X-66613Y101452D01*
X-66645Y101699D01*
X-66664Y101965D01*
X-66670Y102249D01*
X-66664Y102537D01*
X-66644Y102806D01*
X-66612Y103056D01*
X-66566Y103288D01*
X-66507Y103502D01*
X-66436Y103696D01*
X-66351Y103873D01*
X-66253Y104030D01*
X-66142Y104170D01*
X-66018Y104290D01*
X-65881Y104392D01*
X-65731Y104476D01*
X-65568Y104541D01*
X-65392Y104587D01*
X-65203Y104615D01*
X-65000Y104624D01*
X-64753Y104612D01*
X-64527Y104577D01*
X-64323Y104518D01*
X-64140Y104435D01*
X-63976Y104327D01*
X-63830Y104191D01*
X-63700Y104027D01*
X-63586Y103835D01*
X-63578Y103835D01*
X-63586Y104343D01*
X-63586Y106227D01*
X-62831Y106227D01*
X-62831Y100936D01*
X-62825Y100347D01*
X-62806Y100000D01*
X-63527Y100000D01*
X-63555Y100311D01*
X-63569Y100730D01*
X-63586Y100730D01*
X-63700Y100527D01*
X-63830Y100356D01*
X-63978Y100215D01*
X-64142Y100105D01*
X-64326Y100022D01*
X-64530Y99963D01*
X-64755Y99928D01*
X-65000Y99916D01*
G37*
%LPC*%
G36*
X-64807Y100499D02*
X-64652Y100506D01*
X-64508Y100527D01*
X-64375Y100562D01*
X-64253Y100611D01*
X-64142Y100673D01*
X-64043Y100750D01*
X-63954Y100840D01*
X-63885Y100932D01*
X-63876Y100944D01*
X-63749Y101197D01*
X-63659Y101512D01*
X-63604Y101887D01*
X-63586Y102325D01*
X-63604Y102746D01*
X-63659Y103106D01*
X-63749Y103407D01*
X-63876Y103646D01*
X-63954Y103745D01*
X-64042Y103830D01*
X-64141Y103902D01*
X-64251Y103961D01*
X-64372Y104007D01*
X-64504Y104040D01*
X-64646Y104060D01*
X-64799Y104066D01*
X-64937Y104059D01*
X-65064Y104040D01*
X-65182Y104007D01*
X-65290Y103961D01*
X-65389Y103901D01*
X-65477Y103829D01*
X-65623Y103644D01*
X-65735Y103401D01*
X-65814Y103091D01*
X-65861Y102716D01*
X-65877Y102274D01*
X-65862Y101832D01*
X-65814Y101457D01*
X-65736Y101150D01*
X-65626Y100911D01*
X-65480Y100731D01*
X-65295Y100602D01*
X-65188Y100557D01*
X-65071Y100525D01*
X-64944Y100506D01*
X-64807Y100499D01*
G37*
%LPD*%
G36*
X-108494Y100000D02*
X-109295Y100000D01*
X-109295Y105912D01*
X-106807Y105912D01*
X-106565Y105905D01*
X-106338Y105883D01*
X-106124Y105847D01*
X-105925Y105796D01*
X-105739Y105730D01*
X-105568Y105650D01*
X-105410Y105556D01*
X-105267Y105447D01*
X-105139Y105324D01*
X-105028Y105190D01*
X-104934Y105044D01*
X-104858Y104885D01*
X-104798Y104715D01*
X-104755Y104533D01*
X-104730Y104339D01*
X-104721Y104133D01*
X-104730Y103929D01*
X-104755Y103735D01*
X-104798Y103552D01*
X-104858Y103380D01*
X-104935Y103219D01*
X-105029Y103068D01*
X-105141Y102928D01*
X-105269Y102799D01*
X-105412Y102683D01*
X-105567Y102582D01*
X-105735Y102497D01*
X-105915Y102427D01*
X-106107Y102373D01*
X-106311Y102335D01*
X-106528Y102311D01*
X-106756Y102304D01*
X-108494Y102304D01*
X-108494Y100000D01*
G37*
%LPC*%
G36*
X-106870Y102937D02*
X-106555Y102956D01*
X-106282Y103012D01*
X-106051Y103104D01*
X-105863Y103234D01*
X-105716Y103401D01*
X-105611Y103605D01*
X-105548Y103847D01*
X-105527Y104125D01*
X-105548Y104393D01*
X-105613Y104626D01*
X-105720Y104823D01*
X-105871Y104984D01*
X-106065Y105109D01*
X-106301Y105199D01*
X-106581Y105252D01*
X-106903Y105270D01*
X-108494Y105270D01*
X-108494Y102937D01*
X-106870Y102937D01*
G37*
%LPD*%
G36*
X-94389Y100000D02*
X-95346Y100000D01*
X-97087Y105912D01*
X-96252Y105912D01*
X-95191Y102157D01*
X-95009Y101441D01*
X-94842Y100705D01*
X-94609Y101712D01*
X-94252Y103035D01*
X-93445Y105912D01*
X-92677Y105912D01*
X-91649Y102232D01*
X-91439Y101399D01*
X-91280Y100705D01*
X-91242Y100852D01*
X-91057Y101639D01*
X-89878Y105912D01*
X-89043Y105912D01*
X-90785Y100000D01*
X-91741Y100000D01*
X-92765Y103756D01*
X-92889Y104248D01*
X-93059Y105019D01*
X-93244Y104205D01*
X-94389Y100000D01*
G37*
G36*
X-76976Y99916D02*
X-77219Y99928D01*
X-77446Y99963D01*
X-77659Y100021D01*
X-77857Y100102D01*
X-78041Y100206D01*
X-78210Y100334D01*
X-78364Y100485D01*
X-78504Y100659D01*
X-78628Y100855D01*
X-78735Y101072D01*
X-78826Y101311D01*
X-78900Y101570D01*
X-78958Y101851D01*
X-78999Y102153D01*
X-79024Y102476D01*
X-79032Y102820D01*
X-79024Y103193D01*
X-78998Y103543D01*
X-78955Y103871D01*
X-78895Y104177D01*
X-78818Y104461D01*
X-78723Y104722D01*
X-78612Y104961D01*
X-78483Y105178D01*
X-78338Y105371D01*
X-78179Y105538D01*
X-78005Y105679D01*
X-77817Y105795D01*
X-77614Y105885D01*
X-77396Y105949D01*
X-77164Y105988D01*
X-76918Y106001D01*
X-76598Y105982D01*
X-76310Y105925D01*
X-76053Y105831D01*
X-75827Y105699D01*
X-75631Y105530D01*
X-75467Y105323D01*
X-75333Y105078D01*
X-75231Y104796D01*
X-75952Y104666D01*
X-76016Y104835D01*
X-76097Y104982D01*
X-76194Y105106D01*
X-76307Y105207D01*
X-76437Y105286D01*
X-76583Y105343D01*
X-76746Y105377D01*
X-76926Y105388D01*
X-77083Y105378D01*
X-77231Y105350D01*
X-77370Y105303D01*
X-77499Y105237D01*
X-77620Y105153D01*
X-77731Y105049D01*
X-77833Y104927D01*
X-77927Y104786D01*
X-78010Y104627D01*
X-78082Y104451D01*
X-78143Y104258D01*
X-78193Y104049D01*
X-78231Y103822D01*
X-78259Y103579D01*
X-78281Y103042D01*
X-78168Y103222D01*
X-78034Y103378D01*
X-77878Y103512D01*
X-77702Y103623D01*
X-77509Y103711D01*
X-77301Y103773D01*
X-77081Y103810D01*
X-76846Y103823D01*
X-76647Y103815D01*
X-76458Y103791D01*
X-76280Y103751D01*
X-76112Y103695D01*
X-75955Y103623D01*
X-75809Y103535D01*
X-75673Y103431D01*
X-75547Y103311D01*
X-75435Y103177D01*
X-75337Y103033D01*
X-75255Y102877D01*
X-75187Y102711D01*
X-75135Y102533D01*
X-75097Y102345D01*
X-75075Y102145D01*
X-75067Y101934D01*
X-75075Y101707D01*
X-75099Y101491D01*
X-75138Y101288D01*
X-75194Y101097D01*
X-75265Y100919D01*
X-75353Y100753D01*
X-75456Y100599D01*
X-75575Y100457D01*
X-75708Y100331D01*
X-75853Y100221D01*
X-76010Y100128D01*
X-76179Y100051D01*
X-76360Y99992D01*
X-76553Y99950D01*
X-76759Y99925D01*
X-76976Y99916D01*
G37*
%LPC*%
G36*
X-77001Y100525D02*
X-76743Y100547D01*
X-76515Y100616D01*
X-76315Y100731D01*
X-76145Y100892D01*
X-76010Y101092D01*
X-75913Y101328D01*
X-75854Y101597D01*
X-75835Y101901D01*
X-75855Y102204D01*
X-75914Y102469D01*
X-76012Y102699D01*
X-76150Y102891D01*
X-76322Y103044D01*
X-76526Y103152D01*
X-76761Y103218D01*
X-77027Y103239D01*
X-77278Y103220D01*
X-77504Y103162D01*
X-77705Y103066D01*
X-77881Y102931D01*
X-78023Y102762D01*
X-78124Y102564D01*
X-78185Y102337D01*
X-78206Y102081D01*
X-78185Y101755D01*
X-78121Y101459D01*
X-78016Y101195D01*
X-77868Y100961D01*
X-77687Y100770D01*
X-77482Y100634D01*
X-77254Y100552D01*
X-77131Y100531D01*
X-77001Y100525D01*
G37*
%LPD*%
G36*
X-102863Y100000D02*
X-103576Y100000D01*
X-103576Y105912D01*
X-102523Y105912D01*
X-100950Y101813D01*
X-100788Y101282D01*
X-100685Y100873D01*
X-100545Y101383D01*
X-100400Y101813D01*
X-98856Y105912D01*
X-97828Y105912D01*
X-97828Y100000D01*
X-98549Y100000D01*
X-98549Y103944D01*
X-98540Y104586D01*
X-98512Y105203D01*
X-98707Y104534D01*
X-98881Y104028D01*
X-100408Y100000D01*
X-100971Y100000D01*
X-102519Y104028D01*
X-102754Y104742D01*
X-102892Y105203D01*
X-102880Y104737D01*
X-102863Y103944D01*
X-102863Y100000D01*
G37*
G36*
X-59825Y99916D02*
X-60069Y99925D01*
X-60298Y99954D01*
X-60512Y100000D01*
X-60712Y100066D01*
X-60896Y100150D01*
X-61065Y100254D01*
X-61219Y100375D01*
X-61358Y100516D01*
X-61482Y100675D01*
X-61589Y100853D01*
X-61679Y101048D01*
X-61753Y101262D01*
X-61811Y101494D01*
X-61852Y101744D01*
X-61877Y102013D01*
X-61885Y102299D01*
X-61877Y102572D01*
X-61852Y102829D01*
X-61811Y103069D01*
X-61753Y103293D01*
X-61679Y103500D01*
X-61589Y103691D01*
X-61482Y103866D01*
X-61358Y104024D01*
X-61220Y104165D01*
X-61067Y104287D01*
X-60900Y104390D01*
X-60719Y104474D01*
X-60524Y104540D01*
X-60315Y104587D01*
X-60091Y104615D01*
X-59854Y104624D01*
X-59612Y104615D01*
X-59385Y104586D01*
X-59174Y104539D01*
X-58978Y104473D01*
X-58799Y104389D01*
X-58634Y104285D01*
X-58486Y104162D01*
X-58353Y104021D01*
X-58236Y103861D01*
X-58134Y103682D01*
X-58048Y103484D01*
X-57978Y103267D01*
X-57923Y103031D01*
X-57884Y102777D01*
X-57860Y102504D01*
X-57852Y102211D01*
X-57852Y102111D01*
X-61092Y102111D01*
X-61072Y101743D01*
X-61011Y101419D01*
X-60910Y101141D01*
X-60769Y100906D01*
X-60589Y100721D01*
X-60485Y100648D01*
X-60371Y100589D01*
X-60249Y100542D01*
X-60117Y100509D01*
X-59975Y100489D01*
X-59825Y100483D01*
X-59591Y100495D01*
X-59382Y100532D01*
X-59198Y100593D01*
X-59038Y100680D01*
X-58902Y100785D01*
X-58790Y100903D01*
X-58702Y101035D01*
X-58637Y101179D01*
X-57974Y100990D01*
X-58092Y100739D01*
X-58242Y100520D01*
X-58425Y100336D01*
X-58640Y100185D01*
X-58888Y100067D01*
X-59168Y99983D01*
X-59480Y99933D01*
X-59825Y99916D01*
G37*
%LPC*%
G36*
X-58633Y102690D02*
X-58679Y103024D01*
X-58756Y103310D01*
X-58862Y103548D01*
X-58998Y103737D01*
X-59166Y103881D01*
X-59366Y103984D01*
X-59600Y104045D01*
X-59867Y104066D01*
X-60127Y104043D01*
X-60359Y103974D01*
X-60563Y103860D01*
X-60737Y103699D01*
X-60879Y103498D01*
X-60984Y103263D01*
X-61052Y102994D01*
X-61083Y102690D01*
X-58633Y102690D01*
G37*
%LPD*%
G36*
X-86604Y99916D02*
X-86823Y99922D01*
X-87030Y99941D01*
X-87226Y99973D01*
X-87411Y100017D01*
X-87585Y100074D01*
X-87747Y100144D01*
X-87898Y100226D01*
X-88037Y100321D01*
X-88164Y100428D01*
X-88277Y100548D01*
X-88377Y100679D01*
X-88463Y100823D01*
X-88536Y100979D01*
X-88595Y101147D01*
X-88641Y101327D01*
X-88673Y101519D01*
X-87892Y101590D01*
X-87839Y101344D01*
X-87755Y101131D01*
X-87640Y100951D01*
X-87495Y100804D01*
X-87318Y100689D01*
X-87111Y100607D01*
X-86873Y100558D01*
X-86604Y100541D01*
X-86334Y100559D01*
X-86095Y100612D01*
X-85886Y100699D01*
X-85708Y100822D01*
X-85566Y100980D01*
X-85464Y101172D01*
X-85403Y101398D01*
X-85383Y101657D01*
X-85406Y101886D01*
X-85476Y102087D01*
X-85592Y102262D01*
X-85754Y102411D01*
X-85961Y102529D01*
X-86208Y102614D01*
X-86497Y102664D01*
X-86826Y102681D01*
X-87254Y102681D01*
X-87254Y103336D01*
X-86843Y103336D01*
X-86550Y103353D01*
X-86292Y103404D01*
X-86069Y103488D01*
X-85880Y103607D01*
X-85731Y103755D01*
X-85624Y103929D01*
X-85560Y104129D01*
X-85538Y104356D01*
X-85556Y104580D01*
X-85608Y104780D01*
X-85695Y104955D01*
X-85817Y105105D01*
X-85974Y105225D01*
X-86164Y105311D01*
X-86388Y105362D01*
X-86646Y105379D01*
X-86884Y105363D01*
X-87098Y105315D01*
X-87288Y105236D01*
X-87454Y105124D01*
X-87592Y104982D01*
X-87698Y104815D01*
X-87771Y104622D01*
X-87813Y104402D01*
X-88572Y104461D01*
X-88544Y104637D01*
X-88503Y104804D01*
X-88448Y104960D01*
X-88380Y105107D01*
X-88297Y105243D01*
X-88202Y105370D01*
X-88093Y105487D01*
X-87970Y105593D01*
X-87692Y105772D01*
X-87540Y105842D01*
X-87378Y105899D01*
X-87207Y105943D01*
X-87026Y105975D01*
X-86836Y105994D01*
X-86638Y106001D01*
X-86421Y105994D01*
X-86218Y105975D01*
X-86026Y105942D01*
X-85847Y105897D01*
X-85681Y105839D01*
X-85526Y105768D01*
X-85384Y105684D01*
X-85255Y105587D01*
X-85139Y105479D01*
X-85039Y105360D01*
X-84955Y105231D01*
X-84885Y105093D01*
X-84831Y104944D01*
X-84793Y104784D01*
X-84770Y104615D01*
X-84762Y104435D01*
X-84782Y104165D01*
X-84841Y103922D01*
X-84940Y103705D01*
X-85079Y103514D01*
X-85255Y103351D01*
X-85467Y103217D01*
X-85716Y103111D01*
X-86000Y103034D01*
X-86000Y103017D01*
X-85687Y102962D01*
X-85410Y102870D01*
X-85171Y102740D01*
X-84968Y102572D01*
X-84806Y102373D01*
X-84691Y102151D01*
X-84621Y101903D01*
X-84598Y101632D01*
X-84606Y101434D01*
X-84631Y101246D01*
X-84671Y101071D01*
X-84728Y100906D01*
X-84802Y100754D01*
X-84891Y100613D01*
X-84997Y100483D01*
X-85119Y100365D01*
X-85256Y100260D01*
X-85407Y100169D01*
X-85571Y100091D01*
X-85750Y100028D01*
X-85943Y99979D01*
X-86149Y99944D01*
X-86370Y99923D01*
X-86604Y99916D01*
G37*
G36*
X-81854Y99916D02*
X-82073Y99922D01*
X-82280Y99941D01*
X-82476Y99973D01*
X-82661Y100017D01*
X-82835Y100074D01*
X-82997Y100144D01*
X-83148Y100226D01*
X-83287Y100321D01*
X-83414Y100428D01*
X-83527Y100548D01*
X-83627Y100679D01*
X-83713Y100823D01*
X-83786Y100979D01*
X-83845Y101147D01*
X-83891Y101327D01*
X-83923Y101519D01*
X-83142Y101590D01*
X-83089Y101344D01*
X-83005Y101131D01*
X-82890Y100951D01*
X-82745Y100804D01*
X-82568Y100689D01*
X-82361Y100607D01*
X-82123Y100558D01*
X-81854Y100541D01*
X-81584Y100559D01*
X-81345Y100612D01*
X-81136Y100699D01*
X-80958Y100822D01*
X-80816Y100980D01*
X-80714Y101172D01*
X-80653Y101398D01*
X-80633Y101657D01*
X-80656Y101886D01*
X-80726Y102087D01*
X-80842Y102262D01*
X-81004Y102411D01*
X-81211Y102529D01*
X-81458Y102614D01*
X-81747Y102664D01*
X-82076Y102681D01*
X-82504Y102681D01*
X-82504Y103336D01*
X-82093Y103336D01*
X-81800Y103353D01*
X-81542Y103404D01*
X-81319Y103488D01*
X-81130Y103607D01*
X-80981Y103755D01*
X-80874Y103929D01*
X-80810Y104129D01*
X-80788Y104356D01*
X-80806Y104580D01*
X-80858Y104780D01*
X-80945Y104955D01*
X-81067Y105105D01*
X-81224Y105225D01*
X-81414Y105311D01*
X-81638Y105362D01*
X-81896Y105379D01*
X-82134Y105363D01*
X-82348Y105315D01*
X-82538Y105236D01*
X-82704Y105124D01*
X-82842Y104982D01*
X-82948Y104815D01*
X-83021Y104622D01*
X-83063Y104402D01*
X-83822Y104461D01*
X-83794Y104637D01*
X-83753Y104804D01*
X-83698Y104960D01*
X-83630Y105107D01*
X-83547Y105243D01*
X-83452Y105370D01*
X-83343Y105487D01*
X-83220Y105593D01*
X-82942Y105772D01*
X-82790Y105842D01*
X-82628Y105899D01*
X-82457Y105943D01*
X-82276Y105975D01*
X-82086Y105994D01*
X-81888Y106001D01*
X-81671Y105994D01*
X-81468Y105975D01*
X-81276Y105942D01*
X-81097Y105897D01*
X-80931Y105839D01*
X-80776Y105768D01*
X-80634Y105684D01*
X-80505Y105587D01*
X-80389Y105479D01*
X-80289Y105360D01*
X-80205Y105231D01*
X-80135Y105093D01*
X-80081Y104944D01*
X-80043Y104784D01*
X-80020Y104615D01*
X-80012Y104435D01*
X-80032Y104165D01*
X-80091Y103922D01*
X-80190Y103705D01*
X-80329Y103514D01*
X-80505Y103351D01*
X-80717Y103217D01*
X-80966Y103111D01*
X-81250Y103034D01*
X-81250Y103017D01*
X-80937Y102962D01*
X-80660Y102870D01*
X-80421Y102740D01*
X-80218Y102572D01*
X-80056Y102373D01*
X-79941Y102151D01*
X-79871Y101903D01*
X-79848Y101632D01*
X-79856Y101434D01*
X-79881Y101246D01*
X-79921Y101071D01*
X-79978Y100906D01*
X-80052Y100754D01*
X-80141Y100613D01*
X-80247Y100483D01*
X-80369Y100365D01*
X-80506Y100260D01*
X-80657Y100169D01*
X-80821Y100091D01*
X-81000Y100028D01*
X-81193Y99979D01*
X-81399Y99944D01*
X-81620Y99923D01*
X-81854Y99916D01*
G37*
G36*
X-38854Y99916D02*
X-39073Y99922D01*
X-39280Y99941D01*
X-39476Y99973D01*
X-39661Y100017D01*
X-39835Y100074D01*
X-39997Y100144D01*
X-40148Y100226D01*
X-40287Y100321D01*
X-40414Y100428D01*
X-40527Y100548D01*
X-40627Y100679D01*
X-40713Y100823D01*
X-40786Y100979D01*
X-40845Y101147D01*
X-40891Y101327D01*
X-40923Y101519D01*
X-40142Y101590D01*
X-40089Y101344D01*
X-40005Y101131D01*
X-39890Y100951D01*
X-39745Y100804D01*
X-39568Y100689D01*
X-39361Y100607D01*
X-39123Y100558D01*
X-38854Y100541D01*
X-38584Y100559D01*
X-38345Y100612D01*
X-38136Y100699D01*
X-37958Y100822D01*
X-37816Y100980D01*
X-37714Y101172D01*
X-37653Y101398D01*
X-37633Y101657D01*
X-37656Y101886D01*
X-37726Y102087D01*
X-37842Y102262D01*
X-38004Y102411D01*
X-38211Y102529D01*
X-38458Y102614D01*
X-38747Y102664D01*
X-39076Y102681D01*
X-39504Y102681D01*
X-39504Y103336D01*
X-39093Y103336D01*
X-38800Y103353D01*
X-38542Y103404D01*
X-38319Y103488D01*
X-38130Y103607D01*
X-37981Y103755D01*
X-37874Y103929D01*
X-37810Y104129D01*
X-37788Y104356D01*
X-37806Y104580D01*
X-37858Y104780D01*
X-37945Y104955D01*
X-38067Y105105D01*
X-38224Y105225D01*
X-38414Y105311D01*
X-38638Y105362D01*
X-38896Y105379D01*
X-39134Y105363D01*
X-39348Y105315D01*
X-39538Y105236D01*
X-39704Y105124D01*
X-39842Y104982D01*
X-39948Y104815D01*
X-40021Y104622D01*
X-40063Y104402D01*
X-40822Y104461D01*
X-40794Y104637D01*
X-40753Y104804D01*
X-40698Y104960D01*
X-40630Y105107D01*
X-40547Y105243D01*
X-40452Y105370D01*
X-40343Y105487D01*
X-40220Y105593D01*
X-39942Y105772D01*
X-39790Y105842D01*
X-39628Y105899D01*
X-39457Y105943D01*
X-39276Y105975D01*
X-39086Y105994D01*
X-38888Y106001D01*
X-38671Y105994D01*
X-38468Y105975D01*
X-38276Y105942D01*
X-38097Y105897D01*
X-37931Y105839D01*
X-37776Y105768D01*
X-37634Y105684D01*
X-37505Y105587D01*
X-37389Y105479D01*
X-37289Y105360D01*
X-37205Y105231D01*
X-37135Y105093D01*
X-37081Y104944D01*
X-37043Y104784D01*
X-37020Y104615D01*
X-37012Y104435D01*
X-37032Y104165D01*
X-37091Y103922D01*
X-37190Y103705D01*
X-37329Y103514D01*
X-37505Y103351D01*
X-37717Y103217D01*
X-37966Y103111D01*
X-38250Y103034D01*
X-38250Y103017D01*
X-37937Y102962D01*
X-37660Y102870D01*
X-37421Y102740D01*
X-37218Y102572D01*
X-37056Y102373D01*
X-36941Y102151D01*
X-36871Y101903D01*
X-36848Y101632D01*
X-36856Y101434D01*
X-36881Y101246D01*
X-36921Y101071D01*
X-36978Y100906D01*
X-37052Y100754D01*
X-37141Y100613D01*
X-37247Y100483D01*
X-37369Y100365D01*
X-37506Y100260D01*
X-37657Y100169D01*
X-37821Y100091D01*
X-38000Y100028D01*
X-38193Y99979D01*
X-38399Y99944D01*
X-38620Y99923D01*
X-38854Y99916D01*
G37*
G36*
X-44059Y100000D02*
X-47974Y100000D01*
X-47974Y100533D01*
X-47861Y100771D01*
X-47736Y100995D01*
X-47600Y101204D01*
X-47452Y101399D01*
X-47135Y101757D01*
X-46803Y102079D01*
X-46130Y102644D01*
X-45813Y102904D01*
X-45528Y103164D01*
X-45285Y103430D01*
X-45093Y103709D01*
X-45021Y103857D01*
X-44969Y104014D01*
X-44938Y104180D01*
X-44928Y104356D01*
X-44945Y104585D01*
X-44999Y104788D01*
X-45088Y104963D01*
X-45213Y105111D01*
X-45370Y105228D01*
X-45554Y105312D01*
X-45766Y105363D01*
X-46006Y105379D01*
X-46237Y105363D01*
X-46446Y105314D01*
X-46634Y105232D01*
X-46801Y105117D01*
X-46941Y104973D01*
X-47049Y104802D01*
X-47125Y104605D01*
X-47168Y104381D01*
X-47941Y104452D01*
X-47913Y104625D01*
X-47871Y104789D01*
X-47816Y104943D01*
X-47748Y105089D01*
X-47666Y105225D01*
X-47570Y105353D01*
X-47338Y105581D01*
X-47061Y105764D01*
X-46908Y105837D01*
X-46746Y105896D01*
X-46575Y105942D01*
X-46395Y105974D01*
X-46205Y105994D01*
X-46006Y106001D01*
X-45789Y105994D01*
X-45585Y105974D01*
X-45394Y105941D01*
X-45216Y105895D01*
X-45050Y105836D01*
X-44898Y105763D01*
X-44758Y105678D01*
X-44632Y105579D01*
X-44519Y105468D01*
X-44422Y105346D01*
X-44339Y105213D01*
X-44271Y105068D01*
X-44219Y104913D01*
X-44181Y104747D01*
X-44159Y104569D01*
X-44151Y104381D01*
X-44161Y104209D01*
X-44191Y104038D01*
X-44240Y103867D01*
X-44309Y103697D01*
X-44397Y103527D01*
X-44504Y103357D01*
X-44777Y103017D01*
X-45229Y102584D01*
X-45964Y101964D01*
X-46397Y101589D01*
X-46732Y101253D01*
X-46977Y100942D01*
X-47070Y100790D01*
X-47143Y100642D01*
X-44059Y100642D01*
X-44059Y100000D01*
G37*
G36*
X-54897Y100000D02*
X-55790Y100000D01*
X-57439Y104540D01*
X-56634Y104540D01*
X-55635Y101586D01*
X-55346Y100592D01*
X-55199Y101083D01*
X-55035Y101578D01*
X-54003Y104540D01*
X-53201Y104540D01*
X-54897Y100000D01*
G37*
G36*
X-48312Y98292D02*
X-53318Y98292D01*
X-53318Y98838D01*
X-48312Y98838D01*
X-48312Y98292D01*
G37*
G36*
X-67426Y101947D02*
X-69524Y101947D01*
X-69524Y102618D01*
X-67426Y102618D01*
X-67426Y101947D01*
G37*
G36*
X-42022Y100000D02*
X-42840Y100000D01*
X-42840Y100919D01*
X-42022Y100919D01*
X-42022Y100000D01*
G37*
G36*
X-92816Y-198240D02*
X-93108Y-198232D01*
X-93385Y-198206D01*
X-93647Y-198164D01*
X-93893Y-198105D01*
X-94125Y-198029D01*
X-94341Y-197936D01*
X-94542Y-197826D01*
X-94728Y-197700D01*
X-94898Y-197556D01*
X-95049Y-197397D01*
X-95182Y-197221D01*
X-95298Y-197030D01*
X-95395Y-196822D01*
X-95473Y-196598D01*
X-95534Y-196357D01*
X-95577Y-196101D01*
X-94535Y-196006D01*
X-94464Y-196334D01*
X-94352Y-196618D01*
X-94199Y-196859D01*
X-94005Y-197056D01*
X-93769Y-197209D01*
X-93493Y-197318D01*
X-93175Y-197384D01*
X-92816Y-197406D01*
X-92456Y-197382D01*
X-92136Y-197312D01*
X-91858Y-197195D01*
X-91621Y-197030D01*
X-91519Y-196931D01*
X-91431Y-196820D01*
X-91356Y-196698D01*
X-91295Y-196564D01*
X-91248Y-196419D01*
X-91214Y-196263D01*
X-91193Y-196095D01*
X-91187Y-195916D01*
X-91194Y-195759D01*
X-91217Y-195612D01*
X-91256Y-195473D01*
X-91310Y-195343D01*
X-91380Y-195222D01*
X-91465Y-195109D01*
X-91566Y-195006D01*
X-91682Y-194911D01*
X-91813Y-194826D01*
X-91957Y-194753D01*
X-92116Y-194691D01*
X-92288Y-194640D01*
X-92673Y-194572D01*
X-93113Y-194550D01*
X-93684Y-194550D01*
X-93684Y-193676D01*
X-93135Y-193676D01*
X-92744Y-193653D01*
X-92400Y-193586D01*
X-92102Y-193473D01*
X-91850Y-193315D01*
X-91650Y-193117D01*
X-91572Y-193005D01*
X-91508Y-192884D01*
X-91458Y-192755D01*
X-91422Y-192617D01*
X-91401Y-192471D01*
X-91394Y-192315D01*
X-91417Y-192015D01*
X-91487Y-191749D01*
X-91603Y-191516D01*
X-91766Y-191316D01*
X-91975Y-191155D01*
X-92229Y-191041D01*
X-92528Y-190972D01*
X-92872Y-190949D01*
X-93189Y-190970D01*
X-93475Y-191034D01*
X-93728Y-191141D01*
X-93950Y-191290D01*
X-94134Y-191479D01*
X-94276Y-191702D01*
X-94374Y-191960D01*
X-94429Y-192254D01*
X-95442Y-192175D01*
X-95405Y-191940D01*
X-95350Y-191717D01*
X-95277Y-191509D01*
X-95186Y-191313D01*
X-95076Y-191131D01*
X-94948Y-190961D01*
X-94803Y-190806D01*
X-94639Y-190663D01*
X-94460Y-190536D01*
X-94268Y-190426D01*
X-94065Y-190332D01*
X-93849Y-190256D01*
X-93620Y-190196D01*
X-93379Y-190154D01*
X-93126Y-190129D01*
X-92861Y-190120D01*
X-92572Y-190129D01*
X-92300Y-190155D01*
X-92045Y-190198D01*
X-91806Y-190258D01*
X-91584Y-190336D01*
X-91378Y-190430D01*
X-91188Y-190542D01*
X-91016Y-190672D01*
X-90861Y-190816D01*
X-90728Y-190975D01*
X-90615Y-191146D01*
X-90522Y-191332D01*
X-90450Y-191531D01*
X-90399Y-191743D01*
X-90368Y-191969D01*
X-90358Y-192209D01*
X-90364Y-192393D01*
X-90384Y-192569D01*
X-90417Y-192736D01*
X-90463Y-192894D01*
X-90523Y-193043D01*
X-90596Y-193184D01*
X-90781Y-193438D01*
X-91016Y-193656D01*
X-91299Y-193835D01*
X-91630Y-193976D01*
X-92010Y-194079D01*
X-92010Y-194102D01*
X-91795Y-194132D01*
X-91592Y-194174D01*
X-91401Y-194230D01*
X-91223Y-194298D01*
X-91057Y-194378D01*
X-90903Y-194471D01*
X-90761Y-194577D01*
X-90632Y-194695D01*
X-90517Y-194824D01*
X-90417Y-194961D01*
X-90332Y-195105D01*
X-90263Y-195258D01*
X-90209Y-195419D01*
X-90170Y-195588D01*
X-90147Y-195765D01*
X-90139Y-195950D01*
X-90150Y-196215D01*
X-90183Y-196465D01*
X-90237Y-196699D01*
X-90313Y-196918D01*
X-90411Y-197122D01*
X-90530Y-197310D01*
X-90671Y-197483D01*
X-90834Y-197641D01*
X-91017Y-197781D01*
X-91218Y-197903D01*
X-91438Y-198006D01*
X-91677Y-198090D01*
X-91934Y-198156D01*
X-92209Y-198203D01*
X-92503Y-198231D01*
X-92816Y-198240D01*
G37*
G36*
X-85260Y-198128D02*
X-86368Y-198128D01*
X-89588Y-190238D01*
X-88463Y-190238D01*
X-86279Y-195793D01*
X-85808Y-197187D01*
X-85338Y-195793D01*
X-83165Y-190238D01*
X-82040Y-190238D01*
X-85260Y-198128D01*
G37*
G36*
X34523Y-198128D02*
X33571Y-198128D01*
X33571Y-190238D01*
X34977Y-190238D01*
X37077Y-195709D01*
X37292Y-196417D01*
X37430Y-196963D01*
X37499Y-196681D01*
X37617Y-196283D01*
X37810Y-195709D01*
X39871Y-190238D01*
X41243Y-190238D01*
X41243Y-198128D01*
X40280Y-198128D01*
X40280Y-192864D01*
X40293Y-192007D01*
X40330Y-191184D01*
X40070Y-192077D01*
X39838Y-192752D01*
X37799Y-198128D01*
X37049Y-198128D01*
X34982Y-192752D01*
X34669Y-191800D01*
X34484Y-191184D01*
X34501Y-191806D01*
X34523Y-192864D01*
X34523Y-198128D01*
G37*
G36*
X44290Y-198128D02*
X43220Y-198128D01*
X43220Y-190238D01*
X44290Y-190238D01*
X44290Y-198128D01*
G37*
G36*
X-8254Y-198240D02*
X-8552Y-198232D01*
X-8840Y-198209D01*
X-9118Y-198171D01*
X-9386Y-198117D01*
X-9642Y-198048D01*
X-9889Y-197963D01*
X-10125Y-197863D01*
X-10351Y-197747D01*
X-10565Y-197617D01*
X-10766Y-197473D01*
X-10954Y-197316D01*
X-11129Y-197145D01*
X-11290Y-196960D01*
X-11439Y-196761D01*
X-11575Y-196548D01*
X-11698Y-196322D01*
X-11807Y-196084D01*
X-11901Y-195836D01*
X-11981Y-195579D01*
X-12046Y-195312D01*
X-12097Y-195035D01*
X-12133Y-194749D01*
X-12155Y-194452D01*
X-12162Y-194146D01*
X-12146Y-193686D01*
X-12098Y-193252D01*
X-12017Y-192843D01*
X-11903Y-192460D01*
X-11758Y-192103D01*
X-11580Y-191772D01*
X-11369Y-191466D01*
X-11126Y-191187D01*
X-10855Y-190937D01*
X-10558Y-190720D01*
X-10235Y-190537D01*
X-9887Y-190387D01*
X-9514Y-190270D01*
X-9116Y-190187D01*
X-8692Y-190137D01*
X-8242Y-190120D01*
X-7946Y-190128D01*
X-7660Y-190150D01*
X-7384Y-190187D01*
X-7118Y-190240D01*
X-6862Y-190307D01*
X-6616Y-190389D01*
X-6380Y-190487D01*
X-6154Y-190599D01*
X-5939Y-190725D01*
X-5737Y-190865D01*
X-5549Y-191019D01*
X-5373Y-191186D01*
X-5211Y-191367D01*
X-5061Y-191561D01*
X-4925Y-191769D01*
X-4801Y-191990D01*
X-4692Y-192224D01*
X-4597Y-192468D01*
X-4516Y-192722D01*
X-4451Y-192986D01*
X-4399Y-193261D01*
X-4363Y-193546D01*
X-4341Y-193841D01*
X-4334Y-194146D01*
X-4341Y-194451D01*
X-4363Y-194746D01*
X-4400Y-195031D01*
X-4452Y-195307D01*
X-4518Y-195573D01*
X-4600Y-195830D01*
X-4696Y-196076D01*
X-4807Y-196314D01*
X-4932Y-196539D01*
X-5069Y-196751D01*
X-5220Y-196950D01*
X-5383Y-197135D01*
X-5559Y-197307D01*
X-5748Y-197465D01*
X-5950Y-197610D01*
X-6165Y-197742D01*
X-6391Y-197858D01*
X-6627Y-197960D01*
X-6873Y-198045D01*
X-7129Y-198115D01*
X-7396Y-198170D01*
X-7672Y-198209D01*
X-7958Y-198232D01*
X-8254Y-198240D01*
G37*
%LPC*%
G36*
X-8254Y-197372D02*
X-7922Y-197359D01*
X-7610Y-197319D01*
X-7318Y-197254D01*
X-7046Y-197161D01*
X-6794Y-197043D01*
X-6562Y-196898D01*
X-6349Y-196727D01*
X-6156Y-196529D01*
X-5985Y-196308D01*
X-5837Y-196064D01*
X-5711Y-195799D01*
X-5608Y-195512D01*
X-5528Y-195203D01*
X-5471Y-194873D01*
X-5437Y-194521D01*
X-5426Y-194146D01*
X-5437Y-193788D01*
X-5472Y-193450D01*
X-5529Y-193131D01*
X-5610Y-192832D01*
X-5713Y-192553D01*
X-5840Y-192293D01*
X-5989Y-192054D01*
X-6162Y-191834D01*
X-6356Y-191637D01*
X-6568Y-191466D01*
X-6800Y-191322D01*
X-7050Y-191204D01*
X-7320Y-191112D01*
X-7608Y-191046D01*
X-7916Y-191007D01*
X-8242Y-190994D01*
X-8572Y-191007D01*
X-8882Y-191045D01*
X-9172Y-191110D01*
X-9444Y-191201D01*
X-9696Y-191317D01*
X-9929Y-191460D01*
X-10142Y-191628D01*
X-10337Y-191822D01*
X-10510Y-192040D01*
X-10660Y-192279D01*
X-10787Y-192538D01*
X-10891Y-192818D01*
X-10972Y-193119D01*
X-11030Y-193441D01*
X-11064Y-193783D01*
X-11076Y-194146D01*
X-11064Y-194508D01*
X-11029Y-194850D01*
X-10971Y-195173D01*
X-10889Y-195477D01*
X-10784Y-195762D01*
X-10655Y-196028D01*
X-10504Y-196274D01*
X-10328Y-196501D01*
X-10132Y-196705D01*
X-9918Y-196882D01*
X-9686Y-197032D01*
X-9436Y-197154D01*
X-9168Y-197250D01*
X-8881Y-197318D01*
X-8576Y-197358D01*
X-8254Y-197372D01*
G37*
%LPD*%
G36*
X-20344Y-198128D02*
X-21296Y-198128D01*
X-21296Y-190238D01*
X-19890Y-190238D01*
X-17790Y-195709D01*
X-17575Y-196417D01*
X-17438Y-196963D01*
X-17368Y-196681D01*
X-17250Y-196283D01*
X-17057Y-195709D01*
X-14996Y-190238D01*
X-13624Y-190238D01*
X-13624Y-198128D01*
X-14587Y-198128D01*
X-14587Y-192864D01*
X-14575Y-192007D01*
X-14537Y-191184D01*
X-14797Y-192077D01*
X-15030Y-192752D01*
X-17068Y-198128D01*
X-17818Y-198128D01*
X-19885Y-192752D01*
X-20198Y-191800D01*
X-20383Y-191184D01*
X-20366Y-191806D01*
X-20344Y-192864D01*
X-20344Y-198128D01*
G37*
G36*
X93179Y-198240D02*
X92828Y-198232D01*
X92496Y-198209D01*
X92183Y-198170D01*
X91889Y-198115D01*
X91614Y-198044D01*
X91357Y-197958D01*
X91120Y-197856D01*
X90902Y-197739D01*
X90702Y-197606D01*
X90522Y-197457D01*
X90360Y-197292D01*
X90217Y-197112D01*
X90094Y-196917D01*
X89989Y-196705D01*
X89903Y-196478D01*
X89836Y-196235D01*
X90872Y-196028D01*
X90923Y-196200D01*
X90987Y-196360D01*
X91063Y-196508D01*
X91152Y-196645D01*
X91254Y-196769D01*
X91368Y-196882D01*
X91495Y-196983D01*
X91634Y-197072D01*
X91951Y-197218D01*
X92321Y-197322D01*
X92744Y-197385D01*
X93219Y-197406D01*
X93707Y-197383D01*
X94136Y-197317D01*
X94329Y-197267D01*
X94506Y-197206D01*
X94669Y-197133D01*
X94817Y-197050D01*
X94949Y-196956D01*
X95064Y-196851D01*
X95160Y-196736D01*
X95240Y-196611D01*
X95301Y-196475D01*
X95345Y-196329D01*
X95371Y-196173D01*
X95380Y-196006D01*
X95369Y-195822D01*
X95336Y-195656D01*
X95281Y-195508D01*
X95204Y-195378D01*
X95107Y-195263D01*
X94992Y-195159D01*
X94859Y-195064D01*
X94708Y-194981D01*
X94358Y-194837D01*
X93947Y-194718D01*
X92967Y-194488D01*
X92144Y-194281D01*
X91817Y-194177D01*
X91547Y-194074D01*
X91318Y-193967D01*
X91114Y-193855D01*
X90935Y-193736D01*
X90783Y-193612D01*
X90651Y-193479D01*
X90536Y-193335D01*
X90437Y-193181D01*
X90354Y-193015D01*
X90289Y-192838D01*
X90243Y-192648D01*
X90215Y-192446D01*
X90206Y-192231D01*
X90218Y-191985D01*
X90254Y-191754D01*
X90315Y-191536D01*
X90400Y-191334D01*
X90509Y-191146D01*
X90642Y-190972D01*
X90800Y-190813D01*
X90981Y-190669D01*
X91186Y-190540D01*
X91411Y-190429D01*
X91657Y-190334D01*
X91924Y-190257D01*
X92212Y-190197D01*
X92521Y-190154D01*
X92851Y-190129D01*
X93202Y-190120D01*
X93528Y-190126D01*
X93834Y-190146D01*
X94121Y-190178D01*
X94388Y-190223D01*
X94635Y-190281D01*
X94862Y-190352D01*
X95069Y-190435D01*
X95257Y-190532D01*
X95428Y-190644D01*
X95586Y-190774D01*
X95731Y-190922D01*
X95862Y-191088D01*
X95980Y-191273D01*
X96084Y-191475D01*
X96176Y-191696D01*
X96254Y-191934D01*
X95201Y-192119D01*
X95095Y-191827D01*
X94949Y-191578D01*
X94764Y-191372D01*
X94540Y-191209D01*
X94273Y-191086D01*
X93959Y-190997D01*
X93598Y-190944D01*
X93191Y-190926D01*
X92745Y-190946D01*
X92356Y-191005D01*
X92023Y-191103D01*
X91746Y-191240D01*
X91629Y-191323D01*
X91528Y-191416D01*
X91442Y-191519D01*
X91372Y-191631D01*
X91318Y-191752D01*
X91279Y-191884D01*
X91255Y-192025D01*
X91247Y-192175D01*
X91260Y-192349D01*
X91296Y-192508D01*
X91356Y-192650D01*
X91441Y-192777D01*
X91548Y-192892D01*
X91677Y-192997D01*
X91827Y-193093D01*
X91998Y-193180D01*
X92225Y-193268D01*
X92542Y-193365D01*
X93448Y-193586D01*
X94173Y-193757D01*
X94527Y-193852D01*
X94865Y-193964D01*
X95185Y-194095D01*
X95484Y-194247D01*
X95753Y-194428D01*
X95985Y-194645D01*
X96175Y-194901D01*
X96318Y-195199D01*
X96371Y-195366D01*
X96409Y-195546D01*
X96431Y-195741D01*
X96439Y-195950D01*
X96425Y-196215D01*
X96385Y-196465D01*
X96319Y-196699D01*
X96225Y-196918D01*
X96105Y-197122D01*
X95958Y-197310D01*
X95785Y-197483D01*
X95585Y-197641D01*
X95360Y-197781D01*
X95114Y-197903D01*
X94846Y-198006D01*
X94556Y-198090D01*
X94245Y-198156D01*
X93911Y-198203D01*
X93556Y-198231D01*
X93179Y-198240D01*
G37*
G36*
X85464Y-198240D02*
X85171Y-198232D01*
X84887Y-198209D01*
X84614Y-198170D01*
X84351Y-198116D01*
X84099Y-198046D01*
X83856Y-197961D01*
X83623Y-197861D01*
X83400Y-197744D01*
X83189Y-197614D01*
X82991Y-197470D01*
X82805Y-197313D01*
X82633Y-197142D01*
X82474Y-196959D01*
X82327Y-196762D01*
X82194Y-196551D01*
X82073Y-196328D01*
X81966Y-196092D01*
X81873Y-195846D01*
X81795Y-195589D01*
X81731Y-195322D01*
X81681Y-195044D01*
X81645Y-194755D01*
X81624Y-194456D01*
X81617Y-194146D01*
X81633Y-193687D01*
X81680Y-193254D01*
X81760Y-192846D01*
X81871Y-192464D01*
X82015Y-192107D01*
X82190Y-191776D01*
X82397Y-191470D01*
X82636Y-191190D01*
X82903Y-190939D01*
X83194Y-190722D01*
X83510Y-190538D01*
X83851Y-190387D01*
X84216Y-190270D01*
X84606Y-190187D01*
X85020Y-190137D01*
X85458Y-190120D01*
X85767Y-190128D01*
X86062Y-190151D01*
X86345Y-190189D01*
X86615Y-190243D01*
X86871Y-190313D01*
X87115Y-190397D01*
X87346Y-190497D01*
X87564Y-190613D01*
X87768Y-190744D01*
X87959Y-190889D01*
X88135Y-191049D01*
X88297Y-191225D01*
X88446Y-191415D01*
X88580Y-191620D01*
X88701Y-191840D01*
X88807Y-192074D01*
X87793Y-192410D01*
X87635Y-192086D01*
X87436Y-191803D01*
X87194Y-191560D01*
X86911Y-191358D01*
X86593Y-191198D01*
X86247Y-191085D01*
X85872Y-191016D01*
X85469Y-190994D01*
X85151Y-191007D01*
X84851Y-191046D01*
X84568Y-191112D01*
X84305Y-191204D01*
X84059Y-191323D01*
X83831Y-191468D01*
X83622Y-191639D01*
X83431Y-191836D01*
X83260Y-192057D01*
X83112Y-192297D01*
X82987Y-192556D01*
X82885Y-192835D01*
X82805Y-193134D01*
X82748Y-193452D01*
X82714Y-193789D01*
X82703Y-194146D01*
X82715Y-194500D01*
X82750Y-194836D01*
X82810Y-195154D01*
X82893Y-195455D01*
X82999Y-195737D01*
X83130Y-196002D01*
X83284Y-196249D01*
X83462Y-196479D01*
X83660Y-196686D01*
X83875Y-196865D01*
X84106Y-197016D01*
X84354Y-197140D01*
X84619Y-197237D01*
X84901Y-197306D01*
X85199Y-197347D01*
X85514Y-197361D01*
X85718Y-197354D01*
X85916Y-197335D01*
X86107Y-197303D01*
X86292Y-197258D01*
X86642Y-197130D01*
X86966Y-196951D01*
X87265Y-196720D01*
X87538Y-196438D01*
X87785Y-196105D01*
X88006Y-195720D01*
X88880Y-196157D01*
X88752Y-196404D01*
X88611Y-196636D01*
X88459Y-196853D01*
X88294Y-197054D01*
X88117Y-197241D01*
X87927Y-197412D01*
X87725Y-197567D01*
X87511Y-197708D01*
X87286Y-197833D01*
X87052Y-197941D01*
X86809Y-198032D01*
X86558Y-198107D01*
X86298Y-198165D01*
X86028Y-198207D01*
X85751Y-198232D01*
X85464Y-198240D01*
G37*
G36*
X81334Y70936D02*
X80382Y70936D01*
X80382Y78826D01*
X81788Y78826D01*
X83888Y73355D01*
X84103Y72647D01*
X84241Y72101D01*
X84310Y72383D01*
X84428Y72781D01*
X84621Y73355D01*
X86682Y78826D01*
X88054Y78826D01*
X88054Y70936D01*
X87091Y70936D01*
X87091Y76200D01*
X87104Y77057D01*
X87141Y77880D01*
X86881Y76987D01*
X86649Y76312D01*
X84610Y70936D01*
X83860Y70936D01*
X81793Y76312D01*
X81480Y77264D01*
X81295Y77880D01*
X81312Y77258D01*
X81334Y76200D01*
X81334Y70936D01*
G37*
G36*
X93005Y70936D02*
X91941Y70936D01*
X91941Y77953D01*
X89230Y77953D01*
X89230Y78826D01*
X95715Y78826D01*
X95715Y77953D01*
X93005Y77953D01*
X93005Y70936D01*
G37*
G36*
X64093Y-198240D02*
X63789Y-198232D01*
X63495Y-198209D01*
X63212Y-198171D01*
X62940Y-198117D01*
X62679Y-198048D01*
X62428Y-197963D01*
X62188Y-197863D01*
X61959Y-197747D01*
X61742Y-197617D01*
X61537Y-197474D01*
X61346Y-197317D01*
X61169Y-197146D01*
X61004Y-196962D01*
X60853Y-196764D01*
X60715Y-196553D01*
X60590Y-196328D01*
X60479Y-196091D01*
X60383Y-195844D01*
X60301Y-195586D01*
X60235Y-195319D01*
X60183Y-195041D01*
X60146Y-194753D01*
X60124Y-194455D01*
X60117Y-194146D01*
X60133Y-193680D01*
X60181Y-193240D01*
X60262Y-192828D01*
X60374Y-192443D01*
X60519Y-192085D01*
X60696Y-191754D01*
X60906Y-191450D01*
X61147Y-191173D01*
X61418Y-190926D01*
X61714Y-190712D01*
X62037Y-190531D01*
X62386Y-190383D01*
X62761Y-190268D01*
X63162Y-190186D01*
X63589Y-190137D01*
X64042Y-190120D01*
X64362Y-190127D01*
X64667Y-190148D01*
X64956Y-190182D01*
X65229Y-190231D01*
X65488Y-190293D01*
X65731Y-190369D01*
X65958Y-190459D01*
X66170Y-190562D01*
X66369Y-190681D01*
X66556Y-190817D01*
X66731Y-190969D01*
X66894Y-191138D01*
X67046Y-191323D01*
X67186Y-191525D01*
X67314Y-191744D01*
X67430Y-191979D01*
X66411Y-192282D01*
X66227Y-191968D01*
X66011Y-191701D01*
X65764Y-191478D01*
X65484Y-191302D01*
X65171Y-191167D01*
X64821Y-191071D01*
X64436Y-191013D01*
X64014Y-190994D01*
X63683Y-191007D01*
X63371Y-191045D01*
X63080Y-191110D01*
X62809Y-191200D01*
X62558Y-191316D01*
X62327Y-191458D01*
X62116Y-191626D01*
X61925Y-191820D01*
X61756Y-192037D01*
X61609Y-192275D01*
X61485Y-192534D01*
X61384Y-192814D01*
X61305Y-193116D01*
X61248Y-193438D01*
X61214Y-193782D01*
X61203Y-194146D01*
X61215Y-194510D01*
X61251Y-194855D01*
X61311Y-195179D01*
X61395Y-195484D01*
X61503Y-195769D01*
X61635Y-196035D01*
X61790Y-196281D01*
X61970Y-196507D01*
X62171Y-196710D01*
X62391Y-196885D01*
X62628Y-197034D01*
X62884Y-197156D01*
X63159Y-197250D01*
X63452Y-197318D01*
X63763Y-197359D01*
X64093Y-197372D01*
X64473Y-197357D01*
X64839Y-197313D01*
X65194Y-197240D01*
X65535Y-197137D01*
X65853Y-197009D01*
X66140Y-196860D01*
X66395Y-196690D01*
X66618Y-196498D01*
X66618Y-195076D01*
X64261Y-195076D01*
X64261Y-194180D01*
X67604Y-194180D01*
X67604Y-196902D01*
X67273Y-197203D01*
X66906Y-197468D01*
X66504Y-197697D01*
X66067Y-197890D01*
X65602Y-198043D01*
X65118Y-198152D01*
X64615Y-198218D01*
X64093Y-198240D01*
G37*
G36*
X-26Y99159D02*
X-524Y99165D01*
X-1018Y99182D01*
X-1996Y99254D01*
X-2959Y99373D01*
X-3906Y99540D01*
X-4839Y99755D01*
X-5758Y100017D01*
X-6661Y100327D01*
X-7550Y100684D01*
X-8417Y101083D01*
X-8798Y101279D01*
X-9255Y101515D01*
X-10064Y101980D01*
X-10845Y102480D01*
X-11596Y103013D01*
X-12319Y103580D01*
X-13014Y104180D01*
X-13679Y104814D01*
X-14313Y105480D01*
X-14914Y106174D01*
X-15481Y106897D01*
X-16014Y107649D01*
X-16513Y108429D01*
X-16979Y109239D01*
X-17411Y110077D01*
X-17809Y110944D01*
X-18167Y111832D01*
X-18477Y112736D01*
X-18739Y113654D01*
X-18954Y114587D01*
X-19120Y115535D01*
X-19240Y116498D01*
X-19311Y117475D01*
X-19329Y117969D01*
X-19335Y118467D01*
X-19329Y118965D01*
X-19311Y119460D01*
X-19240Y120437D01*
X-19120Y121400D01*
X-18954Y122347D01*
X-18739Y123281D01*
X-18477Y124199D01*
X-18167Y125102D01*
X-17809Y125991D01*
X-17411Y126846D01*
X-16979Y127674D01*
X-16513Y128477D01*
X-16014Y129253D01*
X-15481Y130003D01*
X-14914Y130726D01*
X-14313Y131423D01*
X-13679Y132094D01*
X-13014Y132734D01*
X-12319Y133340D01*
X-11596Y133912D01*
X-10845Y134448D01*
X-10064Y134951D01*
X-9255Y135418D01*
X-8417Y135852D01*
X-7550Y136250D01*
X-6661Y136596D01*
X-5758Y136895D01*
X-4839Y137148D01*
X-3906Y137355D01*
X-2959Y137516D01*
X-1996Y137631D01*
X-1018Y137700D01*
X-26Y137723D01*
X485Y137717D01*
X991Y137699D01*
X1494Y137668D01*
X1993Y137625D01*
X2978Y137501D01*
X3946Y137329D01*
X4898Y137107D01*
X5833Y136836D01*
X6753Y136515D01*
X7655Y136145D01*
X5761Y133304D01*
X5072Y133552D01*
X4373Y133771D01*
X3665Y133960D01*
X2946Y134119D01*
X2218Y134246D01*
X1480Y134337D01*
X732Y134391D01*
X-26Y134409D01*
X-848Y134389D01*
X-1657Y134330D01*
X-2453Y134231D01*
X-3236Y134093D01*
X-4005Y133916D01*
X-4761Y133699D01*
X-5505Y133442D01*
X-6235Y133146D01*
X-6947Y132817D01*
X-7637Y132459D01*
X-8305Y132073D01*
X-8951Y131660D01*
X-9574Y131218D01*
X-10175Y130749D01*
X-10755Y130252D01*
X-11312Y129726D01*
X-11842Y129176D01*
X-12342Y128602D01*
X-12812Y128005D01*
X-13252Y127385D01*
X-13661Y126742D01*
X-14039Y126076D01*
X-14387Y125387D01*
X-14705Y124676D01*
X-15001Y123946D01*
X-15258Y123202D01*
X-15475Y122446D01*
X-15652Y121677D01*
X-15790Y120894D01*
X-15889Y120098D01*
X-15948Y119289D01*
X-15968Y118467D01*
X-15948Y117645D01*
X-15889Y116836D01*
X-15790Y116041D01*
X-15652Y115258D01*
X-15475Y114489D01*
X-15258Y113732D01*
X-15001Y112989D01*
X-14705Y112259D01*
X-14387Y111547D01*
X-14039Y110858D01*
X-13661Y110192D01*
X-13252Y109550D01*
X-12812Y108930D01*
X-12342Y108333D01*
X-11842Y107759D01*
X-11312Y107208D01*
X-10755Y106683D01*
X-10175Y106186D01*
X-9574Y105716D01*
X-8951Y105275D01*
X-8305Y104861D01*
X-7637Y104476D01*
X-7397Y104351D01*
X-6947Y104118D01*
X-6235Y103789D01*
X-5505Y103493D01*
X-4761Y103236D01*
X-4005Y103019D01*
X-3236Y102841D01*
X-2453Y102703D01*
X-1657Y102605D01*
X-848Y102546D01*
X-26Y102526D01*
X784Y102546D01*
X1582Y102605D01*
X2368Y102703D01*
X3144Y102841D01*
X3907Y103019D01*
X4660Y103236D01*
X5400Y103493D01*
X6129Y103789D01*
X6854Y104118D01*
X7553Y104476D01*
X8228Y104861D01*
X8878Y105275D01*
X9504Y105716D01*
X10105Y106186D01*
X10681Y106683D01*
X11233Y107208D01*
X11758Y107759D01*
X12255Y108333D01*
X12725Y108930D01*
X13166Y109550D01*
X13580Y110192D01*
X13965Y110858D01*
X14323Y111547D01*
X14653Y112259D01*
X14936Y112989D01*
X15182Y113732D01*
X15390Y114489D01*
X15560Y115258D01*
X15693Y116041D01*
X15787Y116836D01*
X15844Y117645D01*
X15863Y118467D01*
X15850Y119121D01*
X15813Y119768D01*
X15752Y120407D01*
X15665Y121039D01*
X15554Y121663D01*
X15419Y122280D01*
X15258Y122890D01*
X15074Y123492D01*
X14866Y124083D01*
X14636Y124661D01*
X14385Y125224D01*
X14113Y125774D01*
X13820Y126309D01*
X13505Y126831D01*
X13169Y127339D01*
X12811Y127832D01*
X14810Y130779D01*
X15310Y130138D01*
X15782Y129478D01*
X16227Y128799D01*
X16645Y128102D01*
X17036Y127386D01*
X17400Y126650D01*
X17737Y125896D01*
X18046Y125123D01*
X18324Y124334D01*
X18564Y123533D01*
X18767Y122719D01*
X18934Y121894D01*
X19063Y121056D01*
X19156Y120205D01*
X19211Y119342D01*
X19230Y118467D01*
X19224Y117969D01*
X19206Y117475D01*
X19135Y116498D01*
X19015Y115535D01*
X18848Y114587D01*
X18634Y113654D01*
X18372Y112736D01*
X18062Y111832D01*
X17704Y110944D01*
X17318Y110077D01*
X16895Y109239D01*
X16436Y108429D01*
X15942Y107649D01*
X15411Y106897D01*
X14843Y106174D01*
X14240Y105480D01*
X13600Y104814D01*
X12929Y104180D01*
X12229Y103580D01*
X11502Y103013D01*
X10746Y102480D01*
X9963Y101980D01*
X9151Y101515D01*
X8312Y101083D01*
X7445Y100684D01*
X6568Y100327D01*
X5676Y100017D01*
X4766Y99755D01*
X3841Y99540D01*
X2899Y99373D01*
X1940Y99254D01*
X965Y99182D01*
X472Y99165D01*
X-26Y99159D01*
G37*
G36*
X-26Y103683D02*
X-784Y103701D01*
X-1532Y103756D01*
X-2270Y103846D01*
X-2999Y103973D01*
X-3717Y104135D01*
X-4426Y104334D01*
X-5125Y104569D01*
X-5814Y104841D01*
X-6474Y105144D01*
X-6929Y105378D01*
X-7114Y105474D01*
X-7734Y105831D01*
X-8332Y106215D01*
X-8911Y106627D01*
X-9469Y107065D01*
X-10006Y107531D01*
X-10522Y108024D01*
X-11015Y108541D01*
X-11481Y109081D01*
X-11920Y109643D01*
X-12331Y110227D01*
X-12715Y110833D01*
X-13072Y111462D01*
X-13403Y112112D01*
X-13705Y112785D01*
X-13977Y113463D01*
X-14212Y114153D01*
X-14411Y114857D01*
X-14574Y115574D01*
X-14700Y116304D01*
X-14791Y117047D01*
X-14845Y117803D01*
X-14863Y118573D01*
X-14845Y119331D01*
X-14791Y120079D01*
X-14700Y120817D01*
X-14574Y121545D01*
X-14411Y122264D01*
X-14212Y122972D01*
X-13977Y123671D01*
X-13705Y124360D01*
X-13403Y125020D01*
X-13072Y125660D01*
X-12715Y126280D01*
X-12331Y126879D01*
X-11920Y127457D01*
X-11481Y128015D01*
X-11015Y128552D01*
X-10522Y129069D01*
X-10006Y129562D01*
X-9469Y130027D01*
X-8911Y130466D01*
X-8332Y130877D01*
X-7734Y131262D01*
X-7114Y131619D01*
X-6474Y131949D01*
X-5814Y132252D01*
X-5125Y132535D01*
X-4426Y132781D01*
X-3717Y132989D01*
X-2999Y133159D01*
X-2270Y133292D01*
X-1532Y133386D01*
X-784Y133443D01*
X-26Y133462D01*
X702Y133445D01*
X1414Y133396D01*
X2110Y133314D01*
X2789Y133199D01*
X3454Y133051D01*
X4110Y132870D01*
X4757Y132656D01*
X5393Y132410D01*
X2973Y128832D01*
X2626Y128931D01*
X2269Y129016D01*
X1902Y129088D01*
X1526Y129148D01*
X1143Y129194D01*
X756Y129227D01*
X367Y129246D01*
X-26Y129253D01*
X-575Y129240D01*
X-1115Y129200D01*
X-1647Y129134D01*
X-2170Y129042D01*
X-2686Y128924D01*
X-3193Y128779D01*
X-3692Y128608D01*
X-4183Y128411D01*
X-4661Y128191D01*
X-5125Y127952D01*
X-5572Y127695D01*
X-6004Y127418D01*
X-6421Y127122D01*
X-6821Y126808D01*
X-7207Y126475D01*
X-7576Y126122D01*
X-7928Y125753D01*
X-8262Y125368D01*
X-8576Y124967D01*
X-8872Y124551D01*
X-9148Y124119D01*
X-9406Y123671D01*
X-9645Y123208D01*
X-9865Y122729D01*
X-10062Y122238D01*
X-10233Y121739D01*
X-10378Y121232D01*
X-10496Y120717D01*
X-10588Y120193D01*
X-10654Y119661D01*
X-10693Y119121D01*
X-10707Y118573D01*
X-10693Y118024D01*
X-10654Y117484D01*
X-10588Y116952D01*
X-10496Y116429D01*
X-10378Y115913D01*
X-10233Y115406D01*
X-10062Y114907D01*
X-9865Y114416D01*
X-9645Y113937D01*
X-9406Y113472D01*
X-9148Y113023D01*
X-8872Y112588D01*
X-8576Y112168D01*
X-8262Y111763D01*
X-7928Y111372D01*
X-7576Y110996D01*
X-7207Y110638D01*
X-6821Y110299D01*
X-6421Y109980D01*
X-6004Y109681D01*
X-5572Y109402D01*
X-5195Y109183D01*
X-5125Y109142D01*
X-4661Y108902D01*
X-4183Y108681D01*
X-3692Y108484D01*
X-3193Y108313D01*
X-2686Y108168D01*
X-2170Y108050D01*
X-1647Y107958D01*
X-1115Y107892D01*
X-575Y107853D01*
X-26Y107840D01*
X534Y107853D01*
X1085Y107892D01*
X1626Y107958D01*
X2157Y108050D01*
X2678Y108168D01*
X3190Y108313D01*
X3691Y108484D01*
X4183Y108681D01*
X4662Y108902D01*
X5125Y109142D01*
X5572Y109402D01*
X6004Y109681D01*
X6421Y109980D01*
X6822Y110299D01*
X7207Y110638D01*
X7576Y110996D01*
X7929Y111372D01*
X8262Y111763D01*
X8576Y112168D01*
X8872Y112588D01*
X9148Y113023D01*
X9406Y113472D01*
X9645Y113937D01*
X9865Y114416D01*
X10062Y114907D01*
X10233Y115406D01*
X10378Y115913D01*
X10496Y116429D01*
X10588Y116952D01*
X10654Y117484D01*
X10694Y118024D01*
X10707Y118573D01*
X10687Y119227D01*
X10628Y119875D01*
X10529Y120516D01*
X10391Y121151D01*
X10217Y121772D01*
X10010Y122374D01*
X9770Y122956D01*
X9497Y123518D01*
X12022Y127306D01*
X12354Y126840D01*
X12666Y126361D01*
X12959Y125870D01*
X13232Y125366D01*
X13485Y124850D01*
X13719Y124322D01*
X13932Y123782D01*
X14126Y123229D01*
X14299Y122667D01*
X14449Y122099D01*
X14575Y121526D01*
X14679Y120947D01*
X14759Y120362D01*
X14817Y119771D01*
X14852Y119175D01*
X14863Y118573D01*
X14845Y117803D01*
X14791Y117047D01*
X14700Y116304D01*
X14574Y115574D01*
X14411Y114857D01*
X14212Y114153D01*
X13977Y113463D01*
X13706Y112785D01*
X13403Y112112D01*
X13073Y111462D01*
X12715Y110833D01*
X12331Y110227D01*
X11920Y109643D01*
X11481Y109081D01*
X11015Y108541D01*
X10523Y108024D01*
X10006Y107531D01*
X9469Y107065D01*
X8911Y106627D01*
X8333Y106215D01*
X7734Y105831D01*
X7114Y105474D01*
X6474Y105144D01*
X5814Y104841D01*
X5124Y104569D01*
X4423Y104334D01*
X3710Y104135D01*
X2986Y103973D01*
X2250Y103846D01*
X1503Y103756D01*
X744Y103701D01*
X-26Y103683D01*
G37*
G36*
X-3691Y109781D02*
X-3849Y109792D01*
X-4005Y109819D01*
X-4158Y109864D01*
X-4309Y109926D01*
X-4458Y110005D01*
X-4604Y110102D01*
X-4731Y110201D01*
X-4865Y110306D01*
X-4975Y110423D01*
X-5070Y110549D01*
X-5152Y110686D01*
X-5220Y110832D01*
X-5274Y110988D01*
X-5314Y111154D01*
X-5339Y111324D01*
X-5348Y111490D01*
X-5342Y111652D01*
X-5320Y111812D01*
X-5283Y111968D01*
X-5230Y112121D01*
X-5077Y112417D01*
X-950Y118496D01*
X13316Y139505D01*
X16178Y143721D01*
X16382Y143983D01*
X16499Y144092D01*
X16626Y144188D01*
X16762Y144270D01*
X16908Y144338D01*
X17065Y144392D01*
X17231Y144432D01*
X17400Y144456D01*
X17566Y144463D01*
X17729Y144452D01*
X17888Y144425D01*
X18044Y144380D01*
X18197Y144318D01*
X18347Y144239D01*
X18493Y144142D01*
X18755Y143938D01*
X18864Y143822D01*
X18960Y143695D01*
X19042Y143558D01*
X19110Y143412D01*
X19164Y143256D01*
X19204Y143090D01*
X19229Y142921D01*
X19238Y142754D01*
X19232Y142592D01*
X19210Y142432D01*
X19173Y142276D01*
X19120Y142123D01*
X18967Y141827D01*
X-2289Y110523D01*
X-2514Y110261D01*
X-2769Y110056D01*
X-3053Y109906D01*
X-3206Y109852D01*
X-3367Y109813D01*
X-3530Y109788D01*
X-3691Y109781D01*
G37*
G36*
X-16303Y90838D02*
X-16466Y90844D01*
X-16625Y90866D01*
X-16782Y90903D01*
X-16935Y90956D01*
X-17230Y91109D01*
X-17492Y91336D01*
X-17697Y91596D01*
X-17779Y91738D01*
X-17847Y91888D01*
X-17901Y92047D01*
X-17941Y92214D01*
X-17965Y92383D01*
X-17972Y92549D01*
X-17962Y92712D01*
X-17934Y92871D01*
X-17889Y93028D01*
X-17827Y93181D01*
X-17748Y93330D01*
X-17651Y93477D01*
X-12548Y100947D01*
X-9812Y99053D01*
X-14916Y91582D01*
X-15119Y91321D01*
X-15236Y91211D01*
X-15363Y91116D01*
X-15499Y91034D01*
X-15646Y90966D01*
X-15802Y90912D01*
X-15968Y90872D01*
X-16137Y90847D01*
X-16303Y90838D01*
G37*
G36*
X-71927Y-198240D02*
X-72278Y-198232D01*
X-72610Y-198209D01*
X-72923Y-198170D01*
X-73217Y-198115D01*
X-73492Y-198044D01*
X-73749Y-197958D01*
X-73986Y-197856D01*
X-74204Y-197739D01*
X-74404Y-197606D01*
X-74584Y-197457D01*
X-74746Y-197292D01*
X-74889Y-197112D01*
X-75012Y-196917D01*
X-75117Y-196705D01*
X-75203Y-196478D01*
X-75270Y-196235D01*
X-74234Y-196028D01*
X-74183Y-196200D01*
X-74119Y-196360D01*
X-74043Y-196508D01*
X-73954Y-196645D01*
X-73852Y-196769D01*
X-73738Y-196882D01*
X-73611Y-196983D01*
X-73472Y-197072D01*
X-73155Y-197218D01*
X-72785Y-197322D01*
X-72362Y-197385D01*
X-71887Y-197406D01*
X-71399Y-197383D01*
X-70970Y-197317D01*
X-70777Y-197267D01*
X-70600Y-197206D01*
X-70437Y-197133D01*
X-70289Y-197050D01*
X-70157Y-196956D01*
X-70042Y-196851D01*
X-69946Y-196736D01*
X-69866Y-196611D01*
X-69805Y-196475D01*
X-69761Y-196329D01*
X-69735Y-196173D01*
X-69726Y-196006D01*
X-69737Y-195822D01*
X-69770Y-195656D01*
X-69825Y-195508D01*
X-69902Y-195378D01*
X-69999Y-195263D01*
X-70114Y-195159D01*
X-70247Y-195064D01*
X-70398Y-194981D01*
X-70748Y-194837D01*
X-71159Y-194718D01*
X-72139Y-194488D01*
X-72962Y-194281D01*
X-73289Y-194177D01*
X-73559Y-194074D01*
X-73788Y-193967D01*
X-73992Y-193855D01*
X-74171Y-193736D01*
X-74323Y-193612D01*
X-74455Y-193479D01*
X-74570Y-193335D01*
X-74669Y-193181D01*
X-74752Y-193015D01*
X-74817Y-192838D01*
X-74863Y-192648D01*
X-74891Y-192446D01*
X-74900Y-192231D01*
X-74888Y-191985D01*
X-74852Y-191754D01*
X-74791Y-191536D01*
X-74706Y-191334D01*
X-74597Y-191146D01*
X-74464Y-190972D01*
X-74306Y-190813D01*
X-74125Y-190669D01*
X-73920Y-190540D01*
X-73695Y-190429D01*
X-73449Y-190334D01*
X-73182Y-190257D01*
X-72894Y-190197D01*
X-72585Y-190154D01*
X-72255Y-190129D01*
X-71904Y-190120D01*
X-71578Y-190126D01*
X-71272Y-190146D01*
X-70985Y-190178D01*
X-70718Y-190223D01*
X-70471Y-190281D01*
X-70244Y-190352D01*
X-70037Y-190435D01*
X-69849Y-190532D01*
X-69678Y-190644D01*
X-69520Y-190774D01*
X-69375Y-190922D01*
X-69244Y-191088D01*
X-69126Y-191273D01*
X-69022Y-191475D01*
X-68930Y-191696D01*
X-68852Y-191934D01*
X-69905Y-192119D01*
X-70011Y-191827D01*
X-70157Y-191578D01*
X-70342Y-191372D01*
X-70566Y-191209D01*
X-70833Y-191086D01*
X-71147Y-190997D01*
X-71508Y-190944D01*
X-71915Y-190926D01*
X-72361Y-190946D01*
X-72750Y-191005D01*
X-73083Y-191103D01*
X-73360Y-191240D01*
X-73477Y-191323D01*
X-73578Y-191416D01*
X-73664Y-191519D01*
X-73734Y-191631D01*
X-73788Y-191752D01*
X-73827Y-191884D01*
X-73851Y-192025D01*
X-73859Y-192175D01*
X-73846Y-192349D01*
X-73810Y-192508D01*
X-73750Y-192650D01*
X-73665Y-192777D01*
X-73558Y-192892D01*
X-73429Y-192997D01*
X-73279Y-193093D01*
X-73108Y-193180D01*
X-72881Y-193268D01*
X-72564Y-193365D01*
X-71658Y-193586D01*
X-70933Y-193757D01*
X-70579Y-193852D01*
X-70241Y-193964D01*
X-69921Y-194095D01*
X-69622Y-194247D01*
X-69353Y-194428D01*
X-69121Y-194645D01*
X-68931Y-194901D01*
X-68788Y-195199D01*
X-68735Y-195366D01*
X-68697Y-195546D01*
X-68675Y-195741D01*
X-68667Y-195950D01*
X-68681Y-196215D01*
X-68721Y-196465D01*
X-68787Y-196699D01*
X-68881Y-196918D01*
X-69001Y-197122D01*
X-69148Y-197310D01*
X-69321Y-197483D01*
X-69521Y-197641D01*
X-69746Y-197781D01*
X-69992Y-197903D01*
X-70260Y-198006D01*
X-70550Y-198090D01*
X-70861Y-198156D01*
X-71195Y-198203D01*
X-71550Y-198231D01*
X-71927Y-198240D01*
G37*
G36*
X-57874Y-198128D02*
X-58943Y-198128D01*
X-58943Y-190238D01*
X-57874Y-190238D01*
X-57874Y-194191D01*
X-54072Y-190238D01*
X-52812Y-190238D01*
X-56171Y-193665D01*
X-52364Y-198128D01*
X-53691Y-198128D01*
X-56843Y-194320D01*
X-57874Y-195104D01*
X-57874Y-198128D01*
G37*
G36*
X-63736Y-198240D02*
X-64029Y-198232D01*
X-64312Y-198209D01*
X-64585Y-198170D01*
X-64848Y-198116D01*
X-65101Y-198046D01*
X-65344Y-197961D01*
X-65577Y-197861D01*
X-65800Y-197744D01*
X-66011Y-197614D01*
X-66209Y-197470D01*
X-66394Y-197313D01*
X-66567Y-197142D01*
X-66726Y-196959D01*
X-66873Y-196762D01*
X-67006Y-196551D01*
X-67127Y-196328D01*
X-67234Y-196092D01*
X-67326Y-195846D01*
X-67405Y-195589D01*
X-67469Y-195322D01*
X-67519Y-195044D01*
X-67555Y-194755D01*
X-67576Y-194456D01*
X-67583Y-194146D01*
X-67567Y-193687D01*
X-67519Y-193254D01*
X-67440Y-192846D01*
X-67328Y-192464D01*
X-67185Y-192107D01*
X-67010Y-191776D01*
X-66803Y-191470D01*
X-66564Y-191190D01*
X-66297Y-190939D01*
X-66005Y-190722D01*
X-65689Y-190538D01*
X-65349Y-190387D01*
X-64984Y-190270D01*
X-64594Y-190187D01*
X-64180Y-190137D01*
X-63742Y-190120D01*
X-63433Y-190128D01*
X-63137Y-190151D01*
X-62855Y-190189D01*
X-62585Y-190243D01*
X-62328Y-190313D01*
X-62085Y-190397D01*
X-61854Y-190497D01*
X-61636Y-190613D01*
X-61432Y-190744D01*
X-61241Y-190889D01*
X-61065Y-191049D01*
X-60902Y-191225D01*
X-60754Y-191415D01*
X-60620Y-191620D01*
X-60499Y-191840D01*
X-60393Y-192074D01*
X-61406Y-192410D01*
X-61564Y-192086D01*
X-61764Y-191803D01*
X-62005Y-191560D01*
X-62288Y-191358D01*
X-62606Y-191198D01*
X-62953Y-191085D01*
X-63327Y-191016D01*
X-63730Y-190994D01*
X-64049Y-191007D01*
X-64349Y-191046D01*
X-64631Y-191112D01*
X-64895Y-191204D01*
X-65141Y-191323D01*
X-65368Y-191468D01*
X-65578Y-191639D01*
X-65769Y-191836D01*
X-65939Y-192057D01*
X-66087Y-192297D01*
X-66212Y-192556D01*
X-66315Y-192835D01*
X-66394Y-193134D01*
X-66451Y-193452D01*
X-66485Y-193789D01*
X-66497Y-194146D01*
X-66485Y-194500D01*
X-66449Y-194836D01*
X-66390Y-195154D01*
X-66307Y-195455D01*
X-66200Y-195737D01*
X-66070Y-196002D01*
X-65916Y-196249D01*
X-65738Y-196479D01*
X-65540Y-196686D01*
X-65325Y-196865D01*
X-65094Y-197016D01*
X-64845Y-197140D01*
X-64581Y-197237D01*
X-64299Y-197306D01*
X-64001Y-197347D01*
X-63686Y-197361D01*
X-63482Y-197354D01*
X-63284Y-197335D01*
X-63093Y-197303D01*
X-62908Y-197258D01*
X-62558Y-197130D01*
X-62234Y-196951D01*
X-61935Y-196720D01*
X-61662Y-196438D01*
X-61415Y-196105D01*
X-61194Y-195720D01*
X-60320Y-196157D01*
X-60448Y-196404D01*
X-60588Y-196636D01*
X-60741Y-196853D01*
X-60906Y-197054D01*
X-61083Y-197241D01*
X-61273Y-197412D01*
X-61475Y-197567D01*
X-61689Y-197708D01*
X-61914Y-197833D01*
X-62148Y-197941D01*
X-62390Y-198032D01*
X-62642Y-198107D01*
X-62902Y-198165D01*
X-63171Y-198207D01*
X-63449Y-198232D01*
X-63736Y-198240D01*
G37*
G36*
X13093Y-198240D02*
X12789Y-198232D01*
X12495Y-198209D01*
X12212Y-198171D01*
X11940Y-198117D01*
X11679Y-198048D01*
X11428Y-197963D01*
X11188Y-197863D01*
X10959Y-197747D01*
X10742Y-197617D01*
X10537Y-197474D01*
X10346Y-197317D01*
X10169Y-197146D01*
X10004Y-196962D01*
X9853Y-196764D01*
X9715Y-196553D01*
X9590Y-196328D01*
X9479Y-196091D01*
X9383Y-195844D01*
X9301Y-195586D01*
X9235Y-195319D01*
X9183Y-195041D01*
X9146Y-194753D01*
X9124Y-194455D01*
X9117Y-194146D01*
X9133Y-193680D01*
X9181Y-193240D01*
X9262Y-192828D01*
X9374Y-192443D01*
X9519Y-192085D01*
X9696Y-191754D01*
X9906Y-191450D01*
X10147Y-191173D01*
X10418Y-190926D01*
X10714Y-190712D01*
X11037Y-190531D01*
X11386Y-190383D01*
X11761Y-190268D01*
X12162Y-190186D01*
X12589Y-190137D01*
X13042Y-190120D01*
X13362Y-190127D01*
X13667Y-190148D01*
X13956Y-190182D01*
X14229Y-190231D01*
X14488Y-190293D01*
X14731Y-190369D01*
X14958Y-190459D01*
X15170Y-190562D01*
X15369Y-190681D01*
X15556Y-190817D01*
X15731Y-190969D01*
X15894Y-191138D01*
X16046Y-191323D01*
X16186Y-191525D01*
X16314Y-191744D01*
X16430Y-191979D01*
X15411Y-192282D01*
X15227Y-191968D01*
X15011Y-191701D01*
X14764Y-191478D01*
X14484Y-191302D01*
X14171Y-191167D01*
X13821Y-191071D01*
X13436Y-191013D01*
X13014Y-190994D01*
X12683Y-191007D01*
X12371Y-191045D01*
X12080Y-191110D01*
X11809Y-191200D01*
X11558Y-191316D01*
X11327Y-191458D01*
X11116Y-191626D01*
X10925Y-191820D01*
X10756Y-192037D01*
X10609Y-192275D01*
X10485Y-192534D01*
X10384Y-192814D01*
X10305Y-193116D01*
X10248Y-193438D01*
X10214Y-193782D01*
X10203Y-194146D01*
X10215Y-194510D01*
X10251Y-194855D01*
X10311Y-195179D01*
X10395Y-195484D01*
X10503Y-195769D01*
X10635Y-196035D01*
X10790Y-196281D01*
X10970Y-196507D01*
X11171Y-196710D01*
X11391Y-196885D01*
X11628Y-197034D01*
X11884Y-197156D01*
X12159Y-197250D01*
X12452Y-197318D01*
X12763Y-197359D01*
X13093Y-197372D01*
X13473Y-197357D01*
X13839Y-197313D01*
X14194Y-197240D01*
X14535Y-197137D01*
X14853Y-197009D01*
X15140Y-196860D01*
X15395Y-196690D01*
X15618Y-196498D01*
X15618Y-195076D01*
X13261Y-195076D01*
X13261Y-194180D01*
X16604Y-194180D01*
X16604Y-196902D01*
X16273Y-197203D01*
X15906Y-197468D01*
X15504Y-197697D01*
X15067Y-197890D01*
X14602Y-198043D01*
X14118Y-198152D01*
X13615Y-198218D01*
X13093Y-198240D01*
G37*
G36*
X-37907Y-198240D02*
X-38211Y-198232D01*
X-38505Y-198209D01*
X-38788Y-198171D01*
X-39060Y-198117D01*
X-39321Y-198048D01*
X-39572Y-197963D01*
X-39812Y-197863D01*
X-40041Y-197747D01*
X-40258Y-197617D01*
X-40463Y-197474D01*
X-40654Y-197317D01*
X-40831Y-197146D01*
X-40996Y-196962D01*
X-41147Y-196764D01*
X-41285Y-196553D01*
X-41410Y-196328D01*
X-41521Y-196091D01*
X-41617Y-195844D01*
X-41699Y-195586D01*
X-41765Y-195319D01*
X-41817Y-195041D01*
X-41854Y-194753D01*
X-41876Y-194455D01*
X-41883Y-194146D01*
X-41867Y-193680D01*
X-41819Y-193240D01*
X-41739Y-192828D01*
X-41626Y-192443D01*
X-41481Y-192085D01*
X-41304Y-191754D01*
X-41095Y-191450D01*
X-40853Y-191173D01*
X-40582Y-190926D01*
X-40286Y-190712D01*
X-39963Y-190531D01*
X-39614Y-190383D01*
X-39239Y-190268D01*
X-38838Y-190186D01*
X-38411Y-190137D01*
X-37958Y-190120D01*
X-37638Y-190127D01*
X-37333Y-190148D01*
X-37044Y-190182D01*
X-36771Y-190231D01*
X-36512Y-190293D01*
X-36269Y-190369D01*
X-36042Y-190459D01*
X-35830Y-190562D01*
X-35631Y-190681D01*
X-35444Y-190817D01*
X-35269Y-190969D01*
X-35106Y-191138D01*
X-34954Y-191323D01*
X-34815Y-191525D01*
X-34686Y-191744D01*
X-34570Y-191979D01*
X-35589Y-192282D01*
X-35773Y-191968D01*
X-35989Y-191701D01*
X-36236Y-191478D01*
X-36516Y-191302D01*
X-36829Y-191167D01*
X-37179Y-191071D01*
X-37564Y-191013D01*
X-37986Y-190994D01*
X-38317Y-191007D01*
X-38629Y-191045D01*
X-38920Y-191110D01*
X-39191Y-191200D01*
X-39442Y-191316D01*
X-39673Y-191458D01*
X-39884Y-191626D01*
X-40075Y-191820D01*
X-40244Y-192037D01*
X-40391Y-192275D01*
X-40515Y-192534D01*
X-40616Y-192814D01*
X-40695Y-193116D01*
X-40752Y-193438D01*
X-40786Y-193782D01*
X-40797Y-194146D01*
X-40785Y-194510D01*
X-40749Y-194855D01*
X-40689Y-195179D01*
X-40605Y-195484D01*
X-40497Y-195769D01*
X-40365Y-196035D01*
X-40210Y-196281D01*
X-40030Y-196507D01*
X-39829Y-196710D01*
X-39609Y-196885D01*
X-39372Y-197034D01*
X-39116Y-197156D01*
X-38841Y-197250D01*
X-38548Y-197318D01*
X-38237Y-197359D01*
X-37907Y-197372D01*
X-37528Y-197357D01*
X-37161Y-197313D01*
X-36807Y-197240D01*
X-36465Y-197137D01*
X-36147Y-197009D01*
X-35860Y-196860D01*
X-35605Y-196690D01*
X-35382Y-196498D01*
X-35382Y-195076D01*
X-37739Y-195076D01*
X-37739Y-194180D01*
X-34396Y-194180D01*
X-34396Y-196902D01*
X-34728Y-197203D01*
X-35094Y-197468D01*
X-35496Y-197697D01*
X-35933Y-197890D01*
X-36398Y-198043D01*
X-36882Y-198152D01*
X-37385Y-198218D01*
X-37907Y-198240D01*
G37*
G36*
X74429Y45936D02*
X73360Y45936D01*
X73360Y53826D01*
X77073Y53826D01*
X77396Y53817D01*
X77701Y53789D01*
X77987Y53742D01*
X78253Y53677D01*
X78501Y53593D01*
X78730Y53491D01*
X78940Y53370D01*
X79131Y53230D01*
X79301Y53074D01*
X79448Y52903D01*
X79572Y52717D01*
X79674Y52517D01*
X79754Y52302D01*
X79810Y52072D01*
X79844Y51828D01*
X79856Y51570D01*
X79848Y51354D01*
X79824Y51147D01*
X79784Y50950D01*
X79728Y50760D01*
X79656Y50580D01*
X79568Y50408D01*
X79463Y50245D01*
X79343Y50091D01*
X79209Y49948D01*
X79063Y49819D01*
X78904Y49704D01*
X78833Y49662D01*
X78734Y49603D01*
X78551Y49515D01*
X78356Y49441D01*
X78149Y49381D01*
X77929Y49335D01*
X78883Y47888D01*
X80169Y45936D01*
X78937Y45936D01*
X76888Y49212D01*
X74429Y49212D01*
X74429Y45936D01*
G37*
%LPC*%
G36*
X77011Y50058D02*
X77216Y50064D01*
X77410Y50082D01*
X77591Y50113D01*
X77761Y50156D01*
X77918Y50212D01*
X78064Y50280D01*
X78197Y50360D01*
X78319Y50452D01*
X78427Y50556D01*
X78521Y50670D01*
X78600Y50793D01*
X78665Y50926D01*
X78716Y51069D01*
X78752Y51223D01*
X78773Y51386D01*
X78781Y51558D01*
X78773Y51725D01*
X78751Y51882D01*
X78715Y52029D01*
X78664Y52165D01*
X78598Y52291D01*
X78518Y52407D01*
X78423Y52513D01*
X78313Y52608D01*
X78190Y52693D01*
X78053Y52766D01*
X77742Y52879D01*
X77380Y52947D01*
X76966Y52970D01*
X74429Y52970D01*
X74429Y50058D01*
X77011Y50058D01*
G37*
%LPD*%
G36*
X87857Y45936D02*
X81641Y45936D01*
X81641Y53826D01*
X87627Y53826D01*
X87627Y52953D01*
X82711Y52953D01*
X82711Y50422D01*
X87291Y50422D01*
X87291Y49559D01*
X82711Y49559D01*
X82711Y46810D01*
X87857Y46810D01*
X87857Y45936D01*
G37*
G36*
X92189Y45824D02*
X91838Y45832D01*
X91506Y45855D01*
X91193Y45895D01*
X90899Y45949D01*
X90624Y46020D01*
X90367Y46106D01*
X90130Y46208D01*
X89911Y46325D01*
X89712Y46458D01*
X89531Y46607D01*
X89370Y46772D01*
X89227Y46952D01*
X89103Y47147D01*
X88999Y47359D01*
X88913Y47586D01*
X88846Y47829D01*
X89882Y48036D01*
X89933Y47864D01*
X89997Y47704D01*
X90073Y47556D01*
X90162Y47419D01*
X90264Y47295D01*
X90378Y47182D01*
X90504Y47081D01*
X90644Y46992D01*
X90961Y46846D01*
X91331Y46742D01*
X91753Y46679D01*
X92228Y46658D01*
X92717Y46681D01*
X93146Y46747D01*
X93339Y46797D01*
X93516Y46858D01*
X93679Y46931D01*
X93827Y47014D01*
X93959Y47108D01*
X94073Y47213D01*
X94170Y47328D01*
X94249Y47453D01*
X94311Y47589D01*
X94355Y47735D01*
X94381Y47891D01*
X94390Y48058D01*
X94379Y48242D01*
X94346Y48408D01*
X94291Y48556D01*
X94214Y48686D01*
X94116Y48801D01*
X94001Y48905D01*
X93869Y49000D01*
X93718Y49083D01*
X93368Y49227D01*
X92956Y49346D01*
X91976Y49576D01*
X91154Y49783D01*
X90827Y49887D01*
X90557Y49990D01*
X90327Y50097D01*
X90124Y50209D01*
X89945Y50328D01*
X89792Y50452D01*
X89661Y50585D01*
X89545Y50729D01*
X89446Y50883D01*
X89364Y51049D01*
X89299Y51226D01*
X89253Y51416D01*
X89225Y51618D01*
X89216Y51833D01*
X89228Y52079D01*
X89264Y52311D01*
X89325Y52528D01*
X89410Y52730D01*
X89519Y52918D01*
X89652Y53092D01*
X89809Y53251D01*
X89991Y53395D01*
X90196Y53524D01*
X90421Y53635D01*
X90667Y53730D01*
X90934Y53807D01*
X91222Y53867D01*
X91531Y53910D01*
X91861Y53935D01*
X92212Y53944D01*
X92538Y53938D01*
X92844Y53918D01*
X93131Y53886D01*
X93397Y53841D01*
X93644Y53783D01*
X93872Y53712D01*
X94079Y53629D01*
X94267Y53532D01*
X94438Y53420D01*
X94596Y53290D01*
X94740Y53142D01*
X94872Y52976D01*
X94990Y52791D01*
X95094Y52589D01*
X95186Y52368D01*
X95264Y52130D01*
X94211Y51945D01*
X94104Y52237D01*
X93959Y52486D01*
X93774Y52692D01*
X93550Y52855D01*
X93283Y52978D01*
X92969Y53067D01*
X92608Y53120D01*
X92200Y53138D01*
X91755Y53118D01*
X91366Y53059D01*
X91033Y52961D01*
X90756Y52824D01*
X90639Y52741D01*
X90538Y52648D01*
X90452Y52545D01*
X90382Y52433D01*
X90327Y52312D01*
X90288Y52180D01*
X90265Y52039D01*
X90257Y51889D01*
X90269Y51715D01*
X90306Y51556D01*
X90366Y51414D01*
X90450Y51287D01*
X90558Y51172D01*
X90686Y51067D01*
X90836Y50971D01*
X91008Y50884D01*
X91235Y50796D01*
X91552Y50699D01*
X92458Y50478D01*
X93183Y50307D01*
X93537Y50212D01*
X93875Y50100D01*
X94195Y49969D01*
X94494Y49817D01*
X94763Y49636D01*
X94995Y49419D01*
X95184Y49163D01*
X95328Y48865D01*
X95381Y48698D01*
X95418Y48518D01*
X95441Y48323D01*
X95448Y48114D01*
X95435Y47849D01*
X95395Y47599D01*
X95328Y47365D01*
X95235Y47146D01*
X95115Y46942D01*
X94968Y46754D01*
X94795Y46581D01*
X94594Y46423D01*
X94370Y46283D01*
X94124Y46161D01*
X93856Y46058D01*
X93566Y45974D01*
X93255Y45908D01*
X92921Y45861D01*
X92566Y45833D01*
X92189Y45824D01*
G37*
G36*
X-104646Y38030D02*
X-105078Y38053D01*
X-105480Y38123D01*
X-105851Y38239D01*
X-106192Y38401D01*
X-106499Y38607D01*
X-106767Y38853D01*
X-106997Y39138D01*
X-107187Y39463D01*
X-107337Y39824D01*
X-107443Y40217D01*
X-107508Y40641D01*
X-107529Y41097D01*
X-107517Y41441D01*
X-107481Y41766D01*
X-107422Y42072D01*
X-107338Y42358D01*
X-107231Y42626D01*
X-107099Y42874D01*
X-106944Y43103D01*
X-106765Y43313D01*
X-106565Y43501D01*
X-106347Y43664D01*
X-106110Y43801D01*
X-105855Y43914D01*
X-105581Y44002D01*
X-105289Y44064D01*
X-104979Y44102D01*
X-104650Y44115D01*
X-104198Y44091D01*
X-103784Y44022D01*
X-103409Y43907D01*
X-103073Y43745D01*
X-102777Y43538D01*
X-102523Y43287D01*
X-102311Y42991D01*
X-102141Y42650D01*
X-102901Y42398D01*
X-103019Y42641D01*
X-103169Y42854D01*
X-103349Y43036D01*
X-103561Y43187D01*
X-103800Y43306D01*
X-104059Y43392D01*
X-104340Y43443D01*
X-104642Y43460D01*
X-104881Y43450D01*
X-105106Y43420D01*
X-105317Y43371D01*
X-105515Y43302D01*
X-105699Y43213D01*
X-105869Y43105D01*
X-106026Y42976D01*
X-106169Y42828D01*
X-106297Y42663D01*
X-106408Y42483D01*
X-106502Y42289D01*
X-106579Y42080D01*
X-106638Y41856D01*
X-106681Y41618D01*
X-106706Y41365D01*
X-106715Y41097D01*
X-106706Y40832D01*
X-106679Y40581D01*
X-106635Y40342D01*
X-106573Y40117D01*
X-106493Y39905D01*
X-106395Y39707D01*
X-106280Y39522D01*
X-106146Y39350D01*
X-105998Y39195D01*
X-105837Y39061D01*
X-105664Y38947D01*
X-105478Y38854D01*
X-105279Y38782D01*
X-105068Y38730D01*
X-104845Y38699D01*
X-104608Y38689D01*
X-104308Y38708D01*
X-104026Y38766D01*
X-103764Y38862D01*
X-103521Y38996D01*
X-103297Y39169D01*
X-103092Y39380D01*
X-102907Y39630D01*
X-102741Y39918D01*
X-102087Y39591D01*
X-102288Y39232D01*
X-102526Y38919D01*
X-102801Y38651D01*
X-103113Y38429D01*
X-103456Y38254D01*
X-103826Y38130D01*
X-104223Y38055D01*
X-104431Y38036D01*
X-104646Y38030D01*
G37*
G36*
X-97418Y38114D02*
X-101123Y38114D01*
X-101123Y38756D01*
X-99617Y38756D01*
X-99617Y43305D01*
X-100951Y42352D01*
X-100951Y43065D01*
X-99554Y44026D01*
X-98857Y44026D01*
X-98857Y38756D01*
X-97418Y38756D01*
X-97418Y38114D01*
G37*
G36*
X-103646Y23520D02*
X-104078Y23543D01*
X-104480Y23613D01*
X-104851Y23729D01*
X-105192Y23891D01*
X-105499Y24097D01*
X-105767Y24343D01*
X-105997Y24628D01*
X-106187Y24953D01*
X-106337Y25314D01*
X-106443Y25707D01*
X-106508Y26131D01*
X-106529Y26587D01*
X-106517Y26931D01*
X-106481Y27256D01*
X-106422Y27562D01*
X-106338Y27848D01*
X-106231Y28116D01*
X-106099Y28364D01*
X-105944Y28593D01*
X-105765Y28803D01*
X-105565Y28991D01*
X-105347Y29154D01*
X-105110Y29291D01*
X-104855Y29404D01*
X-104581Y29492D01*
X-104289Y29554D01*
X-103979Y29592D01*
X-103650Y29605D01*
X-103198Y29581D01*
X-102784Y29512D01*
X-102409Y29397D01*
X-102073Y29235D01*
X-101777Y29028D01*
X-101523Y28777D01*
X-101311Y28481D01*
X-101141Y28140D01*
X-101901Y27888D01*
X-102019Y28131D01*
X-102169Y28344D01*
X-102349Y28526D01*
X-102561Y28677D01*
X-102800Y28796D01*
X-103059Y28882D01*
X-103340Y28933D01*
X-103642Y28950D01*
X-103881Y28940D01*
X-104106Y28910D01*
X-104317Y28861D01*
X-104515Y28792D01*
X-104699Y28703D01*
X-104869Y28595D01*
X-105026Y28466D01*
X-105169Y28318D01*
X-105297Y28153D01*
X-105408Y27973D01*
X-105502Y27779D01*
X-105579Y27570D01*
X-105638Y27346D01*
X-105681Y27108D01*
X-105706Y26855D01*
X-105715Y26587D01*
X-105706Y26322D01*
X-105679Y26071D01*
X-105635Y25832D01*
X-105573Y25607D01*
X-105493Y25395D01*
X-105395Y25197D01*
X-105280Y25012D01*
X-105146Y24840D01*
X-104998Y24685D01*
X-104837Y24551D01*
X-104664Y24437D01*
X-104478Y24344D01*
X-104279Y24272D01*
X-104068Y24220D01*
X-103845Y24189D01*
X-103608Y24179D01*
X-103308Y24198D01*
X-103026Y24256D01*
X-102764Y24352D01*
X-102521Y24486D01*
X-102297Y24659D01*
X-102092Y24870D01*
X-101907Y25120D01*
X-101741Y25408D01*
X-101087Y25081D01*
X-101288Y24722D01*
X-101526Y24409D01*
X-101801Y24141D01*
X-102113Y23919D01*
X-102456Y23744D01*
X-102826Y23620D01*
X-103223Y23545D01*
X-103431Y23526D01*
X-103646Y23520D01*
G37*
G36*
X-96431Y23604D02*
X-100346Y23604D01*
X-100346Y24137D01*
X-100233Y24375D01*
X-100108Y24599D01*
X-99972Y24808D01*
X-99823Y25003D01*
X-99507Y25361D01*
X-99175Y25683D01*
X-98501Y26248D01*
X-98184Y26508D01*
X-97899Y26768D01*
X-97656Y27034D01*
X-97465Y27313D01*
X-97392Y27461D01*
X-97341Y27618D01*
X-97310Y27784D01*
X-97299Y27960D01*
X-97317Y28189D01*
X-97371Y28392D01*
X-97460Y28567D01*
X-97585Y28715D01*
X-97741Y28832D01*
X-97926Y28916D01*
X-98138Y28967D01*
X-98378Y28983D01*
X-98608Y28967D01*
X-98818Y28918D01*
X-99006Y28836D01*
X-99173Y28721D01*
X-99313Y28577D01*
X-99421Y28406D01*
X-99497Y28209D01*
X-99540Y27985D01*
X-100312Y28056D01*
X-100284Y28229D01*
X-100243Y28393D01*
X-100188Y28547D01*
X-100120Y28693D01*
X-100038Y28829D01*
X-99942Y28957D01*
X-99710Y29185D01*
X-99432Y29368D01*
X-99280Y29441D01*
X-99118Y29500D01*
X-98947Y29546D01*
X-98766Y29578D01*
X-98577Y29598D01*
X-98378Y29605D01*
X-98161Y29598D01*
X-97957Y29578D01*
X-97765Y29545D01*
X-97587Y29499D01*
X-97422Y29440D01*
X-97269Y29367D01*
X-97130Y29282D01*
X-97003Y29183D01*
X-96891Y29072D01*
X-96793Y28950D01*
X-96711Y28817D01*
X-96643Y28672D01*
X-96591Y28517D01*
X-96553Y28351D01*
X-96530Y28173D01*
X-96523Y27985D01*
X-96533Y27813D01*
X-96562Y27642D01*
X-96611Y27471D01*
X-96680Y27301D01*
X-96769Y27131D01*
X-96876Y26961D01*
X-97148Y26621D01*
X-97600Y26188D01*
X-98336Y25568D01*
X-98769Y25193D01*
X-99104Y24857D01*
X-99349Y24546D01*
X-99442Y24394D01*
X-99515Y24246D01*
X-96431Y24246D01*
X-96431Y23604D01*
G37*
G36*
X-103646Y-27740D02*
X-104078Y-27717D01*
X-104480Y-27647D01*
X-104851Y-27531D01*
X-105192Y-27369D01*
X-105499Y-27163D01*
X-105767Y-26918D01*
X-105997Y-26632D01*
X-106187Y-26307D01*
X-106337Y-25946D01*
X-106443Y-25553D01*
X-106508Y-25129D01*
X-106529Y-24673D01*
X-106517Y-24329D01*
X-106481Y-24004D01*
X-106422Y-23698D01*
X-106338Y-23412D01*
X-106231Y-23144D01*
X-106099Y-22896D01*
X-105944Y-22667D01*
X-105765Y-22457D01*
X-105565Y-22269D01*
X-105347Y-22106D01*
X-105110Y-21969D01*
X-104855Y-21856D01*
X-104581Y-21768D01*
X-104289Y-21706D01*
X-103979Y-21668D01*
X-103650Y-21656D01*
X-103198Y-21679D01*
X-102784Y-21748D01*
X-102409Y-21863D01*
X-102073Y-22025D01*
X-101777Y-22232D01*
X-101523Y-22483D01*
X-101311Y-22779D01*
X-101141Y-23120D01*
X-101901Y-23372D01*
X-102019Y-23129D01*
X-102169Y-22916D01*
X-102349Y-22734D01*
X-102561Y-22583D01*
X-102800Y-22464D01*
X-103059Y-22378D01*
X-103340Y-22327D01*
X-103642Y-22310D01*
X-103881Y-22320D01*
X-104106Y-22350D01*
X-104317Y-22399D01*
X-104515Y-22468D01*
X-104699Y-22557D01*
X-104869Y-22665D01*
X-105026Y-22794D01*
X-105169Y-22942D01*
X-105297Y-23107D01*
X-105408Y-23287D01*
X-105502Y-23481D01*
X-105579Y-23690D01*
X-105638Y-23914D01*
X-105681Y-24152D01*
X-105706Y-24405D01*
X-105715Y-24673D01*
X-105706Y-24938D01*
X-105679Y-25189D01*
X-105635Y-25428D01*
X-105573Y-25653D01*
X-105493Y-25865D01*
X-105395Y-26063D01*
X-105280Y-26248D01*
X-105146Y-26420D01*
X-104998Y-26575D01*
X-104837Y-26709D01*
X-104664Y-26823D01*
X-104478Y-26916D01*
X-104279Y-26988D01*
X-104068Y-27040D01*
X-103845Y-27071D01*
X-103608Y-27081D01*
X-103308Y-27062D01*
X-103026Y-27004D01*
X-102764Y-26908D01*
X-102521Y-26774D01*
X-102297Y-26601D01*
X-102092Y-26390D01*
X-101907Y-26140D01*
X-101741Y-25852D01*
X-101087Y-26179D01*
X-101288Y-26538D01*
X-101526Y-26851D01*
X-101801Y-27119D01*
X-102113Y-27341D01*
X-102456Y-27516D01*
X-102826Y-27640D01*
X-103223Y-27715D01*
X-103431Y-27734D01*
X-103646Y-27740D01*
G37*
G36*
X-98382Y-27740D02*
X-98601Y-27734D01*
X-98808Y-27715D01*
X-99004Y-27683D01*
X-99189Y-27639D01*
X-99363Y-27582D01*
X-99525Y-27512D01*
X-99675Y-27430D01*
X-99815Y-27335D01*
X-99942Y-27228D01*
X-100055Y-27108D01*
X-100155Y-26977D01*
X-100241Y-26833D01*
X-100314Y-26677D01*
X-100373Y-26509D01*
X-100419Y-26329D01*
X-100451Y-26137D01*
X-99670Y-26066D01*
X-99617Y-26312D01*
X-99533Y-26525D01*
X-99418Y-26705D01*
X-99273Y-26852D01*
X-99096Y-26967D01*
X-98889Y-27049D01*
X-98651Y-27098D01*
X-98382Y-27115D01*
X-98112Y-27097D01*
X-97873Y-27044D01*
X-97664Y-26957D01*
X-97486Y-26834D01*
X-97344Y-26676D01*
X-97242Y-26484D01*
X-97181Y-26258D01*
X-97161Y-25999D01*
X-97184Y-25771D01*
X-97254Y-25569D01*
X-97370Y-25394D01*
X-97532Y-25245D01*
X-97738Y-25127D01*
X-97986Y-25042D01*
X-98274Y-24992D01*
X-98604Y-24975D01*
X-99032Y-24975D01*
X-99032Y-24320D01*
X-98621Y-24320D01*
X-98328Y-24303D01*
X-98070Y-24252D01*
X-97846Y-24168D01*
X-97658Y-24049D01*
X-97508Y-23901D01*
X-97402Y-23727D01*
X-97337Y-23527D01*
X-97316Y-23300D01*
X-97333Y-23076D01*
X-97386Y-22876D01*
X-97473Y-22701D01*
X-97595Y-22551D01*
X-97752Y-22431D01*
X-97942Y-22345D01*
X-98166Y-22294D01*
X-98424Y-22277D01*
X-98662Y-22293D01*
X-98875Y-22341D01*
X-99065Y-22421D01*
X-99232Y-22533D01*
X-99370Y-22674D01*
X-99475Y-22841D01*
X-99549Y-23034D01*
X-99590Y-23254D01*
X-100350Y-23196D01*
X-100322Y-23019D01*
X-100281Y-22852D01*
X-100226Y-22696D01*
X-100157Y-22549D01*
X-100075Y-22413D01*
X-99980Y-22286D01*
X-99870Y-22169D01*
X-99748Y-22063D01*
X-99470Y-21884D01*
X-99317Y-21815D01*
X-99156Y-21757D01*
X-98984Y-21713D01*
X-98804Y-21681D01*
X-98614Y-21662D01*
X-98415Y-21656D01*
X-98199Y-21662D01*
X-97995Y-21681D01*
X-97804Y-21714D01*
X-97625Y-21759D01*
X-97458Y-21817D01*
X-97304Y-21888D01*
X-97162Y-21972D01*
X-97033Y-22069D01*
X-96917Y-22177D01*
X-96817Y-22296D01*
X-96732Y-22425D01*
X-96663Y-22563D01*
X-96609Y-22713D01*
X-96571Y-22872D01*
X-96547Y-23041D01*
X-96540Y-23221D01*
X-96560Y-23491D01*
X-96619Y-23734D01*
X-96718Y-23951D01*
X-96857Y-24142D01*
X-97033Y-24305D01*
X-97245Y-24439D01*
X-97493Y-24545D01*
X-97778Y-24622D01*
X-97778Y-24639D01*
X-97464Y-24694D01*
X-97188Y-24786D01*
X-96948Y-24916D01*
X-96745Y-25084D01*
X-96584Y-25283D01*
X-96468Y-25505D01*
X-96399Y-25753D01*
X-96376Y-26024D01*
X-96384Y-26223D01*
X-96409Y-26410D01*
X-96449Y-26585D01*
X-96506Y-26750D01*
X-96579Y-26902D01*
X-96669Y-27043D01*
X-96774Y-27173D01*
X-96896Y-27291D01*
X-97033Y-27396D01*
X-97184Y-27487D01*
X-97349Y-27565D01*
X-97528Y-27628D01*
X-97721Y-27677D01*
X-97927Y-27712D01*
X-98148Y-27733D01*
X-98382Y-27740D01*
G37*
G36*
X-97081Y-17226D02*
X-97794Y-17226D01*
X-97794Y-15887D01*
X-100581Y-15887D01*
X-100581Y-15300D01*
X-97874Y-11314D01*
X-97081Y-11314D01*
X-97081Y-15292D01*
X-96250Y-15292D01*
X-96250Y-15887D01*
X-97081Y-15887D01*
X-97081Y-17226D01*
G37*
%LPC*%
G36*
X-97794Y-15292D02*
X-97794Y-12165D01*
X-97912Y-12388D01*
X-98076Y-12665D01*
X-99590Y-14897D01*
X-99817Y-15208D01*
X-99884Y-15292D01*
X-97794Y-15292D01*
G37*
%LPD*%
G36*
X-103646Y-17310D02*
X-104078Y-17287D01*
X-104480Y-17217D01*
X-104851Y-17101D01*
X-105192Y-16939D01*
X-105499Y-16733D01*
X-105767Y-16488D01*
X-105997Y-16202D01*
X-106187Y-15877D01*
X-106337Y-15516D01*
X-106443Y-15123D01*
X-106508Y-14699D01*
X-106529Y-14243D01*
X-106517Y-13899D01*
X-106481Y-13574D01*
X-106422Y-13268D01*
X-106338Y-12982D01*
X-106231Y-12714D01*
X-106099Y-12466D01*
X-105944Y-12237D01*
X-105765Y-12027D01*
X-105565Y-11839D01*
X-105347Y-11676D01*
X-105110Y-11539D01*
X-104855Y-11426D01*
X-104581Y-11338D01*
X-104289Y-11276D01*
X-103979Y-11238D01*
X-103650Y-11226D01*
X-103198Y-11249D01*
X-102784Y-11318D01*
X-102409Y-11433D01*
X-102073Y-11595D01*
X-101777Y-11802D01*
X-101523Y-12053D01*
X-101311Y-12349D01*
X-101141Y-12690D01*
X-101901Y-12942D01*
X-102019Y-12699D01*
X-102169Y-12486D01*
X-102349Y-12304D01*
X-102561Y-12153D01*
X-102800Y-12034D01*
X-103059Y-11948D01*
X-103340Y-11897D01*
X-103642Y-11880D01*
X-103881Y-11890D01*
X-104106Y-11920D01*
X-104317Y-11969D01*
X-104515Y-12038D01*
X-104699Y-12127D01*
X-104869Y-12235D01*
X-105026Y-12364D01*
X-105169Y-12512D01*
X-105297Y-12677D01*
X-105408Y-12857D01*
X-105502Y-13051D01*
X-105579Y-13260D01*
X-105638Y-13484D01*
X-105681Y-13722D01*
X-105706Y-13975D01*
X-105715Y-14243D01*
X-105706Y-14508D01*
X-105679Y-14759D01*
X-105635Y-14998D01*
X-105573Y-15223D01*
X-105493Y-15435D01*
X-105395Y-15633D01*
X-105280Y-15818D01*
X-105146Y-15990D01*
X-104998Y-16145D01*
X-104837Y-16279D01*
X-104664Y-16393D01*
X-104478Y-16486D01*
X-104279Y-16558D01*
X-104068Y-16610D01*
X-103845Y-16641D01*
X-103608Y-16651D01*
X-103308Y-16632D01*
X-103026Y-16574D01*
X-102764Y-16478D01*
X-102521Y-16344D01*
X-102297Y-16171D01*
X-102092Y-15960D01*
X-101907Y-15710D01*
X-101741Y-15422D01*
X-101087Y-15749D01*
X-101288Y-16108D01*
X-101526Y-16421D01*
X-101801Y-16689D01*
X-102113Y-16911D01*
X-102456Y-17086D01*
X-102826Y-17210D01*
X-103223Y-17285D01*
X-103431Y-17304D01*
X-103646Y-17310D01*
G37*
G36*
X-67671Y-96812D02*
X-68103Y-96789D01*
X-68504Y-96719D01*
X-68876Y-96603D01*
X-69217Y-96441D01*
X-69524Y-96235D01*
X-69792Y-95990D01*
X-70021Y-95704D01*
X-70212Y-95379D01*
X-70361Y-95018D01*
X-70468Y-94625D01*
X-70532Y-94201D01*
X-70554Y-93745D01*
X-70542Y-93401D01*
X-70506Y-93076D01*
X-70446Y-92770D01*
X-70363Y-92484D01*
X-70255Y-92216D01*
X-70124Y-91968D01*
X-69969Y-91739D01*
X-69790Y-91529D01*
X-69590Y-91341D01*
X-69371Y-91178D01*
X-69135Y-91041D01*
X-68879Y-90928D01*
X-68606Y-90840D01*
X-68314Y-90778D01*
X-68004Y-90740D01*
X-67675Y-90728D01*
X-67222Y-90751D01*
X-66809Y-90820D01*
X-66434Y-90935D01*
X-66097Y-91097D01*
X-65801Y-91304D01*
X-65548Y-91555D01*
X-65336Y-91851D01*
X-65166Y-92192D01*
X-65925Y-92444D01*
X-66044Y-92201D01*
X-66193Y-91988D01*
X-66374Y-91806D01*
X-66586Y-91655D01*
X-66824Y-91536D01*
X-67084Y-91450D01*
X-67365Y-91399D01*
X-67667Y-91382D01*
X-67905Y-91392D01*
X-68130Y-91422D01*
X-68342Y-91471D01*
X-68539Y-91540D01*
X-68724Y-91629D01*
X-68894Y-91737D01*
X-69051Y-91866D01*
X-69194Y-92014D01*
X-69322Y-92179D01*
X-69433Y-92359D01*
X-69526Y-92553D01*
X-69603Y-92762D01*
X-69663Y-92986D01*
X-69705Y-93224D01*
X-69731Y-93477D01*
X-69740Y-93745D01*
X-69731Y-94010D01*
X-69704Y-94261D01*
X-69660Y-94500D01*
X-69597Y-94725D01*
X-69517Y-94937D01*
X-69420Y-95135D01*
X-69304Y-95320D01*
X-69171Y-95492D01*
X-69023Y-95647D01*
X-68862Y-95781D01*
X-68688Y-95895D01*
X-68502Y-95988D01*
X-68304Y-96060D01*
X-68093Y-96112D01*
X-67869Y-96143D01*
X-67633Y-96153D01*
X-67332Y-96134D01*
X-67051Y-96076D01*
X-66788Y-95980D01*
X-66545Y-95846D01*
X-66321Y-95673D01*
X-66117Y-95462D01*
X-65932Y-95212D01*
X-65766Y-94924D01*
X-65111Y-95251D01*
X-65312Y-95610D01*
X-65550Y-95923D01*
X-65825Y-96191D01*
X-66137Y-96413D01*
X-66481Y-96588D01*
X-66851Y-96712D01*
X-67248Y-96787D01*
X-67456Y-96806D01*
X-67671Y-96812D01*
G37*
G36*
X-62482Y-96812D02*
X-62875Y-96789D01*
X-63229Y-96722D01*
X-63543Y-96609D01*
X-63816Y-96451D01*
X-64047Y-96250D01*
X-64231Y-96009D01*
X-64368Y-95728D01*
X-64458Y-95406D01*
X-63695Y-95318D01*
X-63623Y-95524D01*
X-63528Y-95702D01*
X-63410Y-95853D01*
X-63268Y-95976D01*
X-63102Y-96072D01*
X-62913Y-96140D01*
X-62701Y-96181D01*
X-62465Y-96195D01*
X-62178Y-96172D01*
X-61923Y-96103D01*
X-61701Y-95989D01*
X-61513Y-95828D01*
X-61362Y-95627D01*
X-61255Y-95392D01*
X-61190Y-95123D01*
X-61169Y-94819D01*
X-61190Y-94553D01*
X-61255Y-94314D01*
X-61363Y-94102D01*
X-61515Y-93917D01*
X-61703Y-93766D01*
X-61921Y-93659D01*
X-62170Y-93594D01*
X-62448Y-93573D01*
X-62744Y-93597D01*
X-63019Y-93669D01*
X-63284Y-93799D01*
X-63548Y-93996D01*
X-64286Y-93996D01*
X-64089Y-90816D01*
X-60728Y-90816D01*
X-60728Y-91458D01*
X-63401Y-91458D01*
X-63514Y-93333D01*
X-63254Y-93168D01*
X-62964Y-93050D01*
X-62643Y-92979D01*
X-62293Y-92956D01*
X-62081Y-92964D01*
X-61879Y-92988D01*
X-61688Y-93028D01*
X-61509Y-93084D01*
X-61341Y-93156D01*
X-61183Y-93244D01*
X-61037Y-93348D01*
X-60902Y-93468D01*
X-60781Y-93600D01*
X-60675Y-93743D01*
X-60586Y-93895D01*
X-60514Y-94057D01*
X-60457Y-94229D01*
X-60416Y-94410D01*
X-60392Y-94601D01*
X-60384Y-94802D01*
X-60393Y-95030D01*
X-60419Y-95245D01*
X-60462Y-95448D01*
X-60523Y-95638D01*
X-60601Y-95816D01*
X-60697Y-95981D01*
X-60810Y-96134D01*
X-60940Y-96275D01*
X-61086Y-96401D01*
X-61245Y-96510D01*
X-61417Y-96602D01*
X-61603Y-96678D01*
X-61803Y-96736D01*
X-62016Y-96778D01*
X-62242Y-96804D01*
X-62482Y-96812D01*
G37*
G36*
X-95269Y-97348D02*
X-95512Y-97336D01*
X-95739Y-97302D01*
X-95952Y-97244D01*
X-96151Y-97162D01*
X-96334Y-97058D01*
X-96503Y-96930D01*
X-96657Y-96779D01*
X-96797Y-96605D01*
X-96921Y-96409D01*
X-97028Y-96192D01*
X-97119Y-95953D01*
X-97193Y-95694D01*
X-97251Y-95413D01*
X-97292Y-95111D01*
X-97317Y-94788D01*
X-97325Y-94444D01*
X-97317Y-94071D01*
X-97291Y-93721D01*
X-97248Y-93393D01*
X-97188Y-93087D01*
X-97111Y-92803D01*
X-97016Y-92542D01*
X-96905Y-92303D01*
X-96776Y-92086D01*
X-96631Y-91893D01*
X-96472Y-91726D01*
X-96298Y-91585D01*
X-96110Y-91469D01*
X-95907Y-91379D01*
X-95689Y-91315D01*
X-95457Y-91276D01*
X-95211Y-91264D01*
X-94891Y-91282D01*
X-94603Y-91339D01*
X-94346Y-91433D01*
X-94120Y-91565D01*
X-93924Y-91734D01*
X-93760Y-91941D01*
X-93626Y-92186D01*
X-93524Y-92468D01*
X-94245Y-92598D01*
X-94309Y-92429D01*
X-94390Y-92282D01*
X-94487Y-92158D01*
X-94600Y-92057D01*
X-94730Y-91978D01*
X-94876Y-91921D01*
X-95039Y-91887D01*
X-95219Y-91876D01*
X-95376Y-91886D01*
X-95524Y-91914D01*
X-95663Y-91961D01*
X-95792Y-92027D01*
X-95913Y-92111D01*
X-96024Y-92215D01*
X-96127Y-92337D01*
X-96220Y-92478D01*
X-96303Y-92637D01*
X-96375Y-92813D01*
X-96436Y-93006D01*
X-96486Y-93215D01*
X-96524Y-93442D01*
X-96552Y-93685D01*
X-96574Y-94222D01*
X-96461Y-94042D01*
X-96327Y-93886D01*
X-96172Y-93752D01*
X-95995Y-93641D01*
X-95802Y-93553D01*
X-95595Y-93491D01*
X-95374Y-93454D01*
X-95139Y-93441D01*
X-94940Y-93449D01*
X-94751Y-93473D01*
X-94573Y-93513D01*
X-94405Y-93569D01*
X-94248Y-93641D01*
X-94102Y-93729D01*
X-93966Y-93833D01*
X-93841Y-93953D01*
X-93728Y-94087D01*
X-93630Y-94231D01*
X-93548Y-94387D01*
X-93480Y-94553D01*
X-93428Y-94731D01*
X-93390Y-94919D01*
X-93368Y-95119D01*
X-93360Y-95330D01*
X-93368Y-95557D01*
X-93392Y-95773D01*
X-93431Y-95976D01*
X-93487Y-96167D01*
X-93558Y-96345D01*
X-93646Y-96511D01*
X-93749Y-96665D01*
X-93868Y-96807D01*
X-94001Y-96934D01*
X-94146Y-97043D01*
X-94303Y-97137D01*
X-94472Y-97213D01*
X-94653Y-97272D01*
X-94847Y-97314D01*
X-95052Y-97339D01*
X-95269Y-97348D01*
G37*
%LPC*%
G36*
X-95295Y-96740D02*
X-95036Y-96717D01*
X-94808Y-96648D01*
X-94608Y-96533D01*
X-94439Y-96372D01*
X-94303Y-96172D01*
X-94206Y-95936D01*
X-94147Y-95667D01*
X-94128Y-95363D01*
X-94148Y-95061D01*
X-94207Y-94795D01*
X-94305Y-94565D01*
X-94443Y-94373D01*
X-94616Y-94220D01*
X-94819Y-94112D01*
X-95054Y-94046D01*
X-95320Y-94025D01*
X-95571Y-94044D01*
X-95798Y-94102D01*
X-95998Y-94198D01*
X-96174Y-94333D01*
X-96316Y-94502D01*
X-96418Y-94700D01*
X-96479Y-94927D01*
X-96499Y-95183D01*
X-96478Y-95509D01*
X-96414Y-95805D01*
X-96309Y-96069D01*
X-96161Y-96303D01*
X-95980Y-96494D01*
X-95776Y-96630D01*
X-95547Y-96712D01*
X-95424Y-96733D01*
X-95295Y-96740D01*
G37*
%LPD*%
G36*
X-100630Y-97348D02*
X-101062Y-97325D01*
X-101464Y-97255D01*
X-101835Y-97139D01*
X-102176Y-96977D01*
X-102483Y-96771D01*
X-102751Y-96526D01*
X-102981Y-96240D01*
X-103171Y-95915D01*
X-103321Y-95554D01*
X-103427Y-95161D01*
X-103492Y-94737D01*
X-103513Y-94281D01*
X-103501Y-93937D01*
X-103465Y-93612D01*
X-103406Y-93306D01*
X-103322Y-93020D01*
X-103215Y-92752D01*
X-103083Y-92504D01*
X-102928Y-92275D01*
X-102749Y-92065D01*
X-102549Y-91877D01*
X-102331Y-91714D01*
X-102094Y-91577D01*
X-101839Y-91464D01*
X-101565Y-91376D01*
X-101273Y-91314D01*
X-100963Y-91276D01*
X-100634Y-91264D01*
X-100182Y-91287D01*
X-99768Y-91356D01*
X-99393Y-91471D01*
X-99057Y-91633D01*
X-98761Y-91840D01*
X-98507Y-92091D01*
X-98295Y-92387D01*
X-98125Y-92728D01*
X-98885Y-92980D01*
X-99003Y-92737D01*
X-99153Y-92524D01*
X-99333Y-92342D01*
X-99545Y-92191D01*
X-99784Y-92072D01*
X-100043Y-91986D01*
X-100324Y-91935D01*
X-100626Y-91918D01*
X-100865Y-91928D01*
X-101090Y-91958D01*
X-101301Y-92007D01*
X-101499Y-92076D01*
X-101683Y-92165D01*
X-101853Y-92273D01*
X-102010Y-92402D01*
X-102153Y-92550D01*
X-102281Y-92715D01*
X-102392Y-92895D01*
X-102486Y-93089D01*
X-102563Y-93298D01*
X-102622Y-93522D01*
X-102665Y-93760D01*
X-102690Y-94013D01*
X-102699Y-94281D01*
X-102690Y-94546D01*
X-102663Y-94797D01*
X-102619Y-95036D01*
X-102557Y-95261D01*
X-102477Y-95473D01*
X-102379Y-95671D01*
X-102264Y-95856D01*
X-102130Y-96028D01*
X-101982Y-96183D01*
X-101821Y-96317D01*
X-101648Y-96431D01*
X-101462Y-96524D01*
X-101263Y-96596D01*
X-101052Y-96648D01*
X-100829Y-96679D01*
X-100592Y-96689D01*
X-100292Y-96670D01*
X-100010Y-96612D01*
X-99748Y-96516D01*
X-99505Y-96382D01*
X-99281Y-96209D01*
X-99076Y-95998D01*
X-98891Y-95748D01*
X-98725Y-95460D01*
X-98071Y-95787D01*
X-98272Y-96146D01*
X-98510Y-96459D01*
X-98785Y-96727D01*
X-99097Y-96949D01*
X-99440Y-97124D01*
X-99810Y-97248D01*
X-100207Y-97323D01*
X-100415Y-97342D01*
X-100630Y-97348D01*
G37*
G36*
X-103646Y2390D02*
X-104078Y2413D01*
X-104480Y2483D01*
X-104851Y2599D01*
X-105192Y2761D01*
X-105499Y2967D01*
X-105767Y3213D01*
X-105997Y3498D01*
X-106187Y3823D01*
X-106337Y4184D01*
X-106443Y4577D01*
X-106508Y5001D01*
X-106529Y5457D01*
X-106517Y5801D01*
X-106481Y6126D01*
X-106422Y6432D01*
X-106338Y6718D01*
X-106231Y6986D01*
X-106099Y7234D01*
X-105944Y7463D01*
X-105765Y7673D01*
X-105565Y7861D01*
X-105347Y8024D01*
X-105110Y8161D01*
X-104855Y8274D01*
X-104581Y8362D01*
X-104289Y8424D01*
X-103979Y8462D01*
X-103650Y8475D01*
X-103198Y8451D01*
X-102784Y8382D01*
X-102409Y8267D01*
X-102073Y8105D01*
X-101777Y7898D01*
X-101523Y7647D01*
X-101311Y7351D01*
X-101141Y7010D01*
X-101901Y6758D01*
X-102019Y7001D01*
X-102169Y7214D01*
X-102349Y7396D01*
X-102561Y7547D01*
X-102800Y7666D01*
X-103059Y7752D01*
X-103340Y7803D01*
X-103642Y7820D01*
X-103881Y7810D01*
X-104106Y7780D01*
X-104317Y7731D01*
X-104515Y7662D01*
X-104699Y7573D01*
X-104869Y7465D01*
X-105026Y7336D01*
X-105169Y7188D01*
X-105297Y7023D01*
X-105408Y6843D01*
X-105502Y6649D01*
X-105579Y6440D01*
X-105638Y6216D01*
X-105681Y5978D01*
X-105706Y5725D01*
X-105715Y5457D01*
X-105706Y5192D01*
X-105679Y4941D01*
X-105635Y4702D01*
X-105573Y4477D01*
X-105493Y4265D01*
X-105395Y4067D01*
X-105280Y3882D01*
X-105146Y3710D01*
X-104998Y3555D01*
X-104837Y3421D01*
X-104664Y3307D01*
X-104478Y3214D01*
X-104279Y3142D01*
X-104068Y3090D01*
X-103845Y3059D01*
X-103608Y3049D01*
X-103308Y3068D01*
X-103026Y3126D01*
X-102764Y3222D01*
X-102521Y3356D01*
X-102297Y3529D01*
X-102092Y3740D01*
X-101907Y3990D01*
X-101741Y4278D01*
X-101087Y3951D01*
X-101288Y3592D01*
X-101526Y3279D01*
X-101801Y3011D01*
X-102113Y2789D01*
X-102456Y2614D01*
X-102826Y2490D01*
X-103223Y2415D01*
X-103431Y2396D01*
X-103646Y2390D01*
G37*
G36*
X-98457Y2474D02*
X-99246Y2474D01*
X-99239Y2759D01*
X-99216Y3048D01*
X-99179Y3341D01*
X-99126Y3637D01*
X-98976Y4241D01*
X-98766Y4860D01*
X-98485Y5510D01*
X-98124Y6207D01*
X-97683Y6952D01*
X-97161Y7744D01*
X-100337Y7744D01*
X-100337Y8386D01*
X-96431Y8386D01*
X-96431Y7774D01*
X-96851Y7119D01*
X-97204Y6539D01*
X-97490Y6034D01*
X-97710Y5604D01*
X-97886Y5213D01*
X-98037Y4825D01*
X-98166Y4439D01*
X-98271Y4056D01*
X-98352Y3671D01*
X-98411Y3279D01*
X-98446Y2880D01*
X-98457Y2474D01*
G37*
G36*
X-98386Y12820D02*
X-98617Y12827D01*
X-98834Y12848D01*
X-99039Y12883D01*
X-99231Y12932D01*
X-99410Y12995D01*
X-99576Y13073D01*
X-99729Y13164D01*
X-99869Y13269D01*
X-99995Y13387D01*
X-100103Y13517D01*
X-100195Y13659D01*
X-100271Y13812D01*
X-100329Y13978D01*
X-100371Y14155D01*
X-100396Y14344D01*
X-100404Y14545D01*
X-100384Y14823D01*
X-100322Y15078D01*
X-100218Y15309D01*
X-100073Y15518D01*
X-99896Y15696D01*
X-99695Y15835D01*
X-99472Y15935D01*
X-99225Y15997D01*
X-99225Y16013D01*
X-99454Y16087D01*
X-99657Y16193D01*
X-99835Y16332D01*
X-99987Y16504D01*
X-100109Y16701D01*
X-100196Y16914D01*
X-100249Y17144D01*
X-100266Y17390D01*
X-100258Y17555D01*
X-100234Y17711D01*
X-100195Y17860D01*
X-100140Y18001D01*
X-100068Y18134D01*
X-99982Y18259D01*
X-99879Y18376D01*
X-99760Y18485D01*
X-99628Y18583D01*
X-99486Y18668D01*
X-99332Y18741D01*
X-99168Y18800D01*
X-98993Y18846D01*
X-98807Y18878D01*
X-98610Y18898D01*
X-98403Y18905D01*
X-98190Y18898D01*
X-97989Y18879D01*
X-97800Y18847D01*
X-97622Y18802D01*
X-97455Y18744D01*
X-97300Y18673D01*
X-97157Y18590D01*
X-97024Y18493D01*
X-96906Y18386D01*
X-96803Y18270D01*
X-96716Y18144D01*
X-96645Y18010D01*
X-96590Y17866D01*
X-96550Y17714D01*
X-96527Y17552D01*
X-96519Y17381D01*
X-96536Y17136D01*
X-96589Y16906D01*
X-96677Y16693D01*
X-96800Y16496D01*
X-96953Y16325D01*
X-96962Y16318D01*
X-97132Y16189D01*
X-97337Y16088D01*
X-97568Y16022D01*
X-97568Y16005D01*
X-97300Y15940D01*
X-97064Y15839D01*
X-96860Y15700D01*
X-96702Y15540D01*
X-96687Y15525D01*
X-96549Y15318D01*
X-96451Y15088D01*
X-96392Y14833D01*
X-96372Y14553D01*
X-96380Y14354D01*
X-96404Y14167D01*
X-96445Y13990D01*
X-96502Y13825D01*
X-96575Y13671D01*
X-96665Y13529D01*
X-96770Y13397D01*
X-96892Y13277D01*
X-97029Y13170D01*
X-97181Y13077D01*
X-97346Y12999D01*
X-97526Y12934D01*
X-97720Y12884D01*
X-97928Y12849D01*
X-98150Y12827D01*
X-98386Y12820D01*
G37*
%LPC*%
G36*
X-98378Y13387D02*
X-98089Y13405D01*
X-97840Y13461D01*
X-97629Y13553D01*
X-97459Y13682D01*
X-97327Y13852D01*
X-97232Y14066D01*
X-97175Y14323D01*
X-97157Y14624D01*
X-97177Y14882D01*
X-97238Y15106D01*
X-97341Y15297D01*
X-97484Y15453D01*
X-97664Y15575D01*
X-97877Y15662D01*
X-98124Y15715D01*
X-98403Y15732D01*
X-98675Y15713D01*
X-98915Y15657D01*
X-99124Y15563D01*
X-99301Y15432D01*
X-99442Y15268D01*
X-99543Y15076D01*
X-99604Y14856D01*
X-99624Y14608D01*
X-99604Y14321D01*
X-99546Y14073D01*
X-99449Y13864D01*
X-99312Y13692D01*
X-99137Y13558D01*
X-98923Y13463D01*
X-98670Y13406D01*
X-98378Y13387D01*
G37*
G36*
X-98394Y16299D02*
X-98144Y16314D01*
X-97925Y16360D01*
X-97738Y16437D01*
X-97582Y16544D01*
X-97460Y16686D01*
X-97373Y16866D01*
X-97321Y17084D01*
X-97303Y17339D01*
X-97321Y17574D01*
X-97372Y17778D01*
X-97458Y17950D01*
X-97578Y18092D01*
X-97733Y18201D01*
X-97922Y18280D01*
X-98145Y18327D01*
X-98403Y18342D01*
X-98653Y18326D01*
X-98872Y18279D01*
X-99059Y18201D01*
X-99215Y18090D01*
X-99337Y17949D01*
X-99424Y17777D01*
X-99476Y17574D01*
X-99494Y17339D01*
X-99476Y17101D01*
X-99422Y16892D01*
X-99332Y16713D01*
X-99206Y16565D01*
X-99048Y16449D01*
X-98860Y16365D01*
X-98642Y16315D01*
X-98394Y16299D01*
G37*
%LPD*%
G36*
X-103646Y12820D02*
X-104078Y12843D01*
X-104480Y12913D01*
X-104851Y13029D01*
X-105192Y13191D01*
X-105499Y13397D01*
X-105767Y13643D01*
X-105997Y13928D01*
X-106187Y14253D01*
X-106337Y14614D01*
X-106443Y15007D01*
X-106508Y15431D01*
X-106529Y15887D01*
X-106517Y16231D01*
X-106481Y16556D01*
X-106422Y16862D01*
X-106338Y17148D01*
X-106231Y17416D01*
X-106099Y17664D01*
X-105944Y17893D01*
X-105765Y18103D01*
X-105565Y18291D01*
X-105347Y18454D01*
X-105110Y18591D01*
X-104855Y18704D01*
X-104581Y18792D01*
X-104289Y18854D01*
X-103979Y18892D01*
X-103650Y18905D01*
X-103198Y18881D01*
X-102784Y18812D01*
X-102409Y18697D01*
X-102073Y18535D01*
X-101777Y18328D01*
X-101523Y18077D01*
X-101311Y17781D01*
X-101141Y17440D01*
X-101901Y17188D01*
X-102019Y17431D01*
X-102169Y17644D01*
X-102349Y17826D01*
X-102561Y17977D01*
X-102800Y18096D01*
X-103059Y18182D01*
X-103340Y18233D01*
X-103642Y18250D01*
X-103881Y18240D01*
X-104106Y18210D01*
X-104317Y18161D01*
X-104515Y18092D01*
X-104699Y18003D01*
X-104869Y17895D01*
X-105026Y17766D01*
X-105169Y17618D01*
X-105297Y17453D01*
X-105408Y17273D01*
X-105502Y17079D01*
X-105579Y16870D01*
X-105638Y16646D01*
X-105681Y16408D01*
X-105706Y16155D01*
X-105715Y15887D01*
X-105706Y15622D01*
X-105679Y15371D01*
X-105635Y15132D01*
X-105573Y14907D01*
X-105493Y14695D01*
X-105395Y14497D01*
X-105280Y14312D01*
X-105146Y14140D01*
X-104998Y13985D01*
X-104837Y13851D01*
X-104664Y13737D01*
X-104478Y13644D01*
X-104279Y13572D01*
X-104068Y13520D01*
X-103845Y13489D01*
X-103608Y13479D01*
X-103308Y13498D01*
X-103026Y13556D01*
X-102764Y13652D01*
X-102521Y13786D01*
X-102297Y13959D01*
X-102092Y14170D01*
X-101907Y14420D01*
X-101741Y14708D01*
X-101087Y14381D01*
X-101288Y14022D01*
X-101526Y13709D01*
X-101801Y13441D01*
X-102113Y13219D01*
X-102456Y13044D01*
X-102826Y12920D01*
X-103223Y12845D01*
X-103431Y12826D01*
X-103646Y12820D01*
G37*
G36*
X-101080Y-41028D02*
X-101881Y-41028D01*
X-101881Y-35116D01*
X-99099Y-35116D01*
X-98856Y-35123D01*
X-98628Y-35144D01*
X-98414Y-35178D01*
X-98214Y-35227D01*
X-98029Y-35290D01*
X-97857Y-35367D01*
X-97700Y-35458D01*
X-97557Y-35563D01*
X-97430Y-35680D01*
X-97319Y-35808D01*
X-97226Y-35947D01*
X-97149Y-36097D01*
X-97090Y-36258D01*
X-97047Y-36430D01*
X-97022Y-36613D01*
X-97014Y-36807D01*
X-97038Y-37123D01*
X-97110Y-37413D01*
X-97229Y-37677D01*
X-97397Y-37914D01*
X-97608Y-38118D01*
X-97780Y-38231D01*
X-97854Y-38281D01*
X-98137Y-38401D01*
X-98457Y-38481D01*
X-97742Y-39565D01*
X-96779Y-41028D01*
X-97702Y-41028D01*
X-99237Y-38573D01*
X-101080Y-38573D01*
X-101080Y-41028D01*
G37*
%LPC*%
G36*
X-99145Y-37940D02*
X-98846Y-37921D01*
X-98583Y-37866D01*
X-98356Y-37773D01*
X-98165Y-37644D01*
X-98014Y-37481D01*
X-97906Y-37289D01*
X-97841Y-37067D01*
X-97819Y-36815D01*
X-97841Y-36572D01*
X-97907Y-36360D01*
X-98016Y-36179D01*
X-98170Y-36028D01*
X-98364Y-35910D01*
X-98597Y-35825D01*
X-98869Y-35775D01*
X-99179Y-35758D01*
X-101080Y-35758D01*
X-101080Y-37940D01*
X-99145Y-37940D01*
G37*
%LPD*%
G36*
X-92039Y-41028D02*
X-95744Y-41028D01*
X-95744Y-40386D01*
X-94238Y-40386D01*
X-94238Y-35837D01*
X-95572Y-36790D01*
X-95572Y-36077D01*
X-94175Y-35116D01*
X-93478Y-35116D01*
X-93478Y-40386D01*
X-92039Y-40386D01*
X-92039Y-41028D01*
G37*
G36*
X82292Y-90374D02*
X82045Y-90362D01*
X81814Y-90325D01*
X81598Y-90265D01*
X81399Y-90180D01*
X81215Y-90071D01*
X81048Y-89937D01*
X80896Y-89780D01*
X80760Y-89598D01*
X80640Y-89392D01*
X80536Y-89165D01*
X80448Y-88915D01*
X80376Y-88643D01*
X80320Y-88349D01*
X80280Y-88032D01*
X80256Y-87693D01*
X80248Y-87332D01*
X80256Y-86963D01*
X80279Y-86618D01*
X80318Y-86297D01*
X80373Y-85999D01*
X80442Y-85726D01*
X80528Y-85477D01*
X80629Y-85251D01*
X80745Y-85049D01*
X80879Y-84871D01*
X81030Y-84717D01*
X81200Y-84586D01*
X81387Y-84479D01*
X81592Y-84396D01*
X81816Y-84337D01*
X82057Y-84301D01*
X82317Y-84290D01*
X82570Y-84302D01*
X82805Y-84338D01*
X83024Y-84397D01*
X83225Y-84481D01*
X83409Y-84589D01*
X83576Y-84721D01*
X83726Y-84877D01*
X83859Y-85057D01*
X83976Y-85261D01*
X84077Y-85488D01*
X84162Y-85737D01*
X84232Y-86010D01*
X84286Y-86306D01*
X84325Y-86625D01*
X84348Y-86967D01*
X84356Y-87332D01*
X84348Y-87691D01*
X84324Y-88029D01*
X84283Y-88344D01*
X84226Y-88638D01*
X84152Y-88910D01*
X84062Y-89159D01*
X83956Y-89387D01*
X83834Y-89593D01*
X83695Y-89776D01*
X83542Y-89935D01*
X83372Y-90069D01*
X83187Y-90179D01*
X82987Y-90264D01*
X82770Y-90325D01*
X82539Y-90362D01*
X82292Y-90374D01*
G37*
%LPC*%
G36*
X82300Y-89757D02*
X82461Y-89748D01*
X82611Y-89720D01*
X82750Y-89673D01*
X82878Y-89608D01*
X82995Y-89524D01*
X83100Y-89422D01*
X83195Y-89301D01*
X83278Y-89161D01*
X83351Y-89002D01*
X83414Y-88823D01*
X83511Y-88406D01*
X83569Y-87909D01*
X83588Y-87332D01*
X83570Y-86736D01*
X83514Y-86228D01*
X83422Y-85809D01*
X83362Y-85632D01*
X83293Y-85477D01*
X83213Y-85342D01*
X83121Y-85226D01*
X83017Y-85127D01*
X82901Y-85046D01*
X82773Y-84983D01*
X82633Y-84938D01*
X82481Y-84911D01*
X82317Y-84902D01*
X82149Y-84911D01*
X81993Y-84938D01*
X81850Y-84982D01*
X81718Y-85044D01*
X81599Y-85123D01*
X81493Y-85221D01*
X81398Y-85336D01*
X81316Y-85469D01*
X81245Y-85622D01*
X81183Y-85798D01*
X81131Y-85996D01*
X81088Y-86218D01*
X81031Y-86729D01*
X81012Y-87332D01*
X81031Y-87919D01*
X81089Y-88422D01*
X81132Y-88641D01*
X81185Y-88840D01*
X81248Y-89017D01*
X81320Y-89174D01*
X81403Y-89311D01*
X81497Y-89429D01*
X81603Y-89529D01*
X81719Y-89611D01*
X81848Y-89675D01*
X81987Y-89721D01*
X82138Y-89748D01*
X82300Y-89757D01*
G37*
%LPD*%
G36*
X46106Y-90290D02*
X45305Y-90290D01*
X45305Y-84378D01*
X47793Y-84378D01*
X48035Y-84385D01*
X48262Y-84407D01*
X48476Y-84443D01*
X48676Y-84494D01*
X48861Y-84560D01*
X49032Y-84640D01*
X49190Y-84734D01*
X49333Y-84843D01*
X49461Y-84966D01*
X49572Y-85100D01*
X49666Y-85246D01*
X49742Y-85405D01*
X49802Y-85575D01*
X49845Y-85757D01*
X49870Y-85951D01*
X49879Y-86157D01*
X49870Y-86361D01*
X49845Y-86555D01*
X49802Y-86738D01*
X49742Y-86910D01*
X49665Y-87071D01*
X49571Y-87222D01*
X49460Y-87362D01*
X49331Y-87491D01*
X49188Y-87607D01*
X49033Y-87708D01*
X48865Y-87793D01*
X48685Y-87863D01*
X48493Y-87917D01*
X48289Y-87955D01*
X48072Y-87979D01*
X47844Y-87986D01*
X46106Y-87986D01*
X46106Y-90290D01*
G37*
%LPC*%
G36*
X47730Y-87353D02*
X48045Y-87334D01*
X48318Y-87278D01*
X48549Y-87186D01*
X48737Y-87056D01*
X48884Y-86889D01*
X48989Y-86685D01*
X49052Y-86444D01*
X49073Y-86165D01*
X49052Y-85897D01*
X48987Y-85664D01*
X48880Y-85467D01*
X48729Y-85306D01*
X48535Y-85181D01*
X48299Y-85091D01*
X48019Y-85038D01*
X47697Y-85020D01*
X46106Y-85020D01*
X46106Y-87353D01*
X47730Y-87353D01*
G37*
%LPD*%
G36*
X60211Y-90290D02*
X59254Y-90290D01*
X57513Y-84378D01*
X58348Y-84378D01*
X59409Y-88133D01*
X59591Y-88849D01*
X59758Y-89585D01*
X59991Y-88578D01*
X60348Y-87255D01*
X61155Y-84378D01*
X61923Y-84378D01*
X62951Y-88058D01*
X63161Y-88891D01*
X63320Y-89585D01*
X63358Y-89438D01*
X63543Y-88651D01*
X64722Y-84378D01*
X65557Y-84378D01*
X63815Y-90290D01*
X62859Y-90290D01*
X61835Y-86534D01*
X61711Y-86042D01*
X61541Y-85271D01*
X61356Y-86085D01*
X60211Y-90290D01*
G37*
G36*
X77624Y-90374D02*
X77381Y-90362D01*
X77154Y-90328D01*
X76941Y-90270D01*
X76743Y-90188D01*
X76559Y-90084D01*
X76390Y-89956D01*
X76236Y-89805D01*
X76096Y-89631D01*
X75972Y-89435D01*
X75865Y-89218D01*
X75774Y-88979D01*
X75700Y-88720D01*
X75642Y-88439D01*
X75601Y-88137D01*
X75576Y-87814D01*
X75568Y-87470D01*
X75576Y-87097D01*
X75602Y-86747D01*
X75645Y-86419D01*
X75705Y-86113D01*
X75782Y-85829D01*
X75877Y-85568D01*
X75989Y-85329D01*
X76117Y-85112D01*
X76262Y-84919D01*
X76421Y-84752D01*
X76595Y-84611D01*
X76783Y-84495D01*
X76986Y-84405D01*
X77204Y-84341D01*
X77436Y-84302D01*
X77683Y-84290D01*
X78002Y-84308D01*
X78290Y-84365D01*
X78547Y-84459D01*
X78774Y-84591D01*
X78969Y-84760D01*
X79133Y-84967D01*
X79267Y-85212D01*
X79369Y-85494D01*
X78648Y-85624D01*
X78584Y-85455D01*
X78503Y-85308D01*
X78406Y-85184D01*
X78293Y-85083D01*
X78163Y-85004D01*
X78017Y-84947D01*
X77854Y-84913D01*
X77674Y-84902D01*
X77517Y-84912D01*
X77369Y-84940D01*
X77230Y-84987D01*
X77101Y-85053D01*
X76980Y-85137D01*
X76869Y-85241D01*
X76767Y-85363D01*
X76673Y-85504D01*
X76590Y-85663D01*
X76518Y-85839D01*
X76457Y-86032D01*
X76407Y-86241D01*
X76369Y-86468D01*
X76341Y-86711D01*
X76319Y-87248D01*
X76432Y-87068D01*
X76566Y-86912D01*
X76722Y-86778D01*
X76898Y-86667D01*
X77091Y-86579D01*
X77299Y-86517D01*
X77519Y-86480D01*
X77754Y-86467D01*
X77953Y-86475D01*
X78142Y-86499D01*
X78320Y-86539D01*
X78488Y-86595D01*
X78645Y-86667D01*
X78791Y-86755D01*
X78927Y-86859D01*
X79053Y-86979D01*
X79165Y-87113D01*
X79263Y-87257D01*
X79345Y-87413D01*
X79413Y-87579D01*
X79465Y-87757D01*
X79503Y-87945D01*
X79526Y-88145D01*
X79533Y-88356D01*
X79525Y-88583D01*
X79501Y-88799D01*
X79462Y-89002D01*
X79406Y-89193D01*
X79335Y-89371D01*
X79247Y-89537D01*
X79144Y-89691D01*
X79025Y-89833D01*
X78892Y-89960D01*
X78747Y-90069D01*
X78590Y-90163D01*
X78421Y-90239D01*
X78240Y-90298D01*
X78047Y-90340D01*
X77841Y-90365D01*
X77624Y-90374D01*
G37*
%LPC*%
G36*
X77599Y-89766D02*
X77857Y-89743D01*
X78085Y-89674D01*
X78285Y-89559D01*
X78455Y-89398D01*
X78590Y-89198D01*
X78688Y-88962D01*
X78746Y-88693D01*
X78765Y-88389D01*
X78745Y-88087D01*
X78686Y-87821D01*
X78588Y-87591D01*
X78450Y-87399D01*
X78278Y-87246D01*
X78074Y-87138D01*
X77839Y-87072D01*
X77573Y-87051D01*
X77322Y-87070D01*
X77096Y-87128D01*
X76895Y-87224D01*
X76719Y-87359D01*
X76577Y-87528D01*
X76476Y-87726D01*
X76415Y-87953D01*
X76394Y-88209D01*
X76415Y-88535D01*
X76479Y-88831D01*
X76584Y-89095D01*
X76732Y-89329D01*
X76913Y-89520D01*
X77118Y-89656D01*
X77346Y-89738D01*
X77469Y-89759D01*
X77599Y-89766D01*
G37*
%LPD*%
G36*
X51737Y-90290D02*
X51024Y-90290D01*
X51024Y-84378D01*
X52077Y-84378D01*
X53651Y-88477D01*
X53812Y-89008D01*
X53915Y-89417D01*
X54055Y-88907D01*
X54200Y-88477D01*
X55744Y-84378D01*
X56772Y-84378D01*
X56772Y-90290D01*
X56051Y-90290D01*
X56051Y-86346D01*
X56060Y-85704D01*
X56088Y-85087D01*
X55893Y-85756D01*
X55719Y-86262D01*
X54192Y-90290D01*
X53630Y-90290D01*
X52081Y-86262D01*
X51846Y-85548D01*
X51708Y-85087D01*
X51720Y-85553D01*
X51737Y-86346D01*
X51737Y-90290D01*
G37*
G36*
X67996Y-90374D02*
X67777Y-90368D01*
X67570Y-90349D01*
X67374Y-90317D01*
X67189Y-90273D01*
X67015Y-90216D01*
X66853Y-90146D01*
X66702Y-90064D01*
X66563Y-89969D01*
X66436Y-89862D01*
X66323Y-89742D01*
X66223Y-89611D01*
X66137Y-89467D01*
X66064Y-89311D01*
X66005Y-89143D01*
X65959Y-88963D01*
X65927Y-88771D01*
X66708Y-88700D01*
X66761Y-88946D01*
X66845Y-89159D01*
X66960Y-89339D01*
X67105Y-89486D01*
X67282Y-89601D01*
X67489Y-89683D01*
X67727Y-89732D01*
X67996Y-89749D01*
X68266Y-89731D01*
X68505Y-89678D01*
X68714Y-89591D01*
X68892Y-89468D01*
X69034Y-89310D01*
X69136Y-89118D01*
X69197Y-88892D01*
X69217Y-88633D01*
X69194Y-88405D01*
X69124Y-88203D01*
X69008Y-88028D01*
X68846Y-87879D01*
X68639Y-87761D01*
X68392Y-87676D01*
X68103Y-87626D01*
X67774Y-87609D01*
X67346Y-87609D01*
X67346Y-86954D01*
X67757Y-86954D01*
X68050Y-86937D01*
X68308Y-86886D01*
X68531Y-86802D01*
X68720Y-86683D01*
X68869Y-86535D01*
X68976Y-86361D01*
X69040Y-86161D01*
X69062Y-85934D01*
X69044Y-85710D01*
X68992Y-85510D01*
X68905Y-85335D01*
X68783Y-85185D01*
X68626Y-85065D01*
X68436Y-84979D01*
X68212Y-84928D01*
X67954Y-84911D01*
X67716Y-84927D01*
X67502Y-84975D01*
X67312Y-85055D01*
X67146Y-85167D01*
X67008Y-85308D01*
X66902Y-85475D01*
X66829Y-85668D01*
X66788Y-85888D01*
X66028Y-85830D01*
X66056Y-85653D01*
X66097Y-85486D01*
X66152Y-85330D01*
X66221Y-85183D01*
X66303Y-85047D01*
X66398Y-84920D01*
X66507Y-84803D01*
X66630Y-84697D01*
X66908Y-84518D01*
X67060Y-84449D01*
X67222Y-84391D01*
X67394Y-84347D01*
X67574Y-84315D01*
X67764Y-84296D01*
X67962Y-84290D01*
X68179Y-84296D01*
X68382Y-84315D01*
X68574Y-84348D01*
X68753Y-84393D01*
X68920Y-84451D01*
X69074Y-84522D01*
X69216Y-84606D01*
X69345Y-84703D01*
X69461Y-84811D01*
X69561Y-84930D01*
X69646Y-85059D01*
X69715Y-85197D01*
X69769Y-85347D01*
X69807Y-85506D01*
X69830Y-85675D01*
X69838Y-85855D01*
X69818Y-86125D01*
X69759Y-86368D01*
X69660Y-86585D01*
X69521Y-86776D01*
X69345Y-86939D01*
X69133Y-87073D01*
X68884Y-87179D01*
X68600Y-87256D01*
X68600Y-87273D01*
X68913Y-87328D01*
X69190Y-87420D01*
X69430Y-87550D01*
X69633Y-87718D01*
X69794Y-87917D01*
X69909Y-88139D01*
X69979Y-88387D01*
X70002Y-88658D01*
X69994Y-88857D01*
X69969Y-89044D01*
X69929Y-89219D01*
X69872Y-89384D01*
X69799Y-89536D01*
X69709Y-89677D01*
X69603Y-89807D01*
X69481Y-89925D01*
X69344Y-90030D01*
X69193Y-90121D01*
X69029Y-90199D01*
X68850Y-90262D01*
X68657Y-90311D01*
X68451Y-90346D01*
X68230Y-90367D01*
X67996Y-90374D01*
G37*
G36*
X72746Y-90374D02*
X72527Y-90368D01*
X72320Y-90349D01*
X72124Y-90317D01*
X71939Y-90273D01*
X71765Y-90216D01*
X71603Y-90146D01*
X71452Y-90064D01*
X71313Y-89969D01*
X71186Y-89862D01*
X71073Y-89742D01*
X70973Y-89611D01*
X70887Y-89467D01*
X70814Y-89311D01*
X70755Y-89143D01*
X70709Y-88963D01*
X70677Y-88771D01*
X71458Y-88700D01*
X71511Y-88946D01*
X71595Y-89159D01*
X71710Y-89339D01*
X71855Y-89486D01*
X72032Y-89601D01*
X72239Y-89683D01*
X72477Y-89732D01*
X72746Y-89749D01*
X73016Y-89731D01*
X73255Y-89678D01*
X73464Y-89591D01*
X73642Y-89468D01*
X73784Y-89310D01*
X73886Y-89118D01*
X73947Y-88892D01*
X73967Y-88633D01*
X73944Y-88405D01*
X73874Y-88203D01*
X73758Y-88028D01*
X73596Y-87879D01*
X73389Y-87761D01*
X73142Y-87676D01*
X72853Y-87626D01*
X72524Y-87609D01*
X72096Y-87609D01*
X72096Y-86954D01*
X72507Y-86954D01*
X72800Y-86937D01*
X73058Y-86886D01*
X73281Y-86802D01*
X73470Y-86683D01*
X73619Y-86535D01*
X73726Y-86361D01*
X73790Y-86161D01*
X73812Y-85934D01*
X73794Y-85710D01*
X73742Y-85510D01*
X73655Y-85335D01*
X73533Y-85185D01*
X73376Y-85065D01*
X73186Y-84979D01*
X72962Y-84928D01*
X72704Y-84911D01*
X72466Y-84927D01*
X72252Y-84975D01*
X72062Y-85055D01*
X71896Y-85167D01*
X71758Y-85308D01*
X71652Y-85475D01*
X71579Y-85668D01*
X71538Y-85888D01*
X70778Y-85830D01*
X70806Y-85653D01*
X70847Y-85486D01*
X70902Y-85330D01*
X70971Y-85183D01*
X71053Y-85047D01*
X71148Y-84920D01*
X71257Y-84803D01*
X71380Y-84697D01*
X71658Y-84518D01*
X71810Y-84449D01*
X71972Y-84391D01*
X72144Y-84347D01*
X72324Y-84315D01*
X72514Y-84296D01*
X72712Y-84290D01*
X72929Y-84296D01*
X73132Y-84315D01*
X73324Y-84348D01*
X73503Y-84393D01*
X73670Y-84451D01*
X73824Y-84522D01*
X73966Y-84606D01*
X74095Y-84703D01*
X74211Y-84811D01*
X74311Y-84930D01*
X74396Y-85059D01*
X74465Y-85197D01*
X74519Y-85347D01*
X74557Y-85506D01*
X74580Y-85675D01*
X74588Y-85855D01*
X74568Y-86125D01*
X74509Y-86368D01*
X74410Y-86585D01*
X74271Y-86776D01*
X74095Y-86939D01*
X73883Y-87073D01*
X73634Y-87179D01*
X73350Y-87256D01*
X73350Y-87273D01*
X73663Y-87328D01*
X73940Y-87420D01*
X74180Y-87550D01*
X74383Y-87718D01*
X74544Y-87917D01*
X74659Y-88139D01*
X74729Y-88387D01*
X74752Y-88658D01*
X74744Y-88857D01*
X74719Y-89044D01*
X74679Y-89219D01*
X74622Y-89384D01*
X74549Y-89536D01*
X74459Y-89677D01*
X74353Y-89807D01*
X74231Y-89925D01*
X74094Y-90030D01*
X73943Y-90121D01*
X73779Y-90199D01*
X73600Y-90262D01*
X73407Y-90311D01*
X73201Y-90346D01*
X72980Y-90367D01*
X72746Y-90374D01*
G37*
G36*
X-69039Y-79304D02*
X-70352Y-77044D01*
X-71719Y-79287D01*
X-72761Y-78656D01*
X-71106Y-76484D01*
X-73558Y-75845D01*
X-73164Y-74671D01*
X-70825Y-75608D01*
X-70930Y-73007D01*
X-69739Y-73007D01*
X-69853Y-75591D01*
X-67541Y-74688D01*
X-67147Y-75845D01*
X-69617Y-76484D01*
X-67996Y-78674D01*
X-69039Y-79304D01*
G37*
G36*
X87626Y27948D02*
X86825Y27948D01*
X86825Y33860D01*
X89607Y33860D01*
X89850Y33853D01*
X90078Y33832D01*
X90292Y33798D01*
X90492Y33749D01*
X90678Y33686D01*
X90849Y33609D01*
X91006Y33518D01*
X91149Y33414D01*
X91276Y33296D01*
X91387Y33168D01*
X91480Y33029D01*
X91557Y32879D01*
X91616Y32718D01*
X91659Y32546D01*
X91684Y32363D01*
X91693Y32169D01*
X91669Y31853D01*
X91597Y31563D01*
X91477Y31299D01*
X91309Y31062D01*
X91098Y30858D01*
X90926Y30745D01*
X90852Y30695D01*
X90569Y30575D01*
X90249Y30495D01*
X90964Y29411D01*
X91927Y27948D01*
X91004Y27948D01*
X89469Y30403D01*
X87626Y30403D01*
X87626Y27948D01*
G37*
%LPC*%
G36*
X89561Y31036D02*
X89860Y31055D01*
X90123Y31110D01*
X90350Y31203D01*
X90541Y31332D01*
X90692Y31495D01*
X90800Y31687D01*
X90865Y31909D01*
X90887Y32161D01*
X90865Y32404D01*
X90799Y32616D01*
X90690Y32797D01*
X90536Y32948D01*
X90342Y33066D01*
X90109Y33151D01*
X89837Y33201D01*
X89527Y33218D01*
X87626Y33218D01*
X87626Y31036D01*
X89561Y31036D01*
G37*
%LPD*%
G36*
X96655Y27948D02*
X92740Y27948D01*
X92740Y28481D01*
X92853Y28719D01*
X92977Y28943D01*
X93114Y29152D01*
X93262Y29347D01*
X93578Y29705D01*
X93910Y30027D01*
X94584Y30592D01*
X94901Y30852D01*
X95186Y31112D01*
X95429Y31378D01*
X95620Y31657D01*
X95693Y31805D01*
X95745Y31962D01*
X95776Y32128D01*
X95786Y32304D01*
X95768Y32533D01*
X95715Y32736D01*
X95626Y32911D01*
X95501Y33059D01*
X95344Y33176D01*
X95160Y33260D01*
X94948Y33311D01*
X94708Y33327D01*
X94477Y33311D01*
X94268Y33262D01*
X94079Y33180D01*
X93913Y33065D01*
X93772Y32921D01*
X93664Y32750D01*
X93589Y32553D01*
X93545Y32329D01*
X92773Y32400D01*
X92801Y32573D01*
X92842Y32737D01*
X92897Y32891D01*
X92966Y33037D01*
X93048Y33173D01*
X93143Y33301D01*
X93375Y33529D01*
X93653Y33712D01*
X93806Y33785D01*
X93968Y33844D01*
X94139Y33890D01*
X94319Y33922D01*
X94509Y33942D01*
X94708Y33949D01*
X94925Y33942D01*
X95129Y33922D01*
X95320Y33889D01*
X95498Y33843D01*
X95663Y33784D01*
X95816Y33711D01*
X95955Y33626D01*
X96082Y33527D01*
X96195Y33416D01*
X96292Y33294D01*
X96375Y33161D01*
X96442Y33016D01*
X96495Y32861D01*
X96532Y32695D01*
X96555Y32517D01*
X96562Y32329D01*
X96553Y32157D01*
X96523Y31986D01*
X96474Y31815D01*
X96405Y31645D01*
X96317Y31475D01*
X96209Y31305D01*
X95937Y30965D01*
X95485Y30532D01*
X94750Y29912D01*
X94316Y29537D01*
X93982Y29201D01*
X93736Y28890D01*
X93643Y28738D01*
X93571Y28590D01*
X96655Y28590D01*
X96655Y27948D01*
G37*
G36*
X-82088Y-151770D02*
X-82889Y-151770D01*
X-82889Y-145858D01*
X-80107Y-145858D01*
X-79864Y-145865D01*
X-79636Y-145886D01*
X-79422Y-145920D01*
X-79222Y-145969D01*
X-79037Y-146032D01*
X-78865Y-146109D01*
X-78708Y-146200D01*
X-78565Y-146305D01*
X-78438Y-146422D01*
X-78327Y-146550D01*
X-78234Y-146689D01*
X-78157Y-146839D01*
X-78098Y-147000D01*
X-78055Y-147172D01*
X-78030Y-147355D01*
X-78022Y-147549D01*
X-78046Y-147865D01*
X-78118Y-148155D01*
X-78237Y-148419D01*
X-78405Y-148656D01*
X-78616Y-148860D01*
X-78788Y-148973D01*
X-78862Y-149023D01*
X-79145Y-149143D01*
X-79465Y-149223D01*
X-78750Y-150307D01*
X-77787Y-151770D01*
X-78710Y-151770D01*
X-80245Y-149315D01*
X-82088Y-149315D01*
X-82088Y-151770D01*
G37*
%LPC*%
G36*
X-80153Y-148682D02*
X-79854Y-148663D01*
X-79591Y-148608D01*
X-79364Y-148515D01*
X-79173Y-148386D01*
X-79022Y-148223D01*
X-78914Y-148031D01*
X-78849Y-147809D01*
X-78827Y-147557D01*
X-78849Y-147314D01*
X-78915Y-147102D01*
X-79024Y-146921D01*
X-79178Y-146770D01*
X-79372Y-146652D01*
X-79605Y-146567D01*
X-79877Y-146517D01*
X-80187Y-146500D01*
X-82088Y-146500D01*
X-82088Y-148682D01*
X-80153Y-148682D01*
G37*
%LPD*%
G36*
X-75011Y-151854D02*
X-75229Y-151848D01*
X-75437Y-151829D01*
X-75633Y-151797D01*
X-75818Y-151753D01*
X-75991Y-151696D01*
X-76153Y-151626D01*
X-76304Y-151544D01*
X-76444Y-151449D01*
X-76570Y-151342D01*
X-76684Y-151222D01*
X-76784Y-151091D01*
X-76870Y-150947D01*
X-76943Y-150791D01*
X-77002Y-150623D01*
X-77047Y-150443D01*
X-77079Y-150251D01*
X-76299Y-150180D01*
X-76246Y-150426D01*
X-76162Y-150639D01*
X-76047Y-150819D01*
X-75901Y-150966D01*
X-75725Y-151081D01*
X-75517Y-151163D01*
X-75279Y-151212D01*
X-75011Y-151229D01*
X-74741Y-151211D01*
X-74501Y-151158D01*
X-74293Y-151071D01*
X-74115Y-150948D01*
X-73972Y-150790D01*
X-73871Y-150598D01*
X-73810Y-150372D01*
X-73789Y-150113D01*
X-73813Y-149885D01*
X-73882Y-149683D01*
X-73998Y-149508D01*
X-74161Y-149359D01*
X-74367Y-149241D01*
X-74615Y-149156D01*
X-74903Y-149106D01*
X-75233Y-149089D01*
X-75661Y-149089D01*
X-75661Y-148434D01*
X-75250Y-148434D01*
X-74957Y-148417D01*
X-74698Y-148366D01*
X-74475Y-148282D01*
X-74287Y-148163D01*
X-74137Y-148015D01*
X-74030Y-147841D01*
X-73966Y-147641D01*
X-73945Y-147414D01*
X-73962Y-147190D01*
X-74014Y-146990D01*
X-74102Y-146815D01*
X-74224Y-146665D01*
X-74380Y-146545D01*
X-74570Y-146459D01*
X-74795Y-146408D01*
X-75052Y-146391D01*
X-75290Y-146407D01*
X-75504Y-146455D01*
X-75694Y-146535D01*
X-75860Y-146647D01*
X-75998Y-146788D01*
X-76104Y-146955D01*
X-76178Y-147148D01*
X-76219Y-147368D01*
X-76979Y-147310D01*
X-76951Y-147133D01*
X-76909Y-146966D01*
X-76855Y-146810D01*
X-76786Y-146663D01*
X-76704Y-146527D01*
X-76608Y-146400D01*
X-76499Y-146283D01*
X-76376Y-146177D01*
X-76099Y-145998D01*
X-75946Y-145929D01*
X-75784Y-145871D01*
X-75613Y-145827D01*
X-75433Y-145795D01*
X-75243Y-145776D01*
X-75044Y-145770D01*
X-74828Y-145776D01*
X-74624Y-145795D01*
X-74433Y-145828D01*
X-74254Y-145873D01*
X-74087Y-145931D01*
X-73933Y-146002D01*
X-73791Y-146086D01*
X-73661Y-146183D01*
X-73546Y-146291D01*
X-73446Y-146410D01*
X-73361Y-146539D01*
X-73292Y-146677D01*
X-73238Y-146827D01*
X-73199Y-146986D01*
X-73176Y-147155D01*
X-73168Y-147335D01*
X-73188Y-147605D01*
X-73248Y-147848D01*
X-73347Y-148065D01*
X-73485Y-148256D01*
X-73662Y-148419D01*
X-73874Y-148553D01*
X-74122Y-148659D01*
X-74406Y-148736D01*
X-74406Y-148753D01*
X-74093Y-148808D01*
X-73817Y-148900D01*
X-73577Y-149030D01*
X-73374Y-149198D01*
X-73212Y-149397D01*
X-73097Y-149619D01*
X-73028Y-149867D01*
X-73005Y-150138D01*
X-73013Y-150337D01*
X-73037Y-150524D01*
X-73078Y-150699D01*
X-73135Y-150864D01*
X-73208Y-151016D01*
X-73297Y-151157D01*
X-73403Y-151287D01*
X-73525Y-151405D01*
X-73662Y-151510D01*
X-73813Y-151601D01*
X-73978Y-151679D01*
X-74157Y-151742D01*
X-74349Y-151791D01*
X-74556Y-151826D01*
X-74776Y-151847D01*
X-75011Y-151854D01*
G37*
G36*
X114240Y5046D02*
X113911Y5064D01*
X113616Y5119D01*
X113356Y5210D01*
X113130Y5338D01*
X112936Y5506D01*
X112772Y5719D01*
X112637Y5977D01*
X112532Y6280D01*
X113254Y6393D01*
X113319Y6220D01*
X113401Y6070D01*
X113500Y5943D01*
X113617Y5839D01*
X113750Y5758D01*
X113900Y5701D01*
X114068Y5666D01*
X114252Y5655D01*
X114410Y5664D01*
X114559Y5692D01*
X114699Y5739D01*
X114829Y5806D01*
X114951Y5891D01*
X115063Y5994D01*
X115166Y6117D01*
X115260Y6259D01*
X115343Y6418D01*
X115417Y6593D01*
X115479Y6785D01*
X115531Y6992D01*
X115603Y7455D01*
X115633Y7983D01*
X115534Y7804D01*
X115405Y7643D01*
X115247Y7501D01*
X115058Y7377D01*
X114850Y7277D01*
X114631Y7206D01*
X114403Y7163D01*
X114164Y7148D01*
X113970Y7157D01*
X113786Y7182D01*
X113611Y7225D01*
X113447Y7285D01*
X113292Y7361D01*
X113148Y7455D01*
X113013Y7566D01*
X112889Y7694D01*
X112777Y7836D01*
X112679Y7989D01*
X112597Y8153D01*
X112530Y8329D01*
X112478Y8515D01*
X112440Y8713D01*
X112418Y8922D01*
X112410Y9142D01*
X112418Y9367D01*
X112443Y9580D01*
X112484Y9781D01*
X112540Y9970D01*
X112614Y10146D01*
X112703Y10310D01*
X112809Y10461D01*
X112931Y10600D01*
X113067Y10724D01*
X113216Y10832D01*
X113378Y10923D01*
X113553Y10998D01*
X113740Y11056D01*
X113940Y11097D01*
X114153Y11122D01*
X114378Y11131D01*
X114617Y11119D01*
X114841Y11085D01*
X115051Y11028D01*
X115245Y10948D01*
X115424Y10845D01*
X115588Y10720D01*
X115738Y10572D01*
X115872Y10400D01*
X115991Y10206D01*
X116094Y9989D01*
X116182Y9750D01*
X116253Y9487D01*
X116309Y9201D01*
X116348Y8892D01*
X116372Y8560D01*
X116380Y8206D01*
X116371Y7836D01*
X116345Y7488D01*
X116302Y7163D01*
X116241Y6859D01*
X116163Y6577D01*
X116067Y6318D01*
X115954Y6080D01*
X115824Y5864D01*
X115678Y5673D01*
X115516Y5506D01*
X115341Y5366D01*
X115150Y5251D01*
X114945Y5161D01*
X114724Y5097D01*
X114489Y5059D01*
X114240Y5046D01*
G37*
%LPC*%
G36*
X114345Y7744D02*
X114506Y7754D01*
X114661Y7781D01*
X114810Y7828D01*
X114953Y7893D01*
X115086Y7975D01*
X115204Y8073D01*
X115308Y8186D01*
X115396Y8315D01*
X115467Y8456D01*
X115517Y8607D01*
X115547Y8767D01*
X115557Y8936D01*
X115537Y9275D01*
X115476Y9580D01*
X115373Y9849D01*
X115230Y10084D01*
X115053Y10274D01*
X114847Y10409D01*
X114734Y10457D01*
X114614Y10491D01*
X114487Y10511D01*
X114353Y10518D01*
X114095Y10495D01*
X113865Y10425D01*
X113665Y10309D01*
X113493Y10147D01*
X113355Y9944D01*
X113257Y9710D01*
X113198Y9442D01*
X113178Y9142D01*
X113198Y8835D01*
X113257Y8563D01*
X113355Y8324D01*
X113493Y8120D01*
X113664Y7955D01*
X113863Y7838D01*
X114090Y7768D01*
X114345Y7744D01*
G37*
%LPD*%
G36*
X109139Y5046D02*
X108707Y5069D01*
X108306Y5139D01*
X107934Y5255D01*
X107593Y5417D01*
X107286Y5623D01*
X107018Y5869D01*
X106789Y6154D01*
X106598Y6479D01*
X106449Y6840D01*
X106342Y7233D01*
X106278Y7657D01*
X106256Y8113D01*
X106268Y8457D01*
X106304Y8782D01*
X106364Y9088D01*
X106447Y9374D01*
X106555Y9642D01*
X106686Y9890D01*
X106841Y10119D01*
X107020Y10329D01*
X107220Y10517D01*
X107439Y10680D01*
X107675Y10817D01*
X107931Y10930D01*
X108204Y11018D01*
X108496Y11080D01*
X108806Y11118D01*
X109135Y11131D01*
X109588Y11107D01*
X110001Y11038D01*
X110377Y10923D01*
X110713Y10761D01*
X111009Y10554D01*
X111262Y10303D01*
X111474Y10007D01*
X111644Y9666D01*
X110885Y9414D01*
X110766Y9657D01*
X110617Y9870D01*
X110436Y10052D01*
X110224Y10203D01*
X109986Y10322D01*
X109726Y10408D01*
X109445Y10459D01*
X109143Y10476D01*
X108905Y10466D01*
X108680Y10436D01*
X108468Y10387D01*
X108271Y10318D01*
X108086Y10229D01*
X107916Y10121D01*
X107759Y9992D01*
X107616Y9844D01*
X107488Y9679D01*
X107377Y9499D01*
X107284Y9305D01*
X107207Y9096D01*
X107147Y8872D01*
X107105Y8634D01*
X107079Y8381D01*
X107070Y8113D01*
X107079Y7848D01*
X107106Y7597D01*
X107150Y7358D01*
X107213Y7133D01*
X107293Y6921D01*
X107390Y6723D01*
X107506Y6538D01*
X107639Y6366D01*
X107787Y6211D01*
X107948Y6077D01*
X108122Y5963D01*
X108308Y5870D01*
X108506Y5798D01*
X108717Y5746D01*
X108941Y5715D01*
X109177Y5705D01*
X109478Y5724D01*
X109759Y5782D01*
X110022Y5878D01*
X110265Y6012D01*
X110489Y6185D01*
X110693Y6396D01*
X110878Y6646D01*
X111044Y6934D01*
X111699Y6607D01*
X111498Y6248D01*
X111260Y5935D01*
X110985Y5667D01*
X110673Y5445D01*
X110329Y5270D01*
X109959Y5146D01*
X109562Y5071D01*
X109354Y5052D01*
X109139Y5046D01*
G37*
G36*
X118144Y16588D02*
X117897Y16600D01*
X117666Y16637D01*
X117451Y16697D01*
X117251Y16782D01*
X117068Y16891D01*
X116900Y17025D01*
X116748Y17182D01*
X116612Y17364D01*
X116492Y17570D01*
X116388Y17797D01*
X116300Y18047D01*
X116228Y18319D01*
X116172Y18613D01*
X116132Y18930D01*
X116108Y19269D01*
X116100Y19630D01*
X116108Y19999D01*
X116132Y20344D01*
X116170Y20665D01*
X116225Y20963D01*
X116295Y21236D01*
X116380Y21486D01*
X116481Y21711D01*
X116598Y21913D01*
X116731Y22091D01*
X116882Y22245D01*
X117052Y22376D01*
X117239Y22483D01*
X117445Y22566D01*
X117668Y22625D01*
X117910Y22661D01*
X118169Y22673D01*
X118422Y22661D01*
X118657Y22625D01*
X118876Y22565D01*
X119077Y22481D01*
X119261Y22373D01*
X119428Y22241D01*
X119578Y22085D01*
X119711Y21905D01*
X119828Y21701D01*
X119929Y21475D01*
X120014Y21225D01*
X120084Y20952D01*
X120139Y20656D01*
X120177Y20337D01*
X120201Y19995D01*
X120208Y19630D01*
X120200Y19271D01*
X120176Y18933D01*
X120135Y18618D01*
X120078Y18324D01*
X120004Y18052D01*
X119915Y17803D01*
X119809Y17575D01*
X119686Y17369D01*
X119548Y17186D01*
X119394Y17027D01*
X119224Y16893D01*
X119039Y16783D01*
X118839Y16698D01*
X118623Y16637D01*
X118391Y16600D01*
X118144Y16588D01*
G37*
%LPC*%
G36*
X118152Y17205D02*
X118314Y17214D01*
X118464Y17242D01*
X118603Y17289D01*
X118730Y17354D01*
X118847Y17438D01*
X118953Y17540D01*
X119047Y17661D01*
X119130Y17801D01*
X119203Y17960D01*
X119266Y18139D01*
X119363Y18556D01*
X119421Y19053D01*
X119441Y19630D01*
X119422Y20226D01*
X119367Y20734D01*
X119274Y21154D01*
X119214Y21330D01*
X119145Y21485D01*
X119065Y21620D01*
X118973Y21737D01*
X118869Y21835D01*
X118753Y21916D01*
X118625Y21979D01*
X118485Y22024D01*
X118333Y22051D01*
X118169Y22060D01*
X118001Y22051D01*
X117845Y22024D01*
X117702Y21980D01*
X117571Y21918D01*
X117452Y21839D01*
X117345Y21741D01*
X117251Y21626D01*
X117168Y21493D01*
X117097Y21340D01*
X117035Y21165D01*
X116983Y20966D01*
X116940Y20744D01*
X116883Y20233D01*
X116864Y19630D01*
X116883Y19043D01*
X116941Y18540D01*
X116985Y18321D01*
X117038Y18122D01*
X117100Y17945D01*
X117173Y17788D01*
X117255Y17651D01*
X117349Y17533D01*
X117455Y17433D01*
X117572Y17351D01*
X117700Y17287D01*
X117839Y17241D01*
X117990Y17214D01*
X118152Y17205D01*
G37*
%LPD*%
G36*
X108115Y16588D02*
X107683Y16611D01*
X107282Y16681D01*
X106910Y16797D01*
X106569Y16959D01*
X106262Y17165D01*
X105994Y17411D01*
X105765Y17696D01*
X105574Y18021D01*
X105425Y18382D01*
X105318Y18775D01*
X105254Y19199D01*
X105232Y19655D01*
X105244Y19999D01*
X105280Y20324D01*
X105340Y20630D01*
X105423Y20916D01*
X105531Y21184D01*
X105662Y21432D01*
X105817Y21661D01*
X105996Y21871D01*
X106196Y22059D01*
X106415Y22222D01*
X106651Y22359D01*
X106907Y22472D01*
X107180Y22560D01*
X107472Y22622D01*
X107782Y22660D01*
X108111Y22673D01*
X108564Y22649D01*
X108977Y22580D01*
X109353Y22465D01*
X109689Y22303D01*
X109985Y22096D01*
X110238Y21845D01*
X110450Y21549D01*
X110620Y21208D01*
X109861Y20956D01*
X109742Y21199D01*
X109593Y21412D01*
X109412Y21594D01*
X109200Y21745D01*
X108962Y21864D01*
X108702Y21950D01*
X108421Y22001D01*
X108119Y22018D01*
X107881Y22008D01*
X107656Y21978D01*
X107444Y21929D01*
X107247Y21860D01*
X107062Y21771D01*
X106892Y21663D01*
X106735Y21534D01*
X106592Y21386D01*
X106464Y21221D01*
X106353Y21041D01*
X106260Y20847D01*
X106183Y20638D01*
X106123Y20414D01*
X106081Y20176D01*
X106055Y19923D01*
X106046Y19655D01*
X106055Y19390D01*
X106082Y19139D01*
X106126Y18900D01*
X106189Y18675D01*
X106269Y18463D01*
X106366Y18265D01*
X106482Y18080D01*
X106615Y17908D01*
X106763Y17753D01*
X106924Y17619D01*
X107098Y17505D01*
X107284Y17412D01*
X107482Y17340D01*
X107693Y17288D01*
X107917Y17257D01*
X108153Y17247D01*
X108454Y17266D01*
X108735Y17324D01*
X108998Y17420D01*
X109241Y17554D01*
X109465Y17727D01*
X109669Y17938D01*
X109854Y18188D01*
X110020Y18476D01*
X110675Y18149D01*
X110474Y17790D01*
X110236Y17477D01*
X109961Y17209D01*
X109649Y16987D01*
X109305Y16812D01*
X108935Y16688D01*
X108538Y16613D01*
X108330Y16594D01*
X108115Y16588D01*
G37*
G36*
X115343Y16672D02*
X111638Y16672D01*
X111638Y17314D01*
X113145Y17314D01*
X113145Y21863D01*
X111810Y20910D01*
X111810Y21623D01*
X113207Y22584D01*
X113904Y22584D01*
X113904Y17314D01*
X115343Y17314D01*
X115343Y16672D01*
G37*
G36*
X64178Y-17827D02*
X63376Y-17827D01*
X63376Y-11915D01*
X66158Y-11915D01*
X66401Y-11922D01*
X66629Y-11943D01*
X66843Y-11978D01*
X67043Y-12027D01*
X67229Y-12089D01*
X67400Y-12166D01*
X67557Y-12257D01*
X67700Y-12362D01*
X67828Y-12479D01*
X67938Y-12607D01*
X68032Y-12746D01*
X68108Y-12896D01*
X68167Y-13057D01*
X68210Y-13229D01*
X68235Y-13412D01*
X68244Y-13606D01*
X68220Y-13922D01*
X68148Y-14212D01*
X68028Y-14476D01*
X67860Y-14714D01*
X67650Y-14917D01*
X67478Y-15031D01*
X67403Y-15080D01*
X67120Y-15201D01*
X66800Y-15280D01*
X67515Y-16364D01*
X68479Y-17827D01*
X67556Y-17827D01*
X66020Y-15372D01*
X64178Y-15372D01*
X64178Y-17827D01*
G37*
%LPC*%
G36*
X66112Y-14739D02*
X66411Y-14720D01*
X66674Y-14665D01*
X66901Y-14572D01*
X67092Y-14443D01*
X67243Y-14280D01*
X67352Y-14088D01*
X67417Y-13866D01*
X67438Y-13614D01*
X67416Y-13372D01*
X67351Y-13160D01*
X67241Y-12978D01*
X67088Y-12827D01*
X66893Y-12709D01*
X66660Y-12624D01*
X66389Y-12574D01*
X66079Y-12557D01*
X64178Y-12557D01*
X64178Y-14739D01*
X66112Y-14739D01*
G37*
%LPD*%
G36*
X72556Y-17827D02*
X71842Y-17827D01*
X71842Y-16489D01*
X69056Y-16489D01*
X69056Y-15901D01*
X71763Y-11915D01*
X72556Y-11915D01*
X72556Y-15893D01*
X73386Y-15893D01*
X73386Y-16489D01*
X72556Y-16489D01*
X72556Y-17827D01*
G37*
%LPC*%
G36*
X71842Y-15893D02*
X71842Y-12767D01*
X71725Y-12989D01*
X71561Y-13266D01*
X70046Y-15498D01*
X69820Y-15809D01*
X69753Y-15893D01*
X71842Y-15893D01*
G37*
%LPD*%
G36*
X51320Y-158466D02*
X49638Y-158466D01*
X49638Y-146061D01*
X54859Y-146061D01*
X55366Y-146076D01*
X55844Y-146122D01*
X56292Y-146198D01*
X56711Y-146305D01*
X57100Y-146442D01*
X57459Y-146610D01*
X57790Y-146809D01*
X58091Y-147038D01*
X58359Y-147295D01*
X58591Y-147577D01*
X58788Y-147883D01*
X58949Y-148215D01*
X59074Y-148572D01*
X59164Y-148954D01*
X59217Y-149361D01*
X59235Y-149794D01*
X59217Y-150223D01*
X59163Y-150629D01*
X59074Y-151013D01*
X58948Y-151374D01*
X58786Y-151713D01*
X58589Y-152029D01*
X58355Y-152322D01*
X58086Y-152593D01*
X57786Y-152837D01*
X57460Y-153048D01*
X57109Y-153226D01*
X56731Y-153373D01*
X56328Y-153486D01*
X55900Y-153567D01*
X55445Y-153616D01*
X54965Y-153632D01*
X51320Y-153632D01*
X51320Y-158466D01*
G37*
%LPC*%
G36*
X54727Y-152303D02*
X55069Y-152293D01*
X55388Y-152264D01*
X55685Y-152215D01*
X55960Y-152147D01*
X56213Y-152059D01*
X56444Y-151952D01*
X56653Y-151826D01*
X56840Y-151680D01*
X57005Y-151514D01*
X57149Y-151330D01*
X57270Y-151125D01*
X57369Y-150901D01*
X57446Y-150658D01*
X57501Y-150395D01*
X57534Y-150113D01*
X57545Y-149811D01*
X57533Y-149520D01*
X57500Y-149248D01*
X57443Y-148994D01*
X57364Y-148760D01*
X57263Y-148544D01*
X57139Y-148347D01*
X56992Y-148168D01*
X56823Y-148009D01*
X56631Y-147868D01*
X56417Y-147746D01*
X56180Y-147642D01*
X55920Y-147558D01*
X55638Y-147492D01*
X55334Y-147445D01*
X55007Y-147417D01*
X54657Y-147408D01*
X51320Y-147408D01*
X51320Y-152303D01*
X54727Y-152303D01*
G37*
%LPD*%
G36*
X69307Y-158466D02*
X61533Y-158466D01*
X61533Y-157119D01*
X64694Y-157119D01*
X64694Y-147575D01*
X61894Y-149573D01*
X61894Y-148077D01*
X64826Y-146061D01*
X66287Y-146061D01*
X66287Y-157119D01*
X69307Y-157119D01*
X69307Y-158466D01*
G37*
G36*
X68708Y-51341D02*
X68364Y-51329D01*
X68039Y-51293D01*
X67733Y-51233D01*
X67447Y-51150D01*
X67180Y-51042D01*
X66931Y-50911D01*
X66702Y-50756D01*
X66492Y-50577D01*
X66304Y-50377D01*
X66142Y-50158D01*
X66004Y-49921D01*
X65891Y-49666D01*
X65804Y-49393D01*
X65741Y-49101D01*
X65703Y-48791D01*
X65691Y-48462D01*
X65714Y-48009D01*
X65783Y-47595D01*
X65899Y-47220D01*
X66060Y-46884D01*
X66267Y-46588D01*
X66519Y-46335D01*
X66815Y-46123D01*
X67155Y-45953D01*
X67407Y-46712D01*
X67164Y-46831D01*
X66952Y-46980D01*
X66770Y-47161D01*
X66618Y-47373D01*
X66499Y-47611D01*
X66414Y-47871D01*
X66362Y-48152D01*
X66345Y-48454D01*
X66355Y-48692D01*
X66385Y-48917D01*
X66434Y-49129D01*
X66503Y-49326D01*
X66592Y-49511D01*
X66701Y-49681D01*
X66829Y-49838D01*
X66977Y-49981D01*
X67142Y-50109D01*
X67322Y-50220D01*
X67516Y-50313D01*
X67725Y-50390D01*
X67949Y-50450D01*
X68187Y-50492D01*
X68440Y-50518D01*
X68708Y-50527D01*
X68973Y-50518D01*
X69225Y-50491D01*
X69463Y-50447D01*
X69688Y-50384D01*
X69900Y-50304D01*
X70099Y-50207D01*
X70284Y-50091D01*
X70456Y-49958D01*
X70610Y-49810D01*
X70745Y-49649D01*
X70858Y-49475D01*
X70951Y-49289D01*
X71024Y-49091D01*
X71075Y-48880D01*
X71106Y-48656D01*
X71116Y-48420D01*
X71097Y-48119D01*
X71040Y-47838D01*
X70944Y-47575D01*
X70809Y-47332D01*
X70636Y-47108D01*
X70425Y-46904D01*
X70175Y-46719D01*
X69887Y-46553D01*
X70214Y-45898D01*
X70573Y-46099D01*
X70887Y-46337D01*
X71154Y-46612D01*
X71377Y-46924D01*
X71551Y-47268D01*
X71676Y-47638D01*
X71750Y-48035D01*
X71769Y-48243D01*
X71775Y-48458D01*
X71752Y-48890D01*
X71682Y-49291D01*
X71566Y-49663D01*
X71404Y-50004D01*
X71198Y-50311D01*
X70953Y-50579D01*
X70667Y-50808D01*
X70342Y-50999D01*
X69981Y-51148D01*
X69589Y-51255D01*
X69164Y-51319D01*
X68708Y-51341D01*
G37*
G36*
X71691Y-44935D02*
X71049Y-44935D01*
X71049Y-43428D01*
X66501Y-43428D01*
X67453Y-44763D01*
X66740Y-44763D01*
X65779Y-43366D01*
X65779Y-42669D01*
X71049Y-42669D01*
X71049Y-41230D01*
X71691Y-41230D01*
X71691Y-44935D01*
G37*
G36*
X71691Y-40779D02*
X71049Y-40779D01*
X71049Y-39272D01*
X66501Y-39272D01*
X67453Y-40607D01*
X66740Y-40607D01*
X65779Y-39209D01*
X65779Y-38513D01*
X71049Y-38513D01*
X71049Y-37073D01*
X71691Y-37073D01*
X71691Y-40779D01*
G37*
G36*
X-116350Y-180409D02*
X-124240Y-180409D01*
X-124240Y-176696D01*
X-124231Y-176373D01*
X-124203Y-176068D01*
X-124156Y-175782D01*
X-124091Y-175516D01*
X-124007Y-175268D01*
X-123905Y-175039D01*
X-123784Y-174829D01*
X-123644Y-174638D01*
X-123488Y-174468D01*
X-123317Y-174321D01*
X-123131Y-174197D01*
X-122931Y-174095D01*
X-122716Y-174015D01*
X-122486Y-173959D01*
X-122242Y-173925D01*
X-121984Y-173913D01*
X-121768Y-173921D01*
X-121561Y-173945D01*
X-121364Y-173985D01*
X-121174Y-174041D01*
X-120994Y-174113D01*
X-120822Y-174201D01*
X-120659Y-174306D01*
X-120505Y-174426D01*
X-120362Y-174560D01*
X-120233Y-174706D01*
X-120118Y-174865D01*
X-120076Y-174936D01*
X-120017Y-175035D01*
X-119929Y-175218D01*
X-119855Y-175413D01*
X-119795Y-175620D01*
X-119749Y-175840D01*
X-118302Y-174886D01*
X-116350Y-173600D01*
X-116350Y-174832D01*
X-119626Y-176881D01*
X-119626Y-179340D01*
X-116350Y-179340D01*
X-116350Y-180409D01*
G37*
%LPC*%
G36*
X-120472Y-179340D02*
X-120472Y-176758D01*
X-120478Y-176553D01*
X-120496Y-176359D01*
X-120527Y-176178D01*
X-120570Y-176008D01*
X-120626Y-175851D01*
X-120694Y-175705D01*
X-120774Y-175572D01*
X-120866Y-175450D01*
X-120970Y-175342D01*
X-121084Y-175248D01*
X-121207Y-175169D01*
X-121340Y-175104D01*
X-121483Y-175053D01*
X-121637Y-175017D01*
X-121800Y-174996D01*
X-121972Y-174988D01*
X-122139Y-174996D01*
X-122296Y-175018D01*
X-122443Y-175054D01*
X-122579Y-175105D01*
X-122705Y-175171D01*
X-122821Y-175251D01*
X-122927Y-175346D01*
X-123022Y-175456D01*
X-123107Y-175579D01*
X-123180Y-175716D01*
X-123293Y-176027D01*
X-123361Y-176389D01*
X-123384Y-176803D01*
X-123384Y-179340D01*
X-120472Y-179340D01*
G37*
%LPD*%
G36*
X-118114Y-172610D02*
X-118232Y-171590D01*
X-117957Y-171495D01*
X-117720Y-171368D01*
X-117518Y-171210D01*
X-117354Y-171021D01*
X-117226Y-170800D01*
X-117134Y-170548D01*
X-117079Y-170264D01*
X-117061Y-169950D01*
X-117069Y-169752D01*
X-117092Y-169566D01*
X-117130Y-169390D01*
X-117184Y-169226D01*
X-117253Y-169072D01*
X-117337Y-168930D01*
X-117436Y-168799D01*
X-117551Y-168678D01*
X-117679Y-168571D01*
X-117819Y-168478D01*
X-117970Y-168399D01*
X-118133Y-168334D01*
X-118307Y-168284D01*
X-118493Y-168248D01*
X-118690Y-168226D01*
X-118898Y-168219D01*
X-119080Y-168226D01*
X-119253Y-168248D01*
X-119416Y-168284D01*
X-119571Y-168335D01*
X-119717Y-168400D01*
X-119855Y-168479D01*
X-119983Y-168573D01*
X-120102Y-168681D01*
X-120210Y-168802D01*
X-120303Y-168932D01*
X-120382Y-169073D01*
X-120446Y-169224D01*
X-120497Y-169384D01*
X-120532Y-169555D01*
X-120554Y-169736D01*
X-120561Y-169927D01*
X-120553Y-170128D01*
X-120529Y-170322D01*
X-120489Y-170509D01*
X-120432Y-170689D01*
X-120357Y-170865D01*
X-120259Y-171042D01*
X-120138Y-171218D01*
X-119996Y-171394D01*
X-119996Y-172380D01*
X-124240Y-172117D01*
X-124240Y-167631D01*
X-123384Y-167631D01*
X-123384Y-171198D01*
X-120880Y-171350D01*
X-120999Y-171181D01*
X-121101Y-171002D01*
X-121188Y-170813D01*
X-121258Y-170615D01*
X-121314Y-170406D01*
X-121353Y-170187D01*
X-121377Y-169959D01*
X-121384Y-169720D01*
X-121374Y-169436D01*
X-121342Y-169167D01*
X-121288Y-168913D01*
X-121214Y-168674D01*
X-121118Y-168449D01*
X-121000Y-168239D01*
X-120861Y-168044D01*
X-120701Y-167864D01*
X-120524Y-167702D01*
X-120334Y-167561D01*
X-120131Y-167442D01*
X-119914Y-167345D01*
X-119685Y-167269D01*
X-119443Y-167215D01*
X-119188Y-167183D01*
X-118920Y-167172D01*
X-118617Y-167184D01*
X-118329Y-167218D01*
X-118059Y-167276D01*
X-117805Y-167358D01*
X-117567Y-167462D01*
X-117346Y-167589D01*
X-117142Y-167740D01*
X-116955Y-167914D01*
X-116787Y-168108D01*
X-116641Y-168321D01*
X-116518Y-168551D01*
X-116417Y-168799D01*
X-116339Y-169066D01*
X-116283Y-169350D01*
X-116249Y-169652D01*
X-116238Y-169972D01*
X-116246Y-170241D01*
X-116268Y-170497D01*
X-116306Y-170740D01*
X-116358Y-170969D01*
X-116426Y-171185D01*
X-116509Y-171387D01*
X-116607Y-171577D01*
X-116720Y-171753D01*
X-116847Y-171914D01*
X-116987Y-172060D01*
X-117141Y-172191D01*
X-117309Y-172306D01*
X-117490Y-172405D01*
X-117685Y-172489D01*
X-117893Y-172557D01*
X-118114Y-172610D01*
G37*
D10*
X-48260Y119060D02*
X-48260Y140650D01*
X-50800Y134300D01*
X-45720Y134300D02*
X-48260Y140650D01*
X-48260Y119060D02*
X-69850Y119060D01*
X-63500Y121600D01*
X-63500Y116520D02*
X-69850Y119060D01*
X-50800Y121600D02*
X-45720Y116520D01*
X-45720Y121600D02*
X-50800Y116520D01*
D11*
X-73880Y32569D02*
X-91380Y32569D01*
X-91380Y48551D02*
X-73880Y48551D01*
X-76130Y19764D02*
X-87130Y19764D01*
X-87130Y32336D02*
X-76130Y32336D01*
X-76130Y-31496D02*
X-87130Y-31496D01*
X-87130Y-18924D02*
X-76130Y-18924D01*
X-76130Y-21066D02*
X-87130Y-21066D01*
X-87130Y-8494D02*
X-76130Y-8494D01*
X-70270Y-78632D02*
X-59270Y-78632D01*
X-59270Y-91204D02*
X-70270Y-91204D01*
X-91114Y-91104D02*
X-102114Y-91104D01*
X-102114Y-78532D02*
X-91114Y-78532D01*
X-87130Y-1366D02*
X-76130Y-1366D01*
X-76130Y11206D02*
X-87130Y11206D01*
X-87130Y9064D02*
X-76130Y9064D01*
X-76130Y21636D02*
X-87130Y21636D01*
D12*
X57150Y-162300D02*
X69850Y-162300D01*
X76200Y-168650D01*
X76200Y-181350D02*
X69850Y-187700D01*
X31750Y-162300D02*
X25400Y-168650D01*
X31750Y-162300D02*
X44450Y-162300D01*
X50800Y-168650D01*
X50800Y-181350D02*
X44450Y-187700D01*
X31750Y-187700D01*
X25400Y-181350D01*
X50800Y-168650D02*
X57150Y-162300D01*
X50800Y-181350D02*
X57150Y-187700D01*
X69850Y-187700D01*
X-6350Y-162300D02*
X-19050Y-162300D01*
X-6350Y-162300D02*
X0Y-168650D01*
X0Y-181350D02*
X-6350Y-187700D01*
X0Y-168650D02*
X6350Y-162300D01*
X19050Y-162300D01*
X25400Y-168650D01*
X25400Y-181350D02*
X19050Y-187700D01*
X6350Y-187700D01*
X0Y-181350D01*
X-44450Y-162300D02*
X-50800Y-168650D01*
X-44450Y-162300D02*
X-31750Y-162300D01*
X-25400Y-168650D01*
X-25400Y-181350D02*
X-31750Y-187700D01*
X-44450Y-187700D01*
X-50800Y-181350D01*
X-25400Y-168650D02*
X-19050Y-162300D01*
X-25400Y-181350D02*
X-19050Y-187700D01*
X-6350Y-187700D01*
X-82550Y-162300D02*
X-95250Y-162300D01*
X-82550Y-162300D02*
X-76200Y-168650D01*
X-76200Y-181350D02*
X-82550Y-187700D01*
X-76200Y-168650D02*
X-69850Y-162300D01*
X-57150Y-162300D01*
X-50800Y-168650D01*
X-50800Y-181350D02*
X-57150Y-187700D01*
X-69850Y-187700D01*
X-76200Y-181350D01*
X-101600Y-181350D02*
X-101600Y-168650D01*
X-95250Y-162300D01*
X-101600Y-181350D02*
X-95250Y-187700D01*
X-82550Y-187700D01*
X82550Y-162300D02*
X95250Y-162300D01*
X101600Y-168650D01*
X101600Y-181350D01*
X95250Y-187700D01*
X76200Y-168650D02*
X82550Y-162300D01*
X76200Y-181350D02*
X82550Y-187700D01*
X95250Y-187700D01*
D11*
X-108356Y-163323D02*
X-108356Y-159569D01*
X-108357Y-163323D02*
X-108359Y-163388D01*
X-108365Y-163452D01*
X-108375Y-163516D01*
X-108388Y-163580D01*
X-108406Y-163642D01*
X-108427Y-163703D01*
X-108451Y-163763D01*
X-108480Y-163821D01*
X-108512Y-163878D01*
X-108547Y-163932D01*
X-108585Y-163984D01*
X-108627Y-164034D01*
X-108671Y-164081D01*
X-108718Y-164125D01*
X-108768Y-164167D01*
X-108820Y-164205D01*
X-108874Y-164240D01*
X-108931Y-164272D01*
X-108989Y-164301D01*
X-109049Y-164325D01*
X-109110Y-164346D01*
X-109172Y-164364D01*
X-109236Y-164377D01*
X-109300Y-164387D01*
X-109364Y-164393D01*
X-109429Y-164395D01*
X-109965Y-164395D01*
X-105408Y-160641D02*
X-104068Y-159569D01*
X-104068Y-164395D01*
X-105408Y-164395D02*
X-102727Y-164395D01*
D12*
X-69596Y56642D02*
X-69594Y56761D01*
X-69588Y56880D01*
X-69578Y56998D01*
X-69564Y57116D01*
X-69546Y57233D01*
X-69525Y57350D01*
X-69499Y57466D01*
X-69470Y57581D01*
X-69436Y57696D01*
X-69399Y57808D01*
X-69358Y57920D01*
X-69314Y58030D01*
X-69266Y58139D01*
X-69214Y58246D01*
X-69158Y58351D01*
X-69100Y58454D01*
X-69037Y58555D01*
X-68972Y58655D01*
X-68903Y58751D01*
X-68831Y58846D01*
X-68756Y58938D01*
X-68677Y59027D01*
X-68596Y59114D01*
X-68512Y59198D01*
X-68425Y59279D01*
X-68336Y59358D01*
X-68244Y59433D01*
X-68149Y59505D01*
X-68053Y59574D01*
X-67953Y59639D01*
X-67852Y59702D01*
X-67749Y59760D01*
X-67644Y59816D01*
X-67537Y59868D01*
X-67428Y59916D01*
X-67318Y59960D01*
X-67206Y60001D01*
X-67094Y60038D01*
X-66979Y60072D01*
X-66864Y60101D01*
X-66748Y60127D01*
X-66631Y60148D01*
X-66514Y60166D01*
X-66396Y60180D01*
X-66278Y60190D01*
X-66159Y60196D01*
X-66040Y60198D01*
X-65921Y60196D01*
X-65802Y60190D01*
X-65684Y60180D01*
X-65566Y60166D01*
X-65449Y60148D01*
X-65332Y60127D01*
X-65216Y60101D01*
X-65101Y60072D01*
X-64986Y60038D01*
X-64874Y60001D01*
X-64762Y59960D01*
X-64652Y59916D01*
X-64543Y59868D01*
X-64436Y59816D01*
X-64331Y59760D01*
X-64228Y59702D01*
X-64127Y59639D01*
X-64027Y59574D01*
X-63931Y59505D01*
X-63836Y59433D01*
X-63744Y59358D01*
X-63655Y59279D01*
X-63568Y59198D01*
X-63484Y59114D01*
X-63403Y59027D01*
X-63324Y58938D01*
X-63249Y58846D01*
X-63177Y58751D01*
X-63108Y58655D01*
X-63043Y58555D01*
X-62980Y58454D01*
X-62922Y58351D01*
X-62866Y58246D01*
X-62814Y58139D01*
X-62766Y58030D01*
X-62722Y57920D01*
X-62681Y57808D01*
X-62644Y57696D01*
X-62610Y57581D01*
X-62581Y57466D01*
X-62555Y57350D01*
X-62534Y57233D01*
X-62516Y57116D01*
X-62502Y56998D01*
X-62492Y56880D01*
X-62486Y56761D01*
X-62484Y56642D01*
X-62486Y56523D01*
X-62492Y56404D01*
X-62502Y56286D01*
X-62516Y56168D01*
X-62534Y56051D01*
X-62555Y55934D01*
X-62581Y55818D01*
X-62610Y55703D01*
X-62644Y55588D01*
X-62681Y55476D01*
X-62722Y55364D01*
X-62766Y55254D01*
X-62814Y55145D01*
X-62866Y55038D01*
X-62922Y54933D01*
X-62980Y54830D01*
X-63043Y54729D01*
X-63108Y54629D01*
X-63177Y54533D01*
X-63249Y54438D01*
X-63324Y54346D01*
X-63403Y54257D01*
X-63484Y54170D01*
X-63568Y54086D01*
X-63655Y54005D01*
X-63744Y53926D01*
X-63836Y53851D01*
X-63931Y53779D01*
X-64027Y53710D01*
X-64127Y53645D01*
X-64228Y53582D01*
X-64331Y53524D01*
X-64436Y53468D01*
X-64543Y53416D01*
X-64652Y53368D01*
X-64762Y53324D01*
X-64874Y53283D01*
X-64986Y53246D01*
X-65101Y53212D01*
X-65216Y53183D01*
X-65332Y53157D01*
X-65449Y53136D01*
X-65566Y53118D01*
X-65684Y53104D01*
X-65802Y53094D01*
X-65921Y53088D01*
X-66040Y53086D01*
X-66159Y53088D01*
X-66278Y53094D01*
X-66396Y53104D01*
X-66514Y53118D01*
X-66631Y53136D01*
X-66748Y53157D01*
X-66864Y53183D01*
X-66979Y53212D01*
X-67094Y53246D01*
X-67206Y53283D01*
X-67318Y53324D01*
X-67428Y53368D01*
X-67537Y53416D01*
X-67644Y53468D01*
X-67749Y53524D01*
X-67852Y53582D01*
X-67953Y53645D01*
X-68053Y53710D01*
X-68149Y53779D01*
X-68244Y53851D01*
X-68336Y53926D01*
X-68425Y54005D01*
X-68512Y54086D01*
X-68596Y54170D01*
X-68677Y54257D01*
X-68756Y54346D01*
X-68831Y54438D01*
X-68903Y54533D01*
X-68972Y54629D01*
X-69037Y54729D01*
X-69100Y54830D01*
X-69158Y54933D01*
X-69214Y55038D01*
X-69266Y55145D01*
X-69314Y55254D01*
X-69358Y55364D01*
X-69399Y55476D01*
X-69436Y55588D01*
X-69470Y55703D01*
X-69499Y55818D01*
X-69525Y55934D01*
X-69546Y56051D01*
X-69564Y56168D01*
X-69578Y56286D01*
X-69588Y56404D01*
X-69594Y56523D01*
X-69596Y56642D01*
D10*
X-12700Y85090D02*
X0Y90170D01*
X12700Y85090D01*
X-77900Y-43336D02*
X-97966Y-43336D01*
X-97966Y-55959D02*
X-97966Y-63733D01*
X-97966Y-76356D02*
X-77900Y-76356D01*
D11*
X80970Y14066D02*
X91970Y14066D01*
X91970Y1494D02*
X80970Y1494D01*
X80946Y25608D02*
X91946Y25608D01*
X91946Y13036D02*
X80946Y13036D01*
X66250Y-126156D02*
X66250Y-140656D01*
X49750Y-140656D01*
X-49750Y-140656D02*
X-66250Y-140656D01*
X-66250Y-126156D01*
X-54250Y-98156D02*
X54250Y-98156D01*
D13*
X-54000Y-149656D02*
X-53998Y-149593D01*
X-53992Y-149531D01*
X-53982Y-149469D01*
X-53969Y-149407D01*
X-53951Y-149347D01*
X-53930Y-149288D01*
X-53905Y-149230D01*
X-53876Y-149174D01*
X-53844Y-149120D01*
X-53809Y-149068D01*
X-53771Y-149019D01*
X-53729Y-148971D01*
X-53685Y-148927D01*
X-53637Y-148885D01*
X-53588Y-148847D01*
X-53536Y-148812D01*
X-53482Y-148780D01*
X-53426Y-148751D01*
X-53368Y-148726D01*
X-53309Y-148705D01*
X-53249Y-148687D01*
X-53187Y-148674D01*
X-53125Y-148664D01*
X-53063Y-148658D01*
X-53000Y-148656D01*
X-52937Y-148658D01*
X-52875Y-148664D01*
X-52813Y-148674D01*
X-52751Y-148687D01*
X-52691Y-148705D01*
X-52632Y-148726D01*
X-52574Y-148751D01*
X-52518Y-148780D01*
X-52464Y-148812D01*
X-52412Y-148847D01*
X-52363Y-148885D01*
X-52315Y-148927D01*
X-52271Y-148971D01*
X-52229Y-149019D01*
X-52191Y-149068D01*
X-52156Y-149120D01*
X-52124Y-149174D01*
X-52095Y-149230D01*
X-52070Y-149288D01*
X-52049Y-149347D01*
X-52031Y-149407D01*
X-52018Y-149469D01*
X-52008Y-149531D01*
X-52002Y-149593D01*
X-52000Y-149656D01*
X-52002Y-149719D01*
X-52008Y-149781D01*
X-52018Y-149843D01*
X-52031Y-149905D01*
X-52049Y-149965D01*
X-52070Y-150024D01*
X-52095Y-150082D01*
X-52124Y-150138D01*
X-52156Y-150192D01*
X-52191Y-150244D01*
X-52229Y-150293D01*
X-52271Y-150341D01*
X-52315Y-150385D01*
X-52363Y-150427D01*
X-52412Y-150465D01*
X-52464Y-150500D01*
X-52518Y-150532D01*
X-52574Y-150561D01*
X-52632Y-150586D01*
X-52691Y-150607D01*
X-52751Y-150625D01*
X-52813Y-150638D01*
X-52875Y-150648D01*
X-52937Y-150654D01*
X-53000Y-150656D01*
X-53063Y-150654D01*
X-53125Y-150648D01*
X-53187Y-150638D01*
X-53249Y-150625D01*
X-53309Y-150607D01*
X-53368Y-150586D01*
X-53426Y-150561D01*
X-53482Y-150532D01*
X-53536Y-150500D01*
X-53588Y-150465D01*
X-53637Y-150427D01*
X-53685Y-150385D01*
X-53729Y-150341D01*
X-53771Y-150293D01*
X-53809Y-150244D01*
X-53844Y-150192D01*
X-53876Y-150138D01*
X-53905Y-150082D01*
X-53930Y-150024D01*
X-53951Y-149965D01*
X-53969Y-149905D01*
X-53982Y-149843D01*
X-53992Y-149781D01*
X-53998Y-149719D01*
X-54000Y-149656D01*
D12*
X122302Y68418D02*
X122302Y81118D01*
X122302Y68418D02*
X115952Y62068D01*
X103252Y62068D02*
X96902Y68418D01*
X115952Y62068D02*
X122302Y55718D01*
X122302Y43018D01*
X115952Y36668D01*
X103252Y36668D02*
X96902Y43018D01*
X96902Y55718D01*
X103252Y62068D01*
X103252Y87468D02*
X115952Y87468D01*
X122302Y81118D01*
X103252Y87468D02*
X96902Y81118D01*
X96902Y68418D01*
X103252Y36668D02*
X115952Y36668D01*
D11*
X124207Y81204D02*
X127961Y81204D01*
X128026Y81202D01*
X128090Y81196D01*
X128154Y81186D01*
X128218Y81173D01*
X128280Y81155D01*
X128341Y81134D01*
X128401Y81110D01*
X128459Y81081D01*
X128516Y81049D01*
X128570Y81014D01*
X128622Y80976D01*
X128672Y80934D01*
X128719Y80890D01*
X128763Y80843D01*
X128805Y80793D01*
X128843Y80741D01*
X128878Y80687D01*
X128910Y80630D01*
X128939Y80572D01*
X128963Y80512D01*
X128984Y80451D01*
X129002Y80389D01*
X129015Y80325D01*
X129025Y80261D01*
X129031Y80197D01*
X129033Y80132D01*
X129033Y79595D01*
X124207Y85626D02*
X124209Y85694D01*
X124215Y85761D01*
X124224Y85828D01*
X124237Y85895D01*
X124254Y85960D01*
X124275Y86025D01*
X124299Y86088D01*
X124327Y86150D01*
X124358Y86210D01*
X124392Y86268D01*
X124430Y86324D01*
X124470Y86379D01*
X124514Y86430D01*
X124561Y86479D01*
X124610Y86526D01*
X124661Y86570D01*
X124716Y86610D01*
X124772Y86648D01*
X124830Y86682D01*
X124890Y86713D01*
X124952Y86741D01*
X125015Y86765D01*
X125080Y86786D01*
X125145Y86803D01*
X125212Y86816D01*
X125279Y86825D01*
X125346Y86831D01*
X125414Y86833D01*
X124207Y85626D02*
X124209Y85548D01*
X124215Y85470D01*
X124225Y85393D01*
X124238Y85316D01*
X124256Y85240D01*
X124277Y85165D01*
X124302Y85091D01*
X124331Y85019D01*
X124363Y84948D01*
X124399Y84879D01*
X124438Y84811D01*
X124481Y84746D01*
X124527Y84683D01*
X124576Y84622D01*
X124628Y84564D01*
X124683Y84509D01*
X124740Y84456D01*
X124800Y84407D01*
X124863Y84360D01*
X124928Y84317D01*
X124994Y84277D01*
X125063Y84240D01*
X125134Y84207D01*
X125206Y84177D01*
X125280Y84151D01*
X126352Y86431D02*
X126303Y86480D01*
X126251Y86527D01*
X126196Y86570D01*
X126139Y86611D01*
X126080Y86649D01*
X126019Y86683D01*
X125956Y86714D01*
X125892Y86742D01*
X125826Y86766D01*
X125760Y86786D01*
X125692Y86803D01*
X125623Y86816D01*
X125554Y86825D01*
X125484Y86831D01*
X125414Y86833D01*
X126352Y86431D02*
X129033Y84152D01*
X129033Y86833D01*
M02*
