G04 EAGLE Gerber RS-274X export*
G75*
%MOMM*%
%FSLAX34Y34*%
%LPD*%
%INSilkscreen Bottom*%
%IPPOS*%
%AMOC8*
5,1,8,0,0,1.08239X$1,22.5*%
G01*
G04 Define Apertures*
G36*
X1946Y97861D02*
X1324Y97879D01*
X649Y97931D01*
X261Y97962D01*
X-202Y97984D01*
X-1350Y98001D01*
X-2639Y97984D01*
X-3171Y97962D01*
X-3629Y97931D01*
X-4409Y97879D01*
X-5067Y97861D01*
X-5362Y97884D01*
X-5615Y97953D01*
X-5826Y98068D01*
X-5996Y98229D01*
X-6127Y98414D01*
X-6220Y98602D01*
X-6276Y98791D01*
X-6294Y98983D01*
X-6277Y99313D01*
X-6226Y99600D01*
X-6141Y99845D01*
X-6022Y100048D01*
X-5870Y100209D01*
X-5683Y100328D01*
X-5462Y100404D01*
X-5207Y100438D01*
X-5076Y100455D01*
X-4952Y100491D01*
X-4838Y100547D01*
X-4732Y100623D01*
X-4634Y100719D01*
X-4545Y100835D01*
X-4464Y100971D01*
X-4392Y101126D01*
X-4273Y101497D01*
X-4188Y101947D01*
X-4137Y102477D01*
X-4120Y103086D01*
X-4120Y107574D01*
X-4511Y107183D01*
X-4949Y106816D01*
X-5432Y106473D01*
X-5961Y106154D01*
X-6251Y106010D01*
X-6567Y105885D01*
X-6910Y105780D01*
X-7280Y105694D01*
X-7677Y105627D01*
X-8101Y105579D01*
X-8552Y105550D01*
X-9029Y105540D01*
X-9472Y105553D01*
X-9906Y105593D01*
X-10331Y105659D01*
X-10747Y105751D01*
X-11155Y105869D01*
X-11554Y106014D01*
X-11944Y106185D01*
X-12325Y106382D01*
X-12696Y106604D01*
X-13055Y106849D01*
X-13402Y107116D01*
X-13737Y107407D01*
X-14059Y107721D01*
X-14370Y108058D01*
X-14669Y108418D01*
X-14955Y108801D01*
X-15228Y109206D01*
X-15486Y109632D01*
X-15728Y110078D01*
X-15955Y110546D01*
X-16166Y111034D01*
X-16362Y111543D01*
X-16543Y112073D01*
X-16708Y112623D01*
X-16865Y113193D01*
X-17000Y113778D01*
X-17114Y114380D01*
X-17208Y114999D01*
X-17281Y115634D01*
X-17333Y116285D01*
X-17364Y116953D01*
X-17375Y117638D01*
X-17365Y118287D01*
X-17337Y118922D01*
X-17291Y119541D01*
X-17226Y120145D01*
X-17142Y120733D01*
X-17039Y121306D01*
X-16918Y121864D01*
X-16779Y122406D01*
X-16632Y122940D01*
X-16473Y123453D01*
X-16301Y123946D01*
X-16117Y124418D01*
X-15920Y124870D01*
X-15710Y125302D01*
X-15488Y125714D01*
X-15253Y126106D01*
X-15006Y126476D01*
X-14748Y126826D01*
X-14478Y127153D01*
X-14197Y127460D01*
X-13904Y127745D01*
X-13600Y128009D01*
X-13284Y128251D01*
X-12957Y128473D01*
X-12621Y128670D01*
X-12279Y128841D01*
X-11933Y128985D01*
X-11580Y129104D01*
X-11222Y129196D01*
X-10859Y129261D01*
X-10490Y129301D01*
X-10116Y129314D01*
X-9592Y129297D01*
X-9088Y129245D01*
X-8606Y129159D01*
X-8144Y129038D01*
X-7703Y128883D01*
X-7283Y128693D01*
X-6883Y128468D01*
X-6505Y128210D01*
X-6145Y127924D01*
X-5803Y127621D01*
X-5479Y127300D01*
X-5172Y126960D01*
X-4883Y126603D01*
X-4611Y126227D01*
X-4357Y125834D01*
X-4120Y125422D01*
X-4120Y127105D01*
X-4110Y127350D01*
X-4081Y127631D01*
X-3962Y128297D01*
X-3913Y128470D01*
X-3843Y128619D01*
X-3753Y128746D01*
X-3642Y128849D01*
X-3512Y128930D01*
X-3361Y128988D01*
X-3190Y129022D01*
X-2998Y129034D01*
X-2777Y129014D01*
X-2534Y128955D01*
X-2268Y128856D01*
X-1981Y128718D01*
X53Y127666D01*
X1722Y126759D01*
X2311Y126414D01*
X2735Y126141D01*
X2895Y126019D01*
X3034Y125892D01*
X3152Y125759D01*
X3248Y125619D01*
X3323Y125474D01*
X3376Y125322D01*
X3408Y125165D01*
X3419Y125001D01*
X3403Y124682D01*
X3355Y124409D01*
X3276Y124183D01*
X3165Y124002D01*
X3022Y123867D01*
X2847Y123778D01*
X2640Y123736D01*
X2402Y123739D01*
X2279Y123743D01*
X2164Y123731D01*
X2056Y123702D01*
X1957Y123656D01*
X1866Y123592D01*
X1782Y123512D01*
X1639Y123300D01*
X1528Y123021D01*
X1449Y122674D01*
X1401Y122258D01*
X1385Y121775D01*
X1385Y103086D01*
X1399Y102468D01*
X1441Y101931D01*
X1511Y101473D01*
X1609Y101096D01*
X1734Y100798D01*
X1808Y100680D01*
X1888Y100581D01*
X1975Y100502D01*
X2070Y100443D01*
X2171Y100404D01*
X2279Y100386D01*
X2489Y100348D01*
X2670Y100272D01*
X2824Y100156D01*
X2950Y100000D01*
X3048Y99805D01*
X3117Y99570D01*
X3159Y99297D01*
X3173Y98983D01*
X3156Y98777D01*
X3103Y98580D01*
X3015Y98391D01*
X2893Y98212D01*
X2728Y98058D01*
X2516Y97949D01*
X2255Y97883D01*
X1946Y97861D01*
G37*
%LPC*%
G36*
X-8153Y108416D02*
X-7923Y108424D01*
X-7700Y108448D01*
X-7483Y108489D01*
X-7272Y108547D01*
X-7066Y108621D01*
X-6867Y108711D01*
X-6674Y108818D01*
X-6487Y108941D01*
X-6131Y109237D01*
X-5799Y109599D01*
X-5491Y110026D01*
X-5207Y110519D01*
X-4952Y111065D01*
X-4732Y111650D01*
X-4545Y112275D01*
X-4392Y112939D01*
X-4273Y113642D01*
X-4188Y114385D01*
X-4137Y115168D01*
X-4120Y115990D01*
X-4120Y118374D01*
X-4136Y119159D01*
X-4182Y119901D01*
X-4258Y120601D01*
X-4366Y121258D01*
X-4504Y121872D01*
X-4672Y122444D01*
X-4872Y122972D01*
X-5102Y123458D01*
X-5355Y123894D01*
X-5624Y124271D01*
X-5907Y124591D01*
X-6207Y124852D01*
X-6521Y125055D01*
X-6851Y125201D01*
X-7022Y125251D01*
X-7196Y125288D01*
X-7374Y125309D01*
X-7557Y125317D01*
X-7757Y125306D01*
X-7953Y125275D01*
X-8147Y125223D01*
X-8337Y125150D01*
X-8524Y125056D01*
X-8707Y124942D01*
X-8887Y124807D01*
X-9064Y124650D01*
X-9419Y124267D01*
X-9748Y123818D01*
X-10051Y123303D01*
X-10327Y122722D01*
X-10576Y122080D01*
X-10800Y121381D01*
X-10997Y120625D01*
X-11168Y119812D01*
X-11306Y118952D01*
X-11405Y118058D01*
X-11464Y117129D01*
X-11484Y116165D01*
X-11469Y115246D01*
X-11424Y114384D01*
X-11348Y113579D01*
X-11243Y112829D01*
X-11107Y112136D01*
X-10941Y111500D01*
X-10746Y110920D01*
X-10520Y110397D01*
X-10272Y109932D01*
X-10010Y109530D01*
X-9735Y109189D01*
X-9446Y108911D01*
X-9143Y108694D01*
X-8827Y108539D01*
X-8663Y108485D01*
X-8496Y108446D01*
X-8326Y108423D01*
X-8153Y108416D01*
G37*
%LPD*%
G36*
X34381Y106031D02*
X33758Y106049D01*
X33083Y106101D01*
X32691Y106132D01*
X32216Y106154D01*
X31015Y106171D01*
X29858Y106154D01*
X29384Y106132D01*
X28981Y106101D01*
X28288Y106049D01*
X27684Y106031D01*
X27389Y106054D01*
X27136Y106123D01*
X26924Y106238D01*
X26754Y106399D01*
X26624Y106582D01*
X26531Y106763D01*
X26475Y106942D01*
X26456Y107118D01*
X26471Y107432D01*
X26514Y107707D01*
X26587Y107942D01*
X26689Y108139D01*
X26819Y108297D01*
X26979Y108417D01*
X27168Y108497D01*
X27385Y108538D01*
X27498Y108559D01*
X27603Y108600D01*
X27701Y108662D01*
X27792Y108743D01*
X27875Y108845D01*
X27952Y108966D01*
X28082Y109270D01*
X28184Y109655D01*
X28257Y110119D01*
X28300Y110665D01*
X28315Y111291D01*
X28315Y118970D01*
X28300Y119747D01*
X28255Y120464D01*
X28182Y121121D01*
X28078Y121718D01*
X27945Y122256D01*
X27782Y122734D01*
X27590Y123152D01*
X27368Y123511D01*
X27129Y123819D01*
X26886Y124086D01*
X26638Y124312D01*
X26386Y124497D01*
X26130Y124641D01*
X25869Y124744D01*
X25604Y124805D01*
X25334Y124826D01*
X25163Y124819D01*
X24999Y124798D01*
X24843Y124762D01*
X24694Y124713D01*
X24553Y124649D01*
X24420Y124572D01*
X24177Y124374D01*
X23964Y124120D01*
X23783Y123810D01*
X23631Y123443D01*
X23511Y123020D01*
X23412Y122565D01*
X23327Y122103D01*
X23254Y121634D01*
X23195Y121157D01*
X23149Y120674D01*
X23116Y120183D01*
X23097Y119685D01*
X23090Y119180D01*
X23090Y111291D01*
X23104Y110665D01*
X23147Y110119D01*
X23218Y109655D01*
X23318Y109270D01*
X23446Y108966D01*
X23521Y108845D01*
X23603Y108743D01*
X23692Y108662D01*
X23788Y108600D01*
X23891Y108559D01*
X24002Y108538D01*
X24215Y108497D01*
X24401Y108417D01*
X24557Y108297D01*
X24685Y108139D01*
X24785Y107942D01*
X24856Y107707D01*
X24899Y107432D01*
X24913Y107118D01*
X24895Y106942D01*
X24839Y106763D01*
X24746Y106582D01*
X24615Y106399D01*
X24443Y106238D01*
X24225Y106123D01*
X23961Y106054D01*
X23651Y106031D01*
X23055Y106049D01*
X22389Y106101D01*
X21999Y106132D01*
X21530Y106154D01*
X20355Y106171D01*
X19115Y106154D01*
X18616Y106132D01*
X18199Y106101D01*
X17484Y106049D01*
X16849Y106031D01*
X16540Y106054D01*
X16279Y106123D01*
X16066Y106238D01*
X15978Y106313D01*
X15902Y106399D01*
X15779Y106582D01*
X15691Y106763D01*
X15639Y106942D01*
X15621Y107118D01*
X15637Y107432D01*
X15684Y107707D01*
X15762Y107942D01*
X15871Y108139D01*
X16012Y108297D01*
X16183Y108417D01*
X16386Y108497D01*
X16621Y108538D01*
X16742Y108559D01*
X16855Y108600D01*
X16960Y108662D01*
X17058Y108743D01*
X17148Y108845D01*
X17230Y108966D01*
X17370Y109270D01*
X17479Y109655D01*
X17557Y110119D01*
X17604Y110665D01*
X17620Y111291D01*
X17620Y119145D01*
X17607Y119905D01*
X17570Y120605D01*
X17507Y121246D01*
X17418Y121828D01*
X17305Y122350D01*
X17166Y122814D01*
X17002Y123218D01*
X16813Y123563D01*
X16610Y123859D01*
X16401Y124116D01*
X16189Y124333D01*
X15972Y124510D01*
X15751Y124648D01*
X15525Y124747D01*
X15295Y124806D01*
X15060Y124826D01*
X14914Y124820D01*
X14774Y124801D01*
X14513Y124725D01*
X14277Y124599D01*
X14065Y124423D01*
X13878Y124196D01*
X13716Y123919D01*
X13578Y123591D01*
X13465Y123213D01*
X13275Y122376D01*
X13110Y121477D01*
X12968Y120517D01*
X12851Y119496D01*
X12150Y112308D01*
X12062Y111291D01*
X12023Y110817D01*
X12010Y110449D01*
X12024Y109996D01*
X12065Y109601D01*
X12135Y109264D01*
X12233Y108985D01*
X12359Y108765D01*
X12513Y108602D01*
X12600Y108542D01*
X12694Y108497D01*
X12795Y108467D01*
X12904Y108451D01*
X13113Y108414D01*
X13295Y108341D01*
X13449Y108230D01*
X13574Y108082D01*
X13672Y107897D01*
X13742Y107675D01*
X13784Y107415D01*
X13798Y107118D01*
X13777Y106899D01*
X13715Y106697D01*
X13611Y106513D01*
X13465Y106347D01*
X13277Y106209D01*
X13048Y106110D01*
X12778Y106051D01*
X12465Y106031D01*
X11825Y106049D01*
X11168Y106101D01*
X10789Y106132D01*
X10318Y106154D01*
X9099Y106171D01*
X7929Y106154D01*
X7465Y106132D01*
X7083Y106101D01*
X6412Y106049D01*
X5768Y106031D01*
X5486Y106049D01*
X5238Y106101D01*
X5022Y106189D01*
X4839Y106312D01*
X4693Y106465D01*
X4589Y106645D01*
X4527Y106851D01*
X4506Y107083D01*
X4520Y107412D01*
X4562Y107699D01*
X4631Y107943D01*
X4729Y108144D01*
X4855Y108302D01*
X5009Y108418D01*
X5190Y108491D01*
X5400Y108521D01*
X5509Y108537D01*
X5614Y108578D01*
X5715Y108644D01*
X5811Y108733D01*
X5902Y108847D01*
X5989Y108986D01*
X6149Y109336D01*
X6292Y109784D01*
X6416Y110329D01*
X6522Y110971D01*
X6610Y111712D01*
X7521Y120302D01*
X7679Y121688D01*
X7872Y123178D01*
X7997Y123951D01*
X8161Y124694D01*
X8365Y125407D01*
X8608Y126088D01*
X8747Y126415D01*
X8900Y126728D01*
X9067Y127028D01*
X9248Y127315D01*
X9444Y127589D01*
X9654Y127850D01*
X9878Y128098D01*
X10116Y128332D01*
X10371Y128538D01*
X10646Y128716D01*
X10941Y128866D01*
X11256Y128990D01*
X11590Y129086D01*
X11944Y129154D01*
X12317Y129195D01*
X12711Y129209D01*
X13208Y129188D01*
X13684Y129127D01*
X14138Y129024D01*
X14569Y128880D01*
X14979Y128695D01*
X15367Y128469D01*
X15733Y128202D01*
X16077Y127894D01*
X16401Y127555D01*
X16706Y127196D01*
X16993Y126817D01*
X17261Y126417D01*
X17510Y125997D01*
X17740Y125557D01*
X17953Y125096D01*
X18146Y124615D01*
X18295Y125096D01*
X18463Y125557D01*
X18648Y125997D01*
X18852Y126417D01*
X19073Y126817D01*
X19313Y127196D01*
X19571Y127555D01*
X19847Y127894D01*
X20142Y128202D01*
X20459Y128469D01*
X20797Y128695D01*
X21157Y128880D01*
X21538Y129024D01*
X21941Y129127D01*
X22364Y129188D01*
X22810Y129209D01*
X23268Y129188D01*
X23712Y129126D01*
X24144Y129022D01*
X24563Y128876D01*
X24968Y128688D01*
X25360Y128459D01*
X25740Y128189D01*
X26106Y127876D01*
X26454Y127535D01*
X26781Y127177D01*
X27085Y126803D01*
X27368Y126412D01*
X27629Y126005D01*
X27868Y125582D01*
X28085Y125142D01*
X28280Y124686D01*
X28315Y124686D01*
X28315Y127140D01*
X28325Y127399D01*
X28354Y127684D01*
X28403Y127995D01*
X28472Y128332D01*
X28521Y128497D01*
X28590Y128639D01*
X28677Y128760D01*
X28784Y128858D01*
X28909Y128935D01*
X29054Y128990D01*
X29218Y129023D01*
X29402Y129034D01*
X29590Y129018D01*
X29805Y128972D01*
X30046Y128896D01*
X30313Y128788D01*
X31137Y128385D01*
X32487Y127666D01*
X34070Y126807D01*
X34654Y126469D01*
X35100Y126193D01*
X35276Y126067D01*
X35430Y125935D01*
X35559Y125796D01*
X35665Y125650D01*
X35748Y125498D01*
X35806Y125339D01*
X35842Y125173D01*
X35854Y125001D01*
X35837Y124682D01*
X35789Y124409D01*
X35708Y124183D01*
X35595Y124002D01*
X35450Y123867D01*
X35272Y123778D01*
X35062Y123736D01*
X34819Y123739D01*
X34694Y123743D01*
X34577Y123731D01*
X34468Y123702D01*
X34367Y123656D01*
X34274Y123592D01*
X34189Y123512D01*
X34043Y123300D01*
X33930Y123021D01*
X33849Y122674D01*
X33801Y122258D01*
X33785Y121775D01*
X33785Y111291D01*
X33799Y110665D01*
X33843Y110119D01*
X33915Y109655D01*
X34017Y109270D01*
X34148Y108966D01*
X34224Y108845D01*
X34307Y108743D01*
X34398Y108662D01*
X34496Y108600D01*
X34601Y108559D01*
X34714Y108538D01*
X34932Y108497D01*
X35121Y108417D01*
X35280Y108297D01*
X35411Y108139D01*
X35513Y107942D01*
X35585Y107707D01*
X35629Y107432D01*
X35643Y107118D01*
X35625Y106942D01*
X35569Y106763D01*
X35476Y106582D01*
X35345Y106399D01*
X35173Y106238D01*
X34955Y106123D01*
X34691Y106054D01*
X34381Y106031D01*
G37*
G36*
X-25334Y105575D02*
X-25784Y105590D01*
X-26223Y105634D01*
X-26650Y105708D01*
X-27066Y105812D01*
X-27470Y105945D01*
X-27862Y106108D01*
X-28243Y106300D01*
X-28613Y106522D01*
X-28969Y106765D01*
X-29309Y107022D01*
X-29633Y107291D01*
X-29941Y107574D01*
X-30233Y107870D01*
X-30510Y108179D01*
X-30770Y108501D01*
X-30892Y108668D01*
X-31015Y108836D01*
X-31131Y108493D01*
X-31147Y108447D01*
X-31296Y108085D01*
X-31464Y107750D01*
X-31650Y107442D01*
X-31854Y107163D01*
X-32077Y106910D01*
X-32317Y106685D01*
X-32575Y106487D01*
X-32845Y106314D01*
X-33120Y106165D01*
X-33400Y106038D01*
X-33684Y105935D01*
X-33974Y105854D01*
X-34268Y105797D01*
X-34568Y105762D01*
X-34872Y105751D01*
X-35375Y105766D01*
X-35848Y105814D01*
X-36293Y105894D01*
X-36708Y106005D01*
X-37095Y106148D01*
X-37452Y106323D01*
X-37781Y106529D01*
X-38080Y106767D01*
X-38347Y107018D01*
X-38579Y107263D01*
X-38775Y107501D01*
X-38935Y107732D01*
X-39060Y107956D01*
X-39149Y108174D01*
X-39202Y108386D01*
X-39220Y108591D01*
X-39209Y108759D01*
X-39176Y108911D01*
X-39121Y109048D01*
X-39045Y109169D01*
X-38950Y109274D01*
X-38843Y109358D01*
X-38722Y109423D01*
X-38589Y109467D01*
X-37954Y109675D01*
X-37674Y109789D01*
X-37419Y109910D01*
X-37188Y110039D01*
X-36981Y110174D01*
X-36800Y110317D01*
X-36643Y110467D01*
X-36503Y110647D01*
X-36372Y110882D01*
X-36251Y111171D01*
X-36139Y111514D01*
X-36036Y111912D01*
X-35943Y112364D01*
X-35858Y112870D01*
X-35784Y113430D01*
X-35012Y121004D01*
X-34903Y121909D01*
X-34750Y122766D01*
X-34554Y123574D01*
X-34315Y124335D01*
X-34033Y125047D01*
X-33707Y125711D01*
X-33338Y126327D01*
X-32926Y126895D01*
X-32704Y127158D01*
X-32472Y127404D01*
X-32231Y127633D01*
X-31980Y127846D01*
X-31719Y128041D01*
X-31449Y128219D01*
X-31169Y128381D01*
X-30879Y128525D01*
X-30579Y128653D01*
X-30270Y128763D01*
X-29951Y128856D01*
X-29622Y128933D01*
X-29284Y128992D01*
X-28935Y129035D01*
X-28577Y129060D01*
X-28210Y129069D01*
X-27700Y129053D01*
X-27204Y129007D01*
X-26722Y128931D01*
X-26255Y128823D01*
X-25802Y128685D01*
X-25363Y128516D01*
X-24938Y128317D01*
X-24528Y128087D01*
X-24132Y127835D01*
X-23752Y127572D01*
X-23387Y127296D01*
X-23038Y127009D01*
X-22703Y126709D01*
X-22385Y126397D01*
X-22081Y126073D01*
X-21793Y125737D01*
X-21372Y125212D01*
X-21021Y124686D01*
X-20883Y124427D01*
X-20785Y124177D01*
X-20726Y123936D01*
X-20706Y123704D01*
X-20729Y123442D01*
X-20798Y123217D01*
X-20913Y123030D01*
X-21074Y122880D01*
X-21253Y122765D01*
X-21420Y122682D01*
X-21577Y122633D01*
X-21723Y122617D01*
X-21865Y122628D01*
X-22012Y122661D01*
X-22163Y122715D01*
X-22319Y122792D01*
X-22626Y122994D01*
X-22915Y123248D01*
X-23335Y123671D01*
X-23752Y124063D01*
X-24167Y124425D01*
X-24580Y124756D01*
X-24789Y124904D01*
X-25005Y125032D01*
X-25226Y125140D01*
X-25453Y125229D01*
X-25686Y125298D01*
X-25925Y125347D01*
X-26170Y125377D01*
X-26421Y125387D01*
X-26754Y125365D01*
X-27070Y125298D01*
X-27368Y125187D01*
X-27649Y125032D01*
X-27912Y124832D01*
X-28157Y124588D01*
X-28385Y124300D01*
X-28595Y123967D01*
X-28789Y123586D01*
X-28966Y123155D01*
X-29126Y122672D01*
X-29270Y122139D01*
X-29398Y121555D01*
X-29509Y120919D01*
X-29604Y120233D01*
X-29682Y119496D01*
X-29753Y118900D01*
X-29407Y119069D01*
X-29038Y119224D01*
X-28645Y119367D01*
X-28227Y119496D01*
X-27781Y119603D01*
X-27302Y119680D01*
X-26791Y119726D01*
X-26246Y119741D01*
X-25857Y119733D01*
X-25478Y119708D01*
X-25111Y119666D01*
X-24754Y119608D01*
X-24407Y119533D01*
X-24071Y119441D01*
X-23746Y119332D01*
X-23432Y119207D01*
X-23128Y119065D01*
X-22835Y118906D01*
X-22553Y118730D01*
X-22282Y118538D01*
X-22021Y118329D01*
X-21770Y118104D01*
X-21531Y117861D01*
X-21302Y117602D01*
X-20883Y117054D01*
X-20520Y116478D01*
X-20212Y115875D01*
X-20079Y115563D01*
X-19961Y115244D01*
X-19856Y114919D01*
X-19765Y114586D01*
X-19688Y114247D01*
X-19625Y113901D01*
X-19576Y113548D01*
X-19542Y113188D01*
X-19521Y112821D01*
X-19514Y112448D01*
X-19520Y112075D01*
X-19538Y111711D01*
X-19569Y111355D01*
X-19612Y111008D01*
X-19668Y110669D01*
X-19736Y110339D01*
X-19908Y109704D01*
X-20130Y109103D01*
X-20401Y108536D01*
X-20722Y108003D01*
X-21092Y107504D01*
X-21503Y107052D01*
X-21721Y106848D01*
X-21948Y106660D01*
X-22184Y106487D01*
X-22428Y106329D01*
X-22680Y106185D01*
X-22941Y106057D01*
X-23211Y105944D01*
X-23489Y105846D01*
X-23775Y105764D01*
X-24070Y105696D01*
X-24373Y105643D01*
X-24685Y105605D01*
X-25005Y105583D01*
X-25334Y105575D01*
G37*
%LPC*%
G36*
X-27473Y108977D02*
X-27208Y108994D01*
X-26955Y109047D01*
X-26715Y109134D01*
X-26487Y109257D01*
X-26272Y109415D01*
X-26070Y109608D01*
X-25880Y109836D01*
X-25703Y110099D01*
X-25542Y110389D01*
X-25403Y110699D01*
X-25286Y111029D01*
X-25190Y111378D01*
X-25115Y111748D01*
X-25062Y112137D01*
X-25029Y112545D01*
X-25019Y112974D01*
X-25032Y113451D01*
X-25072Y113899D01*
X-25140Y114318D01*
X-25234Y114710D01*
X-25354Y115072D01*
X-25502Y115407D01*
X-25677Y115712D01*
X-25878Y115990D01*
X-26100Y116236D01*
X-26337Y116450D01*
X-26589Y116631D01*
X-26855Y116778D01*
X-27137Y116894D01*
X-27433Y116976D01*
X-27744Y117025D01*
X-28069Y117041D01*
X-28331Y117032D01*
X-28591Y117002D01*
X-28848Y116953D01*
X-29104Y116884D01*
X-29350Y116795D01*
X-29582Y116686D01*
X-29797Y116558D01*
X-29998Y116410D01*
X-30489Y111606D01*
X-30253Y111111D01*
X-29967Y110642D01*
X-29631Y110199D01*
X-29296Y109839D01*
X-29244Y109783D01*
X-29036Y109594D01*
X-28824Y109430D01*
X-28609Y109292D01*
X-28389Y109178D01*
X-28166Y109090D01*
X-27939Y109027D01*
X-27708Y108989D01*
X-27473Y108977D01*
G37*
%LPD*%
G36*
X-43007Y105295D02*
X-43199Y105304D01*
X-43371Y105331D01*
X-43523Y105376D01*
X-43656Y105439D01*
X-43769Y105521D01*
X-43862Y105620D01*
X-43935Y105738D01*
X-43989Y105873D01*
X-44040Y106009D01*
X-44107Y106126D01*
X-44189Y106226D01*
X-44287Y106307D01*
X-44400Y106371D01*
X-44528Y106416D01*
X-44671Y106443D01*
X-44830Y106452D01*
X-45145Y106423D01*
X-45527Y106338D01*
X-45978Y106195D01*
X-46496Y105996D01*
X-46780Y105889D01*
X-47080Y105797D01*
X-47396Y105718D01*
X-47728Y105654D01*
X-48075Y105604D01*
X-48439Y105569D01*
X-48818Y105547D01*
X-49213Y105540D01*
X-49553Y105547D01*
X-49889Y105567D01*
X-50221Y105599D01*
X-50548Y105645D01*
X-51191Y105777D01*
X-51817Y105961D01*
X-52427Y106198D01*
X-53020Y106487D01*
X-53597Y106829D01*
X-54158Y107223D01*
X-54425Y107440D01*
X-54675Y107668D01*
X-54908Y107908D01*
X-55124Y108159D01*
X-55322Y108423D01*
X-55504Y108698D01*
X-55668Y108985D01*
X-55814Y109283D01*
X-55944Y109594D01*
X-56056Y109916D01*
X-56151Y110250D01*
X-56229Y110596D01*
X-56289Y110954D01*
X-56332Y111323D01*
X-56358Y111704D01*
X-56367Y112097D01*
X-56358Y112511D01*
X-56333Y112911D01*
X-56291Y113297D01*
X-56232Y113669D01*
X-56156Y114027D01*
X-56063Y114370D01*
X-55954Y114700D01*
X-55827Y115016D01*
X-55684Y115318D01*
X-55524Y115607D01*
X-55347Y115881D01*
X-55154Y116141D01*
X-54943Y116387D01*
X-54716Y116619D01*
X-54471Y116837D01*
X-54210Y117041D01*
X-53104Y117822D01*
X-51944Y118584D01*
X-50729Y119329D01*
X-49459Y120057D01*
X-47749Y121030D01*
X-46408Y121845D01*
X-46137Y122038D01*
X-45902Y122249D01*
X-45703Y122476D01*
X-45540Y122722D01*
X-45414Y122985D01*
X-45323Y123265D01*
X-45269Y123563D01*
X-45251Y123879D01*
X-45261Y124127D01*
X-45291Y124361D01*
X-45340Y124583D01*
X-45409Y124791D01*
X-45498Y124986D01*
X-45606Y125168D01*
X-45734Y125336D01*
X-45882Y125492D01*
X-46046Y125632D01*
X-46220Y125753D01*
X-46405Y125855D01*
X-46601Y125939D01*
X-46808Y126004D01*
X-47026Y126051D01*
X-47255Y126079D01*
X-47495Y126088D01*
X-47812Y126073D01*
X-48132Y126029D01*
X-48454Y125955D01*
X-48779Y125851D01*
X-49107Y125718D01*
X-49438Y125556D01*
X-49771Y125363D01*
X-50108Y125141D01*
X-50790Y124622D01*
X-51488Y124011D01*
X-52202Y123307D01*
X-52930Y122512D01*
X-53294Y122161D01*
X-53614Y121880D01*
X-53771Y121773D01*
X-53943Y121696D01*
X-54130Y121650D01*
X-54333Y121635D01*
X-54504Y121650D01*
X-54666Y121696D01*
X-54819Y121773D01*
X-54964Y121880D01*
X-55087Y122018D01*
X-55174Y122187D01*
X-55227Y122387D01*
X-55245Y122617D01*
X-55229Y122795D01*
X-55183Y123016D01*
X-55106Y123277D01*
X-54999Y123581D01*
X-54438Y125001D01*
X-53246Y127596D01*
X-52957Y128192D01*
X-52650Y128718D01*
X-52566Y128833D01*
X-52472Y128933D01*
X-52369Y129017D01*
X-52255Y129086D01*
X-52132Y129140D01*
X-51999Y129178D01*
X-51856Y129201D01*
X-51703Y129209D01*
X-51559Y129202D01*
X-51424Y129180D01*
X-51298Y129145D01*
X-51181Y129095D01*
X-51074Y129031D01*
X-50977Y128952D01*
X-50809Y128753D01*
X-50654Y128554D01*
X-50489Y128411D01*
X-50312Y128326D01*
X-50220Y128304D01*
X-50125Y128297D01*
X-49897Y128324D01*
X-49599Y128402D01*
X-49231Y128534D01*
X-48793Y128718D01*
X-48547Y128817D01*
X-48284Y128902D01*
X-48004Y128974D01*
X-47706Y129034D01*
X-47390Y129080D01*
X-47057Y129112D01*
X-46706Y129132D01*
X-46338Y129139D01*
X-46025Y129132D01*
X-45718Y129112D01*
X-45417Y129078D01*
X-45122Y129030D01*
X-44832Y128969D01*
X-44548Y128895D01*
X-43998Y128705D01*
X-43470Y128461D01*
X-42965Y128162D01*
X-42484Y127810D01*
X-42025Y127403D01*
X-41606Y126953D01*
X-41243Y126471D01*
X-41082Y126217D01*
X-40935Y125956D01*
X-40803Y125686D01*
X-40684Y125409D01*
X-40579Y125123D01*
X-40488Y124829D01*
X-40411Y124528D01*
X-40349Y124218D01*
X-40300Y123900D01*
X-40265Y123574D01*
X-40244Y123239D01*
X-40237Y122897D01*
X-40245Y122509D01*
X-40268Y122133D01*
X-40308Y121769D01*
X-40363Y121417D01*
X-40434Y121077D01*
X-40520Y120750D01*
X-40623Y120435D01*
X-40741Y120132D01*
X-40875Y119841D01*
X-41024Y119562D01*
X-41190Y119296D01*
X-41371Y119041D01*
X-41568Y118799D01*
X-41781Y118569D01*
X-42009Y118352D01*
X-42253Y118146D01*
X-42765Y117752D01*
X-43293Y117367D01*
X-43837Y116991D01*
X-44396Y116625D01*
X-44972Y116268D01*
X-45563Y115920D01*
X-46794Y115253D01*
X-47791Y114738D01*
X-48679Y114245D01*
X-49457Y113774D01*
X-50125Y113325D01*
X-50413Y113096D01*
X-50662Y112847D01*
X-50873Y112578D01*
X-51046Y112290D01*
X-51180Y111982D01*
X-51276Y111655D01*
X-51333Y111307D01*
X-51352Y110940D01*
X-51340Y110674D01*
X-51303Y110419D01*
X-51241Y110174D01*
X-51155Y109941D01*
X-51044Y109718D01*
X-50909Y109507D01*
X-50748Y109306D01*
X-50563Y109117D01*
X-50359Y108944D01*
X-50139Y108795D01*
X-49905Y108668D01*
X-49656Y108565D01*
X-49392Y108484D01*
X-49114Y108426D01*
X-48820Y108392D01*
X-48512Y108380D01*
X-48036Y108403D01*
X-47571Y108469D01*
X-47117Y108580D01*
X-46676Y108735D01*
X-46245Y108935D01*
X-45826Y109179D01*
X-45419Y109468D01*
X-45023Y109801D01*
X-44251Y110545D01*
X-43493Y111357D01*
X-42752Y112236D01*
X-42025Y113184D01*
X-41788Y113478D01*
X-41499Y113798D01*
X-41333Y113944D01*
X-41149Y114048D01*
X-40947Y114110D01*
X-40728Y114131D01*
X-40523Y114112D01*
X-40329Y114057D01*
X-40146Y113963D01*
X-39974Y113833D01*
X-39828Y113668D01*
X-39724Y113469D01*
X-39662Y113238D01*
X-39641Y112974D01*
X-39654Y112764D01*
X-39693Y112518D01*
X-39759Y112238D01*
X-39851Y111922D01*
X-40447Y110099D01*
X-41499Y107013D01*
X-41736Y106426D01*
X-42025Y105856D01*
X-42110Y105724D01*
X-42205Y105610D01*
X-42311Y105514D01*
X-42428Y105435D01*
X-42557Y105374D01*
X-42696Y105330D01*
X-42846Y105304D01*
X-43007Y105295D01*
G37*
G36*
X-61521Y105295D02*
X-61713Y105304D01*
X-61886Y105331D01*
X-62040Y105376D01*
X-62174Y105439D01*
X-62290Y105521D01*
X-62386Y105620D01*
X-62463Y105738D01*
X-62520Y105873D01*
X-62576Y106009D01*
X-62646Y106126D01*
X-62732Y106226D01*
X-62832Y106307D01*
X-62946Y106371D01*
X-63076Y106416D01*
X-63220Y106443D01*
X-63380Y106452D01*
X-63680Y106423D01*
X-64055Y106338D01*
X-64504Y106195D01*
X-65028Y105996D01*
X-65316Y105889D01*
X-65619Y105797D01*
X-65938Y105718D01*
X-66272Y105654D01*
X-66622Y105604D01*
X-66987Y105569D01*
X-67367Y105547D01*
X-67763Y105540D01*
X-68098Y105547D01*
X-68430Y105567D01*
X-68758Y105599D01*
X-69083Y105645D01*
X-69721Y105777D01*
X-70344Y105961D01*
X-70953Y106198D01*
X-71546Y106487D01*
X-72125Y106829D01*
X-72689Y107223D01*
X-72959Y107440D01*
X-73211Y107668D01*
X-73446Y107908D01*
X-73663Y108159D01*
X-73863Y108423D01*
X-74046Y108698D01*
X-74211Y108985D01*
X-74359Y109283D01*
X-74490Y109594D01*
X-74603Y109916D01*
X-74698Y110250D01*
X-74777Y110596D01*
X-74838Y110954D01*
X-74881Y111323D01*
X-74907Y111704D01*
X-74916Y112097D01*
X-74907Y112511D01*
X-74882Y112911D01*
X-74840Y113297D01*
X-74781Y113669D01*
X-74705Y114027D01*
X-74613Y114370D01*
X-74503Y114700D01*
X-74377Y115016D01*
X-74234Y115318D01*
X-74073Y115607D01*
X-73897Y115881D01*
X-73703Y116141D01*
X-73492Y116387D01*
X-73265Y116619D01*
X-73020Y116837D01*
X-72759Y117041D01*
X-71652Y117822D01*
X-70485Y118584D01*
X-69258Y119329D01*
X-67973Y120057D01*
X-66268Y121030D01*
X-64940Y121845D01*
X-64673Y122038D01*
X-64441Y122249D01*
X-64245Y122476D01*
X-64085Y122722D01*
X-63961Y122985D01*
X-63872Y123265D01*
X-63818Y123563D01*
X-63800Y123879D01*
X-63810Y124127D01*
X-63840Y124361D01*
X-63889Y124583D01*
X-63958Y124791D01*
X-64047Y124986D01*
X-64155Y125168D01*
X-64284Y125336D01*
X-64431Y125492D01*
X-64595Y125632D01*
X-64769Y125753D01*
X-64954Y125855D01*
X-65150Y125939D01*
X-65357Y126004D01*
X-65575Y126051D01*
X-65804Y126079D01*
X-66044Y126088D01*
X-66361Y126073D01*
X-66680Y126029D01*
X-67001Y125955D01*
X-67324Y125851D01*
X-67650Y125718D01*
X-67977Y125556D01*
X-68307Y125363D01*
X-68639Y125141D01*
X-69316Y124622D01*
X-70016Y124011D01*
X-70737Y123307D01*
X-71479Y122512D01*
X-71821Y122161D01*
X-72146Y121880D01*
X-72310Y121773D01*
X-72488Y121696D01*
X-72678Y121650D01*
X-72882Y121635D01*
X-73038Y121650D01*
X-73189Y121696D01*
X-73336Y121773D01*
X-73478Y121880D01*
X-73601Y122018D01*
X-73689Y122187D01*
X-73741Y122387D01*
X-73759Y122617D01*
X-73744Y122795D01*
X-73702Y123016D01*
X-73630Y123277D01*
X-73531Y123581D01*
X-73272Y124260D01*
X-72952Y125001D01*
X-71795Y127596D01*
X-71501Y128192D01*
X-71181Y128718D01*
X-70998Y128933D01*
X-70895Y129017D01*
X-70783Y129086D01*
X-70662Y129140D01*
X-70534Y129178D01*
X-70397Y129201D01*
X-70252Y129209D01*
X-70108Y129202D01*
X-69972Y129180D01*
X-69845Y129145D01*
X-69726Y129095D01*
X-69617Y129031D01*
X-69516Y128952D01*
X-69341Y128753D01*
X-69181Y128554D01*
X-69016Y128411D01*
X-68847Y128326D01*
X-68761Y128304D01*
X-68674Y128297D01*
X-68432Y128324D01*
X-68126Y128402D01*
X-67757Y128534D01*
X-67324Y128718D01*
X-67083Y128817D01*
X-66824Y128902D01*
X-66546Y128974D01*
X-66250Y129034D01*
X-65937Y129080D01*
X-65605Y129112D01*
X-65255Y129132D01*
X-64887Y129139D01*
X-64575Y129132D01*
X-64268Y129112D01*
X-63966Y129078D01*
X-63671Y129030D01*
X-63381Y128969D01*
X-63097Y128895D01*
X-62547Y128705D01*
X-62019Y128461D01*
X-61515Y128162D01*
X-61033Y127810D01*
X-60574Y127403D01*
X-60155Y126953D01*
X-59792Y126471D01*
X-59631Y126217D01*
X-59485Y125956D01*
X-59352Y125686D01*
X-59233Y125409D01*
X-59128Y125123D01*
X-59038Y124829D01*
X-58961Y124528D01*
X-58898Y124218D01*
X-58849Y123900D01*
X-58814Y123574D01*
X-58793Y123239D01*
X-58786Y122897D01*
X-58794Y122509D01*
X-58818Y122133D01*
X-58857Y121769D01*
X-58912Y121417D01*
X-58983Y121077D01*
X-59070Y120750D01*
X-59172Y120435D01*
X-59290Y120132D01*
X-59424Y119841D01*
X-59574Y119562D01*
X-59739Y119296D01*
X-59920Y119041D01*
X-60117Y118799D01*
X-60330Y118569D01*
X-60558Y118352D01*
X-60802Y118146D01*
X-61840Y117367D01*
X-62937Y116625D01*
X-64093Y115920D01*
X-65308Y115253D01*
X-66306Y114738D01*
X-67197Y114245D01*
X-67981Y113774D01*
X-68657Y113325D01*
X-68949Y113096D01*
X-69201Y112847D01*
X-69415Y112578D01*
X-69590Y112290D01*
X-69727Y111982D01*
X-69824Y111655D01*
X-69882Y111307D01*
X-69902Y110940D01*
X-69889Y110674D01*
X-69851Y110419D01*
X-69788Y110174D01*
X-69700Y109941D01*
X-69587Y109718D01*
X-69448Y109507D01*
X-69284Y109306D01*
X-69095Y109117D01*
X-68886Y108944D01*
X-68663Y108795D01*
X-68426Y108668D01*
X-68175Y108565D01*
X-67909Y108484D01*
X-67629Y108426D01*
X-67335Y108392D01*
X-67026Y108380D01*
X-66550Y108403D01*
X-66086Y108469D01*
X-65634Y108580D01*
X-65194Y108735D01*
X-64766Y108935D01*
X-64350Y109179D01*
X-63947Y109468D01*
X-63555Y109801D01*
X-62790Y110545D01*
X-62038Y111357D01*
X-61300Y112236D01*
X-60574Y113184D01*
X-60013Y113798D01*
X-59849Y113944D01*
X-59671Y114048D01*
X-59481Y114110D01*
X-59277Y114131D01*
X-59072Y114112D01*
X-58878Y114057D01*
X-58695Y113963D01*
X-58523Y113833D01*
X-58377Y113668D01*
X-58273Y113469D01*
X-58211Y113238D01*
X-58190Y112974D01*
X-58202Y112764D01*
X-58238Y112518D01*
X-58298Y112238D01*
X-58383Y111922D01*
X-58633Y111133D01*
X-58996Y110099D01*
X-60048Y107013D01*
X-60146Y106717D01*
X-60263Y106426D01*
X-60400Y106139D01*
X-60557Y105856D01*
X-60645Y105724D01*
X-60742Y105610D01*
X-60849Y105514D01*
X-60964Y105435D01*
X-61090Y105374D01*
X-61224Y105330D01*
X-61368Y105304D01*
X-61521Y105295D01*
G37*
G36*
X71129Y105891D02*
X70735Y105897D01*
X70352Y105916D01*
X69980Y105948D01*
X69619Y105992D01*
X69268Y106048D01*
X68928Y106118D01*
X68598Y106200D01*
X68280Y106294D01*
X67972Y106401D01*
X67674Y106521D01*
X67388Y106653D01*
X67112Y106798D01*
X66846Y106956D01*
X66592Y107126D01*
X66348Y107309D01*
X66114Y107504D01*
X65677Y107908D01*
X65275Y108313D01*
X64910Y108719D01*
X64580Y109126D01*
X64287Y109534D01*
X64030Y109943D01*
X63809Y110353D01*
X63625Y110765D01*
X63528Y111116D01*
X63449Y111466D01*
X63397Y111808D01*
X63379Y112132D01*
X63394Y112320D01*
X63436Y112496D01*
X63508Y112662D01*
X63607Y112816D01*
X63729Y112947D01*
X63866Y113040D01*
X64018Y113096D01*
X64186Y113114D01*
X64322Y113107D01*
X64449Y113084D01*
X64567Y113045D01*
X64677Y112991D01*
X64782Y112916D01*
X64887Y112812D01*
X64992Y112679D01*
X65098Y112518D01*
X65476Y111964D01*
X65873Y111457D01*
X66291Y110999D01*
X66728Y110590D01*
X66956Y110409D01*
X67192Y110252D01*
X67436Y110119D01*
X67688Y110011D01*
X67948Y109927D01*
X68217Y109866D01*
X68494Y109830D01*
X68779Y109818D01*
X69066Y109829D01*
X69349Y109862D01*
X69627Y109917D01*
X69901Y109993D01*
X70171Y110092D01*
X70436Y110213D01*
X70697Y110355D01*
X70953Y110519D01*
X71196Y110695D01*
X71431Y110890D01*
X71660Y111103D01*
X71883Y111335D01*
X72098Y111585D01*
X72308Y111854D01*
X72707Y112448D01*
X72894Y112772D01*
X73070Y113112D01*
X73236Y113469D01*
X73390Y113842D01*
X73534Y114231D01*
X73666Y114637D01*
X73788Y115060D01*
X73899Y115499D01*
X74006Y115952D01*
X74098Y116419D01*
X74177Y116899D01*
X74241Y117392D01*
X74291Y117898D01*
X74326Y118418D01*
X74347Y118950D01*
X74355Y119496D01*
X74342Y120325D01*
X74304Y121112D01*
X74241Y121857D01*
X74153Y122560D01*
X74040Y123220D01*
X73901Y123839D01*
X73737Y124415D01*
X73548Y124949D01*
X73337Y125429D01*
X73108Y125846D01*
X72859Y126199D01*
X72593Y126487D01*
X72307Y126711D01*
X72157Y126799D01*
X72003Y126872D01*
X71844Y126928D01*
X71680Y126968D01*
X71512Y126992D01*
X71339Y127000D01*
X71142Y126992D01*
X70954Y126969D01*
X70774Y126931D01*
X70604Y126877D01*
X70442Y126808D01*
X70290Y126724D01*
X70146Y126624D01*
X70011Y126509D01*
X69885Y126379D01*
X69768Y126233D01*
X69561Y125895D01*
X69389Y125496D01*
X69253Y125036D01*
X69030Y124052D01*
X68836Y123064D01*
X68671Y122071D01*
X68534Y121074D01*
X68485Y120778D01*
X68407Y120522D01*
X68300Y120305D01*
X68166Y120127D01*
X68009Y119989D01*
X67837Y119890D01*
X67650Y119831D01*
X67447Y119812D01*
X67292Y119819D01*
X67144Y119842D01*
X67003Y119881D01*
X66868Y119934D01*
X66729Y120012D01*
X66575Y120123D01*
X66220Y120443D01*
X65649Y121032D01*
X65163Y121609D01*
X64763Y122172D01*
X64595Y122449D01*
X64449Y122722D01*
X64211Y123246D01*
X64041Y123730D01*
X63982Y123957D01*
X63939Y124175D01*
X63914Y124383D01*
X63905Y124580D01*
X63913Y124770D01*
X63936Y124962D01*
X63975Y125156D01*
X64029Y125352D01*
X64184Y125751D01*
X64401Y126158D01*
X64679Y126575D01*
X65020Y127000D01*
X65422Y127434D01*
X65886Y127876D01*
X66398Y128296D01*
X66667Y128484D01*
X66944Y128659D01*
X67229Y128819D01*
X67523Y128966D01*
X67825Y129099D01*
X68135Y129218D01*
X68454Y129322D01*
X68781Y129413D01*
X69116Y129490D01*
X69460Y129553D01*
X69812Y129602D01*
X70172Y129637D01*
X70541Y129658D01*
X70918Y129665D01*
X71354Y129651D01*
X71786Y129610D01*
X72213Y129541D01*
X72636Y129446D01*
X73055Y129322D01*
X73469Y129172D01*
X73879Y128994D01*
X74284Y128788D01*
X74690Y128557D01*
X75084Y128304D01*
X75466Y128027D01*
X75836Y127727D01*
X76194Y127405D01*
X76540Y127059D01*
X76873Y126690D01*
X77195Y126299D01*
X77503Y125885D01*
X77795Y125450D01*
X78073Y124995D01*
X78334Y124519D01*
X78581Y124022D01*
X78812Y123504D01*
X79028Y122966D01*
X79229Y122406D01*
X79409Y121837D01*
X79566Y121249D01*
X79699Y120644D01*
X79807Y120022D01*
X79892Y119382D01*
X79952Y118725D01*
X79988Y118050D01*
X80000Y117357D01*
X79990Y116683D01*
X79958Y116029D01*
X79906Y115394D01*
X79833Y114780D01*
X79740Y114185D01*
X79625Y113609D01*
X79490Y113054D01*
X79334Y112518D01*
X79159Y111994D01*
X78968Y111490D01*
X78760Y111008D01*
X78536Y110546D01*
X78296Y110105D01*
X78039Y109684D01*
X77765Y109285D01*
X77475Y108906D01*
X77171Y108549D01*
X76853Y108214D01*
X76522Y107901D01*
X76178Y107609D01*
X75821Y107339D01*
X75450Y107092D01*
X75067Y106866D01*
X74670Y106662D01*
X74262Y106481D01*
X73844Y106325D01*
X73416Y106192D01*
X72978Y106084D01*
X72531Y105999D01*
X72073Y105939D01*
X71606Y105903D01*
X71129Y105891D01*
G37*
G36*
X49564Y105049D02*
X48938Y105065D01*
X48321Y105111D01*
X47715Y105187D01*
X47118Y105295D01*
X46531Y105433D01*
X45954Y105602D01*
X45387Y105801D01*
X44830Y106031D01*
X44286Y106279D01*
X43760Y106548D01*
X43250Y106840D01*
X42757Y107153D01*
X42281Y107489D01*
X41822Y107846D01*
X41380Y108225D01*
X40955Y108626D01*
X40550Y109047D01*
X40168Y109487D01*
X39807Y109946D01*
X39470Y110423D01*
X39154Y110919D01*
X38861Y111433D01*
X38591Y111966D01*
X38343Y112518D01*
X38121Y113075D01*
X37929Y113642D01*
X37766Y114219D01*
X37633Y114806D01*
X37530Y115403D01*
X37456Y116009D01*
X37411Y116626D01*
X37396Y117252D01*
X37408Y117801D01*
X37442Y118342D01*
X37500Y118877D01*
X37581Y119404D01*
X37684Y119924D01*
X37811Y120437D01*
X37960Y120943D01*
X38133Y121442D01*
X38326Y121931D01*
X38538Y122407D01*
X38769Y122871D01*
X39018Y123322D01*
X39286Y123761D01*
X39573Y124187D01*
X39878Y124600D01*
X40202Y125001D01*
X41429Y123178D01*
X40998Y122531D01*
X40618Y121854D01*
X40288Y121146D01*
X40009Y120408D01*
X39890Y120029D01*
X39786Y119645D01*
X39699Y119257D01*
X39627Y118865D01*
X39572Y118468D01*
X39532Y118067D01*
X39508Y117662D01*
X39500Y117252D01*
X39513Y116730D01*
X39551Y116217D01*
X39614Y115713D01*
X39702Y115218D01*
X39815Y114732D01*
X39954Y114254D01*
X40118Y113785D01*
X40307Y113325D01*
X40509Y112876D01*
X40730Y112441D01*
X40969Y112021D01*
X41227Y111615D01*
X41504Y111223D01*
X41799Y110846D01*
X42113Y110483D01*
X42446Y110134D01*
X42795Y109801D01*
X43160Y109485D01*
X43540Y109187D01*
X43936Y108906D01*
X44347Y108643D01*
X44773Y108398D01*
X45215Y108170D01*
X45672Y107960D01*
X46131Y107779D01*
X46599Y107622D01*
X47074Y107490D01*
X47556Y107381D01*
X48047Y107297D01*
X48545Y107236D01*
X49051Y107200D01*
X49564Y107188D01*
X50085Y107200D01*
X50598Y107236D01*
X51102Y107297D01*
X51598Y107381D01*
X52084Y107490D01*
X52562Y107622D01*
X53031Y107779D01*
X53491Y107960D01*
X53940Y108170D01*
X54215Y108314D01*
X54374Y108398D01*
X54795Y108643D01*
X55201Y108906D01*
X55592Y109187D01*
X55970Y109485D01*
X56333Y109801D01*
X56682Y110134D01*
X57015Y110483D01*
X57331Y110846D01*
X57629Y111223D01*
X57909Y111615D01*
X58172Y112021D01*
X58418Y112441D01*
X58646Y112876D01*
X58856Y113325D01*
X59037Y113785D01*
X59194Y114254D01*
X59326Y114732D01*
X59435Y115218D01*
X59519Y115713D01*
X59579Y116217D01*
X59615Y116730D01*
X59627Y117252D01*
X59615Y117765D01*
X59579Y118271D01*
X59519Y118769D01*
X59435Y119259D01*
X59326Y119742D01*
X59194Y120217D01*
X59037Y120684D01*
X58856Y121144D01*
X58646Y121601D01*
X58418Y122043D01*
X58172Y122469D01*
X57909Y122880D01*
X57629Y123275D01*
X57331Y123656D01*
X57015Y124020D01*
X56682Y124370D01*
X56333Y124703D01*
X55970Y125016D01*
X55592Y125312D01*
X55201Y125588D01*
X54795Y125847D01*
X54374Y126086D01*
X53940Y126307D01*
X53491Y126509D01*
X53031Y126698D01*
X52562Y126862D01*
X52084Y127000D01*
X51598Y127114D01*
X51102Y127202D01*
X50598Y127265D01*
X50085Y127303D01*
X49564Y127315D01*
X49092Y127304D01*
X48622Y127272D01*
X48154Y127217D01*
X47688Y127140D01*
X47229Y127041D01*
X46781Y126921D01*
X46343Y126778D01*
X45917Y126614D01*
X44725Y128402D01*
X45277Y128634D01*
X45847Y128836D01*
X46434Y129011D01*
X47039Y129156D01*
X47657Y129271D01*
X48284Y129354D01*
X48920Y129403D01*
X49564Y129419D01*
X50191Y129404D01*
X50809Y129360D01*
X51418Y129286D01*
X52018Y129183D01*
X52610Y129049D01*
X53193Y128887D01*
X53767Y128694D01*
X54333Y128473D01*
X54876Y128225D01*
X55402Y127954D01*
X55911Y127661D01*
X56401Y127346D01*
X56875Y127008D01*
X57331Y126648D01*
X57769Y126265D01*
X58190Y125860D01*
X58591Y125435D01*
X58970Y124993D01*
X59327Y124535D01*
X59663Y124059D01*
X59976Y123566D01*
X60267Y123056D01*
X60537Y122529D01*
X60785Y121986D01*
X61015Y121428D01*
X61214Y120861D01*
X61383Y120284D01*
X61521Y119698D01*
X61628Y119101D01*
X61705Y118494D01*
X61751Y117878D01*
X61766Y117252D01*
X61751Y116626D01*
X61705Y116009D01*
X61628Y115403D01*
X61521Y114806D01*
X61383Y114219D01*
X61214Y113642D01*
X61015Y113075D01*
X60785Y112518D01*
X60537Y111966D01*
X60267Y111433D01*
X59976Y110919D01*
X59663Y110423D01*
X59327Y109946D01*
X58970Y109487D01*
X58591Y109047D01*
X58190Y108626D01*
X57769Y108225D01*
X57331Y107846D01*
X56875Y107489D01*
X56401Y107153D01*
X55911Y106840D01*
X55402Y106548D01*
X55092Y106390D01*
X54876Y106279D01*
X54333Y106031D01*
X53767Y105801D01*
X53193Y105602D01*
X52610Y105433D01*
X52018Y105295D01*
X51418Y105187D01*
X50809Y105111D01*
X50191Y105065D01*
X49564Y105049D01*
G37*
G36*
X49529Y107925D02*
X49050Y107936D01*
X48578Y107971D01*
X48112Y108028D01*
X47653Y108109D01*
X47200Y108212D01*
X46754Y108339D01*
X46315Y108488D01*
X45882Y108661D01*
X45460Y108853D01*
X45051Y109062D01*
X44658Y109287D01*
X44278Y109529D01*
X43912Y109787D01*
X43561Y110061D01*
X43224Y110352D01*
X42902Y110660D01*
X42594Y110982D01*
X42301Y111319D01*
X42024Y111671D01*
X41762Y112036D01*
X41515Y112416D01*
X41284Y112810D01*
X41068Y113218D01*
X40868Y113640D01*
X40695Y114074D01*
X40546Y114515D01*
X40419Y114963D01*
X40316Y115420D01*
X40235Y115884D01*
X40177Y116355D01*
X40143Y116835D01*
X40131Y117322D01*
X40139Y117705D01*
X40162Y118085D01*
X40201Y118459D01*
X40254Y118830D01*
X40323Y119196D01*
X40408Y119557D01*
X40507Y119915D01*
X40622Y120267D01*
X40890Y120953D01*
X41201Y121609D01*
X41556Y122233D01*
X41955Y122827D01*
X43568Y120443D01*
X43387Y120087D01*
X43230Y119720D01*
X43098Y119341D01*
X42989Y118952D01*
X42905Y118555D01*
X42845Y118150D01*
X42808Y117739D01*
X42796Y117322D01*
X42804Y116975D01*
X42827Y116634D01*
X42866Y116299D01*
X42920Y115971D01*
X42990Y115649D01*
X43075Y115334D01*
X43176Y115025D01*
X43292Y114723D01*
X43423Y114427D01*
X43570Y114137D01*
X43733Y113854D01*
X43911Y113578D01*
X44313Y113044D01*
X44778Y112536D01*
X45285Y112071D01*
X45817Y111669D01*
X46093Y111491D01*
X46374Y111328D01*
X46662Y111181D01*
X46956Y111050D01*
X47256Y110934D01*
X47562Y110833D01*
X47875Y110748D01*
X48193Y110678D01*
X48518Y110624D01*
X48849Y110585D01*
X49186Y110562D01*
X49529Y110554D01*
X49876Y110562D01*
X50217Y110585D01*
X50552Y110624D01*
X50880Y110678D01*
X51202Y110748D01*
X51517Y110833D01*
X51826Y110934D01*
X52128Y111050D01*
X52424Y111181D01*
X52713Y111328D01*
X52814Y111386D01*
X52996Y111491D01*
X53273Y111669D01*
X53807Y112071D01*
X54315Y112536D01*
X54779Y113044D01*
X55182Y113578D01*
X55360Y113854D01*
X55522Y114137D01*
X55669Y114427D01*
X55801Y114723D01*
X55917Y115025D01*
X56018Y115334D01*
X56103Y115649D01*
X56172Y115971D01*
X56227Y116299D01*
X56265Y116634D01*
X56289Y116975D01*
X56296Y117322D01*
X56289Y117665D01*
X56265Y118002D01*
X56227Y118333D01*
X56172Y118658D01*
X56103Y118976D01*
X56018Y119289D01*
X55917Y119595D01*
X55801Y119895D01*
X55669Y120189D01*
X55522Y120476D01*
X55360Y120758D01*
X55182Y121033D01*
X54779Y121566D01*
X54315Y122073D01*
X53807Y122538D01*
X53273Y122940D01*
X52996Y123118D01*
X52713Y123280D01*
X52424Y123428D01*
X52128Y123559D01*
X51826Y123675D01*
X51517Y123776D01*
X51202Y123861D01*
X50880Y123931D01*
X50552Y123985D01*
X50217Y124023D01*
X49876Y124047D01*
X49529Y124054D01*
X49047Y124041D01*
X48582Y124002D01*
X48126Y123927D01*
X47670Y123809D01*
X46128Y126053D01*
X46534Y126202D01*
X46947Y126334D01*
X47367Y126448D01*
X47793Y126544D01*
X48224Y126621D01*
X48657Y126675D01*
X49092Y126708D01*
X49529Y126719D01*
X50016Y126708D01*
X50495Y126673D01*
X50967Y126616D01*
X51431Y126535D01*
X51887Y126432D01*
X52336Y126305D01*
X52777Y126156D01*
X53211Y125983D01*
X53633Y125790D01*
X54041Y125581D01*
X54435Y125354D01*
X54815Y125111D01*
X55180Y124850D01*
X55531Y124573D01*
X55868Y124278D01*
X56191Y123967D01*
X56498Y123640D01*
X56789Y123299D01*
X57064Y122945D01*
X57322Y122577D01*
X57564Y122196D01*
X57789Y121800D01*
X57997Y121391D01*
X58190Y120969D01*
X58371Y120536D01*
X58527Y120096D01*
X58660Y119650D01*
X58768Y119198D01*
X58853Y118739D01*
X58913Y118273D01*
X58949Y117801D01*
X58961Y117322D01*
X58949Y116835D01*
X58913Y116355D01*
X58853Y115884D01*
X58768Y115420D01*
X58660Y114963D01*
X58527Y114515D01*
X58371Y114074D01*
X58190Y113640D01*
X57997Y113218D01*
X57789Y112810D01*
X57564Y112416D01*
X57322Y112036D01*
X57064Y111671D01*
X56789Y111319D01*
X56498Y110982D01*
X56191Y110660D01*
X55868Y110352D01*
X55531Y110061D01*
X55180Y109787D01*
X54815Y109529D01*
X54435Y109287D01*
X54041Y109062D01*
X53905Y108993D01*
X53633Y108853D01*
X53211Y108661D01*
X52777Y108488D01*
X52336Y108339D01*
X51887Y108212D01*
X51431Y108109D01*
X50967Y108028D01*
X50495Y107971D01*
X50016Y107936D01*
X49529Y107925D01*
G37*
G36*
X51876Y111776D02*
X51668Y111799D01*
X51468Y111860D01*
X51291Y111953D01*
X51135Y112079D01*
X51002Y112238D01*
X37572Y132014D01*
X37470Y132195D01*
X37410Y132387D01*
X37391Y132589D01*
X37414Y132803D01*
X37474Y133010D01*
X37567Y133193D01*
X37693Y133352D01*
X37852Y133487D01*
X38033Y133589D01*
X38225Y133649D01*
X38428Y133668D01*
X38641Y133645D01*
X38848Y133584D01*
X39031Y133491D01*
X39190Y133365D01*
X39325Y133206D01*
X41140Y130533D01*
X50101Y117338D01*
X52755Y113430D01*
X52857Y113249D01*
X52917Y113057D01*
X52936Y112854D01*
X52913Y112641D01*
X52852Y112434D01*
X52759Y112251D01*
X52633Y112092D01*
X52532Y112006D01*
X52474Y111957D01*
X52279Y111855D01*
X52080Y111795D01*
X51876Y111776D01*
G37*
G36*
X59836Y99784D02*
X59627Y99807D01*
X59428Y99867D01*
X59250Y99961D01*
X59095Y100087D01*
X58961Y100245D01*
X55735Y104979D01*
X57488Y106171D01*
X60714Y101438D01*
X60816Y101257D01*
X60877Y101065D01*
X60895Y100862D01*
X60872Y100649D01*
X60812Y100442D01*
X60719Y100259D01*
X60593Y100100D01*
X60434Y99965D01*
X60239Y99863D01*
X60039Y99803D01*
X59836Y99784D01*
G37*
G36*
X-99014Y89820D02*
X-99261Y89832D01*
X-99493Y89869D01*
X-99709Y89930D01*
X-99909Y90015D01*
X-100094Y90125D01*
X-100264Y90259D01*
X-100418Y90418D01*
X-100556Y90601D01*
X-100679Y90807D01*
X-100785Y91035D01*
X-100874Y91284D01*
X-100948Y91556D01*
X-101005Y91850D01*
X-101046Y92165D01*
X-101070Y92503D01*
X-101079Y92862D01*
X-101071Y93227D01*
X-101047Y93569D01*
X-101009Y93888D01*
X-100954Y94184D01*
X-100884Y94457D01*
X-100799Y94707D01*
X-100698Y94933D01*
X-100581Y95137D01*
X-100448Y95317D01*
X-100298Y95473D01*
X-100131Y95605D01*
X-99947Y95713D01*
X-99746Y95797D01*
X-99527Y95857D01*
X-99292Y95893D01*
X-99039Y95905D01*
X-98780Y95893D01*
X-98538Y95857D01*
X-98315Y95798D01*
X-98109Y95715D01*
X-97922Y95608D01*
X-97752Y95477D01*
X-97601Y95323D01*
X-97468Y95145D01*
X-97351Y94943D01*
X-97250Y94718D01*
X-97165Y94468D01*
X-97095Y94195D01*
X-97040Y93897D01*
X-97002Y93576D01*
X-96978Y93231D01*
X-96970Y92862D01*
X-96978Y92501D01*
X-97002Y92162D01*
X-97042Y91845D01*
X-97098Y91551D01*
X-97170Y91279D01*
X-97258Y91029D01*
X-97362Y90802D01*
X-97482Y90596D01*
X-97618Y90414D01*
X-97770Y90257D01*
X-97938Y90123D01*
X-98121Y90014D01*
X-98321Y89929D01*
X-98536Y89869D01*
X-98767Y89832D01*
X-99014Y89820D01*
G37*
%LPC*%
G36*
X-99022Y90437D02*
X-98860Y90446D01*
X-98709Y90473D01*
X-98570Y90519D01*
X-98442Y90583D01*
X-98325Y90665D01*
X-98219Y90765D01*
X-98125Y90883D01*
X-98043Y91020D01*
X-97970Y91177D01*
X-97908Y91354D01*
X-97855Y91553D01*
X-97811Y91772D01*
X-97753Y92275D01*
X-97734Y92862D01*
X-97753Y93465D01*
X-97810Y93976D01*
X-97853Y94198D01*
X-97905Y94397D01*
X-97967Y94572D01*
X-98038Y94725D01*
X-98121Y94858D01*
X-98215Y94973D01*
X-98322Y95071D01*
X-98441Y95150D01*
X-98572Y95212D01*
X-98715Y95256D01*
X-98871Y95283D01*
X-99039Y95292D01*
X-99203Y95283D01*
X-99355Y95256D01*
X-99495Y95211D01*
X-99623Y95148D01*
X-99739Y95067D01*
X-99843Y94969D01*
X-99935Y94852D01*
X-100015Y94717D01*
X-100084Y94562D01*
X-100144Y94386D01*
X-100237Y93966D01*
X-100292Y93458D01*
X-100311Y92862D01*
X-100291Y92285D01*
X-100233Y91788D01*
X-100136Y91371D01*
X-100073Y91192D01*
X-100000Y91033D01*
X-99917Y90893D01*
X-99823Y90772D01*
X-99717Y90670D01*
X-99600Y90586D01*
X-99473Y90521D01*
X-99334Y90474D01*
X-99184Y90446D01*
X-99022Y90437D01*
G37*
%LPD*%
G36*
X-87089Y89820D02*
X-87325Y89827D01*
X-87548Y89849D01*
X-87756Y89884D01*
X-87949Y89934D01*
X-88129Y89999D01*
X-88294Y90077D01*
X-88446Y90170D01*
X-88583Y90277D01*
X-88705Y90397D01*
X-88811Y90529D01*
X-88900Y90671D01*
X-88973Y90825D01*
X-89030Y90990D01*
X-89071Y91167D01*
X-89095Y91354D01*
X-89103Y91553D01*
X-89084Y91833D01*
X-89025Y92088D01*
X-88926Y92318D01*
X-88789Y92525D01*
X-88773Y92540D01*
X-88615Y92700D01*
X-88411Y92839D01*
X-88175Y92940D01*
X-87907Y93005D01*
X-87907Y93022D01*
X-88138Y93088D01*
X-88343Y93189D01*
X-88513Y93318D01*
X-88522Y93325D01*
X-88675Y93496D01*
X-88798Y93693D01*
X-88886Y93906D01*
X-88939Y94136D01*
X-88956Y94381D01*
X-88948Y94552D01*
X-88925Y94714D01*
X-88885Y94866D01*
X-88830Y95010D01*
X-88759Y95144D01*
X-88672Y95270D01*
X-88569Y95386D01*
X-88451Y95493D01*
X-88319Y95590D01*
X-88175Y95673D01*
X-88020Y95744D01*
X-87853Y95802D01*
X-87675Y95847D01*
X-87486Y95879D01*
X-87285Y95898D01*
X-87072Y95905D01*
X-86865Y95898D01*
X-86668Y95878D01*
X-86482Y95846D01*
X-86307Y95800D01*
X-86143Y95741D01*
X-85989Y95668D01*
X-85847Y95583D01*
X-85715Y95485D01*
X-85596Y95376D01*
X-85494Y95259D01*
X-85407Y95134D01*
X-85336Y95001D01*
X-85280Y94860D01*
X-85241Y94711D01*
X-85217Y94555D01*
X-85209Y94390D01*
X-85227Y94144D01*
X-85279Y93914D01*
X-85366Y93701D01*
X-85488Y93504D01*
X-85641Y93332D01*
X-85818Y93193D01*
X-86021Y93087D01*
X-86250Y93013D01*
X-86250Y92997D01*
X-86003Y92935D01*
X-85780Y92835D01*
X-85580Y92696D01*
X-85402Y92518D01*
X-85257Y92309D01*
X-85154Y92078D01*
X-85091Y91823D01*
X-85071Y91545D01*
X-85079Y91344D01*
X-85104Y91155D01*
X-85146Y90978D01*
X-85204Y90812D01*
X-85280Y90659D01*
X-85372Y90517D01*
X-85480Y90387D01*
X-85606Y90269D01*
X-85746Y90164D01*
X-85899Y90073D01*
X-86065Y89995D01*
X-86244Y89932D01*
X-86436Y89883D01*
X-86641Y89848D01*
X-86858Y89827D01*
X-87089Y89820D01*
G37*
%LPC*%
G36*
X-87097Y90387D02*
X-86805Y90406D01*
X-86552Y90463D01*
X-86338Y90558D01*
X-86163Y90692D01*
X-86026Y90864D01*
X-85929Y91073D01*
X-85871Y91321D01*
X-85851Y91608D01*
X-85871Y91856D01*
X-85932Y92076D01*
X-86033Y92268D01*
X-86174Y92432D01*
X-86352Y92563D01*
X-86560Y92657D01*
X-86801Y92713D01*
X-87072Y92732D01*
X-87352Y92715D01*
X-87598Y92662D01*
X-87811Y92575D01*
X-87991Y92453D01*
X-88134Y92297D01*
X-88237Y92106D01*
X-88298Y91882D01*
X-88319Y91624D01*
X-88300Y91323D01*
X-88243Y91066D01*
X-88149Y90852D01*
X-88016Y90682D01*
X-87846Y90553D01*
X-87636Y90461D01*
X-87386Y90405D01*
X-87097Y90387D01*
G37*
G36*
X-87081Y93299D02*
X-86833Y93315D01*
X-86615Y93365D01*
X-86427Y93449D01*
X-86269Y93565D01*
X-86143Y93713D01*
X-86053Y93892D01*
X-85999Y94101D01*
X-85981Y94339D01*
X-85999Y94574D01*
X-86051Y94777D01*
X-86138Y94949D01*
X-86260Y95090D01*
X-86416Y95201D01*
X-86603Y95279D01*
X-86822Y95326D01*
X-87072Y95342D01*
X-87330Y95327D01*
X-87553Y95280D01*
X-87742Y95201D01*
X-87897Y95092D01*
X-88017Y94950D01*
X-88103Y94778D01*
X-88155Y94574D01*
X-88172Y94339D01*
X-88154Y94084D01*
X-88102Y93866D01*
X-88015Y93686D01*
X-87893Y93544D01*
X-87737Y93437D01*
X-87550Y93360D01*
X-87331Y93314D01*
X-87081Y93299D01*
G37*
%LPD*%
G36*
X-30724Y89820D02*
X-30967Y89829D01*
X-31194Y89857D01*
X-31407Y89902D01*
X-31605Y89966D01*
X-31788Y90048D01*
X-31956Y90148D01*
X-32109Y90267D01*
X-32248Y90403D01*
X-32371Y90559D01*
X-32477Y90733D01*
X-32567Y90926D01*
X-32641Y91139D01*
X-32698Y91370D01*
X-32739Y91620D01*
X-32764Y91890D01*
X-32772Y92178D01*
X-32764Y92470D01*
X-32741Y92741D01*
X-32703Y92993D01*
X-32649Y93225D01*
X-32580Y93437D01*
X-32496Y93630D01*
X-32396Y93802D01*
X-32281Y93955D01*
X-32150Y94090D01*
X-32001Y94206D01*
X-31836Y94304D01*
X-31653Y94385D01*
X-31453Y94448D01*
X-31236Y94492D01*
X-31001Y94519D01*
X-30750Y94528D01*
X-30503Y94519D01*
X-30273Y94491D01*
X-30058Y94446D01*
X-29859Y94381D01*
X-29676Y94299D01*
X-29509Y94198D01*
X-29358Y94078D01*
X-29223Y93941D01*
X-29104Y93785D01*
X-29001Y93610D01*
X-28913Y93418D01*
X-28842Y93206D01*
X-28786Y92977D01*
X-28746Y92729D01*
X-28722Y92463D01*
X-28714Y92178D01*
X-28722Y91900D01*
X-28746Y91639D01*
X-28786Y91395D01*
X-28841Y91168D01*
X-28913Y90957D01*
X-29000Y90763D01*
X-29103Y90586D01*
X-29222Y90426D01*
X-29357Y90284D01*
X-29506Y90161D01*
X-29671Y90057D01*
X-29852Y89972D01*
X-30047Y89905D01*
X-30258Y89858D01*
X-30483Y89830D01*
X-30724Y89820D01*
G37*
%LPC*%
G36*
X-30716Y90378D02*
X-30565Y90385D01*
X-30424Y90406D01*
X-30294Y90442D01*
X-30174Y90491D01*
X-30065Y90554D01*
X-29966Y90632D01*
X-29877Y90724D01*
X-29799Y90829D01*
X-29672Y91083D01*
X-29580Y91392D01*
X-29526Y91757D01*
X-29507Y92178D01*
X-29526Y92609D01*
X-29581Y92979D01*
X-29674Y93288D01*
X-29803Y93536D01*
X-29883Y93638D01*
X-29974Y93726D01*
X-30077Y93800D01*
X-30191Y93862D01*
X-30317Y93909D01*
X-30454Y93943D01*
X-30602Y93963D01*
X-30762Y93970D01*
X-30921Y93963D01*
X-31068Y93943D01*
X-31203Y93910D01*
X-31326Y93864D01*
X-31437Y93804D01*
X-31537Y93731D01*
X-31624Y93644D01*
X-31700Y93544D01*
X-31822Y93299D01*
X-31909Y92990D01*
X-31962Y92616D01*
X-31979Y92178D01*
X-31961Y91745D01*
X-31906Y91374D01*
X-31815Y91063D01*
X-31687Y90815D01*
X-31608Y90712D01*
X-31517Y90624D01*
X-31414Y90549D01*
X-31299Y90487D01*
X-31171Y90440D01*
X-31032Y90405D01*
X-30880Y90385D01*
X-30716Y90378D01*
G37*
%LPD*%
G36*
X-52997Y89820D02*
X-53261Y89834D01*
X-53505Y89874D01*
X-53728Y89942D01*
X-53931Y90036D01*
X-54117Y90163D01*
X-54291Y90328D01*
X-54453Y90531D01*
X-54604Y90773D01*
X-54629Y90773D01*
X-54652Y90553D01*
X-54696Y90365D01*
X-54760Y90208D01*
X-54845Y90082D01*
X-54955Y89986D01*
X-55094Y89917D01*
X-55260Y89876D01*
X-55456Y89862D01*
X-55751Y89879D01*
X-56039Y89929D01*
X-56039Y90399D01*
X-55792Y90370D01*
X-55678Y90380D01*
X-55584Y90412D01*
X-55510Y90465D01*
X-55456Y90540D01*
X-55417Y90635D01*
X-55390Y90751D01*
X-55368Y91045D01*
X-55368Y93001D01*
X-55361Y93181D01*
X-55341Y93350D01*
X-55307Y93509D01*
X-55260Y93656D01*
X-55199Y93792D01*
X-55125Y93918D01*
X-55037Y94032D01*
X-54936Y94136D01*
X-54821Y94228D01*
X-54693Y94307D01*
X-54552Y94375D01*
X-54397Y94430D01*
X-54230Y94473D01*
X-54049Y94504D01*
X-53855Y94522D01*
X-53647Y94528D01*
X-53263Y94509D01*
X-52923Y94452D01*
X-52628Y94356D01*
X-52378Y94222D01*
X-52173Y94050D01*
X-52012Y93839D01*
X-51897Y93590D01*
X-51826Y93303D01*
X-52615Y93232D01*
X-52650Y93408D01*
X-52707Y93558D01*
X-52788Y93682D01*
X-52892Y93781D01*
X-53025Y93857D01*
X-53192Y93910D01*
X-53394Y93943D01*
X-53631Y93953D01*
X-53866Y93938D01*
X-54067Y93894D01*
X-54235Y93819D01*
X-54369Y93714D01*
X-54472Y93575D01*
X-54545Y93396D01*
X-54589Y93178D01*
X-54604Y92921D01*
X-54604Y92673D01*
X-53584Y92657D01*
X-53104Y92622D01*
X-52890Y92588D01*
X-52694Y92543D01*
X-52516Y92488D01*
X-52356Y92421D01*
X-52213Y92343D01*
X-52089Y92254D01*
X-51980Y92154D01*
X-51886Y92045D01*
X-51806Y91925D01*
X-51741Y91794D01*
X-51690Y91654D01*
X-51654Y91503D01*
X-51632Y91342D01*
X-51625Y91171D01*
X-51646Y90873D01*
X-51711Y90609D01*
X-51818Y90378D01*
X-51969Y90181D01*
X-52162Y90023D01*
X-52398Y89910D01*
X-52676Y89843D01*
X-52997Y89820D01*
G37*
%LPC*%
G36*
X-53169Y90387D02*
X-52995Y90399D01*
X-52842Y90437D01*
X-52711Y90500D01*
X-52600Y90588D01*
X-52513Y90699D01*
X-52451Y90831D01*
X-52414Y90985D01*
X-52401Y91159D01*
X-52410Y91320D01*
X-52438Y91466D01*
X-52484Y91595D01*
X-52548Y91708D01*
X-52629Y91806D01*
X-52727Y91891D01*
X-52840Y91962D01*
X-52970Y92019D01*
X-53123Y92063D01*
X-53309Y92096D01*
X-53527Y92118D01*
X-53777Y92128D01*
X-54604Y92145D01*
X-54604Y91771D01*
X-54592Y91598D01*
X-54557Y91428D01*
X-54499Y91259D01*
X-54417Y91094D01*
X-54316Y90938D01*
X-54197Y90799D01*
X-54061Y90679D01*
X-53908Y90575D01*
X-53740Y90493D01*
X-53561Y90434D01*
X-53371Y90398D01*
X-53169Y90387D01*
G37*
%LPD*%
G36*
X-10497Y89820D02*
X-10761Y89834D01*
X-11005Y89874D01*
X-11228Y89942D01*
X-11431Y90036D01*
X-11617Y90163D01*
X-11791Y90328D01*
X-11953Y90531D01*
X-12104Y90773D01*
X-12129Y90773D01*
X-12152Y90553D01*
X-12196Y90365D01*
X-12260Y90208D01*
X-12345Y90082D01*
X-12455Y89986D01*
X-12594Y89917D01*
X-12760Y89876D01*
X-12956Y89862D01*
X-13251Y89879D01*
X-13539Y89929D01*
X-13539Y90399D01*
X-13292Y90370D01*
X-13178Y90380D01*
X-13084Y90412D01*
X-13010Y90465D01*
X-12956Y90540D01*
X-12917Y90635D01*
X-12890Y90751D01*
X-12868Y91045D01*
X-12868Y93001D01*
X-12861Y93181D01*
X-12841Y93350D01*
X-12807Y93509D01*
X-12760Y93656D01*
X-12699Y93792D01*
X-12625Y93918D01*
X-12537Y94032D01*
X-12436Y94136D01*
X-12321Y94228D01*
X-12193Y94307D01*
X-12052Y94375D01*
X-11897Y94430D01*
X-11730Y94473D01*
X-11549Y94504D01*
X-11355Y94522D01*
X-11147Y94528D01*
X-10763Y94509D01*
X-10423Y94452D01*
X-10128Y94356D01*
X-9878Y94222D01*
X-9673Y94050D01*
X-9512Y93839D01*
X-9397Y93590D01*
X-9326Y93303D01*
X-10115Y93232D01*
X-10150Y93408D01*
X-10207Y93558D01*
X-10288Y93682D01*
X-10392Y93781D01*
X-10525Y93857D01*
X-10692Y93910D01*
X-10894Y93943D01*
X-11131Y93953D01*
X-11366Y93938D01*
X-11567Y93894D01*
X-11735Y93819D01*
X-11869Y93714D01*
X-11972Y93575D01*
X-12045Y93396D01*
X-12089Y93178D01*
X-12104Y92921D01*
X-12104Y92673D01*
X-11084Y92657D01*
X-10604Y92622D01*
X-10390Y92588D01*
X-10194Y92543D01*
X-10016Y92488D01*
X-9856Y92421D01*
X-9713Y92343D01*
X-9589Y92254D01*
X-9480Y92154D01*
X-9386Y92045D01*
X-9306Y91925D01*
X-9241Y91794D01*
X-9190Y91654D01*
X-9154Y91503D01*
X-9132Y91342D01*
X-9125Y91171D01*
X-9146Y90873D01*
X-9211Y90609D01*
X-9318Y90378D01*
X-9469Y90181D01*
X-9662Y90023D01*
X-9898Y89910D01*
X-10176Y89843D01*
X-10497Y89820D01*
G37*
%LPC*%
G36*
X-10669Y90387D02*
X-10495Y90399D01*
X-10342Y90437D01*
X-10211Y90500D01*
X-10100Y90588D01*
X-10013Y90699D01*
X-9951Y90831D01*
X-9914Y90985D01*
X-9901Y91159D01*
X-9910Y91320D01*
X-9938Y91466D01*
X-9984Y91595D01*
X-10048Y91708D01*
X-10129Y91806D01*
X-10227Y91891D01*
X-10340Y91962D01*
X-10470Y92019D01*
X-10623Y92063D01*
X-10809Y92096D01*
X-11027Y92118D01*
X-11277Y92128D01*
X-12104Y92145D01*
X-12104Y91771D01*
X-12092Y91598D01*
X-12057Y91428D01*
X-11999Y91259D01*
X-11917Y91094D01*
X-11816Y90938D01*
X-11697Y90799D01*
X-11561Y90679D01*
X-11408Y90575D01*
X-11240Y90493D01*
X-11061Y90434D01*
X-10871Y90398D01*
X-10669Y90387D01*
G37*
%LPD*%
G36*
X-19386Y89904D02*
X-20133Y89904D01*
X-20133Y92929D01*
X-20114Y93325D01*
X-20055Y93662D01*
X-19957Y93938D01*
X-19894Y94054D01*
X-19821Y94155D01*
X-19641Y94318D01*
X-19414Y94435D01*
X-19140Y94505D01*
X-18820Y94528D01*
X-18592Y94516D01*
X-18381Y94478D01*
X-18188Y94415D01*
X-18012Y94327D01*
X-17851Y94210D01*
X-17703Y94061D01*
X-17567Y93881D01*
X-17443Y93668D01*
X-17431Y93668D01*
X-17361Y93877D01*
X-17268Y94056D01*
X-17152Y94205D01*
X-17013Y94323D01*
X-16850Y94413D01*
X-16659Y94477D01*
X-16442Y94515D01*
X-16197Y94528D01*
X-15979Y94516D01*
X-15779Y94481D01*
X-15595Y94422D01*
X-15429Y94339D01*
X-15276Y94227D01*
X-15132Y94077D01*
X-14997Y93891D01*
X-14871Y93668D01*
X-14859Y93668D01*
X-14844Y94119D01*
X-14833Y94331D01*
X-14825Y94444D01*
X-14112Y94444D01*
X-14131Y94114D01*
X-14137Y93475D01*
X-14137Y89904D01*
X-14888Y89904D01*
X-14888Y92535D01*
X-14906Y92852D01*
X-14958Y93131D01*
X-15046Y93372D01*
X-15169Y93576D01*
X-15322Y93737D01*
X-15501Y93853D01*
X-15704Y93922D01*
X-15933Y93945D01*
X-16150Y93929D01*
X-16330Y93882D01*
X-16475Y93803D01*
X-16583Y93693D01*
X-16662Y93542D01*
X-16719Y93340D01*
X-16752Y93087D01*
X-16764Y92783D01*
X-16764Y89904D01*
X-17511Y89904D01*
X-17511Y92535D01*
X-17528Y92854D01*
X-17579Y93133D01*
X-17665Y93375D01*
X-17785Y93578D01*
X-17937Y93738D01*
X-18115Y93853D01*
X-18322Y93922D01*
X-18555Y93945D01*
X-18772Y93929D01*
X-18953Y93882D01*
X-19098Y93803D01*
X-19206Y93693D01*
X-19285Y93542D01*
X-19341Y93340D01*
X-19375Y93087D01*
X-19386Y92783D01*
X-19386Y89904D01*
G37*
G36*
X-63248Y89820D02*
X-63592Y89837D01*
X-63905Y89887D01*
X-64185Y89971D01*
X-64432Y90089D01*
X-64647Y90240D01*
X-64830Y90424D01*
X-64980Y90643D01*
X-65098Y90894D01*
X-64435Y91083D01*
X-64371Y90939D01*
X-64283Y90807D01*
X-64170Y90689D01*
X-64034Y90584D01*
X-63874Y90497D01*
X-63690Y90436D01*
X-63481Y90399D01*
X-63248Y90387D01*
X-63097Y90393D01*
X-62956Y90413D01*
X-62824Y90446D01*
X-62701Y90493D01*
X-62588Y90552D01*
X-62484Y90625D01*
X-62304Y90810D01*
X-62162Y91045D01*
X-62061Y91323D01*
X-62001Y91647D01*
X-61980Y92015D01*
X-65220Y92015D01*
X-65220Y92115D01*
X-65212Y92408D01*
X-65189Y92681D01*
X-65149Y92935D01*
X-65095Y93171D01*
X-65024Y93388D01*
X-64938Y93586D01*
X-64837Y93765D01*
X-64719Y93925D01*
X-64587Y94066D01*
X-64438Y94189D01*
X-64274Y94293D01*
X-64094Y94377D01*
X-63899Y94443D01*
X-63687Y94490D01*
X-63461Y94519D01*
X-63218Y94528D01*
X-62981Y94519D01*
X-62758Y94491D01*
X-62548Y94444D01*
X-62353Y94378D01*
X-62172Y94294D01*
X-62005Y94191D01*
X-61853Y94069D01*
X-61714Y93928D01*
X-61591Y93770D01*
X-61484Y93595D01*
X-61393Y93404D01*
X-61319Y93197D01*
X-61261Y92973D01*
X-61220Y92733D01*
X-61196Y92476D01*
X-61187Y92203D01*
X-61196Y91917D01*
X-61220Y91648D01*
X-61261Y91398D01*
X-61319Y91166D01*
X-61393Y90952D01*
X-61484Y90757D01*
X-61591Y90579D01*
X-61714Y90420D01*
X-61853Y90279D01*
X-62007Y90158D01*
X-62176Y90054D01*
X-62361Y89970D01*
X-62560Y89904D01*
X-62774Y89858D01*
X-63003Y89829D01*
X-63248Y89820D01*
G37*
%LPC*%
G36*
X-61989Y92594D02*
X-62020Y92898D01*
X-62088Y93167D01*
X-62193Y93402D01*
X-62335Y93603D01*
X-62510Y93764D01*
X-62713Y93878D01*
X-62945Y93947D01*
X-63206Y93970D01*
X-63472Y93949D01*
X-63706Y93888D01*
X-63907Y93785D01*
X-64074Y93641D01*
X-64210Y93452D01*
X-64317Y93214D01*
X-64393Y92928D01*
X-64439Y92594D01*
X-61989Y92594D01*
G37*
%LPD*%
G36*
X-23123Y89820D02*
X-23467Y89837D01*
X-23780Y89887D01*
X-24060Y89971D01*
X-24307Y90089D01*
X-24522Y90240D01*
X-24705Y90424D01*
X-24855Y90643D01*
X-24973Y90894D01*
X-24310Y91083D01*
X-24246Y90939D01*
X-24158Y90807D01*
X-24045Y90689D01*
X-23909Y90584D01*
X-23749Y90497D01*
X-23565Y90436D01*
X-23356Y90399D01*
X-23123Y90387D01*
X-22972Y90393D01*
X-22831Y90413D01*
X-22699Y90446D01*
X-22576Y90493D01*
X-22463Y90552D01*
X-22359Y90625D01*
X-22179Y90810D01*
X-22037Y91045D01*
X-21936Y91323D01*
X-21876Y91647D01*
X-21855Y92015D01*
X-25095Y92015D01*
X-25095Y92115D01*
X-25087Y92408D01*
X-25064Y92681D01*
X-25024Y92935D01*
X-24970Y93171D01*
X-24899Y93388D01*
X-24813Y93586D01*
X-24712Y93765D01*
X-24594Y93925D01*
X-24462Y94066D01*
X-24313Y94189D01*
X-24149Y94293D01*
X-23969Y94377D01*
X-23774Y94443D01*
X-23562Y94490D01*
X-23336Y94519D01*
X-23093Y94528D01*
X-22856Y94519D01*
X-22633Y94491D01*
X-22423Y94444D01*
X-22228Y94378D01*
X-22047Y94294D01*
X-21880Y94191D01*
X-21728Y94069D01*
X-21589Y93928D01*
X-21466Y93770D01*
X-21359Y93595D01*
X-21268Y93404D01*
X-21194Y93197D01*
X-21136Y92973D01*
X-21095Y92733D01*
X-21071Y92476D01*
X-21062Y92203D01*
X-21071Y91917D01*
X-21095Y91648D01*
X-21136Y91398D01*
X-21194Y91166D01*
X-21268Y90952D01*
X-21359Y90757D01*
X-21466Y90579D01*
X-21589Y90420D01*
X-21728Y90279D01*
X-21882Y90158D01*
X-22051Y90054D01*
X-22236Y89970D01*
X-22435Y89904D01*
X-22649Y89858D01*
X-22878Y89829D01*
X-23123Y89820D01*
G37*
%LPC*%
G36*
X-21864Y92594D02*
X-21895Y92898D01*
X-21963Y93167D01*
X-22068Y93402D01*
X-22210Y93603D01*
X-22385Y93764D01*
X-22588Y93878D01*
X-22820Y93947D01*
X-23081Y93970D01*
X-23347Y93949D01*
X-23581Y93888D01*
X-23782Y93785D01*
X-23949Y93641D01*
X-24085Y93452D01*
X-24192Y93214D01*
X-24268Y92928D01*
X-24314Y92594D01*
X-21864Y92594D01*
G37*
%LPD*%
G36*
X-43610Y89820D02*
X-43825Y89826D01*
X-44033Y89845D01*
X-44430Y89920D01*
X-44800Y90044D01*
X-45144Y90219D01*
X-45456Y90441D01*
X-45731Y90709D01*
X-45969Y91022D01*
X-46170Y91381D01*
X-45515Y91708D01*
X-45349Y91420D01*
X-45164Y91170D01*
X-44960Y90959D01*
X-44736Y90786D01*
X-44493Y90652D01*
X-44230Y90556D01*
X-43949Y90498D01*
X-43648Y90479D01*
X-43412Y90489D01*
X-43188Y90520D01*
X-42977Y90572D01*
X-42779Y90644D01*
X-42593Y90737D01*
X-42419Y90851D01*
X-42258Y90985D01*
X-42110Y91140D01*
X-41977Y91312D01*
X-41861Y91497D01*
X-41764Y91695D01*
X-41684Y91907D01*
X-41621Y92132D01*
X-41577Y92371D01*
X-41550Y92622D01*
X-41541Y92887D01*
X-41550Y93155D01*
X-41576Y93408D01*
X-41618Y93646D01*
X-41678Y93870D01*
X-41755Y94079D01*
X-41848Y94273D01*
X-41959Y94453D01*
X-42087Y94618D01*
X-42230Y94766D01*
X-42387Y94895D01*
X-42557Y95003D01*
X-42742Y95092D01*
X-42939Y95161D01*
X-43151Y95210D01*
X-43376Y95240D01*
X-43614Y95250D01*
X-43916Y95233D01*
X-44197Y95182D01*
X-44457Y95096D01*
X-44695Y94977D01*
X-44907Y94826D01*
X-45088Y94644D01*
X-45237Y94431D01*
X-45356Y94188D01*
X-46115Y94440D01*
X-45945Y94781D01*
X-45733Y95077D01*
X-45480Y95328D01*
X-45184Y95535D01*
X-44848Y95697D01*
X-44473Y95812D01*
X-44059Y95881D01*
X-43606Y95905D01*
X-43277Y95892D01*
X-42967Y95854D01*
X-42675Y95792D01*
X-42402Y95704D01*
X-42147Y95591D01*
X-41910Y95454D01*
X-41691Y95291D01*
X-41491Y95103D01*
X-41312Y94893D01*
X-41157Y94664D01*
X-41026Y94416D01*
X-40918Y94148D01*
X-40835Y93862D01*
X-40775Y93556D01*
X-40739Y93231D01*
X-40727Y92887D01*
X-40749Y92431D01*
X-40813Y92007D01*
X-40920Y91614D01*
X-41069Y91253D01*
X-41260Y90928D01*
X-41489Y90643D01*
X-41757Y90397D01*
X-42064Y90191D01*
X-42405Y90029D01*
X-42777Y89913D01*
X-43178Y89843D01*
X-43610Y89820D01*
G37*
G36*
X-5891Y89820D02*
X-6106Y89826D01*
X-6315Y89845D01*
X-6711Y89920D01*
X-7081Y90044D01*
X-7425Y90219D01*
X-7737Y90441D01*
X-8012Y90709D01*
X-8250Y91022D01*
X-8451Y91381D01*
X-7797Y91708D01*
X-7631Y91420D01*
X-7445Y91170D01*
X-7241Y90959D01*
X-7017Y90786D01*
X-6774Y90652D01*
X-6512Y90556D01*
X-6230Y90498D01*
X-5929Y90479D01*
X-5693Y90489D01*
X-5470Y90520D01*
X-5259Y90572D01*
X-5060Y90644D01*
X-4874Y90737D01*
X-4701Y90851D01*
X-4540Y90985D01*
X-4391Y91140D01*
X-4258Y91312D01*
X-4143Y91497D01*
X-4045Y91695D01*
X-3965Y91907D01*
X-3903Y92132D01*
X-3858Y92371D01*
X-3832Y92622D01*
X-3823Y92887D01*
X-3831Y93155D01*
X-3857Y93408D01*
X-3899Y93646D01*
X-3959Y93870D01*
X-4036Y94079D01*
X-4130Y94273D01*
X-4240Y94453D01*
X-4368Y94618D01*
X-4511Y94766D01*
X-4668Y94895D01*
X-4839Y95003D01*
X-5023Y95092D01*
X-5221Y95161D01*
X-5432Y95210D01*
X-5657Y95240D01*
X-5896Y95250D01*
X-6198Y95233D01*
X-6478Y95182D01*
X-6738Y95096D01*
X-6976Y94977D01*
X-7188Y94826D01*
X-7369Y94644D01*
X-7519Y94431D01*
X-7637Y94188D01*
X-8397Y94440D01*
X-8227Y94781D01*
X-8015Y95077D01*
X-7761Y95328D01*
X-7465Y95535D01*
X-7129Y95697D01*
X-6754Y95812D01*
X-6340Y95881D01*
X-5887Y95905D01*
X-5559Y95892D01*
X-5248Y95854D01*
X-4956Y95792D01*
X-4683Y95704D01*
X-4428Y95591D01*
X-4191Y95454D01*
X-3972Y95291D01*
X-3772Y95103D01*
X-3593Y94893D01*
X-3438Y94664D01*
X-3307Y94416D01*
X-3200Y94148D01*
X-3116Y93862D01*
X-3056Y93556D01*
X-3021Y93231D01*
X-3009Y92887D01*
X-3030Y92431D01*
X-3094Y92007D01*
X-3201Y91614D01*
X-3351Y91253D01*
X-3541Y90928D01*
X-3770Y90643D01*
X-4038Y90397D01*
X-4345Y90191D01*
X-4686Y90029D01*
X-5058Y89913D01*
X-5460Y89843D01*
X-5891Y89820D01*
G37*
G36*
X-108518Y89820D02*
X-108758Y89829D01*
X-108984Y89854D01*
X-109197Y89896D01*
X-109396Y89954D01*
X-109582Y90030D01*
X-109755Y90122D01*
X-109914Y90231D01*
X-110060Y90357D01*
X-110190Y90498D01*
X-110303Y90651D01*
X-110399Y90816D01*
X-110477Y90994D01*
X-110538Y91184D01*
X-110581Y91387D01*
X-110607Y91602D01*
X-110616Y91830D01*
X-110608Y92031D01*
X-110583Y92222D01*
X-110543Y92403D01*
X-110486Y92575D01*
X-110413Y92737D01*
X-110324Y92889D01*
X-110219Y93032D01*
X-110098Y93164D01*
X-109963Y93284D01*
X-109816Y93388D01*
X-109659Y93476D01*
X-109491Y93548D01*
X-109311Y93604D01*
X-109121Y93644D01*
X-108919Y93668D01*
X-108707Y93676D01*
X-108356Y93653D01*
X-108036Y93582D01*
X-107746Y93464D01*
X-107486Y93299D01*
X-107599Y95174D01*
X-110272Y95174D01*
X-110272Y95816D01*
X-106911Y95816D01*
X-106713Y92636D01*
X-107452Y92636D01*
X-107716Y92833D01*
X-107981Y92963D01*
X-108256Y93035D01*
X-108551Y93060D01*
X-108830Y93038D01*
X-109078Y92973D01*
X-109297Y92866D01*
X-109485Y92715D01*
X-109636Y92530D01*
X-109745Y92318D01*
X-109810Y92079D01*
X-109831Y91813D01*
X-109810Y91509D01*
X-109745Y91240D01*
X-109638Y91005D01*
X-109487Y90804D01*
X-109299Y90643D01*
X-109077Y90529D01*
X-108822Y90460D01*
X-108535Y90437D01*
X-108299Y90451D01*
X-108086Y90492D01*
X-107897Y90560D01*
X-107732Y90656D01*
X-107590Y90779D01*
X-107472Y90930D01*
X-107377Y91108D01*
X-107305Y91314D01*
X-106541Y91226D01*
X-106632Y90904D01*
X-106769Y90623D01*
X-106953Y90382D01*
X-107183Y90181D01*
X-107457Y90023D01*
X-107771Y89910D01*
X-108124Y89843D01*
X-108518Y89820D01*
G37*
G36*
X-49940Y89904D02*
X-50700Y89904D01*
X-50700Y92929D01*
X-50678Y93331D01*
X-50612Y93670D01*
X-50563Y93816D01*
X-50503Y93946D01*
X-50432Y94061D01*
X-50349Y94161D01*
X-50256Y94247D01*
X-50150Y94322D01*
X-49902Y94436D01*
X-49606Y94505D01*
X-49261Y94528D01*
X-49010Y94515D01*
X-48782Y94476D01*
X-48576Y94411D01*
X-48394Y94320D01*
X-48229Y94202D01*
X-48077Y94053D01*
X-47937Y93876D01*
X-47809Y93668D01*
X-47796Y93668D01*
X-47815Y93983D01*
X-47830Y94511D01*
X-47830Y96131D01*
X-47074Y96131D01*
X-47074Y89904D01*
X-47830Y89904D01*
X-47830Y92581D01*
X-47850Y92878D01*
X-47910Y93142D01*
X-48010Y93375D01*
X-48151Y93576D01*
X-48324Y93737D01*
X-48525Y93853D01*
X-48751Y93922D01*
X-49005Y93945D01*
X-49173Y93938D01*
X-49322Y93918D01*
X-49452Y93884D01*
X-49563Y93836D01*
X-49656Y93774D01*
X-49736Y93696D01*
X-49801Y93603D01*
X-49852Y93494D01*
X-49891Y93362D01*
X-49918Y93200D01*
X-49935Y93006D01*
X-49940Y92783D01*
X-49940Y89904D01*
G37*
G36*
X-101848Y89904D02*
X-105763Y89904D01*
X-105763Y90546D01*
X-102679Y90546D01*
X-102752Y90694D01*
X-102845Y90846D01*
X-103090Y91157D01*
X-103425Y91493D01*
X-103858Y91868D01*
X-104594Y92488D01*
X-105046Y92921D01*
X-105318Y93261D01*
X-105425Y93431D01*
X-105514Y93601D01*
X-105582Y93771D01*
X-105632Y93942D01*
X-105661Y94113D01*
X-105671Y94285D01*
X-105663Y94473D01*
X-105641Y94651D01*
X-105603Y94817D01*
X-105551Y94972D01*
X-105483Y95117D01*
X-105401Y95250D01*
X-105303Y95372D01*
X-105190Y95483D01*
X-105064Y95582D01*
X-104924Y95667D01*
X-104772Y95740D01*
X-104607Y95799D01*
X-104428Y95845D01*
X-104237Y95878D01*
X-104033Y95898D01*
X-103816Y95905D01*
X-103617Y95898D01*
X-103428Y95878D01*
X-103247Y95846D01*
X-103076Y95800D01*
X-102914Y95741D01*
X-102762Y95668D01*
X-102484Y95485D01*
X-102252Y95257D01*
X-102156Y95129D01*
X-102074Y94993D01*
X-102006Y94847D01*
X-101951Y94693D01*
X-101910Y94529D01*
X-101882Y94356D01*
X-102654Y94285D01*
X-102697Y94509D01*
X-102773Y94706D01*
X-102881Y94877D01*
X-103021Y95021D01*
X-103188Y95136D01*
X-103376Y95218D01*
X-103586Y95267D01*
X-103816Y95283D01*
X-104056Y95267D01*
X-104268Y95216D01*
X-104453Y95132D01*
X-104609Y95015D01*
X-104734Y94867D01*
X-104823Y94692D01*
X-104877Y94489D01*
X-104895Y94260D01*
X-104884Y94084D01*
X-104853Y93918D01*
X-104801Y93761D01*
X-104729Y93613D01*
X-104537Y93334D01*
X-104295Y93068D01*
X-104010Y92808D01*
X-103692Y92548D01*
X-103019Y91983D01*
X-102687Y91661D01*
X-102371Y91303D01*
X-102222Y91108D01*
X-102086Y90899D01*
X-101961Y90675D01*
X-101848Y90437D01*
X-101848Y89904D01*
G37*
G36*
X-92286Y89904D02*
X-96201Y89904D01*
X-96201Y90546D01*
X-93117Y90546D01*
X-93189Y90694D01*
X-93282Y90846D01*
X-93528Y91157D01*
X-93862Y91493D01*
X-94296Y91868D01*
X-95031Y92488D01*
X-95483Y92921D01*
X-95755Y93261D01*
X-95863Y93431D01*
X-95951Y93601D01*
X-96020Y93771D01*
X-96069Y93942D01*
X-96099Y94113D01*
X-96108Y94285D01*
X-96101Y94473D01*
X-96078Y94651D01*
X-96041Y94817D01*
X-95988Y94972D01*
X-95921Y95117D01*
X-95838Y95250D01*
X-95741Y95372D01*
X-95628Y95483D01*
X-95501Y95582D01*
X-95362Y95667D01*
X-95210Y95740D01*
X-95044Y95799D01*
X-94866Y95845D01*
X-94675Y95878D01*
X-94471Y95898D01*
X-94254Y95905D01*
X-94055Y95898D01*
X-93865Y95878D01*
X-93685Y95846D01*
X-93514Y95800D01*
X-93352Y95741D01*
X-93199Y95668D01*
X-92921Y95485D01*
X-92689Y95257D01*
X-92594Y95129D01*
X-92512Y94993D01*
X-92443Y94847D01*
X-92388Y94693D01*
X-92347Y94529D01*
X-92319Y94356D01*
X-93091Y94285D01*
X-93135Y94509D01*
X-93210Y94706D01*
X-93318Y94877D01*
X-93459Y95021D01*
X-93625Y95136D01*
X-93814Y95218D01*
X-94023Y95267D01*
X-94254Y95283D01*
X-94494Y95267D01*
X-94706Y95216D01*
X-94890Y95132D01*
X-95047Y95015D01*
X-95172Y94867D01*
X-95261Y94692D01*
X-95314Y94489D01*
X-95332Y94260D01*
X-95322Y94084D01*
X-95291Y93918D01*
X-95239Y93761D01*
X-95166Y93613D01*
X-94975Y93334D01*
X-94732Y93068D01*
X-94447Y92808D01*
X-94130Y92548D01*
X-93456Y91983D01*
X-93124Y91661D01*
X-92808Y91303D01*
X-92660Y91108D01*
X-92523Y90899D01*
X-92399Y90675D01*
X-92286Y90437D01*
X-92286Y89904D01*
G37*
G36*
X-66405Y88121D02*
X-66587Y88132D01*
X-66759Y88164D01*
X-66922Y88219D01*
X-67074Y88295D01*
X-67219Y88393D01*
X-67357Y88514D01*
X-67489Y88658D01*
X-67613Y88824D01*
X-67738Y89024D01*
X-67866Y89271D01*
X-68138Y89904D01*
X-69884Y94444D01*
X-69086Y94444D01*
X-68092Y91553D01*
X-67798Y90726D01*
X-67626Y91247D01*
X-67437Y91794D01*
X-67387Y91935D01*
X-66430Y94444D01*
X-65625Y94444D01*
X-67425Y89925D01*
X-67353Y89745D01*
X-67246Y89502D01*
X-67129Y89291D01*
X-67004Y89113D01*
X-66869Y88967D01*
X-66725Y88854D01*
X-66571Y88773D01*
X-66409Y88724D01*
X-66237Y88708D01*
X-66053Y88714D01*
X-65885Y88733D01*
X-65885Y88167D01*
X-66120Y88132D01*
X-66405Y88121D01*
G37*
G36*
X-59503Y89904D02*
X-60262Y89904D01*
X-60262Y92929D01*
X-60241Y93327D01*
X-60176Y93664D01*
X-60127Y93810D01*
X-60068Y93941D01*
X-59997Y94056D01*
X-59916Y94157D01*
X-59823Y94244D01*
X-59718Y94319D01*
X-59600Y94383D01*
X-59470Y94435D01*
X-59327Y94476D01*
X-59172Y94505D01*
X-58823Y94528D01*
X-58580Y94516D01*
X-58357Y94479D01*
X-58155Y94418D01*
X-57973Y94333D01*
X-57807Y94218D01*
X-57652Y94069D01*
X-57506Y93886D01*
X-57371Y93668D01*
X-57359Y93668D01*
X-57344Y94119D01*
X-57333Y94331D01*
X-57325Y94444D01*
X-56612Y94444D01*
X-56631Y94114D01*
X-56637Y93475D01*
X-56637Y89904D01*
X-57392Y89904D01*
X-57392Y92535D01*
X-57412Y92848D01*
X-57471Y93126D01*
X-57569Y93367D01*
X-57707Y93571D01*
X-57879Y93735D01*
X-58079Y93852D01*
X-58309Y93922D01*
X-58567Y93945D01*
X-58743Y93938D01*
X-58895Y93918D01*
X-59026Y93884D01*
X-59134Y93836D01*
X-59224Y93773D01*
X-59300Y93692D01*
X-59364Y93594D01*
X-59415Y93479D01*
X-59453Y93343D01*
X-59481Y93181D01*
X-59497Y92994D01*
X-59503Y92783D01*
X-59503Y89904D01*
G37*
G36*
X-36597Y89904D02*
X-37356Y89904D01*
X-37356Y92929D01*
X-37334Y93327D01*
X-37270Y93664D01*
X-37221Y93810D01*
X-37161Y93941D01*
X-37091Y94056D01*
X-37010Y94157D01*
X-36917Y94244D01*
X-36812Y94319D01*
X-36694Y94383D01*
X-36564Y94435D01*
X-36421Y94476D01*
X-36265Y94505D01*
X-35917Y94528D01*
X-35673Y94516D01*
X-35451Y94479D01*
X-35248Y94418D01*
X-35067Y94333D01*
X-34901Y94218D01*
X-34746Y94069D01*
X-34600Y93886D01*
X-34465Y93668D01*
X-34452Y93668D01*
X-34438Y94119D01*
X-34427Y94331D01*
X-34419Y94444D01*
X-33705Y94444D01*
X-33724Y94114D01*
X-33731Y93475D01*
X-33731Y89904D01*
X-34486Y89904D01*
X-34486Y92535D01*
X-34506Y92848D01*
X-34565Y93126D01*
X-34663Y93367D01*
X-34801Y93571D01*
X-34972Y93735D01*
X-35173Y93852D01*
X-35403Y93922D01*
X-35661Y93945D01*
X-35836Y93938D01*
X-35989Y93918D01*
X-36120Y93884D01*
X-36227Y93836D01*
X-36317Y93773D01*
X-36394Y93692D01*
X-36458Y93594D01*
X-36508Y93479D01*
X-36547Y93343D01*
X-36575Y93181D01*
X-36591Y92994D01*
X-36597Y92783D01*
X-36597Y89904D01*
G37*
G36*
X-77487Y89820D02*
X-77663Y89826D01*
X-77832Y89844D01*
X-78145Y89918D01*
X-78428Y90040D01*
X-78678Y90210D01*
X-78889Y90422D01*
X-79053Y90667D01*
X-79168Y90944D01*
X-79236Y91255D01*
X-78473Y91306D01*
X-78428Y91094D01*
X-78358Y90911D01*
X-78261Y90758D01*
X-78139Y90634D01*
X-77995Y90539D01*
X-77835Y90470D01*
X-77659Y90430D01*
X-77466Y90416D01*
X-77326Y90423D01*
X-77196Y90443D01*
X-77075Y90477D01*
X-76963Y90525D01*
X-76860Y90586D01*
X-76766Y90661D01*
X-76605Y90852D01*
X-76480Y91100D01*
X-76391Y91406D01*
X-76338Y91771D01*
X-76320Y92195D01*
X-76337Y92633D01*
X-76387Y93003D01*
X-76471Y93304D01*
X-76589Y93538D01*
X-76744Y93712D01*
X-76940Y93837D01*
X-77054Y93880D01*
X-77178Y93912D01*
X-77312Y93930D01*
X-77457Y93937D01*
X-77665Y93923D01*
X-77847Y93881D01*
X-78005Y93811D01*
X-78137Y93714D01*
X-78245Y93593D01*
X-78331Y93453D01*
X-78394Y93293D01*
X-78435Y93114D01*
X-79211Y93173D01*
X-79131Y93473D01*
X-79008Y93738D01*
X-78843Y93970D01*
X-78634Y94167D01*
X-78390Y94325D01*
X-78115Y94438D01*
X-77812Y94506D01*
X-77478Y94528D01*
X-77250Y94519D01*
X-77035Y94491D01*
X-76835Y94443D01*
X-76647Y94378D01*
X-76474Y94293D01*
X-76314Y94189D01*
X-76167Y94067D01*
X-76035Y93926D01*
X-75917Y93767D01*
X-75814Y93591D01*
X-75728Y93398D01*
X-75657Y93188D01*
X-75602Y92961D01*
X-75563Y92717D01*
X-75539Y92456D01*
X-75531Y92178D01*
X-75539Y91898D01*
X-75562Y91636D01*
X-75602Y91390D01*
X-75656Y91162D01*
X-75727Y90951D01*
X-75813Y90758D01*
X-75915Y90581D01*
X-76033Y90422D01*
X-76165Y90281D01*
X-76311Y90159D01*
X-76472Y90055D01*
X-76647Y89971D01*
X-76836Y89905D01*
X-77038Y89858D01*
X-77255Y89830D01*
X-77487Y89820D01*
G37*
G36*
X-79498Y88125D02*
X-80228Y88125D01*
X-80597Y88558D01*
X-80914Y89005D01*
X-81181Y89466D01*
X-81396Y89942D01*
X-81563Y90440D01*
X-81681Y90969D01*
X-81752Y91529D01*
X-81776Y92120D01*
X-81776Y92136D01*
X-81753Y92724D01*
X-81682Y93281D01*
X-81564Y93809D01*
X-81398Y94308D01*
X-81184Y94785D01*
X-80917Y95247D01*
X-80598Y95696D01*
X-80228Y96131D01*
X-79498Y96131D01*
X-79864Y95686D01*
X-80178Y95229D01*
X-80440Y94759D01*
X-80649Y94276D01*
X-80810Y93775D01*
X-80925Y93250D01*
X-80994Y92701D01*
X-81017Y92128D01*
X-80994Y91555D01*
X-80925Y91006D01*
X-80811Y90482D01*
X-80652Y89982D01*
X-80443Y89500D01*
X-80181Y89030D01*
X-79866Y88571D01*
X-79498Y88125D01*
G37*
G36*
X-74372Y88125D02*
X-75102Y88125D01*
X-74733Y88573D01*
X-74417Y89033D01*
X-74155Y89505D01*
X-73946Y89988D01*
X-73788Y90488D01*
X-73674Y91012D01*
X-73606Y91558D01*
X-73583Y92128D01*
X-73606Y92700D01*
X-73675Y93248D01*
X-73790Y93774D01*
X-73951Y94276D01*
X-74160Y94761D01*
X-74422Y95231D01*
X-74736Y95688D01*
X-75102Y96131D01*
X-74372Y96131D01*
X-74003Y95698D01*
X-73686Y95251D01*
X-73419Y94790D01*
X-73204Y94314D01*
X-73038Y93816D01*
X-72919Y93287D01*
X-72848Y92727D01*
X-72824Y92136D01*
X-72824Y92120D01*
X-72848Y91532D01*
X-72918Y90975D01*
X-73036Y90446D01*
X-73202Y89948D01*
X-73416Y89471D01*
X-73683Y89009D01*
X-74002Y88560D01*
X-74372Y88125D01*
G37*
G36*
X-26074Y89904D02*
X-26830Y89904D01*
X-26830Y92271D01*
X-26845Y92626D01*
X-26892Y92938D01*
X-26969Y93207D01*
X-27077Y93431D01*
X-27215Y93608D01*
X-27380Y93735D01*
X-27574Y93811D01*
X-27681Y93829D01*
X-27795Y93836D01*
X-28021Y93825D01*
X-28198Y93794D01*
X-28198Y94486D01*
X-28043Y94518D01*
X-27891Y94528D01*
X-27689Y94515D01*
X-27512Y94475D01*
X-27358Y94408D01*
X-27228Y94314D01*
X-27114Y94184D01*
X-27007Y94008D01*
X-26907Y93785D01*
X-26813Y93517D01*
X-26796Y93517D01*
X-26763Y94444D01*
X-26049Y94444D01*
X-26074Y93387D01*
X-26074Y89904D01*
G37*
G36*
X-89479Y89820D02*
X-90158Y89820D01*
X-91866Y96131D01*
X-91203Y96131D01*
X-89479Y89820D01*
G37*
M02*
