G04 EAGLE Gerber RS-274X export*
G75*
%MOMM*%
%FSLAX34Y34*%
%LPD*%
%INSolderpaste Top*%
%IPPOS*%
%AMOC8*
5,1,8,0,0,1.08239X$1,22.5*%
G01*
G04 Define Apertures*
%ADD10R,0.920900X0.970200*%
%ADD11R,0.560000X0.629100*%
%ADD12R,0.600000X0.700000*%
%ADD13R,0.800100X0.457200*%
%ADD14R,0.600000X1.700000*%
%ADD15R,1.000000X2.800000*%
%ADD16R,0.700000X0.600000*%
D10*
X-74884Y40560D03*
X-90376Y40560D03*
D11*
X-76784Y26050D03*
X-86476Y26050D03*
X-76784Y-25210D03*
X-86476Y-25210D03*
X-76784Y-14780D03*
X-86476Y-14780D03*
X-69616Y-84918D03*
X-59924Y-84918D03*
X-91768Y-84818D03*
X-101460Y-84818D03*
X-76784Y4920D03*
X-86476Y4920D03*
X-76784Y15350D03*
X-86476Y15350D03*
D12*
X-84286Y-37028D03*
X-74286Y-37028D03*
D13*
X-75170Y-69346D03*
X-75170Y-59846D03*
X-75170Y-50346D03*
X-100696Y-50346D03*
X-100696Y-69346D03*
D12*
X69470Y30346D03*
X79470Y30346D03*
X-66374Y-148500D03*
X-56374Y-148500D03*
D11*
X81624Y7780D03*
X91316Y7780D03*
X81600Y19322D03*
X91292Y19322D03*
D12*
X66021Y-24177D03*
X76021Y-24177D03*
D14*
X6250Y-142656D03*
X18750Y-142656D03*
X31250Y-142656D03*
X43750Y-142656D03*
X-6250Y-142656D03*
X-18750Y-142656D03*
X-31250Y-142656D03*
X-43750Y-142656D03*
D15*
X62250Y-109156D03*
X-62250Y-109156D03*
D16*
X-110000Y-180000D03*
X-110000Y-170000D03*
M02*
