M48
;GenerationSoftware,Autodesk,EAGLE,9.7.0*%
;CreationDate,2025-08-12T23:05:42Z*%
FMAT,2
ICI,OFF
METRIC,TZ,000.000
T4C0.350
T3C0.600
T2C1.016
T1C2.300
%
G90
M71
T1
X-10500Y-12500
X10500Y-12500
X10500Y12500
X-10500Y12500
T2
X10960Y4937
X10960Y7477
X-8890Y-17500
X-6350Y-17500
X-3810Y-17500
X-1270Y-17500
X1270Y-17500
X3810Y-17500
X6350Y-17500
X8890Y-17500
T3
X-5359Y324
X5334Y-4125
X-5359Y3884
X-5359Y5664
X-5359Y-1456
X-5359Y-3236
X-5359Y-5016
X-5359Y-6796
X5334Y4775
X5334Y2995
X5334Y1215
X5334Y-565
X5334Y-5905
X5334Y-7685
X5334Y-2345
X-5359Y2104
T4
X-6000Y9500
X-8317Y7534
X-7800Y6100
X-11700Y10700
X-8300Y13700
X-6300Y14122
X4500Y14122
X9900Y10400
X-9800Y2000
X-9800Y3100
X-9500Y5600
X-9300Y-6100
X-6300Y-5900
X-11500Y-3400
X-7500Y-600
X-9834Y700
X-12122Y5300
X-12122Y2000
X-11300Y300
X9900Y-300
X8800Y3900
X-5317Y7334
X5171Y8500
X5951Y9651
X6867Y10667
X-11816Y8416
X3800Y12666
X-2200Y12666
X-3700Y12666
X-8841Y8941
X2500Y11083
X-300Y11083
X-3000Y11083
X7510Y8093
X200Y9336
X3000Y9400
X1500Y9500
X-5000Y-9700
X-5100Y-11900
X6119Y298
X6199Y-3301
X7980Y-1220
X-6600Y-4386
X8472Y-13145
X-6229Y-2371
X-11222Y-8072
X-8719Y-9566
X6264Y3964
X6180Y-1420
X2800Y-9700
X-2400Y-9800
X-10620Y7480
X11880Y9280
X-8320Y-7620
X-11920Y-18120
X12080Y6280
X9976Y-9200
X9976Y-7000
X6500Y-6248
X7329Y-10853
X5109Y-10409
X-2540Y-18384
X-31Y-18341
X3770Y-12971
X7281Y-9200
X-5140Y-18384
X2480Y-18384
X4159Y-11357
X-9138Y-16030
X-11220Y-15320
X-5100Y-15731
X9467Y8067
X5100Y-11357
X-5500Y-12800
X6119Y2098
X8590Y-10300
X11022Y-10500
X-10191Y-4200
X-9900Y-2306
X-10634Y-1000
X-7938Y-15530
X-6600Y400
X-6305Y2995
X-8800Y-4600
X-9753Y-3353
X-11359Y-2373
X-5194Y-10986
X-7713Y-11000
X8300Y5900
X10900Y2700
X11900Y-600
X12100Y-4800
X12122Y-6900
X12122Y-10800
X9900Y-3800
X9100Y-14400
X11600Y-16600
X11300Y-18600
X7600Y-19100
X5200Y-19122
X-7620Y-18309
X-10882Y-19118
X-12122Y-14100
X-12000Y-10900
X-2200Y-15900
X700Y-15900
X5600Y-15800
X3100Y-15800
X5700Y-13600
X1200Y-12800
X-1800Y-12700
X-2500Y14122
X-7913Y-13024
X8428Y-6100
X5764Y6164
X8300Y-15393
X6200Y13900
X-3896Y-11804
M30