M48
;GenerationSoftware,Autodesk,EAGLE,9.7.0*%
;CreationDate,2025-01-20T20:14:21Z*%
FMAT,2
ICI,OFF
METRIC,TZ,000.000
T1C4.250
%
G90
M71
T1
X0Y0
X15000Y0
X30000Y0
X45000Y0
X60000Y0
X75000Y0
X90000Y0
X105000Y0
X120000Y0
X135000Y0
X150000Y0
X0Y15000
X15000Y15000
X30000Y15000
X45000Y15000
X60000Y15000
X75000Y15000
X90000Y15000
X105000Y15000
X120000Y15000
X135000Y15000
X150000Y15000
X0Y30000
X15000Y30000
X30000Y30000
X45000Y30000
X60000Y30000
X75000Y30000
X90000Y30000
X105000Y30000
X120000Y30000
X135000Y30000
X150000Y30000
M30