M48
;GenerationSoftware,Autodesk,EAGLE,9.7.0*%
;CreationDate,2025-06-05T18:33:15Z*%
FMAT,2
ICI,OFF
METRIC,TZ,000.000
T6C0.350
T5C1.000
T4C1.016
T3C1.300
T2C2.286
T1C3.200
%
G90
M71
T1
X0Y101600
X-31750Y29210
X25400Y8890
T2
X-12796Y102743
X-12796Y89535
T3
X-30607Y51392
X-30607Y56392
X-30607Y3048
X-30607Y8048
T4
X23622Y15367
X16510Y39370
X13970Y39370
X-6350Y19050
X23622Y35687
X-8890Y62230
X-6350Y62230
X-8890Y59690
X-6350Y59690
X-8890Y57150
X-6350Y57150
X-8890Y54610
X-6350Y54610
X-8890Y52070
X-6350Y52070
X-6350Y8890
X-8890Y8890
X-8890Y49530
X-6350Y49530
X-8890Y46990
X-6350Y46990
X-8890Y44450
X-6350Y44450
X-8890Y41910
X-6350Y41910
X-8890Y39370
X-6350Y39370
X16510Y41910
X23622Y17907
X13970Y41910
X16510Y44450
X13970Y44450
X16510Y46990
X13970Y46990
X16510Y49530
X13970Y49530
X26877Y74803
X24337Y74803
X21797Y74803
X19257Y74803
X16717Y74803
X14177Y74803
X11637Y74803
X9097Y74803
X26924Y83947
X24384Y83947
X21844Y83947
X19304Y83947
X16764Y83947
X14224Y83947
X11684Y83947
X9144Y83947
X26924Y93091
X24384Y93091
X21844Y93091
X19304Y93091
X16764Y93091
X14224Y93091
X11684Y93091
X9144Y93091
X26924Y102235
X24384Y102235
X21844Y102235
X19304Y102235
X16764Y102235
X14224Y102235
X11684Y102235
X9144Y102235
X-6350Y11430
X-8890Y11430
X-6350Y6350
X-8890Y6350
X11430Y39370
X-3810Y39370
X-3810Y41910
X-3810Y44450
X-3810Y46990
X-3810Y49530
X-3810Y52070
X-3810Y54610
X-3810Y57150
X-3810Y59690
X-3810Y62230
X11430Y62230
X11430Y59690
X11430Y57150
X11430Y54610
X11430Y52070
X11430Y49530
X11430Y46990
X11430Y44450
X11430Y41910
X11430Y3810
X11430Y6350
X11430Y8890
X11430Y11430
X11430Y13970
X11430Y16510
X11430Y19050
X11430Y21590
X11430Y24130
X11430Y26670
X11430Y29210
X11430Y31750
X11430Y34290
X11430Y36830
X-3810Y3810
X-3810Y6350
X-3810Y8890
X-3810Y11430
X-3810Y13970
X-3810Y16510
X-3810Y19050
X-3810Y21590
X-3810Y24130
X-3810Y26670
X-3810Y29210
X-3810Y31750
X-3810Y34290
X-3810Y36830
X-5303Y93599
X-5303Y98679
X-19781Y93599
X23622Y20447
X23622Y22987
X-19781Y98679
X-5303Y96139
X-6350Y13970
X-8890Y13970
X-6350Y16510
X-8890Y16510
X23622Y38227
X-8890Y19050
X-6350Y21590
X-8890Y21590
X-6350Y24130
X-8890Y24130
X-6350Y26670
X-8890Y26670
X-6350Y29210
X-8890Y29210
X-6350Y31750
X-8890Y31750
X-6350Y34290
X-8890Y34290
X-6350Y36830
X-8890Y36830
X13970Y6350
X13970Y8890
X13970Y11430
X13970Y13970
X13970Y16510
X13970Y19050
X13970Y21590
X13970Y24130
X13970Y26670
X13970Y29210
X13970Y31750
X13970Y34290
X13970Y36830
X16510Y36830
X16510Y34290
X16510Y31750
X16510Y29210
X16510Y26670
X16510Y24130
X16510Y21590
X16510Y19050
X16510Y16510
X16510Y13970
X16510Y11430
X16510Y8890
X16510Y6350
X23622Y25527
X23622Y28067
X24130Y3861
X21590Y3861
X19050Y3861
X16510Y3861
X13970Y3861
X24315Y44802
X24315Y47342
X24315Y49882
X24315Y52422
X24315Y54962
X24315Y57502
X24315Y60042
X24315Y62582
X23622Y30607
X23622Y33147
X-6350Y3810
X-8890Y3810
X-11430Y3810
X-13970Y3810
X-16510Y3810
X13970Y62230
X16510Y62230
X13970Y59690
X16510Y59690
X13970Y57150
X16510Y57150
X13970Y54610
X16510Y54610
X13970Y52070
X16510Y52070
T5
X-11430Y49530
X-11430Y46990
X-11430Y44450
X-11430Y41910
X-11430Y39370
X-11430Y36830
X-11430Y34290
X-11430Y31750
X-24130Y49530
X-24130Y46990
X-24130Y44450
X-24130Y41910
X-24130Y39370
X-24130Y36830
X-24130Y34290
X-24130Y31750
X-13970Y31750
X-16510Y31750
X-29210Y22860
X-29210Y20320
X-29210Y17780
X-29210Y15240
X-29210Y43180
X-29210Y40640
X-29210Y38100
X-29210Y35560
X-29210Y71120
X-29210Y68580
X-16510Y57150
X-13970Y57150
X-24130Y57150
X-24130Y59690
X-24130Y62230
X-24130Y64770
X-24130Y67310
X-24130Y69850
X-24130Y72390
X-24130Y74930
X-11430Y57150
X-11430Y59690
X-11430Y62230
X-11430Y64770
X-11430Y67310
X-11430Y69850
X-11430Y72390
X-11430Y74930
X-16510Y8890
X-13970Y8890
X-24130Y8890
X-24130Y11430
X-24130Y13970
X-24130Y16510
X-24130Y19050
X-24130Y21590
X-24130Y24130
X-24130Y26670
X-11430Y8890
X-11430Y11430
X-11430Y13970
X-11430Y16510
X-11430Y19050
X-11430Y21590
X-11430Y24130
X-11430Y26670
X-29210Y66040
X-29210Y63500
T6
X254Y46609
X-8258Y66675
X-2540Y15240
X-2540Y20193
X-2540Y25400
X-13922Y21209
X27Y21590
X-26670Y24257
X-26035Y45974
X-26543Y52705
X-22733Y69850
X15494Y73533
X17907Y73406
X15494Y82550
X18034Y82550
X15494Y91567
X17907Y91694
X15494Y100838
X17907Y100584
X10287Y15240
X10287Y12700
X10160Y17780
X10287Y20320
X9525Y30607
X10287Y35560
X-10541Y53340
X-10287Y60960
X-13208Y68199
X-10160Y35560
X-10160Y33020
X-10160Y38100
X-10160Y40640
X-11977Y43180
X-10160Y48260
X-10160Y45720
X-10160Y50800
X-20424Y45720
X-22756Y40640
X-22756Y22860
X-22999Y7724
X-18861Y8701
X-16510Y19050
X-16510Y17780
X-16510Y16510
X-19050Y17780
X-19050Y19050
X-16510Y39370
X-16510Y40640
X-16510Y41910
X-19050Y41910
X-19050Y40640
X-17780Y43180
X-16510Y64770
X-16510Y66040
X-16510Y67310
X-19050Y67310
X-19050Y66040
X-19050Y64770
X-17780Y68580
X-18719Y71451
X-17497Y70229
X-22160Y15940
X-19050Y16764
X-19050Y39497
X-31496Y100330
X-32766Y100330
X-34036Y100330
X-34036Y97663
X-32766Y97663
X-31496Y97663
X-34928Y98933
X24747Y98316
X18234Y102771
X13154Y102771
X2664Y96520
X14693Y99568
X26468Y81407
X26577Y71247
X26577Y66846
X26120Y58718
X26120Y53848
X26120Y51406
X23506Y51152
X26120Y45094
X26225Y68511
X24613Y70993
X24613Y72898
X21608Y66022
X1893Y40513
X3683Y64856
X10668Y67650
X7366Y67523
X5105Y48260
X13564Y71773
X25890Y56315
X25819Y48459
X21544Y53446
X13515Y81026
X19017Y61087
X22845Y52597
X22733Y55118
X18814Y63228
X4300Y63518
X12700Y63542
X7874Y65061
X16350Y65692
X17430Y66771
X-27940Y55880
X7112Y63754
X17653Y30607
X22098Y35306
X5588Y35433
X4826Y37719
X5715Y39370
X12827Y38100
X-8001Y43180
X-10541Y20320
X-13081Y16510
X-16129Y55245
X-21463Y58801
X-20066Y54356
X-20066Y27813
X381Y7874
X2921Y93345
X-1778Y89916
X-17272Y84836
X-7620Y5080
X-7747Y7620
X-7620Y10160
X-11303Y7605
X-7747Y15240
X-7747Y22860
X-7620Y25400
X-7620Y27940
X-10414Y30607
X18161Y58420
X12700Y50927
X15113Y45720
X15240Y25527
X20320Y17653
X24511Y1270
X12319Y1140
X-6223Y69088
X-1778Y66040
X-33274Y51816
X-33909Y81788
X-33655Y85979
X-30102Y76454
X-30608Y78358
X-33528Y60071
X-33528Y78994
X-33528Y69850
X-33528Y64770
X-33401Y74422
X-30989Y79882
X-13463Y7238
X-30734Y41656
X-30607Y36830
X-30734Y21336
X-30734Y16383
X-30734Y69596
X-30607Y64770
X15113Y7493
X15240Y10160
X18034Y56132
X-3810Y98679
X-21463Y4953
X-12700Y5334
X-29337Y5207
X-10414Y12700
X-14478Y12573
X17804Y40664
X24051Y42878
X21390Y15621
X20013Y30480
X21082Y38100
X21844Y30734
X21209Y32385
X20955Y25273
X21590Y22860
X21844Y20193
X18034Y20320
X17907Y22860
X9144Y25527
X9779Y22860
X9779Y26289
X19939Y28067
X22352Y26670
X24638Y19177
X-27178Y102743
X-24511Y103124
X-21844Y77724
X3683Y29718
X17907Y32766
X18288Y38608
X26543Y43307
X27940Y67564
X27940Y49530
X25019Y36576
X24511Y34417
X-15240Y34290
X5156Y40259
X-13575Y64453
X2802Y40188
X-553Y38073
X1918Y38050
X2032Y58420
X9652Y58420
X8128Y58545
X5156Y58547
X25400Y76200
X25877Y72167
X21829Y51308
X8890Y17780
X6985Y19558
X-2921Y43180
X-2897Y58317
X-2961Y60920
X6604Y68930
X-5986Y74168
X1270Y57150
X-13970Y40640
X-16510Y49530
X-28639Y26606
X26241Y40053
X-27064Y18507
X-28051Y16193
X-26670Y15166
X-27925Y42664
X-27428Y63885
X-26986Y67121
X22352Y58293
X25674Y46064
X22650Y46642
X22667Y44120
X21365Y42818
X25205Y66548
X22707Y47687
X6477Y54229
X5875Y60459
X21303Y49149
X17399Y53340
X-96Y81280
X-96Y55499
X1918Y43434
X1636Y32512
X-238Y32766
X7175Y59710
X5664Y54864
X9405Y33020
X-1089Y95431
X-3001Y50800
X31Y40259
X1397Y90424
X1397Y77089
X1397Y64262
X1397Y51689
X7112Y76708
X6604Y100711
X6223Y96520
X9842Y81788
X9842Y79756
X9842Y91059
X9842Y88900
X9780Y70627
X9827Y98044
X10970Y87884
X9780Y72771
X15367Y69723
X17907Y69723
X20447Y69723
X15367Y78994
X17907Y78867
X20447Y78994
X20447Y97282
X17907Y97282
X15367Y97409
X15367Y88011
X17907Y88138
X20447Y88138
X-24257Y81151
X-27940Y86047
X-28321Y81534
X-33020Y92456
X-35436Y88900
X-35436Y93599
X-34417Y93599
X12327Y100148
X12382Y98044
X22225Y98171
X22225Y100203
X24765Y100203
X22352Y90805
X24765Y89027
X24765Y91059
X12192Y90551
X12192Y88900
X12192Y79883
X12192Y81788
X22352Y81788
X22352Y79883
X24765Y79883
X24765Y81915
X22352Y71120
X22352Y72771
X12192Y72644
X12192Y70485
X21336Y99695
X9906Y100330
X17907Y35941
X27562Y34544
X19304Y34290
X-10033Y78740
X-3683Y68199
X-16383Y74676
X-15748Y80645
X-12700Y77724
X-10922Y81915
X-20574Y83820
X-16129Y87884
X-24765Y92837
X-34417Y101346
X-30480Y99060
X-29464Y102743
X-33020Y90932
X-32893Y94361
X-29972Y92202
X-22098Y88519
X-21336Y85725
X-21971Y80144
X-26416Y81280
X-28702Y80391
X-26797Y94615
X-22860Y91059
X-22225Y86614
X-30226Y88900
X-30099Y93853
X-27559Y73533
X-26543Y69850
X-27051Y39370
X-27051Y36830
X-25908Y21209
X-30099Y12446
X-27559Y10922
X-31750Y47498
X-33020Y31877
X-33147Y42291
X-29210Y33020
X-26670Y31750
X-17018Y44196
X-16256Y22225
X-13589Y26924
X-13843Y33274
X-12700Y30226
X-13208Y51816
X-13208Y54864
X-6731Y64135
X20922Y60706
X23749Y77216
X20320Y71755
X10922Y69342
X20701Y90424
X20828Y80772
X13208Y89789
X6604Y90678
X6223Y87249
X7493Y81788
X5080Y78867
X11049Y78232
X-2159Y104016
X3429Y104016
X27559Y104016
X27816Y100076
X27813Y89027
X27816Y78740
X27054Y29337
X25146Y64389
X12827Y43180
X9398Y41275
X18669Y43180
X18669Y45339
X17526Y50800
X17423Y48157
X20828Y56007
X21844Y62865
X23241Y67691
X18288Y64897
X19939Y66675
X1270Y48260
X7620Y41910
X7620Y45720
X7620Y52070
X9271Y52959
X9017Y43561
X9144Y50165
X1778Y22733
X-6350Y102870
X-16510Y91440
X-13970Y96520
X-12700Y93980
X-19050Y101600
X-21590Y102870
X-29210Y104016
X-34290Y104016
X-35436Y95250
X-35436Y78740
X-35436Y33020
X-35436Y36830
X-35436Y43180
X-35436Y53340
X-35436Y63500
X-35436Y73660
X-35436Y7620
X-35436Y25400
X-35436Y20320
X-33020Y22860
X-33020Y19050
X-33020Y13970
X-33020Y8890
X-34290Y1394
X-29210Y1394
X-21590Y1394
X27816Y1394
X6350Y1394
X19050Y1394
X-13970Y1394
X-1270Y1394
X3810Y2540
X6350Y6350
X8890Y7620
X9198Y28067
X7620Y26670
X3810Y25400
X2540Y36830
X5334Y32639
X6731Y30226
X-2540Y30480
X-2540Y33020
X27Y26670
X2540Y20320
X1270Y11430
X5080Y12700
X20320Y10160
X20320Y6350
X22860Y8890
X25400Y12700
X26670Y18796
X25400Y21590
X-15923Y10160
X4798Y82550
X4798Y93980
X3127Y81788
X3127Y85852
X-2359Y91621
X-32190Y87135
X25891Y87630
X26083Y24765
X-16510Y27940
X-13589Y58674
X-17780Y20320
X5080Y102870
X-10160Y86360
X-2540Y92710
X-27940Y78740
X-22860Y96520
X-3338Y77470
X-7405Y94945
X28070Y26797
X27816Y12700
X27308Y36957
X-21717Y75438
X3429Y69596
X-16510Y102870
X-2667Y75311
X-27940Y77470
X18288Y26162
X26670Y96520
X23368Y69342
X15367Y70993
X17907Y71120
X15494Y80010
X17907Y80137
X21844Y79248
X21971Y88519
X15367Y89154
X17907Y89154
X17907Y98298
X21717Y97409
X19050Y15827
X-22685Y79408
X2540Y5080
X2540Y16510
X5080Y22860
X14732Y66548
M30